G04 #@! TF.GenerationSoftware,KiCad,Pcbnew,5.0.2+dfsg1-1*
G04 #@! TF.CreationDate,2019-10-24T09:01:44+03:00*
G04 #@! TF.ProjectId,ERG-T-04,4552472d-542d-4303-942e-6b696361645f,rev?*
G04 #@! TF.SameCoordinates,Original*
G04 #@! TF.FileFunction,Profile,NP*
%FSLAX46Y46*%
G04 Gerber Fmt 4.6, Leading zero omitted, Abs format (unit mm)*
G04 Created by KiCad (PCBNEW 5.0.2+dfsg1-1) date Чт 24 окт 2019 09:01:44*
%MOMM*%
%LPD*%
G01*
G04 APERTURE LIST*
%ADD10C,0.050000*%
%ADD11C,0.200000*%
G04 APERTURE END LIST*
D10*
X38300000Y-31950000D02*
G75*
G03X38300000Y-31950000I-9500000J0D01*
G01*
X38800000Y-61950000D02*
G75*
G03X38800000Y-61950000I-9500000J0D01*
G01*
X139300000Y-76950000D02*
G75*
G03X139300000Y-76950000I-9500000J0D01*
G01*
D11*
X102217500Y-83357500D02*
X102217500Y-85857500D01*
X135217500Y-60057500D02*
X100217500Y-60057500D01*
X135217500Y-63657500D02*
X135217500Y-60057500D01*
X100217500Y-63657500D02*
X135217500Y-63657500D01*
X100217500Y-60057500D02*
X100217500Y-55357500D01*
X58217500Y-83357500D02*
X102217500Y-83357500D01*
X117817500Y-67857500D02*
X117817500Y-69957500D01*
X117817500Y-69957500D02*
X113517500Y-69957500D01*
X117817500Y-83757500D02*
X117817500Y-85857500D01*
X117817500Y-83757500D02*
X113517500Y-83757500D01*
X113517500Y-69957500D02*
X113517500Y-83757500D01*
X102217500Y-67857500D02*
X102217500Y-70357500D01*
X102217500Y-67857500D02*
X117817500Y-67857500D01*
X102217500Y-70357500D02*
X58217500Y-70357500D01*
X58217500Y-70357500D02*
X58217500Y-75057500D01*
X58217500Y-75057500D02*
X23217500Y-75057500D01*
X102217500Y-85857500D02*
X117817500Y-85857500D01*
X56217500Y-55357500D02*
X56217500Y-52857500D01*
X100217500Y-55357500D02*
X56217500Y-55357500D01*
X56217500Y-68357500D02*
X100217500Y-68357500D01*
X100217500Y-68357500D02*
X100217500Y-63657500D01*
X40617500Y-70857500D02*
X40617500Y-68757500D01*
X40617500Y-68757500D02*
X44917500Y-68757500D01*
X40617500Y-54957500D02*
X40617500Y-52857500D01*
X40617500Y-54957500D02*
X44917500Y-54957500D01*
X44917500Y-68757500D02*
X44917500Y-54957500D01*
X56217500Y-70857500D02*
X56217500Y-68357500D01*
X56217500Y-70857500D02*
X40617500Y-70857500D01*
X56217500Y-52857500D02*
X40617500Y-52857500D01*
X58217500Y-78657500D02*
X58217500Y-83357500D01*
X23217500Y-78657500D02*
X58217500Y-78657500D01*
X23217500Y-75057500D02*
X23217500Y-78657500D01*
X56217500Y-25357500D02*
X56217500Y-22857500D01*
X100217500Y-25357500D02*
X56217500Y-25357500D01*
X40617500Y-40857500D02*
X40617500Y-38757500D01*
X40617500Y-38757500D02*
X44917500Y-38757500D01*
X40617500Y-24957500D02*
X40617500Y-22857500D01*
X40617500Y-24957500D02*
X44917500Y-24957500D01*
X44917500Y-38757500D02*
X44917500Y-24957500D01*
X56217500Y-40857500D02*
X56217500Y-38357500D01*
X56217500Y-40857500D02*
X40617500Y-40857500D01*
X56217500Y-38357500D02*
X100217500Y-38357500D01*
X100217500Y-38357500D02*
X100217500Y-33657500D01*
X100217500Y-33657500D02*
X135217500Y-33657500D01*
X56217500Y-22857500D02*
X40617500Y-22857500D01*
X100217500Y-30057500D02*
X100217500Y-25357500D01*
X135217500Y-30057500D02*
X100217500Y-30057500D01*
X135217500Y-33657500D02*
X135217500Y-30057500D01*
X102217500Y-55857500D02*
X117817500Y-55857500D01*
X102217500Y-53357500D02*
X102217500Y-55857500D01*
X58217500Y-53357500D02*
X102217500Y-53357500D01*
X58217500Y-48657500D02*
X58217500Y-53357500D01*
X23217500Y-48657500D02*
X58217500Y-48657500D01*
X23217500Y-45057500D02*
X23217500Y-48657500D01*
X58217500Y-45057500D02*
X23217500Y-45057500D01*
X58217500Y-40357500D02*
X58217500Y-45057500D01*
X102217500Y-40357500D02*
X58217500Y-40357500D01*
X102217500Y-37857500D02*
X117817500Y-37857500D01*
X102217500Y-37857500D02*
X102217500Y-40357500D01*
X113517500Y-39957500D02*
X113517500Y-53757500D01*
X117817500Y-53757500D02*
X113517500Y-53757500D01*
X117817500Y-53757500D02*
X117817500Y-55857500D01*
X117817500Y-39957500D02*
X113517500Y-39957500D01*
X117817500Y-37857500D02*
X117817500Y-39957500D01*
D10*
X139300000Y-46950000D02*
G75*
G03X139300000Y-46950000I-9500000J0D01*
G01*
M02*
