G04 #@! TF.GenerationSoftware,KiCad,Pcbnew,5.0.2+dfsg1-1*
G04 #@! TF.CreationDate,2019-10-24T09:01:44+03:00*
G04 #@! TF.ProjectId,ERG-T-04,4552472d-542d-4303-942e-6b696361645f,rev?*
G04 #@! TF.SameCoordinates,Original*
G04 #@! TF.FileFunction,Soldermask,Top*
G04 #@! TF.FilePolarity,Negative*
%FSLAX46Y46*%
G04 Gerber Fmt 4.6, Leading zero omitted, Abs format (unit mm)*
G04 Created by KiCad (PCBNEW 5.0.2+dfsg1-1) date Чт 24 окт 2019 09:01:44*
%MOMM*%
%LPD*%
G01*
G04 APERTURE LIST*
%ADD10C,0.100000*%
G04 APERTURE END LIST*
D10*
G36*
X130150026Y-85296115D02*
X130368412Y-85386573D01*
X130564958Y-85517901D01*
X130732099Y-85685042D01*
X130863427Y-85881588D01*
X130953885Y-86099974D01*
X131000000Y-86331809D01*
X131000000Y-86568191D01*
X130953885Y-86800026D01*
X130863427Y-87018412D01*
X130732099Y-87214958D01*
X130564958Y-87382099D01*
X130368412Y-87513427D01*
X130150026Y-87603885D01*
X129918191Y-87650000D01*
X129681809Y-87650000D01*
X129449974Y-87603885D01*
X129231588Y-87513427D01*
X129035042Y-87382099D01*
X128867901Y-87214958D01*
X128736573Y-87018412D01*
X128646115Y-86800026D01*
X128600000Y-86568191D01*
X128600000Y-86331809D01*
X128646115Y-86099974D01*
X128736573Y-85881588D01*
X128867901Y-85685042D01*
X129035042Y-85517901D01*
X129231588Y-85386573D01*
X129449974Y-85296115D01*
X129681809Y-85250000D01*
X129918191Y-85250000D01*
X130150026Y-85296115D01*
X130150026Y-85296115D01*
G37*
G36*
X118017500Y-86107500D02*
X113617500Y-86107500D01*
X113617500Y-83497500D01*
X118017500Y-83497500D01*
X118017500Y-86107500D01*
X118017500Y-86107500D01*
G37*
G36*
X136875026Y-82471115D02*
X137093412Y-82561573D01*
X137289958Y-82692901D01*
X137457099Y-82860042D01*
X137588427Y-83056588D01*
X137678885Y-83274974D01*
X137725000Y-83506809D01*
X137725000Y-83743191D01*
X137678885Y-83975026D01*
X137588427Y-84193412D01*
X137457099Y-84389958D01*
X137289958Y-84557099D01*
X137093412Y-84688427D01*
X136875026Y-84778885D01*
X136643191Y-84825000D01*
X136406809Y-84825000D01*
X136174974Y-84778885D01*
X135956588Y-84688427D01*
X135760042Y-84557099D01*
X135592901Y-84389958D01*
X135461573Y-84193412D01*
X135371115Y-83975026D01*
X135325000Y-83743191D01*
X135325000Y-83506809D01*
X135371115Y-83274974D01*
X135461573Y-83056588D01*
X135592901Y-82860042D01*
X135760042Y-82692901D01*
X135956588Y-82561573D01*
X136174974Y-82471115D01*
X136406809Y-82425000D01*
X136643191Y-82425000D01*
X136875026Y-82471115D01*
X136875026Y-82471115D01*
G37*
G36*
X123350026Y-82446115D02*
X123568412Y-82536573D01*
X123764958Y-82667901D01*
X123932099Y-82835042D01*
X124063427Y-83031588D01*
X124153885Y-83249974D01*
X124200000Y-83481809D01*
X124200000Y-83718191D01*
X124153885Y-83950026D01*
X124063427Y-84168412D01*
X123932099Y-84364958D01*
X123764958Y-84532099D01*
X123568412Y-84663427D01*
X123350026Y-84753885D01*
X123118191Y-84800000D01*
X122881809Y-84800000D01*
X122649974Y-84753885D01*
X122431588Y-84663427D01*
X122235042Y-84532099D01*
X122067901Y-84364958D01*
X121936573Y-84168412D01*
X121846115Y-83950026D01*
X121800000Y-83718191D01*
X121800000Y-83481809D01*
X121846115Y-83249974D01*
X121936573Y-83031588D01*
X122067901Y-82835042D01*
X122235042Y-82667901D01*
X122431588Y-82536573D01*
X122649974Y-82446115D01*
X122881809Y-82400000D01*
X123118191Y-82400000D01*
X123350026Y-82446115D01*
X123350026Y-82446115D01*
G37*
G36*
X112394526Y-82048352D02*
X112535900Y-82091238D01*
X112666190Y-82160878D01*
X112780399Y-82254607D01*
X112874120Y-82368806D01*
X112943762Y-82499099D01*
X112986648Y-82640473D01*
X112997500Y-82750661D01*
X112997500Y-83524339D01*
X112986648Y-83634527D01*
X112943762Y-83775901D01*
X112874120Y-83906194D01*
X112780396Y-84020396D01*
X112666194Y-84114120D01*
X112535901Y-84183762D01*
X112394527Y-84226648D01*
X112247500Y-84241128D01*
X112100474Y-84226648D01*
X111959100Y-84183762D01*
X111828807Y-84114120D01*
X111714605Y-84020396D01*
X111620881Y-83906194D01*
X111551240Y-83775902D01*
X111508352Y-83634525D01*
X111497500Y-83524339D01*
X111497500Y-82750662D01*
X111508352Y-82640474D01*
X111551238Y-82499100D01*
X111620878Y-82368810D01*
X111714607Y-82254601D01*
X111828806Y-82160880D01*
X111959099Y-82091238D01*
X112100473Y-82048352D01*
X112247500Y-82033872D01*
X112394526Y-82048352D01*
X112394526Y-82048352D01*
G37*
G36*
X105394526Y-82048352D02*
X105535900Y-82091238D01*
X105666190Y-82160878D01*
X105780399Y-82254607D01*
X105874120Y-82368806D01*
X105943762Y-82499099D01*
X105986648Y-82640473D01*
X105997500Y-82750661D01*
X105997500Y-83524339D01*
X105986648Y-83634527D01*
X105943762Y-83775901D01*
X105874120Y-83906194D01*
X105780396Y-84020396D01*
X105666194Y-84114120D01*
X105535901Y-84183762D01*
X105394527Y-84226648D01*
X105247500Y-84241128D01*
X105100474Y-84226648D01*
X104959100Y-84183762D01*
X104828807Y-84114120D01*
X104714605Y-84020396D01*
X104620881Y-83906194D01*
X104551240Y-83775902D01*
X104508352Y-83634525D01*
X104497500Y-83524339D01*
X104497500Y-82750662D01*
X104508352Y-82640474D01*
X104551238Y-82499100D01*
X104620878Y-82368810D01*
X104714607Y-82254601D01*
X104828806Y-82160880D01*
X104959099Y-82091238D01*
X105100473Y-82048352D01*
X105247500Y-82033872D01*
X105394526Y-82048352D01*
X105394526Y-82048352D01*
G37*
G36*
X71767500Y-81732500D02*
X70479287Y-81732500D01*
X70454901Y-81734902D01*
X70431452Y-81742015D01*
X70409841Y-81753566D01*
X70390899Y-81769112D01*
X70375353Y-81788054D01*
X70363802Y-81809665D01*
X70356689Y-81833114D01*
X70354287Y-81857500D01*
X70354889Y-81869753D01*
X70359838Y-81920000D01*
X70340531Y-82116030D01*
X70340530Y-82116033D01*
X70340530Y-82116034D01*
X70299380Y-82251689D01*
X70283348Y-82304537D01*
X70190491Y-82478260D01*
X70065528Y-82630528D01*
X69913260Y-82755491D01*
X69913258Y-82755492D01*
X69739535Y-82848349D01*
X69551034Y-82905530D01*
X69551033Y-82905530D01*
X69551030Y-82905531D01*
X69404124Y-82920000D01*
X69305876Y-82920000D01*
X69158970Y-82905531D01*
X69158967Y-82905530D01*
X69158966Y-82905530D01*
X68970465Y-82848349D01*
X68796742Y-82755492D01*
X68796740Y-82755491D01*
X68644472Y-82630528D01*
X68519507Y-82478257D01*
X68515239Y-82470273D01*
X68501625Y-82449899D01*
X68484298Y-82432572D01*
X68463923Y-82418958D01*
X68441284Y-82409581D01*
X68417251Y-82404801D01*
X68392746Y-82404801D01*
X68368713Y-82409582D01*
X68346074Y-82418960D01*
X68325700Y-82432574D01*
X68308373Y-82449901D01*
X68294761Y-82470273D01*
X68290493Y-82478257D01*
X68165528Y-82630528D01*
X68013260Y-82755491D01*
X68013258Y-82755492D01*
X67839535Y-82848349D01*
X67651034Y-82905530D01*
X67651033Y-82905530D01*
X67651030Y-82905531D01*
X67504124Y-82920000D01*
X67405876Y-82920000D01*
X67258970Y-82905531D01*
X67258967Y-82905530D01*
X67258966Y-82905530D01*
X67070465Y-82848349D01*
X66896742Y-82755492D01*
X66896740Y-82755491D01*
X66744472Y-82630528D01*
X66611718Y-82468767D01*
X66594391Y-82451440D01*
X66574017Y-82437826D01*
X66551378Y-82428448D01*
X66527344Y-82423668D01*
X66502840Y-82423668D01*
X66478807Y-82428448D01*
X66456167Y-82437826D01*
X66435793Y-82451440D01*
X66411164Y-82478613D01*
X66331751Y-82597463D01*
X66192463Y-82736751D01*
X66028678Y-82846189D01*
X65846689Y-82921571D01*
X65730770Y-82944628D01*
X65653493Y-82960000D01*
X65456507Y-82960000D01*
X65379230Y-82944628D01*
X65263311Y-82921571D01*
X65081322Y-82846189D01*
X64917537Y-82736751D01*
X64778249Y-82597463D01*
X64708926Y-82493715D01*
X64693388Y-82474781D01*
X64674446Y-82459236D01*
X64652835Y-82447685D01*
X64629386Y-82440572D01*
X64605000Y-82438170D01*
X64580613Y-82440572D01*
X64557164Y-82447685D01*
X64535554Y-82459236D01*
X64516611Y-82474782D01*
X64501074Y-82493715D01*
X64431751Y-82597463D01*
X64292463Y-82736751D01*
X64128678Y-82846189D01*
X63946689Y-82921571D01*
X63830770Y-82944628D01*
X63753493Y-82960000D01*
X63556507Y-82960000D01*
X63479230Y-82944628D01*
X63363311Y-82921571D01*
X63181322Y-82846189D01*
X63017537Y-82736751D01*
X62878249Y-82597463D01*
X62808926Y-82493715D01*
X62793388Y-82474781D01*
X62774446Y-82459236D01*
X62752835Y-82447685D01*
X62729386Y-82440572D01*
X62705000Y-82438170D01*
X62680613Y-82440572D01*
X62657164Y-82447685D01*
X62635554Y-82459236D01*
X62616611Y-82474782D01*
X62601074Y-82493715D01*
X62531751Y-82597463D01*
X62392463Y-82736751D01*
X62228678Y-82846189D01*
X62046689Y-82921571D01*
X61930770Y-82944628D01*
X61853493Y-82960000D01*
X61656507Y-82960000D01*
X61579230Y-82944628D01*
X61463311Y-82921571D01*
X61281322Y-82846189D01*
X61117537Y-82736751D01*
X60978249Y-82597463D01*
X60908926Y-82493715D01*
X60893388Y-82474781D01*
X60874446Y-82459236D01*
X60852835Y-82447685D01*
X60829386Y-82440572D01*
X60805000Y-82438170D01*
X60780613Y-82440572D01*
X60757164Y-82447685D01*
X60735554Y-82459236D01*
X60716611Y-82474782D01*
X60701074Y-82493715D01*
X60631751Y-82597463D01*
X60492463Y-82736751D01*
X60328678Y-82846189D01*
X60146689Y-82921571D01*
X60030770Y-82944628D01*
X59953493Y-82960000D01*
X59756507Y-82960000D01*
X59679230Y-82944628D01*
X59563311Y-82921571D01*
X59381322Y-82846189D01*
X59217537Y-82736751D01*
X59078249Y-82597463D01*
X58968811Y-82433678D01*
X58893429Y-82251689D01*
X58861514Y-82091239D01*
X58855000Y-82058493D01*
X58855000Y-81861507D01*
X58876471Y-81753566D01*
X58893429Y-81668311D01*
X58968811Y-81486322D01*
X59078249Y-81322537D01*
X59217537Y-81183249D01*
X59381322Y-81073811D01*
X59563311Y-80998429D01*
X59679230Y-80975372D01*
X59756507Y-80960000D01*
X59953493Y-80960000D01*
X60030770Y-80975372D01*
X60146689Y-80998429D01*
X60328678Y-81073811D01*
X60492463Y-81183249D01*
X60631751Y-81322537D01*
X60701074Y-81426285D01*
X60716612Y-81445219D01*
X60735554Y-81460764D01*
X60757165Y-81472315D01*
X60780614Y-81479428D01*
X60805000Y-81481830D01*
X60829387Y-81479428D01*
X60852836Y-81472315D01*
X60874446Y-81460764D01*
X60893389Y-81445218D01*
X60908926Y-81426285D01*
X60978249Y-81322537D01*
X61117537Y-81183249D01*
X61281322Y-81073811D01*
X61463311Y-80998429D01*
X61579230Y-80975372D01*
X61656507Y-80960000D01*
X61853493Y-80960000D01*
X61930770Y-80975372D01*
X62046689Y-80998429D01*
X62228678Y-81073811D01*
X62392463Y-81183249D01*
X62531751Y-81322537D01*
X62601074Y-81426285D01*
X62616612Y-81445219D01*
X62635554Y-81460764D01*
X62657165Y-81472315D01*
X62680614Y-81479428D01*
X62705000Y-81481830D01*
X62729387Y-81479428D01*
X62752836Y-81472315D01*
X62774446Y-81460764D01*
X62793389Y-81445218D01*
X62808926Y-81426285D01*
X62878249Y-81322537D01*
X63017537Y-81183249D01*
X63181322Y-81073811D01*
X63363311Y-80998429D01*
X63479230Y-80975372D01*
X63556507Y-80960000D01*
X63753493Y-80960000D01*
X63830770Y-80975372D01*
X63946689Y-80998429D01*
X64128678Y-81073811D01*
X64292463Y-81183249D01*
X64431751Y-81322537D01*
X64501074Y-81426285D01*
X64516612Y-81445219D01*
X64535554Y-81460764D01*
X64557165Y-81472315D01*
X64580614Y-81479428D01*
X64605000Y-81481830D01*
X64629387Y-81479428D01*
X64652836Y-81472315D01*
X64674446Y-81460764D01*
X64693389Y-81445218D01*
X64708926Y-81426285D01*
X64778249Y-81322537D01*
X64917537Y-81183249D01*
X65081322Y-81073811D01*
X65263311Y-80998429D01*
X65379230Y-80975372D01*
X65456507Y-80960000D01*
X65653493Y-80960000D01*
X65730770Y-80975372D01*
X65846689Y-80998429D01*
X66028678Y-81073811D01*
X66192463Y-81183249D01*
X66331751Y-81322537D01*
X66387408Y-81405834D01*
X66402942Y-81424762D01*
X66421884Y-81440307D01*
X66443495Y-81451859D01*
X66466944Y-81458972D01*
X66491331Y-81461374D01*
X66515717Y-81458972D01*
X66539166Y-81451859D01*
X66560777Y-81440308D01*
X66579719Y-81424763D01*
X66601571Y-81395299D01*
X66619508Y-81361741D01*
X66744472Y-81209472D01*
X66896740Y-81084509D01*
X67070463Y-80991652D01*
X67070465Y-80991651D01*
X67258966Y-80934470D01*
X67258967Y-80934470D01*
X67258970Y-80934469D01*
X67405876Y-80920000D01*
X67504124Y-80920000D01*
X67651030Y-80934469D01*
X67651033Y-80934470D01*
X67651034Y-80934470D01*
X67839535Y-80991651D01*
X67839537Y-80991652D01*
X68013260Y-81084509D01*
X68165528Y-81209472D01*
X68290493Y-81361743D01*
X68294761Y-81369727D01*
X68308375Y-81390101D01*
X68325702Y-81407428D01*
X68346077Y-81421042D01*
X68368716Y-81430419D01*
X68392749Y-81435199D01*
X68417254Y-81435199D01*
X68441287Y-81430418D01*
X68463926Y-81421040D01*
X68484300Y-81407426D01*
X68501627Y-81390099D01*
X68515239Y-81369727D01*
X68519507Y-81361743D01*
X68644472Y-81209472D01*
X68796740Y-81084509D01*
X68970463Y-80991652D01*
X68970465Y-80991651D01*
X69158966Y-80934470D01*
X69158967Y-80934470D01*
X69158970Y-80934469D01*
X69305876Y-80920000D01*
X69404124Y-80920000D01*
X69551030Y-80934469D01*
X69551033Y-80934470D01*
X69551034Y-80934470D01*
X69739535Y-80991651D01*
X69739537Y-80991652D01*
X69913260Y-81084509D01*
X70065525Y-81209469D01*
X70065526Y-81209471D01*
X70065528Y-81209472D01*
X70145876Y-81307377D01*
X70163201Y-81324701D01*
X70183575Y-81338315D01*
X70206214Y-81347692D01*
X70230248Y-81352473D01*
X70254752Y-81352473D01*
X70278785Y-81347693D01*
X70301424Y-81338315D01*
X70321799Y-81324702D01*
X70339126Y-81307374D01*
X70352740Y-81287000D01*
X70362117Y-81264361D01*
X70366898Y-81240327D01*
X70367500Y-81228075D01*
X70367500Y-80082500D01*
X71767500Y-80082500D01*
X71767500Y-81732500D01*
X71767500Y-81732500D01*
G37*
G36*
X100887500Y-80537500D02*
X100889902Y-80561886D01*
X100897015Y-80585335D01*
X100908566Y-80606946D01*
X100924112Y-80625888D01*
X100943054Y-80641434D01*
X100964665Y-80652985D01*
X100988114Y-80660098D01*
X101012500Y-80662500D01*
X102297500Y-80662500D01*
X102297500Y-82312500D01*
X100897500Y-82312500D01*
X100897500Y-80782500D01*
X100895098Y-80758114D01*
X100887985Y-80734665D01*
X100876434Y-80713054D01*
X100860888Y-80694112D01*
X100841946Y-80678566D01*
X100820335Y-80667015D01*
X100796886Y-80659902D01*
X100772500Y-80657500D01*
X100422500Y-80657500D01*
X100398114Y-80659902D01*
X100374665Y-80667015D01*
X100353054Y-80678566D01*
X100334112Y-80694112D01*
X100318566Y-80713054D01*
X100307015Y-80734665D01*
X100299902Y-80758114D01*
X100297500Y-80782500D01*
X100297500Y-82312500D01*
X98897500Y-82312500D01*
X98897500Y-80662500D01*
X99562500Y-80662500D01*
X99586886Y-80660098D01*
X99610335Y-80652985D01*
X99631946Y-80641434D01*
X99650888Y-80625888D01*
X99666434Y-80606946D01*
X99677985Y-80585335D01*
X99685098Y-80561886D01*
X99687500Y-80537500D01*
X99687500Y-79357500D01*
X100887500Y-79357500D01*
X100887500Y-80537500D01*
X100887500Y-80537500D01*
G37*
G36*
X79657500Y-79182500D02*
X79659902Y-79206886D01*
X79667015Y-79230335D01*
X79678566Y-79251946D01*
X79694112Y-79270888D01*
X79713054Y-79286434D01*
X79734665Y-79297985D01*
X79758114Y-79305098D01*
X79782500Y-79307500D01*
X84547500Y-79307500D01*
X84547500Y-79912500D01*
X84549902Y-79936886D01*
X84557015Y-79960335D01*
X84568566Y-79981946D01*
X84584112Y-80000888D01*
X84603054Y-80016434D01*
X84624665Y-80027985D01*
X84648114Y-80035098D01*
X84672500Y-80037500D01*
X85797500Y-80037500D01*
X85797500Y-81737500D01*
X84697500Y-81737500D01*
X84697500Y-81532500D01*
X84695098Y-81508114D01*
X84687985Y-81484665D01*
X84676434Y-81463054D01*
X84660888Y-81444112D01*
X84641946Y-81428566D01*
X84620335Y-81417015D01*
X84596886Y-81409902D01*
X84572500Y-81407500D01*
X79782500Y-81407500D01*
X79758114Y-81409902D01*
X79734665Y-81417015D01*
X79713054Y-81428566D01*
X79694112Y-81444112D01*
X79678566Y-81463054D01*
X79667015Y-81484665D01*
X79659902Y-81508114D01*
X79657500Y-81532500D01*
X79657500Y-81977500D01*
X78007500Y-81977500D01*
X78007500Y-81867500D01*
X78005098Y-81843114D01*
X77997985Y-81819665D01*
X77986434Y-81798054D01*
X77970888Y-81779112D01*
X77951946Y-81763566D01*
X77930335Y-81752015D01*
X77906886Y-81744902D01*
X77882500Y-81742500D01*
X76377500Y-81742500D01*
X76377500Y-80092500D01*
X77778485Y-80092500D01*
X77777500Y-80102500D01*
X77777500Y-80452500D01*
X77779902Y-80476886D01*
X77787015Y-80500335D01*
X77798566Y-80521946D01*
X77814112Y-80540888D01*
X77833054Y-80556434D01*
X77854665Y-80567985D01*
X77878114Y-80575098D01*
X77902500Y-80577500D01*
X79562500Y-80577500D01*
X79586886Y-80575098D01*
X79610335Y-80567985D01*
X79631946Y-80556434D01*
X79650888Y-80540888D01*
X79666434Y-80521946D01*
X79677985Y-80500335D01*
X79685098Y-80476886D01*
X79687500Y-80452500D01*
X79687500Y-80102500D01*
X79685098Y-80078114D01*
X79677985Y-80054665D01*
X79666434Y-80033054D01*
X79650888Y-80014112D01*
X79631946Y-79998566D01*
X79610335Y-79987015D01*
X79586886Y-79979902D01*
X79562500Y-79977500D01*
X78006515Y-79977500D01*
X78007500Y-79967500D01*
X78007500Y-78577500D01*
X79657500Y-78577500D01*
X79657500Y-79182500D01*
X79657500Y-79182500D01*
G37*
G36*
X75777500Y-81742500D02*
X74377500Y-81742500D01*
X74377500Y-80092500D01*
X75777500Y-80092500D01*
X75777500Y-81742500D01*
X75777500Y-81742500D01*
G37*
G36*
X87697500Y-81737500D02*
X86597500Y-81737500D01*
X86597500Y-80037500D01*
X87697500Y-80037500D01*
X87697500Y-81737500D01*
X87697500Y-81737500D01*
G37*
G36*
X73767500Y-81732500D02*
X72367500Y-81732500D01*
X72367500Y-80082500D01*
X73767500Y-80082500D01*
X73767500Y-81732500D01*
X73767500Y-81732500D01*
G37*
G36*
X106510021Y-79572086D02*
X106673809Y-79639929D01*
X106821220Y-79738426D01*
X106834112Y-79751318D01*
X106853054Y-79766864D01*
X106874665Y-79778415D01*
X106898114Y-79785528D01*
X106922500Y-79787930D01*
X106946886Y-79785528D01*
X106970335Y-79778415D01*
X106991946Y-79766864D01*
X107010888Y-79751318D01*
X107026434Y-79732376D01*
X107037985Y-79710765D01*
X107045098Y-79687316D01*
X107047500Y-79662930D01*
X107047500Y-79562500D01*
X110447500Y-79562500D01*
X110447500Y-79662930D01*
X110449902Y-79687316D01*
X110457015Y-79710765D01*
X110468566Y-79732376D01*
X110484112Y-79751318D01*
X110503054Y-79766864D01*
X110524665Y-79778415D01*
X110548114Y-79785528D01*
X110572500Y-79787930D01*
X110596886Y-79785528D01*
X110620335Y-79778415D01*
X110641946Y-79766864D01*
X110660888Y-79751318D01*
X110673780Y-79738426D01*
X110821191Y-79639929D01*
X110984979Y-79572086D01*
X111158856Y-79537500D01*
X111336144Y-79537500D01*
X111510021Y-79572086D01*
X111673809Y-79639929D01*
X111821220Y-79738426D01*
X111946574Y-79863780D01*
X112045071Y-80011191D01*
X112112914Y-80174979D01*
X112147500Y-80348856D01*
X112147500Y-80526144D01*
X112112914Y-80700021D01*
X112045071Y-80863809D01*
X111946574Y-81011220D01*
X111821220Y-81136574D01*
X111673809Y-81235071D01*
X111510021Y-81302914D01*
X111336144Y-81337500D01*
X111158856Y-81337500D01*
X110984979Y-81302914D01*
X110821191Y-81235071D01*
X110673780Y-81136574D01*
X110660888Y-81123682D01*
X110641946Y-81108136D01*
X110620335Y-81096585D01*
X110596886Y-81089472D01*
X110572500Y-81087070D01*
X110548114Y-81089472D01*
X110524665Y-81096585D01*
X110503054Y-81108136D01*
X110484112Y-81123682D01*
X110468566Y-81142624D01*
X110457015Y-81164235D01*
X110449902Y-81187684D01*
X110447500Y-81212070D01*
X110447500Y-81312500D01*
X107047500Y-81312500D01*
X107047500Y-81212070D01*
X107045098Y-81187684D01*
X107037985Y-81164235D01*
X107026434Y-81142624D01*
X107010888Y-81123682D01*
X106991946Y-81108136D01*
X106970335Y-81096585D01*
X106946886Y-81089472D01*
X106922500Y-81087070D01*
X106898114Y-81089472D01*
X106874665Y-81096585D01*
X106853054Y-81108136D01*
X106834112Y-81123682D01*
X106821220Y-81136574D01*
X106673809Y-81235071D01*
X106510021Y-81302914D01*
X106336144Y-81337500D01*
X106158856Y-81337500D01*
X105984979Y-81302914D01*
X105821191Y-81235071D01*
X105673780Y-81136574D01*
X105548426Y-81011220D01*
X105449929Y-80863809D01*
X105382086Y-80700021D01*
X105347500Y-80526144D01*
X105347500Y-80348856D01*
X105382086Y-80174979D01*
X105449929Y-80011191D01*
X105548426Y-79863780D01*
X105673780Y-79738426D01*
X105821191Y-79639929D01*
X105984979Y-79572086D01*
X106158856Y-79537500D01*
X106336144Y-79537500D01*
X106510021Y-79572086D01*
X106510021Y-79572086D01*
G37*
G36*
X90976951Y-78276627D02*
X91114605Y-78304008D01*
X91287494Y-78375621D01*
X91443090Y-78479587D01*
X91575413Y-78611910D01*
X91679379Y-78767506D01*
X91750992Y-78940395D01*
X91787500Y-79123933D01*
X91787500Y-79311067D01*
X91750992Y-79494605D01*
X91679379Y-79667494D01*
X91575413Y-79823090D01*
X91443090Y-79955413D01*
X91287494Y-80059379D01*
X91114605Y-80130992D01*
X90976951Y-80158373D01*
X90931068Y-80167500D01*
X90743932Y-80167500D01*
X90698049Y-80158373D01*
X90560395Y-80130992D01*
X90387506Y-80059379D01*
X90231910Y-79955413D01*
X90099587Y-79823090D01*
X89995621Y-79667494D01*
X89924008Y-79494605D01*
X89887500Y-79311067D01*
X89887500Y-79123933D01*
X89924008Y-78940395D01*
X89995621Y-78767506D01*
X90099587Y-78611910D01*
X90231910Y-78479587D01*
X90387506Y-78375621D01*
X90560395Y-78304008D01*
X90698049Y-78276627D01*
X90743932Y-78267500D01*
X90931068Y-78267500D01*
X90976951Y-78276627D01*
X90976951Y-78276627D01*
G37*
G36*
X95856951Y-78276627D02*
X95994605Y-78304008D01*
X96167494Y-78375621D01*
X96323090Y-78479587D01*
X96455413Y-78611910D01*
X96559379Y-78767506D01*
X96630992Y-78940395D01*
X96667500Y-79123933D01*
X96667500Y-79311067D01*
X96630992Y-79494605D01*
X96559379Y-79667494D01*
X96455413Y-79823090D01*
X96323090Y-79955413D01*
X96167494Y-80059379D01*
X95994605Y-80130992D01*
X95856951Y-80158373D01*
X95811068Y-80167500D01*
X95623932Y-80167500D01*
X95578049Y-80158373D01*
X95440395Y-80130992D01*
X95267506Y-80059379D01*
X95111910Y-79955413D01*
X94979587Y-79823090D01*
X94875621Y-79667494D01*
X94804008Y-79494605D01*
X94767500Y-79311067D01*
X94767500Y-79123933D01*
X94804008Y-78940395D01*
X94875621Y-78767506D01*
X94979587Y-78611910D01*
X95111910Y-78479587D01*
X95267506Y-78375621D01*
X95440395Y-78304008D01*
X95578049Y-78276627D01*
X95623932Y-78267500D01*
X95811068Y-78267500D01*
X95856951Y-78276627D01*
X95856951Y-78276627D01*
G37*
G36*
X130733405Y-73872974D02*
X131315767Y-74114196D01*
X131839884Y-74464400D01*
X132285600Y-74910116D01*
X132635804Y-75434233D01*
X132877026Y-76016595D01*
X133000000Y-76634826D01*
X133000000Y-77265174D01*
X132877026Y-77883405D01*
X132635804Y-78465767D01*
X132285600Y-78989884D01*
X131839884Y-79435600D01*
X131315767Y-79785804D01*
X130733405Y-80027026D01*
X130115174Y-80150000D01*
X129484826Y-80150000D01*
X128866595Y-80027026D01*
X128284233Y-79785804D01*
X127760116Y-79435600D01*
X127314400Y-78989884D01*
X126964196Y-78465767D01*
X126722974Y-77883405D01*
X126600000Y-77265174D01*
X126600000Y-76634826D01*
X126722974Y-76016595D01*
X126964196Y-75434233D01*
X127314400Y-74910116D01*
X127760116Y-74464400D01*
X128284233Y-74114196D01*
X128866595Y-73872974D01*
X129484826Y-73750000D01*
X130115174Y-73750000D01*
X130733405Y-73872974D01*
X130733405Y-73872974D01*
G37*
G36*
X73724000Y-79700000D02*
X72424000Y-79700000D01*
X72424000Y-78500000D01*
X73724000Y-78500000D01*
X73724000Y-79700000D01*
X73724000Y-79700000D01*
G37*
G36*
X75730000Y-79685000D02*
X74430000Y-79685000D01*
X74430000Y-78485000D01*
X75730000Y-78485000D01*
X75730000Y-79685000D01*
X75730000Y-79685000D01*
G37*
G36*
X71724000Y-78750000D02*
X70424000Y-78750000D01*
X70424000Y-77550000D01*
X71724000Y-77550000D01*
X71724000Y-78750000D01*
X71724000Y-78750000D01*
G37*
G36*
X77730000Y-78735000D02*
X76430000Y-78735000D01*
X76430000Y-77535000D01*
X77730000Y-77535000D01*
X77730000Y-78735000D01*
X77730000Y-78735000D01*
G37*
G36*
X106307500Y-74482500D02*
X104387500Y-74482500D01*
X104363114Y-74484902D01*
X104339665Y-74492015D01*
X104318054Y-74503566D01*
X104299112Y-74519112D01*
X104283566Y-74538054D01*
X104272015Y-74559665D01*
X104264902Y-74583114D01*
X104262500Y-74607500D01*
X104262500Y-75487500D01*
X103532500Y-75487500D01*
X103508114Y-75489902D01*
X103484665Y-75497015D01*
X103463054Y-75508566D01*
X103444112Y-75524112D01*
X103428566Y-75543054D01*
X103417015Y-75564665D01*
X103409902Y-75588114D01*
X103407500Y-75612500D01*
X103407500Y-78157500D01*
X101962500Y-78157500D01*
X101938114Y-78159902D01*
X101914665Y-78167015D01*
X101893054Y-78178566D01*
X101874112Y-78194112D01*
X101858566Y-78213054D01*
X101847015Y-78234665D01*
X101839902Y-78258114D01*
X101837500Y-78282500D01*
X101837500Y-78657500D01*
X100637500Y-78657500D01*
X100637500Y-77417500D01*
X100635098Y-77393114D01*
X100627985Y-77369665D01*
X100616434Y-77348054D01*
X100600888Y-77329112D01*
X100581946Y-77313566D01*
X100560335Y-77302015D01*
X100536886Y-77294902D01*
X100512500Y-77292500D01*
X100457500Y-77292500D01*
X100457500Y-75642500D01*
X100757500Y-75642500D01*
X100781886Y-75640098D01*
X100805335Y-75632985D01*
X100826946Y-75621434D01*
X100845888Y-75605888D01*
X100861434Y-75586946D01*
X100872985Y-75565335D01*
X100880098Y-75541886D01*
X100882500Y-75517500D01*
X100882500Y-75282500D01*
X100880098Y-75258114D01*
X100872985Y-75234665D01*
X100861434Y-75213054D01*
X100845888Y-75194112D01*
X100826946Y-75178566D01*
X100805335Y-75167015D01*
X100781886Y-75159902D01*
X100757500Y-75157500D01*
X99457500Y-75157500D01*
X99457500Y-73557500D01*
X100757500Y-73557500D01*
X100771586Y-73556113D01*
X100767015Y-73564665D01*
X100759902Y-73588114D01*
X100757500Y-73612500D01*
X100757500Y-73962500D01*
X100759902Y-73986886D01*
X100767015Y-74010335D01*
X100778566Y-74031946D01*
X100794112Y-74050888D01*
X100813054Y-74066434D01*
X100834665Y-74077985D01*
X100858114Y-74085098D01*
X100882500Y-74087500D01*
X104282500Y-74087500D01*
X104306886Y-74085098D01*
X104330335Y-74077985D01*
X104351946Y-74066434D01*
X104370888Y-74050888D01*
X104386434Y-74031946D01*
X104397985Y-74010335D01*
X104405098Y-73986886D01*
X104407500Y-73962500D01*
X104407500Y-73612500D01*
X104405098Y-73588114D01*
X104397985Y-73564665D01*
X104386434Y-73543054D01*
X104370888Y-73524112D01*
X104351946Y-73508566D01*
X104330335Y-73497015D01*
X104306886Y-73489902D01*
X104282500Y-73487500D01*
X100882500Y-73487500D01*
X100868414Y-73488887D01*
X100872985Y-73480335D01*
X100880098Y-73456886D01*
X100882500Y-73432500D01*
X100882500Y-72087500D01*
X104282500Y-72087500D01*
X104306886Y-72085098D01*
X104330335Y-72077985D01*
X104351946Y-72066434D01*
X104370888Y-72050888D01*
X104386434Y-72031946D01*
X104397985Y-72010335D01*
X104405098Y-71986886D01*
X104407500Y-71962500D01*
X104407500Y-71832500D01*
X106307500Y-71832500D01*
X106307500Y-74482500D01*
X106307500Y-74482500D01*
G37*
G36*
X99857500Y-77232500D02*
X99859902Y-77256886D01*
X99867015Y-77280335D01*
X99878566Y-77301946D01*
X99894112Y-77320888D01*
X99913054Y-77336434D01*
X99934665Y-77347985D01*
X99937500Y-77348845D01*
X99937500Y-78657500D01*
X98737500Y-78657500D01*
X98737500Y-77417500D01*
X98735098Y-77393114D01*
X98727985Y-77369665D01*
X98716434Y-77348054D01*
X98700888Y-77329112D01*
X98681946Y-77313566D01*
X98660335Y-77302015D01*
X98636886Y-77294902D01*
X98612500Y-77292500D01*
X98457500Y-77292500D01*
X98457500Y-75642500D01*
X99857500Y-75642500D01*
X99857500Y-77232500D01*
X99857500Y-77232500D01*
G37*
G36*
X111857500Y-75750720D02*
X111859902Y-75775106D01*
X111867015Y-75798555D01*
X111878566Y-75820166D01*
X111894112Y-75839108D01*
X111913054Y-75854654D01*
X111934665Y-75866205D01*
X111958114Y-75873318D01*
X111982500Y-75875720D01*
X112006886Y-75873318D01*
X112030335Y-75866205D01*
X112051946Y-75854654D01*
X112070888Y-75839108D01*
X112079127Y-75830019D01*
X112124607Y-75774601D01*
X112238806Y-75680880D01*
X112369099Y-75611238D01*
X112510473Y-75568352D01*
X112657500Y-75553872D01*
X112804526Y-75568352D01*
X112945900Y-75611238D01*
X113076190Y-75680878D01*
X113190399Y-75774607D01*
X113284120Y-75888806D01*
X113353762Y-76019099D01*
X113396648Y-76160473D01*
X113407500Y-76270661D01*
X113407500Y-77444339D01*
X113396648Y-77554527D01*
X113353762Y-77695901D01*
X113284120Y-77826194D01*
X113190396Y-77940396D01*
X113076194Y-78034120D01*
X112945901Y-78103762D01*
X112804527Y-78146648D01*
X112657500Y-78161128D01*
X112510474Y-78146648D01*
X112369100Y-78103762D01*
X112238807Y-78034120D01*
X112124605Y-77940396D01*
X112030881Y-77826194D01*
X111956172Y-77686422D01*
X111955003Y-77683597D01*
X111941393Y-77663220D01*
X111924069Y-77645889D01*
X111903697Y-77632271D01*
X111881060Y-77622890D01*
X111857027Y-77618104D01*
X111844751Y-77617500D01*
X109857500Y-77617500D01*
X109857500Y-75217500D01*
X111857500Y-75217500D01*
X111857500Y-75750720D01*
X111857500Y-75750720D01*
G37*
G36*
X139650026Y-75796115D02*
X139868412Y-75886573D01*
X140064958Y-76017901D01*
X140232099Y-76185042D01*
X140363427Y-76381588D01*
X140453885Y-76599974D01*
X140500000Y-76831809D01*
X140500000Y-77068191D01*
X140453885Y-77300026D01*
X140363427Y-77518412D01*
X140232099Y-77714958D01*
X140064958Y-77882099D01*
X139868412Y-78013427D01*
X139650026Y-78103885D01*
X139418191Y-78150000D01*
X139181809Y-78150000D01*
X138949974Y-78103885D01*
X138731588Y-78013427D01*
X138535042Y-77882099D01*
X138367901Y-77714958D01*
X138236573Y-77518412D01*
X138146115Y-77300026D01*
X138100000Y-77068191D01*
X138100000Y-76831809D01*
X138146115Y-76599974D01*
X138236573Y-76381588D01*
X138367901Y-76185042D01*
X138535042Y-76017901D01*
X138731588Y-75886573D01*
X138949974Y-75796115D01*
X139181809Y-75750000D01*
X139418191Y-75750000D01*
X139650026Y-75796115D01*
X139650026Y-75796115D01*
G37*
G36*
X120650026Y-75796115D02*
X120868412Y-75886573D01*
X121064958Y-76017901D01*
X121232099Y-76185042D01*
X121363427Y-76381588D01*
X121453885Y-76599974D01*
X121500000Y-76831809D01*
X121500000Y-77068191D01*
X121453885Y-77300026D01*
X121363427Y-77518412D01*
X121232099Y-77714958D01*
X121064958Y-77882099D01*
X120868412Y-78013427D01*
X120650026Y-78103885D01*
X120418191Y-78150000D01*
X120181809Y-78150000D01*
X119949974Y-78103885D01*
X119731588Y-78013427D01*
X119535042Y-77882099D01*
X119367901Y-77714958D01*
X119236573Y-77518412D01*
X119146115Y-77300026D01*
X119100000Y-77068191D01*
X119100000Y-76831809D01*
X119146115Y-76599974D01*
X119236573Y-76381588D01*
X119367901Y-76185042D01*
X119535042Y-76017901D01*
X119731588Y-75886573D01*
X119949974Y-75796115D01*
X120181809Y-75750000D01*
X120418191Y-75750000D01*
X120650026Y-75796115D01*
X120650026Y-75796115D01*
G37*
G36*
X73724000Y-77800000D02*
X72424000Y-77800000D01*
X72424000Y-76600000D01*
X73724000Y-76600000D01*
X73724000Y-77800000D01*
X73724000Y-77800000D01*
G37*
G36*
X27477500Y-77797500D02*
X25577500Y-77797500D01*
X25577500Y-75997500D01*
X27477500Y-75997500D01*
X27477500Y-77797500D01*
X27477500Y-77797500D01*
G37*
G36*
X75730000Y-77785000D02*
X74430000Y-77785000D01*
X74430000Y-76585000D01*
X75730000Y-76585000D01*
X75730000Y-77785000D01*
X75730000Y-77785000D01*
G37*
G36*
X106977500Y-77617500D02*
X104977500Y-77617500D01*
X104977500Y-75217500D01*
X106977500Y-75217500D01*
X106977500Y-77617500D01*
X106977500Y-77617500D01*
G37*
G36*
X71750000Y-76185000D02*
X70350000Y-76185000D01*
X70350000Y-74535000D01*
X71750000Y-74535000D01*
X71750000Y-76185000D01*
X71750000Y-76185000D01*
G37*
G36*
X73750000Y-76185000D02*
X72350000Y-76185000D01*
X72350000Y-74535000D01*
X73750000Y-74535000D01*
X73750000Y-76185000D01*
X73750000Y-76185000D01*
G37*
G36*
X77838000Y-76181000D02*
X76438000Y-76181000D01*
X76438000Y-74531000D01*
X77838000Y-74531000D01*
X77838000Y-76181000D01*
X77838000Y-76181000D01*
G37*
G36*
X75838000Y-76181000D02*
X74438000Y-76181000D01*
X74438000Y-74531000D01*
X75838000Y-74531000D01*
X75838000Y-76181000D01*
X75838000Y-76181000D01*
G37*
G36*
X91454183Y-74436900D02*
X91564269Y-74482500D01*
X91581574Y-74489668D01*
X91686333Y-74559665D01*
X91696225Y-74566275D01*
X91793725Y-74663775D01*
X91870332Y-74778426D01*
X91923100Y-74905817D01*
X91950000Y-75041055D01*
X91950000Y-75178945D01*
X91923100Y-75314183D01*
X91873373Y-75434232D01*
X91870332Y-75441574D01*
X91793726Y-75556224D01*
X91696224Y-75653726D01*
X91655583Y-75680881D01*
X91581574Y-75730332D01*
X91454183Y-75783100D01*
X91318945Y-75810000D01*
X91181055Y-75810000D01*
X91045817Y-75783100D01*
X90918426Y-75730332D01*
X90844417Y-75680881D01*
X90803776Y-75653726D01*
X90706274Y-75556224D01*
X90629668Y-75441574D01*
X90626627Y-75434232D01*
X90576900Y-75314183D01*
X90550000Y-75178945D01*
X90550000Y-75041055D01*
X90576900Y-74905817D01*
X90629668Y-74778426D01*
X90706275Y-74663775D01*
X90803775Y-74566275D01*
X90813668Y-74559665D01*
X90918426Y-74489668D01*
X90935731Y-74482500D01*
X91045817Y-74436900D01*
X91181055Y-74410000D01*
X91318945Y-74410000D01*
X91454183Y-74436900D01*
X91454183Y-74436900D01*
G37*
G36*
X97457500Y-75157500D02*
X96157500Y-75157500D01*
X96157500Y-73557500D01*
X97457500Y-73557500D01*
X97457500Y-75157500D01*
X97457500Y-75157500D01*
G37*
G36*
X86840000Y-72960000D02*
X86842402Y-72984386D01*
X86849515Y-73007835D01*
X86850000Y-73008742D01*
X86850000Y-74735000D01*
X85450000Y-74735000D01*
X85450000Y-73160000D01*
X85447598Y-73135614D01*
X85440485Y-73112165D01*
X85440000Y-73111258D01*
X85440000Y-71385000D01*
X86840000Y-71385000D01*
X86840000Y-72960000D01*
X86840000Y-72960000D01*
G37*
G36*
X88840000Y-72960000D02*
X88842402Y-72984386D01*
X88849515Y-73007835D01*
X88850000Y-73008742D01*
X88850000Y-74735000D01*
X87450000Y-74735000D01*
X87450000Y-73160000D01*
X87447598Y-73135614D01*
X87440485Y-73112165D01*
X87440000Y-73111258D01*
X87440000Y-71385000D01*
X88840000Y-71385000D01*
X88840000Y-72960000D01*
X88840000Y-72960000D01*
G37*
G36*
X113342500Y-74657500D02*
X109992500Y-74657500D01*
X109992500Y-73257500D01*
X113342500Y-73257500D01*
X113342500Y-74657500D01*
X113342500Y-74657500D01*
G37*
G36*
X109707500Y-74482500D02*
X107807500Y-74482500D01*
X107807500Y-71832500D01*
X109707500Y-71832500D01*
X109707500Y-74482500D01*
X109707500Y-74482500D01*
G37*
G36*
X84547500Y-74107500D02*
X79687500Y-74107500D01*
X79687500Y-72007500D01*
X84547500Y-72007500D01*
X84547500Y-74107500D01*
X84547500Y-74107500D01*
G37*
G36*
X91454183Y-72536900D02*
X91581574Y-72589668D01*
X91696224Y-72666274D01*
X91793726Y-72763776D01*
X91870332Y-72878426D01*
X91923100Y-73005817D01*
X91950000Y-73141055D01*
X91950000Y-73278945D01*
X91923100Y-73414183D01*
X91870332Y-73541574D01*
X91793725Y-73656225D01*
X91696225Y-73753725D01*
X91581574Y-73830332D01*
X91454183Y-73883100D01*
X91318945Y-73910000D01*
X91181055Y-73910000D01*
X91045817Y-73883100D01*
X90918426Y-73830332D01*
X90803775Y-73753725D01*
X90706275Y-73656225D01*
X90629668Y-73541574D01*
X90576900Y-73414183D01*
X90550000Y-73278945D01*
X90550000Y-73141055D01*
X90576900Y-73005817D01*
X90629668Y-72878426D01*
X90706274Y-72763776D01*
X90803776Y-72666274D01*
X90918426Y-72589668D01*
X91045817Y-72536900D01*
X91181055Y-72510000D01*
X91318945Y-72510000D01*
X91454183Y-72536900D01*
X91454183Y-72536900D01*
G37*
G36*
X67630770Y-70775372D02*
X67746689Y-70798429D01*
X67928678Y-70873811D01*
X68092463Y-70983249D01*
X68231751Y-71122537D01*
X68301074Y-71226285D01*
X68316612Y-71245219D01*
X68335554Y-71260764D01*
X68357165Y-71272315D01*
X68380614Y-71279428D01*
X68405000Y-71281830D01*
X68429387Y-71279428D01*
X68452836Y-71272315D01*
X68474446Y-71260764D01*
X68493389Y-71245218D01*
X68508926Y-71226285D01*
X68578249Y-71122537D01*
X68717537Y-70983249D01*
X68881322Y-70873811D01*
X69063311Y-70798429D01*
X69179230Y-70775372D01*
X69256507Y-70760000D01*
X69453493Y-70760000D01*
X69530770Y-70775372D01*
X69646689Y-70798429D01*
X69828678Y-70873811D01*
X69992463Y-70983249D01*
X70131751Y-71122537D01*
X70241189Y-71286322D01*
X70316571Y-71468311D01*
X70355000Y-71661509D01*
X70355000Y-71858491D01*
X70316571Y-72051689D01*
X70241189Y-72233678D01*
X70131751Y-72397463D01*
X69992463Y-72536751D01*
X69828678Y-72646189D01*
X69646689Y-72721571D01*
X69530770Y-72744628D01*
X69453493Y-72760000D01*
X69256507Y-72760000D01*
X69179230Y-72744628D01*
X69063311Y-72721571D01*
X68881322Y-72646189D01*
X68717537Y-72536751D01*
X68578249Y-72397463D01*
X68508926Y-72293715D01*
X68493388Y-72274781D01*
X68474446Y-72259236D01*
X68452835Y-72247685D01*
X68429386Y-72240572D01*
X68405000Y-72238170D01*
X68380613Y-72240572D01*
X68357164Y-72247685D01*
X68335554Y-72259236D01*
X68316611Y-72274782D01*
X68301074Y-72293715D01*
X68231751Y-72397463D01*
X68092463Y-72536751D01*
X67928678Y-72646189D01*
X67746689Y-72721571D01*
X67630770Y-72744628D01*
X67553493Y-72760000D01*
X67356507Y-72760000D01*
X67279230Y-72744628D01*
X67163311Y-72721571D01*
X66981322Y-72646189D01*
X66817537Y-72536751D01*
X66678249Y-72397463D01*
X66622592Y-72314166D01*
X66607058Y-72295238D01*
X66588116Y-72279693D01*
X66566505Y-72268141D01*
X66543056Y-72261028D01*
X66518669Y-72258626D01*
X66494283Y-72261028D01*
X66470834Y-72268141D01*
X66449223Y-72279692D01*
X66430281Y-72295237D01*
X66408429Y-72324701D01*
X66390492Y-72358259D01*
X66265528Y-72510528D01*
X66113260Y-72635491D01*
X66072084Y-72657500D01*
X65939535Y-72728349D01*
X65751034Y-72785530D01*
X65751033Y-72785530D01*
X65751030Y-72785531D01*
X65604124Y-72800000D01*
X65505876Y-72800000D01*
X65358970Y-72785531D01*
X65358967Y-72785530D01*
X65358966Y-72785530D01*
X65170465Y-72728349D01*
X65037916Y-72657500D01*
X64996740Y-72635491D01*
X64844472Y-72510528D01*
X64719507Y-72358257D01*
X64715239Y-72350273D01*
X64701625Y-72329899D01*
X64684298Y-72312572D01*
X64663923Y-72298958D01*
X64641284Y-72289581D01*
X64617251Y-72284801D01*
X64592746Y-72284801D01*
X64568713Y-72289582D01*
X64546074Y-72298960D01*
X64525700Y-72312574D01*
X64508373Y-72329901D01*
X64494761Y-72350273D01*
X64490493Y-72358257D01*
X64365528Y-72510528D01*
X64213260Y-72635491D01*
X64172084Y-72657500D01*
X64039535Y-72728349D01*
X63851034Y-72785530D01*
X63851033Y-72785530D01*
X63851030Y-72785531D01*
X63704124Y-72800000D01*
X63605876Y-72800000D01*
X63458970Y-72785531D01*
X63458967Y-72785530D01*
X63458966Y-72785530D01*
X63270465Y-72728349D01*
X63137916Y-72657500D01*
X63096740Y-72635491D01*
X62944472Y-72510528D01*
X62819507Y-72358257D01*
X62815239Y-72350273D01*
X62801625Y-72329899D01*
X62784298Y-72312572D01*
X62763923Y-72298958D01*
X62741284Y-72289581D01*
X62717251Y-72284801D01*
X62692746Y-72284801D01*
X62668713Y-72289582D01*
X62646074Y-72298960D01*
X62625700Y-72312574D01*
X62608373Y-72329901D01*
X62594761Y-72350273D01*
X62590493Y-72358257D01*
X62465528Y-72510528D01*
X62313260Y-72635491D01*
X62272084Y-72657500D01*
X62139535Y-72728349D01*
X61951034Y-72785530D01*
X61951033Y-72785530D01*
X61951030Y-72785531D01*
X61804124Y-72800000D01*
X61705876Y-72800000D01*
X61558970Y-72785531D01*
X61558967Y-72785530D01*
X61558966Y-72785530D01*
X61370465Y-72728349D01*
X61237916Y-72657500D01*
X61196740Y-72635491D01*
X61044472Y-72510528D01*
X60919507Y-72358257D01*
X60915239Y-72350273D01*
X60901625Y-72329899D01*
X60884298Y-72312572D01*
X60863923Y-72298958D01*
X60841284Y-72289581D01*
X60817251Y-72284801D01*
X60792746Y-72284801D01*
X60768713Y-72289582D01*
X60746074Y-72298960D01*
X60725700Y-72312574D01*
X60708373Y-72329901D01*
X60694761Y-72350273D01*
X60690493Y-72358257D01*
X60565528Y-72510528D01*
X60413260Y-72635491D01*
X60372084Y-72657500D01*
X60239535Y-72728349D01*
X60051034Y-72785530D01*
X60051033Y-72785530D01*
X60051030Y-72785531D01*
X59904124Y-72800000D01*
X59805876Y-72800000D01*
X59658970Y-72785531D01*
X59658967Y-72785530D01*
X59658966Y-72785530D01*
X59470465Y-72728349D01*
X59337916Y-72657500D01*
X59296740Y-72635491D01*
X59144472Y-72510528D01*
X59019509Y-72358260D01*
X58926652Y-72184537D01*
X58894330Y-72077985D01*
X58869470Y-71996034D01*
X58869470Y-71996033D01*
X58869469Y-71996030D01*
X58850162Y-71800000D01*
X58869469Y-71603970D01*
X58880323Y-71568190D01*
X58926651Y-71415465D01*
X58980244Y-71315199D01*
X59019509Y-71241740D01*
X59144472Y-71089472D01*
X59296740Y-70964509D01*
X59470463Y-70871652D01*
X59470465Y-70871651D01*
X59658966Y-70814470D01*
X59658967Y-70814470D01*
X59658970Y-70814469D01*
X59805876Y-70800000D01*
X59904124Y-70800000D01*
X60051030Y-70814469D01*
X60051033Y-70814470D01*
X60051034Y-70814470D01*
X60239535Y-70871651D01*
X60239537Y-70871652D01*
X60413260Y-70964509D01*
X60565528Y-71089472D01*
X60690493Y-71241743D01*
X60694761Y-71249727D01*
X60708375Y-71270101D01*
X60725702Y-71287428D01*
X60746077Y-71301042D01*
X60768716Y-71310419D01*
X60792749Y-71315199D01*
X60817254Y-71315199D01*
X60841287Y-71310418D01*
X60863926Y-71301040D01*
X60884300Y-71287426D01*
X60901627Y-71270099D01*
X60915239Y-71249727D01*
X60919507Y-71241743D01*
X61044472Y-71089472D01*
X61196740Y-70964509D01*
X61370463Y-70871652D01*
X61370465Y-70871651D01*
X61558966Y-70814470D01*
X61558967Y-70814470D01*
X61558970Y-70814469D01*
X61705876Y-70800000D01*
X61804124Y-70800000D01*
X61951030Y-70814469D01*
X61951033Y-70814470D01*
X61951034Y-70814470D01*
X62139535Y-70871651D01*
X62139537Y-70871652D01*
X62313260Y-70964509D01*
X62465528Y-71089472D01*
X62590493Y-71241743D01*
X62594761Y-71249727D01*
X62608375Y-71270101D01*
X62625702Y-71287428D01*
X62646077Y-71301042D01*
X62668716Y-71310419D01*
X62692749Y-71315199D01*
X62717254Y-71315199D01*
X62741287Y-71310418D01*
X62763926Y-71301040D01*
X62784300Y-71287426D01*
X62801627Y-71270099D01*
X62815239Y-71249727D01*
X62819507Y-71241743D01*
X62944472Y-71089472D01*
X63096740Y-70964509D01*
X63270463Y-70871652D01*
X63270465Y-70871651D01*
X63458966Y-70814470D01*
X63458967Y-70814470D01*
X63458970Y-70814469D01*
X63605876Y-70800000D01*
X63704124Y-70800000D01*
X63851030Y-70814469D01*
X63851033Y-70814470D01*
X63851034Y-70814470D01*
X64039535Y-70871651D01*
X64039537Y-70871652D01*
X64213260Y-70964509D01*
X64365528Y-71089472D01*
X64490493Y-71241743D01*
X64494761Y-71249727D01*
X64508375Y-71270101D01*
X64525702Y-71287428D01*
X64546077Y-71301042D01*
X64568716Y-71310419D01*
X64592749Y-71315199D01*
X64617254Y-71315199D01*
X64641287Y-71310418D01*
X64663926Y-71301040D01*
X64684300Y-71287426D01*
X64701627Y-71270099D01*
X64715239Y-71249727D01*
X64719507Y-71241743D01*
X64844472Y-71089472D01*
X64996740Y-70964509D01*
X65170463Y-70871652D01*
X65170465Y-70871651D01*
X65358966Y-70814470D01*
X65358967Y-70814470D01*
X65358970Y-70814469D01*
X65505876Y-70800000D01*
X65604124Y-70800000D01*
X65751030Y-70814469D01*
X65751033Y-70814470D01*
X65751034Y-70814470D01*
X65939535Y-70871651D01*
X65939537Y-70871652D01*
X66113260Y-70964509D01*
X66265528Y-71089472D01*
X66398282Y-71251233D01*
X66415609Y-71268560D01*
X66435983Y-71282174D01*
X66458622Y-71291552D01*
X66482656Y-71296332D01*
X66507160Y-71296332D01*
X66531193Y-71291552D01*
X66553833Y-71282174D01*
X66574207Y-71268560D01*
X66598836Y-71241387D01*
X66678249Y-71122537D01*
X66817537Y-70983249D01*
X66981322Y-70873811D01*
X67163311Y-70798429D01*
X67279230Y-70775372D01*
X67356507Y-70760000D01*
X67553493Y-70760000D01*
X67630770Y-70775372D01*
X67630770Y-70775372D01*
G37*
G36*
X110730857Y-69126272D02*
X110931042Y-69209191D01*
X110931045Y-69209193D01*
X111093738Y-69317901D01*
X111111213Y-69329578D01*
X111264422Y-69482787D01*
X111264424Y-69482790D01*
X111264425Y-69482791D01*
X111297373Y-69532101D01*
X111384809Y-69662958D01*
X111467728Y-69863143D01*
X111510000Y-70075658D01*
X111510000Y-70292342D01*
X111467728Y-70504857D01*
X111384809Y-70705042D01*
X111384807Y-70705045D01*
X111273484Y-70871652D01*
X111264422Y-70885213D01*
X111105523Y-71044112D01*
X111089977Y-71063054D01*
X111078426Y-71084665D01*
X111071313Y-71108114D01*
X111068911Y-71132500D01*
X111071313Y-71156886D01*
X111078426Y-71180335D01*
X111089977Y-71201946D01*
X111105523Y-71220888D01*
X111124465Y-71236434D01*
X111146076Y-71247985D01*
X111169525Y-71255098D01*
X111193911Y-71257500D01*
X113342500Y-71257500D01*
X113342500Y-72657500D01*
X109992500Y-72657500D01*
X109992500Y-71285220D01*
X109990098Y-71260834D01*
X109982985Y-71237385D01*
X109971434Y-71215774D01*
X109955888Y-71196832D01*
X109936946Y-71181286D01*
X109915336Y-71169735D01*
X109888957Y-71158808D01*
X109888956Y-71158808D01*
X109888955Y-71158807D01*
X109708791Y-71038425D01*
X109708790Y-71038424D01*
X109708787Y-71038422D01*
X109555578Y-70885213D01*
X109546517Y-70871652D01*
X109435193Y-70705045D01*
X109435191Y-70705042D01*
X109352272Y-70504857D01*
X109310000Y-70292342D01*
X109310000Y-70075658D01*
X109352272Y-69863143D01*
X109435191Y-69662958D01*
X109522627Y-69532101D01*
X109555575Y-69482791D01*
X109555576Y-69482790D01*
X109555578Y-69482787D01*
X109708787Y-69329578D01*
X109726263Y-69317901D01*
X109888955Y-69209193D01*
X109888958Y-69209191D01*
X110089143Y-69126272D01*
X110301658Y-69084000D01*
X110518342Y-69084000D01*
X110730857Y-69126272D01*
X110730857Y-69126272D01*
G37*
G36*
X29650026Y-70296115D02*
X29868412Y-70386573D01*
X30064958Y-70517901D01*
X30232099Y-70685042D01*
X30363427Y-70881588D01*
X30453885Y-71099974D01*
X30500000Y-71331809D01*
X30500000Y-71568191D01*
X30453885Y-71800026D01*
X30363427Y-72018412D01*
X30232099Y-72214958D01*
X30064958Y-72382099D01*
X29868412Y-72513427D01*
X29650026Y-72603885D01*
X29418191Y-72650000D01*
X29181809Y-72650000D01*
X28949974Y-72603885D01*
X28731588Y-72513427D01*
X28535042Y-72382099D01*
X28367901Y-72214958D01*
X28236573Y-72018412D01*
X28146115Y-71800026D01*
X28100000Y-71568191D01*
X28100000Y-71331809D01*
X28146115Y-71099974D01*
X28236573Y-70881588D01*
X28367901Y-70685042D01*
X28535042Y-70517901D01*
X28731588Y-70386573D01*
X28949974Y-70296115D01*
X29181809Y-70250000D01*
X29418191Y-70250000D01*
X29650026Y-70296115D01*
X29650026Y-70296115D01*
G37*
G36*
X123425026Y-69121115D02*
X123643412Y-69211573D01*
X123839958Y-69342901D01*
X124007099Y-69510042D01*
X124138427Y-69706588D01*
X124228885Y-69924974D01*
X124275000Y-70156809D01*
X124275000Y-70393191D01*
X124228885Y-70625026D01*
X124138427Y-70843412D01*
X124007099Y-71039958D01*
X123839958Y-71207099D01*
X123643412Y-71338427D01*
X123425026Y-71428885D01*
X123193191Y-71475000D01*
X122956809Y-71475000D01*
X122724974Y-71428885D01*
X122506588Y-71338427D01*
X122310042Y-71207099D01*
X122142901Y-71039958D01*
X122011573Y-70843412D01*
X121921115Y-70625026D01*
X121875000Y-70393191D01*
X121875000Y-70156809D01*
X121921115Y-69924974D01*
X122011573Y-69706588D01*
X122142901Y-69510042D01*
X122310042Y-69342901D01*
X122506588Y-69211573D01*
X122724974Y-69121115D01*
X122956809Y-69075000D01*
X123193191Y-69075000D01*
X123425026Y-69121115D01*
X123425026Y-69121115D01*
G37*
G36*
X136850026Y-69096115D02*
X137068412Y-69186573D01*
X137264958Y-69317901D01*
X137432099Y-69485042D01*
X137563427Y-69681588D01*
X137653885Y-69899974D01*
X137700000Y-70131809D01*
X137700000Y-70368191D01*
X137653885Y-70600026D01*
X137563427Y-70818412D01*
X137432099Y-71014958D01*
X137264958Y-71182099D01*
X137068412Y-71313427D01*
X136850026Y-71403885D01*
X136618191Y-71450000D01*
X136381809Y-71450000D01*
X136149974Y-71403885D01*
X135931588Y-71313427D01*
X135735042Y-71182099D01*
X135567901Y-71014958D01*
X135436573Y-70818412D01*
X135346115Y-70600026D01*
X135300000Y-70368191D01*
X135300000Y-70131809D01*
X135346115Y-69899974D01*
X135436573Y-69681588D01*
X135567901Y-69485042D01*
X135735042Y-69317901D01*
X135931588Y-69186573D01*
X136149974Y-69096115D01*
X136381809Y-69050000D01*
X136618191Y-69050000D01*
X136850026Y-69096115D01*
X136850026Y-69096115D01*
G37*
G36*
X108190857Y-69126272D02*
X108391042Y-69209191D01*
X108391045Y-69209193D01*
X108553738Y-69317901D01*
X108571213Y-69329578D01*
X108724422Y-69482787D01*
X108724424Y-69482790D01*
X108724425Y-69482791D01*
X108757373Y-69532101D01*
X108844809Y-69662958D01*
X108927728Y-69863143D01*
X108970000Y-70075658D01*
X108970000Y-70292342D01*
X108927728Y-70504857D01*
X108844809Y-70705042D01*
X108844807Y-70705045D01*
X108733484Y-70871652D01*
X108724422Y-70885213D01*
X108571213Y-71038422D01*
X108571210Y-71038424D01*
X108571209Y-71038425D01*
X108467831Y-71107500D01*
X108391042Y-71158809D01*
X108190857Y-71241728D01*
X107978342Y-71284000D01*
X107761658Y-71284000D01*
X107549143Y-71241728D01*
X107348958Y-71158809D01*
X107272169Y-71107500D01*
X107168791Y-71038425D01*
X107168790Y-71038424D01*
X107168787Y-71038422D01*
X107015578Y-70885213D01*
X107006517Y-70871652D01*
X106895193Y-70705045D01*
X106895191Y-70705042D01*
X106812272Y-70504857D01*
X106770000Y-70292342D01*
X106770000Y-70075658D01*
X106812272Y-69863143D01*
X106895191Y-69662958D01*
X106982627Y-69532101D01*
X107015575Y-69482791D01*
X107015576Y-69482790D01*
X107015578Y-69482787D01*
X107168787Y-69329578D01*
X107186263Y-69317901D01*
X107348955Y-69209193D01*
X107348958Y-69209191D01*
X107549143Y-69126272D01*
X107761658Y-69084000D01*
X107978342Y-69084000D01*
X108190857Y-69126272D01*
X108190857Y-69126272D01*
G37*
G36*
X105650857Y-69126272D02*
X105851042Y-69209191D01*
X105851045Y-69209193D01*
X106013738Y-69317901D01*
X106031213Y-69329578D01*
X106184422Y-69482787D01*
X106184424Y-69482790D01*
X106184425Y-69482791D01*
X106217373Y-69532101D01*
X106304809Y-69662958D01*
X106387728Y-69863143D01*
X106430000Y-70075658D01*
X106430000Y-70292342D01*
X106387728Y-70504857D01*
X106304809Y-70705042D01*
X106304807Y-70705045D01*
X106193484Y-70871652D01*
X106184422Y-70885213D01*
X106031213Y-71038422D01*
X106031210Y-71038424D01*
X106031209Y-71038425D01*
X105927831Y-71107500D01*
X105851042Y-71158809D01*
X105650857Y-71241728D01*
X105438342Y-71284000D01*
X105221658Y-71284000D01*
X105009143Y-71241728D01*
X104808958Y-71158809D01*
X104732169Y-71107500D01*
X104628791Y-71038425D01*
X104628790Y-71038424D01*
X104628787Y-71038422D01*
X104475578Y-70885213D01*
X104466517Y-70871652D01*
X104355193Y-70705045D01*
X104355191Y-70705042D01*
X104272272Y-70504857D01*
X104230000Y-70292342D01*
X104230000Y-70075658D01*
X104272272Y-69863143D01*
X104355191Y-69662958D01*
X104442627Y-69532101D01*
X104475575Y-69482791D01*
X104475576Y-69482790D01*
X104475578Y-69482787D01*
X104628787Y-69329578D01*
X104646263Y-69317901D01*
X104808955Y-69209193D01*
X104808958Y-69209191D01*
X105009143Y-69126272D01*
X105221658Y-69084000D01*
X105438342Y-69084000D01*
X105650857Y-69126272D01*
X105650857Y-69126272D01*
G37*
G36*
X44817500Y-71107500D02*
X40417500Y-71107500D01*
X40417500Y-68497500D01*
X44817500Y-68497500D01*
X44817500Y-71107500D01*
X44817500Y-71107500D01*
G37*
G36*
X118017500Y-70217500D02*
X113617500Y-70217500D01*
X113617500Y-67607500D01*
X118017500Y-67607500D01*
X118017500Y-70217500D01*
X118017500Y-70217500D01*
G37*
G36*
X36375026Y-67471115D02*
X36593412Y-67561573D01*
X36789958Y-67692901D01*
X36957099Y-67860042D01*
X37088427Y-68056588D01*
X37178885Y-68274974D01*
X37225000Y-68506809D01*
X37225000Y-68743191D01*
X37178885Y-68975026D01*
X37088427Y-69193412D01*
X36957099Y-69389958D01*
X36789958Y-69557099D01*
X36593412Y-69688427D01*
X36375026Y-69778885D01*
X36143191Y-69825000D01*
X35906809Y-69825000D01*
X35674974Y-69778885D01*
X35456588Y-69688427D01*
X35260042Y-69557099D01*
X35092901Y-69389958D01*
X34961573Y-69193412D01*
X34871115Y-68975026D01*
X34825000Y-68743191D01*
X34825000Y-68506809D01*
X34871115Y-68274974D01*
X34961573Y-68056588D01*
X35092901Y-67860042D01*
X35260042Y-67692901D01*
X35456588Y-67561573D01*
X35674974Y-67471115D01*
X35906809Y-67425000D01*
X36143191Y-67425000D01*
X36375026Y-67471115D01*
X36375026Y-67471115D01*
G37*
G36*
X22850026Y-67446115D02*
X23068412Y-67536573D01*
X23264958Y-67667901D01*
X23432099Y-67835042D01*
X23563427Y-68031588D01*
X23653885Y-68249974D01*
X23700000Y-68481809D01*
X23700000Y-68718191D01*
X23653885Y-68950026D01*
X23563427Y-69168412D01*
X23432099Y-69364958D01*
X23264958Y-69532099D01*
X23068412Y-69663427D01*
X22850026Y-69753885D01*
X22618191Y-69800000D01*
X22381809Y-69800000D01*
X22149974Y-69753885D01*
X21931588Y-69663427D01*
X21735042Y-69532099D01*
X21567901Y-69364958D01*
X21436573Y-69168412D01*
X21346115Y-68950026D01*
X21300000Y-68718191D01*
X21300000Y-68481809D01*
X21346115Y-68249974D01*
X21436573Y-68031588D01*
X21567901Y-67835042D01*
X21735042Y-67667901D01*
X21931588Y-67536573D01*
X22149974Y-67446115D01*
X22381809Y-67400000D01*
X22618191Y-67400000D01*
X22850026Y-67446115D01*
X22850026Y-67446115D01*
G37*
G36*
X48442500Y-67429780D02*
X48444902Y-67454166D01*
X48452015Y-67477615D01*
X48463566Y-67499226D01*
X48479112Y-67518168D01*
X48498054Y-67533714D01*
X48519664Y-67545265D01*
X48546043Y-67556192D01*
X48546045Y-67556193D01*
X48726209Y-67676575D01*
X48726213Y-67676578D01*
X48879422Y-67829787D01*
X48879424Y-67829790D01*
X48879425Y-67829791D01*
X48963087Y-67955000D01*
X48999809Y-68009958D01*
X49082728Y-68210143D01*
X49125000Y-68422658D01*
X49125000Y-68639342D01*
X49082728Y-68851857D01*
X48999809Y-69052042D01*
X48999807Y-69052045D01*
X48893214Y-69211573D01*
X48879422Y-69232213D01*
X48726213Y-69385422D01*
X48726210Y-69385424D01*
X48726209Y-69385425D01*
X48580497Y-69482787D01*
X48546042Y-69505809D01*
X48345857Y-69588728D01*
X48133342Y-69631000D01*
X47916658Y-69631000D01*
X47704143Y-69588728D01*
X47503958Y-69505809D01*
X47469503Y-69482787D01*
X47323791Y-69385425D01*
X47323790Y-69385424D01*
X47323787Y-69385422D01*
X47170578Y-69232213D01*
X47156787Y-69211573D01*
X47050193Y-69052045D01*
X47050191Y-69052042D01*
X46967272Y-68851857D01*
X46925000Y-68639342D01*
X46925000Y-68422658D01*
X46967272Y-68210143D01*
X47050191Y-68009958D01*
X47086913Y-67955000D01*
X47170575Y-67829791D01*
X47170576Y-67829790D01*
X47170578Y-67829787D01*
X47329477Y-67670888D01*
X47345023Y-67651946D01*
X47356574Y-67630335D01*
X47363687Y-67606886D01*
X47366089Y-67582500D01*
X47363687Y-67558114D01*
X47356574Y-67534665D01*
X47345023Y-67513054D01*
X47329477Y-67494112D01*
X47310535Y-67478566D01*
X47288924Y-67467015D01*
X47265475Y-67459902D01*
X47241089Y-67457500D01*
X45092500Y-67457500D01*
X45092500Y-66057500D01*
X48442500Y-66057500D01*
X48442500Y-67429780D01*
X48442500Y-67429780D01*
G37*
G36*
X53425857Y-67473272D02*
X53626042Y-67556191D01*
X53626043Y-67556192D01*
X53626045Y-67556193D01*
X53797698Y-67670888D01*
X53806213Y-67676578D01*
X53959422Y-67829787D01*
X53959424Y-67829790D01*
X53959425Y-67829791D01*
X54043087Y-67955000D01*
X54079809Y-68009958D01*
X54162728Y-68210143D01*
X54205000Y-68422658D01*
X54205000Y-68639342D01*
X54162728Y-68851857D01*
X54079809Y-69052042D01*
X54079807Y-69052045D01*
X53973214Y-69211573D01*
X53959422Y-69232213D01*
X53806213Y-69385422D01*
X53806210Y-69385424D01*
X53806209Y-69385425D01*
X53660497Y-69482787D01*
X53626042Y-69505809D01*
X53425857Y-69588728D01*
X53213342Y-69631000D01*
X52996658Y-69631000D01*
X52784143Y-69588728D01*
X52583958Y-69505809D01*
X52549503Y-69482787D01*
X52403791Y-69385425D01*
X52403790Y-69385424D01*
X52403787Y-69385422D01*
X52250578Y-69232213D01*
X52236787Y-69211573D01*
X52130193Y-69052045D01*
X52130191Y-69052042D01*
X52047272Y-68851857D01*
X52005000Y-68639342D01*
X52005000Y-68422658D01*
X52047272Y-68210143D01*
X52130191Y-68009958D01*
X52166913Y-67955000D01*
X52250575Y-67829791D01*
X52250576Y-67829790D01*
X52250578Y-67829787D01*
X52403787Y-67676578D01*
X52412303Y-67670888D01*
X52583955Y-67556193D01*
X52583957Y-67556192D01*
X52583958Y-67556191D01*
X52784143Y-67473272D01*
X52996658Y-67431000D01*
X53213342Y-67431000D01*
X53425857Y-67473272D01*
X53425857Y-67473272D01*
G37*
G36*
X50885857Y-67473272D02*
X51086042Y-67556191D01*
X51086043Y-67556192D01*
X51086045Y-67556193D01*
X51257698Y-67670888D01*
X51266213Y-67676578D01*
X51419422Y-67829787D01*
X51419424Y-67829790D01*
X51419425Y-67829791D01*
X51503087Y-67955000D01*
X51539809Y-68009958D01*
X51622728Y-68210143D01*
X51665000Y-68422658D01*
X51665000Y-68639342D01*
X51622728Y-68851857D01*
X51539809Y-69052042D01*
X51539807Y-69052045D01*
X51433214Y-69211573D01*
X51419422Y-69232213D01*
X51266213Y-69385422D01*
X51266210Y-69385424D01*
X51266209Y-69385425D01*
X51120497Y-69482787D01*
X51086042Y-69505809D01*
X50885857Y-69588728D01*
X50673342Y-69631000D01*
X50456658Y-69631000D01*
X50244143Y-69588728D01*
X50043958Y-69505809D01*
X50009503Y-69482787D01*
X49863791Y-69385425D01*
X49863790Y-69385424D01*
X49863787Y-69385422D01*
X49710578Y-69232213D01*
X49696787Y-69211573D01*
X49590193Y-69052045D01*
X49590191Y-69052042D01*
X49507272Y-68851857D01*
X49465000Y-68639342D01*
X49465000Y-68422658D01*
X49507272Y-68210143D01*
X49590191Y-68009958D01*
X49626913Y-67955000D01*
X49710575Y-67829791D01*
X49710576Y-67829790D01*
X49710578Y-67829787D01*
X49863787Y-67676578D01*
X49872303Y-67670888D01*
X50043955Y-67556193D01*
X50043957Y-67556192D01*
X50043958Y-67556191D01*
X50244143Y-67473272D01*
X50456658Y-67431000D01*
X50673342Y-67431000D01*
X50885857Y-67473272D01*
X50885857Y-67473272D01*
G37*
G36*
X130150026Y-66296115D02*
X130368412Y-66386573D01*
X130564958Y-66517901D01*
X130732099Y-66685042D01*
X130863427Y-66881588D01*
X130953885Y-67099974D01*
X131000000Y-67331809D01*
X131000000Y-67568191D01*
X130953885Y-67800026D01*
X130863427Y-68018412D01*
X130732099Y-68214958D01*
X130564958Y-68382099D01*
X130368412Y-68513427D01*
X130150026Y-68603885D01*
X129918191Y-68650000D01*
X129681809Y-68650000D01*
X129449974Y-68603885D01*
X129231588Y-68513427D01*
X129035042Y-68382099D01*
X128867901Y-68214958D01*
X128736573Y-68018412D01*
X128646115Y-67800026D01*
X128600000Y-67568191D01*
X128600000Y-67331809D01*
X128646115Y-67099974D01*
X128736573Y-66881588D01*
X128867901Y-66685042D01*
X129035042Y-66517901D01*
X129231588Y-66386573D01*
X129449974Y-66296115D01*
X129681809Y-66250000D01*
X129918191Y-66250000D01*
X130150026Y-66296115D01*
X130150026Y-66296115D01*
G37*
G36*
X93076030Y-65929469D02*
X93076033Y-65929470D01*
X93076034Y-65929470D01*
X93264535Y-65986651D01*
X93264537Y-65986652D01*
X93438260Y-66079509D01*
X93590528Y-66204472D01*
X93715493Y-66356743D01*
X93719761Y-66364727D01*
X93733375Y-66385101D01*
X93750702Y-66402428D01*
X93771077Y-66416042D01*
X93793716Y-66425419D01*
X93817749Y-66430199D01*
X93842254Y-66430199D01*
X93866287Y-66425418D01*
X93888926Y-66416040D01*
X93909300Y-66402426D01*
X93926627Y-66385099D01*
X93940239Y-66364727D01*
X93944507Y-66356743D01*
X94069472Y-66204472D01*
X94221740Y-66079509D01*
X94395463Y-65986652D01*
X94395465Y-65986651D01*
X94583966Y-65929470D01*
X94583967Y-65929470D01*
X94583970Y-65929469D01*
X94730876Y-65915000D01*
X94829124Y-65915000D01*
X94976030Y-65929469D01*
X94976033Y-65929470D01*
X94976034Y-65929470D01*
X95164535Y-65986651D01*
X95164537Y-65986652D01*
X95338260Y-66079509D01*
X95490528Y-66204472D01*
X95615493Y-66356743D01*
X95619761Y-66364727D01*
X95633375Y-66385101D01*
X95650702Y-66402428D01*
X95671077Y-66416042D01*
X95693716Y-66425419D01*
X95717749Y-66430199D01*
X95742254Y-66430199D01*
X95766287Y-66425418D01*
X95788926Y-66416040D01*
X95809300Y-66402426D01*
X95826627Y-66385099D01*
X95840239Y-66364727D01*
X95844507Y-66356743D01*
X95969472Y-66204472D01*
X96121740Y-66079509D01*
X96295463Y-65986652D01*
X96295465Y-65986651D01*
X96483966Y-65929470D01*
X96483967Y-65929470D01*
X96483970Y-65929469D01*
X96630876Y-65915000D01*
X96729124Y-65915000D01*
X96876030Y-65929469D01*
X96876033Y-65929470D01*
X96876034Y-65929470D01*
X97064535Y-65986651D01*
X97064537Y-65986652D01*
X97238260Y-66079509D01*
X97390528Y-66204472D01*
X97515493Y-66356743D01*
X97519761Y-66364727D01*
X97533375Y-66385101D01*
X97550702Y-66402428D01*
X97571077Y-66416042D01*
X97593716Y-66425419D01*
X97617749Y-66430199D01*
X97642254Y-66430199D01*
X97666287Y-66425418D01*
X97688926Y-66416040D01*
X97709300Y-66402426D01*
X97726627Y-66385099D01*
X97740239Y-66364727D01*
X97744507Y-66356743D01*
X97869472Y-66204472D01*
X98021740Y-66079509D01*
X98195463Y-65986652D01*
X98195465Y-65986651D01*
X98383966Y-65929470D01*
X98383967Y-65929470D01*
X98383970Y-65929469D01*
X98530876Y-65915000D01*
X98629124Y-65915000D01*
X98776030Y-65929469D01*
X98776033Y-65929470D01*
X98776034Y-65929470D01*
X98964535Y-65986651D01*
X98964537Y-65986652D01*
X99138260Y-66079509D01*
X99290528Y-66204472D01*
X99415491Y-66356740D01*
X99482083Y-66481325D01*
X99508349Y-66530465D01*
X99544174Y-66648566D01*
X99565531Y-66718970D01*
X99584838Y-66915000D01*
X99565531Y-67111030D01*
X99565530Y-67111033D01*
X99565530Y-67111034D01*
X99524380Y-67246689D01*
X99508348Y-67299537D01*
X99415491Y-67473260D01*
X99290528Y-67625528D01*
X99138260Y-67750491D01*
X99138258Y-67750492D01*
X98964535Y-67843349D01*
X98776034Y-67900530D01*
X98776033Y-67900530D01*
X98776030Y-67900531D01*
X98629124Y-67915000D01*
X98530876Y-67915000D01*
X98383970Y-67900531D01*
X98383967Y-67900530D01*
X98383966Y-67900530D01*
X98195465Y-67843349D01*
X98021742Y-67750492D01*
X98021740Y-67750491D01*
X97869472Y-67625528D01*
X97744507Y-67473257D01*
X97740239Y-67465273D01*
X97726625Y-67444899D01*
X97709298Y-67427572D01*
X97688923Y-67413958D01*
X97666284Y-67404581D01*
X97642251Y-67399801D01*
X97617746Y-67399801D01*
X97593713Y-67404582D01*
X97571074Y-67413960D01*
X97550700Y-67427574D01*
X97533373Y-67444901D01*
X97519761Y-67465273D01*
X97515493Y-67473257D01*
X97390528Y-67625528D01*
X97238260Y-67750491D01*
X97238258Y-67750492D01*
X97064535Y-67843349D01*
X96876034Y-67900530D01*
X96876033Y-67900530D01*
X96876030Y-67900531D01*
X96729124Y-67915000D01*
X96630876Y-67915000D01*
X96483970Y-67900531D01*
X96483967Y-67900530D01*
X96483966Y-67900530D01*
X96295465Y-67843349D01*
X96121742Y-67750492D01*
X96121740Y-67750491D01*
X95969472Y-67625528D01*
X95844507Y-67473257D01*
X95840239Y-67465273D01*
X95826625Y-67444899D01*
X95809298Y-67427572D01*
X95788923Y-67413958D01*
X95766284Y-67404581D01*
X95742251Y-67399801D01*
X95717746Y-67399801D01*
X95693713Y-67404582D01*
X95671074Y-67413960D01*
X95650700Y-67427574D01*
X95633373Y-67444901D01*
X95619761Y-67465273D01*
X95615493Y-67473257D01*
X95490528Y-67625528D01*
X95338260Y-67750491D01*
X95338258Y-67750492D01*
X95164535Y-67843349D01*
X94976034Y-67900530D01*
X94976033Y-67900530D01*
X94976030Y-67900531D01*
X94829124Y-67915000D01*
X94730876Y-67915000D01*
X94583970Y-67900531D01*
X94583967Y-67900530D01*
X94583966Y-67900530D01*
X94395465Y-67843349D01*
X94221742Y-67750492D01*
X94221740Y-67750491D01*
X94069472Y-67625528D01*
X93944507Y-67473257D01*
X93940239Y-67465273D01*
X93926625Y-67444899D01*
X93909298Y-67427572D01*
X93888923Y-67413958D01*
X93866284Y-67404581D01*
X93842251Y-67399801D01*
X93817746Y-67399801D01*
X93793713Y-67404582D01*
X93771074Y-67413960D01*
X93750700Y-67427574D01*
X93733373Y-67444901D01*
X93719761Y-67465273D01*
X93715493Y-67473257D01*
X93590528Y-67625528D01*
X93438260Y-67750491D01*
X93438258Y-67750492D01*
X93264535Y-67843349D01*
X93076034Y-67900530D01*
X93076033Y-67900530D01*
X93076030Y-67900531D01*
X92929124Y-67915000D01*
X92830876Y-67915000D01*
X92683970Y-67900531D01*
X92683967Y-67900530D01*
X92683966Y-67900530D01*
X92495465Y-67843349D01*
X92321742Y-67750492D01*
X92321740Y-67750491D01*
X92169472Y-67625528D01*
X92036718Y-67463767D01*
X92019391Y-67446440D01*
X91999017Y-67432826D01*
X91976378Y-67423448D01*
X91952344Y-67418668D01*
X91927840Y-67418668D01*
X91903807Y-67423448D01*
X91881167Y-67432826D01*
X91860793Y-67446440D01*
X91836164Y-67473613D01*
X91756751Y-67592463D01*
X91617463Y-67731751D01*
X91453678Y-67841189D01*
X91271689Y-67916571D01*
X91155770Y-67939628D01*
X91078493Y-67955000D01*
X90881507Y-67955000D01*
X90804230Y-67939628D01*
X90688311Y-67916571D01*
X90506322Y-67841189D01*
X90342537Y-67731751D01*
X90203249Y-67592463D01*
X90133926Y-67488715D01*
X90118388Y-67469781D01*
X90099446Y-67454236D01*
X90077835Y-67442685D01*
X90054386Y-67435572D01*
X90030000Y-67433170D01*
X90005613Y-67435572D01*
X89982164Y-67442685D01*
X89960554Y-67454236D01*
X89941611Y-67469782D01*
X89926074Y-67488715D01*
X89856751Y-67592463D01*
X89717463Y-67731751D01*
X89553678Y-67841189D01*
X89371689Y-67916571D01*
X89255770Y-67939628D01*
X89178493Y-67955000D01*
X88981507Y-67955000D01*
X88904230Y-67939628D01*
X88788311Y-67916571D01*
X88606322Y-67841189D01*
X88442537Y-67731751D01*
X88303249Y-67592463D01*
X88193811Y-67428678D01*
X88118429Y-67246689D01*
X88080000Y-67053491D01*
X88080000Y-66856509D01*
X88118429Y-66663311D01*
X88193811Y-66481322D01*
X88303249Y-66317537D01*
X88442537Y-66178249D01*
X88606322Y-66068811D01*
X88788311Y-65993429D01*
X88904230Y-65970372D01*
X88981507Y-65955000D01*
X89178493Y-65955000D01*
X89255770Y-65970372D01*
X89371689Y-65993429D01*
X89553678Y-66068811D01*
X89717463Y-66178249D01*
X89856751Y-66317537D01*
X89926074Y-66421285D01*
X89941612Y-66440219D01*
X89960554Y-66455764D01*
X89982165Y-66467315D01*
X90005614Y-66474428D01*
X90030000Y-66476830D01*
X90054387Y-66474428D01*
X90077836Y-66467315D01*
X90099446Y-66455764D01*
X90118389Y-66440218D01*
X90133926Y-66421285D01*
X90203249Y-66317537D01*
X90342537Y-66178249D01*
X90506322Y-66068811D01*
X90688311Y-65993429D01*
X90804230Y-65970372D01*
X90881507Y-65955000D01*
X91078493Y-65955000D01*
X91155770Y-65970372D01*
X91271689Y-65993429D01*
X91453678Y-66068811D01*
X91617463Y-66178249D01*
X91756751Y-66317537D01*
X91812408Y-66400834D01*
X91827942Y-66419762D01*
X91846884Y-66435307D01*
X91868495Y-66446859D01*
X91891944Y-66453972D01*
X91916331Y-66456374D01*
X91940717Y-66453972D01*
X91964166Y-66446859D01*
X91985777Y-66435308D01*
X92004719Y-66419763D01*
X92026571Y-66390299D01*
X92044508Y-66356741D01*
X92169472Y-66204472D01*
X92321740Y-66079509D01*
X92495463Y-65986652D01*
X92495465Y-65986651D01*
X92683966Y-65929470D01*
X92683967Y-65929470D01*
X92683970Y-65929469D01*
X92830876Y-65915000D01*
X92929124Y-65915000D01*
X93076030Y-65929469D01*
X93076030Y-65929469D01*
G37*
G36*
X72985000Y-65555000D02*
X72987402Y-65579386D01*
X72994515Y-65602835D01*
X72995000Y-65603742D01*
X72995000Y-67330000D01*
X71595000Y-67330000D01*
X71595000Y-65755000D01*
X71592598Y-65730614D01*
X71585485Y-65707165D01*
X71585000Y-65706258D01*
X71585000Y-63980000D01*
X72985000Y-63980000D01*
X72985000Y-65555000D01*
X72985000Y-65555000D01*
G37*
G36*
X70985000Y-65555000D02*
X70987402Y-65579386D01*
X70994515Y-65602835D01*
X70995000Y-65603742D01*
X70995000Y-67330000D01*
X69595000Y-67330000D01*
X69595000Y-65755000D01*
X69592598Y-65730614D01*
X69585485Y-65707165D01*
X69585000Y-65706258D01*
X69585000Y-63980000D01*
X70985000Y-63980000D01*
X70985000Y-65555000D01*
X70985000Y-65555000D01*
G37*
G36*
X50627500Y-66882500D02*
X48727500Y-66882500D01*
X48727500Y-64232500D01*
X50627500Y-64232500D01*
X50627500Y-66882500D01*
X50627500Y-66882500D01*
G37*
G36*
X57797500Y-61297500D02*
X57799902Y-61321886D01*
X57807015Y-61345335D01*
X57818566Y-61366946D01*
X57834112Y-61385888D01*
X57853054Y-61401434D01*
X57874665Y-61412985D01*
X57898114Y-61420098D01*
X57922500Y-61422500D01*
X57977500Y-61422500D01*
X57977500Y-63072500D01*
X57677500Y-63072500D01*
X57653114Y-63074902D01*
X57629665Y-63082015D01*
X57608054Y-63093566D01*
X57589112Y-63109112D01*
X57573566Y-63128054D01*
X57562015Y-63149665D01*
X57554902Y-63173114D01*
X57552500Y-63197500D01*
X57552500Y-63432500D01*
X57554902Y-63456886D01*
X57562015Y-63480335D01*
X57573566Y-63501946D01*
X57589112Y-63520888D01*
X57608054Y-63536434D01*
X57629665Y-63547985D01*
X57653114Y-63555098D01*
X57677500Y-63557500D01*
X58977500Y-63557500D01*
X58977500Y-65157500D01*
X57677500Y-65157500D01*
X57663414Y-65158887D01*
X57667985Y-65150335D01*
X57675098Y-65126886D01*
X57677500Y-65102500D01*
X57677500Y-64752500D01*
X57675098Y-64728114D01*
X57667985Y-64704665D01*
X57656434Y-64683054D01*
X57640888Y-64664112D01*
X57621946Y-64648566D01*
X57600335Y-64637015D01*
X57576886Y-64629902D01*
X57552500Y-64627500D01*
X54152500Y-64627500D01*
X54128114Y-64629902D01*
X54104665Y-64637015D01*
X54083054Y-64648566D01*
X54064112Y-64664112D01*
X54048566Y-64683054D01*
X54037015Y-64704665D01*
X54029902Y-64728114D01*
X54027500Y-64752500D01*
X54027500Y-65102500D01*
X54029902Y-65126886D01*
X54037015Y-65150335D01*
X54048566Y-65171946D01*
X54064112Y-65190888D01*
X54083054Y-65206434D01*
X54104665Y-65217985D01*
X54128114Y-65225098D01*
X54152500Y-65227500D01*
X57552500Y-65227500D01*
X57566586Y-65226113D01*
X57562015Y-65234665D01*
X57554902Y-65258114D01*
X57552500Y-65282500D01*
X57552500Y-66627500D01*
X54152500Y-66627500D01*
X54128114Y-66629902D01*
X54104665Y-66637015D01*
X54083054Y-66648566D01*
X54064112Y-66664112D01*
X54048566Y-66683054D01*
X54037015Y-66704665D01*
X54029902Y-66728114D01*
X54027500Y-66752500D01*
X54027500Y-66882500D01*
X52127500Y-66882500D01*
X52127500Y-64232500D01*
X54047500Y-64232500D01*
X54071886Y-64230098D01*
X54095335Y-64222985D01*
X54116946Y-64211434D01*
X54135888Y-64195888D01*
X54151434Y-64176946D01*
X54162985Y-64155335D01*
X54170098Y-64131886D01*
X54172500Y-64107500D01*
X54172500Y-63227500D01*
X54902500Y-63227500D01*
X54926886Y-63225098D01*
X54950335Y-63217985D01*
X54971946Y-63206434D01*
X54990888Y-63190888D01*
X55006434Y-63171946D01*
X55017985Y-63150335D01*
X55025098Y-63126886D01*
X55027500Y-63102500D01*
X55027500Y-60557500D01*
X56472500Y-60557500D01*
X56496886Y-60555098D01*
X56520335Y-60547985D01*
X56541946Y-60536434D01*
X56560888Y-60520888D01*
X56576434Y-60501946D01*
X56587985Y-60480335D01*
X56595098Y-60456886D01*
X56597500Y-60432500D01*
X56597500Y-60057500D01*
X57797500Y-60057500D01*
X57797500Y-61297500D01*
X57797500Y-61297500D01*
G37*
G36*
X78747500Y-66707500D02*
X73887500Y-66707500D01*
X73887500Y-64607500D01*
X78747500Y-64607500D01*
X78747500Y-66707500D01*
X78747500Y-66707500D01*
G37*
G36*
X67389183Y-64831900D02*
X67516574Y-64884668D01*
X67631225Y-64961275D01*
X67728725Y-65058775D01*
X67805332Y-65173426D01*
X67858100Y-65300817D01*
X67885000Y-65436055D01*
X67885000Y-65573945D01*
X67858100Y-65709183D01*
X67805332Y-65836574D01*
X67728726Y-65951224D01*
X67631224Y-66048726D01*
X67516574Y-66125332D01*
X67389183Y-66178100D01*
X67253945Y-66205000D01*
X67116055Y-66205000D01*
X66980817Y-66178100D01*
X66853426Y-66125332D01*
X66738776Y-66048726D01*
X66641274Y-65951224D01*
X66564668Y-65836574D01*
X66511900Y-65709183D01*
X66485000Y-65573945D01*
X66485000Y-65436055D01*
X66511900Y-65300817D01*
X66564668Y-65173426D01*
X66641275Y-65058775D01*
X66738775Y-64961275D01*
X66853426Y-64884668D01*
X66980817Y-64831900D01*
X67116055Y-64805000D01*
X67253945Y-64805000D01*
X67389183Y-64831900D01*
X67389183Y-64831900D01*
G37*
G36*
X48442500Y-65457500D02*
X45092500Y-65457500D01*
X45092500Y-64057500D01*
X48442500Y-64057500D01*
X48442500Y-65457500D01*
X48442500Y-65457500D01*
G37*
G36*
X62277500Y-65157500D02*
X60977500Y-65157500D01*
X60977500Y-63557500D01*
X62277500Y-63557500D01*
X62277500Y-65157500D01*
X62277500Y-65157500D01*
G37*
G36*
X30233405Y-58872974D02*
X30815767Y-59114196D01*
X31339884Y-59464400D01*
X31785600Y-59910116D01*
X32135804Y-60434233D01*
X32377026Y-61016595D01*
X32500000Y-61634826D01*
X32500000Y-62265174D01*
X32377026Y-62883405D01*
X32135804Y-63465767D01*
X31785600Y-63989884D01*
X31339884Y-64435600D01*
X30815767Y-64785804D01*
X30233405Y-65027026D01*
X29615174Y-65150000D01*
X28984826Y-65150000D01*
X28366595Y-65027026D01*
X27784233Y-64785804D01*
X27260116Y-64435600D01*
X26814400Y-63989884D01*
X26464196Y-63465767D01*
X26222974Y-62883405D01*
X26100000Y-62265174D01*
X26100000Y-61634826D01*
X26222974Y-61016595D01*
X26464196Y-60434233D01*
X26814400Y-59910116D01*
X27260116Y-59464400D01*
X27784233Y-59114196D01*
X28366595Y-58872974D01*
X28984826Y-58750000D01*
X29615174Y-58750000D01*
X30233405Y-58872974D01*
X30233405Y-58872974D01*
G37*
G36*
X67389183Y-62931900D02*
X67516574Y-62984668D01*
X67631224Y-63061274D01*
X67728726Y-63158776D01*
X67803362Y-63270477D01*
X67805332Y-63273426D01*
X67858100Y-63400817D01*
X67885000Y-63536055D01*
X67885000Y-63673945D01*
X67858100Y-63809183D01*
X67805332Y-63936574D01*
X67728726Y-64051224D01*
X67631224Y-64148726D01*
X67578432Y-64184000D01*
X67516574Y-64225332D01*
X67389183Y-64278100D01*
X67253945Y-64305000D01*
X67116055Y-64305000D01*
X66980817Y-64278100D01*
X66853426Y-64225332D01*
X66791568Y-64184000D01*
X66738776Y-64148726D01*
X66641274Y-64051224D01*
X66564668Y-63936574D01*
X66511900Y-63809183D01*
X66485000Y-63673945D01*
X66485000Y-63536055D01*
X66511900Y-63400817D01*
X66564668Y-63273426D01*
X66566638Y-63270477D01*
X66641274Y-63158776D01*
X66738776Y-63061274D01*
X66853426Y-62984668D01*
X66980817Y-62931900D01*
X67116055Y-62905000D01*
X67253945Y-62905000D01*
X67389183Y-62931900D01*
X67389183Y-62931900D01*
G37*
G36*
X83997000Y-64184000D02*
X82597000Y-64184000D01*
X82597000Y-62534000D01*
X83997000Y-62534000D01*
X83997000Y-64184000D01*
X83997000Y-64184000D01*
G37*
G36*
X81997000Y-64184000D02*
X80597000Y-64184000D01*
X80597000Y-62534000D01*
X81997000Y-62534000D01*
X81997000Y-64184000D01*
X81997000Y-64184000D01*
G37*
G36*
X88085000Y-64180000D02*
X86685000Y-64180000D01*
X86685000Y-62530000D01*
X88085000Y-62530000D01*
X88085000Y-64180000D01*
X88085000Y-64180000D01*
G37*
G36*
X86085000Y-64180000D02*
X84685000Y-64180000D01*
X84685000Y-62530000D01*
X86085000Y-62530000D01*
X86085000Y-64180000D01*
X86085000Y-64180000D01*
G37*
G36*
X53457500Y-63497500D02*
X51457500Y-63497500D01*
X51457500Y-61097500D01*
X53457500Y-61097500D01*
X53457500Y-63497500D01*
X53457500Y-63497500D01*
G37*
G36*
X45924527Y-60568352D02*
X46065901Y-60611238D01*
X46196194Y-60680880D01*
X46310396Y-60774604D01*
X46404120Y-60888806D01*
X46478829Y-61028578D01*
X46479998Y-61031403D01*
X46493608Y-61051780D01*
X46510932Y-61069111D01*
X46531304Y-61082729D01*
X46553941Y-61092110D01*
X46577974Y-61096896D01*
X46590250Y-61097500D01*
X48577500Y-61097500D01*
X48577500Y-63497500D01*
X46577500Y-63497500D01*
X46577500Y-62964280D01*
X46575098Y-62939894D01*
X46567985Y-62916445D01*
X46556434Y-62894834D01*
X46540888Y-62875892D01*
X46521946Y-62860346D01*
X46500335Y-62848795D01*
X46476886Y-62841682D01*
X46452500Y-62839280D01*
X46428114Y-62841682D01*
X46404665Y-62848795D01*
X46383054Y-62860346D01*
X46364112Y-62875892D01*
X46355873Y-62884981D01*
X46310396Y-62940396D01*
X46196190Y-63034122D01*
X46065900Y-63103762D01*
X45924526Y-63146648D01*
X45777500Y-63161128D01*
X45630473Y-63146648D01*
X45489099Y-63103762D01*
X45358806Y-63034120D01*
X45244607Y-62940399D01*
X45150878Y-62826190D01*
X45081238Y-62695900D01*
X45038352Y-62554526D01*
X45027500Y-62444338D01*
X45027501Y-61270661D01*
X45038353Y-61160473D01*
X45081239Y-61019099D01*
X45150881Y-60888806D01*
X45244605Y-60774604D01*
X45358807Y-60680880D01*
X45489100Y-60611238D01*
X45630474Y-60568352D01*
X45777500Y-60553872D01*
X45924527Y-60568352D01*
X45924527Y-60568352D01*
G37*
G36*
X20150026Y-60796115D02*
X20368412Y-60886573D01*
X20564958Y-61017901D01*
X20732099Y-61185042D01*
X20863427Y-61381588D01*
X20953885Y-61599974D01*
X21000000Y-61831809D01*
X21000000Y-62068191D01*
X20953885Y-62300026D01*
X20863427Y-62518412D01*
X20732099Y-62714958D01*
X20564958Y-62882099D01*
X20368412Y-63013427D01*
X20150026Y-63103885D01*
X19918191Y-63150000D01*
X19681809Y-63150000D01*
X19449974Y-63103885D01*
X19231588Y-63013427D01*
X19035042Y-62882099D01*
X18867901Y-62714958D01*
X18736573Y-62518412D01*
X18646115Y-62300026D01*
X18600000Y-62068191D01*
X18600000Y-61831809D01*
X18646115Y-61599974D01*
X18736573Y-61381588D01*
X18867901Y-61185042D01*
X19035042Y-61017901D01*
X19231588Y-60886573D01*
X19449974Y-60796115D01*
X19681809Y-60750000D01*
X19918191Y-60750000D01*
X20150026Y-60796115D01*
X20150026Y-60796115D01*
G37*
G36*
X39150026Y-60796115D02*
X39368412Y-60886573D01*
X39564958Y-61017901D01*
X39732099Y-61185042D01*
X39863427Y-61381588D01*
X39953885Y-61599974D01*
X40000000Y-61831809D01*
X40000000Y-62068191D01*
X39953885Y-62300026D01*
X39863427Y-62518412D01*
X39732099Y-62714958D01*
X39564958Y-62882099D01*
X39368412Y-63013427D01*
X39150026Y-63103885D01*
X38918191Y-63150000D01*
X38681809Y-63150000D01*
X38449974Y-63103885D01*
X38231588Y-63013427D01*
X38035042Y-62882099D01*
X37867901Y-62714958D01*
X37736573Y-62518412D01*
X37646115Y-62300026D01*
X37600000Y-62068191D01*
X37600000Y-61831809D01*
X37646115Y-61599974D01*
X37736573Y-61381588D01*
X37867901Y-61185042D01*
X38035042Y-61017901D01*
X38231588Y-60886573D01*
X38449974Y-60796115D01*
X38681809Y-60750000D01*
X38918191Y-60750000D01*
X39150026Y-60796115D01*
X39150026Y-60796115D01*
G37*
G36*
X59697500Y-61297500D02*
X59699902Y-61321886D01*
X59707015Y-61345335D01*
X59718566Y-61366946D01*
X59734112Y-61385888D01*
X59753054Y-61401434D01*
X59774665Y-61412985D01*
X59798114Y-61420098D01*
X59822500Y-61422500D01*
X59977500Y-61422500D01*
X59977500Y-63072500D01*
X58577500Y-63072500D01*
X58577500Y-61482500D01*
X58575098Y-61458114D01*
X58567985Y-61434665D01*
X58556434Y-61413054D01*
X58540888Y-61394112D01*
X58521946Y-61378566D01*
X58500335Y-61367015D01*
X58497500Y-61366155D01*
X58497500Y-60057500D01*
X59697500Y-60057500D01*
X59697500Y-61297500D01*
X59697500Y-61297500D01*
G37*
G36*
X132857500Y-62717500D02*
X130957500Y-62717500D01*
X130957500Y-60917500D01*
X132857500Y-60917500D01*
X132857500Y-62717500D01*
X132857500Y-62717500D01*
G37*
G36*
X84005000Y-62130000D02*
X82705000Y-62130000D01*
X82705000Y-60930000D01*
X84005000Y-60930000D01*
X84005000Y-62130000D01*
X84005000Y-62130000D01*
G37*
G36*
X86011000Y-62115000D02*
X84711000Y-62115000D01*
X84711000Y-60915000D01*
X86011000Y-60915000D01*
X86011000Y-62115000D01*
X86011000Y-62115000D01*
G37*
G36*
X82005000Y-61180000D02*
X80705000Y-61180000D01*
X80705000Y-59980000D01*
X82005000Y-59980000D01*
X82005000Y-61180000D01*
X82005000Y-61180000D01*
G37*
G36*
X88011000Y-61165000D02*
X86711000Y-61165000D01*
X86711000Y-59965000D01*
X88011000Y-59965000D01*
X88011000Y-61165000D01*
X88011000Y-61165000D01*
G37*
G36*
X67736951Y-58556627D02*
X67874605Y-58584008D01*
X68047494Y-58655621D01*
X68203090Y-58759587D01*
X68335413Y-58891910D01*
X68439379Y-59047506D01*
X68510992Y-59220395D01*
X68547500Y-59403933D01*
X68547500Y-59591067D01*
X68510992Y-59774605D01*
X68439379Y-59947494D01*
X68335413Y-60103090D01*
X68203090Y-60235413D01*
X68047494Y-60339379D01*
X67874605Y-60410992D01*
X67736952Y-60438373D01*
X67691068Y-60447500D01*
X67503932Y-60447500D01*
X67458048Y-60438373D01*
X67320395Y-60410992D01*
X67147506Y-60339379D01*
X66991910Y-60235413D01*
X66859587Y-60103090D01*
X66755621Y-59947494D01*
X66684008Y-59774605D01*
X66647500Y-59591067D01*
X66647500Y-59403933D01*
X66684008Y-59220395D01*
X66755621Y-59047506D01*
X66859587Y-58891910D01*
X66991910Y-58759587D01*
X67147506Y-58655621D01*
X67320395Y-58584008D01*
X67458049Y-58556627D01*
X67503932Y-58547500D01*
X67691068Y-58547500D01*
X67736951Y-58556627D01*
X67736951Y-58556627D01*
G37*
G36*
X62856951Y-58556627D02*
X62994605Y-58584008D01*
X63167494Y-58655621D01*
X63323090Y-58759587D01*
X63455413Y-58891910D01*
X63559379Y-59047506D01*
X63630992Y-59220395D01*
X63667500Y-59403933D01*
X63667500Y-59591067D01*
X63630992Y-59774605D01*
X63559379Y-59947494D01*
X63455413Y-60103090D01*
X63323090Y-60235413D01*
X63167494Y-60339379D01*
X62994605Y-60410992D01*
X62856952Y-60438373D01*
X62811068Y-60447500D01*
X62623932Y-60447500D01*
X62578048Y-60438373D01*
X62440395Y-60410992D01*
X62267506Y-60339379D01*
X62111910Y-60235413D01*
X61979587Y-60103090D01*
X61875621Y-59947494D01*
X61804008Y-59774605D01*
X61767500Y-59591067D01*
X61767500Y-59403933D01*
X61804008Y-59220395D01*
X61875621Y-59047506D01*
X61979587Y-58891910D01*
X62111910Y-58759587D01*
X62267506Y-58655621D01*
X62440395Y-58584008D01*
X62578049Y-58556627D01*
X62623932Y-58547500D01*
X62811068Y-58547500D01*
X62856951Y-58556627D01*
X62856951Y-58556627D01*
G37*
G36*
X84005000Y-60230000D02*
X82705000Y-60230000D01*
X82705000Y-59030000D01*
X84005000Y-59030000D01*
X84005000Y-60230000D01*
X84005000Y-60230000D01*
G37*
G36*
X86011000Y-60215000D02*
X84711000Y-60215000D01*
X84711000Y-59015000D01*
X86011000Y-59015000D01*
X86011000Y-60215000D01*
X86011000Y-60215000D01*
G37*
G36*
X80427500Y-56847500D02*
X80429902Y-56871886D01*
X80437015Y-56895335D01*
X80448566Y-56916946D01*
X80464112Y-56935888D01*
X80483054Y-56951434D01*
X80504665Y-56962985D01*
X80528114Y-56970098D01*
X80552500Y-56972500D01*
X82057500Y-56972500D01*
X82057500Y-58622500D01*
X80656515Y-58622500D01*
X80657500Y-58612500D01*
X80657500Y-58262500D01*
X80655098Y-58238114D01*
X80647985Y-58214665D01*
X80636434Y-58193054D01*
X80620888Y-58174112D01*
X80601946Y-58158566D01*
X80580335Y-58147015D01*
X80556886Y-58139902D01*
X80532500Y-58137500D01*
X78872500Y-58137500D01*
X78848114Y-58139902D01*
X78824665Y-58147015D01*
X78803054Y-58158566D01*
X78784112Y-58174112D01*
X78768566Y-58193054D01*
X78757015Y-58214665D01*
X78749902Y-58238114D01*
X78747500Y-58262500D01*
X78747500Y-58612500D01*
X78749902Y-58636886D01*
X78757015Y-58660335D01*
X78768566Y-58681946D01*
X78784112Y-58700888D01*
X78803054Y-58716434D01*
X78824665Y-58727985D01*
X78848114Y-58735098D01*
X78872500Y-58737500D01*
X80428485Y-58737500D01*
X80427500Y-58747500D01*
X80427500Y-60137500D01*
X78777500Y-60137500D01*
X78777500Y-59532500D01*
X78775098Y-59508114D01*
X78767985Y-59484665D01*
X78756434Y-59463054D01*
X78740888Y-59444112D01*
X78721946Y-59428566D01*
X78700335Y-59417015D01*
X78676886Y-59409902D01*
X78652500Y-59407500D01*
X73887500Y-59407500D01*
X73887500Y-58802500D01*
X73885098Y-58778114D01*
X73877985Y-58754665D01*
X73866434Y-58733054D01*
X73850888Y-58714112D01*
X73831946Y-58698566D01*
X73810335Y-58687015D01*
X73786886Y-58679902D01*
X73762500Y-58677500D01*
X72637500Y-58677500D01*
X72637500Y-56977500D01*
X73737500Y-56977500D01*
X73737500Y-57182500D01*
X73739902Y-57206886D01*
X73747015Y-57230335D01*
X73758566Y-57251946D01*
X73774112Y-57270888D01*
X73793054Y-57286434D01*
X73814665Y-57297985D01*
X73838114Y-57305098D01*
X73862500Y-57307500D01*
X78652500Y-57307500D01*
X78676886Y-57305098D01*
X78700335Y-57297985D01*
X78721946Y-57286434D01*
X78740888Y-57270888D01*
X78756434Y-57251946D01*
X78767985Y-57230335D01*
X78775098Y-57206886D01*
X78777500Y-57182500D01*
X78777500Y-56737500D01*
X80427500Y-56737500D01*
X80427500Y-56847500D01*
X80427500Y-56847500D01*
G37*
G36*
X57537500Y-57932500D02*
X57539902Y-57956886D01*
X57547015Y-57980335D01*
X57558566Y-58001946D01*
X57574112Y-58020888D01*
X57593054Y-58036434D01*
X57614665Y-58047985D01*
X57638114Y-58055098D01*
X57662500Y-58057500D01*
X58012500Y-58057500D01*
X58036886Y-58055098D01*
X58060335Y-58047985D01*
X58081946Y-58036434D01*
X58100888Y-58020888D01*
X58116434Y-58001946D01*
X58127985Y-57980335D01*
X58135098Y-57956886D01*
X58137500Y-57932500D01*
X58137500Y-56402500D01*
X59537500Y-56402500D01*
X59537500Y-58052500D01*
X58872500Y-58052500D01*
X58848114Y-58054902D01*
X58824665Y-58062015D01*
X58803054Y-58073566D01*
X58784112Y-58089112D01*
X58768566Y-58108054D01*
X58757015Y-58129665D01*
X58749902Y-58153114D01*
X58747500Y-58177500D01*
X58747500Y-59357500D01*
X57547500Y-59357500D01*
X57547500Y-58177500D01*
X57545098Y-58153114D01*
X57537985Y-58129665D01*
X57526434Y-58108054D01*
X57510888Y-58089112D01*
X57491946Y-58073566D01*
X57470335Y-58062015D01*
X57446886Y-58054902D01*
X57422500Y-58052500D01*
X56137500Y-58052500D01*
X56137500Y-56402500D01*
X57537500Y-56402500D01*
X57537500Y-57932500D01*
X57537500Y-57932500D01*
G37*
G36*
X47450021Y-57412086D02*
X47613809Y-57479929D01*
X47761220Y-57578426D01*
X47774112Y-57591318D01*
X47793054Y-57606864D01*
X47814665Y-57618415D01*
X47838114Y-57625528D01*
X47862500Y-57627930D01*
X47886886Y-57625528D01*
X47910335Y-57618415D01*
X47931946Y-57606864D01*
X47950888Y-57591318D01*
X47966434Y-57572376D01*
X47977985Y-57550765D01*
X47985098Y-57527316D01*
X47987500Y-57502930D01*
X47987500Y-57402500D01*
X51387500Y-57402500D01*
X51387500Y-57502930D01*
X51389902Y-57527316D01*
X51397015Y-57550765D01*
X51408566Y-57572376D01*
X51424112Y-57591318D01*
X51443054Y-57606864D01*
X51464665Y-57618415D01*
X51488114Y-57625528D01*
X51512500Y-57627930D01*
X51536886Y-57625528D01*
X51560335Y-57618415D01*
X51581946Y-57606864D01*
X51600888Y-57591318D01*
X51613780Y-57578426D01*
X51761191Y-57479929D01*
X51924979Y-57412086D01*
X52098856Y-57377500D01*
X52276144Y-57377500D01*
X52450021Y-57412086D01*
X52613809Y-57479929D01*
X52761220Y-57578426D01*
X52886574Y-57703780D01*
X52985071Y-57851191D01*
X53052914Y-58014979D01*
X53087500Y-58188856D01*
X53087500Y-58366144D01*
X53052914Y-58540021D01*
X52985071Y-58703809D01*
X52886574Y-58851220D01*
X52761220Y-58976574D01*
X52613809Y-59075071D01*
X52450021Y-59142914D01*
X52276144Y-59177500D01*
X52098856Y-59177500D01*
X51924979Y-59142914D01*
X51761191Y-59075071D01*
X51613780Y-58976574D01*
X51600888Y-58963682D01*
X51581946Y-58948136D01*
X51560335Y-58936585D01*
X51536886Y-58929472D01*
X51512500Y-58927070D01*
X51488114Y-58929472D01*
X51464665Y-58936585D01*
X51443054Y-58948136D01*
X51424112Y-58963682D01*
X51408566Y-58982624D01*
X51397015Y-59004235D01*
X51389902Y-59027684D01*
X51387500Y-59052070D01*
X51387500Y-59152500D01*
X47987500Y-59152500D01*
X47987500Y-59052070D01*
X47985098Y-59027684D01*
X47977985Y-59004235D01*
X47966434Y-58982624D01*
X47950888Y-58963682D01*
X47931946Y-58948136D01*
X47910335Y-58936585D01*
X47886886Y-58929472D01*
X47862500Y-58927070D01*
X47838114Y-58929472D01*
X47814665Y-58936585D01*
X47793054Y-58948136D01*
X47774112Y-58963682D01*
X47761220Y-58976574D01*
X47613809Y-59075071D01*
X47450021Y-59142914D01*
X47276144Y-59177500D01*
X47098856Y-59177500D01*
X46924979Y-59142914D01*
X46761191Y-59075071D01*
X46613780Y-58976574D01*
X46488426Y-58851220D01*
X46389929Y-58703809D01*
X46322086Y-58540021D01*
X46287500Y-58366144D01*
X46287500Y-58188856D01*
X46322086Y-58014979D01*
X46389929Y-57851191D01*
X46488426Y-57703780D01*
X46613780Y-57578426D01*
X46761191Y-57479929D01*
X46924979Y-57412086D01*
X47098856Y-57377500D01*
X47276144Y-57377500D01*
X47450021Y-57412086D01*
X47450021Y-57412086D01*
G37*
G36*
X71837500Y-58677500D02*
X70737500Y-58677500D01*
X70737500Y-56977500D01*
X71837500Y-56977500D01*
X71837500Y-58677500D01*
X71837500Y-58677500D01*
G37*
G36*
X86067500Y-58632500D02*
X84667500Y-58632500D01*
X84667500Y-56982500D01*
X86067500Y-56982500D01*
X86067500Y-58632500D01*
X86067500Y-58632500D01*
G37*
G36*
X93055770Y-55770372D02*
X93171689Y-55793429D01*
X93353678Y-55868811D01*
X93517463Y-55978249D01*
X93656751Y-56117537D01*
X93726074Y-56221285D01*
X93741612Y-56240219D01*
X93760554Y-56255764D01*
X93782165Y-56267315D01*
X93805614Y-56274428D01*
X93830000Y-56276830D01*
X93854387Y-56274428D01*
X93877836Y-56267315D01*
X93899446Y-56255764D01*
X93918389Y-56240218D01*
X93933926Y-56221285D01*
X94003249Y-56117537D01*
X94142537Y-55978249D01*
X94306322Y-55868811D01*
X94488311Y-55793429D01*
X94604230Y-55770372D01*
X94681507Y-55755000D01*
X94878493Y-55755000D01*
X94955770Y-55770372D01*
X95071689Y-55793429D01*
X95253678Y-55868811D01*
X95417463Y-55978249D01*
X95556751Y-56117537D01*
X95626074Y-56221285D01*
X95641612Y-56240219D01*
X95660554Y-56255764D01*
X95682165Y-56267315D01*
X95705614Y-56274428D01*
X95730000Y-56276830D01*
X95754387Y-56274428D01*
X95777836Y-56267315D01*
X95799446Y-56255764D01*
X95818389Y-56240218D01*
X95833926Y-56221285D01*
X95903249Y-56117537D01*
X96042537Y-55978249D01*
X96206322Y-55868811D01*
X96388311Y-55793429D01*
X96504230Y-55770372D01*
X96581507Y-55755000D01*
X96778493Y-55755000D01*
X96855770Y-55770372D01*
X96971689Y-55793429D01*
X97153678Y-55868811D01*
X97317463Y-55978249D01*
X97456751Y-56117537D01*
X97526074Y-56221285D01*
X97541612Y-56240219D01*
X97560554Y-56255764D01*
X97582165Y-56267315D01*
X97605614Y-56274428D01*
X97630000Y-56276830D01*
X97654387Y-56274428D01*
X97677836Y-56267315D01*
X97699446Y-56255764D01*
X97718389Y-56240218D01*
X97733926Y-56221285D01*
X97803249Y-56117537D01*
X97942537Y-55978249D01*
X98106322Y-55868811D01*
X98288311Y-55793429D01*
X98404230Y-55770372D01*
X98481507Y-55755000D01*
X98678493Y-55755000D01*
X98755770Y-55770372D01*
X98871689Y-55793429D01*
X99053678Y-55868811D01*
X99217463Y-55978249D01*
X99356751Y-56117537D01*
X99466189Y-56281322D01*
X99541571Y-56463311D01*
X99559634Y-56554120D01*
X99573487Y-56623762D01*
X99580000Y-56656509D01*
X99580000Y-56853491D01*
X99541571Y-57046689D01*
X99466189Y-57228678D01*
X99356751Y-57392463D01*
X99217463Y-57531751D01*
X99053678Y-57641189D01*
X98871689Y-57716571D01*
X98755770Y-57739628D01*
X98678493Y-57755000D01*
X98481507Y-57755000D01*
X98404230Y-57739628D01*
X98288311Y-57716571D01*
X98106322Y-57641189D01*
X97942537Y-57531751D01*
X97803249Y-57392463D01*
X97733926Y-57288715D01*
X97718388Y-57269781D01*
X97699446Y-57254236D01*
X97677835Y-57242685D01*
X97654386Y-57235572D01*
X97630000Y-57233170D01*
X97605613Y-57235572D01*
X97582164Y-57242685D01*
X97560554Y-57254236D01*
X97541611Y-57269782D01*
X97526074Y-57288715D01*
X97456751Y-57392463D01*
X97317463Y-57531751D01*
X97153678Y-57641189D01*
X96971689Y-57716571D01*
X96855770Y-57739628D01*
X96778493Y-57755000D01*
X96581507Y-57755000D01*
X96504230Y-57739628D01*
X96388311Y-57716571D01*
X96206322Y-57641189D01*
X96042537Y-57531751D01*
X95903249Y-57392463D01*
X95833926Y-57288715D01*
X95818388Y-57269781D01*
X95799446Y-57254236D01*
X95777835Y-57242685D01*
X95754386Y-57235572D01*
X95730000Y-57233170D01*
X95705613Y-57235572D01*
X95682164Y-57242685D01*
X95660554Y-57254236D01*
X95641611Y-57269782D01*
X95626074Y-57288715D01*
X95556751Y-57392463D01*
X95417463Y-57531751D01*
X95253678Y-57641189D01*
X95071689Y-57716571D01*
X94955770Y-57739628D01*
X94878493Y-57755000D01*
X94681507Y-57755000D01*
X94604230Y-57739628D01*
X94488311Y-57716571D01*
X94306322Y-57641189D01*
X94142537Y-57531751D01*
X94003249Y-57392463D01*
X93933926Y-57288715D01*
X93918388Y-57269781D01*
X93899446Y-57254236D01*
X93877835Y-57242685D01*
X93854386Y-57235572D01*
X93830000Y-57233170D01*
X93805613Y-57235572D01*
X93782164Y-57242685D01*
X93760554Y-57254236D01*
X93741611Y-57269782D01*
X93726074Y-57288715D01*
X93656751Y-57392463D01*
X93517463Y-57531751D01*
X93353678Y-57641189D01*
X93171689Y-57716571D01*
X93055770Y-57739628D01*
X92978493Y-57755000D01*
X92781507Y-57755000D01*
X92704230Y-57739628D01*
X92588311Y-57716571D01*
X92406322Y-57641189D01*
X92242537Y-57531751D01*
X92103249Y-57392463D01*
X92047592Y-57309166D01*
X92032058Y-57290238D01*
X92013116Y-57274693D01*
X91991505Y-57263141D01*
X91968056Y-57256028D01*
X91943669Y-57253626D01*
X91919283Y-57256028D01*
X91895834Y-57263141D01*
X91874223Y-57274692D01*
X91855281Y-57290237D01*
X91833429Y-57319701D01*
X91815492Y-57353259D01*
X91690528Y-57505528D01*
X91538260Y-57630491D01*
X91538258Y-57630492D01*
X91364535Y-57723349D01*
X91176034Y-57780530D01*
X91176033Y-57780530D01*
X91176030Y-57780531D01*
X91029124Y-57795000D01*
X90930876Y-57795000D01*
X90783970Y-57780531D01*
X90783967Y-57780530D01*
X90783966Y-57780530D01*
X90595465Y-57723349D01*
X90421742Y-57630492D01*
X90421740Y-57630491D01*
X90269472Y-57505528D01*
X90144507Y-57353257D01*
X90140239Y-57345273D01*
X90126625Y-57324899D01*
X90109298Y-57307572D01*
X90088923Y-57293958D01*
X90066284Y-57284581D01*
X90042251Y-57279801D01*
X90017746Y-57279801D01*
X89993713Y-57284582D01*
X89971074Y-57293960D01*
X89950700Y-57307574D01*
X89933373Y-57324901D01*
X89919761Y-57345273D01*
X89915493Y-57353257D01*
X89790528Y-57505528D01*
X89638260Y-57630491D01*
X89638258Y-57630492D01*
X89464535Y-57723349D01*
X89276034Y-57780530D01*
X89276033Y-57780530D01*
X89276030Y-57780531D01*
X89129124Y-57795000D01*
X89030876Y-57795000D01*
X88883970Y-57780531D01*
X88883967Y-57780530D01*
X88883966Y-57780530D01*
X88695465Y-57723349D01*
X88521742Y-57630492D01*
X88521740Y-57630491D01*
X88369475Y-57505531D01*
X88369474Y-57505529D01*
X88369472Y-57505528D01*
X88289124Y-57407623D01*
X88271799Y-57390299D01*
X88251425Y-57376685D01*
X88228786Y-57367308D01*
X88204752Y-57362527D01*
X88180248Y-57362527D01*
X88156215Y-57367307D01*
X88133576Y-57376685D01*
X88113201Y-57390298D01*
X88095874Y-57407626D01*
X88082260Y-57428000D01*
X88072883Y-57450639D01*
X88068102Y-57474673D01*
X88067500Y-57486925D01*
X88067500Y-58632500D01*
X86667500Y-58632500D01*
X86667500Y-56982500D01*
X87955713Y-56982500D01*
X87980099Y-56980098D01*
X88003548Y-56972985D01*
X88025159Y-56961434D01*
X88044101Y-56945888D01*
X88059647Y-56926946D01*
X88071198Y-56905335D01*
X88078311Y-56881886D01*
X88080713Y-56857500D01*
X88080111Y-56845247D01*
X88075162Y-56794999D01*
X88094469Y-56598970D01*
X88094470Y-56598966D01*
X88151651Y-56410465D01*
X88193693Y-56331810D01*
X88244509Y-56236740D01*
X88369472Y-56084472D01*
X88521740Y-55959509D01*
X88695463Y-55866652D01*
X88695465Y-55866651D01*
X88883966Y-55809470D01*
X88883967Y-55809470D01*
X88883970Y-55809469D01*
X89030876Y-55795000D01*
X89129124Y-55795000D01*
X89276030Y-55809469D01*
X89276033Y-55809470D01*
X89276034Y-55809470D01*
X89464535Y-55866651D01*
X89464537Y-55866652D01*
X89638260Y-55959509D01*
X89790528Y-56084472D01*
X89915493Y-56236743D01*
X89919761Y-56244727D01*
X89933375Y-56265101D01*
X89950702Y-56282428D01*
X89971077Y-56296042D01*
X89993716Y-56305419D01*
X90017749Y-56310199D01*
X90042254Y-56310199D01*
X90066287Y-56305418D01*
X90088926Y-56296040D01*
X90109300Y-56282426D01*
X90126627Y-56265099D01*
X90140239Y-56244727D01*
X90144507Y-56236743D01*
X90269472Y-56084472D01*
X90421740Y-55959509D01*
X90595463Y-55866652D01*
X90595465Y-55866651D01*
X90783966Y-55809470D01*
X90783967Y-55809470D01*
X90783970Y-55809469D01*
X90930876Y-55795000D01*
X91029124Y-55795000D01*
X91176030Y-55809469D01*
X91176033Y-55809470D01*
X91176034Y-55809470D01*
X91364535Y-55866651D01*
X91364537Y-55866652D01*
X91538260Y-55959509D01*
X91690528Y-56084472D01*
X91823282Y-56246233D01*
X91840609Y-56263560D01*
X91860983Y-56277174D01*
X91883622Y-56286552D01*
X91907656Y-56291332D01*
X91932160Y-56291332D01*
X91956193Y-56286552D01*
X91978833Y-56277174D01*
X91999207Y-56263560D01*
X92023836Y-56236387D01*
X92103249Y-56117537D01*
X92242537Y-55978249D01*
X92406322Y-55868811D01*
X92588311Y-55793429D01*
X92704230Y-55770372D01*
X92781507Y-55755000D01*
X92978493Y-55755000D01*
X93055770Y-55770372D01*
X93055770Y-55770372D01*
G37*
G36*
X84057500Y-58622500D02*
X82657500Y-58622500D01*
X82657500Y-56972500D01*
X84057500Y-56972500D01*
X84057500Y-58622500D01*
X84057500Y-58622500D01*
G37*
G36*
X130150026Y-55296115D02*
X130368412Y-55386573D01*
X130564958Y-55517901D01*
X130732099Y-55685042D01*
X130863427Y-55881588D01*
X130953885Y-56099974D01*
X131000000Y-56331809D01*
X131000000Y-56568191D01*
X130953885Y-56800026D01*
X130863427Y-57018412D01*
X130732099Y-57214958D01*
X130564958Y-57382099D01*
X130368412Y-57513427D01*
X130150026Y-57603885D01*
X129918191Y-57650000D01*
X129681809Y-57650000D01*
X129449974Y-57603885D01*
X129231588Y-57513427D01*
X129035042Y-57382099D01*
X128867901Y-57214958D01*
X128736573Y-57018412D01*
X128646115Y-56800026D01*
X128600000Y-56568191D01*
X128600000Y-56331809D01*
X128646115Y-56099974D01*
X128736573Y-55881588D01*
X128867901Y-55685042D01*
X129035042Y-55517901D01*
X129231588Y-55386573D01*
X129449974Y-55296115D01*
X129681809Y-55250000D01*
X129918191Y-55250000D01*
X130150026Y-55296115D01*
X130150026Y-55296115D01*
G37*
G36*
X46334527Y-54488352D02*
X46475901Y-54531238D01*
X46606194Y-54600880D01*
X46720396Y-54694604D01*
X46814120Y-54808806D01*
X46883762Y-54939099D01*
X46926648Y-55080473D01*
X46937500Y-55190661D01*
X46937500Y-55964339D01*
X46926648Y-56074527D01*
X46883762Y-56215901D01*
X46814120Y-56346194D01*
X46720399Y-56460393D01*
X46606190Y-56554122D01*
X46475900Y-56623762D01*
X46334526Y-56666648D01*
X46187500Y-56681128D01*
X46040473Y-56666648D01*
X45899099Y-56623762D01*
X45768806Y-56554120D01*
X45654607Y-56460399D01*
X45560878Y-56346190D01*
X45491238Y-56215900D01*
X45448352Y-56074526D01*
X45437500Y-55964338D01*
X45437500Y-55190661D01*
X45448352Y-55080475D01*
X45491240Y-54939098D01*
X45560881Y-54808806D01*
X45654605Y-54694604D01*
X45768807Y-54600880D01*
X45899100Y-54531238D01*
X46040474Y-54488352D01*
X46187500Y-54473872D01*
X46334527Y-54488352D01*
X46334527Y-54488352D01*
G37*
G36*
X53334527Y-54488352D02*
X53475901Y-54531238D01*
X53606194Y-54600880D01*
X53720396Y-54694604D01*
X53814120Y-54808806D01*
X53883762Y-54939099D01*
X53926648Y-55080473D01*
X53937500Y-55190661D01*
X53937500Y-55964339D01*
X53926648Y-56074527D01*
X53883762Y-56215901D01*
X53814120Y-56346194D01*
X53720399Y-56460393D01*
X53606190Y-56554122D01*
X53475900Y-56623762D01*
X53334526Y-56666648D01*
X53187500Y-56681128D01*
X53040473Y-56666648D01*
X52899099Y-56623762D01*
X52768806Y-56554120D01*
X52654607Y-56460399D01*
X52560878Y-56346190D01*
X52491238Y-56215900D01*
X52448352Y-56074526D01*
X52437500Y-55964338D01*
X52437500Y-55190661D01*
X52448352Y-55080475D01*
X52491240Y-54939098D01*
X52560881Y-54808806D01*
X52654605Y-54694604D01*
X52768807Y-54600880D01*
X52899100Y-54531238D01*
X53040474Y-54488352D01*
X53187500Y-54473872D01*
X53334527Y-54488352D01*
X53334527Y-54488352D01*
G37*
G36*
X22925026Y-54121115D02*
X23143412Y-54211573D01*
X23339958Y-54342901D01*
X23507099Y-54510042D01*
X23638427Y-54706588D01*
X23728885Y-54924974D01*
X23775000Y-55156809D01*
X23775000Y-55393191D01*
X23728885Y-55625026D01*
X23638427Y-55843412D01*
X23507099Y-56039958D01*
X23339958Y-56207099D01*
X23143412Y-56338427D01*
X22925026Y-56428885D01*
X22693191Y-56475000D01*
X22456809Y-56475000D01*
X22224974Y-56428885D01*
X22006588Y-56338427D01*
X21810042Y-56207099D01*
X21642901Y-56039958D01*
X21511573Y-55843412D01*
X21421115Y-55625026D01*
X21375000Y-55393191D01*
X21375000Y-55156809D01*
X21421115Y-54924974D01*
X21511573Y-54706588D01*
X21642901Y-54510042D01*
X21810042Y-54342901D01*
X22006588Y-54211573D01*
X22224974Y-54121115D01*
X22456809Y-54075000D01*
X22693191Y-54075000D01*
X22925026Y-54121115D01*
X22925026Y-54121115D01*
G37*
G36*
X36350026Y-54096115D02*
X36568412Y-54186573D01*
X36764958Y-54317901D01*
X36932099Y-54485042D01*
X37063427Y-54681588D01*
X37153885Y-54899974D01*
X37200000Y-55131809D01*
X37200000Y-55368191D01*
X37153885Y-55600026D01*
X37063427Y-55818412D01*
X36932099Y-56014958D01*
X36764958Y-56182099D01*
X36568412Y-56313427D01*
X36350026Y-56403885D01*
X36118191Y-56450000D01*
X35881809Y-56450000D01*
X35649974Y-56403885D01*
X35431588Y-56313427D01*
X35235042Y-56182099D01*
X35067901Y-56014958D01*
X34936573Y-55818412D01*
X34846115Y-55600026D01*
X34800000Y-55368191D01*
X34800000Y-55131809D01*
X34846115Y-54899974D01*
X34936573Y-54681588D01*
X35067901Y-54485042D01*
X35235042Y-54317901D01*
X35431588Y-54186573D01*
X35649974Y-54096115D01*
X35881809Y-54050000D01*
X36118191Y-54050000D01*
X36350026Y-54096115D01*
X36350026Y-54096115D01*
G37*
G36*
X118017500Y-56107500D02*
X113617500Y-56107500D01*
X113617500Y-53497500D01*
X118017500Y-53497500D01*
X118017500Y-56107500D01*
X118017500Y-56107500D01*
G37*
G36*
X44817500Y-55217500D02*
X40417500Y-55217500D01*
X40417500Y-52607500D01*
X44817500Y-52607500D01*
X44817500Y-55217500D01*
X44817500Y-55217500D01*
G37*
G36*
X136875026Y-52471115D02*
X137093412Y-52561573D01*
X137289958Y-52692901D01*
X137457099Y-52860042D01*
X137588427Y-53056588D01*
X137678885Y-53274974D01*
X137725000Y-53506809D01*
X137725000Y-53743191D01*
X137678885Y-53975026D01*
X137588427Y-54193412D01*
X137457099Y-54389958D01*
X137289958Y-54557099D01*
X137093412Y-54688427D01*
X136875026Y-54778885D01*
X136643191Y-54825000D01*
X136406809Y-54825000D01*
X136174974Y-54778885D01*
X135956588Y-54688427D01*
X135760042Y-54557099D01*
X135592901Y-54389958D01*
X135461573Y-54193412D01*
X135371115Y-53975026D01*
X135325000Y-53743191D01*
X135325000Y-53506809D01*
X135371115Y-53274974D01*
X135461573Y-53056588D01*
X135592901Y-52860042D01*
X135760042Y-52692901D01*
X135956588Y-52561573D01*
X136174974Y-52471115D01*
X136406809Y-52425000D01*
X136643191Y-52425000D01*
X136875026Y-52471115D01*
X136875026Y-52471115D01*
G37*
G36*
X123350026Y-52446115D02*
X123568412Y-52536573D01*
X123764958Y-52667901D01*
X123932099Y-52835042D01*
X124063427Y-53031588D01*
X124153885Y-53249974D01*
X124200000Y-53481809D01*
X124200000Y-53718191D01*
X124153885Y-53950026D01*
X124063427Y-54168412D01*
X123932099Y-54364958D01*
X123764958Y-54532099D01*
X123568412Y-54663427D01*
X123350026Y-54753885D01*
X123118191Y-54800000D01*
X122881809Y-54800000D01*
X122649974Y-54753885D01*
X122431588Y-54663427D01*
X122235042Y-54532099D01*
X122067901Y-54364958D01*
X121936573Y-54168412D01*
X121846115Y-53950026D01*
X121800000Y-53718191D01*
X121800000Y-53481809D01*
X121846115Y-53249974D01*
X121936573Y-53031588D01*
X122067901Y-52835042D01*
X122235042Y-52667901D01*
X122431588Y-52536573D01*
X122649974Y-52446115D01*
X122881809Y-52400000D01*
X123118191Y-52400000D01*
X123350026Y-52446115D01*
X123350026Y-52446115D01*
G37*
G36*
X112394526Y-52048352D02*
X112535900Y-52091238D01*
X112666190Y-52160878D01*
X112780399Y-52254607D01*
X112874120Y-52368806D01*
X112943762Y-52499099D01*
X112986648Y-52640473D01*
X112997500Y-52750661D01*
X112997500Y-53524339D01*
X112986648Y-53634527D01*
X112943762Y-53775901D01*
X112874120Y-53906194D01*
X112780396Y-54020396D01*
X112666194Y-54114120D01*
X112535901Y-54183762D01*
X112394527Y-54226648D01*
X112247500Y-54241128D01*
X112100474Y-54226648D01*
X111959100Y-54183762D01*
X111828807Y-54114120D01*
X111714605Y-54020396D01*
X111620881Y-53906194D01*
X111551240Y-53775902D01*
X111508352Y-53634525D01*
X111497500Y-53524339D01*
X111497500Y-52750662D01*
X111508352Y-52640474D01*
X111551238Y-52499100D01*
X111620878Y-52368810D01*
X111714607Y-52254601D01*
X111828806Y-52160880D01*
X111959099Y-52091238D01*
X112100473Y-52048352D01*
X112247500Y-52033872D01*
X112394526Y-52048352D01*
X112394526Y-52048352D01*
G37*
G36*
X105394526Y-52048352D02*
X105535900Y-52091238D01*
X105666190Y-52160878D01*
X105780399Y-52254607D01*
X105874120Y-52368806D01*
X105943762Y-52499099D01*
X105986648Y-52640473D01*
X105997500Y-52750661D01*
X105997500Y-53524339D01*
X105986648Y-53634527D01*
X105943762Y-53775901D01*
X105874120Y-53906194D01*
X105780396Y-54020396D01*
X105666194Y-54114120D01*
X105535901Y-54183762D01*
X105394527Y-54226648D01*
X105247500Y-54241128D01*
X105100474Y-54226648D01*
X104959100Y-54183762D01*
X104828807Y-54114120D01*
X104714605Y-54020396D01*
X104620881Y-53906194D01*
X104551240Y-53775902D01*
X104508352Y-53634525D01*
X104497500Y-53524339D01*
X104497500Y-52750662D01*
X104508352Y-52640474D01*
X104551238Y-52499100D01*
X104620878Y-52368810D01*
X104714607Y-52254601D01*
X104828806Y-52160880D01*
X104959099Y-52091238D01*
X105100473Y-52048352D01*
X105247500Y-52033872D01*
X105394526Y-52048352D01*
X105394526Y-52048352D01*
G37*
G36*
X29650026Y-51296115D02*
X29868412Y-51386573D01*
X30064958Y-51517901D01*
X30232099Y-51685042D01*
X30363427Y-51881588D01*
X30453885Y-52099974D01*
X30500000Y-52331809D01*
X30500000Y-52568191D01*
X30453885Y-52800026D01*
X30363427Y-53018412D01*
X30232099Y-53214958D01*
X30064958Y-53382099D01*
X29868412Y-53513427D01*
X29650026Y-53603885D01*
X29418191Y-53650000D01*
X29181809Y-53650000D01*
X28949974Y-53603885D01*
X28731588Y-53513427D01*
X28535042Y-53382099D01*
X28367901Y-53214958D01*
X28236573Y-53018412D01*
X28146115Y-52800026D01*
X28100000Y-52568191D01*
X28100000Y-52331809D01*
X28146115Y-52099974D01*
X28236573Y-51881588D01*
X28367901Y-51685042D01*
X28535042Y-51517901D01*
X28731588Y-51386573D01*
X28949974Y-51296115D01*
X29181809Y-51250000D01*
X29418191Y-51250000D01*
X29650026Y-51296115D01*
X29650026Y-51296115D01*
G37*
G36*
X71767500Y-51732500D02*
X70479287Y-51732500D01*
X70454901Y-51734902D01*
X70431452Y-51742015D01*
X70409841Y-51753566D01*
X70390899Y-51769112D01*
X70375353Y-51788054D01*
X70363802Y-51809665D01*
X70356689Y-51833114D01*
X70354287Y-51857500D01*
X70354889Y-51869753D01*
X70359838Y-51920000D01*
X70340531Y-52116030D01*
X70340530Y-52116033D01*
X70340530Y-52116034D01*
X70299380Y-52251689D01*
X70283348Y-52304537D01*
X70190491Y-52478260D01*
X70065528Y-52630528D01*
X69913260Y-52755491D01*
X69913258Y-52755492D01*
X69739535Y-52848349D01*
X69551034Y-52905530D01*
X69551033Y-52905530D01*
X69551030Y-52905531D01*
X69404124Y-52920000D01*
X69305876Y-52920000D01*
X69158970Y-52905531D01*
X69158967Y-52905530D01*
X69158966Y-52905530D01*
X68970465Y-52848349D01*
X68796742Y-52755492D01*
X68796740Y-52755491D01*
X68644472Y-52630528D01*
X68519507Y-52478257D01*
X68515239Y-52470273D01*
X68501625Y-52449899D01*
X68484298Y-52432572D01*
X68463923Y-52418958D01*
X68441284Y-52409581D01*
X68417251Y-52404801D01*
X68392746Y-52404801D01*
X68368713Y-52409582D01*
X68346074Y-52418960D01*
X68325700Y-52432574D01*
X68308373Y-52449901D01*
X68294761Y-52470273D01*
X68290493Y-52478257D01*
X68165528Y-52630528D01*
X68013260Y-52755491D01*
X68013258Y-52755492D01*
X67839535Y-52848349D01*
X67651034Y-52905530D01*
X67651033Y-52905530D01*
X67651030Y-52905531D01*
X67504124Y-52920000D01*
X67405876Y-52920000D01*
X67258970Y-52905531D01*
X67258967Y-52905530D01*
X67258966Y-52905530D01*
X67070465Y-52848349D01*
X66896742Y-52755492D01*
X66896740Y-52755491D01*
X66744472Y-52630528D01*
X66611718Y-52468767D01*
X66594391Y-52451440D01*
X66574017Y-52437826D01*
X66551378Y-52428448D01*
X66527344Y-52423668D01*
X66502840Y-52423668D01*
X66478807Y-52428448D01*
X66456167Y-52437826D01*
X66435793Y-52451440D01*
X66411164Y-52478613D01*
X66331751Y-52597463D01*
X66192463Y-52736751D01*
X66028678Y-52846189D01*
X65846689Y-52921571D01*
X65730770Y-52944628D01*
X65653493Y-52960000D01*
X65456507Y-52960000D01*
X65379230Y-52944628D01*
X65263311Y-52921571D01*
X65081322Y-52846189D01*
X64917537Y-52736751D01*
X64778249Y-52597463D01*
X64708926Y-52493715D01*
X64693388Y-52474781D01*
X64674446Y-52459236D01*
X64652835Y-52447685D01*
X64629386Y-52440572D01*
X64605000Y-52438170D01*
X64580613Y-52440572D01*
X64557164Y-52447685D01*
X64535554Y-52459236D01*
X64516611Y-52474782D01*
X64501074Y-52493715D01*
X64431751Y-52597463D01*
X64292463Y-52736751D01*
X64128678Y-52846189D01*
X63946689Y-52921571D01*
X63830770Y-52944628D01*
X63753493Y-52960000D01*
X63556507Y-52960000D01*
X63479230Y-52944628D01*
X63363311Y-52921571D01*
X63181322Y-52846189D01*
X63017537Y-52736751D01*
X62878249Y-52597463D01*
X62808926Y-52493715D01*
X62793388Y-52474781D01*
X62774446Y-52459236D01*
X62752835Y-52447685D01*
X62729386Y-52440572D01*
X62705000Y-52438170D01*
X62680613Y-52440572D01*
X62657164Y-52447685D01*
X62635554Y-52459236D01*
X62616611Y-52474782D01*
X62601074Y-52493715D01*
X62531751Y-52597463D01*
X62392463Y-52736751D01*
X62228678Y-52846189D01*
X62046689Y-52921571D01*
X61930770Y-52944628D01*
X61853493Y-52960000D01*
X61656507Y-52960000D01*
X61579230Y-52944628D01*
X61463311Y-52921571D01*
X61281322Y-52846189D01*
X61117537Y-52736751D01*
X60978249Y-52597463D01*
X60908926Y-52493715D01*
X60893388Y-52474781D01*
X60874446Y-52459236D01*
X60852835Y-52447685D01*
X60829386Y-52440572D01*
X60805000Y-52438170D01*
X60780613Y-52440572D01*
X60757164Y-52447685D01*
X60735554Y-52459236D01*
X60716611Y-52474782D01*
X60701074Y-52493715D01*
X60631751Y-52597463D01*
X60492463Y-52736751D01*
X60328678Y-52846189D01*
X60146689Y-52921571D01*
X60030770Y-52944628D01*
X59953493Y-52960000D01*
X59756507Y-52960000D01*
X59679230Y-52944628D01*
X59563311Y-52921571D01*
X59381322Y-52846189D01*
X59217537Y-52736751D01*
X59078249Y-52597463D01*
X58968811Y-52433678D01*
X58893429Y-52251689D01*
X58861514Y-52091239D01*
X58855000Y-52058493D01*
X58855000Y-51861507D01*
X58876471Y-51753566D01*
X58893429Y-51668311D01*
X58968811Y-51486322D01*
X59078249Y-51322537D01*
X59217537Y-51183249D01*
X59381322Y-51073811D01*
X59563311Y-50998429D01*
X59679230Y-50975372D01*
X59756507Y-50960000D01*
X59953493Y-50960000D01*
X60030770Y-50975372D01*
X60146689Y-50998429D01*
X60328678Y-51073811D01*
X60492463Y-51183249D01*
X60631751Y-51322537D01*
X60701074Y-51426285D01*
X60716612Y-51445219D01*
X60735554Y-51460764D01*
X60757165Y-51472315D01*
X60780614Y-51479428D01*
X60805000Y-51481830D01*
X60829387Y-51479428D01*
X60852836Y-51472315D01*
X60874446Y-51460764D01*
X60893389Y-51445218D01*
X60908926Y-51426285D01*
X60978249Y-51322537D01*
X61117537Y-51183249D01*
X61281322Y-51073811D01*
X61463311Y-50998429D01*
X61579230Y-50975372D01*
X61656507Y-50960000D01*
X61853493Y-50960000D01*
X61930770Y-50975372D01*
X62046689Y-50998429D01*
X62228678Y-51073811D01*
X62392463Y-51183249D01*
X62531751Y-51322537D01*
X62601074Y-51426285D01*
X62616612Y-51445219D01*
X62635554Y-51460764D01*
X62657165Y-51472315D01*
X62680614Y-51479428D01*
X62705000Y-51481830D01*
X62729387Y-51479428D01*
X62752836Y-51472315D01*
X62774446Y-51460764D01*
X62793389Y-51445218D01*
X62808926Y-51426285D01*
X62878249Y-51322537D01*
X63017537Y-51183249D01*
X63181322Y-51073811D01*
X63363311Y-50998429D01*
X63479230Y-50975372D01*
X63556507Y-50960000D01*
X63753493Y-50960000D01*
X63830770Y-50975372D01*
X63946689Y-50998429D01*
X64128678Y-51073811D01*
X64292463Y-51183249D01*
X64431751Y-51322537D01*
X64501074Y-51426285D01*
X64516612Y-51445219D01*
X64535554Y-51460764D01*
X64557165Y-51472315D01*
X64580614Y-51479428D01*
X64605000Y-51481830D01*
X64629387Y-51479428D01*
X64652836Y-51472315D01*
X64674446Y-51460764D01*
X64693389Y-51445218D01*
X64708926Y-51426285D01*
X64778249Y-51322537D01*
X64917537Y-51183249D01*
X65081322Y-51073811D01*
X65263311Y-50998429D01*
X65379230Y-50975372D01*
X65456507Y-50960000D01*
X65653493Y-50960000D01*
X65730770Y-50975372D01*
X65846689Y-50998429D01*
X66028678Y-51073811D01*
X66192463Y-51183249D01*
X66331751Y-51322537D01*
X66387408Y-51405834D01*
X66402942Y-51424762D01*
X66421884Y-51440307D01*
X66443495Y-51451859D01*
X66466944Y-51458972D01*
X66491331Y-51461374D01*
X66515717Y-51458972D01*
X66539166Y-51451859D01*
X66560777Y-51440308D01*
X66579719Y-51424763D01*
X66601571Y-51395299D01*
X66619508Y-51361741D01*
X66744472Y-51209472D01*
X66896740Y-51084509D01*
X67070463Y-50991652D01*
X67070465Y-50991651D01*
X67258966Y-50934470D01*
X67258967Y-50934470D01*
X67258970Y-50934469D01*
X67405876Y-50920000D01*
X67504124Y-50920000D01*
X67651030Y-50934469D01*
X67651033Y-50934470D01*
X67651034Y-50934470D01*
X67839535Y-50991651D01*
X67839537Y-50991652D01*
X68013260Y-51084509D01*
X68165528Y-51209472D01*
X68290493Y-51361743D01*
X68294761Y-51369727D01*
X68308375Y-51390101D01*
X68325702Y-51407428D01*
X68346077Y-51421042D01*
X68368716Y-51430419D01*
X68392749Y-51435199D01*
X68417254Y-51435199D01*
X68441287Y-51430418D01*
X68463926Y-51421040D01*
X68484300Y-51407426D01*
X68501627Y-51390099D01*
X68515239Y-51369727D01*
X68519507Y-51361743D01*
X68644472Y-51209472D01*
X68796740Y-51084509D01*
X68970463Y-50991652D01*
X68970465Y-50991651D01*
X69158966Y-50934470D01*
X69158967Y-50934470D01*
X69158970Y-50934469D01*
X69305876Y-50920000D01*
X69404124Y-50920000D01*
X69551030Y-50934469D01*
X69551033Y-50934470D01*
X69551034Y-50934470D01*
X69739535Y-50991651D01*
X69739537Y-50991652D01*
X69913260Y-51084509D01*
X70065525Y-51209469D01*
X70065526Y-51209471D01*
X70065528Y-51209472D01*
X70145876Y-51307377D01*
X70163201Y-51324701D01*
X70183575Y-51338315D01*
X70206214Y-51347692D01*
X70230248Y-51352473D01*
X70254752Y-51352473D01*
X70278785Y-51347693D01*
X70301424Y-51338315D01*
X70321799Y-51324702D01*
X70339126Y-51307374D01*
X70352740Y-51287000D01*
X70362117Y-51264361D01*
X70366898Y-51240327D01*
X70367500Y-51228075D01*
X70367500Y-50082500D01*
X71767500Y-50082500D01*
X71767500Y-51732500D01*
X71767500Y-51732500D01*
G37*
G36*
X100887500Y-50537500D02*
X100889902Y-50561886D01*
X100897015Y-50585335D01*
X100908566Y-50606946D01*
X100924112Y-50625888D01*
X100943054Y-50641434D01*
X100964665Y-50652985D01*
X100988114Y-50660098D01*
X101012500Y-50662500D01*
X102297500Y-50662500D01*
X102297500Y-52312500D01*
X100897500Y-52312500D01*
X100897500Y-50782500D01*
X100895098Y-50758114D01*
X100887985Y-50734665D01*
X100876434Y-50713054D01*
X100860888Y-50694112D01*
X100841946Y-50678566D01*
X100820335Y-50667015D01*
X100796886Y-50659902D01*
X100772500Y-50657500D01*
X100422500Y-50657500D01*
X100398114Y-50659902D01*
X100374665Y-50667015D01*
X100353054Y-50678566D01*
X100334112Y-50694112D01*
X100318566Y-50713054D01*
X100307015Y-50734665D01*
X100299902Y-50758114D01*
X100297500Y-50782500D01*
X100297500Y-52312500D01*
X98897500Y-52312500D01*
X98897500Y-50662500D01*
X99562500Y-50662500D01*
X99586886Y-50660098D01*
X99610335Y-50652985D01*
X99631946Y-50641434D01*
X99650888Y-50625888D01*
X99666434Y-50606946D01*
X99677985Y-50585335D01*
X99685098Y-50561886D01*
X99687500Y-50537500D01*
X99687500Y-49357500D01*
X100887500Y-49357500D01*
X100887500Y-50537500D01*
X100887500Y-50537500D01*
G37*
G36*
X79657500Y-49182500D02*
X79659902Y-49206886D01*
X79667015Y-49230335D01*
X79678566Y-49251946D01*
X79694112Y-49270888D01*
X79713054Y-49286434D01*
X79734665Y-49297985D01*
X79758114Y-49305098D01*
X79782500Y-49307500D01*
X84547500Y-49307500D01*
X84547500Y-49912500D01*
X84549902Y-49936886D01*
X84557015Y-49960335D01*
X84568566Y-49981946D01*
X84584112Y-50000888D01*
X84603054Y-50016434D01*
X84624665Y-50027985D01*
X84648114Y-50035098D01*
X84672500Y-50037500D01*
X85797500Y-50037500D01*
X85797500Y-51737500D01*
X84697500Y-51737500D01*
X84697500Y-51532500D01*
X84695098Y-51508114D01*
X84687985Y-51484665D01*
X84676434Y-51463054D01*
X84660888Y-51444112D01*
X84641946Y-51428566D01*
X84620335Y-51417015D01*
X84596886Y-51409902D01*
X84572500Y-51407500D01*
X79782500Y-51407500D01*
X79758114Y-51409902D01*
X79734665Y-51417015D01*
X79713054Y-51428566D01*
X79694112Y-51444112D01*
X79678566Y-51463054D01*
X79667015Y-51484665D01*
X79659902Y-51508114D01*
X79657500Y-51532500D01*
X79657500Y-51977500D01*
X78007500Y-51977500D01*
X78007500Y-51867500D01*
X78005098Y-51843114D01*
X77997985Y-51819665D01*
X77986434Y-51798054D01*
X77970888Y-51779112D01*
X77951946Y-51763566D01*
X77930335Y-51752015D01*
X77906886Y-51744902D01*
X77882500Y-51742500D01*
X76377500Y-51742500D01*
X76377500Y-50092500D01*
X77778485Y-50092500D01*
X77777500Y-50102500D01*
X77777500Y-50452500D01*
X77779902Y-50476886D01*
X77787015Y-50500335D01*
X77798566Y-50521946D01*
X77814112Y-50540888D01*
X77833054Y-50556434D01*
X77854665Y-50567985D01*
X77878114Y-50575098D01*
X77902500Y-50577500D01*
X79562500Y-50577500D01*
X79586886Y-50575098D01*
X79610335Y-50567985D01*
X79631946Y-50556434D01*
X79650888Y-50540888D01*
X79666434Y-50521946D01*
X79677985Y-50500335D01*
X79685098Y-50476886D01*
X79687500Y-50452500D01*
X79687500Y-50102500D01*
X79685098Y-50078114D01*
X79677985Y-50054665D01*
X79666434Y-50033054D01*
X79650888Y-50014112D01*
X79631946Y-49998566D01*
X79610335Y-49987015D01*
X79586886Y-49979902D01*
X79562500Y-49977500D01*
X78006515Y-49977500D01*
X78007500Y-49967500D01*
X78007500Y-48577500D01*
X79657500Y-48577500D01*
X79657500Y-49182500D01*
X79657500Y-49182500D01*
G37*
G36*
X75777500Y-51742500D02*
X74377500Y-51742500D01*
X74377500Y-50092500D01*
X75777500Y-50092500D01*
X75777500Y-51742500D01*
X75777500Y-51742500D01*
G37*
G36*
X87697500Y-51737500D02*
X86597500Y-51737500D01*
X86597500Y-50037500D01*
X87697500Y-50037500D01*
X87697500Y-51737500D01*
X87697500Y-51737500D01*
G37*
G36*
X73767500Y-51732500D02*
X72367500Y-51732500D01*
X72367500Y-50082500D01*
X73767500Y-50082500D01*
X73767500Y-51732500D01*
X73767500Y-51732500D01*
G37*
G36*
X106510021Y-49572086D02*
X106673809Y-49639929D01*
X106821220Y-49738426D01*
X106834112Y-49751318D01*
X106853054Y-49766864D01*
X106874665Y-49778415D01*
X106898114Y-49785528D01*
X106922500Y-49787930D01*
X106946886Y-49785528D01*
X106970335Y-49778415D01*
X106991946Y-49766864D01*
X107010888Y-49751318D01*
X107026434Y-49732376D01*
X107037985Y-49710765D01*
X107045098Y-49687316D01*
X107047500Y-49662930D01*
X107047500Y-49562500D01*
X110447500Y-49562500D01*
X110447500Y-49662930D01*
X110449902Y-49687316D01*
X110457015Y-49710765D01*
X110468566Y-49732376D01*
X110484112Y-49751318D01*
X110503054Y-49766864D01*
X110524665Y-49778415D01*
X110548114Y-49785528D01*
X110572500Y-49787930D01*
X110596886Y-49785528D01*
X110620335Y-49778415D01*
X110641946Y-49766864D01*
X110660888Y-49751318D01*
X110673780Y-49738426D01*
X110821191Y-49639929D01*
X110984979Y-49572086D01*
X111158856Y-49537500D01*
X111336144Y-49537500D01*
X111510021Y-49572086D01*
X111673809Y-49639929D01*
X111821220Y-49738426D01*
X111946574Y-49863780D01*
X112045071Y-50011191D01*
X112112914Y-50174979D01*
X112147500Y-50348856D01*
X112147500Y-50526144D01*
X112112914Y-50700021D01*
X112045071Y-50863809D01*
X111946574Y-51011220D01*
X111821220Y-51136574D01*
X111673809Y-51235071D01*
X111510021Y-51302914D01*
X111336144Y-51337500D01*
X111158856Y-51337500D01*
X110984979Y-51302914D01*
X110821191Y-51235071D01*
X110673780Y-51136574D01*
X110660888Y-51123682D01*
X110641946Y-51108136D01*
X110620335Y-51096585D01*
X110596886Y-51089472D01*
X110572500Y-51087070D01*
X110548114Y-51089472D01*
X110524665Y-51096585D01*
X110503054Y-51108136D01*
X110484112Y-51123682D01*
X110468566Y-51142624D01*
X110457015Y-51164235D01*
X110449902Y-51187684D01*
X110447500Y-51212070D01*
X110447500Y-51312500D01*
X107047500Y-51312500D01*
X107047500Y-51212070D01*
X107045098Y-51187684D01*
X107037985Y-51164235D01*
X107026434Y-51142624D01*
X107010888Y-51123682D01*
X106991946Y-51108136D01*
X106970335Y-51096585D01*
X106946886Y-51089472D01*
X106922500Y-51087070D01*
X106898114Y-51089472D01*
X106874665Y-51096585D01*
X106853054Y-51108136D01*
X106834112Y-51123682D01*
X106821220Y-51136574D01*
X106673809Y-51235071D01*
X106510021Y-51302914D01*
X106336144Y-51337500D01*
X106158856Y-51337500D01*
X105984979Y-51302914D01*
X105821191Y-51235071D01*
X105673780Y-51136574D01*
X105548426Y-51011220D01*
X105449929Y-50863809D01*
X105382086Y-50700021D01*
X105347500Y-50526144D01*
X105347500Y-50348856D01*
X105382086Y-50174979D01*
X105449929Y-50011191D01*
X105548426Y-49863780D01*
X105673780Y-49738426D01*
X105821191Y-49639929D01*
X105984979Y-49572086D01*
X106158856Y-49537500D01*
X106336144Y-49537500D01*
X106510021Y-49572086D01*
X106510021Y-49572086D01*
G37*
G36*
X90976951Y-48276627D02*
X91114605Y-48304008D01*
X91287494Y-48375621D01*
X91443090Y-48479587D01*
X91575413Y-48611910D01*
X91679379Y-48767506D01*
X91750992Y-48940395D01*
X91787500Y-49123933D01*
X91787500Y-49311067D01*
X91750992Y-49494605D01*
X91679379Y-49667494D01*
X91575413Y-49823090D01*
X91443090Y-49955413D01*
X91287494Y-50059379D01*
X91114605Y-50130992D01*
X90976952Y-50158373D01*
X90931068Y-50167500D01*
X90743932Y-50167500D01*
X90698048Y-50158373D01*
X90560395Y-50130992D01*
X90387506Y-50059379D01*
X90231910Y-49955413D01*
X90099587Y-49823090D01*
X89995621Y-49667494D01*
X89924008Y-49494605D01*
X89887500Y-49311067D01*
X89887500Y-49123933D01*
X89924008Y-48940395D01*
X89995621Y-48767506D01*
X90099587Y-48611910D01*
X90231910Y-48479587D01*
X90387506Y-48375621D01*
X90560395Y-48304008D01*
X90698049Y-48276627D01*
X90743932Y-48267500D01*
X90931068Y-48267500D01*
X90976951Y-48276627D01*
X90976951Y-48276627D01*
G37*
G36*
X95856951Y-48276627D02*
X95994605Y-48304008D01*
X96167494Y-48375621D01*
X96323090Y-48479587D01*
X96455413Y-48611910D01*
X96559379Y-48767506D01*
X96630992Y-48940395D01*
X96667500Y-49123933D01*
X96667500Y-49311067D01*
X96630992Y-49494605D01*
X96559379Y-49667494D01*
X96455413Y-49823090D01*
X96323090Y-49955413D01*
X96167494Y-50059379D01*
X95994605Y-50130992D01*
X95856952Y-50158373D01*
X95811068Y-50167500D01*
X95623932Y-50167500D01*
X95578048Y-50158373D01*
X95440395Y-50130992D01*
X95267506Y-50059379D01*
X95111910Y-49955413D01*
X94979587Y-49823090D01*
X94875621Y-49667494D01*
X94804008Y-49494605D01*
X94767500Y-49311067D01*
X94767500Y-49123933D01*
X94804008Y-48940395D01*
X94875621Y-48767506D01*
X94979587Y-48611910D01*
X95111910Y-48479587D01*
X95267506Y-48375621D01*
X95440395Y-48304008D01*
X95578049Y-48276627D01*
X95623932Y-48267500D01*
X95811068Y-48267500D01*
X95856951Y-48276627D01*
X95856951Y-48276627D01*
G37*
G36*
X130733405Y-43872974D02*
X131315767Y-44114196D01*
X131839884Y-44464400D01*
X132285600Y-44910116D01*
X132635804Y-45434233D01*
X132877026Y-46016595D01*
X133000000Y-46634826D01*
X133000000Y-47265174D01*
X132877026Y-47883405D01*
X132635804Y-48465767D01*
X132285600Y-48989884D01*
X131839884Y-49435600D01*
X131315767Y-49785804D01*
X130733405Y-50027026D01*
X130115174Y-50150000D01*
X129484826Y-50150000D01*
X128866595Y-50027026D01*
X128284233Y-49785804D01*
X127760116Y-49435600D01*
X127314400Y-48989884D01*
X126964196Y-48465767D01*
X126722974Y-47883405D01*
X126600000Y-47265174D01*
X126600000Y-46634826D01*
X126722974Y-46016595D01*
X126964196Y-45434233D01*
X127314400Y-44910116D01*
X127760116Y-44464400D01*
X128284233Y-44114196D01*
X128866595Y-43872974D01*
X129484826Y-43750000D01*
X130115174Y-43750000D01*
X130733405Y-43872974D01*
X130733405Y-43872974D01*
G37*
G36*
X73724000Y-49700000D02*
X72424000Y-49700000D01*
X72424000Y-48500000D01*
X73724000Y-48500000D01*
X73724000Y-49700000D01*
X73724000Y-49700000D01*
G37*
G36*
X75730000Y-49685000D02*
X74430000Y-49685000D01*
X74430000Y-48485000D01*
X75730000Y-48485000D01*
X75730000Y-49685000D01*
X75730000Y-49685000D01*
G37*
G36*
X71724000Y-48750000D02*
X70424000Y-48750000D01*
X70424000Y-47550000D01*
X71724000Y-47550000D01*
X71724000Y-48750000D01*
X71724000Y-48750000D01*
G37*
G36*
X77730000Y-48735000D02*
X76430000Y-48735000D01*
X76430000Y-47535000D01*
X77730000Y-47535000D01*
X77730000Y-48735000D01*
X77730000Y-48735000D01*
G37*
G36*
X99857500Y-47232500D02*
X99859902Y-47256886D01*
X99867015Y-47280335D01*
X99878566Y-47301946D01*
X99894112Y-47320888D01*
X99913054Y-47336434D01*
X99934665Y-47347985D01*
X99937500Y-47348845D01*
X99937500Y-48657500D01*
X98737500Y-48657500D01*
X98737500Y-47417500D01*
X98735098Y-47393114D01*
X98727985Y-47369665D01*
X98716434Y-47348054D01*
X98700888Y-47329112D01*
X98681946Y-47313566D01*
X98660335Y-47302015D01*
X98636886Y-47294902D01*
X98612500Y-47292500D01*
X98457500Y-47292500D01*
X98457500Y-45642500D01*
X99857500Y-45642500D01*
X99857500Y-47232500D01*
X99857500Y-47232500D01*
G37*
G36*
X106307500Y-44482500D02*
X104387500Y-44482500D01*
X104363114Y-44484902D01*
X104339665Y-44492015D01*
X104318054Y-44503566D01*
X104299112Y-44519112D01*
X104283566Y-44538054D01*
X104272015Y-44559665D01*
X104264902Y-44583114D01*
X104262500Y-44607500D01*
X104262500Y-45487500D01*
X103532500Y-45487500D01*
X103508114Y-45489902D01*
X103484665Y-45497015D01*
X103463054Y-45508566D01*
X103444112Y-45524112D01*
X103428566Y-45543054D01*
X103417015Y-45564665D01*
X103409902Y-45588114D01*
X103407500Y-45612500D01*
X103407500Y-48157500D01*
X101962500Y-48157500D01*
X101938114Y-48159902D01*
X101914665Y-48167015D01*
X101893054Y-48178566D01*
X101874112Y-48194112D01*
X101858566Y-48213054D01*
X101847015Y-48234665D01*
X101839902Y-48258114D01*
X101837500Y-48282500D01*
X101837500Y-48657500D01*
X100637500Y-48657500D01*
X100637500Y-47417500D01*
X100635098Y-47393114D01*
X100627985Y-47369665D01*
X100616434Y-47348054D01*
X100600888Y-47329112D01*
X100581946Y-47313566D01*
X100560335Y-47302015D01*
X100536886Y-47294902D01*
X100512500Y-47292500D01*
X100457500Y-47292500D01*
X100457500Y-45642500D01*
X100757500Y-45642500D01*
X100781886Y-45640098D01*
X100805335Y-45632985D01*
X100826946Y-45621434D01*
X100845888Y-45605888D01*
X100861434Y-45586946D01*
X100872985Y-45565335D01*
X100880098Y-45541886D01*
X100882500Y-45517500D01*
X100882500Y-45282500D01*
X100880098Y-45258114D01*
X100872985Y-45234665D01*
X100861434Y-45213054D01*
X100845888Y-45194112D01*
X100826946Y-45178566D01*
X100805335Y-45167015D01*
X100781886Y-45159902D01*
X100757500Y-45157500D01*
X99457500Y-45157500D01*
X99457500Y-43557500D01*
X100757500Y-43557500D01*
X100771586Y-43556113D01*
X100767015Y-43564665D01*
X100759902Y-43588114D01*
X100757500Y-43612500D01*
X100757500Y-43962500D01*
X100759902Y-43986886D01*
X100767015Y-44010335D01*
X100778566Y-44031946D01*
X100794112Y-44050888D01*
X100813054Y-44066434D01*
X100834665Y-44077985D01*
X100858114Y-44085098D01*
X100882500Y-44087500D01*
X104282500Y-44087500D01*
X104306886Y-44085098D01*
X104330335Y-44077985D01*
X104351946Y-44066434D01*
X104370888Y-44050888D01*
X104386434Y-44031946D01*
X104397985Y-44010335D01*
X104405098Y-43986886D01*
X104407500Y-43962500D01*
X104407500Y-43612500D01*
X104405098Y-43588114D01*
X104397985Y-43564665D01*
X104386434Y-43543054D01*
X104370888Y-43524112D01*
X104351946Y-43508566D01*
X104330335Y-43497015D01*
X104306886Y-43489902D01*
X104282500Y-43487500D01*
X100882500Y-43487500D01*
X100868414Y-43488887D01*
X100872985Y-43480335D01*
X100880098Y-43456886D01*
X100882500Y-43432500D01*
X100882500Y-42087500D01*
X104282500Y-42087500D01*
X104306886Y-42085098D01*
X104330335Y-42077985D01*
X104351946Y-42066434D01*
X104370888Y-42050888D01*
X104386434Y-42031946D01*
X104397985Y-42010335D01*
X104405098Y-41986886D01*
X104407500Y-41962500D01*
X104407500Y-41832500D01*
X106307500Y-41832500D01*
X106307500Y-44482500D01*
X106307500Y-44482500D01*
G37*
G36*
X111857500Y-45750720D02*
X111859902Y-45775106D01*
X111867015Y-45798555D01*
X111878566Y-45820166D01*
X111894112Y-45839108D01*
X111913054Y-45854654D01*
X111934665Y-45866205D01*
X111958114Y-45873318D01*
X111982500Y-45875720D01*
X112006886Y-45873318D01*
X112030335Y-45866205D01*
X112051946Y-45854654D01*
X112070888Y-45839108D01*
X112079127Y-45830019D01*
X112124607Y-45774601D01*
X112238806Y-45680880D01*
X112369099Y-45611238D01*
X112510473Y-45568352D01*
X112657500Y-45553872D01*
X112804526Y-45568352D01*
X112945900Y-45611238D01*
X113076190Y-45680878D01*
X113190399Y-45774607D01*
X113284120Y-45888806D01*
X113353762Y-46019099D01*
X113396648Y-46160473D01*
X113407500Y-46270661D01*
X113407500Y-47444339D01*
X113396648Y-47554527D01*
X113353762Y-47695901D01*
X113284120Y-47826194D01*
X113190396Y-47940396D01*
X113076194Y-48034120D01*
X112945901Y-48103762D01*
X112804527Y-48146648D01*
X112657500Y-48161128D01*
X112510474Y-48146648D01*
X112369100Y-48103762D01*
X112238807Y-48034120D01*
X112124605Y-47940396D01*
X112030881Y-47826194D01*
X111956172Y-47686422D01*
X111955003Y-47683597D01*
X111941393Y-47663220D01*
X111924069Y-47645889D01*
X111903697Y-47632271D01*
X111881060Y-47622890D01*
X111857027Y-47618104D01*
X111844751Y-47617500D01*
X109857500Y-47617500D01*
X109857500Y-45217500D01*
X111857500Y-45217500D01*
X111857500Y-45750720D01*
X111857500Y-45750720D01*
G37*
G36*
X139650026Y-45796115D02*
X139868412Y-45886573D01*
X140064958Y-46017901D01*
X140232099Y-46185042D01*
X140363427Y-46381588D01*
X140453885Y-46599974D01*
X140500000Y-46831809D01*
X140500000Y-47068191D01*
X140453885Y-47300026D01*
X140363427Y-47518412D01*
X140232099Y-47714958D01*
X140064958Y-47882099D01*
X139868412Y-48013427D01*
X139650026Y-48103885D01*
X139418191Y-48150000D01*
X139181809Y-48150000D01*
X138949974Y-48103885D01*
X138731588Y-48013427D01*
X138535042Y-47882099D01*
X138367901Y-47714958D01*
X138236573Y-47518412D01*
X138146115Y-47300026D01*
X138100000Y-47068191D01*
X138100000Y-46831809D01*
X138146115Y-46599974D01*
X138236573Y-46381588D01*
X138367901Y-46185042D01*
X138535042Y-46017901D01*
X138731588Y-45886573D01*
X138949974Y-45796115D01*
X139181809Y-45750000D01*
X139418191Y-45750000D01*
X139650026Y-45796115D01*
X139650026Y-45796115D01*
G37*
G36*
X120650026Y-45796115D02*
X120868412Y-45886573D01*
X121064958Y-46017901D01*
X121232099Y-46185042D01*
X121363427Y-46381588D01*
X121453885Y-46599974D01*
X121500000Y-46831809D01*
X121500000Y-47068191D01*
X121453885Y-47300026D01*
X121363427Y-47518412D01*
X121232099Y-47714958D01*
X121064958Y-47882099D01*
X120868412Y-48013427D01*
X120650026Y-48103885D01*
X120418191Y-48150000D01*
X120181809Y-48150000D01*
X119949974Y-48103885D01*
X119731588Y-48013427D01*
X119535042Y-47882099D01*
X119367901Y-47714958D01*
X119236573Y-47518412D01*
X119146115Y-47300026D01*
X119100000Y-47068191D01*
X119100000Y-46831809D01*
X119146115Y-46599974D01*
X119236573Y-46381588D01*
X119367901Y-46185042D01*
X119535042Y-46017901D01*
X119731588Y-45886573D01*
X119949974Y-45796115D01*
X120181809Y-45750000D01*
X120418191Y-45750000D01*
X120650026Y-45796115D01*
X120650026Y-45796115D01*
G37*
G36*
X73724000Y-47800000D02*
X72424000Y-47800000D01*
X72424000Y-46600000D01*
X73724000Y-46600000D01*
X73724000Y-47800000D01*
X73724000Y-47800000D01*
G37*
G36*
X27477500Y-47797500D02*
X25577500Y-47797500D01*
X25577500Y-45997500D01*
X27477500Y-45997500D01*
X27477500Y-47797500D01*
X27477500Y-47797500D01*
G37*
G36*
X75730000Y-47785000D02*
X74430000Y-47785000D01*
X74430000Y-46585000D01*
X75730000Y-46585000D01*
X75730000Y-47785000D01*
X75730000Y-47785000D01*
G37*
G36*
X106977500Y-47617500D02*
X104977500Y-47617500D01*
X104977500Y-45217500D01*
X106977500Y-45217500D01*
X106977500Y-47617500D01*
X106977500Y-47617500D01*
G37*
G36*
X71750000Y-46185000D02*
X70350000Y-46185000D01*
X70350000Y-44535000D01*
X71750000Y-44535000D01*
X71750000Y-46185000D01*
X71750000Y-46185000D01*
G37*
G36*
X73750000Y-46185000D02*
X72350000Y-46185000D01*
X72350000Y-44535000D01*
X73750000Y-44535000D01*
X73750000Y-46185000D01*
X73750000Y-46185000D01*
G37*
G36*
X75838000Y-46181000D02*
X74438000Y-46181000D01*
X74438000Y-44531000D01*
X75838000Y-44531000D01*
X75838000Y-46181000D01*
X75838000Y-46181000D01*
G37*
G36*
X77838000Y-46181000D02*
X76438000Y-46181000D01*
X76438000Y-44531000D01*
X77838000Y-44531000D01*
X77838000Y-46181000D01*
X77838000Y-46181000D01*
G37*
G36*
X91454183Y-44436900D02*
X91564269Y-44482500D01*
X91581574Y-44489668D01*
X91686333Y-44559665D01*
X91696225Y-44566275D01*
X91793725Y-44663775D01*
X91870332Y-44778426D01*
X91923100Y-44905817D01*
X91950000Y-45041055D01*
X91950000Y-45178945D01*
X91923100Y-45314183D01*
X91873373Y-45434232D01*
X91870332Y-45441574D01*
X91793726Y-45556224D01*
X91696224Y-45653726D01*
X91655583Y-45680881D01*
X91581574Y-45730332D01*
X91454183Y-45783100D01*
X91318945Y-45810000D01*
X91181055Y-45810000D01*
X91045817Y-45783100D01*
X90918426Y-45730332D01*
X90844417Y-45680881D01*
X90803776Y-45653726D01*
X90706274Y-45556224D01*
X90629668Y-45441574D01*
X90626627Y-45434232D01*
X90576900Y-45314183D01*
X90550000Y-45178945D01*
X90550000Y-45041055D01*
X90576900Y-44905817D01*
X90629668Y-44778426D01*
X90706275Y-44663775D01*
X90803775Y-44566275D01*
X90813668Y-44559665D01*
X90918426Y-44489668D01*
X90935731Y-44482500D01*
X91045817Y-44436900D01*
X91181055Y-44410000D01*
X91318945Y-44410000D01*
X91454183Y-44436900D01*
X91454183Y-44436900D01*
G37*
G36*
X97457500Y-45157500D02*
X96157500Y-45157500D01*
X96157500Y-43557500D01*
X97457500Y-43557500D01*
X97457500Y-45157500D01*
X97457500Y-45157500D01*
G37*
G36*
X88840000Y-42960000D02*
X88842402Y-42984386D01*
X88849515Y-43007835D01*
X88850000Y-43008742D01*
X88850000Y-44735000D01*
X87450000Y-44735000D01*
X87450000Y-43160000D01*
X87447598Y-43135614D01*
X87440485Y-43112165D01*
X87440000Y-43111258D01*
X87440000Y-41385000D01*
X88840000Y-41385000D01*
X88840000Y-42960000D01*
X88840000Y-42960000D01*
G37*
G36*
X86840000Y-42960000D02*
X86842402Y-42984386D01*
X86849515Y-43007835D01*
X86850000Y-43008742D01*
X86850000Y-44735000D01*
X85450000Y-44735000D01*
X85450000Y-43160000D01*
X85447598Y-43135614D01*
X85440485Y-43112165D01*
X85440000Y-43111258D01*
X85440000Y-41385000D01*
X86840000Y-41385000D01*
X86840000Y-42960000D01*
X86840000Y-42960000D01*
G37*
G36*
X113342500Y-44657500D02*
X109992500Y-44657500D01*
X109992500Y-43257500D01*
X113342500Y-43257500D01*
X113342500Y-44657500D01*
X113342500Y-44657500D01*
G37*
G36*
X109707500Y-44482500D02*
X107807500Y-44482500D01*
X107807500Y-41832500D01*
X109707500Y-41832500D01*
X109707500Y-44482500D01*
X109707500Y-44482500D01*
G37*
G36*
X84547500Y-44107500D02*
X79687500Y-44107500D01*
X79687500Y-42007500D01*
X84547500Y-42007500D01*
X84547500Y-44107500D01*
X84547500Y-44107500D01*
G37*
G36*
X91454183Y-42536900D02*
X91581574Y-42589668D01*
X91696224Y-42666274D01*
X91793726Y-42763776D01*
X91870332Y-42878426D01*
X91923100Y-43005817D01*
X91950000Y-43141055D01*
X91950000Y-43278945D01*
X91923100Y-43414183D01*
X91870332Y-43541574D01*
X91793725Y-43656225D01*
X91696225Y-43753725D01*
X91581574Y-43830332D01*
X91454183Y-43883100D01*
X91318945Y-43910000D01*
X91181055Y-43910000D01*
X91045817Y-43883100D01*
X90918426Y-43830332D01*
X90803775Y-43753725D01*
X90706275Y-43656225D01*
X90629668Y-43541574D01*
X90576900Y-43414183D01*
X90550000Y-43278945D01*
X90550000Y-43141055D01*
X90576900Y-43005817D01*
X90629668Y-42878426D01*
X90706274Y-42763776D01*
X90803776Y-42666274D01*
X90918426Y-42589668D01*
X91045817Y-42536900D01*
X91181055Y-42510000D01*
X91318945Y-42510000D01*
X91454183Y-42536900D01*
X91454183Y-42536900D01*
G37*
G36*
X67630770Y-40775372D02*
X67746689Y-40798429D01*
X67928678Y-40873811D01*
X68092463Y-40983249D01*
X68231751Y-41122537D01*
X68301074Y-41226285D01*
X68316612Y-41245219D01*
X68335554Y-41260764D01*
X68357165Y-41272315D01*
X68380614Y-41279428D01*
X68405000Y-41281830D01*
X68429387Y-41279428D01*
X68452836Y-41272315D01*
X68474446Y-41260764D01*
X68493389Y-41245218D01*
X68508926Y-41226285D01*
X68578249Y-41122537D01*
X68717537Y-40983249D01*
X68881322Y-40873811D01*
X69063311Y-40798429D01*
X69179230Y-40775372D01*
X69256507Y-40760000D01*
X69453493Y-40760000D01*
X69530770Y-40775372D01*
X69646689Y-40798429D01*
X69828678Y-40873811D01*
X69992463Y-40983249D01*
X70131751Y-41122537D01*
X70241189Y-41286322D01*
X70316571Y-41468311D01*
X70355000Y-41661509D01*
X70355000Y-41858491D01*
X70316571Y-42051689D01*
X70241189Y-42233678D01*
X70131751Y-42397463D01*
X69992463Y-42536751D01*
X69828678Y-42646189D01*
X69646689Y-42721571D01*
X69530770Y-42744628D01*
X69453493Y-42760000D01*
X69256507Y-42760000D01*
X69179230Y-42744628D01*
X69063311Y-42721571D01*
X68881322Y-42646189D01*
X68717537Y-42536751D01*
X68578249Y-42397463D01*
X68508926Y-42293715D01*
X68493388Y-42274781D01*
X68474446Y-42259236D01*
X68452835Y-42247685D01*
X68429386Y-42240572D01*
X68405000Y-42238170D01*
X68380613Y-42240572D01*
X68357164Y-42247685D01*
X68335554Y-42259236D01*
X68316611Y-42274782D01*
X68301074Y-42293715D01*
X68231751Y-42397463D01*
X68092463Y-42536751D01*
X67928678Y-42646189D01*
X67746689Y-42721571D01*
X67630770Y-42744628D01*
X67553493Y-42760000D01*
X67356507Y-42760000D01*
X67279230Y-42744628D01*
X67163311Y-42721571D01*
X66981322Y-42646189D01*
X66817537Y-42536751D01*
X66678249Y-42397463D01*
X66622592Y-42314166D01*
X66607058Y-42295238D01*
X66588116Y-42279693D01*
X66566505Y-42268141D01*
X66543056Y-42261028D01*
X66518669Y-42258626D01*
X66494283Y-42261028D01*
X66470834Y-42268141D01*
X66449223Y-42279692D01*
X66430281Y-42295237D01*
X66408429Y-42324701D01*
X66390492Y-42358259D01*
X66265528Y-42510528D01*
X66113260Y-42635491D01*
X66072084Y-42657500D01*
X65939535Y-42728349D01*
X65751034Y-42785530D01*
X65751033Y-42785530D01*
X65751030Y-42785531D01*
X65604124Y-42800000D01*
X65505876Y-42800000D01*
X65358970Y-42785531D01*
X65358967Y-42785530D01*
X65358966Y-42785530D01*
X65170465Y-42728349D01*
X65037916Y-42657500D01*
X64996740Y-42635491D01*
X64844472Y-42510528D01*
X64719507Y-42358257D01*
X64715239Y-42350273D01*
X64701625Y-42329899D01*
X64684298Y-42312572D01*
X64663923Y-42298958D01*
X64641284Y-42289581D01*
X64617251Y-42284801D01*
X64592746Y-42284801D01*
X64568713Y-42289582D01*
X64546074Y-42298960D01*
X64525700Y-42312574D01*
X64508373Y-42329901D01*
X64494761Y-42350273D01*
X64490493Y-42358257D01*
X64365528Y-42510528D01*
X64213260Y-42635491D01*
X64172084Y-42657500D01*
X64039535Y-42728349D01*
X63851034Y-42785530D01*
X63851033Y-42785530D01*
X63851030Y-42785531D01*
X63704124Y-42800000D01*
X63605876Y-42800000D01*
X63458970Y-42785531D01*
X63458967Y-42785530D01*
X63458966Y-42785530D01*
X63270465Y-42728349D01*
X63137916Y-42657500D01*
X63096740Y-42635491D01*
X62944472Y-42510528D01*
X62819507Y-42358257D01*
X62815239Y-42350273D01*
X62801625Y-42329899D01*
X62784298Y-42312572D01*
X62763923Y-42298958D01*
X62741284Y-42289581D01*
X62717251Y-42284801D01*
X62692746Y-42284801D01*
X62668713Y-42289582D01*
X62646074Y-42298960D01*
X62625700Y-42312574D01*
X62608373Y-42329901D01*
X62594761Y-42350273D01*
X62590493Y-42358257D01*
X62465528Y-42510528D01*
X62313260Y-42635491D01*
X62272084Y-42657500D01*
X62139535Y-42728349D01*
X61951034Y-42785530D01*
X61951033Y-42785530D01*
X61951030Y-42785531D01*
X61804124Y-42800000D01*
X61705876Y-42800000D01*
X61558970Y-42785531D01*
X61558967Y-42785530D01*
X61558966Y-42785530D01*
X61370465Y-42728349D01*
X61237916Y-42657500D01*
X61196740Y-42635491D01*
X61044472Y-42510528D01*
X60919507Y-42358257D01*
X60915239Y-42350273D01*
X60901625Y-42329899D01*
X60884298Y-42312572D01*
X60863923Y-42298958D01*
X60841284Y-42289581D01*
X60817251Y-42284801D01*
X60792746Y-42284801D01*
X60768713Y-42289582D01*
X60746074Y-42298960D01*
X60725700Y-42312574D01*
X60708373Y-42329901D01*
X60694761Y-42350273D01*
X60690493Y-42358257D01*
X60565528Y-42510528D01*
X60413260Y-42635491D01*
X60372084Y-42657500D01*
X60239535Y-42728349D01*
X60051034Y-42785530D01*
X60051033Y-42785530D01*
X60051030Y-42785531D01*
X59904124Y-42800000D01*
X59805876Y-42800000D01*
X59658970Y-42785531D01*
X59658967Y-42785530D01*
X59658966Y-42785530D01*
X59470465Y-42728349D01*
X59337916Y-42657500D01*
X59296740Y-42635491D01*
X59144472Y-42510528D01*
X59019509Y-42358260D01*
X58926652Y-42184537D01*
X58894330Y-42077985D01*
X58869470Y-41996034D01*
X58869470Y-41996033D01*
X58869469Y-41996030D01*
X58850162Y-41800000D01*
X58869469Y-41603970D01*
X58880323Y-41568190D01*
X58926651Y-41415465D01*
X58980244Y-41315199D01*
X59019509Y-41241740D01*
X59144472Y-41089472D01*
X59296740Y-40964509D01*
X59470463Y-40871652D01*
X59470465Y-40871651D01*
X59658966Y-40814470D01*
X59658967Y-40814470D01*
X59658970Y-40814469D01*
X59805876Y-40800000D01*
X59904124Y-40800000D01*
X60051030Y-40814469D01*
X60051033Y-40814470D01*
X60051034Y-40814470D01*
X60239535Y-40871651D01*
X60239537Y-40871652D01*
X60413260Y-40964509D01*
X60565528Y-41089472D01*
X60690493Y-41241743D01*
X60694761Y-41249727D01*
X60708375Y-41270101D01*
X60725702Y-41287428D01*
X60746077Y-41301042D01*
X60768716Y-41310419D01*
X60792749Y-41315199D01*
X60817254Y-41315199D01*
X60841287Y-41310418D01*
X60863926Y-41301040D01*
X60884300Y-41287426D01*
X60901627Y-41270099D01*
X60915239Y-41249727D01*
X60919507Y-41241743D01*
X61044472Y-41089472D01*
X61196740Y-40964509D01*
X61370463Y-40871652D01*
X61370465Y-40871651D01*
X61558966Y-40814470D01*
X61558967Y-40814470D01*
X61558970Y-40814469D01*
X61705876Y-40800000D01*
X61804124Y-40800000D01*
X61951030Y-40814469D01*
X61951033Y-40814470D01*
X61951034Y-40814470D01*
X62139535Y-40871651D01*
X62139537Y-40871652D01*
X62313260Y-40964509D01*
X62465528Y-41089472D01*
X62590493Y-41241743D01*
X62594761Y-41249727D01*
X62608375Y-41270101D01*
X62625702Y-41287428D01*
X62646077Y-41301042D01*
X62668716Y-41310419D01*
X62692749Y-41315199D01*
X62717254Y-41315199D01*
X62741287Y-41310418D01*
X62763926Y-41301040D01*
X62784300Y-41287426D01*
X62801627Y-41270099D01*
X62815239Y-41249727D01*
X62819507Y-41241743D01*
X62944472Y-41089472D01*
X63096740Y-40964509D01*
X63270463Y-40871652D01*
X63270465Y-40871651D01*
X63458966Y-40814470D01*
X63458967Y-40814470D01*
X63458970Y-40814469D01*
X63605876Y-40800000D01*
X63704124Y-40800000D01*
X63851030Y-40814469D01*
X63851033Y-40814470D01*
X63851034Y-40814470D01*
X64039535Y-40871651D01*
X64039537Y-40871652D01*
X64213260Y-40964509D01*
X64365528Y-41089472D01*
X64490493Y-41241743D01*
X64494761Y-41249727D01*
X64508375Y-41270101D01*
X64525702Y-41287428D01*
X64546077Y-41301042D01*
X64568716Y-41310419D01*
X64592749Y-41315199D01*
X64617254Y-41315199D01*
X64641287Y-41310418D01*
X64663926Y-41301040D01*
X64684300Y-41287426D01*
X64701627Y-41270099D01*
X64715239Y-41249727D01*
X64719507Y-41241743D01*
X64844472Y-41089472D01*
X64996740Y-40964509D01*
X65170463Y-40871652D01*
X65170465Y-40871651D01*
X65358966Y-40814470D01*
X65358967Y-40814470D01*
X65358970Y-40814469D01*
X65505876Y-40800000D01*
X65604124Y-40800000D01*
X65751030Y-40814469D01*
X65751033Y-40814470D01*
X65751034Y-40814470D01*
X65939535Y-40871651D01*
X65939537Y-40871652D01*
X66113260Y-40964509D01*
X66265528Y-41089472D01*
X66398282Y-41251233D01*
X66415609Y-41268560D01*
X66435983Y-41282174D01*
X66458622Y-41291552D01*
X66482656Y-41296332D01*
X66507160Y-41296332D01*
X66531193Y-41291552D01*
X66553833Y-41282174D01*
X66574207Y-41268560D01*
X66598836Y-41241387D01*
X66678249Y-41122537D01*
X66817537Y-40983249D01*
X66981322Y-40873811D01*
X67163311Y-40798429D01*
X67279230Y-40775372D01*
X67356507Y-40760000D01*
X67553493Y-40760000D01*
X67630770Y-40775372D01*
X67630770Y-40775372D01*
G37*
G36*
X110730857Y-39126272D02*
X110931042Y-39209191D01*
X110931045Y-39209193D01*
X111093738Y-39317901D01*
X111111213Y-39329578D01*
X111264422Y-39482787D01*
X111264424Y-39482790D01*
X111264425Y-39482791D01*
X111297373Y-39532101D01*
X111384809Y-39662958D01*
X111467728Y-39863143D01*
X111510000Y-40075658D01*
X111510000Y-40292342D01*
X111467728Y-40504857D01*
X111384809Y-40705042D01*
X111384807Y-40705045D01*
X111273484Y-40871652D01*
X111264422Y-40885213D01*
X111105523Y-41044112D01*
X111089977Y-41063054D01*
X111078426Y-41084665D01*
X111071313Y-41108114D01*
X111068911Y-41132500D01*
X111071313Y-41156886D01*
X111078426Y-41180335D01*
X111089977Y-41201946D01*
X111105523Y-41220888D01*
X111124465Y-41236434D01*
X111146076Y-41247985D01*
X111169525Y-41255098D01*
X111193911Y-41257500D01*
X113342500Y-41257500D01*
X113342500Y-42657500D01*
X109992500Y-42657500D01*
X109992500Y-41285220D01*
X109990098Y-41260834D01*
X109982985Y-41237385D01*
X109971434Y-41215774D01*
X109955888Y-41196832D01*
X109936946Y-41181286D01*
X109915336Y-41169735D01*
X109888957Y-41158808D01*
X109888956Y-41158808D01*
X109888955Y-41158807D01*
X109708791Y-41038425D01*
X109708790Y-41038424D01*
X109708787Y-41038422D01*
X109555578Y-40885213D01*
X109546517Y-40871652D01*
X109435193Y-40705045D01*
X109435191Y-40705042D01*
X109352272Y-40504857D01*
X109310000Y-40292342D01*
X109310000Y-40075658D01*
X109352272Y-39863143D01*
X109435191Y-39662958D01*
X109522627Y-39532101D01*
X109555575Y-39482791D01*
X109555576Y-39482790D01*
X109555578Y-39482787D01*
X109708787Y-39329578D01*
X109726263Y-39317901D01*
X109888955Y-39209193D01*
X109888958Y-39209191D01*
X110089143Y-39126272D01*
X110301658Y-39084000D01*
X110518342Y-39084000D01*
X110730857Y-39126272D01*
X110730857Y-39126272D01*
G37*
G36*
X29150026Y-40296115D02*
X29368412Y-40386573D01*
X29564958Y-40517901D01*
X29732099Y-40685042D01*
X29863427Y-40881588D01*
X29953885Y-41099974D01*
X30000000Y-41331809D01*
X30000000Y-41568191D01*
X29953885Y-41800026D01*
X29863427Y-42018412D01*
X29732099Y-42214958D01*
X29564958Y-42382099D01*
X29368412Y-42513427D01*
X29150026Y-42603885D01*
X28918191Y-42650000D01*
X28681809Y-42650000D01*
X28449974Y-42603885D01*
X28231588Y-42513427D01*
X28035042Y-42382099D01*
X27867901Y-42214958D01*
X27736573Y-42018412D01*
X27646115Y-41800026D01*
X27600000Y-41568191D01*
X27600000Y-41331809D01*
X27646115Y-41099974D01*
X27736573Y-40881588D01*
X27867901Y-40685042D01*
X28035042Y-40517901D01*
X28231588Y-40386573D01*
X28449974Y-40296115D01*
X28681809Y-40250000D01*
X28918191Y-40250000D01*
X29150026Y-40296115D01*
X29150026Y-40296115D01*
G37*
G36*
X123425026Y-39121115D02*
X123643412Y-39211573D01*
X123839958Y-39342901D01*
X124007099Y-39510042D01*
X124138427Y-39706588D01*
X124228885Y-39924974D01*
X124275000Y-40156809D01*
X124275000Y-40393191D01*
X124228885Y-40625026D01*
X124138427Y-40843412D01*
X124007099Y-41039958D01*
X123839958Y-41207099D01*
X123643412Y-41338427D01*
X123425026Y-41428885D01*
X123193191Y-41475000D01*
X122956809Y-41475000D01*
X122724974Y-41428885D01*
X122506588Y-41338427D01*
X122310042Y-41207099D01*
X122142901Y-41039958D01*
X122011573Y-40843412D01*
X121921115Y-40625026D01*
X121875000Y-40393191D01*
X121875000Y-40156809D01*
X121921115Y-39924974D01*
X122011573Y-39706588D01*
X122142901Y-39510042D01*
X122310042Y-39342901D01*
X122506588Y-39211573D01*
X122724974Y-39121115D01*
X122956809Y-39075000D01*
X123193191Y-39075000D01*
X123425026Y-39121115D01*
X123425026Y-39121115D01*
G37*
G36*
X136850026Y-39096115D02*
X137068412Y-39186573D01*
X137264958Y-39317901D01*
X137432099Y-39485042D01*
X137563427Y-39681588D01*
X137653885Y-39899974D01*
X137700000Y-40131809D01*
X137700000Y-40368191D01*
X137653885Y-40600026D01*
X137563427Y-40818412D01*
X137432099Y-41014958D01*
X137264958Y-41182099D01*
X137068412Y-41313427D01*
X136850026Y-41403885D01*
X136618191Y-41450000D01*
X136381809Y-41450000D01*
X136149974Y-41403885D01*
X135931588Y-41313427D01*
X135735042Y-41182099D01*
X135567901Y-41014958D01*
X135436573Y-40818412D01*
X135346115Y-40600026D01*
X135300000Y-40368191D01*
X135300000Y-40131809D01*
X135346115Y-39899974D01*
X135436573Y-39681588D01*
X135567901Y-39485042D01*
X135735042Y-39317901D01*
X135931588Y-39186573D01*
X136149974Y-39096115D01*
X136381809Y-39050000D01*
X136618191Y-39050000D01*
X136850026Y-39096115D01*
X136850026Y-39096115D01*
G37*
G36*
X108190857Y-39126272D02*
X108391042Y-39209191D01*
X108391045Y-39209193D01*
X108553738Y-39317901D01*
X108571213Y-39329578D01*
X108724422Y-39482787D01*
X108724424Y-39482790D01*
X108724425Y-39482791D01*
X108757373Y-39532101D01*
X108844809Y-39662958D01*
X108927728Y-39863143D01*
X108970000Y-40075658D01*
X108970000Y-40292342D01*
X108927728Y-40504857D01*
X108844809Y-40705042D01*
X108844807Y-40705045D01*
X108733484Y-40871652D01*
X108724422Y-40885213D01*
X108571213Y-41038422D01*
X108571210Y-41038424D01*
X108571209Y-41038425D01*
X108467831Y-41107500D01*
X108391042Y-41158809D01*
X108190857Y-41241728D01*
X107978342Y-41284000D01*
X107761658Y-41284000D01*
X107549143Y-41241728D01*
X107348958Y-41158809D01*
X107272169Y-41107500D01*
X107168791Y-41038425D01*
X107168790Y-41038424D01*
X107168787Y-41038422D01*
X107015578Y-40885213D01*
X107006517Y-40871652D01*
X106895193Y-40705045D01*
X106895191Y-40705042D01*
X106812272Y-40504857D01*
X106770000Y-40292342D01*
X106770000Y-40075658D01*
X106812272Y-39863143D01*
X106895191Y-39662958D01*
X106982627Y-39532101D01*
X107015575Y-39482791D01*
X107015576Y-39482790D01*
X107015578Y-39482787D01*
X107168787Y-39329578D01*
X107186263Y-39317901D01*
X107348955Y-39209193D01*
X107348958Y-39209191D01*
X107549143Y-39126272D01*
X107761658Y-39084000D01*
X107978342Y-39084000D01*
X108190857Y-39126272D01*
X108190857Y-39126272D01*
G37*
G36*
X105650857Y-39126272D02*
X105851042Y-39209191D01*
X105851045Y-39209193D01*
X106013738Y-39317901D01*
X106031213Y-39329578D01*
X106184422Y-39482787D01*
X106184424Y-39482790D01*
X106184425Y-39482791D01*
X106217373Y-39532101D01*
X106304809Y-39662958D01*
X106387728Y-39863143D01*
X106430000Y-40075658D01*
X106430000Y-40292342D01*
X106387728Y-40504857D01*
X106304809Y-40705042D01*
X106304807Y-40705045D01*
X106193484Y-40871652D01*
X106184422Y-40885213D01*
X106031213Y-41038422D01*
X106031210Y-41038424D01*
X106031209Y-41038425D01*
X105927831Y-41107500D01*
X105851042Y-41158809D01*
X105650857Y-41241728D01*
X105438342Y-41284000D01*
X105221658Y-41284000D01*
X105009143Y-41241728D01*
X104808958Y-41158809D01*
X104732169Y-41107500D01*
X104628791Y-41038425D01*
X104628790Y-41038424D01*
X104628787Y-41038422D01*
X104475578Y-40885213D01*
X104466517Y-40871652D01*
X104355193Y-40705045D01*
X104355191Y-40705042D01*
X104272272Y-40504857D01*
X104230000Y-40292342D01*
X104230000Y-40075658D01*
X104272272Y-39863143D01*
X104355191Y-39662958D01*
X104442627Y-39532101D01*
X104475575Y-39482791D01*
X104475576Y-39482790D01*
X104475578Y-39482787D01*
X104628787Y-39329578D01*
X104646263Y-39317901D01*
X104808955Y-39209193D01*
X104808958Y-39209191D01*
X105009143Y-39126272D01*
X105221658Y-39084000D01*
X105438342Y-39084000D01*
X105650857Y-39126272D01*
X105650857Y-39126272D01*
G37*
G36*
X44817500Y-41107500D02*
X40417500Y-41107500D01*
X40417500Y-38497500D01*
X44817500Y-38497500D01*
X44817500Y-41107500D01*
X44817500Y-41107500D01*
G37*
G36*
X118017500Y-40217500D02*
X113617500Y-40217500D01*
X113617500Y-37607500D01*
X118017500Y-37607500D01*
X118017500Y-40217500D01*
X118017500Y-40217500D01*
G37*
G36*
X35875026Y-37471115D02*
X36093412Y-37561573D01*
X36289958Y-37692901D01*
X36457099Y-37860042D01*
X36588427Y-38056588D01*
X36678885Y-38274974D01*
X36725000Y-38506809D01*
X36725000Y-38743191D01*
X36678885Y-38975026D01*
X36588427Y-39193412D01*
X36457099Y-39389958D01*
X36289958Y-39557099D01*
X36093412Y-39688427D01*
X35875026Y-39778885D01*
X35643191Y-39825000D01*
X35406809Y-39825000D01*
X35174974Y-39778885D01*
X34956588Y-39688427D01*
X34760042Y-39557099D01*
X34592901Y-39389958D01*
X34461573Y-39193412D01*
X34371115Y-38975026D01*
X34325000Y-38743191D01*
X34325000Y-38506809D01*
X34371115Y-38274974D01*
X34461573Y-38056588D01*
X34592901Y-37860042D01*
X34760042Y-37692901D01*
X34956588Y-37561573D01*
X35174974Y-37471115D01*
X35406809Y-37425000D01*
X35643191Y-37425000D01*
X35875026Y-37471115D01*
X35875026Y-37471115D01*
G37*
G36*
X22350026Y-37446115D02*
X22568412Y-37536573D01*
X22764958Y-37667901D01*
X22932099Y-37835042D01*
X23063427Y-38031588D01*
X23153885Y-38249974D01*
X23200000Y-38481809D01*
X23200000Y-38718191D01*
X23153885Y-38950026D01*
X23063427Y-39168412D01*
X22932099Y-39364958D01*
X22764958Y-39532099D01*
X22568412Y-39663427D01*
X22350026Y-39753885D01*
X22118191Y-39800000D01*
X21881809Y-39800000D01*
X21649974Y-39753885D01*
X21431588Y-39663427D01*
X21235042Y-39532099D01*
X21067901Y-39364958D01*
X20936573Y-39168412D01*
X20846115Y-38950026D01*
X20800000Y-38718191D01*
X20800000Y-38481809D01*
X20846115Y-38249974D01*
X20936573Y-38031588D01*
X21067901Y-37835042D01*
X21235042Y-37667901D01*
X21431588Y-37536573D01*
X21649974Y-37446115D01*
X21881809Y-37400000D01*
X22118191Y-37400000D01*
X22350026Y-37446115D01*
X22350026Y-37446115D01*
G37*
G36*
X53425857Y-37473272D02*
X53626042Y-37556191D01*
X53626043Y-37556192D01*
X53626045Y-37556193D01*
X53797698Y-37670888D01*
X53806213Y-37676578D01*
X53959422Y-37829787D01*
X53959424Y-37829790D01*
X53959425Y-37829791D01*
X54043087Y-37955000D01*
X54079809Y-38009958D01*
X54162728Y-38210143D01*
X54205000Y-38422658D01*
X54205000Y-38639342D01*
X54162728Y-38851857D01*
X54079809Y-39052042D01*
X54079807Y-39052045D01*
X53973214Y-39211573D01*
X53959422Y-39232213D01*
X53806213Y-39385422D01*
X53806210Y-39385424D01*
X53806209Y-39385425D01*
X53660497Y-39482787D01*
X53626042Y-39505809D01*
X53425857Y-39588728D01*
X53213342Y-39631000D01*
X52996658Y-39631000D01*
X52784143Y-39588728D01*
X52583958Y-39505809D01*
X52549503Y-39482787D01*
X52403791Y-39385425D01*
X52403790Y-39385424D01*
X52403787Y-39385422D01*
X52250578Y-39232213D01*
X52236787Y-39211573D01*
X52130193Y-39052045D01*
X52130191Y-39052042D01*
X52047272Y-38851857D01*
X52005000Y-38639342D01*
X52005000Y-38422658D01*
X52047272Y-38210143D01*
X52130191Y-38009958D01*
X52166913Y-37955000D01*
X52250575Y-37829791D01*
X52250576Y-37829790D01*
X52250578Y-37829787D01*
X52403787Y-37676578D01*
X52412303Y-37670888D01*
X52583955Y-37556193D01*
X52583957Y-37556192D01*
X52583958Y-37556191D01*
X52784143Y-37473272D01*
X52996658Y-37431000D01*
X53213342Y-37431000D01*
X53425857Y-37473272D01*
X53425857Y-37473272D01*
G37*
G36*
X48442500Y-37429780D02*
X48444902Y-37454166D01*
X48452015Y-37477615D01*
X48463566Y-37499226D01*
X48479112Y-37518168D01*
X48498054Y-37533714D01*
X48519664Y-37545265D01*
X48546043Y-37556192D01*
X48546045Y-37556193D01*
X48726209Y-37676575D01*
X48726213Y-37676578D01*
X48879422Y-37829787D01*
X48879424Y-37829790D01*
X48879425Y-37829791D01*
X48963087Y-37955000D01*
X48999809Y-38009958D01*
X49082728Y-38210143D01*
X49125000Y-38422658D01*
X49125000Y-38639342D01*
X49082728Y-38851857D01*
X48999809Y-39052042D01*
X48999807Y-39052045D01*
X48893214Y-39211573D01*
X48879422Y-39232213D01*
X48726213Y-39385422D01*
X48726210Y-39385424D01*
X48726209Y-39385425D01*
X48580497Y-39482787D01*
X48546042Y-39505809D01*
X48345857Y-39588728D01*
X48133342Y-39631000D01*
X47916658Y-39631000D01*
X47704143Y-39588728D01*
X47503958Y-39505809D01*
X47469503Y-39482787D01*
X47323791Y-39385425D01*
X47323790Y-39385424D01*
X47323787Y-39385422D01*
X47170578Y-39232213D01*
X47156787Y-39211573D01*
X47050193Y-39052045D01*
X47050191Y-39052042D01*
X46967272Y-38851857D01*
X46925000Y-38639342D01*
X46925000Y-38422658D01*
X46967272Y-38210143D01*
X47050191Y-38009958D01*
X47086913Y-37955000D01*
X47170575Y-37829791D01*
X47170576Y-37829790D01*
X47170578Y-37829787D01*
X47329477Y-37670888D01*
X47345023Y-37651946D01*
X47356574Y-37630335D01*
X47363687Y-37606886D01*
X47366089Y-37582500D01*
X47363687Y-37558114D01*
X47356574Y-37534665D01*
X47345023Y-37513054D01*
X47329477Y-37494112D01*
X47310535Y-37478566D01*
X47288924Y-37467015D01*
X47265475Y-37459902D01*
X47241089Y-37457500D01*
X45092500Y-37457500D01*
X45092500Y-36057500D01*
X48442500Y-36057500D01*
X48442500Y-37429780D01*
X48442500Y-37429780D01*
G37*
G36*
X50885857Y-37473272D02*
X51086042Y-37556191D01*
X51086043Y-37556192D01*
X51086045Y-37556193D01*
X51257698Y-37670888D01*
X51266213Y-37676578D01*
X51419422Y-37829787D01*
X51419424Y-37829790D01*
X51419425Y-37829791D01*
X51503087Y-37955000D01*
X51539809Y-38009958D01*
X51622728Y-38210143D01*
X51665000Y-38422658D01*
X51665000Y-38639342D01*
X51622728Y-38851857D01*
X51539809Y-39052042D01*
X51539807Y-39052045D01*
X51433214Y-39211573D01*
X51419422Y-39232213D01*
X51266213Y-39385422D01*
X51266210Y-39385424D01*
X51266209Y-39385425D01*
X51120497Y-39482787D01*
X51086042Y-39505809D01*
X50885857Y-39588728D01*
X50673342Y-39631000D01*
X50456658Y-39631000D01*
X50244143Y-39588728D01*
X50043958Y-39505809D01*
X50009503Y-39482787D01*
X49863791Y-39385425D01*
X49863790Y-39385424D01*
X49863787Y-39385422D01*
X49710578Y-39232213D01*
X49696787Y-39211573D01*
X49590193Y-39052045D01*
X49590191Y-39052042D01*
X49507272Y-38851857D01*
X49465000Y-38639342D01*
X49465000Y-38422658D01*
X49507272Y-38210143D01*
X49590191Y-38009958D01*
X49626913Y-37955000D01*
X49710575Y-37829791D01*
X49710576Y-37829790D01*
X49710578Y-37829787D01*
X49863787Y-37676578D01*
X49872303Y-37670888D01*
X50043955Y-37556193D01*
X50043957Y-37556192D01*
X50043958Y-37556191D01*
X50244143Y-37473272D01*
X50456658Y-37431000D01*
X50673342Y-37431000D01*
X50885857Y-37473272D01*
X50885857Y-37473272D01*
G37*
G36*
X130150026Y-36296115D02*
X130368412Y-36386573D01*
X130564958Y-36517901D01*
X130732099Y-36685042D01*
X130863427Y-36881588D01*
X130953885Y-37099974D01*
X131000000Y-37331809D01*
X131000000Y-37568191D01*
X130953885Y-37800026D01*
X130863427Y-38018412D01*
X130732099Y-38214958D01*
X130564958Y-38382099D01*
X130368412Y-38513427D01*
X130150026Y-38603885D01*
X129918191Y-38650000D01*
X129681809Y-38650000D01*
X129449974Y-38603885D01*
X129231588Y-38513427D01*
X129035042Y-38382099D01*
X128867901Y-38214958D01*
X128736573Y-38018412D01*
X128646115Y-37800026D01*
X128600000Y-37568191D01*
X128600000Y-37331809D01*
X128646115Y-37099974D01*
X128736573Y-36881588D01*
X128867901Y-36685042D01*
X129035042Y-36517901D01*
X129231588Y-36386573D01*
X129449974Y-36296115D01*
X129681809Y-36250000D01*
X129918191Y-36250000D01*
X130150026Y-36296115D01*
X130150026Y-36296115D01*
G37*
G36*
X93076030Y-35929469D02*
X93076033Y-35929470D01*
X93076034Y-35929470D01*
X93264535Y-35986651D01*
X93264537Y-35986652D01*
X93438260Y-36079509D01*
X93590528Y-36204472D01*
X93715493Y-36356743D01*
X93719761Y-36364727D01*
X93733375Y-36385101D01*
X93750702Y-36402428D01*
X93771077Y-36416042D01*
X93793716Y-36425419D01*
X93817749Y-36430199D01*
X93842254Y-36430199D01*
X93866287Y-36425418D01*
X93888926Y-36416040D01*
X93909300Y-36402426D01*
X93926627Y-36385099D01*
X93940239Y-36364727D01*
X93944507Y-36356743D01*
X94069472Y-36204472D01*
X94221740Y-36079509D01*
X94395463Y-35986652D01*
X94395465Y-35986651D01*
X94583966Y-35929470D01*
X94583967Y-35929470D01*
X94583970Y-35929469D01*
X94730876Y-35915000D01*
X94829124Y-35915000D01*
X94976030Y-35929469D01*
X94976033Y-35929470D01*
X94976034Y-35929470D01*
X95164535Y-35986651D01*
X95164537Y-35986652D01*
X95338260Y-36079509D01*
X95490528Y-36204472D01*
X95615493Y-36356743D01*
X95619761Y-36364727D01*
X95633375Y-36385101D01*
X95650702Y-36402428D01*
X95671077Y-36416042D01*
X95693716Y-36425419D01*
X95717749Y-36430199D01*
X95742254Y-36430199D01*
X95766287Y-36425418D01*
X95788926Y-36416040D01*
X95809300Y-36402426D01*
X95826627Y-36385099D01*
X95840239Y-36364727D01*
X95844507Y-36356743D01*
X95969472Y-36204472D01*
X96121740Y-36079509D01*
X96295463Y-35986652D01*
X96295465Y-35986651D01*
X96483966Y-35929470D01*
X96483967Y-35929470D01*
X96483970Y-35929469D01*
X96630876Y-35915000D01*
X96729124Y-35915000D01*
X96876030Y-35929469D01*
X96876033Y-35929470D01*
X96876034Y-35929470D01*
X97064535Y-35986651D01*
X97064537Y-35986652D01*
X97238260Y-36079509D01*
X97390528Y-36204472D01*
X97515493Y-36356743D01*
X97519761Y-36364727D01*
X97533375Y-36385101D01*
X97550702Y-36402428D01*
X97571077Y-36416042D01*
X97593716Y-36425419D01*
X97617749Y-36430199D01*
X97642254Y-36430199D01*
X97666287Y-36425418D01*
X97688926Y-36416040D01*
X97709300Y-36402426D01*
X97726627Y-36385099D01*
X97740239Y-36364727D01*
X97744507Y-36356743D01*
X97869472Y-36204472D01*
X98021740Y-36079509D01*
X98195463Y-35986652D01*
X98195465Y-35986651D01*
X98383966Y-35929470D01*
X98383967Y-35929470D01*
X98383970Y-35929469D01*
X98530876Y-35915000D01*
X98629124Y-35915000D01*
X98776030Y-35929469D01*
X98776033Y-35929470D01*
X98776034Y-35929470D01*
X98964535Y-35986651D01*
X98964537Y-35986652D01*
X99138260Y-36079509D01*
X99290528Y-36204472D01*
X99415491Y-36356740D01*
X99482083Y-36481325D01*
X99508349Y-36530465D01*
X99544174Y-36648566D01*
X99565531Y-36718970D01*
X99584838Y-36915000D01*
X99565531Y-37111030D01*
X99565530Y-37111033D01*
X99565530Y-37111034D01*
X99524380Y-37246689D01*
X99508348Y-37299537D01*
X99415491Y-37473260D01*
X99290528Y-37625528D01*
X99138260Y-37750491D01*
X99138258Y-37750492D01*
X98964535Y-37843349D01*
X98776034Y-37900530D01*
X98776033Y-37900530D01*
X98776030Y-37900531D01*
X98629124Y-37915000D01*
X98530876Y-37915000D01*
X98383970Y-37900531D01*
X98383967Y-37900530D01*
X98383966Y-37900530D01*
X98195465Y-37843349D01*
X98021742Y-37750492D01*
X98021740Y-37750491D01*
X97869472Y-37625528D01*
X97744507Y-37473257D01*
X97740239Y-37465273D01*
X97726625Y-37444899D01*
X97709298Y-37427572D01*
X97688923Y-37413958D01*
X97666284Y-37404581D01*
X97642251Y-37399801D01*
X97617746Y-37399801D01*
X97593713Y-37404582D01*
X97571074Y-37413960D01*
X97550700Y-37427574D01*
X97533373Y-37444901D01*
X97519761Y-37465273D01*
X97515493Y-37473257D01*
X97390528Y-37625528D01*
X97238260Y-37750491D01*
X97238258Y-37750492D01*
X97064535Y-37843349D01*
X96876034Y-37900530D01*
X96876033Y-37900530D01*
X96876030Y-37900531D01*
X96729124Y-37915000D01*
X96630876Y-37915000D01*
X96483970Y-37900531D01*
X96483967Y-37900530D01*
X96483966Y-37900530D01*
X96295465Y-37843349D01*
X96121742Y-37750492D01*
X96121740Y-37750491D01*
X95969472Y-37625528D01*
X95844507Y-37473257D01*
X95840239Y-37465273D01*
X95826625Y-37444899D01*
X95809298Y-37427572D01*
X95788923Y-37413958D01*
X95766284Y-37404581D01*
X95742251Y-37399801D01*
X95717746Y-37399801D01*
X95693713Y-37404582D01*
X95671074Y-37413960D01*
X95650700Y-37427574D01*
X95633373Y-37444901D01*
X95619761Y-37465273D01*
X95615493Y-37473257D01*
X95490528Y-37625528D01*
X95338260Y-37750491D01*
X95338258Y-37750492D01*
X95164535Y-37843349D01*
X94976034Y-37900530D01*
X94976033Y-37900530D01*
X94976030Y-37900531D01*
X94829124Y-37915000D01*
X94730876Y-37915000D01*
X94583970Y-37900531D01*
X94583967Y-37900530D01*
X94583966Y-37900530D01*
X94395465Y-37843349D01*
X94221742Y-37750492D01*
X94221740Y-37750491D01*
X94069472Y-37625528D01*
X93944507Y-37473257D01*
X93940239Y-37465273D01*
X93926625Y-37444899D01*
X93909298Y-37427572D01*
X93888923Y-37413958D01*
X93866284Y-37404581D01*
X93842251Y-37399801D01*
X93817746Y-37399801D01*
X93793713Y-37404582D01*
X93771074Y-37413960D01*
X93750700Y-37427574D01*
X93733373Y-37444901D01*
X93719761Y-37465273D01*
X93715493Y-37473257D01*
X93590528Y-37625528D01*
X93438260Y-37750491D01*
X93438258Y-37750492D01*
X93264535Y-37843349D01*
X93076034Y-37900530D01*
X93076033Y-37900530D01*
X93076030Y-37900531D01*
X92929124Y-37915000D01*
X92830876Y-37915000D01*
X92683970Y-37900531D01*
X92683967Y-37900530D01*
X92683966Y-37900530D01*
X92495465Y-37843349D01*
X92321742Y-37750492D01*
X92321740Y-37750491D01*
X92169472Y-37625528D01*
X92036718Y-37463767D01*
X92019391Y-37446440D01*
X91999017Y-37432826D01*
X91976378Y-37423448D01*
X91952344Y-37418668D01*
X91927840Y-37418668D01*
X91903807Y-37423448D01*
X91881167Y-37432826D01*
X91860793Y-37446440D01*
X91836164Y-37473613D01*
X91756751Y-37592463D01*
X91617463Y-37731751D01*
X91453678Y-37841189D01*
X91271689Y-37916571D01*
X91155770Y-37939628D01*
X91078493Y-37955000D01*
X90881507Y-37955000D01*
X90804230Y-37939628D01*
X90688311Y-37916571D01*
X90506322Y-37841189D01*
X90342537Y-37731751D01*
X90203249Y-37592463D01*
X90133926Y-37488715D01*
X90118388Y-37469781D01*
X90099446Y-37454236D01*
X90077835Y-37442685D01*
X90054386Y-37435572D01*
X90030000Y-37433170D01*
X90005613Y-37435572D01*
X89982164Y-37442685D01*
X89960554Y-37454236D01*
X89941611Y-37469782D01*
X89926074Y-37488715D01*
X89856751Y-37592463D01*
X89717463Y-37731751D01*
X89553678Y-37841189D01*
X89371689Y-37916571D01*
X89255770Y-37939628D01*
X89178493Y-37955000D01*
X88981507Y-37955000D01*
X88904230Y-37939628D01*
X88788311Y-37916571D01*
X88606322Y-37841189D01*
X88442537Y-37731751D01*
X88303249Y-37592463D01*
X88193811Y-37428678D01*
X88118429Y-37246689D01*
X88080000Y-37053491D01*
X88080000Y-36856509D01*
X88118429Y-36663311D01*
X88193811Y-36481322D01*
X88303249Y-36317537D01*
X88442537Y-36178249D01*
X88606322Y-36068811D01*
X88788311Y-35993429D01*
X88904230Y-35970372D01*
X88981507Y-35955000D01*
X89178493Y-35955000D01*
X89255770Y-35970372D01*
X89371689Y-35993429D01*
X89553678Y-36068811D01*
X89717463Y-36178249D01*
X89856751Y-36317537D01*
X89926074Y-36421285D01*
X89941612Y-36440219D01*
X89960554Y-36455764D01*
X89982165Y-36467315D01*
X90005614Y-36474428D01*
X90030000Y-36476830D01*
X90054387Y-36474428D01*
X90077836Y-36467315D01*
X90099446Y-36455764D01*
X90118389Y-36440218D01*
X90133926Y-36421285D01*
X90203249Y-36317537D01*
X90342537Y-36178249D01*
X90506322Y-36068811D01*
X90688311Y-35993429D01*
X90804230Y-35970372D01*
X90881507Y-35955000D01*
X91078493Y-35955000D01*
X91155770Y-35970372D01*
X91271689Y-35993429D01*
X91453678Y-36068811D01*
X91617463Y-36178249D01*
X91756751Y-36317537D01*
X91812408Y-36400834D01*
X91827942Y-36419762D01*
X91846884Y-36435307D01*
X91868495Y-36446859D01*
X91891944Y-36453972D01*
X91916331Y-36456374D01*
X91940717Y-36453972D01*
X91964166Y-36446859D01*
X91985777Y-36435308D01*
X92004719Y-36419763D01*
X92026571Y-36390299D01*
X92044508Y-36356741D01*
X92169472Y-36204472D01*
X92321740Y-36079509D01*
X92495463Y-35986652D01*
X92495465Y-35986651D01*
X92683966Y-35929470D01*
X92683967Y-35929470D01*
X92683970Y-35929469D01*
X92830876Y-35915000D01*
X92929124Y-35915000D01*
X93076030Y-35929469D01*
X93076030Y-35929469D01*
G37*
G36*
X72985000Y-35555000D02*
X72987402Y-35579386D01*
X72994515Y-35602835D01*
X72995000Y-35603742D01*
X72995000Y-37330000D01*
X71595000Y-37330000D01*
X71595000Y-35755000D01*
X71592598Y-35730614D01*
X71585485Y-35707165D01*
X71585000Y-35706258D01*
X71585000Y-33980000D01*
X72985000Y-33980000D01*
X72985000Y-35555000D01*
X72985000Y-35555000D01*
G37*
G36*
X70985000Y-35555000D02*
X70987402Y-35579386D01*
X70994515Y-35602835D01*
X70995000Y-35603742D01*
X70995000Y-37330000D01*
X69595000Y-37330000D01*
X69595000Y-35755000D01*
X69592598Y-35730614D01*
X69585485Y-35707165D01*
X69585000Y-35706258D01*
X69585000Y-33980000D01*
X70985000Y-33980000D01*
X70985000Y-35555000D01*
X70985000Y-35555000D01*
G37*
G36*
X57797500Y-31297500D02*
X57799902Y-31321886D01*
X57807015Y-31345335D01*
X57818566Y-31366946D01*
X57834112Y-31385888D01*
X57853054Y-31401434D01*
X57874665Y-31412985D01*
X57898114Y-31420098D01*
X57922500Y-31422500D01*
X57977500Y-31422500D01*
X57977500Y-33072500D01*
X57677500Y-33072500D01*
X57653114Y-33074902D01*
X57629665Y-33082015D01*
X57608054Y-33093566D01*
X57589112Y-33109112D01*
X57573566Y-33128054D01*
X57562015Y-33149665D01*
X57554902Y-33173114D01*
X57552500Y-33197500D01*
X57552500Y-33432500D01*
X57554902Y-33456886D01*
X57562015Y-33480335D01*
X57573566Y-33501946D01*
X57589112Y-33520888D01*
X57608054Y-33536434D01*
X57629665Y-33547985D01*
X57653114Y-33555098D01*
X57677500Y-33557500D01*
X58977500Y-33557500D01*
X58977500Y-35157500D01*
X57677500Y-35157500D01*
X57663414Y-35158887D01*
X57667985Y-35150335D01*
X57675098Y-35126886D01*
X57677500Y-35102500D01*
X57677500Y-34752500D01*
X57675098Y-34728114D01*
X57667985Y-34704665D01*
X57656434Y-34683054D01*
X57640888Y-34664112D01*
X57621946Y-34648566D01*
X57600335Y-34637015D01*
X57576886Y-34629902D01*
X57552500Y-34627500D01*
X54152500Y-34627500D01*
X54128114Y-34629902D01*
X54104665Y-34637015D01*
X54083054Y-34648566D01*
X54064112Y-34664112D01*
X54048566Y-34683054D01*
X54037015Y-34704665D01*
X54029902Y-34728114D01*
X54027500Y-34752500D01*
X54027500Y-35102500D01*
X54029902Y-35126886D01*
X54037015Y-35150335D01*
X54048566Y-35171946D01*
X54064112Y-35190888D01*
X54083054Y-35206434D01*
X54104665Y-35217985D01*
X54128114Y-35225098D01*
X54152500Y-35227500D01*
X57552500Y-35227500D01*
X57566586Y-35226113D01*
X57562015Y-35234665D01*
X57554902Y-35258114D01*
X57552500Y-35282500D01*
X57552500Y-36627500D01*
X54152500Y-36627500D01*
X54128114Y-36629902D01*
X54104665Y-36637015D01*
X54083054Y-36648566D01*
X54064112Y-36664112D01*
X54048566Y-36683054D01*
X54037015Y-36704665D01*
X54029902Y-36728114D01*
X54027500Y-36752500D01*
X54027500Y-36882500D01*
X52127500Y-36882500D01*
X52127500Y-34232500D01*
X54047500Y-34232500D01*
X54071886Y-34230098D01*
X54095335Y-34222985D01*
X54116946Y-34211434D01*
X54135888Y-34195888D01*
X54151434Y-34176946D01*
X54162985Y-34155335D01*
X54170098Y-34131886D01*
X54172500Y-34107500D01*
X54172500Y-33227500D01*
X54902500Y-33227500D01*
X54926886Y-33225098D01*
X54950335Y-33217985D01*
X54971946Y-33206434D01*
X54990888Y-33190888D01*
X55006434Y-33171946D01*
X55017985Y-33150335D01*
X55025098Y-33126886D01*
X55027500Y-33102500D01*
X55027500Y-30557500D01*
X56472500Y-30557500D01*
X56496886Y-30555098D01*
X56520335Y-30547985D01*
X56541946Y-30536434D01*
X56560888Y-30520888D01*
X56576434Y-30501946D01*
X56587985Y-30480335D01*
X56595098Y-30456886D01*
X56597500Y-30432500D01*
X56597500Y-30057500D01*
X57797500Y-30057500D01*
X57797500Y-31297500D01*
X57797500Y-31297500D01*
G37*
G36*
X50627500Y-36882500D02*
X48727500Y-36882500D01*
X48727500Y-34232500D01*
X50627500Y-34232500D01*
X50627500Y-36882500D01*
X50627500Y-36882500D01*
G37*
G36*
X78747500Y-36707500D02*
X73887500Y-36707500D01*
X73887500Y-34607500D01*
X78747500Y-34607500D01*
X78747500Y-36707500D01*
X78747500Y-36707500D01*
G37*
G36*
X67389183Y-34831900D02*
X67516574Y-34884668D01*
X67631225Y-34961275D01*
X67728725Y-35058775D01*
X67805332Y-35173426D01*
X67858100Y-35300817D01*
X67885000Y-35436055D01*
X67885000Y-35573945D01*
X67858100Y-35709183D01*
X67805332Y-35836574D01*
X67728726Y-35951224D01*
X67631224Y-36048726D01*
X67516574Y-36125332D01*
X67389183Y-36178100D01*
X67253945Y-36205000D01*
X67116055Y-36205000D01*
X66980817Y-36178100D01*
X66853426Y-36125332D01*
X66738776Y-36048726D01*
X66641274Y-35951224D01*
X66564668Y-35836574D01*
X66511900Y-35709183D01*
X66485000Y-35573945D01*
X66485000Y-35436055D01*
X66511900Y-35300817D01*
X66564668Y-35173426D01*
X66641275Y-35058775D01*
X66738775Y-34961275D01*
X66853426Y-34884668D01*
X66980817Y-34831900D01*
X67116055Y-34805000D01*
X67253945Y-34805000D01*
X67389183Y-34831900D01*
X67389183Y-34831900D01*
G37*
G36*
X48442500Y-35457500D02*
X45092500Y-35457500D01*
X45092500Y-34057500D01*
X48442500Y-34057500D01*
X48442500Y-35457500D01*
X48442500Y-35457500D01*
G37*
G36*
X62277500Y-35157500D02*
X60977500Y-35157500D01*
X60977500Y-33557500D01*
X62277500Y-33557500D01*
X62277500Y-35157500D01*
X62277500Y-35157500D01*
G37*
G36*
X29733405Y-28872974D02*
X30315767Y-29114196D01*
X30839884Y-29464400D01*
X31285600Y-29910116D01*
X31635804Y-30434233D01*
X31877026Y-31016595D01*
X32000000Y-31634826D01*
X32000000Y-32265174D01*
X31877026Y-32883405D01*
X31635804Y-33465767D01*
X31285600Y-33989884D01*
X30839884Y-34435600D01*
X30315767Y-34785804D01*
X29733405Y-35027026D01*
X29115174Y-35150000D01*
X28484826Y-35150000D01*
X27866595Y-35027026D01*
X27284233Y-34785804D01*
X26760116Y-34435600D01*
X26314400Y-33989884D01*
X25964196Y-33465767D01*
X25722974Y-32883405D01*
X25600000Y-32265174D01*
X25600000Y-31634826D01*
X25722974Y-31016595D01*
X25964196Y-30434233D01*
X26314400Y-29910116D01*
X26760116Y-29464400D01*
X27284233Y-29114196D01*
X27866595Y-28872974D01*
X28484826Y-28750000D01*
X29115174Y-28750000D01*
X29733405Y-28872974D01*
X29733405Y-28872974D01*
G37*
G36*
X67389183Y-32931900D02*
X67516574Y-32984668D01*
X67631224Y-33061274D01*
X67728726Y-33158776D01*
X67803362Y-33270477D01*
X67805332Y-33273426D01*
X67858100Y-33400817D01*
X67885000Y-33536055D01*
X67885000Y-33673945D01*
X67858100Y-33809183D01*
X67805332Y-33936574D01*
X67728726Y-34051224D01*
X67631224Y-34148726D01*
X67578432Y-34184000D01*
X67516574Y-34225332D01*
X67389183Y-34278100D01*
X67253945Y-34305000D01*
X67116055Y-34305000D01*
X66980817Y-34278100D01*
X66853426Y-34225332D01*
X66791568Y-34184000D01*
X66738776Y-34148726D01*
X66641274Y-34051224D01*
X66564668Y-33936574D01*
X66511900Y-33809183D01*
X66485000Y-33673945D01*
X66485000Y-33536055D01*
X66511900Y-33400817D01*
X66564668Y-33273426D01*
X66566638Y-33270477D01*
X66641274Y-33158776D01*
X66738776Y-33061274D01*
X66853426Y-32984668D01*
X66980817Y-32931900D01*
X67116055Y-32905000D01*
X67253945Y-32905000D01*
X67389183Y-32931900D01*
X67389183Y-32931900D01*
G37*
G36*
X83997000Y-34184000D02*
X82597000Y-34184000D01*
X82597000Y-32534000D01*
X83997000Y-32534000D01*
X83997000Y-34184000D01*
X83997000Y-34184000D01*
G37*
G36*
X81997000Y-34184000D02*
X80597000Y-34184000D01*
X80597000Y-32534000D01*
X81997000Y-32534000D01*
X81997000Y-34184000D01*
X81997000Y-34184000D01*
G37*
G36*
X88085000Y-34180000D02*
X86685000Y-34180000D01*
X86685000Y-32530000D01*
X88085000Y-32530000D01*
X88085000Y-34180000D01*
X88085000Y-34180000D01*
G37*
G36*
X86085000Y-34180000D02*
X84685000Y-34180000D01*
X84685000Y-32530000D01*
X86085000Y-32530000D01*
X86085000Y-34180000D01*
X86085000Y-34180000D01*
G37*
G36*
X45924527Y-30568352D02*
X46065901Y-30611238D01*
X46196194Y-30680880D01*
X46310396Y-30774604D01*
X46404120Y-30888806D01*
X46478829Y-31028578D01*
X46479998Y-31031403D01*
X46493608Y-31051780D01*
X46510932Y-31069111D01*
X46531304Y-31082729D01*
X46553941Y-31092110D01*
X46577974Y-31096896D01*
X46590250Y-31097500D01*
X48577500Y-31097500D01*
X48577500Y-33497500D01*
X46577500Y-33497500D01*
X46577500Y-32964280D01*
X46575098Y-32939894D01*
X46567985Y-32916445D01*
X46556434Y-32894834D01*
X46540888Y-32875892D01*
X46521946Y-32860346D01*
X46500335Y-32848795D01*
X46476886Y-32841682D01*
X46452500Y-32839280D01*
X46428114Y-32841682D01*
X46404665Y-32848795D01*
X46383054Y-32860346D01*
X46364112Y-32875892D01*
X46355873Y-32884981D01*
X46310396Y-32940396D01*
X46196190Y-33034122D01*
X46065900Y-33103762D01*
X45924526Y-33146648D01*
X45777500Y-33161128D01*
X45630473Y-33146648D01*
X45489099Y-33103762D01*
X45358806Y-33034120D01*
X45244607Y-32940399D01*
X45150878Y-32826190D01*
X45081238Y-32695900D01*
X45038352Y-32554526D01*
X45027500Y-32444338D01*
X45027501Y-31270661D01*
X45038353Y-31160473D01*
X45081239Y-31019099D01*
X45150881Y-30888806D01*
X45244605Y-30774604D01*
X45358807Y-30680880D01*
X45489100Y-30611238D01*
X45630474Y-30568352D01*
X45777500Y-30553872D01*
X45924527Y-30568352D01*
X45924527Y-30568352D01*
G37*
G36*
X53457500Y-33497500D02*
X51457500Y-33497500D01*
X51457500Y-31097500D01*
X53457500Y-31097500D01*
X53457500Y-33497500D01*
X53457500Y-33497500D01*
G37*
G36*
X19650026Y-30796115D02*
X19868412Y-30886573D01*
X20064958Y-31017901D01*
X20232099Y-31185042D01*
X20363427Y-31381588D01*
X20453885Y-31599974D01*
X20500000Y-31831809D01*
X20500000Y-32068191D01*
X20453885Y-32300026D01*
X20363427Y-32518412D01*
X20232099Y-32714958D01*
X20064958Y-32882099D01*
X19868412Y-33013427D01*
X19650026Y-33103885D01*
X19418191Y-33150000D01*
X19181809Y-33150000D01*
X18949974Y-33103885D01*
X18731588Y-33013427D01*
X18535042Y-32882099D01*
X18367901Y-32714958D01*
X18236573Y-32518412D01*
X18146115Y-32300026D01*
X18100000Y-32068191D01*
X18100000Y-31831809D01*
X18146115Y-31599974D01*
X18236573Y-31381588D01*
X18367901Y-31185042D01*
X18535042Y-31017901D01*
X18731588Y-30886573D01*
X18949974Y-30796115D01*
X19181809Y-30750000D01*
X19418191Y-30750000D01*
X19650026Y-30796115D01*
X19650026Y-30796115D01*
G37*
G36*
X38650026Y-30796115D02*
X38868412Y-30886573D01*
X39064958Y-31017901D01*
X39232099Y-31185042D01*
X39363427Y-31381588D01*
X39453885Y-31599974D01*
X39500000Y-31831809D01*
X39500000Y-32068191D01*
X39453885Y-32300026D01*
X39363427Y-32518412D01*
X39232099Y-32714958D01*
X39064958Y-32882099D01*
X38868412Y-33013427D01*
X38650026Y-33103885D01*
X38418191Y-33150000D01*
X38181809Y-33150000D01*
X37949974Y-33103885D01*
X37731588Y-33013427D01*
X37535042Y-32882099D01*
X37367901Y-32714958D01*
X37236573Y-32518412D01*
X37146115Y-32300026D01*
X37100000Y-32068191D01*
X37100000Y-31831809D01*
X37146115Y-31599974D01*
X37236573Y-31381588D01*
X37367901Y-31185042D01*
X37535042Y-31017901D01*
X37731588Y-30886573D01*
X37949974Y-30796115D01*
X38181809Y-30750000D01*
X38418191Y-30750000D01*
X38650026Y-30796115D01*
X38650026Y-30796115D01*
G37*
G36*
X59697500Y-31297500D02*
X59699902Y-31321886D01*
X59707015Y-31345335D01*
X59718566Y-31366946D01*
X59734112Y-31385888D01*
X59753054Y-31401434D01*
X59774665Y-31412985D01*
X59798114Y-31420098D01*
X59822500Y-31422500D01*
X59977500Y-31422500D01*
X59977500Y-33072500D01*
X58577500Y-33072500D01*
X58577500Y-31482500D01*
X58575098Y-31458114D01*
X58567985Y-31434665D01*
X58556434Y-31413054D01*
X58540888Y-31394112D01*
X58521946Y-31378566D01*
X58500335Y-31367015D01*
X58497500Y-31366155D01*
X58497500Y-30057500D01*
X59697500Y-30057500D01*
X59697500Y-31297500D01*
X59697500Y-31297500D01*
G37*
G36*
X132857500Y-32717500D02*
X130957500Y-32717500D01*
X130957500Y-30917500D01*
X132857500Y-30917500D01*
X132857500Y-32717500D01*
X132857500Y-32717500D01*
G37*
G36*
X84005000Y-32130000D02*
X82705000Y-32130000D01*
X82705000Y-30930000D01*
X84005000Y-30930000D01*
X84005000Y-32130000D01*
X84005000Y-32130000D01*
G37*
G36*
X86011000Y-32115000D02*
X84711000Y-32115000D01*
X84711000Y-30915000D01*
X86011000Y-30915000D01*
X86011000Y-32115000D01*
X86011000Y-32115000D01*
G37*
G36*
X82005000Y-31180000D02*
X80705000Y-31180000D01*
X80705000Y-29980000D01*
X82005000Y-29980000D01*
X82005000Y-31180000D01*
X82005000Y-31180000D01*
G37*
G36*
X88011000Y-31165000D02*
X86711000Y-31165000D01*
X86711000Y-29965000D01*
X88011000Y-29965000D01*
X88011000Y-31165000D01*
X88011000Y-31165000D01*
G37*
G36*
X67736951Y-28556627D02*
X67874605Y-28584008D01*
X68047494Y-28655621D01*
X68203090Y-28759587D01*
X68335413Y-28891910D01*
X68439379Y-29047506D01*
X68510992Y-29220395D01*
X68547500Y-29403933D01*
X68547500Y-29591067D01*
X68510992Y-29774605D01*
X68439379Y-29947494D01*
X68335413Y-30103090D01*
X68203090Y-30235413D01*
X68047494Y-30339379D01*
X67874605Y-30410992D01*
X67736952Y-30438373D01*
X67691068Y-30447500D01*
X67503932Y-30447500D01*
X67458048Y-30438373D01*
X67320395Y-30410992D01*
X67147506Y-30339379D01*
X66991910Y-30235413D01*
X66859587Y-30103090D01*
X66755621Y-29947494D01*
X66684008Y-29774605D01*
X66647500Y-29591067D01*
X66647500Y-29403933D01*
X66684008Y-29220395D01*
X66755621Y-29047506D01*
X66859587Y-28891910D01*
X66991910Y-28759587D01*
X67147506Y-28655621D01*
X67320395Y-28584008D01*
X67458049Y-28556627D01*
X67503932Y-28547500D01*
X67691068Y-28547500D01*
X67736951Y-28556627D01*
X67736951Y-28556627D01*
G37*
G36*
X62856951Y-28556627D02*
X62994605Y-28584008D01*
X63167494Y-28655621D01*
X63323090Y-28759587D01*
X63455413Y-28891910D01*
X63559379Y-29047506D01*
X63630992Y-29220395D01*
X63667500Y-29403933D01*
X63667500Y-29591067D01*
X63630992Y-29774605D01*
X63559379Y-29947494D01*
X63455413Y-30103090D01*
X63323090Y-30235413D01*
X63167494Y-30339379D01*
X62994605Y-30410992D01*
X62856952Y-30438373D01*
X62811068Y-30447500D01*
X62623932Y-30447500D01*
X62578048Y-30438373D01*
X62440395Y-30410992D01*
X62267506Y-30339379D01*
X62111910Y-30235413D01*
X61979587Y-30103090D01*
X61875621Y-29947494D01*
X61804008Y-29774605D01*
X61767500Y-29591067D01*
X61767500Y-29403933D01*
X61804008Y-29220395D01*
X61875621Y-29047506D01*
X61979587Y-28891910D01*
X62111910Y-28759587D01*
X62267506Y-28655621D01*
X62440395Y-28584008D01*
X62578049Y-28556627D01*
X62623932Y-28547500D01*
X62811068Y-28547500D01*
X62856951Y-28556627D01*
X62856951Y-28556627D01*
G37*
G36*
X84005000Y-30230000D02*
X82705000Y-30230000D01*
X82705000Y-29030000D01*
X84005000Y-29030000D01*
X84005000Y-30230000D01*
X84005000Y-30230000D01*
G37*
G36*
X86011000Y-30215000D02*
X84711000Y-30215000D01*
X84711000Y-29015000D01*
X86011000Y-29015000D01*
X86011000Y-30215000D01*
X86011000Y-30215000D01*
G37*
G36*
X80427500Y-26847500D02*
X80429902Y-26871886D01*
X80437015Y-26895335D01*
X80448566Y-26916946D01*
X80464112Y-26935888D01*
X80483054Y-26951434D01*
X80504665Y-26962985D01*
X80528114Y-26970098D01*
X80552500Y-26972500D01*
X82057500Y-26972500D01*
X82057500Y-28622500D01*
X80656515Y-28622500D01*
X80657500Y-28612500D01*
X80657500Y-28262500D01*
X80655098Y-28238114D01*
X80647985Y-28214665D01*
X80636434Y-28193054D01*
X80620888Y-28174112D01*
X80601946Y-28158566D01*
X80580335Y-28147015D01*
X80556886Y-28139902D01*
X80532500Y-28137500D01*
X78872500Y-28137500D01*
X78848114Y-28139902D01*
X78824665Y-28147015D01*
X78803054Y-28158566D01*
X78784112Y-28174112D01*
X78768566Y-28193054D01*
X78757015Y-28214665D01*
X78749902Y-28238114D01*
X78747500Y-28262500D01*
X78747500Y-28612500D01*
X78749902Y-28636886D01*
X78757015Y-28660335D01*
X78768566Y-28681946D01*
X78784112Y-28700888D01*
X78803054Y-28716434D01*
X78824665Y-28727985D01*
X78848114Y-28735098D01*
X78872500Y-28737500D01*
X80428485Y-28737500D01*
X80427500Y-28747500D01*
X80427500Y-30137500D01*
X78777500Y-30137500D01*
X78777500Y-29532500D01*
X78775098Y-29508114D01*
X78767985Y-29484665D01*
X78756434Y-29463054D01*
X78740888Y-29444112D01*
X78721946Y-29428566D01*
X78700335Y-29417015D01*
X78676886Y-29409902D01*
X78652500Y-29407500D01*
X73887500Y-29407500D01*
X73887500Y-28802500D01*
X73885098Y-28778114D01*
X73877985Y-28754665D01*
X73866434Y-28733054D01*
X73850888Y-28714112D01*
X73831946Y-28698566D01*
X73810335Y-28687015D01*
X73786886Y-28679902D01*
X73762500Y-28677500D01*
X72637500Y-28677500D01*
X72637500Y-26977500D01*
X73737500Y-26977500D01*
X73737500Y-27182500D01*
X73739902Y-27206886D01*
X73747015Y-27230335D01*
X73758566Y-27251946D01*
X73774112Y-27270888D01*
X73793054Y-27286434D01*
X73814665Y-27297985D01*
X73838114Y-27305098D01*
X73862500Y-27307500D01*
X78652500Y-27307500D01*
X78676886Y-27305098D01*
X78700335Y-27297985D01*
X78721946Y-27286434D01*
X78740888Y-27270888D01*
X78756434Y-27251946D01*
X78767985Y-27230335D01*
X78775098Y-27206886D01*
X78777500Y-27182500D01*
X78777500Y-26737500D01*
X80427500Y-26737500D01*
X80427500Y-26847500D01*
X80427500Y-26847500D01*
G37*
G36*
X57537500Y-27932500D02*
X57539902Y-27956886D01*
X57547015Y-27980335D01*
X57558566Y-28001946D01*
X57574112Y-28020888D01*
X57593054Y-28036434D01*
X57614665Y-28047985D01*
X57638114Y-28055098D01*
X57662500Y-28057500D01*
X58012500Y-28057500D01*
X58036886Y-28055098D01*
X58060335Y-28047985D01*
X58081946Y-28036434D01*
X58100888Y-28020888D01*
X58116434Y-28001946D01*
X58127985Y-27980335D01*
X58135098Y-27956886D01*
X58137500Y-27932500D01*
X58137500Y-26402500D01*
X59537500Y-26402500D01*
X59537500Y-28052500D01*
X58872500Y-28052500D01*
X58848114Y-28054902D01*
X58824665Y-28062015D01*
X58803054Y-28073566D01*
X58784112Y-28089112D01*
X58768566Y-28108054D01*
X58757015Y-28129665D01*
X58749902Y-28153114D01*
X58747500Y-28177500D01*
X58747500Y-29357500D01*
X57547500Y-29357500D01*
X57547500Y-28177500D01*
X57545098Y-28153114D01*
X57537985Y-28129665D01*
X57526434Y-28108054D01*
X57510888Y-28089112D01*
X57491946Y-28073566D01*
X57470335Y-28062015D01*
X57446886Y-28054902D01*
X57422500Y-28052500D01*
X56137500Y-28052500D01*
X56137500Y-26402500D01*
X57537500Y-26402500D01*
X57537500Y-27932500D01*
X57537500Y-27932500D01*
G37*
G36*
X47450021Y-27412086D02*
X47613809Y-27479929D01*
X47761220Y-27578426D01*
X47774112Y-27591318D01*
X47793054Y-27606864D01*
X47814665Y-27618415D01*
X47838114Y-27625528D01*
X47862500Y-27627930D01*
X47886886Y-27625528D01*
X47910335Y-27618415D01*
X47931946Y-27606864D01*
X47950888Y-27591318D01*
X47966434Y-27572376D01*
X47977985Y-27550765D01*
X47985098Y-27527316D01*
X47987500Y-27502930D01*
X47987500Y-27402500D01*
X51387500Y-27402500D01*
X51387500Y-27502930D01*
X51389902Y-27527316D01*
X51397015Y-27550765D01*
X51408566Y-27572376D01*
X51424112Y-27591318D01*
X51443054Y-27606864D01*
X51464665Y-27618415D01*
X51488114Y-27625528D01*
X51512500Y-27627930D01*
X51536886Y-27625528D01*
X51560335Y-27618415D01*
X51581946Y-27606864D01*
X51600888Y-27591318D01*
X51613780Y-27578426D01*
X51761191Y-27479929D01*
X51924979Y-27412086D01*
X52098856Y-27377500D01*
X52276144Y-27377500D01*
X52450021Y-27412086D01*
X52613809Y-27479929D01*
X52761220Y-27578426D01*
X52886574Y-27703780D01*
X52985071Y-27851191D01*
X53052914Y-28014979D01*
X53087500Y-28188856D01*
X53087500Y-28366144D01*
X53052914Y-28540021D01*
X52985071Y-28703809D01*
X52886574Y-28851220D01*
X52761220Y-28976574D01*
X52613809Y-29075071D01*
X52450021Y-29142914D01*
X52276144Y-29177500D01*
X52098856Y-29177500D01*
X51924979Y-29142914D01*
X51761191Y-29075071D01*
X51613780Y-28976574D01*
X51600888Y-28963682D01*
X51581946Y-28948136D01*
X51560335Y-28936585D01*
X51536886Y-28929472D01*
X51512500Y-28927070D01*
X51488114Y-28929472D01*
X51464665Y-28936585D01*
X51443054Y-28948136D01*
X51424112Y-28963682D01*
X51408566Y-28982624D01*
X51397015Y-29004235D01*
X51389902Y-29027684D01*
X51387500Y-29052070D01*
X51387500Y-29152500D01*
X47987500Y-29152500D01*
X47987500Y-29052070D01*
X47985098Y-29027684D01*
X47977985Y-29004235D01*
X47966434Y-28982624D01*
X47950888Y-28963682D01*
X47931946Y-28948136D01*
X47910335Y-28936585D01*
X47886886Y-28929472D01*
X47862500Y-28927070D01*
X47838114Y-28929472D01*
X47814665Y-28936585D01*
X47793054Y-28948136D01*
X47774112Y-28963682D01*
X47761220Y-28976574D01*
X47613809Y-29075071D01*
X47450021Y-29142914D01*
X47276144Y-29177500D01*
X47098856Y-29177500D01*
X46924979Y-29142914D01*
X46761191Y-29075071D01*
X46613780Y-28976574D01*
X46488426Y-28851220D01*
X46389929Y-28703809D01*
X46322086Y-28540021D01*
X46287500Y-28366144D01*
X46287500Y-28188856D01*
X46322086Y-28014979D01*
X46389929Y-27851191D01*
X46488426Y-27703780D01*
X46613780Y-27578426D01*
X46761191Y-27479929D01*
X46924979Y-27412086D01*
X47098856Y-27377500D01*
X47276144Y-27377500D01*
X47450021Y-27412086D01*
X47450021Y-27412086D01*
G37*
G36*
X71837500Y-28677500D02*
X70737500Y-28677500D01*
X70737500Y-26977500D01*
X71837500Y-26977500D01*
X71837500Y-28677500D01*
X71837500Y-28677500D01*
G37*
G36*
X86067500Y-28632500D02*
X84667500Y-28632500D01*
X84667500Y-26982500D01*
X86067500Y-26982500D01*
X86067500Y-28632500D01*
X86067500Y-28632500D01*
G37*
G36*
X93055770Y-25770372D02*
X93171689Y-25793429D01*
X93353678Y-25868811D01*
X93517463Y-25978249D01*
X93656751Y-26117537D01*
X93726074Y-26221285D01*
X93741612Y-26240219D01*
X93760554Y-26255764D01*
X93782165Y-26267315D01*
X93805614Y-26274428D01*
X93830000Y-26276830D01*
X93854387Y-26274428D01*
X93877836Y-26267315D01*
X93899446Y-26255764D01*
X93918389Y-26240218D01*
X93933926Y-26221285D01*
X94003249Y-26117537D01*
X94142537Y-25978249D01*
X94306322Y-25868811D01*
X94488311Y-25793429D01*
X94604230Y-25770372D01*
X94681507Y-25755000D01*
X94878493Y-25755000D01*
X94955770Y-25770372D01*
X95071689Y-25793429D01*
X95253678Y-25868811D01*
X95417463Y-25978249D01*
X95556751Y-26117537D01*
X95626074Y-26221285D01*
X95641612Y-26240219D01*
X95660554Y-26255764D01*
X95682165Y-26267315D01*
X95705614Y-26274428D01*
X95730000Y-26276830D01*
X95754387Y-26274428D01*
X95777836Y-26267315D01*
X95799446Y-26255764D01*
X95818389Y-26240218D01*
X95833926Y-26221285D01*
X95903249Y-26117537D01*
X96042537Y-25978249D01*
X96206322Y-25868811D01*
X96388311Y-25793429D01*
X96504230Y-25770372D01*
X96581507Y-25755000D01*
X96778493Y-25755000D01*
X96855770Y-25770372D01*
X96971689Y-25793429D01*
X97153678Y-25868811D01*
X97317463Y-25978249D01*
X97456751Y-26117537D01*
X97526074Y-26221285D01*
X97541612Y-26240219D01*
X97560554Y-26255764D01*
X97582165Y-26267315D01*
X97605614Y-26274428D01*
X97630000Y-26276830D01*
X97654387Y-26274428D01*
X97677836Y-26267315D01*
X97699446Y-26255764D01*
X97718389Y-26240218D01*
X97733926Y-26221285D01*
X97803249Y-26117537D01*
X97942537Y-25978249D01*
X98106322Y-25868811D01*
X98288311Y-25793429D01*
X98404230Y-25770372D01*
X98481507Y-25755000D01*
X98678493Y-25755000D01*
X98755770Y-25770372D01*
X98871689Y-25793429D01*
X99053678Y-25868811D01*
X99217463Y-25978249D01*
X99356751Y-26117537D01*
X99466189Y-26281322D01*
X99541571Y-26463311D01*
X99559634Y-26554120D01*
X99573487Y-26623762D01*
X99580000Y-26656509D01*
X99580000Y-26853491D01*
X99541571Y-27046689D01*
X99466189Y-27228678D01*
X99356751Y-27392463D01*
X99217463Y-27531751D01*
X99053678Y-27641189D01*
X98871689Y-27716571D01*
X98755770Y-27739628D01*
X98678493Y-27755000D01*
X98481507Y-27755000D01*
X98404230Y-27739628D01*
X98288311Y-27716571D01*
X98106322Y-27641189D01*
X97942537Y-27531751D01*
X97803249Y-27392463D01*
X97733926Y-27288715D01*
X97718388Y-27269781D01*
X97699446Y-27254236D01*
X97677835Y-27242685D01*
X97654386Y-27235572D01*
X97630000Y-27233170D01*
X97605613Y-27235572D01*
X97582164Y-27242685D01*
X97560554Y-27254236D01*
X97541611Y-27269782D01*
X97526074Y-27288715D01*
X97456751Y-27392463D01*
X97317463Y-27531751D01*
X97153678Y-27641189D01*
X96971689Y-27716571D01*
X96855770Y-27739628D01*
X96778493Y-27755000D01*
X96581507Y-27755000D01*
X96504230Y-27739628D01*
X96388311Y-27716571D01*
X96206322Y-27641189D01*
X96042537Y-27531751D01*
X95903249Y-27392463D01*
X95833926Y-27288715D01*
X95818388Y-27269781D01*
X95799446Y-27254236D01*
X95777835Y-27242685D01*
X95754386Y-27235572D01*
X95730000Y-27233170D01*
X95705613Y-27235572D01*
X95682164Y-27242685D01*
X95660554Y-27254236D01*
X95641611Y-27269782D01*
X95626074Y-27288715D01*
X95556751Y-27392463D01*
X95417463Y-27531751D01*
X95253678Y-27641189D01*
X95071689Y-27716571D01*
X94955770Y-27739628D01*
X94878493Y-27755000D01*
X94681507Y-27755000D01*
X94604230Y-27739628D01*
X94488311Y-27716571D01*
X94306322Y-27641189D01*
X94142537Y-27531751D01*
X94003249Y-27392463D01*
X93933926Y-27288715D01*
X93918388Y-27269781D01*
X93899446Y-27254236D01*
X93877835Y-27242685D01*
X93854386Y-27235572D01*
X93830000Y-27233170D01*
X93805613Y-27235572D01*
X93782164Y-27242685D01*
X93760554Y-27254236D01*
X93741611Y-27269782D01*
X93726074Y-27288715D01*
X93656751Y-27392463D01*
X93517463Y-27531751D01*
X93353678Y-27641189D01*
X93171689Y-27716571D01*
X93055770Y-27739628D01*
X92978493Y-27755000D01*
X92781507Y-27755000D01*
X92704230Y-27739628D01*
X92588311Y-27716571D01*
X92406322Y-27641189D01*
X92242537Y-27531751D01*
X92103249Y-27392463D01*
X92047592Y-27309166D01*
X92032058Y-27290238D01*
X92013116Y-27274693D01*
X91991505Y-27263141D01*
X91968056Y-27256028D01*
X91943669Y-27253626D01*
X91919283Y-27256028D01*
X91895834Y-27263141D01*
X91874223Y-27274692D01*
X91855281Y-27290237D01*
X91833429Y-27319701D01*
X91815492Y-27353259D01*
X91690528Y-27505528D01*
X91538260Y-27630491D01*
X91538258Y-27630492D01*
X91364535Y-27723349D01*
X91176034Y-27780530D01*
X91176033Y-27780530D01*
X91176030Y-27780531D01*
X91029124Y-27795000D01*
X90930876Y-27795000D01*
X90783970Y-27780531D01*
X90783967Y-27780530D01*
X90783966Y-27780530D01*
X90595465Y-27723349D01*
X90421742Y-27630492D01*
X90421740Y-27630491D01*
X90269472Y-27505528D01*
X90144507Y-27353257D01*
X90140239Y-27345273D01*
X90126625Y-27324899D01*
X90109298Y-27307572D01*
X90088923Y-27293958D01*
X90066284Y-27284581D01*
X90042251Y-27279801D01*
X90017746Y-27279801D01*
X89993713Y-27284582D01*
X89971074Y-27293960D01*
X89950700Y-27307574D01*
X89933373Y-27324901D01*
X89919761Y-27345273D01*
X89915493Y-27353257D01*
X89790528Y-27505528D01*
X89638260Y-27630491D01*
X89638258Y-27630492D01*
X89464535Y-27723349D01*
X89276034Y-27780530D01*
X89276033Y-27780530D01*
X89276030Y-27780531D01*
X89129124Y-27795000D01*
X89030876Y-27795000D01*
X88883970Y-27780531D01*
X88883967Y-27780530D01*
X88883966Y-27780530D01*
X88695465Y-27723349D01*
X88521742Y-27630492D01*
X88521740Y-27630491D01*
X88369475Y-27505531D01*
X88369474Y-27505529D01*
X88369472Y-27505528D01*
X88289124Y-27407623D01*
X88271799Y-27390299D01*
X88251425Y-27376685D01*
X88228786Y-27367308D01*
X88204752Y-27362527D01*
X88180248Y-27362527D01*
X88156215Y-27367307D01*
X88133576Y-27376685D01*
X88113201Y-27390298D01*
X88095874Y-27407626D01*
X88082260Y-27428000D01*
X88072883Y-27450639D01*
X88068102Y-27474673D01*
X88067500Y-27486925D01*
X88067500Y-28632500D01*
X86667500Y-28632500D01*
X86667500Y-26982500D01*
X87955713Y-26982500D01*
X87980099Y-26980098D01*
X88003548Y-26972985D01*
X88025159Y-26961434D01*
X88044101Y-26945888D01*
X88059647Y-26926946D01*
X88071198Y-26905335D01*
X88078311Y-26881886D01*
X88080713Y-26857500D01*
X88080111Y-26845247D01*
X88075162Y-26794999D01*
X88094469Y-26598970D01*
X88132075Y-26475000D01*
X88151651Y-26410465D01*
X88212811Y-26296042D01*
X88244509Y-26236740D01*
X88369472Y-26084472D01*
X88521740Y-25959509D01*
X88695463Y-25866652D01*
X88695465Y-25866651D01*
X88883966Y-25809470D01*
X88883967Y-25809470D01*
X88883970Y-25809469D01*
X89030876Y-25795000D01*
X89129124Y-25795000D01*
X89276030Y-25809469D01*
X89276033Y-25809470D01*
X89276034Y-25809470D01*
X89464535Y-25866651D01*
X89464537Y-25866652D01*
X89638260Y-25959509D01*
X89790528Y-26084472D01*
X89915493Y-26236743D01*
X89919761Y-26244727D01*
X89933375Y-26265101D01*
X89950702Y-26282428D01*
X89971077Y-26296042D01*
X89993716Y-26305419D01*
X90017749Y-26310199D01*
X90042254Y-26310199D01*
X90066287Y-26305418D01*
X90088926Y-26296040D01*
X90109300Y-26282426D01*
X90126627Y-26265099D01*
X90140239Y-26244727D01*
X90144507Y-26236743D01*
X90269472Y-26084472D01*
X90421740Y-25959509D01*
X90595463Y-25866652D01*
X90595465Y-25866651D01*
X90783966Y-25809470D01*
X90783967Y-25809470D01*
X90783970Y-25809469D01*
X90930876Y-25795000D01*
X91029124Y-25795000D01*
X91176030Y-25809469D01*
X91176033Y-25809470D01*
X91176034Y-25809470D01*
X91364535Y-25866651D01*
X91364537Y-25866652D01*
X91538260Y-25959509D01*
X91690528Y-26084472D01*
X91823282Y-26246233D01*
X91840609Y-26263560D01*
X91860983Y-26277174D01*
X91883622Y-26286552D01*
X91907656Y-26291332D01*
X91932160Y-26291332D01*
X91956193Y-26286552D01*
X91978833Y-26277174D01*
X91999207Y-26263560D01*
X92023836Y-26236387D01*
X92103249Y-26117537D01*
X92242537Y-25978249D01*
X92406322Y-25868811D01*
X92588311Y-25793429D01*
X92704230Y-25770372D01*
X92781507Y-25755000D01*
X92978493Y-25755000D01*
X93055770Y-25770372D01*
X93055770Y-25770372D01*
G37*
G36*
X84057500Y-28622500D02*
X82657500Y-28622500D01*
X82657500Y-26972500D01*
X84057500Y-26972500D01*
X84057500Y-28622500D01*
X84057500Y-28622500D01*
G37*
G36*
X46334527Y-24488352D02*
X46475901Y-24531238D01*
X46606194Y-24600880D01*
X46720396Y-24694604D01*
X46814120Y-24808806D01*
X46883762Y-24939099D01*
X46926648Y-25080473D01*
X46937500Y-25190661D01*
X46937500Y-25964339D01*
X46926648Y-26074527D01*
X46883762Y-26215901D01*
X46814120Y-26346194D01*
X46720399Y-26460393D01*
X46606190Y-26554122D01*
X46475900Y-26623762D01*
X46334526Y-26666648D01*
X46187500Y-26681128D01*
X46040473Y-26666648D01*
X45899099Y-26623762D01*
X45768806Y-26554120D01*
X45654607Y-26460399D01*
X45560878Y-26346190D01*
X45491238Y-26215900D01*
X45448352Y-26074526D01*
X45437500Y-25964338D01*
X45437500Y-25190661D01*
X45448352Y-25080475D01*
X45491240Y-24939098D01*
X45560881Y-24808806D01*
X45654605Y-24694604D01*
X45768807Y-24600880D01*
X45899100Y-24531238D01*
X46040474Y-24488352D01*
X46187500Y-24473872D01*
X46334527Y-24488352D01*
X46334527Y-24488352D01*
G37*
G36*
X53334527Y-24488352D02*
X53475901Y-24531238D01*
X53606194Y-24600880D01*
X53720396Y-24694604D01*
X53814120Y-24808806D01*
X53883762Y-24939099D01*
X53926648Y-25080473D01*
X53937500Y-25190661D01*
X53937500Y-25964339D01*
X53926648Y-26074527D01*
X53883762Y-26215901D01*
X53814120Y-26346194D01*
X53720399Y-26460393D01*
X53606190Y-26554122D01*
X53475900Y-26623762D01*
X53334526Y-26666648D01*
X53187500Y-26681128D01*
X53040473Y-26666648D01*
X52899099Y-26623762D01*
X52768806Y-26554120D01*
X52654607Y-26460399D01*
X52560878Y-26346190D01*
X52491238Y-26215900D01*
X52448352Y-26074526D01*
X52437500Y-25964338D01*
X52437500Y-25190661D01*
X52448352Y-25080475D01*
X52491240Y-24939098D01*
X52560881Y-24808806D01*
X52654605Y-24694604D01*
X52768807Y-24600880D01*
X52899100Y-24531238D01*
X53040474Y-24488352D01*
X53187500Y-24473872D01*
X53334527Y-24488352D01*
X53334527Y-24488352D01*
G37*
G36*
X22425026Y-24121115D02*
X22643412Y-24211573D01*
X22839958Y-24342901D01*
X23007099Y-24510042D01*
X23138427Y-24706588D01*
X23228885Y-24924974D01*
X23275000Y-25156809D01*
X23275000Y-25393191D01*
X23228885Y-25625026D01*
X23138427Y-25843412D01*
X23007099Y-26039958D01*
X22839958Y-26207099D01*
X22643412Y-26338427D01*
X22425026Y-26428885D01*
X22193191Y-26475000D01*
X21956809Y-26475000D01*
X21724974Y-26428885D01*
X21506588Y-26338427D01*
X21310042Y-26207099D01*
X21142901Y-26039958D01*
X21011573Y-25843412D01*
X20921115Y-25625026D01*
X20875000Y-25393191D01*
X20875000Y-25156809D01*
X20921115Y-24924974D01*
X21011573Y-24706588D01*
X21142901Y-24510042D01*
X21310042Y-24342901D01*
X21506588Y-24211573D01*
X21724974Y-24121115D01*
X21956809Y-24075000D01*
X22193191Y-24075000D01*
X22425026Y-24121115D01*
X22425026Y-24121115D01*
G37*
G36*
X35850026Y-24096115D02*
X36068412Y-24186573D01*
X36264958Y-24317901D01*
X36432099Y-24485042D01*
X36563427Y-24681588D01*
X36653885Y-24899974D01*
X36700000Y-25131809D01*
X36700000Y-25368191D01*
X36653885Y-25600026D01*
X36563427Y-25818412D01*
X36432099Y-26014958D01*
X36264958Y-26182099D01*
X36068412Y-26313427D01*
X35850026Y-26403885D01*
X35618191Y-26450000D01*
X35381809Y-26450000D01*
X35149974Y-26403885D01*
X34931588Y-26313427D01*
X34735042Y-26182099D01*
X34567901Y-26014958D01*
X34436573Y-25818412D01*
X34346115Y-25600026D01*
X34300000Y-25368191D01*
X34300000Y-25131809D01*
X34346115Y-24899974D01*
X34436573Y-24681588D01*
X34567901Y-24485042D01*
X34735042Y-24317901D01*
X34931588Y-24186573D01*
X35149974Y-24096115D01*
X35381809Y-24050000D01*
X35618191Y-24050000D01*
X35850026Y-24096115D01*
X35850026Y-24096115D01*
G37*
G36*
X44817500Y-25217500D02*
X40417500Y-25217500D01*
X40417500Y-22607500D01*
X44817500Y-22607500D01*
X44817500Y-25217500D01*
X44817500Y-25217500D01*
G37*
G36*
X29150026Y-21296115D02*
X29368412Y-21386573D01*
X29564958Y-21517901D01*
X29732099Y-21685042D01*
X29863427Y-21881588D01*
X29953885Y-22099974D01*
X30000000Y-22331809D01*
X30000000Y-22568191D01*
X29953885Y-22800026D01*
X29863427Y-23018412D01*
X29732099Y-23214958D01*
X29564958Y-23382099D01*
X29368412Y-23513427D01*
X29150026Y-23603885D01*
X28918191Y-23650000D01*
X28681809Y-23650000D01*
X28449974Y-23603885D01*
X28231588Y-23513427D01*
X28035042Y-23382099D01*
X27867901Y-23214958D01*
X27736573Y-23018412D01*
X27646115Y-22800026D01*
X27600000Y-22568191D01*
X27600000Y-22331809D01*
X27646115Y-22099974D01*
X27736573Y-21881588D01*
X27867901Y-21685042D01*
X28035042Y-21517901D01*
X28231588Y-21386573D01*
X28449974Y-21296115D01*
X28681809Y-21250000D01*
X28918191Y-21250000D01*
X29150026Y-21296115D01*
X29150026Y-21296115D01*
G37*
M02*
