G04 #@! TF.GenerationSoftware,KiCad,Pcbnew,5.0.2+dfsg1-1*
G04 #@! TF.CreationDate,2019-10-24T09:01:44+03:00*
G04 #@! TF.ProjectId,ERG-T-04,4552472d-542d-4303-942e-6b696361645f,rev?*
G04 #@! TF.SameCoordinates,Original*
G04 #@! TF.FileFunction,Copper,L2,Bot*
G04 #@! TF.FilePolarity,Positive*
%FSLAX46Y46*%
G04 Gerber Fmt 4.6, Leading zero omitted, Abs format (unit mm)*
G04 Created by KiCad (PCBNEW 5.0.2+dfsg1-1) date Чт 24 окт 2019 09:01:44*
%MOMM*%
%LPD*%
G01*
G04 APERTURE LIST*
G04 #@! TA.AperFunction,ComponentPad*
%ADD10C,2.000000*%
G04 #@! TD*
G04 #@! TA.AperFunction,ComponentPad*
%ADD11C,3.000000*%
G04 #@! TD*
G04 #@! TA.AperFunction,SMDPad,CuDef*
%ADD12R,0.450000X1.500000*%
G04 #@! TD*
G04 #@! TA.AperFunction,ComponentPad*
%ADD13C,1.600000*%
G04 #@! TD*
G04 #@! TA.AperFunction,ComponentPad*
%ADD14O,1.600000X1.600000*%
G04 #@! TD*
G04 #@! TA.AperFunction,SMDPad,CuDef*
%ADD15R,1.500000X0.500000*%
G04 #@! TD*
G04 #@! TA.AperFunction,SMDPad,CuDef*
%ADD16R,1.250000X1.000000*%
G04 #@! TD*
G04 #@! TA.AperFunction,ComponentPad*
%ADD17O,1.100000X2.200000*%
G04 #@! TD*
G04 #@! TA.AperFunction,ComponentPad*
%ADD18R,1.100000X2.200000*%
G04 #@! TD*
G04 #@! TA.AperFunction,SMDPad,CuDef*
%ADD19R,0.700000X1.300000*%
G04 #@! TD*
G04 #@! TA.AperFunction,SMDPad,CuDef*
%ADD20R,1.450000X0.450000*%
G04 #@! TD*
G04 #@! TA.AperFunction,SMDPad,CuDef*
%ADD21R,1.000000X1.250000*%
G04 #@! TD*
G04 #@! TA.AperFunction,ComponentPad*
%ADD22C,1.500000*%
G04 #@! TD*
G04 #@! TA.AperFunction,ComponentPad*
%ADD23C,1.000000*%
G04 #@! TD*
G04 #@! TA.AperFunction,SMDPad,CuDef*
%ADD24R,0.900000X0.800000*%
G04 #@! TD*
G04 #@! TA.AperFunction,ViaPad*
%ADD25C,1.000000*%
G04 #@! TD*
G04 #@! TA.AperFunction,SMDPad,CuDef*
%ADD26R,4.000000X1.000000*%
G04 #@! TD*
G04 #@! TA.AperFunction,ComponentPad*
%ADD27C,1.800000*%
G04 #@! TD*
G04 #@! TA.AperFunction,SMDPad,CuDef*
%ADD28R,0.250000X1.300000*%
G04 #@! TD*
G04 #@! TA.AperFunction,SMDPad,CuDef*
%ADD29R,1.300000X0.250000*%
G04 #@! TD*
G04 #@! TA.AperFunction,ComponentPad*
%ADD30O,1.100000X1.800000*%
G04 #@! TD*
G04 #@! TA.AperFunction,ComponentPad*
%ADD31C,1.400000*%
G04 #@! TD*
G04 #@! TA.AperFunction,SMDPad,CuDef*
%ADD32R,1.200000X1.200000*%
G04 #@! TD*
G04 #@! TA.AperFunction,ViaPad*
%ADD33C,0.600000*%
G04 #@! TD*
G04 #@! TA.AperFunction,Conductor*
%ADD34C,0.200000*%
G04 #@! TD*
G04 #@! TA.AperFunction,Conductor*
%ADD35C,0.250000*%
G04 #@! TD*
G04 #@! TA.AperFunction,Conductor*
%ADD36C,0.400000*%
G04 #@! TD*
G04 #@! TA.AperFunction,Conductor*
%ADD37C,0.500000*%
G04 #@! TD*
G04 #@! TA.AperFunction,Conductor*
%ADD38C,0.150000*%
G04 #@! TD*
G04 #@! TA.AperFunction,Conductor*
%ADD39C,0.300000*%
G04 #@! TD*
G04 #@! TA.AperFunction,Conductor*
%ADD40C,0.700000*%
G04 #@! TD*
G04 #@! TA.AperFunction,Conductor*
%ADD41C,0.650000*%
G04 #@! TD*
G04 #@! TA.AperFunction,Conductor*
%ADD42C,0.600000*%
G04 #@! TD*
G04 #@! TA.AperFunction,Conductor*
%ADD43C,1.000000*%
G04 #@! TD*
G04 #@! TA.AperFunction,Conductor*
%ADD44C,0.800000*%
G04 #@! TD*
G04 #@! TA.AperFunction,Conductor*
%ADD45C,5.000000*%
G04 #@! TD*
G04 #@! TA.AperFunction,Conductor*
%ADD46C,1.200000*%
G04 #@! TD*
G04 APERTURE END LIST*
D10*
G04 #@! TO.P,P1,1*
G04 #@! TO.N,N/C*
X19300000Y-31950000D03*
G04 #@! TD*
G04 #@! TO.P,P1,1*
G04 #@! TO.N,N/C*
X38300000Y-31950000D03*
G04 #@! TD*
G04 #@! TO.P,P1,1*
G04 #@! TO.N,N/C*
X28800000Y-22450000D03*
G04 #@! TD*
G04 #@! TO.P,P1,1*
G04 #@! TO.N,N/C*
X35500000Y-25250000D03*
G04 #@! TD*
G04 #@! TO.P,P1,1*
G04 #@! TO.N,N/C*
X22000000Y-38600000D03*
G04 #@! TD*
G04 #@! TO.P,P1,1*
G04 #@! TO.N,N/C*
X28800000Y-41450000D03*
G04 #@! TD*
G04 #@! TO.P,P1,1*
G04 #@! TO.N,N/C*
X35525000Y-38625000D03*
G04 #@! TD*
G04 #@! TO.P,P1,1*
G04 #@! TO.N,N/C*
X22075000Y-25275000D03*
G04 #@! TD*
G04 #@! TO.P,P1,1*
G04 #@! TO.N,N/C*
X19800000Y-61950000D03*
G04 #@! TD*
G04 #@! TO.P,P1,1*
G04 #@! TO.N,N/C*
X38800000Y-61950000D03*
G04 #@! TD*
G04 #@! TO.P,P1,1*
G04 #@! TO.N,N/C*
X29300000Y-52450000D03*
G04 #@! TD*
G04 #@! TO.P,P1,1*
G04 #@! TO.N,N/C*
X36000000Y-55250000D03*
G04 #@! TD*
G04 #@! TO.P,P1,1*
G04 #@! TO.N,N/C*
X22500000Y-68600000D03*
G04 #@! TD*
G04 #@! TO.P,P1,1*
G04 #@! TO.N,N/C*
X29300000Y-71450000D03*
G04 #@! TD*
G04 #@! TO.P,P1,1*
G04 #@! TO.N,N/C*
X36025000Y-68625000D03*
G04 #@! TD*
G04 #@! TO.P,P1,1*
G04 #@! TO.N,N/C*
X22575000Y-55275000D03*
G04 #@! TD*
G04 #@! TO.P,P1,1*
G04 #@! TO.N,N/C*
X120300000Y-76950000D03*
G04 #@! TD*
G04 #@! TO.P,P1,1*
G04 #@! TO.N,N/C*
X139300000Y-76950000D03*
G04 #@! TD*
G04 #@! TO.P,P1,1*
G04 #@! TO.N,N/C*
X129800000Y-67450000D03*
G04 #@! TD*
G04 #@! TO.P,P1,1*
G04 #@! TO.N,N/C*
X136500000Y-70250000D03*
G04 #@! TD*
G04 #@! TO.P,P1,1*
G04 #@! TO.N,N/C*
X123000000Y-83600000D03*
G04 #@! TD*
G04 #@! TO.P,P1,1*
G04 #@! TO.N,N/C*
X129800000Y-86450000D03*
G04 #@! TD*
G04 #@! TO.P,P1,1*
G04 #@! TO.N,N/C*
X136525000Y-83625000D03*
G04 #@! TD*
G04 #@! TO.P,P1,1*
G04 #@! TO.N,N/C*
X123075000Y-70275000D03*
G04 #@! TD*
G04 #@! TO.P,P1,1*
G04 #@! TO.N,/GND*
X123075000Y-40275000D03*
G04 #@! TD*
G04 #@! TO.P,P1,1*
G04 #@! TO.N,/GND*
X136525000Y-53625000D03*
G04 #@! TD*
G04 #@! TO.P,P1,1*
G04 #@! TO.N,/GND*
X129800000Y-56450000D03*
G04 #@! TD*
G04 #@! TO.P,P1,1*
G04 #@! TO.N,/GND*
X123000000Y-53600000D03*
G04 #@! TD*
G04 #@! TO.P,P1,1*
G04 #@! TO.N,/GND*
X136500000Y-40250000D03*
G04 #@! TD*
G04 #@! TO.P,P1,1*
G04 #@! TO.N,/GND*
X129800000Y-37450000D03*
G04 #@! TD*
G04 #@! TO.P,P1,1*
G04 #@! TO.N,/GND*
X139300000Y-46950000D03*
G04 #@! TD*
G04 #@! TO.P,P1,1*
G04 #@! TO.N,/GND*
X120300000Y-46950000D03*
G04 #@! TD*
D11*
G04 #@! TO.P,P5,2*
G04 #@! TO.N,N/C*
X28800000Y-31950000D03*
G04 #@! TD*
G04 #@! TO.P,P5,2*
G04 #@! TO.N,N/C*
X29300000Y-61950000D03*
G04 #@! TD*
G04 #@! TO.P,P5,2*
G04 #@! TO.N,N/C*
X129800000Y-76950000D03*
G04 #@! TD*
D12*
G04 #@! TO.P,U2,1*
G04 #@! TO.N,N/C*
X82410000Y-57105000D03*
G04 #@! TO.P,U2,2*
X83060000Y-57105000D03*
G04 #@! TO.P,U2,3*
X83710000Y-57105000D03*
G04 #@! TO.P,U2,4*
X84360000Y-57105000D03*
G04 #@! TO.P,U2,5*
X85010000Y-57105000D03*
G04 #@! TO.P,U2,6*
X85660000Y-57105000D03*
G04 #@! TO.P,U2,7*
X86310000Y-57105000D03*
G04 #@! TO.P,U2,8*
X86960000Y-57105000D03*
G04 #@! TO.P,U2,9*
X86960000Y-63005000D03*
G04 #@! TO.P,U2,10*
X86310000Y-63005000D03*
G04 #@! TO.P,U2,11*
X85660000Y-63005000D03*
G04 #@! TO.P,U2,12*
X85010000Y-63005000D03*
G04 #@! TO.P,U2,13*
X84360000Y-63005000D03*
G04 #@! TO.P,U2,14*
X83710000Y-63005000D03*
G04 #@! TO.P,U2,15*
X83060000Y-63005000D03*
G04 #@! TO.P,U2,16*
X82410000Y-63005000D03*
G04 #@! TD*
D13*
G04 #@! TO.P,R17,1*
G04 #@! TO.N,N/C*
X98580000Y-56755000D03*
D14*
G04 #@! TO.P,R17,2*
X98580000Y-66915000D03*
G04 #@! TD*
D15*
G04 #@! TO.P,R14,2*
G04 #@! TO.N,N/C*
X26527500Y-77357500D03*
G04 #@! TO.P,R14,1*
X26527500Y-76457500D03*
G04 #@! TD*
G04 #@! TO.P,R16,2*
G04 #@! TO.N,N/C*
X30597500Y-77327500D03*
G04 #@! TO.P,R16,1*
X30597500Y-76427500D03*
G04 #@! TD*
D16*
G04 #@! TO.P,C23,1*
G04 #@! TO.N,N/C*
X60067500Y-59407500D03*
G04 #@! TO.P,C23,2*
X60067500Y-61407500D03*
G04 #@! TD*
D17*
G04 #@! TO.P,C21,2*
G04 #@! TO.N,N/C*
X112657500Y-76857500D03*
D18*
G04 #@! TO.P,C21,1*
X102657500Y-76857500D03*
G04 #@! TD*
D13*
G04 #@! TO.P,R15,1*
G04 #@! TO.N,N/C*
X94780000Y-56755000D03*
D14*
G04 #@! TO.P,R15,2*
X94780000Y-66915000D03*
G04 #@! TD*
D19*
G04 #@! TO.P,R19,1*
G04 #@! TO.N,N/C*
X58367500Y-59417500D03*
G04 #@! TO.P,R19,2*
X56467500Y-59417500D03*
G04 #@! TD*
D20*
G04 #@! TO.P,IC2,8*
G04 #@! TO.N,N/C*
X98457500Y-80502500D03*
G04 #@! TO.P,IC2,7*
X98457500Y-81152500D03*
G04 #@! TO.P,IC2,6*
X98457500Y-81802500D03*
G04 #@! TO.P,IC2,5*
X98457500Y-82452500D03*
G04 #@! TO.P,IC2,4*
X102857500Y-82452500D03*
G04 #@! TO.P,IC2,3*
X102857500Y-81802500D03*
G04 #@! TO.P,IC2,2*
X102857500Y-81152500D03*
G04 #@! TO.P,IC2,1*
X102857500Y-80502500D03*
G04 #@! TD*
D21*
G04 #@! TO.P,C20,2*
G04 #@! TO.N,N/C*
X89704000Y-72162000D03*
G04 #@! TO.P,C20,1*
X87704000Y-72162000D03*
G04 #@! TD*
D16*
G04 #@! TO.P,C19,2*
G04 #@! TO.N,N/C*
X88750000Y-82560000D03*
G04 #@! TO.P,C19,1*
X88750000Y-80560000D03*
G04 #@! TD*
D21*
G04 #@! TO.P,C16,2*
G04 #@! TO.N,N/C*
X77450000Y-82160000D03*
G04 #@! TO.P,C16,1*
X79450000Y-82160000D03*
G04 #@! TD*
D19*
G04 #@! TO.P,R7,2*
G04 #@! TO.N,N/C*
X100767500Y-73227500D03*
G04 #@! TO.P,R7,1*
X98867500Y-73227500D03*
G04 #@! TD*
G04 #@! TO.P,R6,2*
G04 #@! TO.N,N/C*
X98867500Y-75737500D03*
G04 #@! TO.P,R6,1*
X100767500Y-75737500D03*
G04 #@! TD*
G04 #@! TO.P,R5,2*
G04 #@! TO.N,N/C*
X95767500Y-73857500D03*
G04 #@! TO.P,R5,1*
X97667500Y-73857500D03*
G04 #@! TD*
G04 #@! TO.P,R4,2*
G04 #@! TO.N,N/C*
X92667500Y-75757500D03*
G04 #@! TO.P,R4,1*
X94567500Y-75757500D03*
G04 #@! TD*
G04 #@! TO.P,R3,2*
G04 #@! TO.N,N/C*
X94567500Y-73857500D03*
G04 #@! TO.P,R3,1*
X92667500Y-73857500D03*
G04 #@! TD*
G04 #@! TO.P,R2,2*
G04 #@! TO.N,N/C*
X94567500Y-71957500D03*
G04 #@! TO.P,R2,1*
X92667500Y-71957500D03*
G04 #@! TD*
G04 #@! TO.P,R1,2*
G04 #@! TO.N,N/C*
X94207500Y-78277500D03*
G04 #@! TO.P,R1,1*
X92307500Y-78277500D03*
G04 #@! TD*
D16*
G04 #@! TO.P,C17,2*
G04 #@! TO.N,N/C*
X73255000Y-71160000D03*
G04 #@! TO.P,C17,1*
X73255000Y-73160000D03*
G04 #@! TD*
G04 #@! TO.P,C15,2*
G04 #@! TO.N,N/C*
X75155000Y-71160000D03*
G04 #@! TO.P,C15,1*
X75155000Y-73160000D03*
G04 #@! TD*
D21*
G04 #@! TO.P,C7,2*
G04 #@! TO.N,N/C*
X77550000Y-72360000D03*
G04 #@! TO.P,C7,1*
X79550000Y-72360000D03*
G04 #@! TD*
D16*
G04 #@! TO.P,C4,2*
G04 #@! TO.N,N/C*
X92475000Y-82360000D03*
G04 #@! TO.P,C4,1*
X92475000Y-80360000D03*
G04 #@! TD*
G04 #@! TO.P,C2,2*
G04 #@! TO.N,N/C*
X94525000Y-82360000D03*
G04 #@! TO.P,C2,1*
X94525000Y-80360000D03*
G04 #@! TD*
D22*
G04 #@! TO.P,8MHz1,2*
G04 #@! TO.N,N/C*
X90837500Y-79217500D03*
G04 #@! TO.P,8MHz1,1*
X95717500Y-79217500D03*
G04 #@! TD*
D14*
G04 #@! TO.P,R13,2*
G04 #@! TO.N,N/C*
X61755000Y-71800000D03*
D13*
G04 #@! TO.P,R13,1*
X61755000Y-81960000D03*
G04 #@! TD*
D14*
G04 #@! TO.P,R11,2*
G04 #@! TO.N,N/C*
X65555000Y-71800000D03*
D13*
G04 #@! TO.P,R11,1*
X65555000Y-81960000D03*
G04 #@! TD*
D14*
G04 #@! TO.P,R10,2*
G04 #@! TO.N,N/C*
X67455000Y-81920000D03*
D13*
G04 #@! TO.P,R10,1*
X67455000Y-71760000D03*
G04 #@! TD*
D23*
G04 #@! TO.P,32.768,2*
G04 #@! TO.N,N/C*
X91250000Y-75110000D03*
G04 #@! TO.P,32.768,1*
X91250000Y-73210000D03*
G04 #@! TD*
D24*
G04 #@! TO.P,Q1,3*
G04 #@! TO.N,N/C*
X110242500Y-72307500D03*
G04 #@! TO.P,Q1,2*
X112242500Y-73257500D03*
G04 #@! TO.P,Q1,1*
X112242500Y-71357500D03*
G04 #@! TD*
D25*
G04 #@! TO.N,N/C*
G04 #@! TO.C,PD4*
X115317500Y-68307500D03*
D26*
G04 #@! TD*
G04 #@! TO.P,PD4,2*
G04 #@! TO.N,N/C*
X115817500Y-68307500D03*
D25*
G04 #@! TO.N,N/C*
G04 #@! TO.C,PD4*
X114317500Y-68307500D03*
X116317500Y-68307500D03*
X117317500Y-68307500D03*
G04 #@! TD*
G04 #@! TO.N,N/C*
G04 #@! TO.C,PD1*
X115317500Y-69517500D03*
D26*
G04 #@! TD*
G04 #@! TO.P,PD1,2*
G04 #@! TO.N,N/C*
X115817500Y-69517500D03*
D25*
G04 #@! TO.N,N/C*
G04 #@! TO.C,PD1*
X114317500Y-69517500D03*
X116317500Y-69517500D03*
X117317500Y-69517500D03*
G04 #@! TD*
G04 #@! TO.N,N/C*
G04 #@! TO.C,PD2*
X115317500Y-84197500D03*
D26*
G04 #@! TD*
G04 #@! TO.P,PD2,2*
G04 #@! TO.N,N/C*
X115817500Y-84197500D03*
D25*
G04 #@! TO.N,N/C*
G04 #@! TO.C,PD2*
X114317500Y-84197500D03*
X116317500Y-84197500D03*
X117317500Y-84197500D03*
G04 #@! TD*
G04 #@! TO.N,N/C*
G04 #@! TO.C,PD3*
X115317500Y-85407500D03*
D26*
G04 #@! TD*
G04 #@! TO.P,PD3,2*
G04 #@! TO.N,N/C*
X115817500Y-85407500D03*
D25*
G04 #@! TO.N,N/C*
G04 #@! TO.C,PD3*
X114317500Y-85407500D03*
X116317500Y-85407500D03*
X117317500Y-85407500D03*
G04 #@! TD*
D27*
G04 #@! TO.P,P6,1*
G04 #@! TO.N,N/C*
X110410000Y-70184000D03*
G04 #@! TD*
G04 #@! TO.P,P5,1*
G04 #@! TO.N,N/C*
X105330000Y-70184000D03*
G04 #@! TD*
G04 #@! TO.P,P4,1*
G04 #@! TO.N,N/C*
X107870000Y-70184000D03*
G04 #@! TD*
D28*
G04 #@! TO.P,SPI1-CS1,48*
G04 #@! TO.N,N/C*
X86400000Y-72410000D03*
G04 #@! TO.P,SPI1-CS1,47*
X85900000Y-72410000D03*
G04 #@! TO.P,SPI1-CS1,46*
X85400000Y-72410000D03*
G04 #@! TO.P,SPI1-CS1,45*
X84900000Y-72410000D03*
G04 #@! TO.P,SPI1-CS1,44*
X84400000Y-72410000D03*
G04 #@! TO.P,SPI1-CS1,43*
X83900000Y-72410000D03*
G04 #@! TO.P,SPI1-CS1,42*
X83400000Y-72410000D03*
G04 #@! TO.P,SPI1-CS1,41*
X82900000Y-72410000D03*
G04 #@! TO.P,SPI1-CS1,40*
X82400000Y-72410000D03*
G04 #@! TO.P,SPI1-CS1,39*
X81900000Y-72410000D03*
G04 #@! TO.P,SPI1-CS1,38*
X81400000Y-72410000D03*
G04 #@! TO.P,SPI1-CS1,37*
X80900000Y-72410000D03*
D29*
G04 #@! TO.P,SPI1-CS1,36*
X79300000Y-74010000D03*
G04 #@! TO.P,SPI1-CS1,35*
X79300000Y-74510000D03*
G04 #@! TO.P,SPI1-CS1,34*
X79300000Y-75010000D03*
G04 #@! TO.P,SPI1-CS1,33*
X79300000Y-75510000D03*
G04 #@! TO.P,SPI1-CS1,32*
X79300000Y-76010000D03*
G04 #@! TO.P,SPI1-CS1,31*
X79300000Y-76510000D03*
G04 #@! TO.P,SPI1-CS1,30*
X79300000Y-77010000D03*
G04 #@! TO.P,SPI1-CS1,29*
X79300000Y-77510000D03*
G04 #@! TO.P,SPI1-CS1,28*
X79300000Y-78010000D03*
G04 #@! TO.P,SPI1-CS1,27*
X79300000Y-78510000D03*
G04 #@! TO.P,SPI1-CS1,26*
X79300000Y-79010000D03*
G04 #@! TO.P,SPI1-CS1,25*
X79300000Y-79510000D03*
D28*
G04 #@! TO.P,SPI1-CS1,24*
X80900000Y-81110000D03*
G04 #@! TO.P,SPI1-CS1,23*
X81400000Y-81110000D03*
G04 #@! TO.P,SPI1-CS1,22*
X81900000Y-81110000D03*
G04 #@! TO.P,SPI1-CS1,21*
X82400000Y-81110000D03*
G04 #@! TO.P,SPI1-CS1,20*
X82900000Y-81110000D03*
G04 #@! TO.P,SPI1-CS1,19*
X83400000Y-81110000D03*
G04 #@! TO.P,SPI1-CS1,18*
X83900000Y-81110000D03*
G04 #@! TO.P,SPI1-CS1,17*
X84400000Y-81110000D03*
G04 #@! TO.P,SPI1-CS1,16*
X84900000Y-81110000D03*
G04 #@! TO.P,SPI1-CS1,15*
X85400000Y-81110000D03*
G04 #@! TO.P,SPI1-CS1,14*
X85900000Y-81110000D03*
G04 #@! TO.P,SPI1-CS1,13*
X86400000Y-81110000D03*
D29*
G04 #@! TO.P,SPI1-CS1,12*
X88000000Y-79510000D03*
G04 #@! TO.P,SPI1-CS1,11*
X88000000Y-79010000D03*
G04 #@! TO.P,SPI1-CS1,10*
X88000000Y-78510000D03*
G04 #@! TO.P,SPI1-CS1,9*
X88000000Y-78010000D03*
G04 #@! TO.P,SPI1-CS1,8*
X88000000Y-77510000D03*
G04 #@! TO.P,SPI1-CS1,7*
X88000000Y-77010000D03*
G04 #@! TO.P,SPI1-CS1,6*
X88000000Y-76510000D03*
G04 #@! TO.P,SPI1-CS1,5*
X88000000Y-76010000D03*
G04 #@! TO.P,SPI1-CS1,4*
X88000000Y-75510000D03*
G04 #@! TO.P,SPI1-CS1,3*
X88000000Y-75010000D03*
G04 #@! TO.P,SPI1-CS1,2*
X88000000Y-74510000D03*
G04 #@! TO.P,SPI1-CS1,1*
X88000000Y-74010000D03*
G04 #@! TD*
D30*
G04 #@! TO.P,P1,6*
G04 #@! TO.N,N/C*
X112247500Y-83137500D03*
X105247500Y-83137500D03*
D31*
X111247500Y-80437500D03*
X106247500Y-80437500D03*
G04 #@! TD*
D32*
G04 #@! TO.P,D2,1*
G04 #@! TO.N,N/C*
X109217500Y-83007500D03*
G04 #@! TO.P,D2,2*
X107017500Y-83007500D03*
G04 #@! TD*
D14*
G04 #@! TO.P,R18,2*
G04 #@! TO.N,N/C*
X69355000Y-81920000D03*
D13*
G04 #@! TO.P,R18,1*
X69355000Y-71760000D03*
G04 #@! TD*
D19*
G04 #@! TO.P,R9,2*
G04 #@! TO.N,N/C*
X97657500Y-75737500D03*
G04 #@! TO.P,R9,1*
X95757500Y-75737500D03*
G04 #@! TD*
G04 #@! TO.P,R19,2*
G04 #@! TO.N,N/C*
X101967500Y-79297500D03*
G04 #@! TO.P,R19,1*
X100067500Y-79297500D03*
G04 #@! TD*
D16*
G04 #@! TO.P,C23,2*
G04 #@! TO.N,N/C*
X98367500Y-77307500D03*
G04 #@! TO.P,C23,1*
X98367500Y-79307500D03*
G04 #@! TD*
D14*
G04 #@! TO.P,R15,2*
G04 #@! TO.N,N/C*
X63655000Y-71800000D03*
D13*
G04 #@! TO.P,R15,1*
X63655000Y-81960000D03*
G04 #@! TD*
D14*
G04 #@! TO.P,R17,2*
G04 #@! TO.N,N/C*
X59855000Y-71800000D03*
D13*
G04 #@! TO.P,R17,1*
X59855000Y-81960000D03*
G04 #@! TD*
D15*
G04 #@! TO.P,R14,1*
G04 #@! TO.N,N/C*
X131907500Y-62257500D03*
G04 #@! TO.P,R14,2*
X131907500Y-61357500D03*
G04 #@! TD*
G04 #@! TO.P,R16,1*
G04 #@! TO.N,N/C*
X127837500Y-62287500D03*
G04 #@! TO.P,R16,2*
X127837500Y-61387500D03*
G04 #@! TD*
D18*
G04 #@! TO.P,C21,1*
G04 #@! TO.N,N/C*
X55777500Y-61857500D03*
D17*
G04 #@! TO.P,C21,2*
X45777500Y-61857500D03*
G04 #@! TD*
D20*
G04 #@! TO.P,IC2,1*
G04 #@! TO.N,N/C*
X55577500Y-58212500D03*
G04 #@! TO.P,IC2,2*
X55577500Y-57562500D03*
G04 #@! TO.P,IC2,3*
X55577500Y-56912500D03*
G04 #@! TO.P,IC2,4*
X55577500Y-56262500D03*
G04 #@! TO.P,IC2,5*
X59977500Y-56262500D03*
G04 #@! TO.P,IC2,6*
X59977500Y-56912500D03*
G04 #@! TO.P,IC2,7*
X59977500Y-57562500D03*
G04 #@! TO.P,IC2,8*
X59977500Y-58212500D03*
G04 #@! TD*
D21*
G04 #@! TO.P,C20,1*
G04 #@! TO.N,N/C*
X70731000Y-66553000D03*
G04 #@! TO.P,C20,2*
X68731000Y-66553000D03*
G04 #@! TD*
D16*
G04 #@! TO.P,C19,1*
G04 #@! TO.N,N/C*
X69685000Y-58155000D03*
G04 #@! TO.P,C19,2*
X69685000Y-56155000D03*
G04 #@! TD*
D21*
G04 #@! TO.P,C16,1*
G04 #@! TO.N,N/C*
X78985000Y-56555000D03*
G04 #@! TO.P,C16,2*
X80985000Y-56555000D03*
G04 #@! TD*
D19*
G04 #@! TO.P,R7,1*
G04 #@! TO.N,N/C*
X59567500Y-65487500D03*
G04 #@! TO.P,R7,2*
X57667500Y-65487500D03*
G04 #@! TD*
G04 #@! TO.P,R6,1*
G04 #@! TO.N,N/C*
X57667500Y-62977500D03*
G04 #@! TO.P,R6,2*
X59567500Y-62977500D03*
G04 #@! TD*
G04 #@! TO.P,R5,1*
G04 #@! TO.N,N/C*
X60767500Y-64857500D03*
G04 #@! TO.P,R5,2*
X62667500Y-64857500D03*
G04 #@! TD*
G04 #@! TO.P,R4,1*
G04 #@! TO.N,N/C*
X63867500Y-62957500D03*
G04 #@! TO.P,R4,2*
X65767500Y-62957500D03*
G04 #@! TD*
G04 #@! TO.P,R3,1*
G04 #@! TO.N,N/C*
X65767500Y-64857500D03*
G04 #@! TO.P,R3,2*
X63867500Y-64857500D03*
G04 #@! TD*
G04 #@! TO.P,R2,1*
G04 #@! TO.N,N/C*
X65767500Y-66757500D03*
G04 #@! TO.P,R2,2*
X63867500Y-66757500D03*
G04 #@! TD*
G04 #@! TO.P,R1,1*
G04 #@! TO.N,N/C*
X66127500Y-60437500D03*
G04 #@! TO.P,R1,2*
X64227500Y-60437500D03*
G04 #@! TD*
D16*
G04 #@! TO.P,C17,1*
G04 #@! TO.N,N/C*
X85180000Y-65555000D03*
G04 #@! TO.P,C17,2*
X85180000Y-67555000D03*
G04 #@! TD*
G04 #@! TO.P,C15,1*
G04 #@! TO.N,N/C*
X83280000Y-65555000D03*
G04 #@! TO.P,C15,2*
X83280000Y-67555000D03*
G04 #@! TD*
D21*
G04 #@! TO.P,C7,1*
G04 #@! TO.N,N/C*
X78885000Y-66355000D03*
G04 #@! TO.P,C7,2*
X80885000Y-66355000D03*
G04 #@! TD*
D16*
G04 #@! TO.P,C4,1*
G04 #@! TO.N,N/C*
X65960000Y-58355000D03*
G04 #@! TO.P,C4,2*
X65960000Y-56355000D03*
G04 #@! TD*
G04 #@! TO.P,C2,1*
G04 #@! TO.N,N/C*
X63910000Y-58355000D03*
G04 #@! TO.P,C2,2*
X63910000Y-56355000D03*
G04 #@! TD*
D22*
G04 #@! TO.P,8MHz1,1*
G04 #@! TO.N,N/C*
X62717500Y-59497500D03*
G04 #@! TO.P,8MHz1,2*
X67597500Y-59497500D03*
G04 #@! TD*
D13*
G04 #@! TO.P,R13,1*
G04 #@! TO.N,N/C*
X96680000Y-56755000D03*
D14*
G04 #@! TO.P,R13,2*
X96680000Y-66915000D03*
G04 #@! TD*
D13*
G04 #@! TO.P,R11,1*
G04 #@! TO.N,N/C*
X92880000Y-56755000D03*
D14*
G04 #@! TO.P,R11,2*
X92880000Y-66915000D03*
G04 #@! TD*
D13*
G04 #@! TO.P,R10,1*
G04 #@! TO.N,N/C*
X90980000Y-66955000D03*
D14*
G04 #@! TO.P,R10,2*
X90980000Y-56795000D03*
G04 #@! TD*
D23*
G04 #@! TO.P,32.768,1*
G04 #@! TO.N,N/C*
X67185000Y-65505000D03*
G04 #@! TO.P,32.768,2*
X67185000Y-63605000D03*
G04 #@! TD*
D32*
G04 #@! TO.P,D2,2*
G04 #@! TO.N,N/C*
X51417500Y-55707500D03*
G04 #@! TO.P,D2,1*
X49217500Y-55707500D03*
G04 #@! TD*
D13*
G04 #@! TO.P,R18,1*
G04 #@! TO.N,N/C*
X89080000Y-66955000D03*
D14*
G04 #@! TO.P,R18,2*
X89080000Y-56795000D03*
G04 #@! TD*
D19*
G04 #@! TO.P,R9,1*
G04 #@! TO.N,N/C*
X62677500Y-62977500D03*
G04 #@! TO.P,R9,2*
X60777500Y-62977500D03*
G04 #@! TD*
D24*
G04 #@! TO.P,Q1,1*
G04 #@! TO.N,N/C*
X46192500Y-67357500D03*
G04 #@! TO.P,Q1,2*
X46192500Y-65457500D03*
G04 #@! TO.P,Q1,3*
X48192500Y-66407500D03*
G04 #@! TD*
D25*
G04 #@! TO.N,N/C*
G04 #@! TO.C,PD4*
X41117500Y-70407500D03*
X42117500Y-70407500D03*
X44117500Y-70407500D03*
D26*
G04 #@! TD*
G04 #@! TO.P,PD4,2*
G04 #@! TO.N,N/C*
X42617500Y-70407500D03*
D25*
G04 #@! TO.N,N/C*
G04 #@! TO.C,PD4*
X43117500Y-70407500D03*
G04 #@! TD*
G04 #@! TO.N,N/C*
G04 #@! TO.C,PD1*
X41117500Y-69197500D03*
X42117500Y-69197500D03*
X44117500Y-69197500D03*
D26*
G04 #@! TD*
G04 #@! TO.P,PD1,2*
G04 #@! TO.N,N/C*
X42617500Y-69197500D03*
D25*
G04 #@! TO.N,N/C*
G04 #@! TO.C,PD1*
X43117500Y-69197500D03*
G04 #@! TD*
G04 #@! TO.N,N/C*
G04 #@! TO.C,PD2*
X41117500Y-54517500D03*
X42117500Y-54517500D03*
X44117500Y-54517500D03*
D26*
G04 #@! TD*
G04 #@! TO.P,PD2,2*
G04 #@! TO.N,N/C*
X42617500Y-54517500D03*
D25*
G04 #@! TO.N,N/C*
G04 #@! TO.C,PD2*
X43117500Y-54517500D03*
G04 #@! TD*
G04 #@! TO.N,N/C*
G04 #@! TO.C,PD3*
X41117500Y-53307500D03*
X42117500Y-53307500D03*
X44117500Y-53307500D03*
D26*
G04 #@! TD*
G04 #@! TO.P,PD3,2*
G04 #@! TO.N,N/C*
X42617500Y-53307500D03*
D25*
G04 #@! TO.N,N/C*
G04 #@! TO.C,PD3*
X43117500Y-53307500D03*
G04 #@! TD*
D27*
G04 #@! TO.P,P6,1*
G04 #@! TO.N,N/C*
X48025000Y-68531000D03*
G04 #@! TD*
G04 #@! TO.P,P5,1*
G04 #@! TO.N,N/C*
X53105000Y-68531000D03*
G04 #@! TD*
G04 #@! TO.P,P4,1*
G04 #@! TO.N,N/C*
X50565000Y-68531000D03*
G04 #@! TD*
D29*
G04 #@! TO.P,SPI1-CS1,1*
G04 #@! TO.N,N/C*
X70435000Y-64705000D03*
G04 #@! TO.P,SPI1-CS1,2*
X70435000Y-64205000D03*
G04 #@! TO.P,SPI1-CS1,3*
X70435000Y-63705000D03*
G04 #@! TO.P,SPI1-CS1,4*
X70435000Y-63205000D03*
G04 #@! TO.P,SPI1-CS1,5*
X70435000Y-62705000D03*
G04 #@! TO.P,SPI1-CS1,6*
X70435000Y-62205000D03*
G04 #@! TO.P,SPI1-CS1,7*
X70435000Y-61705000D03*
G04 #@! TO.P,SPI1-CS1,8*
X70435000Y-61205000D03*
G04 #@! TO.P,SPI1-CS1,9*
X70435000Y-60705000D03*
G04 #@! TO.P,SPI1-CS1,10*
X70435000Y-60205000D03*
G04 #@! TO.P,SPI1-CS1,11*
X70435000Y-59705000D03*
G04 #@! TO.P,SPI1-CS1,12*
X70435000Y-59205000D03*
D28*
G04 #@! TO.P,SPI1-CS1,13*
X72035000Y-57605000D03*
G04 #@! TO.P,SPI1-CS1,14*
X72535000Y-57605000D03*
G04 #@! TO.P,SPI1-CS1,15*
X73035000Y-57605000D03*
G04 #@! TO.P,SPI1-CS1,16*
X73535000Y-57605000D03*
G04 #@! TO.P,SPI1-CS1,17*
X74035000Y-57605000D03*
G04 #@! TO.P,SPI1-CS1,18*
X74535000Y-57605000D03*
G04 #@! TO.P,SPI1-CS1,19*
X75035000Y-57605000D03*
G04 #@! TO.P,SPI1-CS1,20*
X75535000Y-57605000D03*
G04 #@! TO.P,SPI1-CS1,21*
X76035000Y-57605000D03*
G04 #@! TO.P,SPI1-CS1,22*
X76535000Y-57605000D03*
G04 #@! TO.P,SPI1-CS1,23*
X77035000Y-57605000D03*
G04 #@! TO.P,SPI1-CS1,24*
X77535000Y-57605000D03*
D29*
G04 #@! TO.P,SPI1-CS1,25*
X79135000Y-59205000D03*
G04 #@! TO.P,SPI1-CS1,26*
X79135000Y-59705000D03*
G04 #@! TO.P,SPI1-CS1,27*
X79135000Y-60205000D03*
G04 #@! TO.P,SPI1-CS1,28*
X79135000Y-60705000D03*
G04 #@! TO.P,SPI1-CS1,29*
X79135000Y-61205000D03*
G04 #@! TO.P,SPI1-CS1,30*
X79135000Y-61705000D03*
G04 #@! TO.P,SPI1-CS1,31*
X79135000Y-62205000D03*
G04 #@! TO.P,SPI1-CS1,32*
X79135000Y-62705000D03*
G04 #@! TO.P,SPI1-CS1,33*
X79135000Y-63205000D03*
G04 #@! TO.P,SPI1-CS1,34*
X79135000Y-63705000D03*
G04 #@! TO.P,SPI1-CS1,35*
X79135000Y-64205000D03*
G04 #@! TO.P,SPI1-CS1,36*
X79135000Y-64705000D03*
D28*
G04 #@! TO.P,SPI1-CS1,37*
X77535000Y-66305000D03*
G04 #@! TO.P,SPI1-CS1,38*
X77035000Y-66305000D03*
G04 #@! TO.P,SPI1-CS1,39*
X76535000Y-66305000D03*
G04 #@! TO.P,SPI1-CS1,40*
X76035000Y-66305000D03*
G04 #@! TO.P,SPI1-CS1,41*
X75535000Y-66305000D03*
G04 #@! TO.P,SPI1-CS1,42*
X75035000Y-66305000D03*
G04 #@! TO.P,SPI1-CS1,43*
X74535000Y-66305000D03*
G04 #@! TO.P,SPI1-CS1,44*
X74035000Y-66305000D03*
G04 #@! TO.P,SPI1-CS1,45*
X73535000Y-66305000D03*
G04 #@! TO.P,SPI1-CS1,46*
X73035000Y-66305000D03*
G04 #@! TO.P,SPI1-CS1,47*
X72535000Y-66305000D03*
G04 #@! TO.P,SPI1-CS1,48*
X72035000Y-66305000D03*
G04 #@! TD*
D31*
G04 #@! TO.P,P1,6*
G04 #@! TO.N,N/C*
X52187500Y-58277500D03*
X47187500Y-58277500D03*
D30*
X53187500Y-55577500D03*
X46187500Y-55577500D03*
G04 #@! TD*
D12*
G04 #@! TO.P,U2,16*
G04 #@! TO.N,N/C*
X76025000Y-75710000D03*
G04 #@! TO.P,U2,15*
X75375000Y-75710000D03*
G04 #@! TO.P,U2,14*
X74725000Y-75710000D03*
G04 #@! TO.P,U2,13*
X74075000Y-75710000D03*
G04 #@! TO.P,U2,12*
X73425000Y-75710000D03*
G04 #@! TO.P,U2,11*
X72775000Y-75710000D03*
G04 #@! TO.P,U2,10*
X72125000Y-75710000D03*
G04 #@! TO.P,U2,9*
X71475000Y-75710000D03*
G04 #@! TO.P,U2,8*
X71475000Y-81610000D03*
G04 #@! TO.P,U2,7*
X72125000Y-81610000D03*
G04 #@! TO.P,U2,6*
X72775000Y-81610000D03*
G04 #@! TO.P,U2,5*
X73425000Y-81610000D03*
G04 #@! TO.P,U2,4*
X74075000Y-81610000D03*
G04 #@! TO.P,U2,3*
X74725000Y-81610000D03*
G04 #@! TO.P,U2,2*
X75375000Y-81610000D03*
G04 #@! TO.P,U2,1*
X76025000Y-81610000D03*
G04 #@! TD*
D15*
G04 #@! TO.P,R14,2*
G04 #@! TO.N,N/C*
X131907500Y-31357500D03*
G04 #@! TO.P,R14,1*
X131907500Y-32257500D03*
G04 #@! TD*
G04 #@! TO.P,R16,2*
G04 #@! TO.N,N/C*
X127837500Y-31387500D03*
G04 #@! TO.P,R16,1*
X127837500Y-32287500D03*
G04 #@! TD*
D17*
G04 #@! TO.P,C21,2*
G04 #@! TO.N,N/C*
X45777500Y-31857500D03*
D18*
G04 #@! TO.P,C21,1*
X55777500Y-31857500D03*
G04 #@! TD*
D20*
G04 #@! TO.P,IC2,8*
G04 #@! TO.N,N/C*
X59977500Y-28212500D03*
G04 #@! TO.P,IC2,7*
X59977500Y-27562500D03*
G04 #@! TO.P,IC2,6*
X59977500Y-26912500D03*
G04 #@! TO.P,IC2,5*
X59977500Y-26262500D03*
G04 #@! TO.P,IC2,4*
X55577500Y-26262500D03*
G04 #@! TO.P,IC2,3*
X55577500Y-26912500D03*
G04 #@! TO.P,IC2,2*
X55577500Y-27562500D03*
G04 #@! TO.P,IC2,1*
X55577500Y-28212500D03*
G04 #@! TD*
D21*
G04 #@! TO.P,C20,2*
G04 #@! TO.N,N/C*
X68731000Y-36553000D03*
G04 #@! TO.P,C20,1*
X70731000Y-36553000D03*
G04 #@! TD*
D16*
G04 #@! TO.P,C19,2*
G04 #@! TO.N,N/C*
X69685000Y-26155000D03*
G04 #@! TO.P,C19,1*
X69685000Y-28155000D03*
G04 #@! TD*
D21*
G04 #@! TO.P,C16,2*
G04 #@! TO.N,N/C*
X80985000Y-26555000D03*
G04 #@! TO.P,C16,1*
X78985000Y-26555000D03*
G04 #@! TD*
D19*
G04 #@! TO.P,R7,2*
G04 #@! TO.N,N/C*
X57667500Y-35487500D03*
G04 #@! TO.P,R7,1*
X59567500Y-35487500D03*
G04 #@! TD*
G04 #@! TO.P,R6,2*
G04 #@! TO.N,N/C*
X59567500Y-32977500D03*
G04 #@! TO.P,R6,1*
X57667500Y-32977500D03*
G04 #@! TD*
G04 #@! TO.P,R5,2*
G04 #@! TO.N,N/C*
X62667500Y-34857500D03*
G04 #@! TO.P,R5,1*
X60767500Y-34857500D03*
G04 #@! TD*
G04 #@! TO.P,R4,2*
G04 #@! TO.N,N/C*
X65767500Y-32957500D03*
G04 #@! TO.P,R4,1*
X63867500Y-32957500D03*
G04 #@! TD*
G04 #@! TO.P,R3,2*
G04 #@! TO.N,N/C*
X63867500Y-34857500D03*
G04 #@! TO.P,R3,1*
X65767500Y-34857500D03*
G04 #@! TD*
G04 #@! TO.P,R2,2*
G04 #@! TO.N,N/C*
X63867500Y-36757500D03*
G04 #@! TO.P,R2,1*
X65767500Y-36757500D03*
G04 #@! TD*
G04 #@! TO.P,R1,2*
G04 #@! TO.N,N/C*
X64227500Y-30437500D03*
G04 #@! TO.P,R1,1*
X66127500Y-30437500D03*
G04 #@! TD*
D16*
G04 #@! TO.P,C17,2*
G04 #@! TO.N,N/C*
X85180000Y-37555000D03*
G04 #@! TO.P,C17,1*
X85180000Y-35555000D03*
G04 #@! TD*
G04 #@! TO.P,C15,2*
G04 #@! TO.N,N/C*
X83280000Y-37555000D03*
G04 #@! TO.P,C15,1*
X83280000Y-35555000D03*
G04 #@! TD*
D21*
G04 #@! TO.P,C7,2*
G04 #@! TO.N,N/C*
X80885000Y-36355000D03*
G04 #@! TO.P,C7,1*
X78885000Y-36355000D03*
G04 #@! TD*
D16*
G04 #@! TO.P,C4,2*
G04 #@! TO.N,N/C*
X65960000Y-26355000D03*
G04 #@! TO.P,C4,1*
X65960000Y-28355000D03*
G04 #@! TD*
G04 #@! TO.P,C2,2*
G04 #@! TO.N,N/C*
X63910000Y-26355000D03*
G04 #@! TO.P,C2,1*
X63910000Y-28355000D03*
G04 #@! TD*
D22*
G04 #@! TO.P,8MHz1,2*
G04 #@! TO.N,N/C*
X67597500Y-29497500D03*
G04 #@! TO.P,8MHz1,1*
X62717500Y-29497500D03*
G04 #@! TD*
D14*
G04 #@! TO.P,R13,2*
G04 #@! TO.N,N/C*
X96680000Y-36915000D03*
D13*
G04 #@! TO.P,R13,1*
X96680000Y-26755000D03*
G04 #@! TD*
D14*
G04 #@! TO.P,R11,2*
G04 #@! TO.N,N/C*
X92880000Y-36915000D03*
D13*
G04 #@! TO.P,R11,1*
X92880000Y-26755000D03*
G04 #@! TD*
D14*
G04 #@! TO.P,R10,2*
G04 #@! TO.N,N/C*
X90980000Y-26795000D03*
D13*
G04 #@! TO.P,R10,1*
X90980000Y-36955000D03*
G04 #@! TD*
D23*
G04 #@! TO.P,32.768,2*
G04 #@! TO.N,N/C*
X67185000Y-33605000D03*
G04 #@! TO.P,32.768,1*
X67185000Y-35505000D03*
G04 #@! TD*
D24*
G04 #@! TO.P,Q1,3*
G04 #@! TO.N,N/C*
X48192500Y-36407500D03*
G04 #@! TO.P,Q1,2*
X46192500Y-35457500D03*
G04 #@! TO.P,Q1,1*
X46192500Y-37357500D03*
G04 #@! TD*
D25*
G04 #@! TO.N,N/C*
G04 #@! TO.C,PD4*
X43117500Y-40407500D03*
D26*
G04 #@! TD*
G04 #@! TO.P,PD4,2*
G04 #@! TO.N,N/C*
X42617500Y-40407500D03*
D25*
G04 #@! TO.N,N/C*
G04 #@! TO.C,PD4*
X44117500Y-40407500D03*
X42117500Y-40407500D03*
X41117500Y-40407500D03*
G04 #@! TD*
G04 #@! TO.N,N/C*
G04 #@! TO.C,PD1*
X43117500Y-39197500D03*
D26*
G04 #@! TD*
G04 #@! TO.P,PD1,2*
G04 #@! TO.N,N/C*
X42617500Y-39197500D03*
D25*
G04 #@! TO.N,N/C*
G04 #@! TO.C,PD1*
X44117500Y-39197500D03*
X42117500Y-39197500D03*
X41117500Y-39197500D03*
G04 #@! TD*
G04 #@! TO.N,N/C*
G04 #@! TO.C,PD2*
X43117500Y-24517500D03*
D26*
G04 #@! TD*
G04 #@! TO.P,PD2,2*
G04 #@! TO.N,N/C*
X42617500Y-24517500D03*
D25*
G04 #@! TO.N,N/C*
G04 #@! TO.C,PD2*
X44117500Y-24517500D03*
X42117500Y-24517500D03*
X41117500Y-24517500D03*
G04 #@! TD*
G04 #@! TO.N,N/C*
G04 #@! TO.C,PD3*
X43117500Y-23307500D03*
D26*
G04 #@! TD*
G04 #@! TO.P,PD3,2*
G04 #@! TO.N,N/C*
X42617500Y-23307500D03*
D25*
G04 #@! TO.N,N/C*
G04 #@! TO.C,PD3*
X44117500Y-23307500D03*
X42117500Y-23307500D03*
X41117500Y-23307500D03*
G04 #@! TD*
D27*
G04 #@! TO.P,P6,1*
G04 #@! TO.N,N/C*
X48025000Y-38531000D03*
G04 #@! TD*
G04 #@! TO.P,P5,1*
G04 #@! TO.N,N/C*
X53105000Y-38531000D03*
G04 #@! TD*
G04 #@! TO.P,P4,1*
G04 #@! TO.N,N/C*
X50565000Y-38531000D03*
G04 #@! TD*
D28*
G04 #@! TO.P,SPI1-CS1,48*
G04 #@! TO.N,N/C*
X72035000Y-36305000D03*
G04 #@! TO.P,SPI1-CS1,47*
X72535000Y-36305000D03*
G04 #@! TO.P,SPI1-CS1,46*
X73035000Y-36305000D03*
G04 #@! TO.P,SPI1-CS1,45*
X73535000Y-36305000D03*
G04 #@! TO.P,SPI1-CS1,44*
X74035000Y-36305000D03*
G04 #@! TO.P,SPI1-CS1,43*
X74535000Y-36305000D03*
G04 #@! TO.P,SPI1-CS1,42*
X75035000Y-36305000D03*
G04 #@! TO.P,SPI1-CS1,41*
X75535000Y-36305000D03*
G04 #@! TO.P,SPI1-CS1,40*
X76035000Y-36305000D03*
G04 #@! TO.P,SPI1-CS1,39*
X76535000Y-36305000D03*
G04 #@! TO.P,SPI1-CS1,38*
X77035000Y-36305000D03*
G04 #@! TO.P,SPI1-CS1,37*
X77535000Y-36305000D03*
D29*
G04 #@! TO.P,SPI1-CS1,36*
X79135000Y-34705000D03*
G04 #@! TO.P,SPI1-CS1,35*
X79135000Y-34205000D03*
G04 #@! TO.P,SPI1-CS1,34*
X79135000Y-33705000D03*
G04 #@! TO.P,SPI1-CS1,33*
X79135000Y-33205000D03*
G04 #@! TO.P,SPI1-CS1,32*
X79135000Y-32705000D03*
G04 #@! TO.P,SPI1-CS1,31*
X79135000Y-32205000D03*
G04 #@! TO.P,SPI1-CS1,30*
X79135000Y-31705000D03*
G04 #@! TO.P,SPI1-CS1,29*
X79135000Y-31205000D03*
G04 #@! TO.P,SPI1-CS1,28*
X79135000Y-30705000D03*
G04 #@! TO.P,SPI1-CS1,27*
X79135000Y-30205000D03*
G04 #@! TO.P,SPI1-CS1,26*
X79135000Y-29705000D03*
G04 #@! TO.P,SPI1-CS1,25*
X79135000Y-29205000D03*
D28*
G04 #@! TO.P,SPI1-CS1,24*
X77535000Y-27605000D03*
G04 #@! TO.P,SPI1-CS1,23*
X77035000Y-27605000D03*
G04 #@! TO.P,SPI1-CS1,22*
X76535000Y-27605000D03*
G04 #@! TO.P,SPI1-CS1,21*
X76035000Y-27605000D03*
G04 #@! TO.P,SPI1-CS1,20*
X75535000Y-27605000D03*
G04 #@! TO.P,SPI1-CS1,19*
X75035000Y-27605000D03*
G04 #@! TO.P,SPI1-CS1,18*
X74535000Y-27605000D03*
G04 #@! TO.P,SPI1-CS1,17*
X74035000Y-27605000D03*
G04 #@! TO.P,SPI1-CS1,16*
X73535000Y-27605000D03*
G04 #@! TO.P,SPI1-CS1,15*
X73035000Y-27605000D03*
G04 #@! TO.P,SPI1-CS1,14*
X72535000Y-27605000D03*
G04 #@! TO.P,SPI1-CS1,13*
X72035000Y-27605000D03*
D29*
G04 #@! TO.P,SPI1-CS1,12*
X70435000Y-29205000D03*
G04 #@! TO.P,SPI1-CS1,11*
X70435000Y-29705000D03*
G04 #@! TO.P,SPI1-CS1,10*
X70435000Y-30205000D03*
G04 #@! TO.P,SPI1-CS1,9*
X70435000Y-30705000D03*
G04 #@! TO.P,SPI1-CS1,8*
X70435000Y-31205000D03*
G04 #@! TO.P,SPI1-CS1,7*
X70435000Y-31705000D03*
G04 #@! TO.P,SPI1-CS1,6*
X70435000Y-32205000D03*
G04 #@! TO.P,SPI1-CS1,5*
X70435000Y-32705000D03*
G04 #@! TO.P,SPI1-CS1,4*
X70435000Y-33205000D03*
G04 #@! TO.P,SPI1-CS1,3*
X70435000Y-33705000D03*
G04 #@! TO.P,SPI1-CS1,2*
X70435000Y-34205000D03*
G04 #@! TO.P,SPI1-CS1,1*
X70435000Y-34705000D03*
G04 #@! TD*
D30*
G04 #@! TO.P,P1,6*
G04 #@! TO.N,N/C*
X46187500Y-25577500D03*
X53187500Y-25577500D03*
D31*
X47187500Y-28277500D03*
X52187500Y-28277500D03*
G04 #@! TD*
D32*
G04 #@! TO.P,D2,1*
G04 #@! TO.N,N/C*
X49217500Y-25707500D03*
G04 #@! TO.P,D2,2*
X51417500Y-25707500D03*
G04 #@! TD*
D14*
G04 #@! TO.P,R18,2*
G04 #@! TO.N,N/C*
X89080000Y-26795000D03*
D13*
G04 #@! TO.P,R18,1*
X89080000Y-36955000D03*
G04 #@! TD*
D19*
G04 #@! TO.P,R9,2*
G04 #@! TO.N,N/C*
X60777500Y-32977500D03*
G04 #@! TO.P,R9,1*
X62677500Y-32977500D03*
G04 #@! TD*
G04 #@! TO.P,R19,2*
G04 #@! TO.N,N/C*
X56467500Y-29417500D03*
G04 #@! TO.P,R19,1*
X58367500Y-29417500D03*
G04 #@! TD*
D16*
G04 #@! TO.P,C23,2*
G04 #@! TO.N,N/C*
X60067500Y-31407500D03*
G04 #@! TO.P,C23,1*
X60067500Y-29407500D03*
G04 #@! TD*
D14*
G04 #@! TO.P,R15,2*
G04 #@! TO.N,N/C*
X94780000Y-36915000D03*
D13*
G04 #@! TO.P,R15,1*
X94780000Y-26755000D03*
G04 #@! TD*
D14*
G04 #@! TO.P,R17,2*
G04 #@! TO.N,N/C*
X98580000Y-36915000D03*
D13*
G04 #@! TO.P,R17,1*
X98580000Y-26755000D03*
G04 #@! TD*
D12*
G04 #@! TO.P,U2,16*
G04 #@! TO.N,N/C*
X82410000Y-33005000D03*
G04 #@! TO.P,U2,15*
X83060000Y-33005000D03*
G04 #@! TO.P,U2,14*
X83710000Y-33005000D03*
G04 #@! TO.P,U2,13*
X84360000Y-33005000D03*
G04 #@! TO.P,U2,12*
X85010000Y-33005000D03*
G04 #@! TO.P,U2,11*
X85660000Y-33005000D03*
G04 #@! TO.P,U2,10*
X86310000Y-33005000D03*
G04 #@! TO.P,U2,9*
X86960000Y-33005000D03*
G04 #@! TO.P,U2,8*
X86960000Y-27105000D03*
G04 #@! TO.P,U2,7*
X86310000Y-27105000D03*
G04 #@! TO.P,U2,6*
X85660000Y-27105000D03*
G04 #@! TO.P,U2,5*
X85010000Y-27105000D03*
G04 #@! TO.P,U2,4*
X84360000Y-27105000D03*
G04 #@! TO.P,U2,3*
X83710000Y-27105000D03*
G04 #@! TO.P,U2,2*
X83060000Y-27105000D03*
G04 #@! TO.P,U2,1*
X82410000Y-27105000D03*
G04 #@! TD*
D15*
G04 #@! TO.P,R14,1*
G04 #@! TO.N,/1.2VT*
X26527500Y-46457500D03*
G04 #@! TO.P,R14,2*
G04 #@! TO.N,/AIN2(-)*
X26527500Y-47357500D03*
G04 #@! TD*
G04 #@! TO.P,R16,1*
G04 #@! TO.N,/1.2VT*
X30597500Y-46427500D03*
G04 #@! TO.P,R16,2*
G04 #@! TO.N,/AIN3(-)*
X30597500Y-47327500D03*
G04 #@! TD*
D18*
G04 #@! TO.P,C21,1*
G04 #@! TO.N,/VBAT*
X102657500Y-46857500D03*
D17*
G04 #@! TO.P,C21,2*
G04 #@! TO.N,/AGND*
X112657500Y-46857500D03*
G04 #@! TD*
D12*
G04 #@! TO.P,U2,1*
G04 #@! TO.N,/SPI_SCLK*
X76025000Y-51610000D03*
G04 #@! TO.P,U2,2*
G04 #@! TO.N,/T_ADC_CS*
X75375000Y-51610000D03*
G04 #@! TO.P,U2,3*
G04 #@! TO.N,/AIN(+)*
X74725000Y-51610000D03*
G04 #@! TO.P,U2,4*
G04 #@! TO.N,/AIN3(-)*
X74075000Y-51610000D03*
G04 #@! TO.P,U2,5*
G04 #@! TO.N,/AIN(+)*
X73425000Y-51610000D03*
G04 #@! TO.P,U2,6*
G04 #@! TO.N,/AIN1(-)*
X72775000Y-51610000D03*
G04 #@! TO.P,U2,7*
G04 #@! TO.N,/AIN(+)*
X72125000Y-51610000D03*
G04 #@! TO.P,U2,8*
G04 #@! TO.N,/AIN2(-)*
X71475000Y-51610000D03*
G04 #@! TO.P,U2,9*
G04 #@! TO.N,/1.2VT*
X71475000Y-45710000D03*
G04 #@! TO.P,U2,10*
G04 #@! TO.N,/AGND*
X72125000Y-45710000D03*
G04 #@! TO.P,U2,11*
G04 #@! TO.N,N/C*
X72775000Y-45710000D03*
G04 #@! TO.P,U2,12*
G04 #@! TO.N,/AGND*
X73425000Y-45710000D03*
G04 #@! TO.P,U2,13*
G04 #@! TO.N,/3.0VT*
X74075000Y-45710000D03*
G04 #@! TO.P,U2,14*
G04 #@! TO.N,/3.3V*
X74725000Y-45710000D03*
G04 #@! TO.P,U2,15*
G04 #@! TO.N,/SPI_MISO*
X75375000Y-45710000D03*
G04 #@! TO.P,U2,16*
G04 #@! TO.N,/SPI_MOSI*
X76025000Y-45710000D03*
G04 #@! TD*
D20*
G04 #@! TO.P,IC2,1*
G04 #@! TO.N,/PWR_OFF*
X102857500Y-50502500D03*
G04 #@! TO.P,IC2,2*
G04 #@! TO.N,Net-(IC2-Pad2)*
X102857500Y-51152500D03*
G04 #@! TO.P,IC2,3*
X102857500Y-51802500D03*
G04 #@! TO.P,IC2,4*
G04 #@! TO.N,/AGND*
X102857500Y-52452500D03*
G04 #@! TO.P,IC2,5*
G04 #@! TO.N,/PWR_ON*
X98457500Y-52452500D03*
G04 #@! TO.P,IC2,6*
G04 #@! TO.N,/EN*
X98457500Y-51802500D03*
G04 #@! TO.P,IC2,7*
X98457500Y-51152500D03*
G04 #@! TO.P,IC2,8*
G04 #@! TO.N,/VBAT*
X98457500Y-50502500D03*
G04 #@! TD*
D13*
G04 #@! TO.P,R17,1*
G04 #@! TO.N,/AIN3(-)*
X59855000Y-51960000D03*
D14*
G04 #@! TO.P,R17,2*
G04 #@! TO.N,/AGND*
X59855000Y-41800000D03*
G04 #@! TD*
D13*
G04 #@! TO.P,R15,1*
G04 #@! TO.N,/AIN2(-)*
X63655000Y-51960000D03*
D14*
G04 #@! TO.P,R15,2*
G04 #@! TO.N,/AGND*
X63655000Y-41800000D03*
G04 #@! TD*
D23*
G04 #@! TO.P,32.768,1*
G04 #@! TO.N,/OSC32_IN*
X91250000Y-43210000D03*
G04 #@! TO.P,32.768,2*
G04 #@! TO.N,/OSC32_OUT*
X91250000Y-45110000D03*
G04 #@! TD*
D13*
G04 #@! TO.P,R10,1*
G04 #@! TO.N,Net-(R10-Pad1)*
X67455000Y-41760000D03*
D14*
G04 #@! TO.P,R10,2*
G04 #@! TO.N,/AIN(+)*
X67455000Y-51920000D03*
G04 #@! TD*
D13*
G04 #@! TO.P,R11,1*
G04 #@! TO.N,/AIN(+)*
X65555000Y-51960000D03*
D14*
G04 #@! TO.P,R11,2*
G04 #@! TO.N,/AGND*
X65555000Y-41800000D03*
G04 #@! TD*
D13*
G04 #@! TO.P,R13,1*
G04 #@! TO.N,/AIN1(-)*
X61755000Y-51960000D03*
D14*
G04 #@! TO.P,R13,2*
G04 #@! TO.N,/AGND*
X61755000Y-41800000D03*
G04 #@! TD*
D22*
G04 #@! TO.P,8MHz1,1*
G04 #@! TO.N,/OSC8_IN*
X95717500Y-49217500D03*
G04 #@! TO.P,8MHz1,2*
G04 #@! TO.N,/OSC8_OUT*
X90837500Y-49217500D03*
G04 #@! TD*
D16*
G04 #@! TO.P,C2,1*
G04 #@! TO.N,/OSC8_IN*
X94525000Y-50360000D03*
G04 #@! TO.P,C2,2*
G04 #@! TO.N,/AGND*
X94525000Y-52360000D03*
G04 #@! TD*
G04 #@! TO.P,C4,1*
G04 #@! TO.N,/OSC8_OUT*
X92475000Y-50360000D03*
G04 #@! TO.P,C4,2*
G04 #@! TO.N,/AGND*
X92475000Y-52360000D03*
G04 #@! TD*
D21*
G04 #@! TO.P,C7,1*
G04 #@! TO.N,/3.3V*
X79550000Y-42360000D03*
G04 #@! TO.P,C7,2*
G04 #@! TO.N,/AGND*
X77550000Y-42360000D03*
G04 #@! TD*
D16*
G04 #@! TO.P,C15,1*
G04 #@! TO.N,/3.3V*
X75155000Y-43160000D03*
G04 #@! TO.P,C15,2*
G04 #@! TO.N,/AGND*
X75155000Y-41160000D03*
G04 #@! TD*
G04 #@! TO.P,C17,1*
G04 #@! TO.N,/3.0VT*
X73255000Y-43160000D03*
G04 #@! TO.P,C17,2*
G04 #@! TO.N,/AGND*
X73255000Y-41160000D03*
G04 #@! TD*
D19*
G04 #@! TO.P,R1,1*
G04 #@! TO.N,Net-(R1-Pad1)*
X92307500Y-48277500D03*
G04 #@! TO.P,R1,2*
G04 #@! TO.N,/AGND*
X94207500Y-48277500D03*
G04 #@! TD*
G04 #@! TO.P,R2,1*
G04 #@! TO.N,/BOOT0*
X92667500Y-41957500D03*
G04 #@! TO.P,R2,2*
G04 #@! TO.N,/AGND*
X94567500Y-41957500D03*
G04 #@! TD*
G04 #@! TO.P,R3,1*
G04 #@! TO.N,/USB_DOWN*
X92667500Y-43857500D03*
G04 #@! TO.P,R3,2*
G04 #@! TO.N,/USBDP*
X94567500Y-43857500D03*
G04 #@! TD*
G04 #@! TO.P,R4,1*
G04 #@! TO.N,Net-(P1-Pad2)*
X94567500Y-45757500D03*
G04 #@! TO.P,R4,2*
G04 #@! TO.N,/USBDM*
X92667500Y-45757500D03*
G04 #@! TD*
G04 #@! TO.P,R5,1*
G04 #@! TO.N,Net-(P1-Pad3)*
X97667500Y-43857500D03*
G04 #@! TO.P,R5,2*
G04 #@! TO.N,/USBDP*
X95767500Y-43857500D03*
G04 #@! TD*
G04 #@! TO.P,R6,1*
G04 #@! TO.N,Net-(D2-Pad2)*
X100767500Y-45737500D03*
G04 #@! TO.P,R6,2*
G04 #@! TO.N,/BLINK*
X98867500Y-45737500D03*
G04 #@! TD*
G04 #@! TO.P,R7,1*
G04 #@! TO.N,Net-(C6-Pad2)*
X98867500Y-43227500D03*
G04 #@! TO.P,R7,2*
G04 #@! TO.N,Net-(C5-Pad2)*
X100767500Y-43227500D03*
G04 #@! TD*
D21*
G04 #@! TO.P,C16,1*
G04 #@! TO.N,/3.3V*
X79450000Y-52160000D03*
G04 #@! TO.P,C16,2*
G04 #@! TO.N,/AGND*
X77450000Y-52160000D03*
G04 #@! TD*
D16*
G04 #@! TO.P,C19,1*
G04 #@! TO.N,/3.3V*
X88750000Y-50560000D03*
G04 #@! TO.P,C19,2*
G04 #@! TO.N,/AGND*
X88750000Y-52560000D03*
G04 #@! TD*
D21*
G04 #@! TO.P,C20,1*
G04 #@! TO.N,/3.3V*
X87704000Y-42162000D03*
G04 #@! TO.P,C20,2*
G04 #@! TO.N,/AGND*
X89704000Y-42162000D03*
G04 #@! TD*
D16*
G04 #@! TO.P,C23,1*
G04 #@! TO.N,/VBAT*
X98367500Y-49307500D03*
G04 #@! TO.P,C23,2*
G04 #@! TO.N,/AGND*
X98367500Y-47307500D03*
G04 #@! TD*
D19*
G04 #@! TO.P,R19,1*
G04 #@! TO.N,/AGND*
X100067500Y-49297500D03*
G04 #@! TO.P,R19,2*
G04 #@! TO.N,/PWR_OFF*
X101967500Y-49297500D03*
G04 #@! TD*
G04 #@! TO.P,R9,1*
G04 #@! TO.N,/AGND*
X95757500Y-45737500D03*
G04 #@! TO.P,R9,2*
G04 #@! TO.N,/USB_DETECT*
X97657500Y-45737500D03*
G04 #@! TD*
D13*
G04 #@! TO.P,R18,1*
G04 #@! TO.N,Net-(R10-Pad1)*
X69355000Y-41760000D03*
D14*
G04 #@! TO.P,R18,2*
G04 #@! TO.N,/1.2VT*
X69355000Y-51920000D03*
G04 #@! TD*
D32*
G04 #@! TO.P,D2,2*
G04 #@! TO.N,Net-(D2-Pad2)*
X107017500Y-53007500D03*
G04 #@! TO.P,D2,1*
G04 #@! TO.N,/AGND*
X109217500Y-53007500D03*
G04 #@! TD*
D31*
G04 #@! TO.P,P1,6*
G04 #@! TO.N,/AGND*
X106247500Y-50437500D03*
X111247500Y-50437500D03*
D30*
X105247500Y-53137500D03*
X112247500Y-53137500D03*
G04 #@! TD*
D29*
G04 #@! TO.P,SPI1-CS1,1*
G04 #@! TO.N,/VBAT*
X88000000Y-44010000D03*
G04 #@! TO.P,SPI1-CS1,2*
G04 #@! TO.N,/PWR_ON*
X88000000Y-44510000D03*
G04 #@! TO.P,SPI1-CS1,3*
G04 #@! TO.N,/OSC32_IN*
X88000000Y-45010000D03*
G04 #@! TO.P,SPI1-CS1,4*
G04 #@! TO.N,/OSC32_OUT*
X88000000Y-45510000D03*
G04 #@! TO.P,SPI1-CS1,5*
G04 #@! TO.N,/OSC8_IN*
X88000000Y-46010000D03*
G04 #@! TO.P,SPI1-CS1,6*
G04 #@! TO.N,/OSC8_OUT*
X88000000Y-46510000D03*
G04 #@! TO.P,SPI1-CS1,7*
G04 #@! TO.N,N/C*
X88000000Y-47010000D03*
G04 #@! TO.P,SPI1-CS1,8*
G04 #@! TO.N,/AGND*
X88000000Y-47510000D03*
G04 #@! TO.P,SPI1-CS1,9*
G04 #@! TO.N,/3.3V*
X88000000Y-48010000D03*
G04 #@! TO.P,SPI1-CS1,10*
G04 #@! TO.N,N/C*
X88000000Y-48510000D03*
G04 #@! TO.P,SPI1-CS1,11*
X88000000Y-49010000D03*
G04 #@! TO.P,SPI1-CS1,12*
G04 #@! TO.N,/BLINK*
X88000000Y-49510000D03*
D28*
G04 #@! TO.P,SPI1-CS1,13*
G04 #@! TO.N,/FLASH_CS*
X86400000Y-51110000D03*
G04 #@! TO.P,SPI1-CS1,14*
G04 #@! TO.N,/T_ADC_CS*
X85900000Y-51110000D03*
G04 #@! TO.P,SPI1-CS1,15*
G04 #@! TO.N,/SPI_SCLK*
X85400000Y-51110000D03*
G04 #@! TO.P,SPI1-CS1,16*
G04 #@! TO.N,/SPI_MISO*
X84900000Y-51110000D03*
G04 #@! TO.P,SPI1-CS1,17*
G04 #@! TO.N,/SPI_MOSI*
X84400000Y-51110000D03*
G04 #@! TO.P,SPI1-CS1,18*
G04 #@! TO.N,N/C*
X83900000Y-51110000D03*
G04 #@! TO.P,SPI1-CS1,19*
X83400000Y-51110000D03*
G04 #@! TO.P,SPI1-CS1,20*
G04 #@! TO.N,Net-(R1-Pad1)*
X82900000Y-51110000D03*
G04 #@! TO.P,SPI1-CS1,21*
G04 #@! TO.N,N/C*
X82400000Y-51110000D03*
G04 #@! TO.P,SPI1-CS1,22*
X81900000Y-51110000D03*
G04 #@! TO.P,SPI1-CS1,23*
G04 #@! TO.N,/AGND*
X81400000Y-51110000D03*
G04 #@! TO.P,SPI1-CS1,24*
G04 #@! TO.N,/3.3V*
X80900000Y-51110000D03*
D29*
G04 #@! TO.P,SPI1-CS1,25*
G04 #@! TO.N,N/C*
X79300000Y-49510000D03*
G04 #@! TO.P,SPI1-CS1,26*
X79300000Y-49010000D03*
G04 #@! TO.P,SPI1-CS1,27*
X79300000Y-48510000D03*
G04 #@! TO.P,SPI1-CS1,28*
X79300000Y-48010000D03*
G04 #@! TO.P,SPI1-CS1,29*
G04 #@! TO.N,/USB_DETECT*
X79300000Y-47510000D03*
G04 #@! TO.P,SPI1-CS1,30*
G04 #@! TO.N,/USB_DOWN*
X79300000Y-47010000D03*
G04 #@! TO.P,SPI1-CS1,31*
G04 #@! TO.N,/PWR_OFF*
X79300000Y-46510000D03*
G04 #@! TO.P,SPI1-CS1,32*
G04 #@! TO.N,/USBDM*
X79300000Y-46010000D03*
G04 #@! TO.P,SPI1-CS1,33*
G04 #@! TO.N,/USBDP*
X79300000Y-45510000D03*
G04 #@! TO.P,SPI1-CS1,34*
G04 #@! TO.N,/DIO*
X79300000Y-45010000D03*
G04 #@! TO.P,SPI1-CS1,35*
G04 #@! TO.N,/AGND*
X79300000Y-44510000D03*
G04 #@! TO.P,SPI1-CS1,36*
G04 #@! TO.N,/3.3V*
X79300000Y-44010000D03*
D28*
G04 #@! TO.P,SPI1-CS1,37*
G04 #@! TO.N,/DCLK*
X80900000Y-42410000D03*
G04 #@! TO.P,SPI1-CS1,38*
G04 #@! TO.N,N/C*
X81400000Y-42410000D03*
G04 #@! TO.P,SPI1-CS1,39*
X81900000Y-42410000D03*
G04 #@! TO.P,SPI1-CS1,40*
X82400000Y-42410000D03*
G04 #@! TO.P,SPI1-CS1,41*
X82900000Y-42410000D03*
G04 #@! TO.P,SPI1-CS1,42*
X83400000Y-42410000D03*
G04 #@! TO.P,SPI1-CS1,43*
X83900000Y-42410000D03*
G04 #@! TO.P,SPI1-CS1,44*
G04 #@! TO.N,/BOOT0*
X84400000Y-42410000D03*
G04 #@! TO.P,SPI1-CS1,45*
G04 #@! TO.N,N/C*
X84900000Y-42410000D03*
G04 #@! TO.P,SPI1-CS1,46*
X85400000Y-42410000D03*
G04 #@! TO.P,SPI1-CS1,47*
G04 #@! TO.N,/AGND*
X85900000Y-42410000D03*
G04 #@! TO.P,SPI1-CS1,48*
G04 #@! TO.N,/3.3V*
X86400000Y-42410000D03*
G04 #@! TD*
D27*
G04 #@! TO.P,P4,1*
G04 #@! TO.N,/DIO*
X107870000Y-40184000D03*
G04 #@! TD*
G04 #@! TO.P,P5,1*
G04 #@! TO.N,/DCLK*
X105330000Y-40184000D03*
G04 #@! TD*
G04 #@! TO.P,P6,1*
G04 #@! TO.N,/AGND*
X110410000Y-40184000D03*
G04 #@! TD*
D25*
G04 #@! TO.N,/18650*
G04 #@! TO.C,PD3*
X117317500Y-55407500D03*
X116317500Y-55407500D03*
X114317500Y-55407500D03*
D26*
G04 #@! TD*
G04 #@! TO.P,PD3,2*
G04 #@! TO.N,/18650*
X115817500Y-55407500D03*
D25*
G04 #@! TO.N,/18650*
G04 #@! TO.C,PD3*
X115317500Y-55407500D03*
G04 #@! TD*
G04 #@! TO.N,/VBAT*
G04 #@! TO.C,PD2*
X117317500Y-54197500D03*
X116317500Y-54197500D03*
X114317500Y-54197500D03*
D26*
G04 #@! TD*
G04 #@! TO.P,PD2,2*
G04 #@! TO.N,/VBAT*
X115817500Y-54197500D03*
D25*
G04 #@! TO.N,/VBAT*
G04 #@! TO.C,PD2*
X115317500Y-54197500D03*
G04 #@! TD*
G04 #@! TO.N,/VBAT*
G04 #@! TO.C,PD1*
X117317500Y-39517500D03*
X116317500Y-39517500D03*
X114317500Y-39517500D03*
D26*
G04 #@! TD*
G04 #@! TO.P,PD1,2*
G04 #@! TO.N,/VBAT*
X115817500Y-39517500D03*
D25*
G04 #@! TO.N,/VBAT*
G04 #@! TO.C,PD1*
X115317500Y-39517500D03*
G04 #@! TD*
G04 #@! TO.N,/AGND*
G04 #@! TO.C,PD4*
X117317500Y-38307500D03*
X116317500Y-38307500D03*
X114317500Y-38307500D03*
D26*
G04 #@! TD*
G04 #@! TO.P,PD4,2*
G04 #@! TO.N,/AGND*
X115817500Y-38307500D03*
D25*
G04 #@! TO.N,/AGND*
G04 #@! TO.C,PD4*
X115317500Y-38307500D03*
G04 #@! TD*
D24*
G04 #@! TO.P,Q1,1*
G04 #@! TO.N,/AGND*
X112242500Y-41357500D03*
G04 #@! TO.P,Q1,2*
G04 #@! TO.N,Net-(C5-Pad2)*
X112242500Y-43257500D03*
G04 #@! TO.P,Q1,3*
G04 #@! TO.N,/18650*
X110242500Y-42307500D03*
G04 #@! TD*
D11*
G04 #@! TO.P,P5,2*
G04 #@! TO.N,/GND*
X129800000Y-46950000D03*
G04 #@! TD*
D33*
G04 #@! TO.N,*
X83285000Y-31255000D03*
X69797500Y-28097500D03*
X79602500Y-27437500D03*
X79080000Y-36655000D03*
X76435000Y-33105000D03*
X61787500Y-36857500D03*
X77235000Y-33055000D03*
X60987500Y-36607500D03*
X75835000Y-33680000D03*
X63857500Y-34457500D03*
X75110000Y-33280000D03*
X65717500Y-32957500D03*
X53857500Y-33897500D03*
X46442498Y-39082500D03*
X51007603Y-35300535D03*
X51515460Y-34675525D03*
X50047500Y-33932484D03*
X49095709Y-29594464D03*
X75630000Y-35080000D03*
X77952500Y-30287500D03*
X80352500Y-30487500D03*
X80352500Y-31337500D03*
X74450000Y-29985000D03*
X76980000Y-28815000D03*
X45667500Y-29007500D03*
X49207500Y-33447500D03*
X64967500Y-26357500D03*
X69677500Y-25957500D03*
X88002500Y-34537500D03*
X49207500Y-25577500D03*
X60047500Y-31647500D03*
X58337500Y-28987500D03*
X54577500Y-26257500D03*
X77027500Y-25957500D03*
X81337500Y-27847500D03*
X80927500Y-25957500D03*
X72435000Y-35080000D03*
X81285000Y-33955000D03*
X80986202Y-36410800D03*
X47617497Y-34757497D03*
X74460000Y-32755000D03*
X64897500Y-32377500D03*
X61987500Y-31537500D03*
X60777500Y-32977500D03*
X75782500Y-31062500D03*
X129727500Y-31862500D03*
X61837500Y-28067500D03*
X72060000Y-31115000D03*
X61237500Y-28657500D03*
X80295000Y-32555000D03*
X47942500Y-23607510D03*
X62807500Y-36857500D03*
X68835000Y-34455000D03*
X53767500Y-33027500D03*
X62997500Y-36057500D03*
X63867500Y-32957500D03*
X53777500Y-32187500D03*
X66947500Y-27497500D03*
X68407500Y-27487500D03*
X71680000Y-30385000D03*
X61627500Y-30187500D03*
X53577500Y-28637500D03*
X54167500Y-30347500D03*
X83367500Y-29557500D03*
X131907500Y-32257500D03*
X90227500Y-32837500D03*
X89077500Y-31712500D03*
X85385000Y-31455000D03*
X52407500Y-32807500D03*
X51736116Y-36367107D03*
X72890000Y-31105000D03*
X73120000Y-29525000D03*
X74480000Y-35080000D03*
X56737500Y-35827500D03*
X52123280Y-34155357D03*
X83285000Y-61255000D03*
X63857500Y-64457500D03*
X75630000Y-65080000D03*
X69797500Y-58097500D03*
X79602500Y-57437500D03*
X79080000Y-66655000D03*
X47942500Y-53607510D03*
X64967500Y-56357500D03*
X69677500Y-55957500D03*
X76435000Y-63105000D03*
X61787500Y-66857500D03*
X77235000Y-63055000D03*
X60987500Y-66607500D03*
X75835000Y-63680000D03*
X80927500Y-55957500D03*
X75110000Y-63280000D03*
X65717500Y-62957500D03*
X53857500Y-63897500D03*
X46442498Y-69082500D03*
X51007603Y-65300535D03*
X51515460Y-64675525D03*
X50047500Y-63932484D03*
X49095709Y-59594464D03*
X77952500Y-60287500D03*
X80352500Y-60487500D03*
X62997500Y-66057500D03*
X63867500Y-62957500D03*
X80352500Y-61337500D03*
X74450000Y-59985000D03*
X76980000Y-58815000D03*
X45667500Y-59007500D03*
X49207500Y-63447500D03*
X56737500Y-65827500D03*
X88002500Y-64537500D03*
X49207500Y-55577500D03*
X60047500Y-61647500D03*
X58337500Y-58987500D03*
X54577500Y-56257500D03*
X77027500Y-55957500D03*
X81337500Y-57847500D03*
X72435000Y-65080000D03*
X81285000Y-63955000D03*
X80986202Y-66410800D03*
X74460000Y-62755000D03*
X64897500Y-62377500D03*
X61987500Y-61537500D03*
X60777500Y-62977500D03*
X75782500Y-61062500D03*
X129727500Y-61862500D03*
X61837500Y-58067500D03*
X72060000Y-61115000D03*
X61237500Y-58657500D03*
X80295000Y-62555000D03*
X62807500Y-66857500D03*
X68835000Y-64455000D03*
X53767500Y-63027500D03*
X53777500Y-62187500D03*
X66947500Y-57497500D03*
X68407500Y-57487500D03*
X71680000Y-60385000D03*
X61627500Y-60187500D03*
X53577500Y-58637500D03*
X54167500Y-60347500D03*
X83367500Y-59557500D03*
X131907500Y-62257500D03*
X90227500Y-62837500D03*
X89077500Y-61712500D03*
X85385000Y-61455000D03*
X52407500Y-62807500D03*
X72890000Y-61105000D03*
X73120000Y-59525000D03*
X74480000Y-65080000D03*
X47617497Y-64757497D03*
X51736116Y-66367107D03*
X52123280Y-64155357D03*
X75150000Y-77460000D03*
X88637500Y-80617500D03*
X78832500Y-81277500D03*
X79355000Y-72060000D03*
X82000000Y-75610000D03*
X96647500Y-71857500D03*
X81200000Y-75660000D03*
X97447500Y-72107500D03*
X82600000Y-75035000D03*
X94577500Y-74257500D03*
X83325000Y-75435000D03*
X92717500Y-75757500D03*
X104577500Y-74817500D03*
X111992502Y-69632500D03*
X107427397Y-73414465D03*
X106919540Y-74039475D03*
X108387500Y-74782516D03*
X109339291Y-79120536D03*
X82805000Y-73635000D03*
X80482500Y-78427500D03*
X78082500Y-78227500D03*
X78082500Y-77377500D03*
X83985000Y-78730000D03*
X81455000Y-79900000D03*
X112767500Y-79707500D03*
X109227500Y-75267500D03*
X93467500Y-82357500D03*
X88757500Y-82757500D03*
X70432500Y-74177500D03*
X109227500Y-83137500D03*
X98387500Y-77067500D03*
X100097500Y-79727500D03*
X103857500Y-82457500D03*
X81407500Y-82757500D03*
X77097500Y-80867500D03*
X77507500Y-82757500D03*
X86000000Y-73635000D03*
X77150000Y-74760000D03*
X77448798Y-72304200D03*
X110817503Y-73957503D03*
X83975000Y-75960000D03*
X93537500Y-76337500D03*
X96447500Y-77177500D03*
X97657500Y-75737500D03*
X82652500Y-77652500D03*
X28707500Y-76852500D03*
X96597500Y-80647500D03*
X86375000Y-77600000D03*
X97197500Y-80057500D03*
X78140000Y-76160000D03*
X110492500Y-85107490D03*
X95627500Y-71857500D03*
X89600000Y-74260000D03*
X104667500Y-75687500D03*
X95437500Y-72657500D03*
X94567500Y-75757500D03*
X104657500Y-76527500D03*
X91487500Y-81217500D03*
X90027500Y-81227500D03*
X86755000Y-78330000D03*
X96807500Y-78527500D03*
X104857500Y-80077500D03*
X104267500Y-78367500D03*
X75067500Y-79157500D03*
X26527500Y-76457500D03*
X68207500Y-75877500D03*
X69357500Y-77002500D03*
X73050000Y-77260000D03*
X106027500Y-75907500D03*
X106698884Y-72347893D03*
X85545000Y-77610000D03*
X85315000Y-79190000D03*
X83955000Y-73635000D03*
X101697500Y-72887500D03*
X106311720Y-74559643D03*
G04 #@! TO.N,/3.3V*
X88637500Y-50617500D03*
X78832500Y-51277500D03*
X79355000Y-42060000D03*
X75150000Y-47460000D03*
G04 #@! TO.N,/DCLK*
X82000000Y-45610000D03*
X96647500Y-41857500D03*
G04 #@! TO.N,/DIO*
X81200000Y-45660000D03*
X97447500Y-42107500D03*
G04 #@! TO.N,/USBDP*
X82600000Y-45035000D03*
X94577500Y-44257500D03*
G04 #@! TO.N,/USBDM*
X83325000Y-45435000D03*
X92717500Y-45757500D03*
G04 #@! TO.N,Net-(C6-Pad2)*
X104577500Y-44817500D03*
X111992502Y-39632500D03*
X107427397Y-43414465D03*
G04 #@! TO.N,Net-(L1-Pad1)*
X106919540Y-44039475D03*
X108387500Y-44782516D03*
G04 #@! TO.N,/EN*
X109339291Y-49120536D03*
G04 #@! TO.N,/SPI_MISO*
X80482500Y-48427500D03*
X78082500Y-48227500D03*
X82805000Y-43635000D03*
G04 #@! TO.N,/SPI_MOSI*
X78082500Y-47377500D03*
X83985000Y-48730000D03*
G04 #@! TO.N,/SPI_SCLK*
X81455000Y-49900000D03*
G04 #@! TO.N,/18650*
X112767500Y-49707500D03*
X109227500Y-45267500D03*
G04 #@! TO.N,/AGND*
X70432500Y-44177500D03*
X109227500Y-53137500D03*
X98387500Y-47067500D03*
X100097500Y-49727500D03*
X103857500Y-52457500D03*
X81407500Y-52757500D03*
X77097500Y-50867500D03*
X93467500Y-52357500D03*
X88757500Y-52757500D03*
X77507500Y-52757500D03*
X86000000Y-43635000D03*
X77150000Y-44760000D03*
X77448798Y-42304200D03*
X110817503Y-43957503D03*
G04 #@! TO.N,/USB_DOWN*
X83975000Y-45960000D03*
X93537500Y-46337500D03*
G04 #@! TO.N,/USB_DETECT*
X96447500Y-47177500D03*
X97657500Y-45737500D03*
X82652500Y-47652500D03*
G04 #@! TO.N,/AIN2(-)*
X28707500Y-46852500D03*
G04 #@! TO.N,/PWR_ON*
X96597500Y-50647500D03*
X86375000Y-47600000D03*
G04 #@! TO.N,/PWR_OFF*
X97197500Y-50057500D03*
X78140000Y-46160000D03*
G04 #@! TO.N,/VBAT*
X95627500Y-41857500D03*
X89600000Y-44260000D03*
X110492500Y-55107490D03*
G04 #@! TO.N,Net-(P1-Pad2)*
X104667500Y-45687500D03*
X95437500Y-42657500D03*
X94567500Y-45757500D03*
G04 #@! TO.N,Net-(P1-Pad3)*
X104657500Y-46527500D03*
G04 #@! TO.N,Net-(R1-Pad1)*
X91487500Y-51217500D03*
X90027500Y-51227500D03*
G04 #@! TO.N,/BLINK*
X86755000Y-48330000D03*
X96807500Y-48527500D03*
G04 #@! TO.N,Net-(D2-Pad2)*
X104857500Y-50077500D03*
X104267500Y-48367500D03*
G04 #@! TO.N,/3.0VT*
X75067500Y-49157500D03*
G04 #@! TO.N,/1.2VT*
X26527500Y-46457500D03*
X68207500Y-45877500D03*
X69357500Y-47002500D03*
X73050000Y-47260000D03*
G04 #@! TO.N,Net-(L1-Pad2)*
X106027500Y-45907500D03*
X106698884Y-42347893D03*
G04 #@! TO.N,/FLASH_CS*
X85545000Y-47610000D03*
X85315000Y-49190000D03*
X83955000Y-43635000D03*
G04 #@! TO.N,Net-(C5-Pad2)*
X101697500Y-42887500D03*
X106311720Y-44559643D03*
G04 #@! TD*
D34*
G04 #@! TO.N,*
X64857500Y-29397500D02*
X62817500Y-29397500D01*
X65177500Y-29717500D02*
X64857500Y-29397500D01*
X65177500Y-30997500D02*
X65177500Y-29717500D01*
X65627500Y-31447500D02*
X65177500Y-30997500D01*
X68257500Y-31447500D02*
X65627500Y-31447500D01*
X69515000Y-32705000D02*
X68257500Y-31447500D01*
X62817500Y-29397500D02*
X62717500Y-29497500D01*
X63910000Y-28355000D02*
X63485000Y-28355000D01*
X63485000Y-28355000D02*
X62485000Y-29355000D01*
X64135000Y-28355000D02*
X63485000Y-28355000D01*
X70435000Y-32705000D02*
X69515000Y-32705000D01*
X70435000Y-32205000D02*
X69705000Y-32205000D01*
X69705000Y-32205000D02*
X67597500Y-30097500D01*
X67597500Y-30097500D02*
X67597500Y-29497500D01*
X67385000Y-29375000D02*
X67365000Y-29355000D01*
X65885000Y-28355000D02*
X66365000Y-28355000D01*
X66365000Y-28355000D02*
X67365000Y-29355000D01*
D35*
X70435000Y-33705000D02*
X68585000Y-33705000D01*
X68585000Y-33705000D02*
X67185000Y-35105000D01*
X67185000Y-35105000D02*
X67185000Y-35505000D01*
X70435000Y-33205000D02*
X67585000Y-33205000D01*
X67585000Y-33205000D02*
X67185000Y-33605000D01*
X78885000Y-34955000D02*
X79135000Y-34705000D01*
D36*
X83710000Y-31928000D02*
X83710000Y-33005000D01*
X83285000Y-31255000D02*
X83710000Y-31928000D01*
X69797500Y-28097500D02*
X69740000Y-28155000D01*
X69740000Y-28155000D02*
X69685000Y-28155000D01*
D35*
X69580000Y-30705000D02*
X70435000Y-30705000D01*
D37*
X78985000Y-26555000D02*
X78985000Y-27345000D01*
X78985000Y-27345000D02*
X79077500Y-27437500D01*
X79077500Y-27437500D02*
X79602500Y-27437500D01*
D35*
X69180000Y-30305000D02*
X69580000Y-30705000D01*
X69180000Y-27865000D02*
X69180000Y-30305000D01*
D36*
X83280000Y-35555000D02*
X81780000Y-35555000D01*
X80180000Y-35155000D02*
X78980000Y-36355000D01*
X81380000Y-35155000D02*
X80180000Y-35155000D01*
X81780000Y-35555000D02*
X81380000Y-35155000D01*
X78980000Y-36355000D02*
X78885000Y-36355000D01*
X83710000Y-33005000D02*
X83710000Y-35125000D01*
X83710000Y-35125000D02*
X83280000Y-35555000D01*
D38*
X79080000Y-36655000D02*
X78885000Y-36460000D01*
X78885000Y-36460000D02*
X78885000Y-36355000D01*
D35*
X69685000Y-28155000D02*
X69685000Y-28355000D01*
X72017000Y-37315000D02*
X72017000Y-36323000D01*
X72017000Y-36323000D02*
X72035000Y-36305000D01*
X78885000Y-36355000D02*
X78885000Y-37051000D01*
X71001000Y-37315000D02*
X70731000Y-37045000D01*
X78621000Y-37315000D02*
X72017000Y-37315000D01*
X72017000Y-37315000D02*
X71001000Y-37315000D01*
X78885000Y-37051000D02*
X78621000Y-37315000D01*
X70731000Y-37045000D02*
X70731000Y-36553000D01*
X69635000Y-28205000D02*
X69535000Y-28205000D01*
X78985000Y-26555000D02*
X77885000Y-26555000D01*
X77885000Y-26555000D02*
X77535000Y-26905000D01*
X77535000Y-26905000D02*
X77535000Y-27605000D01*
D36*
X78985000Y-26555000D02*
X79285000Y-26555000D01*
D35*
X78885000Y-36355000D02*
X78885000Y-34955000D01*
D38*
X77535000Y-36305000D02*
X77535000Y-34205000D01*
X77535000Y-34205000D02*
X76435000Y-33105000D01*
X54237500Y-37197500D02*
X52605000Y-38830000D01*
X61447500Y-37197500D02*
X54237500Y-37197500D01*
X61787500Y-36857500D02*
X61447500Y-37197500D01*
X52605000Y-38830000D02*
X52605000Y-38631000D01*
X77885000Y-33705000D02*
X77235000Y-33055000D01*
X79135000Y-33705000D02*
X77885000Y-33705000D01*
X52427500Y-36837500D02*
X50634000Y-38631000D01*
X60757500Y-36837500D02*
X52427500Y-36837500D01*
X60987500Y-36607500D02*
X60757500Y-36837500D01*
X50634000Y-38631000D02*
X50065000Y-38631000D01*
D39*
X63867500Y-34857500D02*
X62667500Y-34857500D01*
D38*
X78235000Y-33205000D02*
X77460000Y-32430000D01*
X77460000Y-32430000D02*
X76235000Y-32430000D01*
X76235000Y-32430000D02*
X75835000Y-32830000D01*
X75835000Y-32830000D02*
X75835000Y-33680000D01*
X78235000Y-33205000D02*
X79135000Y-33205000D01*
D39*
X63832500Y-34432500D02*
X63857500Y-34457500D01*
D38*
X76085000Y-32055002D02*
X76084998Y-32055002D01*
X76084998Y-32055002D02*
X75110000Y-33030000D01*
X75110000Y-33030000D02*
X75110000Y-33280000D01*
X78285000Y-32705000D02*
X77635002Y-32055002D01*
X77635002Y-32055002D02*
X76085000Y-32055002D01*
X79135000Y-32705000D02*
X78285000Y-32705000D01*
X65717500Y-32957500D02*
X65762500Y-32912500D01*
X65685000Y-32405000D02*
X65585000Y-32505000D01*
X54287500Y-34317500D02*
X54277500Y-34317500D01*
X59567500Y-35487500D02*
X59567500Y-34707500D01*
X59567500Y-34707500D02*
X59177500Y-34317500D01*
X59177500Y-34317500D02*
X54287500Y-34317500D01*
X54277500Y-34317500D02*
X53857500Y-33897500D01*
D39*
X50707604Y-35600534D02*
X51007603Y-35300535D01*
X48817509Y-39917491D02*
X49297500Y-39437500D01*
X49297500Y-39437500D02*
X49297500Y-37010638D01*
X46442498Y-39082500D02*
X47277489Y-39917491D01*
X47277489Y-39917491D02*
X48817509Y-39917491D01*
X49297500Y-37010638D02*
X50707604Y-35600534D01*
D35*
X50347499Y-34232483D02*
X50047500Y-33932484D01*
X50790541Y-34675525D02*
X50347499Y-34232483D01*
X51515460Y-34675525D02*
X50790541Y-34675525D01*
D39*
X59977500Y-26912500D02*
X59977500Y-27562500D01*
D38*
X56987500Y-30457500D02*
X55967500Y-30457500D01*
X49395708Y-29294465D02*
X49095709Y-29594464D01*
X57652500Y-27562500D02*
X57117500Y-28097500D01*
X57117500Y-30327500D02*
X56987500Y-30457500D01*
X49429027Y-29261146D02*
X49395708Y-29294465D01*
X55967500Y-30457500D02*
X54771146Y-29261146D01*
X59977500Y-27562500D02*
X57652500Y-27562500D01*
X57117500Y-28097500D02*
X57117500Y-30327500D01*
X54771146Y-29261146D02*
X49429027Y-29261146D01*
X75110000Y-30245000D02*
X73590000Y-31765000D01*
X73590000Y-31765000D02*
X73590000Y-33040000D01*
X73590000Y-33040000D02*
X75630000Y-35080000D01*
X75630000Y-34880000D02*
X75630000Y-35080000D01*
X75110000Y-29255004D02*
X75805004Y-29255004D01*
X77952500Y-30287500D02*
X76837500Y-30287500D01*
X76837500Y-30287500D02*
X75805004Y-29255004D01*
X83060000Y-31995000D02*
X83060000Y-33005000D01*
X81547500Y-30482500D02*
X83060000Y-31995000D01*
X80357500Y-30482500D02*
X81547500Y-30482500D01*
X80352500Y-30487500D02*
X80357500Y-30482500D01*
X71610000Y-26780000D02*
X71610000Y-28614978D01*
X71610000Y-28614978D02*
X72545000Y-29549978D01*
X74229996Y-29255004D02*
X75110000Y-29255004D01*
X73350000Y-30135000D02*
X72840000Y-30135000D01*
X72545000Y-29840000D02*
X72840000Y-30135000D01*
X72545000Y-29549978D02*
X72545000Y-29840000D01*
X74229996Y-29255004D02*
X73350000Y-30135000D01*
X73535000Y-27605000D02*
X73535000Y-26835000D01*
X71715000Y-26675000D02*
X71610000Y-26780000D01*
X73375000Y-26675000D02*
X71715000Y-26675000D01*
X73535000Y-26835000D02*
X73375000Y-26675000D01*
X75110000Y-29255004D02*
X75110000Y-30245000D01*
X82020000Y-33005000D02*
X82410000Y-33005000D01*
X80352500Y-31337500D02*
X82020000Y-33005000D01*
X71520000Y-26315000D02*
X71250000Y-26585000D01*
X72175000Y-29990000D02*
X72680000Y-30495000D01*
X72680000Y-30495000D02*
X73950000Y-30495000D01*
X74455000Y-29990000D02*
X73950000Y-30495000D01*
X72175000Y-29680000D02*
X72175000Y-29990000D01*
X74035000Y-26565000D02*
X74035000Y-27605000D01*
X74035000Y-26565000D02*
X73785000Y-26315000D01*
X73785000Y-26315000D02*
X71520000Y-26315000D01*
X71250000Y-28755000D02*
X72175000Y-29680000D01*
X71250000Y-26585000D02*
X71250000Y-28755000D01*
X74450000Y-29985000D02*
X74455000Y-29990000D01*
X74455000Y-29990000D02*
X74465000Y-29980000D01*
X76710000Y-28555000D02*
X76720000Y-28555000D01*
X73035000Y-27605000D02*
X73035000Y-28355000D01*
X73235000Y-28555000D02*
X76435000Y-28555000D01*
X73035000Y-28355000D02*
X73235000Y-28555000D01*
X76435000Y-28555000D02*
X76710000Y-28555000D01*
X77015000Y-28780000D02*
X76980000Y-28815000D01*
X78010000Y-28355000D02*
X78210000Y-28355000D01*
X78010000Y-28355000D02*
X77585000Y-28780000D01*
X77585000Y-28780000D02*
X77015000Y-28780000D01*
X76720000Y-28555000D02*
X76980000Y-28815000D01*
X82410000Y-27105000D02*
X82410000Y-28130000D01*
X80585000Y-28355000D02*
X78210000Y-28355000D01*
X78210000Y-28355000D02*
X78185000Y-28355000D01*
X80985000Y-28755000D02*
X80585000Y-28355000D01*
X81785000Y-28755000D02*
X80985000Y-28755000D01*
X82410000Y-28130000D02*
X81785000Y-28755000D01*
D36*
X96680000Y-26755000D02*
X96680000Y-28160000D01*
X96685000Y-28155000D02*
X95085000Y-29755000D01*
X95085000Y-29755000D02*
X86885000Y-29755000D01*
X86885000Y-29755000D02*
X85660000Y-28530000D01*
X85660000Y-28530000D02*
X85660000Y-27105000D01*
X96680000Y-28160000D02*
X96685000Y-28155000D01*
D39*
X42667500Y-23357500D02*
X42617500Y-23307500D01*
X42617500Y-23307500D02*
X42117500Y-23307500D01*
D37*
X47167500Y-24407500D02*
X47392500Y-24632500D01*
X42667500Y-23357500D02*
X46117500Y-23357500D01*
X47167500Y-24407500D02*
X46117500Y-23357500D01*
X45667500Y-28095498D02*
X45667500Y-29007500D01*
X47392500Y-24632500D02*
X47392500Y-26370498D01*
X47392500Y-26370498D02*
X45667500Y-28095498D01*
X49207500Y-34492500D02*
X49207500Y-33871764D01*
X48192500Y-36407500D02*
X48192500Y-35507500D01*
X49207500Y-33871764D02*
X49207500Y-33447500D01*
X48192500Y-35507500D02*
X49207500Y-34492500D01*
D40*
X80985000Y-27495000D02*
X81337500Y-27847500D01*
D41*
X64967500Y-26357500D02*
X64967500Y-26355000D01*
X69677500Y-25957500D02*
X69685000Y-25965000D01*
D36*
X86310000Y-33005000D02*
X86310000Y-33920000D01*
X86310000Y-33920000D02*
X86927500Y-34537500D01*
X86927500Y-34537500D02*
X88002500Y-34537500D01*
D39*
X49217500Y-25707500D02*
X49217500Y-26737500D01*
X50757500Y-28277500D02*
X52187500Y-28277500D01*
X49217500Y-26737500D02*
X50757500Y-28277500D01*
D40*
X49207500Y-25577500D02*
X49147500Y-25517500D01*
X49147500Y-25517500D02*
X49147500Y-25397500D01*
X48967500Y-25577500D02*
X49147500Y-25397500D01*
D39*
X64227500Y-30437500D02*
X63677500Y-30437500D01*
X63677500Y-30437500D02*
X62677500Y-31437500D01*
X62677500Y-31437500D02*
X62677500Y-32977500D01*
X60047500Y-31647500D02*
X60067500Y-31627500D01*
D35*
X58337500Y-28987500D02*
X58347500Y-28997500D01*
X58347500Y-28997500D02*
X58347500Y-29477500D01*
D36*
X55577500Y-26262500D02*
X54582500Y-26262500D01*
X54582500Y-26262500D02*
X54577500Y-26257500D01*
D39*
X60837500Y-31407500D02*
X60067500Y-31407500D01*
X61367500Y-30877500D02*
X60837500Y-31407500D01*
X63237500Y-30877500D02*
X61367500Y-30877500D01*
X63677500Y-30437500D02*
X63237500Y-30877500D01*
X77035000Y-27605000D02*
X77035000Y-25965000D01*
X77035000Y-25965000D02*
X77027500Y-25957500D01*
D40*
X80985000Y-26555000D02*
X80985000Y-27495000D01*
D41*
X69685000Y-25965000D02*
X69685000Y-26155000D01*
X80927500Y-25957500D02*
X80985000Y-26015000D01*
D40*
X80985000Y-26015000D02*
X80985000Y-26555000D01*
D35*
X68690000Y-28700000D02*
X68445000Y-28455000D01*
X68690000Y-30515000D02*
X68690000Y-28700000D01*
X69380000Y-31205000D02*
X68690000Y-30515000D01*
X70435000Y-31205000D02*
X69380000Y-31205000D01*
X67620000Y-26750000D02*
X68215000Y-26155000D01*
X68215000Y-26155000D02*
X69685000Y-26155000D01*
X67620000Y-27630000D02*
X67620000Y-26750000D01*
X68445000Y-28455000D02*
X67620000Y-27630000D01*
D36*
X85010000Y-33005000D02*
X85010000Y-33985000D01*
X85880000Y-37555000D02*
X85180000Y-37555000D01*
X86480000Y-36955000D02*
X85880000Y-37555000D01*
X86480000Y-35003530D02*
X86480000Y-36955000D01*
X86031470Y-34555000D02*
X86480000Y-35003530D01*
X85580000Y-34555000D02*
X86031470Y-34555000D01*
X85010000Y-33985000D02*
X85580000Y-34555000D01*
D42*
X80885000Y-36355000D02*
X80885000Y-37160000D01*
X81280000Y-37555000D02*
X83280000Y-37555000D01*
X80885000Y-37160000D02*
X81280000Y-37555000D01*
X85480000Y-37555000D02*
X83280000Y-37555000D01*
D34*
X65960000Y-26355000D02*
X65970000Y-26355000D01*
D36*
X63910000Y-26355000D02*
X63910000Y-26235000D01*
X81085000Y-36555000D02*
X80885000Y-36355000D01*
D39*
X63870000Y-36672500D02*
X64717500Y-36672500D01*
X64717500Y-36672500D02*
X64917500Y-36872500D01*
X64917500Y-36872500D02*
X64917500Y-37687500D01*
X64917500Y-37687500D02*
X65110000Y-37880000D01*
X65110000Y-37880000D02*
X68160000Y-37880000D01*
X68160000Y-37880000D02*
X68731000Y-37309000D01*
X68731000Y-37309000D02*
X68731000Y-36553000D01*
D35*
X69223000Y-35537000D02*
X68731000Y-36029000D01*
X71509000Y-35537000D02*
X69223000Y-35537000D01*
D39*
X72260000Y-35283000D02*
X72260000Y-35255000D01*
X72260000Y-35255000D02*
X72435000Y-35080000D01*
D37*
X65885000Y-26355000D02*
X64967500Y-26355000D01*
X64967500Y-26355000D02*
X64910000Y-26355000D01*
X64910000Y-26355000D02*
X64135000Y-26355000D01*
D35*
X72535000Y-36305000D02*
X72535000Y-35547000D01*
X71763000Y-35283000D02*
X71509000Y-35537000D01*
X72271000Y-35283000D02*
X72260000Y-35283000D01*
X72260000Y-35283000D02*
X71763000Y-35283000D01*
X72535000Y-35547000D02*
X72271000Y-35283000D01*
X68731000Y-36029000D02*
X68731000Y-36553000D01*
X68731000Y-36823000D02*
X68731000Y-36553000D01*
X79135000Y-34205000D02*
X81035000Y-34205000D01*
X81035000Y-34205000D02*
X81285000Y-33955000D01*
D36*
X80986202Y-36410800D02*
X80985000Y-36412002D01*
D37*
X46951500Y-37357500D02*
X46192500Y-37357500D01*
X48025000Y-38431000D02*
X46951500Y-37357500D01*
X47142500Y-35232494D02*
X47317498Y-35057496D01*
X47142500Y-37092500D02*
X47142500Y-35232494D01*
X47317498Y-35057496D02*
X47617497Y-34757497D01*
X46192500Y-37357500D02*
X46877500Y-37357500D01*
X46877500Y-37357500D02*
X47142500Y-37092500D01*
D40*
X47187500Y-29047535D02*
X45777500Y-30457535D01*
X45777500Y-30457535D02*
X45777500Y-31857500D01*
X47187500Y-28277500D02*
X47187500Y-29047535D01*
D38*
X65767500Y-34857500D02*
X65237500Y-34857500D01*
X74460000Y-32755000D02*
X75510000Y-31705000D01*
X75510000Y-31705000D02*
X79135000Y-31705000D01*
X64927500Y-32407500D02*
X64897500Y-32377500D01*
X64927500Y-34547500D02*
X64927500Y-32407500D01*
X65237500Y-34857500D02*
X64927500Y-34547500D01*
X61987500Y-31537500D02*
X60777500Y-32747500D01*
X60777500Y-32747500D02*
X60777500Y-32977500D01*
X79135000Y-31205000D02*
X75925000Y-31205000D01*
X75782500Y-31062500D02*
X75925000Y-31205000D01*
D36*
X85195000Y-25855000D02*
X83970000Y-25855000D01*
X83710000Y-26115000D02*
X83710000Y-27105000D01*
X83970000Y-25855000D02*
X83710000Y-26115000D01*
X86310000Y-25855000D02*
X85195000Y-25855000D01*
X85010000Y-26040000D02*
X85010000Y-27105000D01*
X85195000Y-25855000D02*
X85010000Y-26040000D01*
D43*
X92880000Y-26755000D02*
X91020000Y-26755000D01*
X91020000Y-26755000D02*
X90980000Y-26795000D01*
D44*
X90980000Y-26795000D02*
X92840000Y-26795000D01*
X92840000Y-26795000D02*
X92880000Y-26755000D01*
X92840000Y-26795000D02*
X92880000Y-26755000D01*
D36*
X86310000Y-25855000D02*
X87380000Y-25855000D01*
X87380000Y-25855000D02*
X87680000Y-26155000D01*
X87680000Y-26155000D02*
X87680000Y-27355000D01*
X87680000Y-27355000D02*
X88580000Y-28255000D01*
X88580000Y-28255000D02*
X90480000Y-28255000D01*
X90480000Y-28255000D02*
X90980000Y-27755000D01*
X90980000Y-27755000D02*
X90980000Y-26795000D01*
X86310000Y-27105000D02*
X86310000Y-25855000D01*
D40*
X132037500Y-31257500D02*
X130342500Y-31257500D01*
X129727500Y-31862500D02*
X130252500Y-31337500D01*
D36*
X94780000Y-27755000D02*
X94780000Y-26755000D01*
X94780000Y-26755000D02*
X94780000Y-27755000D01*
X94780000Y-27755000D02*
X94780000Y-27760000D01*
X86960000Y-28130000D02*
X86960000Y-27105000D01*
X87885000Y-29055000D02*
X86960000Y-28130000D01*
X93485000Y-29055000D02*
X87885000Y-29055000D01*
X94785000Y-27755000D02*
X93485000Y-29055000D01*
X94780000Y-27760000D02*
X94785000Y-27755000D01*
D40*
X100080000Y-30855000D02*
X125665000Y-30855000D01*
X98580000Y-29285000D02*
X98580000Y-29355000D01*
X98580000Y-29355000D02*
X100080000Y-30855000D01*
X126097500Y-31287500D02*
X127807500Y-31287500D01*
X125665000Y-30855000D02*
X126097500Y-31287500D01*
D36*
X98580000Y-29285000D02*
X98580000Y-29295000D01*
X84360000Y-28525000D02*
X86360000Y-30525000D01*
X84360000Y-28525000D02*
X84360000Y-27105000D01*
X97350000Y-30525000D02*
X86360000Y-30525000D01*
X98580000Y-29295000D02*
X97350000Y-30525000D01*
D40*
X98580000Y-26755000D02*
X98580000Y-29285000D01*
D38*
X59977500Y-26262500D02*
X61402500Y-26262500D01*
X61837500Y-26697500D02*
X61837500Y-28067500D01*
X61402500Y-26262500D02*
X61837500Y-26697500D01*
X72060000Y-31115000D02*
X71610000Y-31565000D01*
X71610000Y-31565000D02*
X71610000Y-33805000D01*
X71210000Y-34205000D02*
X71610000Y-33805000D01*
X70435000Y-34205000D02*
X71210000Y-34205000D01*
X62442500Y-28292500D02*
X62077500Y-28657500D01*
X62077500Y-28657500D02*
X61237500Y-28657500D01*
X62047500Y-25747500D02*
X62442500Y-26142500D01*
X56977500Y-25747500D02*
X62047500Y-25747500D01*
X62442500Y-26142500D02*
X62442500Y-28292500D01*
X56707500Y-26017500D02*
X56977500Y-25747500D01*
X56707500Y-27997500D02*
X56707500Y-26017500D01*
X56467500Y-28237500D02*
X56707500Y-27997500D01*
X56467500Y-28237500D02*
X55802500Y-28237500D01*
X56727500Y-29557500D02*
X56727500Y-28537500D01*
X56402500Y-28212500D02*
X55577500Y-28212500D01*
X56727500Y-28537500D02*
X56402500Y-28212500D01*
X79135000Y-32205000D02*
X79945000Y-32205000D01*
X79945000Y-32205000D02*
X80295000Y-32555000D01*
X71207500Y-35132500D02*
X68402500Y-35132500D01*
X67230000Y-36705000D02*
X65685000Y-36705000D01*
X67880000Y-36055000D02*
X67230000Y-36705000D01*
X67880000Y-35905000D02*
X67880000Y-36055000D01*
X67980000Y-35805000D02*
X67880000Y-35905000D01*
X67980000Y-35555000D02*
X67980000Y-35805000D01*
X68402500Y-35132500D02*
X67980000Y-35555000D01*
X74035000Y-36305000D02*
X74035000Y-35605000D01*
X71935000Y-34405000D02*
X71207500Y-35132500D01*
X71207500Y-35132500D02*
X71203002Y-35136998D01*
X72835000Y-34405000D02*
X71935000Y-34405000D01*
X74035000Y-35605000D02*
X72835000Y-34405000D01*
D39*
X59977500Y-28212500D02*
X57947502Y-28212500D01*
X57542502Y-30562498D02*
X56247500Y-31857500D01*
X57542502Y-28617500D02*
X57542502Y-30562498D01*
X57947502Y-28212500D02*
X57542502Y-28617500D01*
X56247500Y-31857500D02*
X55777500Y-31857500D01*
X59977500Y-28212500D02*
X59977500Y-29317500D01*
X59977500Y-29317500D02*
X60067500Y-29407500D01*
X44117500Y-39197500D02*
X44897500Y-39197500D01*
X61980000Y-37685000D02*
X62807500Y-36857500D01*
X69085000Y-34705000D02*
X70435000Y-34705000D01*
X69085000Y-34705000D02*
X68835000Y-34455000D01*
X61980000Y-37685000D02*
X56200000Y-37685000D01*
X54547500Y-40427500D02*
X46127500Y-40427500D01*
X55517500Y-39457500D02*
X54547500Y-40427500D01*
X55517500Y-38357500D02*
X55517500Y-39457500D01*
X56190000Y-37685000D02*
X55517500Y-38357500D01*
X56200000Y-37685000D02*
X56190000Y-37685000D01*
X44897500Y-39197500D02*
X46127500Y-40427500D01*
X44117500Y-39197500D02*
X45097500Y-39197500D01*
X45327500Y-38967500D02*
X45097500Y-39197500D01*
X45327500Y-34147500D02*
X46917500Y-32557500D01*
X45327500Y-38567500D02*
X45327500Y-34147500D01*
X46917500Y-30907500D02*
X46917500Y-32557500D01*
X47467500Y-30357500D02*
X46917500Y-30907500D01*
X45327500Y-38567500D02*
X45327500Y-38967500D01*
D36*
X44167500Y-39107500D02*
X44117500Y-39157500D01*
D39*
X55777500Y-31857500D02*
X55777500Y-30917500D01*
X55777500Y-31857500D02*
X55447500Y-31857500D01*
X54927500Y-30037500D02*
X54577500Y-29687500D01*
X55777500Y-31857500D02*
X55777500Y-31307500D01*
X55777500Y-31307500D02*
X54927500Y-30457500D01*
X54927500Y-30457500D02*
X54927500Y-30037500D01*
X50097500Y-29687500D02*
X49427500Y-30357500D01*
X49427500Y-30357500D02*
X48217500Y-30357500D01*
X54577500Y-29687500D02*
X50097500Y-29687500D01*
X47942500Y-24031774D02*
X47942500Y-23607510D01*
X48517500Y-27807500D02*
X48167500Y-27457500D01*
X47037500Y-30777500D02*
X48517500Y-29297500D01*
X48167500Y-24256774D02*
X47942500Y-24031774D01*
X48167500Y-27457500D02*
X48167500Y-24256774D01*
X48517500Y-29297500D02*
X48517500Y-27807500D01*
X47467500Y-30357500D02*
X48217500Y-30357500D01*
X55577500Y-26912500D02*
X55577500Y-27562500D01*
D38*
X53197500Y-33597500D02*
X53767500Y-33027500D01*
X53197500Y-35387500D02*
X53197500Y-33697500D01*
X54247500Y-36437500D02*
X53197500Y-35387500D01*
X62997500Y-36057500D02*
X62997500Y-35947500D01*
X63867500Y-32957500D02*
X63867500Y-33177500D01*
X60717500Y-36027500D02*
X60307500Y-36437500D01*
X63077500Y-36027500D02*
X60717500Y-36027500D01*
X62997500Y-35947500D02*
X63077500Y-36027500D01*
X60307500Y-36437500D02*
X54247500Y-36437500D01*
X53197500Y-33697500D02*
X53197500Y-33597500D01*
X54497500Y-32907500D02*
X53777500Y-32187500D01*
X54877500Y-33927500D02*
X54497500Y-33547500D01*
X59677500Y-33927500D02*
X56887500Y-33927500D01*
X59677500Y-33927500D02*
X60607500Y-34857500D01*
X56887500Y-33927500D02*
X54877500Y-33927500D01*
X54497500Y-33547500D02*
X54497500Y-32907500D01*
X60767500Y-34857500D02*
X60607500Y-34857500D01*
X64937500Y-27737500D02*
X64937500Y-28867500D01*
X70610823Y-27374177D02*
X68520823Y-27374177D01*
X70860000Y-26469334D02*
X70860000Y-27125000D01*
X74935000Y-25955000D02*
X71374334Y-25955000D01*
X75535000Y-27605000D02*
X75535000Y-26555000D01*
X75535000Y-26555000D02*
X74935000Y-25955000D01*
X70860000Y-27125000D02*
X70610823Y-27374177D01*
X71374334Y-25955000D02*
X70860000Y-26469334D01*
X65327500Y-27347500D02*
X64937500Y-27737500D01*
X66797500Y-27347500D02*
X65327500Y-27347500D01*
X66947500Y-27497500D02*
X66797500Y-27347500D01*
X68520823Y-27374177D02*
X68407500Y-27487500D01*
X66127500Y-29497500D02*
X66127500Y-30437500D01*
X65797500Y-29167500D02*
X66127500Y-29497500D01*
X65237500Y-29167500D02*
X65797500Y-29167500D01*
X64937500Y-28867500D02*
X65237500Y-29167500D01*
X66120000Y-30430000D02*
X66127500Y-30437500D01*
D43*
X90980000Y-36955000D02*
X89080000Y-36955000D01*
D38*
X59127500Y-30827500D02*
X59127500Y-32057500D01*
X61417500Y-30187500D02*
X60987500Y-30617500D01*
X60987500Y-30617500D02*
X59337500Y-30617500D01*
X59337500Y-30617500D02*
X59127500Y-30827500D01*
X71170000Y-29205000D02*
X71680000Y-29715000D01*
X71680000Y-29715000D02*
X71680000Y-30385000D01*
X70435000Y-29205000D02*
X71170000Y-29205000D01*
X61627500Y-30187500D02*
X61417500Y-30187500D01*
X59547500Y-32477500D02*
X59547500Y-33457500D01*
X59127500Y-32057500D02*
X59547500Y-32477500D01*
X51347500Y-25687500D02*
X53577500Y-27917500D01*
X53577500Y-28637500D02*
X53577500Y-27917500D01*
X54867500Y-31047500D02*
X54167500Y-30347500D01*
X57237500Y-32977500D02*
X56687500Y-33527500D01*
X56687500Y-33527500D02*
X55047500Y-33527500D01*
X55047500Y-33527500D02*
X54867500Y-33347500D01*
X57237500Y-32977500D02*
X57667500Y-32977500D01*
X54867500Y-33347500D02*
X54867500Y-31047500D01*
X51347500Y-25687500D02*
X51347500Y-25397500D01*
D36*
X84360000Y-33005000D02*
X84360000Y-30200000D01*
X83717500Y-29557500D02*
X83367500Y-29557500D01*
X84360000Y-30200000D02*
X83717500Y-29557500D01*
X84360000Y-33005000D02*
X84360000Y-34735000D01*
X84360000Y-34735000D02*
X85180000Y-35555000D01*
X84980000Y-35555000D02*
X85480000Y-35555000D01*
D40*
X128352500Y-32830000D02*
X131335000Y-32830000D01*
X131335000Y-32830000D02*
X131907500Y-32257500D01*
D36*
X128352500Y-32830000D02*
X128352500Y-32737500D01*
X128352500Y-32737500D02*
X128352500Y-32830000D01*
D40*
X127852500Y-32830000D02*
X128352500Y-32830000D01*
X124602500Y-32830000D02*
X127852500Y-32830000D01*
X127852500Y-32830000D02*
X127860000Y-32830000D01*
X109670000Y-32830000D02*
X90205000Y-32830000D01*
X109670000Y-32830000D02*
X124602500Y-32830000D01*
X124602500Y-32830000D02*
X124670000Y-32830000D01*
X90227500Y-32830000D02*
X90205000Y-32830000D01*
X90227500Y-32837500D02*
X90227500Y-32830000D01*
X89077500Y-31702500D02*
X90205000Y-32830000D01*
X89077500Y-31712500D02*
X89082500Y-31707500D01*
X89082500Y-31707500D02*
X89077500Y-31712500D01*
X89077500Y-31712500D02*
X89077500Y-31702500D01*
X88830000Y-31455000D02*
X89077500Y-31702500D01*
X85385000Y-31455000D02*
X88830000Y-31455000D01*
D36*
X86485000Y-31455000D02*
X85385000Y-31455000D01*
X86960000Y-31930000D02*
X86485000Y-31455000D01*
X86960000Y-33005000D02*
X86960000Y-31930000D01*
X128357500Y-32317500D02*
X128352500Y-32830000D01*
D35*
X52407500Y-32807500D02*
X52748281Y-33148281D01*
X52036115Y-36067108D02*
X51736116Y-36367107D01*
X52748281Y-33148281D02*
X52748281Y-35354942D01*
X52748281Y-35354942D02*
X52036115Y-36067108D01*
D38*
X77685000Y-29455000D02*
X76555000Y-29455000D01*
X78384998Y-28755002D02*
X77685000Y-29455000D01*
X80185002Y-28755002D02*
X78384998Y-28755002D01*
X80685000Y-29255000D02*
X80185002Y-28755002D01*
X81885000Y-29255000D02*
X80685000Y-29255000D01*
X83060000Y-28080000D02*
X81885000Y-29255000D01*
X83060000Y-27105000D02*
X83060000Y-28080000D01*
X73010002Y-28905002D02*
X72535000Y-28430000D01*
X76005002Y-28905002D02*
X73010002Y-28905002D01*
X76555000Y-29455000D02*
X76005002Y-28905002D01*
X72535000Y-28430000D02*
X72535000Y-27605000D01*
X73197500Y-31412500D02*
X73197500Y-33797500D01*
X72890000Y-31105000D02*
X73197500Y-31412500D01*
X72035000Y-27605000D02*
X72035000Y-28440000D01*
X73197500Y-33797500D02*
X74480000Y-35080000D01*
X72035000Y-28440000D02*
X73120000Y-29525000D01*
X74385000Y-34985000D02*
X74480000Y-35080000D01*
D39*
X57667500Y-35487500D02*
X57077500Y-35487500D01*
X57077500Y-35487500D02*
X56737500Y-35827500D01*
X51997500Y-34187500D02*
X52079205Y-34187500D01*
X52047500Y-34187500D02*
X52079205Y-34187500D01*
X52111348Y-34155357D02*
X52123280Y-34155357D01*
X52079205Y-34187500D02*
X52111348Y-34155357D01*
X51823281Y-33855358D02*
X50945358Y-33855358D01*
X52123280Y-34155357D02*
X51823281Y-33855358D01*
X50945358Y-33855358D02*
X49887500Y-32797500D01*
X49887500Y-32797500D02*
X47857500Y-32797500D01*
X46192500Y-34462500D02*
X46192500Y-35457500D01*
X47857500Y-32797500D02*
X46192500Y-34462500D01*
D34*
X66365000Y-58355000D02*
X67365000Y-59355000D01*
D35*
X70435000Y-63705000D02*
X68585000Y-63705000D01*
D36*
X83285000Y-61255000D02*
X83710000Y-61928000D01*
D35*
X78885000Y-66355000D02*
X78885000Y-64955000D01*
D34*
X64857500Y-59397500D02*
X62817500Y-59397500D01*
D35*
X78885000Y-64955000D02*
X79135000Y-64705000D01*
D36*
X83710000Y-61928000D02*
X83710000Y-63005000D01*
D34*
X65177500Y-59717500D02*
X64857500Y-59397500D01*
X65177500Y-60997500D02*
X65177500Y-59717500D01*
X65627500Y-61447500D02*
X65177500Y-60997500D01*
X68257500Y-61447500D02*
X65627500Y-61447500D01*
X69515000Y-62705000D02*
X68257500Y-61447500D01*
X62817500Y-59397500D02*
X62717500Y-59497500D01*
X63910000Y-58355000D02*
X63485000Y-58355000D01*
X63485000Y-58355000D02*
X62485000Y-59355000D01*
X64135000Y-58355000D02*
X63485000Y-58355000D01*
X70435000Y-62205000D02*
X69705000Y-62205000D01*
X69705000Y-62205000D02*
X67597500Y-60097500D01*
X67597500Y-60097500D02*
X67597500Y-59497500D01*
X67385000Y-59375000D02*
X67365000Y-59355000D01*
X65885000Y-58355000D02*
X66365000Y-58355000D01*
D39*
X63832500Y-64432500D02*
X63857500Y-64457500D01*
D35*
X68585000Y-63705000D02*
X67185000Y-65105000D01*
X67185000Y-65105000D02*
X67185000Y-65505000D01*
X70435000Y-63205000D02*
X67585000Y-63205000D01*
X67585000Y-63205000D02*
X67185000Y-63605000D01*
D38*
X75110000Y-60245000D02*
X73590000Y-61765000D01*
X73590000Y-61765000D02*
X73590000Y-63040000D01*
X73590000Y-63040000D02*
X75630000Y-65080000D01*
X75630000Y-64880000D02*
X75630000Y-65080000D01*
D36*
X69797500Y-58097500D02*
X69740000Y-58155000D01*
X69740000Y-58155000D02*
X69685000Y-58155000D01*
D35*
X69580000Y-60705000D02*
X70435000Y-60705000D01*
D37*
X78985000Y-56555000D02*
X78985000Y-57345000D01*
X78985000Y-57345000D02*
X79077500Y-57437500D01*
X79077500Y-57437500D02*
X79602500Y-57437500D01*
D35*
X69180000Y-60305000D02*
X69580000Y-60705000D01*
X69180000Y-57865000D02*
X69180000Y-60305000D01*
D36*
X83280000Y-65555000D02*
X81780000Y-65555000D01*
X80180000Y-65155000D02*
X78980000Y-66355000D01*
X81380000Y-65155000D02*
X80180000Y-65155000D01*
X81780000Y-65555000D02*
X81380000Y-65155000D01*
X78980000Y-66355000D02*
X78885000Y-66355000D01*
X83710000Y-63005000D02*
X83710000Y-65125000D01*
X83710000Y-65125000D02*
X83280000Y-65555000D01*
D38*
X79080000Y-66655000D02*
X78885000Y-66460000D01*
X78885000Y-66460000D02*
X78885000Y-66355000D01*
D35*
X69685000Y-58155000D02*
X69685000Y-58355000D01*
X72017000Y-67315000D02*
X72017000Y-66323000D01*
X72017000Y-66323000D02*
X72035000Y-66305000D01*
X78885000Y-66355000D02*
X78885000Y-67051000D01*
X71001000Y-67315000D02*
X70731000Y-67045000D01*
X78621000Y-67315000D02*
X72017000Y-67315000D01*
X72017000Y-67315000D02*
X71001000Y-67315000D01*
X78885000Y-67051000D02*
X78621000Y-67315000D01*
X70731000Y-67045000D02*
X70731000Y-66553000D01*
X69635000Y-58205000D02*
X69535000Y-58205000D01*
X78985000Y-56555000D02*
X77885000Y-56555000D01*
X77885000Y-56555000D02*
X77535000Y-56905000D01*
X77535000Y-56905000D02*
X77535000Y-57605000D01*
D36*
X78985000Y-56555000D02*
X79285000Y-56555000D01*
D39*
X59977500Y-59317500D02*
X60067500Y-59407500D01*
D40*
X80985000Y-57495000D02*
X81337500Y-57847500D01*
D41*
X64967500Y-56357500D02*
X64967500Y-56355000D01*
X69677500Y-55957500D02*
X69685000Y-55965000D01*
D38*
X77535000Y-66305000D02*
X77535000Y-64205000D01*
X77535000Y-64205000D02*
X76435000Y-63105000D01*
X54237500Y-67197500D02*
X52605000Y-68830000D01*
X61447500Y-67197500D02*
X54237500Y-67197500D01*
X61787500Y-66857500D02*
X61447500Y-67197500D01*
X52605000Y-68830000D02*
X52605000Y-68631000D01*
X77885000Y-63705000D02*
X77235000Y-63055000D01*
X79135000Y-63705000D02*
X77885000Y-63705000D01*
X52427500Y-66837500D02*
X50634000Y-68631000D01*
X60757500Y-66837500D02*
X52427500Y-66837500D01*
X60987500Y-66607500D02*
X60757500Y-66837500D01*
X50634000Y-68631000D02*
X50065000Y-68631000D01*
D39*
X63867500Y-64857500D02*
X62667500Y-64857500D01*
D38*
X78235000Y-63205000D02*
X77460000Y-62430000D01*
X77460000Y-62430000D02*
X76235000Y-62430000D01*
X76235000Y-62430000D02*
X75835000Y-62830000D01*
X75835000Y-62830000D02*
X75835000Y-63680000D01*
X78235000Y-63205000D02*
X79135000Y-63205000D01*
D41*
X69685000Y-55965000D02*
X69685000Y-56155000D01*
X80927500Y-55957500D02*
X80985000Y-56015000D01*
D40*
X80985000Y-56015000D02*
X80985000Y-56555000D01*
D38*
X76085000Y-62055002D02*
X76084998Y-62055002D01*
X76084998Y-62055002D02*
X75110000Y-63030000D01*
X75110000Y-63030000D02*
X75110000Y-63280000D01*
X78285000Y-62705000D02*
X77635002Y-62055002D01*
X77635002Y-62055002D02*
X76085000Y-62055002D01*
X79135000Y-62705000D02*
X78285000Y-62705000D01*
X65717500Y-62957500D02*
X65762500Y-62912500D01*
X65685000Y-62405000D02*
X65585000Y-62505000D01*
X54287500Y-64317500D02*
X54277500Y-64317500D01*
X59567500Y-65487500D02*
X59567500Y-64707500D01*
X59567500Y-64707500D02*
X59177500Y-64317500D01*
X59177500Y-64317500D02*
X54287500Y-64317500D01*
X54277500Y-64317500D02*
X53857500Y-63897500D01*
D39*
X50707604Y-65600534D02*
X51007603Y-65300535D01*
X48817509Y-69917491D02*
X49297500Y-69437500D01*
X49297500Y-69437500D02*
X49297500Y-67010638D01*
X46442498Y-69082500D02*
X47277489Y-69917491D01*
X47277489Y-69917491D02*
X48817509Y-69917491D01*
X49297500Y-67010638D02*
X50707604Y-65600534D01*
D35*
X50347499Y-64232483D02*
X50047500Y-63932484D01*
X50790541Y-64675525D02*
X50347499Y-64232483D01*
X51515460Y-64675525D02*
X50790541Y-64675525D01*
D39*
X59977500Y-56912500D02*
X59977500Y-57562500D01*
D38*
X56987500Y-60457500D02*
X55967500Y-60457500D01*
X49395708Y-59294465D02*
X49095709Y-59594464D01*
X57652500Y-57562500D02*
X57117500Y-58097500D01*
X57117500Y-60327500D02*
X56987500Y-60457500D01*
X49429027Y-59261146D02*
X49395708Y-59294465D01*
X55967500Y-60457500D02*
X54771146Y-59261146D01*
X59977500Y-57562500D02*
X57652500Y-57562500D01*
X57117500Y-58097500D02*
X57117500Y-60327500D01*
X54771146Y-59261146D02*
X49429027Y-59261146D01*
X75110000Y-59255004D02*
X75805004Y-59255004D01*
X77952500Y-60287500D02*
X76837500Y-60287500D01*
X76837500Y-60287500D02*
X75805004Y-59255004D01*
X83060000Y-61995000D02*
X83060000Y-63005000D01*
X81547500Y-60482500D02*
X83060000Y-61995000D01*
X80357500Y-60482500D02*
X81547500Y-60482500D01*
X80352500Y-60487500D02*
X80357500Y-60482500D01*
X71610000Y-56780000D02*
X71610000Y-58614978D01*
X71610000Y-58614978D02*
X72545000Y-59549978D01*
X74229996Y-59255004D02*
X75110000Y-59255004D01*
X73350000Y-60135000D02*
X72840000Y-60135000D01*
X72545000Y-59840000D02*
X72840000Y-60135000D01*
X72545000Y-59549978D02*
X72545000Y-59840000D01*
X74229996Y-59255004D02*
X73350000Y-60135000D01*
X73535000Y-57605000D02*
X73535000Y-56835000D01*
X71715000Y-56675000D02*
X71610000Y-56780000D01*
X73375000Y-56675000D02*
X71715000Y-56675000D01*
X73535000Y-56835000D02*
X73375000Y-56675000D01*
X75110000Y-59255004D02*
X75110000Y-60245000D01*
D39*
X59977500Y-58212500D02*
X57947502Y-58212500D01*
X57542502Y-60562498D02*
X56247500Y-61857500D01*
X57542502Y-58617500D02*
X57542502Y-60562498D01*
X57947502Y-58212500D02*
X57542502Y-58617500D01*
X56247500Y-61857500D02*
X55777500Y-61857500D01*
X59977500Y-58212500D02*
X59977500Y-59317500D01*
D38*
X54247500Y-66437500D02*
X53197500Y-65387500D01*
X62997500Y-66057500D02*
X62997500Y-65947500D01*
X63867500Y-62957500D02*
X63867500Y-63177500D01*
X60717500Y-66027500D02*
X60307500Y-66437500D01*
X63077500Y-66027500D02*
X60717500Y-66027500D01*
X82020000Y-63005000D02*
X82410000Y-63005000D01*
X80352500Y-61337500D02*
X82020000Y-63005000D01*
X71520000Y-56315000D02*
X71250000Y-56585000D01*
X72175000Y-59990000D02*
X72680000Y-60495000D01*
X72680000Y-60495000D02*
X73950000Y-60495000D01*
X74455000Y-59990000D02*
X73950000Y-60495000D01*
X72175000Y-59680000D02*
X72175000Y-59990000D01*
X74035000Y-56565000D02*
X74035000Y-57605000D01*
X74035000Y-56565000D02*
X73785000Y-56315000D01*
X73785000Y-56315000D02*
X71520000Y-56315000D01*
X71250000Y-58755000D02*
X72175000Y-59680000D01*
X71250000Y-56585000D02*
X71250000Y-58755000D01*
X74450000Y-59985000D02*
X74455000Y-59990000D01*
X74455000Y-59990000D02*
X74465000Y-59980000D01*
X76710000Y-58555000D02*
X76720000Y-58555000D01*
X73035000Y-57605000D02*
X73035000Y-58355000D01*
X73235000Y-58555000D02*
X76435000Y-58555000D01*
X73035000Y-58355000D02*
X73235000Y-58555000D01*
X76435000Y-58555000D02*
X76710000Y-58555000D01*
X77015000Y-58780000D02*
X76980000Y-58815000D01*
X78010000Y-58355000D02*
X78210000Y-58355000D01*
X78010000Y-58355000D02*
X77585000Y-58780000D01*
X77585000Y-58780000D02*
X77015000Y-58780000D01*
X76720000Y-58555000D02*
X76980000Y-58815000D01*
X82410000Y-57105000D02*
X82410000Y-58130000D01*
X80585000Y-58355000D02*
X78210000Y-58355000D01*
X78210000Y-58355000D02*
X78185000Y-58355000D01*
X80985000Y-58755000D02*
X80585000Y-58355000D01*
X81785000Y-58755000D02*
X80985000Y-58755000D01*
X82410000Y-58130000D02*
X81785000Y-58755000D01*
D36*
X96680000Y-56755000D02*
X96680000Y-58160000D01*
X96685000Y-58155000D02*
X95085000Y-59755000D01*
X95085000Y-59755000D02*
X86885000Y-59755000D01*
X86885000Y-59755000D02*
X85660000Y-58530000D01*
X85660000Y-58530000D02*
X85660000Y-57105000D01*
X96680000Y-58160000D02*
X96685000Y-58155000D01*
D39*
X42667500Y-53357500D02*
X42617500Y-53307500D01*
X42617500Y-53307500D02*
X42117500Y-53307500D01*
D37*
X47167500Y-54407500D02*
X47392500Y-54632500D01*
X42667500Y-53357500D02*
X46117500Y-53357500D01*
X47167500Y-54407500D02*
X46117500Y-53357500D01*
X45667500Y-58095498D02*
X45667500Y-59007500D01*
X47392500Y-54632500D02*
X47392500Y-56370498D01*
X47392500Y-56370498D02*
X45667500Y-58095498D01*
X49207500Y-64492500D02*
X49207500Y-63871764D01*
X48192500Y-66407500D02*
X48192500Y-65507500D01*
X49207500Y-63871764D02*
X49207500Y-63447500D01*
X48192500Y-65507500D02*
X49207500Y-64492500D01*
D39*
X57667500Y-65487500D02*
X57077500Y-65487500D01*
X57077500Y-65487500D02*
X56737500Y-65827500D01*
D36*
X86310000Y-63005000D02*
X86310000Y-63920000D01*
X86310000Y-63920000D02*
X86927500Y-64537500D01*
X86927500Y-64537500D02*
X88002500Y-64537500D01*
D39*
X49217500Y-55707500D02*
X49217500Y-56737500D01*
X50757500Y-58277500D02*
X52187500Y-58277500D01*
X49217500Y-56737500D02*
X50757500Y-58277500D01*
D40*
X49207500Y-55577500D02*
X49147500Y-55517500D01*
X49147500Y-55517500D02*
X49147500Y-55397500D01*
X48967500Y-55577500D02*
X49147500Y-55397500D01*
D39*
X64227500Y-60437500D02*
X63677500Y-60437500D01*
X63677500Y-60437500D02*
X62677500Y-61437500D01*
X62677500Y-61437500D02*
X62677500Y-62977500D01*
X60047500Y-61647500D02*
X60067500Y-61627500D01*
D35*
X58337500Y-58987500D02*
X58347500Y-58997500D01*
X58347500Y-58997500D02*
X58347500Y-59477500D01*
D36*
X55577500Y-56262500D02*
X54582500Y-56262500D01*
X54582500Y-56262500D02*
X54577500Y-56257500D01*
D39*
X60837500Y-61407500D02*
X60067500Y-61407500D01*
X61367500Y-60877500D02*
X60837500Y-61407500D01*
X63237500Y-60877500D02*
X61367500Y-60877500D01*
X63677500Y-60437500D02*
X63237500Y-60877500D01*
X77035000Y-57605000D02*
X77035000Y-55965000D01*
X77035000Y-55965000D02*
X77027500Y-55957500D01*
D40*
X80985000Y-56555000D02*
X80985000Y-57495000D01*
D35*
X68690000Y-58700000D02*
X68445000Y-58455000D01*
X68690000Y-60515000D02*
X68690000Y-58700000D01*
X69380000Y-61205000D02*
X68690000Y-60515000D01*
X70435000Y-61205000D02*
X69380000Y-61205000D01*
X67620000Y-56750000D02*
X68215000Y-56155000D01*
X68215000Y-56155000D02*
X69685000Y-56155000D01*
X67620000Y-57630000D02*
X67620000Y-56750000D01*
X68445000Y-58455000D02*
X67620000Y-57630000D01*
D36*
X85010000Y-63005000D02*
X85010000Y-63985000D01*
X85880000Y-67555000D02*
X85180000Y-67555000D01*
X86480000Y-66955000D02*
X85880000Y-67555000D01*
X86480000Y-65003530D02*
X86480000Y-66955000D01*
X86031470Y-64555000D02*
X86480000Y-65003530D01*
X85580000Y-64555000D02*
X86031470Y-64555000D01*
X85010000Y-63985000D02*
X85580000Y-64555000D01*
D42*
X80885000Y-66355000D02*
X80885000Y-67160000D01*
X81280000Y-67555000D02*
X83280000Y-67555000D01*
X80885000Y-67160000D02*
X81280000Y-67555000D01*
X85480000Y-67555000D02*
X83280000Y-67555000D01*
D34*
X65960000Y-56355000D02*
X65970000Y-56355000D01*
D36*
X63910000Y-56355000D02*
X63910000Y-56235000D01*
X81085000Y-66555000D02*
X80885000Y-66355000D01*
D39*
X63870000Y-66672500D02*
X64717500Y-66672500D01*
X64717500Y-66672500D02*
X64917500Y-66872500D01*
X64917500Y-66872500D02*
X64917500Y-67687500D01*
X64917500Y-67687500D02*
X65110000Y-67880000D01*
X65110000Y-67880000D02*
X68160000Y-67880000D01*
X68160000Y-67880000D02*
X68731000Y-67309000D01*
X68731000Y-67309000D02*
X68731000Y-66553000D01*
D35*
X69223000Y-65537000D02*
X68731000Y-66029000D01*
X71509000Y-65537000D02*
X69223000Y-65537000D01*
D39*
X72260000Y-65283000D02*
X72260000Y-65255000D01*
X72260000Y-65255000D02*
X72435000Y-65080000D01*
D37*
X65885000Y-56355000D02*
X64967500Y-56355000D01*
X64967500Y-56355000D02*
X64910000Y-56355000D01*
X64910000Y-56355000D02*
X64135000Y-56355000D01*
D35*
X72535000Y-66305000D02*
X72535000Y-65547000D01*
X71763000Y-65283000D02*
X71509000Y-65537000D01*
X72271000Y-65283000D02*
X72260000Y-65283000D01*
X72260000Y-65283000D02*
X71763000Y-65283000D01*
X72535000Y-65547000D02*
X72271000Y-65283000D01*
X68731000Y-66029000D02*
X68731000Y-66553000D01*
X68731000Y-66823000D02*
X68731000Y-66553000D01*
X79135000Y-64205000D02*
X81035000Y-64205000D01*
X81035000Y-64205000D02*
X81285000Y-63955000D01*
D36*
X80986202Y-66410800D02*
X80985000Y-66412002D01*
D38*
X65767500Y-64857500D02*
X65237500Y-64857500D01*
X74460000Y-62755000D02*
X75510000Y-61705000D01*
X75510000Y-61705000D02*
X79135000Y-61705000D01*
X64927500Y-62407500D02*
X64897500Y-62377500D01*
X64927500Y-64547500D02*
X64927500Y-62407500D01*
X65237500Y-64857500D02*
X64927500Y-64547500D01*
X61987500Y-61537500D02*
X60777500Y-62747500D01*
X60777500Y-62747500D02*
X60777500Y-62977500D01*
X79135000Y-61205000D02*
X75925000Y-61205000D01*
X75782500Y-61062500D02*
X75925000Y-61205000D01*
D36*
X85195000Y-55855000D02*
X83970000Y-55855000D01*
X83710000Y-56115000D02*
X83710000Y-57105000D01*
X83970000Y-55855000D02*
X83710000Y-56115000D01*
X86310000Y-55855000D02*
X85195000Y-55855000D01*
X85010000Y-56040000D02*
X85010000Y-57105000D01*
X85195000Y-55855000D02*
X85010000Y-56040000D01*
D43*
X92880000Y-56755000D02*
X91020000Y-56755000D01*
X91020000Y-56755000D02*
X90980000Y-56795000D01*
D44*
X90980000Y-56795000D02*
X92840000Y-56795000D01*
X92840000Y-56795000D02*
X92880000Y-56755000D01*
X92840000Y-56795000D02*
X92880000Y-56755000D01*
D36*
X86310000Y-55855000D02*
X87380000Y-55855000D01*
X87380000Y-55855000D02*
X87680000Y-56155000D01*
X87680000Y-56155000D02*
X87680000Y-57355000D01*
X87680000Y-57355000D02*
X88580000Y-58255000D01*
X88580000Y-58255000D02*
X90480000Y-58255000D01*
X90480000Y-58255000D02*
X90980000Y-57755000D01*
X90980000Y-57755000D02*
X90980000Y-56795000D01*
X86310000Y-57105000D02*
X86310000Y-55855000D01*
D40*
X132037500Y-61257500D02*
X130342500Y-61257500D01*
X129727500Y-61862500D02*
X130252500Y-61337500D01*
D36*
X94780000Y-57755000D02*
X94780000Y-56755000D01*
X94780000Y-56755000D02*
X94780000Y-57755000D01*
X94780000Y-57755000D02*
X94780000Y-57760000D01*
X86960000Y-58130000D02*
X86960000Y-57105000D01*
X87885000Y-59055000D02*
X86960000Y-58130000D01*
X93485000Y-59055000D02*
X87885000Y-59055000D01*
X94785000Y-57755000D02*
X93485000Y-59055000D01*
X94780000Y-57760000D02*
X94785000Y-57755000D01*
D40*
X100080000Y-60855000D02*
X125665000Y-60855000D01*
X98580000Y-59285000D02*
X98580000Y-59355000D01*
X98580000Y-59355000D02*
X100080000Y-60855000D01*
X126097500Y-61287500D02*
X127807500Y-61287500D01*
X125665000Y-60855000D02*
X126097500Y-61287500D01*
D36*
X98580000Y-59285000D02*
X98580000Y-59295000D01*
X84360000Y-58525000D02*
X86360000Y-60525000D01*
X84360000Y-58525000D02*
X84360000Y-57105000D01*
X97350000Y-60525000D02*
X86360000Y-60525000D01*
X98580000Y-59295000D02*
X97350000Y-60525000D01*
D40*
X98580000Y-56755000D02*
X98580000Y-59285000D01*
D38*
X59977500Y-56262500D02*
X61402500Y-56262500D01*
X61837500Y-56697500D02*
X61837500Y-58067500D01*
X61402500Y-56262500D02*
X61837500Y-56697500D01*
X72060000Y-61115000D02*
X71610000Y-61565000D01*
X71610000Y-61565000D02*
X71610000Y-63805000D01*
X71210000Y-64205000D02*
X71610000Y-63805000D01*
X70435000Y-64205000D02*
X71210000Y-64205000D01*
X62442500Y-58292500D02*
X62077500Y-58657500D01*
X62077500Y-58657500D02*
X61237500Y-58657500D01*
X62047500Y-55747500D02*
X62442500Y-56142500D01*
X56977500Y-55747500D02*
X62047500Y-55747500D01*
X62442500Y-56142500D02*
X62442500Y-58292500D01*
X56707500Y-56017500D02*
X56977500Y-55747500D01*
X56707500Y-57997500D02*
X56707500Y-56017500D01*
X56467500Y-58237500D02*
X56707500Y-57997500D01*
X56467500Y-58237500D02*
X55802500Y-58237500D01*
X56727500Y-59557500D02*
X56727500Y-58537500D01*
X56402500Y-58212500D02*
X55577500Y-58212500D01*
X56727500Y-58537500D02*
X56402500Y-58212500D01*
X79135000Y-62205000D02*
X79945000Y-62205000D01*
X79945000Y-62205000D02*
X80295000Y-62555000D01*
X71207500Y-65132500D02*
X68402500Y-65132500D01*
X67230000Y-66705000D02*
X65685000Y-66705000D01*
X67880000Y-66055000D02*
X67230000Y-66705000D01*
X67880000Y-65905000D02*
X67880000Y-66055000D01*
X67980000Y-65805000D02*
X67880000Y-65905000D01*
X67980000Y-65555000D02*
X67980000Y-65805000D01*
X68402500Y-65132500D02*
X67980000Y-65555000D01*
X74035000Y-66305000D02*
X74035000Y-65605000D01*
X71935000Y-64405000D02*
X71207500Y-65132500D01*
X71207500Y-65132500D02*
X71203002Y-65136998D01*
X72835000Y-64405000D02*
X71935000Y-64405000D01*
X74035000Y-65605000D02*
X72835000Y-64405000D01*
D39*
X44117500Y-69197500D02*
X44897500Y-69197500D01*
X61980000Y-67685000D02*
X62807500Y-66857500D01*
X69085000Y-64705000D02*
X70435000Y-64705000D01*
X69085000Y-64705000D02*
X68835000Y-64455000D01*
X61980000Y-67685000D02*
X56200000Y-67685000D01*
X54547500Y-70427500D02*
X46127500Y-70427500D01*
X55517500Y-69457500D02*
X54547500Y-70427500D01*
X55517500Y-68357500D02*
X55517500Y-69457500D01*
X56190000Y-67685000D02*
X55517500Y-68357500D01*
X56200000Y-67685000D02*
X56190000Y-67685000D01*
X44897500Y-69197500D02*
X46127500Y-70427500D01*
X44117500Y-69197500D02*
X45097500Y-69197500D01*
X45327500Y-68967500D02*
X45097500Y-69197500D01*
X45327500Y-64147500D02*
X46917500Y-62557500D01*
X45327500Y-68567500D02*
X45327500Y-64147500D01*
X46917500Y-60907500D02*
X46917500Y-62557500D01*
X47467500Y-60357500D02*
X46917500Y-60907500D01*
X45327500Y-68567500D02*
X45327500Y-68967500D01*
D36*
X44167500Y-69107500D02*
X44117500Y-69157500D01*
D39*
X55777500Y-61857500D02*
X55777500Y-60917500D01*
X55777500Y-61857500D02*
X55447500Y-61857500D01*
X55577500Y-56912500D02*
X55577500Y-57562500D01*
D38*
X53197500Y-63597500D02*
X53767500Y-63027500D01*
X53197500Y-65387500D02*
X53197500Y-63697500D01*
X62997500Y-65947500D02*
X63077500Y-66027500D01*
X60307500Y-66437500D02*
X54247500Y-66437500D01*
X53197500Y-63697500D02*
X53197500Y-63597500D01*
X54497500Y-62907500D02*
X53777500Y-62187500D01*
X54877500Y-63927500D02*
X54497500Y-63547500D01*
X59677500Y-63927500D02*
X56887500Y-63927500D01*
X59677500Y-63927500D02*
X60607500Y-64857500D01*
X56887500Y-63927500D02*
X54877500Y-63927500D01*
X54497500Y-63547500D02*
X54497500Y-62907500D01*
X60767500Y-64857500D02*
X60607500Y-64857500D01*
X64937500Y-57737500D02*
X64937500Y-58867500D01*
X70610823Y-57374177D02*
X68520823Y-57374177D01*
X70860000Y-56469334D02*
X70860000Y-57125000D01*
X74935000Y-55955000D02*
X71374334Y-55955000D01*
X75535000Y-57605000D02*
X75535000Y-56555000D01*
X75535000Y-56555000D02*
X74935000Y-55955000D01*
X70860000Y-57125000D02*
X70610823Y-57374177D01*
X71374334Y-55955000D02*
X70860000Y-56469334D01*
X65327500Y-57347500D02*
X64937500Y-57737500D01*
X66797500Y-57347500D02*
X65327500Y-57347500D01*
X66947500Y-57497500D02*
X66797500Y-57347500D01*
X68520823Y-57374177D02*
X68407500Y-57487500D01*
X66127500Y-59497500D02*
X66127500Y-60437500D01*
X65797500Y-59167500D02*
X66127500Y-59497500D01*
X65237500Y-59167500D02*
X65797500Y-59167500D01*
X64937500Y-58867500D02*
X65237500Y-59167500D01*
X66120000Y-60430000D02*
X66127500Y-60437500D01*
D43*
X90980000Y-66955000D02*
X89080000Y-66955000D01*
D38*
X59127500Y-60827500D02*
X59127500Y-62057500D01*
X61417500Y-60187500D02*
X60987500Y-60617500D01*
X60987500Y-60617500D02*
X59337500Y-60617500D01*
X59337500Y-60617500D02*
X59127500Y-60827500D01*
X71170000Y-59205000D02*
X71680000Y-59715000D01*
X71680000Y-59715000D02*
X71680000Y-60385000D01*
X70435000Y-59205000D02*
X71170000Y-59205000D01*
X61627500Y-60187500D02*
X61417500Y-60187500D01*
X59547500Y-62477500D02*
X59547500Y-63457500D01*
X59127500Y-62057500D02*
X59547500Y-62477500D01*
X51347500Y-55687500D02*
X53577500Y-57917500D01*
X53577500Y-58637500D02*
X53577500Y-57917500D01*
X54867500Y-61047500D02*
X54167500Y-60347500D01*
X57237500Y-62977500D02*
X56687500Y-63527500D01*
X56687500Y-63527500D02*
X55047500Y-63527500D01*
X55047500Y-63527500D02*
X54867500Y-63347500D01*
X57237500Y-62977500D02*
X57667500Y-62977500D01*
X54867500Y-63347500D02*
X54867500Y-61047500D01*
X51347500Y-55687500D02*
X51347500Y-55397500D01*
D36*
X84360000Y-63005000D02*
X84360000Y-60200000D01*
X83717500Y-59557500D02*
X83367500Y-59557500D01*
X84360000Y-60200000D02*
X83717500Y-59557500D01*
X84360000Y-63005000D02*
X84360000Y-64735000D01*
X84360000Y-64735000D02*
X85180000Y-65555000D01*
X84980000Y-65555000D02*
X85480000Y-65555000D01*
D40*
X128352500Y-62830000D02*
X131335000Y-62830000D01*
X131335000Y-62830000D02*
X131907500Y-62257500D01*
D36*
X128352500Y-62830000D02*
X128352500Y-62737500D01*
X128352500Y-62737500D02*
X128352500Y-62830000D01*
D40*
X127852500Y-62830000D02*
X128352500Y-62830000D01*
X124602500Y-62830000D02*
X127852500Y-62830000D01*
X127852500Y-62830000D02*
X127860000Y-62830000D01*
X109670000Y-62830000D02*
X90205000Y-62830000D01*
X109670000Y-62830000D02*
X124602500Y-62830000D01*
X124602500Y-62830000D02*
X124670000Y-62830000D01*
X90227500Y-62830000D02*
X90205000Y-62830000D01*
X90227500Y-62837500D02*
X90227500Y-62830000D01*
X89077500Y-61702500D02*
X90205000Y-62830000D01*
X89077500Y-61712500D02*
X89082500Y-61707500D01*
X89082500Y-61707500D02*
X89077500Y-61712500D01*
X89077500Y-61712500D02*
X89077500Y-61702500D01*
X88830000Y-61455000D02*
X89077500Y-61702500D01*
X85385000Y-61455000D02*
X88830000Y-61455000D01*
D36*
X86485000Y-61455000D02*
X85385000Y-61455000D01*
X86960000Y-61930000D02*
X86485000Y-61455000D01*
X86960000Y-63005000D02*
X86960000Y-61930000D01*
X128357500Y-62317500D02*
X128352500Y-62830000D01*
D38*
X77685000Y-59455000D02*
X76555000Y-59455000D01*
X78384998Y-58755002D02*
X77685000Y-59455000D01*
X80185002Y-58755002D02*
X78384998Y-58755002D01*
X80685000Y-59255000D02*
X80185002Y-58755002D01*
X81885000Y-59255000D02*
X80685000Y-59255000D01*
X83060000Y-58080000D02*
X81885000Y-59255000D01*
X83060000Y-57105000D02*
X83060000Y-58080000D01*
X73010002Y-58905002D02*
X72535000Y-58430000D01*
X76005002Y-58905002D02*
X73010002Y-58905002D01*
X76555000Y-59455000D02*
X76005002Y-58905002D01*
X72535000Y-58430000D02*
X72535000Y-57605000D01*
X73197500Y-61412500D02*
X73197500Y-63797500D01*
X72890000Y-61105000D02*
X73197500Y-61412500D01*
X72035000Y-57605000D02*
X72035000Y-58440000D01*
X73197500Y-63797500D02*
X74480000Y-65080000D01*
X72035000Y-58440000D02*
X73120000Y-59525000D01*
X74385000Y-64985000D02*
X74480000Y-65080000D01*
D37*
X46951500Y-67357500D02*
X46192500Y-67357500D01*
X48025000Y-68431000D02*
X46951500Y-67357500D01*
X47142500Y-65232494D02*
X47317498Y-65057496D01*
X47142500Y-67092500D02*
X47142500Y-65232494D01*
X47317498Y-65057496D02*
X47617497Y-64757497D01*
X46192500Y-67357500D02*
X46877500Y-67357500D01*
X46877500Y-67357500D02*
X47142500Y-67092500D01*
D40*
X47187500Y-59047535D02*
X45777500Y-60457535D01*
X45777500Y-60457535D02*
X45777500Y-61857500D01*
X47187500Y-58277500D02*
X47187500Y-59047535D01*
D39*
X54927500Y-60037500D02*
X54577500Y-59687500D01*
X55777500Y-61857500D02*
X55777500Y-61307500D01*
X55777500Y-61307500D02*
X54927500Y-60457500D01*
X54927500Y-60457500D02*
X54927500Y-60037500D01*
X50097500Y-59687500D02*
X49427500Y-60357500D01*
X49427500Y-60357500D02*
X48217500Y-60357500D01*
X54577500Y-59687500D02*
X50097500Y-59687500D01*
X47942500Y-54031774D02*
X47942500Y-53607510D01*
X48517500Y-57807500D02*
X48167500Y-57457500D01*
X47037500Y-60777500D02*
X48517500Y-59297500D01*
X48167500Y-54256774D02*
X47942500Y-54031774D01*
X48167500Y-57457500D02*
X48167500Y-54256774D01*
X48517500Y-59297500D02*
X48517500Y-57807500D01*
X47467500Y-60357500D02*
X48217500Y-60357500D01*
D35*
X52407500Y-62807500D02*
X52748281Y-63148281D01*
X52036115Y-66067108D02*
X51736116Y-66367107D01*
X52748281Y-63148281D02*
X52748281Y-65354942D01*
X52748281Y-65354942D02*
X52036115Y-66067108D01*
D39*
X51997500Y-64187500D02*
X52079205Y-64187500D01*
X52047500Y-64187500D02*
X52079205Y-64187500D01*
X52111348Y-64155357D02*
X52123280Y-64155357D01*
X52079205Y-64187500D02*
X52111348Y-64155357D01*
X51823281Y-63855358D02*
X50945358Y-63855358D01*
X52123280Y-64155357D02*
X51823281Y-63855358D01*
X50945358Y-63855358D02*
X49887500Y-62797500D01*
X49887500Y-62797500D02*
X47857500Y-62797500D01*
X46192500Y-64462500D02*
X46192500Y-65457500D01*
X47857500Y-62797500D02*
X46192500Y-64462500D01*
D34*
X70435000Y-62705000D02*
X69515000Y-62705000D01*
X93577500Y-79317500D02*
X95617500Y-79317500D01*
X93257500Y-78997500D02*
X93577500Y-79317500D01*
X93257500Y-77717500D02*
X93257500Y-78997500D01*
X92807500Y-77267500D02*
X93257500Y-77717500D01*
X90177500Y-77267500D02*
X92807500Y-77267500D01*
X88920000Y-76010000D02*
X90177500Y-77267500D01*
X95617500Y-79317500D02*
X95717500Y-79217500D01*
X94525000Y-80360000D02*
X94950000Y-80360000D01*
X94950000Y-80360000D02*
X95950000Y-79360000D01*
X94300000Y-80360000D02*
X94950000Y-80360000D01*
X88000000Y-76010000D02*
X88920000Y-76010000D01*
X88000000Y-76510000D02*
X88730000Y-76510000D01*
X88730000Y-76510000D02*
X90837500Y-78617500D01*
X90837500Y-78617500D02*
X90837500Y-79217500D01*
X91050000Y-79340000D02*
X91070000Y-79360000D01*
X92550000Y-80360000D02*
X92070000Y-80360000D01*
X92070000Y-80360000D02*
X91070000Y-79360000D01*
D35*
X88000000Y-75010000D02*
X89850000Y-75010000D01*
X89850000Y-75010000D02*
X91250000Y-73610000D01*
X91250000Y-73610000D02*
X91250000Y-73210000D01*
X88000000Y-75510000D02*
X90850000Y-75510000D01*
X90850000Y-75510000D02*
X91250000Y-75110000D01*
X79550000Y-73760000D02*
X79300000Y-74010000D01*
D36*
X74725000Y-76787000D02*
X74725000Y-75710000D01*
X75150000Y-77460000D02*
X74725000Y-76787000D01*
X88637500Y-80617500D02*
X88695000Y-80560000D01*
X88695000Y-80560000D02*
X88750000Y-80560000D01*
D35*
X88855000Y-78010000D02*
X88000000Y-78010000D01*
D37*
X79450000Y-82160000D02*
X79450000Y-81370000D01*
X79450000Y-81370000D02*
X79357500Y-81277500D01*
X79357500Y-81277500D02*
X78832500Y-81277500D01*
D35*
X89255000Y-78410000D02*
X88855000Y-78010000D01*
X89255000Y-80850000D02*
X89255000Y-78410000D01*
D36*
X75155000Y-73160000D02*
X76655000Y-73160000D01*
X78255000Y-73560000D02*
X79455000Y-72360000D01*
X77055000Y-73560000D02*
X78255000Y-73560000D01*
X76655000Y-73160000D02*
X77055000Y-73560000D01*
X79455000Y-72360000D02*
X79550000Y-72360000D01*
X74725000Y-75710000D02*
X74725000Y-73590000D01*
X74725000Y-73590000D02*
X75155000Y-73160000D01*
D38*
X79355000Y-72060000D02*
X79550000Y-72255000D01*
X79550000Y-72255000D02*
X79550000Y-72360000D01*
D35*
X88750000Y-80560000D02*
X88750000Y-80360000D01*
X86418000Y-71400000D02*
X86418000Y-72392000D01*
X86418000Y-72392000D02*
X86400000Y-72410000D01*
X79550000Y-72360000D02*
X79550000Y-71664000D01*
X87434000Y-71400000D02*
X87704000Y-71670000D01*
X79814000Y-71400000D02*
X86418000Y-71400000D01*
X86418000Y-71400000D02*
X87434000Y-71400000D01*
X79550000Y-71664000D02*
X79814000Y-71400000D01*
X87704000Y-71670000D02*
X87704000Y-72162000D01*
X88800000Y-80510000D02*
X88900000Y-80510000D01*
X79450000Y-82160000D02*
X80550000Y-82160000D01*
X80550000Y-82160000D02*
X80900000Y-81810000D01*
X80900000Y-81810000D02*
X80900000Y-81110000D01*
D36*
X79450000Y-82160000D02*
X79150000Y-82160000D01*
D35*
X79550000Y-72360000D02*
X79550000Y-73760000D01*
D38*
X80900000Y-72410000D02*
X80900000Y-74510000D01*
X80900000Y-74510000D02*
X82000000Y-75610000D01*
X104197500Y-71517500D02*
X105830000Y-69885000D01*
X96987500Y-71517500D02*
X104197500Y-71517500D01*
X96647500Y-71857500D02*
X96987500Y-71517500D01*
X105830000Y-69885000D02*
X105830000Y-70084000D01*
X80550000Y-75010000D02*
X81200000Y-75660000D01*
X79300000Y-75010000D02*
X80550000Y-75010000D01*
X106007500Y-71877500D02*
X107801000Y-70084000D01*
X97677500Y-71877500D02*
X106007500Y-71877500D01*
X97447500Y-72107500D02*
X97677500Y-71877500D01*
X107801000Y-70084000D02*
X108370000Y-70084000D01*
D39*
X94567500Y-73857500D02*
X95767500Y-73857500D01*
D38*
X80200000Y-75510000D02*
X80975000Y-76285000D01*
X80975000Y-76285000D02*
X82200000Y-76285000D01*
X82200000Y-76285000D02*
X82600000Y-75885000D01*
X82600000Y-75885000D02*
X82600000Y-75035000D01*
X80200000Y-75510000D02*
X79300000Y-75510000D01*
D39*
X94602500Y-74282500D02*
X94577500Y-74257500D01*
D38*
X82350000Y-76659998D02*
X82350002Y-76659998D01*
X82350002Y-76659998D02*
X83325000Y-75685000D01*
X83325000Y-75685000D02*
X83325000Y-75435000D01*
X80150000Y-76010000D02*
X80799998Y-76659998D01*
X80799998Y-76659998D02*
X82350000Y-76659998D01*
X79300000Y-76010000D02*
X80150000Y-76010000D01*
X92717500Y-75757500D02*
X92672500Y-75802500D01*
X92750000Y-76310000D02*
X92850000Y-76210000D01*
X104147500Y-74397500D02*
X104157500Y-74397500D01*
X98867500Y-73227500D02*
X98867500Y-74007500D01*
X98867500Y-74007500D02*
X99257500Y-74397500D01*
X99257500Y-74397500D02*
X104147500Y-74397500D01*
X104157500Y-74397500D02*
X104577500Y-74817500D01*
D39*
X107727396Y-73114466D02*
X107427397Y-73414465D01*
X109617491Y-68797509D02*
X109137500Y-69277500D01*
X109137500Y-69277500D02*
X109137500Y-71704362D01*
X111992502Y-69632500D02*
X111157511Y-68797509D01*
X111157511Y-68797509D02*
X109617491Y-68797509D01*
X109137500Y-71704362D02*
X107727396Y-73114466D01*
D35*
X108087501Y-74482517D02*
X108387500Y-74782516D01*
X107644459Y-74039475D02*
X108087501Y-74482517D01*
X106919540Y-74039475D02*
X107644459Y-74039475D01*
D39*
X98457500Y-81802500D02*
X98457500Y-81152500D01*
D38*
X101447500Y-78257500D02*
X102467500Y-78257500D01*
X109039292Y-79420535D02*
X109339291Y-79120536D01*
X100782500Y-81152500D02*
X101317500Y-80617500D01*
X101317500Y-78387500D02*
X101447500Y-78257500D01*
X109005973Y-79453854D02*
X109039292Y-79420535D01*
X102467500Y-78257500D02*
X103663854Y-79453854D01*
X98457500Y-81152500D02*
X100782500Y-81152500D01*
X101317500Y-80617500D02*
X101317500Y-78387500D01*
X103663854Y-79453854D02*
X109005973Y-79453854D01*
X83325000Y-78470000D02*
X84845000Y-76950000D01*
X84845000Y-76950000D02*
X84845000Y-75675000D01*
X84845000Y-75675000D02*
X82805000Y-73635000D01*
X82805000Y-73835000D02*
X82805000Y-73635000D01*
X83325000Y-79459996D02*
X82629996Y-79459996D01*
X80482500Y-78427500D02*
X81597500Y-78427500D01*
X81597500Y-78427500D02*
X82629996Y-79459996D01*
X75375000Y-76720000D02*
X75375000Y-75710000D01*
X76887500Y-78232500D02*
X75375000Y-76720000D01*
X78077500Y-78232500D02*
X76887500Y-78232500D01*
X78082500Y-78227500D02*
X78077500Y-78232500D01*
X86825000Y-81935000D02*
X86825000Y-80100022D01*
X86825000Y-80100022D02*
X85890000Y-79165022D01*
X84205004Y-79459996D02*
X83325000Y-79459996D01*
X85085000Y-78580000D02*
X85595000Y-78580000D01*
X85890000Y-78875000D02*
X85595000Y-78580000D01*
X85890000Y-79165022D02*
X85890000Y-78875000D01*
X84205004Y-79459996D02*
X85085000Y-78580000D01*
X84900000Y-81110000D02*
X84900000Y-81880000D01*
X86720000Y-82040000D02*
X86825000Y-81935000D01*
X85060000Y-82040000D02*
X86720000Y-82040000D01*
X84900000Y-81880000D02*
X85060000Y-82040000D01*
X83325000Y-79459996D02*
X83325000Y-78470000D01*
X76415000Y-75710000D02*
X76025000Y-75710000D01*
X78082500Y-77377500D02*
X76415000Y-75710000D01*
X86915000Y-82400000D02*
X87185000Y-82130000D01*
X86260000Y-78725000D02*
X85755000Y-78220000D01*
X85755000Y-78220000D02*
X84485000Y-78220000D01*
X83980000Y-78725000D02*
X84485000Y-78220000D01*
X86260000Y-79035000D02*
X86260000Y-78725000D01*
X84400000Y-82150000D02*
X84400000Y-81110000D01*
X84400000Y-82150000D02*
X84650000Y-82400000D01*
X84650000Y-82400000D02*
X86915000Y-82400000D01*
X87185000Y-79960000D02*
X86260000Y-79035000D01*
X87185000Y-82130000D02*
X87185000Y-79960000D01*
X83985000Y-78730000D02*
X83980000Y-78725000D01*
X83980000Y-78725000D02*
X83970000Y-78735000D01*
X81725000Y-80160000D02*
X81715000Y-80160000D01*
X85400000Y-81110000D02*
X85400000Y-80360000D01*
X85200000Y-80160000D02*
X82000000Y-80160000D01*
X85400000Y-80360000D02*
X85200000Y-80160000D01*
X82000000Y-80160000D02*
X81725000Y-80160000D01*
X81420000Y-79935000D02*
X81455000Y-79900000D01*
X80425000Y-80360000D02*
X80225000Y-80360000D01*
X80425000Y-80360000D02*
X80850000Y-79935000D01*
X80850000Y-79935000D02*
X81420000Y-79935000D01*
X81715000Y-80160000D02*
X81455000Y-79900000D01*
X76025000Y-81610000D02*
X76025000Y-80585000D01*
X77850000Y-80360000D02*
X80225000Y-80360000D01*
X80225000Y-80360000D02*
X80250000Y-80360000D01*
X77450000Y-79960000D02*
X77850000Y-80360000D01*
X76650000Y-79960000D02*
X77450000Y-79960000D01*
X76025000Y-80585000D02*
X76650000Y-79960000D01*
D36*
X61755000Y-81960000D02*
X61755000Y-80555000D01*
X61750000Y-80560000D02*
X63350000Y-78960000D01*
X63350000Y-78960000D02*
X71550000Y-78960000D01*
X71550000Y-78960000D02*
X72775000Y-80185000D01*
X72775000Y-80185000D02*
X72775000Y-81610000D01*
X61755000Y-80555000D02*
X61750000Y-80560000D01*
D39*
X115767500Y-85357500D02*
X115817500Y-85407500D01*
X115817500Y-85407500D02*
X116317500Y-85407500D01*
D37*
X111267500Y-84307500D02*
X111042500Y-84082500D01*
X115767500Y-85357500D02*
X112317500Y-85357500D01*
X111267500Y-84307500D02*
X112317500Y-85357500D01*
X112767500Y-80619502D02*
X112767500Y-79707500D01*
X111042500Y-84082500D02*
X111042500Y-82344502D01*
X111042500Y-82344502D02*
X112767500Y-80619502D01*
X109227500Y-74222500D02*
X109227500Y-74843236D01*
X110242500Y-72307500D02*
X110242500Y-73207500D01*
X109227500Y-74843236D02*
X109227500Y-75267500D01*
X110242500Y-73207500D02*
X109227500Y-74222500D01*
D40*
X77450000Y-81220000D02*
X77097500Y-80867500D01*
D41*
X93467500Y-82357500D02*
X93467500Y-82360000D01*
X88757500Y-82757500D02*
X88750000Y-82750000D01*
D36*
X72125000Y-75710000D02*
X72125000Y-74795000D01*
X72125000Y-74795000D02*
X71507500Y-74177500D01*
X71507500Y-74177500D02*
X70432500Y-74177500D01*
D39*
X109217500Y-83007500D02*
X109217500Y-81977500D01*
X107677500Y-80437500D02*
X106247500Y-80437500D01*
X109217500Y-81977500D02*
X107677500Y-80437500D01*
D40*
X109227500Y-83137500D02*
X109287500Y-83197500D01*
X109287500Y-83197500D02*
X109287500Y-83317500D01*
X109467500Y-83137500D02*
X109287500Y-83317500D01*
D39*
X94207500Y-78277500D02*
X94757500Y-78277500D01*
X94757500Y-78277500D02*
X95757500Y-77277500D01*
X95757500Y-77277500D02*
X95757500Y-75737500D01*
X98387500Y-77067500D02*
X98367500Y-77087500D01*
D35*
X100097500Y-79727500D02*
X100087500Y-79717500D01*
X100087500Y-79717500D02*
X100087500Y-79237500D01*
D36*
X102857500Y-82452500D02*
X103852500Y-82452500D01*
X103852500Y-82452500D02*
X103857500Y-82457500D01*
D39*
X97597500Y-77307500D02*
X98367500Y-77307500D01*
X97067500Y-77837500D02*
X97597500Y-77307500D01*
X95197500Y-77837500D02*
X97067500Y-77837500D01*
X94757500Y-78277500D02*
X95197500Y-77837500D01*
X81400000Y-81110000D02*
X81400000Y-82750000D01*
X81400000Y-82750000D02*
X81407500Y-82757500D01*
D40*
X77450000Y-82160000D02*
X77450000Y-81220000D01*
D41*
X88750000Y-82750000D02*
X88750000Y-82560000D01*
X77507500Y-82757500D02*
X77450000Y-82700000D01*
D40*
X77450000Y-82700000D02*
X77450000Y-82160000D01*
D35*
X89745000Y-80015000D02*
X89990000Y-80260000D01*
X89745000Y-78200000D02*
X89745000Y-80015000D01*
X89055000Y-77510000D02*
X89745000Y-78200000D01*
X88000000Y-77510000D02*
X89055000Y-77510000D01*
X90815000Y-81965000D02*
X90220000Y-82560000D01*
X90220000Y-82560000D02*
X88750000Y-82560000D01*
X90815000Y-81085000D02*
X90815000Y-81965000D01*
X89990000Y-80260000D02*
X90815000Y-81085000D01*
D36*
X73425000Y-75710000D02*
X73425000Y-74730000D01*
X72555000Y-71160000D02*
X73255000Y-71160000D01*
X71955000Y-71760000D02*
X72555000Y-71160000D01*
X71955000Y-73711470D02*
X71955000Y-71760000D01*
X72403530Y-74160000D02*
X71955000Y-73711470D01*
X72855000Y-74160000D02*
X72403530Y-74160000D01*
X73425000Y-74730000D02*
X72855000Y-74160000D01*
D42*
X77550000Y-72360000D02*
X77550000Y-71555000D01*
X77155000Y-71160000D02*
X75155000Y-71160000D01*
X77550000Y-71555000D02*
X77155000Y-71160000D01*
X72955000Y-71160000D02*
X75155000Y-71160000D01*
D34*
X92475000Y-82360000D02*
X92465000Y-82360000D01*
D36*
X94525000Y-82360000D02*
X94525000Y-82480000D01*
X77350000Y-72160000D02*
X77550000Y-72360000D01*
D39*
X94565000Y-72042500D02*
X93717500Y-72042500D01*
X93717500Y-72042500D02*
X93517500Y-71842500D01*
X93517500Y-71842500D02*
X93517500Y-71027500D01*
X93517500Y-71027500D02*
X93325000Y-70835000D01*
X93325000Y-70835000D02*
X90275000Y-70835000D01*
X90275000Y-70835000D02*
X89704000Y-71406000D01*
X89704000Y-71406000D02*
X89704000Y-72162000D01*
D35*
X89212000Y-73178000D02*
X89704000Y-72686000D01*
X86926000Y-73178000D02*
X89212000Y-73178000D01*
D39*
X86175000Y-73432000D02*
X86175000Y-73460000D01*
X86175000Y-73460000D02*
X86000000Y-73635000D01*
D37*
X92550000Y-82360000D02*
X93467500Y-82360000D01*
X93467500Y-82360000D02*
X93525000Y-82360000D01*
X93525000Y-82360000D02*
X94300000Y-82360000D01*
D35*
X85900000Y-72410000D02*
X85900000Y-73168000D01*
X86672000Y-73432000D02*
X86926000Y-73178000D01*
X86164000Y-73432000D02*
X86175000Y-73432000D01*
X86175000Y-73432000D02*
X86672000Y-73432000D01*
X85900000Y-73168000D02*
X86164000Y-73432000D01*
X89704000Y-72686000D02*
X89704000Y-72162000D01*
X89704000Y-71892000D02*
X89704000Y-72162000D01*
X79300000Y-74510000D02*
X77400000Y-74510000D01*
X77400000Y-74510000D02*
X77150000Y-74760000D01*
D36*
X77448798Y-72304200D02*
X77450000Y-72302998D01*
D37*
X111483500Y-71357500D02*
X112242500Y-71357500D01*
X110410000Y-70284000D02*
X111483500Y-71357500D01*
X111292500Y-73482506D02*
X111117502Y-73657504D01*
X111292500Y-71622500D02*
X111292500Y-73482506D01*
X111117502Y-73657504D02*
X110817503Y-73957503D01*
X112242500Y-71357500D02*
X111557500Y-71357500D01*
X111557500Y-71357500D02*
X111292500Y-71622500D01*
D40*
X111247500Y-79667465D02*
X112657500Y-78257465D01*
X112657500Y-78257465D02*
X112657500Y-76857500D01*
X111247500Y-80437500D02*
X111247500Y-79667465D01*
D38*
X92667500Y-73857500D02*
X93197500Y-73857500D01*
X83975000Y-75960000D02*
X82925000Y-77010000D01*
X82925000Y-77010000D02*
X79300000Y-77010000D01*
X93507500Y-76307500D02*
X93537500Y-76337500D01*
X93507500Y-74167500D02*
X93507500Y-76307500D01*
X93197500Y-73857500D02*
X93507500Y-74167500D01*
X96447500Y-77177500D02*
X97657500Y-75967500D01*
X97657500Y-75967500D02*
X97657500Y-75737500D01*
X79300000Y-77510000D02*
X82510000Y-77510000D01*
X82652500Y-77652500D02*
X82510000Y-77510000D01*
D36*
X73240000Y-82860000D02*
X74465000Y-82860000D01*
X74725000Y-82600000D02*
X74725000Y-81610000D01*
X74465000Y-82860000D02*
X74725000Y-82600000D01*
X72125000Y-82860000D02*
X73240000Y-82860000D01*
X73425000Y-82675000D02*
X73425000Y-81610000D01*
X73240000Y-82860000D02*
X73425000Y-82675000D01*
D43*
X65555000Y-81960000D02*
X67415000Y-81960000D01*
X67415000Y-81960000D02*
X67455000Y-81920000D01*
D44*
X67455000Y-81920000D02*
X65595000Y-81920000D01*
X65595000Y-81920000D02*
X65555000Y-81960000D01*
X65595000Y-81920000D02*
X65555000Y-81960000D01*
D36*
X72125000Y-82860000D02*
X71055000Y-82860000D01*
X71055000Y-82860000D02*
X70755000Y-82560000D01*
X70755000Y-82560000D02*
X70755000Y-81360000D01*
X70755000Y-81360000D02*
X69855000Y-80460000D01*
X69855000Y-80460000D02*
X67955000Y-80460000D01*
X67955000Y-80460000D02*
X67455000Y-80960000D01*
X67455000Y-80960000D02*
X67455000Y-81920000D01*
X72125000Y-81610000D02*
X72125000Y-82860000D01*
D40*
X26397500Y-77457500D02*
X28092500Y-77457500D01*
X28707500Y-76852500D02*
X28182500Y-77377500D01*
D36*
X63655000Y-80960000D02*
X63655000Y-81960000D01*
X63655000Y-81960000D02*
X63655000Y-80960000D01*
X63655000Y-80960000D02*
X63655000Y-80955000D01*
X71475000Y-80585000D02*
X71475000Y-81610000D01*
X70550000Y-79660000D02*
X71475000Y-80585000D01*
X64950000Y-79660000D02*
X70550000Y-79660000D01*
X63650000Y-80960000D02*
X64950000Y-79660000D01*
X63655000Y-80955000D02*
X63650000Y-80960000D01*
D40*
X58355000Y-77860000D02*
X32770000Y-77860000D01*
X59855000Y-79430000D02*
X59855000Y-79360000D01*
X59855000Y-79360000D02*
X58355000Y-77860000D01*
X32337500Y-77427500D02*
X30627500Y-77427500D01*
X32770000Y-77860000D02*
X32337500Y-77427500D01*
D36*
X59855000Y-79430000D02*
X59855000Y-79420000D01*
X74075000Y-80190000D02*
X72075000Y-78190000D01*
X74075000Y-80190000D02*
X74075000Y-81610000D01*
X61085000Y-78190000D02*
X72075000Y-78190000D01*
X59855000Y-79420000D02*
X61085000Y-78190000D01*
D40*
X59855000Y-81960000D02*
X59855000Y-79430000D01*
D38*
X98457500Y-82452500D02*
X97032500Y-82452500D01*
X96597500Y-82017500D02*
X96597500Y-80647500D01*
X97032500Y-82452500D02*
X96597500Y-82017500D01*
X86375000Y-77600000D02*
X86825000Y-77150000D01*
X86825000Y-77150000D02*
X86825000Y-74910000D01*
X87225000Y-74510000D02*
X86825000Y-74910000D01*
X88000000Y-74510000D02*
X87225000Y-74510000D01*
X95992500Y-80422500D02*
X96357500Y-80057500D01*
X96357500Y-80057500D02*
X97197500Y-80057500D01*
X96387500Y-82967500D02*
X95992500Y-82572500D01*
X101457500Y-82967500D02*
X96387500Y-82967500D01*
X95992500Y-82572500D02*
X95992500Y-80422500D01*
X101727500Y-82697500D02*
X101457500Y-82967500D01*
X101727500Y-80717500D02*
X101727500Y-82697500D01*
X101967500Y-80477500D02*
X101727500Y-80717500D01*
X101967500Y-80477500D02*
X102632500Y-80477500D01*
X101707500Y-79157500D02*
X101707500Y-80177500D01*
X102032500Y-80502500D02*
X102857500Y-80502500D01*
X101707500Y-80177500D02*
X102032500Y-80502500D01*
X79300000Y-76510000D02*
X78490000Y-76510000D01*
X78490000Y-76510000D02*
X78140000Y-76160000D01*
X87227500Y-73582500D02*
X90032500Y-73582500D01*
X91205000Y-72010000D02*
X92750000Y-72010000D01*
X90555000Y-72660000D02*
X91205000Y-72010000D01*
X90555000Y-72810000D02*
X90555000Y-72660000D01*
X90455000Y-72910000D02*
X90555000Y-72810000D01*
X90455000Y-73160000D02*
X90455000Y-72910000D01*
X90032500Y-73582500D02*
X90455000Y-73160000D01*
X84400000Y-72410000D02*
X84400000Y-73110000D01*
X86500000Y-74310000D02*
X87227500Y-73582500D01*
X87227500Y-73582500D02*
X87231998Y-73578002D01*
X85600000Y-74310000D02*
X86500000Y-74310000D01*
X84400000Y-73110000D02*
X85600000Y-74310000D01*
D39*
X98457500Y-80502500D02*
X100487498Y-80502500D01*
X100892498Y-78152502D02*
X102187500Y-76857500D01*
X100892498Y-80097500D02*
X100892498Y-78152502D01*
X100487498Y-80502500D02*
X100892498Y-80097500D01*
X102187500Y-76857500D02*
X102657500Y-76857500D01*
X98457500Y-80502500D02*
X98457500Y-79397500D01*
X98457500Y-79397500D02*
X98367500Y-79307500D01*
X114317500Y-69517500D02*
X113537500Y-69517500D01*
X96455000Y-71030000D02*
X95627500Y-71857500D01*
X89350000Y-74010000D02*
X88000000Y-74010000D01*
X89350000Y-74010000D02*
X89600000Y-74260000D01*
X96455000Y-71030000D02*
X102235000Y-71030000D01*
X103887500Y-68287500D02*
X112307500Y-68287500D01*
X102917500Y-69257500D02*
X103887500Y-68287500D01*
X102917500Y-70357500D02*
X102917500Y-69257500D01*
X102245000Y-71030000D02*
X102917500Y-70357500D01*
X102235000Y-71030000D02*
X102245000Y-71030000D01*
X113537500Y-69517500D02*
X112307500Y-68287500D01*
X114317500Y-69517500D02*
X113337500Y-69517500D01*
X113107500Y-69747500D02*
X113337500Y-69517500D01*
X113107500Y-74567500D02*
X111517500Y-76157500D01*
X113107500Y-70147500D02*
X113107500Y-74567500D01*
X111517500Y-77807500D02*
X111517500Y-76157500D01*
X110967500Y-78357500D02*
X111517500Y-77807500D01*
X113107500Y-70147500D02*
X113107500Y-69747500D01*
D36*
X114267500Y-69607500D02*
X114317500Y-69557500D01*
D39*
X102657500Y-76857500D02*
X102657500Y-77797500D01*
X102657500Y-76857500D02*
X102987500Y-76857500D01*
X103507500Y-78677500D02*
X103857500Y-79027500D01*
X102657500Y-76857500D02*
X102657500Y-77407500D01*
X102657500Y-77407500D02*
X103507500Y-78257500D01*
X103507500Y-78257500D02*
X103507500Y-78677500D01*
X108337500Y-79027500D02*
X109007500Y-78357500D01*
X109007500Y-78357500D02*
X110217500Y-78357500D01*
X103857500Y-79027500D02*
X108337500Y-79027500D01*
X110492500Y-84683226D02*
X110492500Y-85107490D01*
X109917500Y-80907500D02*
X110267500Y-81257500D01*
X111397500Y-77937500D02*
X109917500Y-79417500D01*
X110267500Y-84458226D02*
X110492500Y-84683226D01*
X110267500Y-81257500D02*
X110267500Y-84458226D01*
X109917500Y-79417500D02*
X109917500Y-80907500D01*
X110967500Y-78357500D02*
X110217500Y-78357500D01*
X102857500Y-81802500D02*
X102857500Y-81152500D01*
D38*
X105237500Y-75117500D02*
X104667500Y-75687500D01*
X105237500Y-73327500D02*
X105237500Y-75017500D01*
X104187500Y-72277500D02*
X105237500Y-73327500D01*
X95437500Y-72657500D02*
X95437500Y-72767500D01*
X94567500Y-75757500D02*
X94567500Y-75537500D01*
X97717500Y-72687500D02*
X98127500Y-72277500D01*
X95357500Y-72687500D02*
X97717500Y-72687500D01*
X95437500Y-72767500D02*
X95357500Y-72687500D01*
X98127500Y-72277500D02*
X104187500Y-72277500D01*
X105237500Y-75017500D02*
X105237500Y-75117500D01*
X103937500Y-75807500D02*
X104657500Y-76527500D01*
X103557500Y-74787500D02*
X103937500Y-75167500D01*
X98757500Y-74787500D02*
X101547500Y-74787500D01*
X98757500Y-74787500D02*
X97827500Y-73857500D01*
X101547500Y-74787500D02*
X103557500Y-74787500D01*
X103937500Y-75167500D02*
X103937500Y-75807500D01*
X97667500Y-73857500D02*
X97827500Y-73857500D01*
X93497500Y-80977500D02*
X93497500Y-79847500D01*
X87824177Y-81340823D02*
X89914177Y-81340823D01*
X87575000Y-82245666D02*
X87575000Y-81590000D01*
X83500000Y-82760000D02*
X87060666Y-82760000D01*
X82900000Y-81110000D02*
X82900000Y-82160000D01*
X82900000Y-82160000D02*
X83500000Y-82760000D01*
X87575000Y-81590000D02*
X87824177Y-81340823D01*
X87060666Y-82760000D02*
X87575000Y-82245666D01*
X93107500Y-81367500D02*
X93497500Y-80977500D01*
X91637500Y-81367500D02*
X93107500Y-81367500D01*
X91487500Y-81217500D02*
X91637500Y-81367500D01*
X89914177Y-81340823D02*
X90027500Y-81227500D01*
X92307500Y-79217500D02*
X92307500Y-78277500D01*
X92637500Y-79547500D02*
X92307500Y-79217500D01*
X93197500Y-79547500D02*
X92637500Y-79547500D01*
X93497500Y-79847500D02*
X93197500Y-79547500D01*
X92315000Y-78285000D02*
X92307500Y-78277500D01*
D43*
X67455000Y-71760000D02*
X69355000Y-71760000D01*
D38*
X99307500Y-77887500D02*
X99307500Y-76657500D01*
X97017500Y-78527500D02*
X97447500Y-78097500D01*
X97447500Y-78097500D02*
X99097500Y-78097500D01*
X99097500Y-78097500D02*
X99307500Y-77887500D01*
X87265000Y-79510000D02*
X86755000Y-79000000D01*
X86755000Y-79000000D02*
X86755000Y-78330000D01*
X88000000Y-79510000D02*
X87265000Y-79510000D01*
X96807500Y-78527500D02*
X97017500Y-78527500D01*
X98887500Y-76237500D02*
X98887500Y-75257500D01*
X99307500Y-76657500D02*
X98887500Y-76237500D01*
X107087500Y-83027500D02*
X104857500Y-80797500D01*
X104857500Y-80077500D02*
X104857500Y-80797500D01*
X103567500Y-77667500D02*
X104267500Y-78367500D01*
X101197500Y-75737500D02*
X101747500Y-75187500D01*
X101747500Y-75187500D02*
X103387500Y-75187500D01*
X103387500Y-75187500D02*
X103567500Y-75367500D01*
X101197500Y-75737500D02*
X100767500Y-75737500D01*
X103567500Y-75367500D02*
X103567500Y-77667500D01*
X107087500Y-83027500D02*
X107087500Y-83317500D01*
D36*
X74075000Y-75710000D02*
X74075000Y-78515000D01*
X74717500Y-79157500D02*
X75067500Y-79157500D01*
X74075000Y-78515000D02*
X74717500Y-79157500D01*
X74075000Y-75710000D02*
X74075000Y-73980000D01*
X74075000Y-73980000D02*
X73255000Y-73160000D01*
X73455000Y-73160000D02*
X72955000Y-73160000D01*
D40*
X30082500Y-75885000D02*
X27100000Y-75885000D01*
X27100000Y-75885000D02*
X26527500Y-76457500D01*
D36*
X30082500Y-75885000D02*
X30082500Y-75977500D01*
X30082500Y-75977500D02*
X30082500Y-75885000D01*
D40*
X30582500Y-75885000D02*
X30082500Y-75885000D01*
X33832500Y-75885000D02*
X30582500Y-75885000D01*
X30582500Y-75885000D02*
X30575000Y-75885000D01*
X48765000Y-75885000D02*
X68230000Y-75885000D01*
X48765000Y-75885000D02*
X33832500Y-75885000D01*
X33832500Y-75885000D02*
X33765000Y-75885000D01*
X68207500Y-75885000D02*
X68230000Y-75885000D01*
X68207500Y-75877500D02*
X68207500Y-75885000D01*
X69357500Y-77012500D02*
X68230000Y-75885000D01*
X69357500Y-77002500D02*
X69352500Y-77007500D01*
X69352500Y-77007500D02*
X69357500Y-77002500D01*
X69357500Y-77002500D02*
X69357500Y-77012500D01*
X69605000Y-77260000D02*
X69357500Y-77012500D01*
X73050000Y-77260000D02*
X69605000Y-77260000D01*
D36*
X71950000Y-77260000D02*
X73050000Y-77260000D01*
X71475000Y-76785000D02*
X71950000Y-77260000D01*
X71475000Y-75710000D02*
X71475000Y-76785000D01*
X30077500Y-76397500D02*
X30082500Y-75885000D01*
D35*
X106027500Y-75907500D02*
X105686719Y-75566719D01*
X106398885Y-72647892D02*
X106698884Y-72347893D01*
X105686719Y-75566719D02*
X105686719Y-73360058D01*
X105686719Y-73360058D02*
X106398885Y-72647892D01*
D38*
X80750000Y-79260000D02*
X81880000Y-79260000D01*
X80050002Y-79959998D02*
X80750000Y-79260000D01*
X78249998Y-79959998D02*
X80050002Y-79959998D01*
X77750000Y-79460000D02*
X78249998Y-79959998D01*
X76550000Y-79460000D02*
X77750000Y-79460000D01*
X75375000Y-80635000D02*
X76550000Y-79460000D01*
X75375000Y-81610000D02*
X75375000Y-80635000D01*
X85424998Y-79809998D02*
X85900000Y-80285000D01*
X82429998Y-79809998D02*
X85424998Y-79809998D01*
X81880000Y-79260000D02*
X82429998Y-79809998D01*
X85900000Y-80285000D02*
X85900000Y-81110000D01*
X85237500Y-77302500D02*
X85237500Y-74917500D01*
X85545000Y-77610000D02*
X85237500Y-77302500D01*
X86400000Y-81110000D02*
X86400000Y-80275000D01*
X85237500Y-74917500D02*
X83955000Y-73635000D01*
X86400000Y-80275000D02*
X85315000Y-79190000D01*
X84050000Y-73730000D02*
X83955000Y-73635000D01*
D39*
X100767500Y-73227500D02*
X101357500Y-73227500D01*
X101357500Y-73227500D02*
X101697500Y-72887500D01*
X106437500Y-74527500D02*
X106355795Y-74527500D01*
X106387500Y-74527500D02*
X106355795Y-74527500D01*
X106323652Y-74559643D02*
X106311720Y-74559643D01*
X106355795Y-74527500D02*
X106323652Y-74559643D01*
X106611719Y-74859642D02*
X107489642Y-74859642D01*
X106311720Y-74559643D02*
X106611719Y-74859642D01*
X107489642Y-74859642D02*
X108547500Y-75917500D01*
X108547500Y-75917500D02*
X110577500Y-75917500D01*
X112242500Y-74252500D02*
X112242500Y-73257500D01*
X110577500Y-75917500D02*
X112242500Y-74252500D01*
D45*
X129800000Y-86450000D02*
X133700000Y-86450000D01*
X120300000Y-76950000D02*
X120300000Y-73050000D01*
D46*
X129800000Y-76950000D02*
X129650000Y-76950000D01*
X129650000Y-76950000D02*
X123000000Y-83600000D01*
X129800000Y-76950000D02*
X129850000Y-76950000D01*
X129850000Y-76950000D02*
X136525000Y-83625000D01*
X129800000Y-76950000D02*
X136500000Y-70250000D01*
X123075000Y-70275000D02*
X123125000Y-70275000D01*
X123125000Y-70275000D02*
X129800000Y-76950000D01*
X129800000Y-76950000D02*
X129800000Y-86450000D01*
X129800000Y-76950000D02*
X139300000Y-76950000D01*
X129800000Y-76950000D02*
X120300000Y-76950000D01*
X129800000Y-67450000D02*
X129800000Y-76950000D01*
D45*
X120300000Y-73050000D02*
X123075000Y-70275000D01*
X125850000Y-86450000D02*
X123000000Y-83600000D01*
X139300000Y-80850000D02*
X136525000Y-83625000D01*
X129800000Y-67450000D02*
X125900000Y-67450000D01*
X129800000Y-67450000D02*
X133700000Y-67450000D01*
X139300000Y-76950000D02*
X139300000Y-80850000D01*
X125900000Y-67450000D02*
X123075000Y-70275000D01*
X120300000Y-80900000D02*
X123000000Y-83600000D01*
X139300000Y-76950000D02*
X139300000Y-73050000D01*
X139300000Y-73050000D02*
X136500000Y-70250000D01*
X120300000Y-76950000D02*
X120300000Y-80900000D01*
X133700000Y-86450000D02*
X136525000Y-83625000D01*
X133700000Y-67450000D02*
X136500000Y-70250000D01*
X129800000Y-86450000D02*
X125850000Y-86450000D01*
X29300000Y-71450000D02*
X33200000Y-71450000D01*
X19800000Y-61950000D02*
X19800000Y-58050000D01*
D46*
X29300000Y-61950000D02*
X29150000Y-61950000D01*
X29150000Y-61950000D02*
X22500000Y-68600000D01*
X29300000Y-61950000D02*
X29350000Y-61950000D01*
X29350000Y-61950000D02*
X36025000Y-68625000D01*
X29300000Y-61950000D02*
X36000000Y-55250000D01*
X22575000Y-55275000D02*
X22625000Y-55275000D01*
X22625000Y-55275000D02*
X29300000Y-61950000D01*
X29300000Y-61950000D02*
X29300000Y-71450000D01*
X29300000Y-61950000D02*
X38800000Y-61950000D01*
X29300000Y-61950000D02*
X19800000Y-61950000D01*
X29300000Y-52450000D02*
X29300000Y-61950000D01*
D45*
X19800000Y-58050000D02*
X22575000Y-55275000D01*
X25350000Y-71450000D02*
X22500000Y-68600000D01*
X38800000Y-65850000D02*
X36025000Y-68625000D01*
X29300000Y-52450000D02*
X25400000Y-52450000D01*
X29300000Y-52450000D02*
X33200000Y-52450000D01*
X38800000Y-61950000D02*
X38800000Y-65850000D01*
X25400000Y-52450000D02*
X22575000Y-55275000D01*
X19800000Y-65900000D02*
X22500000Y-68600000D01*
X38800000Y-61950000D02*
X38800000Y-58050000D01*
X38800000Y-58050000D02*
X36000000Y-55250000D01*
X19800000Y-61950000D02*
X19800000Y-65900000D01*
X33200000Y-71450000D02*
X36025000Y-68625000D01*
X33200000Y-52450000D02*
X36000000Y-55250000D01*
X29300000Y-71450000D02*
X25350000Y-71450000D01*
X28800000Y-41450000D02*
X32700000Y-41450000D01*
X19300000Y-31950000D02*
X19300000Y-28050000D01*
D46*
X28800000Y-31950000D02*
X28650000Y-31950000D01*
X28650000Y-31950000D02*
X22000000Y-38600000D01*
X28800000Y-31950000D02*
X28850000Y-31950000D01*
X28850000Y-31950000D02*
X35525000Y-38625000D01*
X28800000Y-31950000D02*
X35500000Y-25250000D01*
X22075000Y-25275000D02*
X22125000Y-25275000D01*
X22125000Y-25275000D02*
X28800000Y-31950000D01*
X28800000Y-31950000D02*
X28800000Y-41450000D01*
X28800000Y-31950000D02*
X38300000Y-31950000D01*
X28800000Y-31950000D02*
X19300000Y-31950000D01*
X28800000Y-22450000D02*
X28800000Y-31950000D01*
D45*
X19300000Y-28050000D02*
X22075000Y-25275000D01*
X24850000Y-41450000D02*
X22000000Y-38600000D01*
X38300000Y-35850000D02*
X35525000Y-38625000D01*
X28800000Y-22450000D02*
X24900000Y-22450000D01*
X28800000Y-22450000D02*
X32700000Y-22450000D01*
X38300000Y-31950000D02*
X38300000Y-35850000D01*
X24900000Y-22450000D02*
X22075000Y-25275000D01*
X19300000Y-35900000D02*
X22000000Y-38600000D01*
X38300000Y-31950000D02*
X38300000Y-28050000D01*
X38300000Y-28050000D02*
X35500000Y-25250000D01*
X19300000Y-31950000D02*
X19300000Y-35900000D01*
X32700000Y-41450000D02*
X35525000Y-38625000D01*
X32700000Y-22450000D02*
X35500000Y-25250000D01*
X28800000Y-41450000D02*
X24850000Y-41450000D01*
D34*
G04 #@! TO.N,/OSC8_IN*
X88000000Y-46010000D02*
X88920000Y-46010000D01*
X93577500Y-49317500D02*
X95617500Y-49317500D01*
X93257500Y-48997500D02*
X93577500Y-49317500D01*
X93257500Y-47717500D02*
X93257500Y-48997500D01*
X92807500Y-47267500D02*
X93257500Y-47717500D01*
X90177500Y-47267500D02*
X92807500Y-47267500D01*
X88920000Y-46010000D02*
X90177500Y-47267500D01*
X95617500Y-49317500D02*
X95717500Y-49217500D01*
X94525000Y-50360000D02*
X94950000Y-50360000D01*
X94950000Y-50360000D02*
X95950000Y-49360000D01*
X94300000Y-50360000D02*
X94950000Y-50360000D01*
G04 #@! TO.N,/OSC8_OUT*
X88000000Y-46510000D02*
X88730000Y-46510000D01*
X88730000Y-46510000D02*
X90837500Y-48617500D01*
X90837500Y-48617500D02*
X90837500Y-49217500D01*
X91050000Y-49340000D02*
X91070000Y-49360000D01*
X92550000Y-50360000D02*
X92070000Y-50360000D01*
X92070000Y-50360000D02*
X91070000Y-49360000D01*
D35*
G04 #@! TO.N,/OSC32_IN*
X88000000Y-45010000D02*
X89850000Y-45010000D01*
X89850000Y-45010000D02*
X91250000Y-43610000D01*
X91250000Y-43610000D02*
X91250000Y-43210000D01*
G04 #@! TO.N,/OSC32_OUT*
X88000000Y-45510000D02*
X90850000Y-45510000D01*
X90850000Y-45510000D02*
X91250000Y-45110000D01*
D36*
G04 #@! TO.N,/3.3V*
X88637500Y-50617500D02*
X88695000Y-50560000D01*
X88695000Y-50560000D02*
X88750000Y-50560000D01*
D35*
X88855000Y-48010000D02*
X88000000Y-48010000D01*
D37*
X79450000Y-52160000D02*
X79450000Y-51370000D01*
X79450000Y-51370000D02*
X79357500Y-51277500D01*
X79357500Y-51277500D02*
X78832500Y-51277500D01*
D35*
X89255000Y-48410000D02*
X88855000Y-48010000D01*
X89255000Y-50850000D02*
X89255000Y-48410000D01*
D36*
X75155000Y-43160000D02*
X76655000Y-43160000D01*
X78255000Y-43560000D02*
X79455000Y-42360000D01*
X77055000Y-43560000D02*
X78255000Y-43560000D01*
X76655000Y-43160000D02*
X77055000Y-43560000D01*
X79455000Y-42360000D02*
X79550000Y-42360000D01*
X74725000Y-45710000D02*
X74725000Y-43590000D01*
X74725000Y-43590000D02*
X75155000Y-43160000D01*
D38*
X79355000Y-42060000D02*
X79550000Y-42255000D01*
X79550000Y-42255000D02*
X79550000Y-42360000D01*
D35*
X88750000Y-50560000D02*
X88750000Y-50360000D01*
X86418000Y-41400000D02*
X86418000Y-42392000D01*
X86418000Y-42392000D02*
X86400000Y-42410000D01*
X79550000Y-42360000D02*
X79550000Y-41664000D01*
X87434000Y-41400000D02*
X87704000Y-41670000D01*
X79814000Y-41400000D02*
X86418000Y-41400000D01*
X86418000Y-41400000D02*
X87434000Y-41400000D01*
X79550000Y-41664000D02*
X79814000Y-41400000D01*
X87704000Y-41670000D02*
X87704000Y-42162000D01*
X88800000Y-50510000D02*
X88900000Y-50510000D01*
X79450000Y-52160000D02*
X80550000Y-52160000D01*
X80550000Y-52160000D02*
X80900000Y-51810000D01*
X80900000Y-51810000D02*
X80900000Y-51110000D01*
D36*
X79450000Y-52160000D02*
X79150000Y-52160000D01*
D35*
X79550000Y-42360000D02*
X79550000Y-43760000D01*
X79550000Y-43760000D02*
X79300000Y-44010000D01*
D36*
X74725000Y-46787000D02*
X74725000Y-45710000D01*
X75150000Y-47460000D02*
X74725000Y-46787000D01*
D38*
G04 #@! TO.N,/DCLK*
X80900000Y-42410000D02*
X80900000Y-44510000D01*
X80900000Y-44510000D02*
X82000000Y-45610000D01*
X104197500Y-41517500D02*
X105830000Y-39885000D01*
X96987500Y-41517500D02*
X104197500Y-41517500D01*
X96647500Y-41857500D02*
X96987500Y-41517500D01*
X105830000Y-39885000D02*
X105830000Y-40084000D01*
G04 #@! TO.N,/DIO*
X80550000Y-45010000D02*
X81200000Y-45660000D01*
X79300000Y-45010000D02*
X80550000Y-45010000D01*
X106007500Y-41877500D02*
X107801000Y-40084000D01*
X97677500Y-41877500D02*
X106007500Y-41877500D01*
X97447500Y-42107500D02*
X97677500Y-41877500D01*
X107801000Y-40084000D02*
X108370000Y-40084000D01*
D39*
G04 #@! TO.N,/USBDP*
X94567500Y-43857500D02*
X95767500Y-43857500D01*
D38*
X80200000Y-45510000D02*
X80975000Y-46285000D01*
X80975000Y-46285000D02*
X82200000Y-46285000D01*
X82200000Y-46285000D02*
X82600000Y-45885000D01*
X82600000Y-45885000D02*
X82600000Y-45035000D01*
X80200000Y-45510000D02*
X79300000Y-45510000D01*
D39*
X94602500Y-44282500D02*
X94577500Y-44257500D01*
D38*
G04 #@! TO.N,/USBDM*
X82350000Y-46659998D02*
X82350002Y-46659998D01*
X82350002Y-46659998D02*
X83325000Y-45685000D01*
X83325000Y-45685000D02*
X83325000Y-45435000D01*
X80150000Y-46010000D02*
X80799998Y-46659998D01*
X80799998Y-46659998D02*
X82350000Y-46659998D01*
X79300000Y-46010000D02*
X80150000Y-46010000D01*
X92717500Y-45757500D02*
X92672500Y-45802500D01*
X92750000Y-46310000D02*
X92850000Y-46210000D01*
G04 #@! TO.N,Net-(C6-Pad2)*
X104147500Y-44397500D02*
X104157500Y-44397500D01*
X98867500Y-43227500D02*
X98867500Y-44007500D01*
X98867500Y-44007500D02*
X99257500Y-44397500D01*
X99257500Y-44397500D02*
X104147500Y-44397500D01*
X104157500Y-44397500D02*
X104577500Y-44817500D01*
D39*
X107727396Y-43114466D02*
X107427397Y-43414465D01*
X109617491Y-38797509D02*
X109137500Y-39277500D01*
X109137500Y-39277500D02*
X109137500Y-41704362D01*
X111992502Y-39632500D02*
X111157511Y-38797509D01*
X111157511Y-38797509D02*
X109617491Y-38797509D01*
X109137500Y-41704362D02*
X107727396Y-43114466D01*
D35*
G04 #@! TO.N,Net-(L1-Pad1)*
X108087501Y-44482517D02*
X108387500Y-44782516D01*
X107644459Y-44039475D02*
X108087501Y-44482517D01*
X106919540Y-44039475D02*
X107644459Y-44039475D01*
D39*
G04 #@! TO.N,/EN*
X98457500Y-51802500D02*
X98457500Y-51152500D01*
D38*
X101447500Y-48257500D02*
X102467500Y-48257500D01*
X109039292Y-49420535D02*
X109339291Y-49120536D01*
X100782500Y-51152500D02*
X101317500Y-50617500D01*
X101317500Y-48387500D02*
X101447500Y-48257500D01*
X109005973Y-49453854D02*
X109039292Y-49420535D01*
X102467500Y-48257500D02*
X103663854Y-49453854D01*
X98457500Y-51152500D02*
X100782500Y-51152500D01*
X101317500Y-50617500D02*
X101317500Y-48387500D01*
X103663854Y-49453854D02*
X109005973Y-49453854D01*
G04 #@! TO.N,/SPI_MISO*
X83325000Y-49459996D02*
X82629996Y-49459996D01*
X80482500Y-48427500D02*
X81597500Y-48427500D01*
X81597500Y-48427500D02*
X82629996Y-49459996D01*
X75375000Y-46720000D02*
X75375000Y-45710000D01*
X76887500Y-48232500D02*
X75375000Y-46720000D01*
X78077500Y-48232500D02*
X76887500Y-48232500D01*
X78082500Y-48227500D02*
X78077500Y-48232500D01*
X86825000Y-51935000D02*
X86825000Y-50100022D01*
X86825000Y-50100022D02*
X85890000Y-49165022D01*
X84205004Y-49459996D02*
X83325000Y-49459996D01*
X85085000Y-48580000D02*
X85595000Y-48580000D01*
X85890000Y-48875000D02*
X85595000Y-48580000D01*
X85890000Y-49165022D02*
X85890000Y-48875000D01*
X84205004Y-49459996D02*
X85085000Y-48580000D01*
X84900000Y-51110000D02*
X84900000Y-51880000D01*
X86720000Y-52040000D02*
X86825000Y-51935000D01*
X85060000Y-52040000D02*
X86720000Y-52040000D01*
X84900000Y-51880000D02*
X85060000Y-52040000D01*
X83325000Y-49459996D02*
X83325000Y-48470000D01*
X83325000Y-48470000D02*
X84845000Y-46950000D01*
X84845000Y-46950000D02*
X84845000Y-45675000D01*
X84845000Y-45675000D02*
X82805000Y-43635000D01*
X82805000Y-43835000D02*
X82805000Y-43635000D01*
G04 #@! TO.N,/SPI_MOSI*
X76415000Y-45710000D02*
X76025000Y-45710000D01*
X78082500Y-47377500D02*
X76415000Y-45710000D01*
X86915000Y-52400000D02*
X87185000Y-52130000D01*
X86260000Y-48725000D02*
X85755000Y-48220000D01*
X85755000Y-48220000D02*
X84485000Y-48220000D01*
X83980000Y-48725000D02*
X84485000Y-48220000D01*
X86260000Y-49035000D02*
X86260000Y-48725000D01*
X84400000Y-52150000D02*
X84400000Y-51110000D01*
X84400000Y-52150000D02*
X84650000Y-52400000D01*
X84650000Y-52400000D02*
X86915000Y-52400000D01*
X87185000Y-49960000D02*
X86260000Y-49035000D01*
X87185000Y-52130000D02*
X87185000Y-49960000D01*
X83985000Y-48730000D02*
X83980000Y-48725000D01*
X83980000Y-48725000D02*
X83970000Y-48735000D01*
G04 #@! TO.N,/SPI_SCLK*
X81725000Y-50160000D02*
X81715000Y-50160000D01*
X85400000Y-51110000D02*
X85400000Y-50360000D01*
X85200000Y-50160000D02*
X82000000Y-50160000D01*
X85400000Y-50360000D02*
X85200000Y-50160000D01*
X82000000Y-50160000D02*
X81725000Y-50160000D01*
X81420000Y-49935000D02*
X81455000Y-49900000D01*
X80425000Y-50360000D02*
X80225000Y-50360000D01*
X80425000Y-50360000D02*
X80850000Y-49935000D01*
X80850000Y-49935000D02*
X81420000Y-49935000D01*
X81715000Y-50160000D02*
X81455000Y-49900000D01*
X76025000Y-51610000D02*
X76025000Y-50585000D01*
X77850000Y-50360000D02*
X80225000Y-50360000D01*
X80225000Y-50360000D02*
X80250000Y-50360000D01*
X77450000Y-49960000D02*
X77850000Y-50360000D01*
X76650000Y-49960000D02*
X77450000Y-49960000D01*
X76025000Y-50585000D02*
X76650000Y-49960000D01*
D36*
G04 #@! TO.N,/AIN1(-)*
X61755000Y-51960000D02*
X61755000Y-50555000D01*
X61750000Y-50560000D02*
X63350000Y-48960000D01*
X63350000Y-48960000D02*
X71550000Y-48960000D01*
X71550000Y-48960000D02*
X72775000Y-50185000D01*
X72775000Y-50185000D02*
X72775000Y-51610000D01*
X61755000Y-50555000D02*
X61750000Y-50560000D01*
D39*
G04 #@! TO.N,/18650*
X115767500Y-55357500D02*
X115817500Y-55407500D01*
X115817500Y-55407500D02*
X116317500Y-55407500D01*
D37*
X111267500Y-54307500D02*
X111042500Y-54082500D01*
X115767500Y-55357500D02*
X112317500Y-55357500D01*
X111267500Y-54307500D02*
X112317500Y-55357500D01*
X112767500Y-50619502D02*
X112767500Y-49707500D01*
X111042500Y-54082500D02*
X111042500Y-52344502D01*
X111042500Y-52344502D02*
X112767500Y-50619502D01*
X109227500Y-44222500D02*
X109227500Y-44843236D01*
X110242500Y-42307500D02*
X110242500Y-43207500D01*
X109227500Y-44843236D02*
X109227500Y-45267500D01*
X110242500Y-43207500D02*
X109227500Y-44222500D01*
D36*
G04 #@! TO.N,/AGND*
X72125000Y-45710000D02*
X72125000Y-44795000D01*
X72125000Y-44795000D02*
X71507500Y-44177500D01*
X71507500Y-44177500D02*
X70432500Y-44177500D01*
D39*
X109217500Y-53007500D02*
X109217500Y-51977500D01*
X107677500Y-50437500D02*
X106247500Y-50437500D01*
X109217500Y-51977500D02*
X107677500Y-50437500D01*
D40*
X109227500Y-53137500D02*
X109287500Y-53197500D01*
X109287500Y-53197500D02*
X109287500Y-53317500D01*
X109467500Y-53137500D02*
X109287500Y-53317500D01*
D39*
X94207500Y-48277500D02*
X94757500Y-48277500D01*
X94757500Y-48277500D02*
X95757500Y-47277500D01*
X95757500Y-47277500D02*
X95757500Y-45737500D01*
X98387500Y-47067500D02*
X98367500Y-47087500D01*
D35*
X100097500Y-49727500D02*
X100087500Y-49717500D01*
X100087500Y-49717500D02*
X100087500Y-49237500D01*
D36*
X102857500Y-52452500D02*
X103852500Y-52452500D01*
X103852500Y-52452500D02*
X103857500Y-52457500D01*
D39*
X97597500Y-47307500D02*
X98367500Y-47307500D01*
X97067500Y-47837500D02*
X97597500Y-47307500D01*
X95197500Y-47837500D02*
X97067500Y-47837500D01*
X94757500Y-48277500D02*
X95197500Y-47837500D01*
X81400000Y-51110000D02*
X81400000Y-52750000D01*
X81400000Y-52750000D02*
X81407500Y-52757500D01*
D40*
X77450000Y-52160000D02*
X77450000Y-51220000D01*
X77450000Y-51220000D02*
X77097500Y-50867500D01*
D41*
X93467500Y-52357500D02*
X93467500Y-52360000D01*
X88757500Y-52757500D02*
X88750000Y-52750000D01*
X88750000Y-52750000D02*
X88750000Y-52560000D01*
X77507500Y-52757500D02*
X77450000Y-52700000D01*
D40*
X77450000Y-52700000D02*
X77450000Y-52160000D01*
D35*
X89745000Y-50015000D02*
X89990000Y-50260000D01*
X89745000Y-48200000D02*
X89745000Y-50015000D01*
X89055000Y-47510000D02*
X89745000Y-48200000D01*
X88000000Y-47510000D02*
X89055000Y-47510000D01*
X90815000Y-51965000D02*
X90220000Y-52560000D01*
X90220000Y-52560000D02*
X88750000Y-52560000D01*
X90815000Y-51085000D02*
X90815000Y-51965000D01*
X89990000Y-50260000D02*
X90815000Y-51085000D01*
D36*
X73425000Y-45710000D02*
X73425000Y-44730000D01*
X72555000Y-41160000D02*
X73255000Y-41160000D01*
X71955000Y-41760000D02*
X72555000Y-41160000D01*
X71955000Y-43711470D02*
X71955000Y-41760000D01*
X72403530Y-44160000D02*
X71955000Y-43711470D01*
X72855000Y-44160000D02*
X72403530Y-44160000D01*
X73425000Y-44730000D02*
X72855000Y-44160000D01*
D42*
X77550000Y-42360000D02*
X77550000Y-41555000D01*
X77155000Y-41160000D02*
X75155000Y-41160000D01*
X77550000Y-41555000D02*
X77155000Y-41160000D01*
X72955000Y-41160000D02*
X75155000Y-41160000D01*
D34*
X92475000Y-52360000D02*
X92465000Y-52360000D01*
D36*
X94525000Y-52360000D02*
X94525000Y-52480000D01*
X77350000Y-42160000D02*
X77550000Y-42360000D01*
D39*
X94565000Y-42042500D02*
X93717500Y-42042500D01*
X93717500Y-42042500D02*
X93517500Y-41842500D01*
X93517500Y-41842500D02*
X93517500Y-41027500D01*
X93517500Y-41027500D02*
X93325000Y-40835000D01*
X93325000Y-40835000D02*
X90275000Y-40835000D01*
X90275000Y-40835000D02*
X89704000Y-41406000D01*
X89704000Y-41406000D02*
X89704000Y-42162000D01*
D35*
X89212000Y-43178000D02*
X89704000Y-42686000D01*
X86926000Y-43178000D02*
X89212000Y-43178000D01*
D39*
X86175000Y-43432000D02*
X86175000Y-43460000D01*
X86175000Y-43460000D02*
X86000000Y-43635000D01*
D37*
X92550000Y-52360000D02*
X93467500Y-52360000D01*
X93467500Y-52360000D02*
X93525000Y-52360000D01*
X93525000Y-52360000D02*
X94300000Y-52360000D01*
D35*
X85900000Y-42410000D02*
X85900000Y-43168000D01*
X86672000Y-43432000D02*
X86926000Y-43178000D01*
X86164000Y-43432000D02*
X86175000Y-43432000D01*
X86175000Y-43432000D02*
X86672000Y-43432000D01*
X85900000Y-43168000D02*
X86164000Y-43432000D01*
X89704000Y-42686000D02*
X89704000Y-42162000D01*
X89704000Y-41892000D02*
X89704000Y-42162000D01*
X79300000Y-44510000D02*
X77400000Y-44510000D01*
X77400000Y-44510000D02*
X77150000Y-44760000D01*
D36*
X77448798Y-42304200D02*
X77450000Y-42302998D01*
D37*
X111483500Y-41357500D02*
X112242500Y-41357500D01*
X110410000Y-40284000D02*
X111483500Y-41357500D01*
X111292500Y-43482506D02*
X111117502Y-43657504D01*
X111292500Y-41622500D02*
X111292500Y-43482506D01*
X111117502Y-43657504D02*
X110817503Y-43957503D01*
X112242500Y-41357500D02*
X111557500Y-41357500D01*
X111557500Y-41357500D02*
X111292500Y-41622500D01*
D40*
X111247500Y-49667465D02*
X112657500Y-48257465D01*
X112657500Y-48257465D02*
X112657500Y-46857500D01*
X111247500Y-50437500D02*
X111247500Y-49667465D01*
D38*
G04 #@! TO.N,/USB_DOWN*
X92667500Y-43857500D02*
X93197500Y-43857500D01*
X83975000Y-45960000D02*
X82925000Y-47010000D01*
X82925000Y-47010000D02*
X79300000Y-47010000D01*
X93507500Y-46307500D02*
X93537500Y-46337500D01*
X93507500Y-44167500D02*
X93507500Y-46307500D01*
X93197500Y-43857500D02*
X93507500Y-44167500D01*
G04 #@! TO.N,/USB_DETECT*
X96447500Y-47177500D02*
X97657500Y-45967500D01*
X97657500Y-45967500D02*
X97657500Y-45737500D01*
X79300000Y-47510000D02*
X82510000Y-47510000D01*
X82652500Y-47652500D02*
X82510000Y-47510000D01*
D36*
G04 #@! TO.N,/AIN(+)*
X73240000Y-52860000D02*
X74465000Y-52860000D01*
X74725000Y-52600000D02*
X74725000Y-51610000D01*
X74465000Y-52860000D02*
X74725000Y-52600000D01*
X72125000Y-52860000D02*
X73240000Y-52860000D01*
X73425000Y-52675000D02*
X73425000Y-51610000D01*
X73240000Y-52860000D02*
X73425000Y-52675000D01*
D43*
X65555000Y-51960000D02*
X67415000Y-51960000D01*
X67415000Y-51960000D02*
X67455000Y-51920000D01*
D44*
X67455000Y-51920000D02*
X65595000Y-51920000D01*
X65595000Y-51920000D02*
X65555000Y-51960000D01*
X65595000Y-51920000D02*
X65555000Y-51960000D01*
D36*
X72125000Y-52860000D02*
X71055000Y-52860000D01*
X71055000Y-52860000D02*
X70755000Y-52560000D01*
X70755000Y-52560000D02*
X70755000Y-51360000D01*
X70755000Y-51360000D02*
X69855000Y-50460000D01*
X69855000Y-50460000D02*
X67955000Y-50460000D01*
X67955000Y-50460000D02*
X67455000Y-50960000D01*
X67455000Y-50960000D02*
X67455000Y-51920000D01*
X72125000Y-51610000D02*
X72125000Y-52860000D01*
D40*
G04 #@! TO.N,/AIN2(-)*
X26397500Y-47457500D02*
X28092500Y-47457500D01*
X28707500Y-46852500D02*
X28182500Y-47377500D01*
D36*
X63655000Y-50960000D02*
X63655000Y-51960000D01*
X63655000Y-51960000D02*
X63655000Y-50960000D01*
X63655000Y-50960000D02*
X63655000Y-50955000D01*
X71475000Y-50585000D02*
X71475000Y-51610000D01*
X70550000Y-49660000D02*
X71475000Y-50585000D01*
X64950000Y-49660000D02*
X70550000Y-49660000D01*
X63650000Y-50960000D02*
X64950000Y-49660000D01*
X63655000Y-50955000D02*
X63650000Y-50960000D01*
D40*
G04 #@! TO.N,/AIN3(-)*
X58355000Y-47860000D02*
X32770000Y-47860000D01*
X59855000Y-49430000D02*
X59855000Y-49360000D01*
X59855000Y-49360000D02*
X58355000Y-47860000D01*
X32337500Y-47427500D02*
X30627500Y-47427500D01*
X32770000Y-47860000D02*
X32337500Y-47427500D01*
D36*
X59855000Y-49430000D02*
X59855000Y-49420000D01*
X74075000Y-50190000D02*
X72075000Y-48190000D01*
X74075000Y-50190000D02*
X74075000Y-51610000D01*
X61085000Y-48190000D02*
X72075000Y-48190000D01*
X59855000Y-49420000D02*
X61085000Y-48190000D01*
D40*
X59855000Y-51960000D02*
X59855000Y-49430000D01*
D38*
G04 #@! TO.N,/PWR_ON*
X98457500Y-52452500D02*
X97032500Y-52452500D01*
X96597500Y-52017500D02*
X96597500Y-50647500D01*
X97032500Y-52452500D02*
X96597500Y-52017500D01*
X86375000Y-47600000D02*
X86825000Y-47150000D01*
X86825000Y-47150000D02*
X86825000Y-44910000D01*
X87225000Y-44510000D02*
X86825000Y-44910000D01*
X88000000Y-44510000D02*
X87225000Y-44510000D01*
G04 #@! TO.N,/PWR_OFF*
X95992500Y-50422500D02*
X96357500Y-50057500D01*
X96357500Y-50057500D02*
X97197500Y-50057500D01*
X96387500Y-52967500D02*
X95992500Y-52572500D01*
X101457500Y-52967500D02*
X96387500Y-52967500D01*
X95992500Y-52572500D02*
X95992500Y-50422500D01*
X101727500Y-52697500D02*
X101457500Y-52967500D01*
X101727500Y-50717500D02*
X101727500Y-52697500D01*
X101967500Y-50477500D02*
X101727500Y-50717500D01*
X101967500Y-50477500D02*
X102632500Y-50477500D01*
X101707500Y-49157500D02*
X101707500Y-50177500D01*
X102032500Y-50502500D02*
X102857500Y-50502500D01*
X101707500Y-50177500D02*
X102032500Y-50502500D01*
X79300000Y-46510000D02*
X78490000Y-46510000D01*
X78490000Y-46510000D02*
X78140000Y-46160000D01*
G04 #@! TO.N,/BOOT0*
X87227500Y-43582500D02*
X90032500Y-43582500D01*
X91205000Y-42010000D02*
X92750000Y-42010000D01*
X90555000Y-42660000D02*
X91205000Y-42010000D01*
X90555000Y-42810000D02*
X90555000Y-42660000D01*
X90455000Y-42910000D02*
X90555000Y-42810000D01*
X90455000Y-43160000D02*
X90455000Y-42910000D01*
X90032500Y-43582500D02*
X90455000Y-43160000D01*
X84400000Y-42410000D02*
X84400000Y-43110000D01*
X86500000Y-44310000D02*
X87227500Y-43582500D01*
X87227500Y-43582500D02*
X87231998Y-43578002D01*
X85600000Y-44310000D02*
X86500000Y-44310000D01*
X84400000Y-43110000D02*
X85600000Y-44310000D01*
D39*
G04 #@! TO.N,/VBAT*
X114317500Y-39517500D02*
X113537500Y-39517500D01*
X96455000Y-41030000D02*
X95627500Y-41857500D01*
X89350000Y-44010000D02*
X88000000Y-44010000D01*
X89350000Y-44010000D02*
X89600000Y-44260000D01*
X96455000Y-41030000D02*
X102235000Y-41030000D01*
X103887500Y-38287500D02*
X112307500Y-38287500D01*
X102917500Y-39257500D02*
X103887500Y-38287500D01*
X102917500Y-40357500D02*
X102917500Y-39257500D01*
X102245000Y-41030000D02*
X102917500Y-40357500D01*
X102235000Y-41030000D02*
X102245000Y-41030000D01*
X113537500Y-39517500D02*
X112307500Y-38287500D01*
X114317500Y-39517500D02*
X113337500Y-39517500D01*
X113107500Y-39747500D02*
X113337500Y-39517500D01*
X113107500Y-44567500D02*
X111517500Y-46157500D01*
X113107500Y-40147500D02*
X113107500Y-44567500D01*
X111517500Y-47807500D02*
X111517500Y-46157500D01*
X110967500Y-48357500D02*
X111517500Y-47807500D01*
X113107500Y-40147500D02*
X113107500Y-39747500D01*
D36*
X114267500Y-39607500D02*
X114317500Y-39557500D01*
D39*
X102657500Y-46857500D02*
X102657500Y-47797500D01*
X102657500Y-46857500D02*
X102987500Y-46857500D01*
X98457500Y-50502500D02*
X100487498Y-50502500D01*
X100892498Y-48152502D02*
X102187500Y-46857500D01*
X100892498Y-50097500D02*
X100892498Y-48152502D01*
X100487498Y-50502500D02*
X100892498Y-50097500D01*
X102187500Y-46857500D02*
X102657500Y-46857500D01*
X98457500Y-50502500D02*
X98457500Y-49397500D01*
X98457500Y-49397500D02*
X98367500Y-49307500D01*
X103507500Y-48677500D02*
X103857500Y-49027500D01*
X102657500Y-46857500D02*
X102657500Y-47407500D01*
X102657500Y-47407500D02*
X103507500Y-48257500D01*
X103507500Y-48257500D02*
X103507500Y-48677500D01*
X108337500Y-49027500D02*
X109007500Y-48357500D01*
X109007500Y-48357500D02*
X110217500Y-48357500D01*
X103857500Y-49027500D02*
X108337500Y-49027500D01*
X110492500Y-54683226D02*
X110492500Y-55107490D01*
X109917500Y-50907500D02*
X110267500Y-51257500D01*
X111397500Y-47937500D02*
X109917500Y-49417500D01*
X110267500Y-54458226D02*
X110492500Y-54683226D01*
X110267500Y-51257500D02*
X110267500Y-54458226D01*
X109917500Y-49417500D02*
X109917500Y-50907500D01*
X110967500Y-48357500D02*
X110217500Y-48357500D01*
G04 #@! TO.N,Net-(IC2-Pad2)*
X102857500Y-51802500D02*
X102857500Y-51152500D01*
D38*
G04 #@! TO.N,Net-(P1-Pad2)*
X105237500Y-45117500D02*
X104667500Y-45687500D01*
X105237500Y-43327500D02*
X105237500Y-45017500D01*
X104187500Y-42277500D02*
X105237500Y-43327500D01*
X95437500Y-42657500D02*
X95437500Y-42767500D01*
X94567500Y-45757500D02*
X94567500Y-45537500D01*
X97717500Y-42687500D02*
X98127500Y-42277500D01*
X95357500Y-42687500D02*
X97717500Y-42687500D01*
X95437500Y-42767500D02*
X95357500Y-42687500D01*
X98127500Y-42277500D02*
X104187500Y-42277500D01*
X105237500Y-45017500D02*
X105237500Y-45117500D01*
G04 #@! TO.N,Net-(P1-Pad3)*
X103937500Y-45807500D02*
X104657500Y-46527500D01*
X103557500Y-44787500D02*
X103937500Y-45167500D01*
X98757500Y-44787500D02*
X101547500Y-44787500D01*
X98757500Y-44787500D02*
X97827500Y-43857500D01*
X101547500Y-44787500D02*
X103557500Y-44787500D01*
X103937500Y-45167500D02*
X103937500Y-45807500D01*
X97667500Y-43857500D02*
X97827500Y-43857500D01*
G04 #@! TO.N,Net-(R1-Pad1)*
X93497500Y-50977500D02*
X93497500Y-49847500D01*
X87824177Y-51340823D02*
X89914177Y-51340823D01*
X87575000Y-52245666D02*
X87575000Y-51590000D01*
X83500000Y-52760000D02*
X87060666Y-52760000D01*
X82900000Y-51110000D02*
X82900000Y-52160000D01*
X82900000Y-52160000D02*
X83500000Y-52760000D01*
X87575000Y-51590000D02*
X87824177Y-51340823D01*
X87060666Y-52760000D02*
X87575000Y-52245666D01*
X93107500Y-51367500D02*
X93497500Y-50977500D01*
X91637500Y-51367500D02*
X93107500Y-51367500D01*
X91487500Y-51217500D02*
X91637500Y-51367500D01*
X89914177Y-51340823D02*
X90027500Y-51227500D01*
X92307500Y-49217500D02*
X92307500Y-48277500D01*
X92637500Y-49547500D02*
X92307500Y-49217500D01*
X93197500Y-49547500D02*
X92637500Y-49547500D01*
X93497500Y-49847500D02*
X93197500Y-49547500D01*
X92315000Y-48285000D02*
X92307500Y-48277500D01*
D43*
G04 #@! TO.N,Net-(R10-Pad1)*
X67455000Y-41760000D02*
X69355000Y-41760000D01*
D38*
G04 #@! TO.N,/BLINK*
X99307500Y-47887500D02*
X99307500Y-46657500D01*
X97017500Y-48527500D02*
X97447500Y-48097500D01*
X97447500Y-48097500D02*
X99097500Y-48097500D01*
X99097500Y-48097500D02*
X99307500Y-47887500D01*
X87265000Y-49510000D02*
X86755000Y-49000000D01*
X86755000Y-49000000D02*
X86755000Y-48330000D01*
X88000000Y-49510000D02*
X87265000Y-49510000D01*
X96807500Y-48527500D02*
X97017500Y-48527500D01*
X98887500Y-46237500D02*
X98887500Y-45257500D01*
X99307500Y-46657500D02*
X98887500Y-46237500D01*
G04 #@! TO.N,Net-(D2-Pad2)*
X107087500Y-53027500D02*
X104857500Y-50797500D01*
X104857500Y-50077500D02*
X104857500Y-50797500D01*
X103567500Y-47667500D02*
X104267500Y-48367500D01*
X101197500Y-45737500D02*
X101747500Y-45187500D01*
X101747500Y-45187500D02*
X103387500Y-45187500D01*
X103387500Y-45187500D02*
X103567500Y-45367500D01*
X101197500Y-45737500D02*
X100767500Y-45737500D01*
X103567500Y-45367500D02*
X103567500Y-47667500D01*
X107087500Y-53027500D02*
X107087500Y-53317500D01*
D36*
G04 #@! TO.N,/3.0VT*
X74075000Y-45710000D02*
X74075000Y-48515000D01*
X74717500Y-49157500D02*
X75067500Y-49157500D01*
X74075000Y-48515000D02*
X74717500Y-49157500D01*
X74075000Y-45710000D02*
X74075000Y-43980000D01*
X74075000Y-43980000D02*
X73255000Y-43160000D01*
X73455000Y-43160000D02*
X72955000Y-43160000D01*
D40*
G04 #@! TO.N,/1.2VT*
X30082500Y-45885000D02*
X27100000Y-45885000D01*
X27100000Y-45885000D02*
X26527500Y-46457500D01*
D36*
X30082500Y-45885000D02*
X30082500Y-45977500D01*
X30082500Y-45977500D02*
X30082500Y-45885000D01*
D40*
X30582500Y-45885000D02*
X30082500Y-45885000D01*
X33832500Y-45885000D02*
X30582500Y-45885000D01*
X30582500Y-45885000D02*
X30575000Y-45885000D01*
X48765000Y-45885000D02*
X68230000Y-45885000D01*
X48765000Y-45885000D02*
X33832500Y-45885000D01*
X33832500Y-45885000D02*
X33765000Y-45885000D01*
X68207500Y-45885000D02*
X68230000Y-45885000D01*
X68207500Y-45877500D02*
X68207500Y-45885000D01*
X69357500Y-47012500D02*
X68230000Y-45885000D01*
X69357500Y-47002500D02*
X69352500Y-47007500D01*
X69352500Y-47007500D02*
X69357500Y-47002500D01*
X69357500Y-47002500D02*
X69357500Y-47012500D01*
X69605000Y-47260000D02*
X69357500Y-47012500D01*
X73050000Y-47260000D02*
X69605000Y-47260000D01*
D36*
X71950000Y-47260000D02*
X73050000Y-47260000D01*
X71475000Y-46785000D02*
X71950000Y-47260000D01*
X71475000Y-45710000D02*
X71475000Y-46785000D01*
X30077500Y-46397500D02*
X30082500Y-45885000D01*
D35*
G04 #@! TO.N,Net-(L1-Pad2)*
X106027500Y-45907500D02*
X105686719Y-45566719D01*
X106398885Y-42647892D02*
X106698884Y-42347893D01*
X105686719Y-45566719D02*
X105686719Y-43360058D01*
X105686719Y-43360058D02*
X106398885Y-42647892D01*
D38*
G04 #@! TO.N,/T_ADC_CS*
X80750000Y-49260000D02*
X81880000Y-49260000D01*
X80050002Y-49959998D02*
X80750000Y-49260000D01*
X78249998Y-49959998D02*
X80050002Y-49959998D01*
X77750000Y-49460000D02*
X78249998Y-49959998D01*
X76550000Y-49460000D02*
X77750000Y-49460000D01*
X75375000Y-50635000D02*
X76550000Y-49460000D01*
X75375000Y-51610000D02*
X75375000Y-50635000D01*
X85424998Y-49809998D02*
X85900000Y-50285000D01*
X82429998Y-49809998D02*
X85424998Y-49809998D01*
X81880000Y-49260000D02*
X82429998Y-49809998D01*
X85900000Y-50285000D02*
X85900000Y-51110000D01*
G04 #@! TO.N,/FLASH_CS*
X85237500Y-47302500D02*
X85237500Y-44917500D01*
X85545000Y-47610000D02*
X85237500Y-47302500D01*
X86400000Y-51110000D02*
X86400000Y-50275000D01*
X85237500Y-44917500D02*
X83955000Y-43635000D01*
X86400000Y-50275000D02*
X85315000Y-49190000D01*
X84050000Y-43730000D02*
X83955000Y-43635000D01*
D39*
G04 #@! TO.N,Net-(C5-Pad2)*
X100767500Y-43227500D02*
X101357500Y-43227500D01*
X101357500Y-43227500D02*
X101697500Y-42887500D01*
X106437500Y-44527500D02*
X106355795Y-44527500D01*
X106387500Y-44527500D02*
X106355795Y-44527500D01*
X106323652Y-44559643D02*
X106311720Y-44559643D01*
X106355795Y-44527500D02*
X106323652Y-44559643D01*
X106611719Y-44859642D02*
X107489642Y-44859642D01*
X106311720Y-44559643D02*
X106611719Y-44859642D01*
X107489642Y-44859642D02*
X108547500Y-45917500D01*
X108547500Y-45917500D02*
X110577500Y-45917500D01*
X112242500Y-44252500D02*
X112242500Y-43257500D01*
X110577500Y-45917500D02*
X112242500Y-44252500D01*
D46*
G04 #@! TO.N,/GND*
X129800000Y-46950000D02*
X129650000Y-46950000D01*
X129650000Y-46950000D02*
X123000000Y-53600000D01*
X129800000Y-46950000D02*
X129850000Y-46950000D01*
X129850000Y-46950000D02*
X136525000Y-53625000D01*
X129800000Y-46950000D02*
X136500000Y-40250000D01*
X123075000Y-40275000D02*
X123125000Y-40275000D01*
X123125000Y-40275000D02*
X129800000Y-46950000D01*
X129800000Y-46950000D02*
X129800000Y-56450000D01*
X129800000Y-46950000D02*
X139300000Y-46950000D01*
X129800000Y-46950000D02*
X120300000Y-46950000D01*
X129800000Y-37450000D02*
X129800000Y-46950000D01*
D45*
X133700000Y-37450000D02*
X136500000Y-40250000D01*
X129800000Y-37450000D02*
X133700000Y-37450000D01*
X139300000Y-43050000D02*
X136500000Y-40250000D01*
X139300000Y-46950000D02*
X139300000Y-43050000D01*
X139300000Y-50850000D02*
X136525000Y-53625000D01*
X139300000Y-46950000D02*
X139300000Y-50850000D01*
X133700000Y-56450000D02*
X136525000Y-53625000D01*
X129800000Y-56450000D02*
X133700000Y-56450000D01*
X125850000Y-56450000D02*
X123000000Y-53600000D01*
X129800000Y-56450000D02*
X125850000Y-56450000D01*
X125900000Y-37450000D02*
X123075000Y-40275000D01*
X129800000Y-37450000D02*
X125900000Y-37450000D01*
X120300000Y-50900000D02*
X123000000Y-53600000D01*
X120300000Y-46950000D02*
X120300000Y-50900000D01*
X120300000Y-43050000D02*
X123075000Y-40275000D01*
X120300000Y-46950000D02*
X120300000Y-43050000D01*
G04 #@! TD*
M02*
