M48
;DRILL file {KiCad 5.0.2+dfsg1-1} date Чт 24 окт 2019 08:55:48
;FORMAT={-:-/ absolute / metric / decimal}
FMAT,2
METRIC,TZ
T1C0.300
T2C0.500
T3C0.600
T4C0.800
T5C0.900
T6C1.000
%
G90
G05
T1
X26.527Y-46.457
X26.527Y-76.457
X28.707Y-46.852
X28.707Y-76.852
X45.667Y-29.008
X45.667Y-59.008
X46.442Y-39.082
X46.442Y-69.082
X47.617Y-34.757
X47.617Y-64.757
X47.942Y-23.608
X47.942Y-53.608
X49.096Y-29.594
X49.096Y-59.594
X49.207Y-25.578
X49.207Y-33.447
X49.207Y-55.578
X49.207Y-63.447
X50.047Y-33.932
X50.047Y-63.932
X51.008Y-35.301
X51.008Y-65.301
X51.515Y-34.676
X51.515Y-64.676
X51.736Y-36.367
X51.736Y-66.367
X52.123Y-34.155
X52.123Y-64.155
X52.407Y-32.807
X52.407Y-62.807
X53.578Y-28.637
X53.578Y-58.637
X53.767Y-33.027
X53.767Y-63.027
X53.777Y-32.188
X53.777Y-62.188
X53.857Y-33.898
X53.857Y-63.897
X54.167Y-30.348
X54.167Y-60.347
X54.578Y-26.258
X54.578Y-56.258
X56.737Y-35.828
X56.737Y-65.828
X58.337Y-28.987
X58.337Y-58.987
X60.047Y-31.647
X60.047Y-61.647
X60.777Y-32.977
X60.777Y-62.977
X60.987Y-36.608
X60.987Y-66.608
X61.237Y-28.657
X61.237Y-58.657
X61.627Y-30.188
X61.627Y-60.188
X61.787Y-36.858
X61.787Y-66.858
X61.837Y-28.067
X61.837Y-58.067
X61.987Y-31.537
X61.987Y-61.537
X62.807Y-36.858
X62.807Y-66.858
X62.997Y-36.057
X62.997Y-66.057
X63.857Y-34.457
X63.857Y-64.457
X63.867Y-32.957
X63.867Y-62.957
X64.897Y-32.377
X64.897Y-62.377
X64.968Y-26.357
X64.968Y-56.357
X65.718Y-32.957
X65.718Y-62.957
X66.947Y-27.497
X66.947Y-57.497
X68.207Y-45.877
X68.207Y-75.877
X68.407Y-27.487
X68.407Y-57.487
X68.835Y-34.455
X68.835Y-64.455
X69.358Y-47.002
X69.358Y-77.002
X69.677Y-25.957
X69.677Y-55.957
X69.797Y-28.098
X69.797Y-58.097
X70.432Y-44.177
X70.432Y-74.177
X71.68Y-30.385
X71.68Y-60.385
X72.06Y-31.115
X72.06Y-61.115
X72.435Y-35.08
X72.435Y-65.08
X72.89Y-31.105
X72.89Y-61.105
X73.05Y-47.26
X73.05Y-77.26
X73.12Y-29.525
X73.12Y-59.525
X74.45Y-29.985
X74.45Y-59.985
X74.46Y-32.755
X74.46Y-62.755
X74.48Y-35.08
X74.48Y-65.08
X75.067Y-49.157
X75.067Y-79.157
X75.11Y-33.28
X75.11Y-63.28
X75.15Y-47.46
X75.15Y-77.46
X75.63Y-35.08
X75.63Y-65.08
X75.782Y-31.062
X75.782Y-61.062
X75.835Y-33.68
X75.835Y-63.68
X76.435Y-33.105
X76.435Y-63.105
X76.98Y-28.815
X76.98Y-58.815
X77.028Y-25.957
X77.028Y-55.957
X77.097Y-50.867
X77.097Y-80.867
X77.15Y-44.76
X77.15Y-74.76
X77.235Y-33.055
X77.235Y-63.055
X77.449Y-42.304
X77.449Y-72.304
X77.507Y-52.758
X77.507Y-82.757
X77.953Y-30.287
X77.953Y-60.287
X78.082Y-47.377
X78.082Y-48.227
X78.082Y-77.377
X78.082Y-78.227
X78.14Y-46.16
X78.14Y-76.16
X78.832Y-51.277
X78.832Y-81.278
X79.08Y-36.655
X79.08Y-66.655
X79.355Y-42.06
X79.355Y-72.06
X79.602Y-27.438
X79.602Y-57.438
X80.295Y-32.555
X80.295Y-62.555
X80.352Y-30.487
X80.352Y-31.337
X80.352Y-60.487
X80.352Y-61.337
X80.483Y-48.427
X80.483Y-78.427
X80.927Y-25.957
X80.927Y-55.957
X80.986Y-36.411
X80.986Y-66.411
X81.2Y-45.66
X81.2Y-75.66
X81.285Y-33.955
X81.285Y-63.955
X81.337Y-27.848
X81.337Y-57.847
X81.407Y-52.758
X81.407Y-82.757
X81.455Y-49.9
X81.455Y-79.9
X82.Y-45.61
X82.Y-75.61
X82.6Y-45.035
X82.6Y-75.035
X82.652Y-47.652
X82.652Y-77.653
X82.805Y-43.635
X82.805Y-73.635
X83.285Y-31.255
X83.285Y-61.255
X83.325Y-45.435
X83.325Y-75.435
X83.367Y-29.557
X83.367Y-59.557
X83.955Y-43.635
X83.955Y-73.635
X83.975Y-45.96
X83.975Y-75.96
X83.985Y-48.73
X83.985Y-78.73
X85.315Y-49.19
X85.315Y-79.19
X85.385Y-31.455
X85.385Y-61.455
X85.545Y-47.61
X85.545Y-77.61
X86.Y-43.635
X86.Y-73.635
X86.375Y-47.6
X86.375Y-77.6
X86.755Y-48.33
X86.755Y-78.33
X88.002Y-34.538
X88.002Y-64.537
X88.638Y-50.617
X88.638Y-80.617
X88.757Y-52.758
X88.757Y-82.757
X89.078Y-31.712
X89.078Y-61.712
X89.6Y-44.26
X89.6Y-74.26
X90.027Y-51.227
X90.027Y-81.227
X90.227Y-32.837
X90.227Y-62.837
X91.487Y-51.218
X91.487Y-81.218
X92.718Y-45.758
X92.718Y-75.757
X93.468Y-52.357
X93.468Y-82.358
X93.537Y-46.337
X93.537Y-76.337
X94.567Y-45.758
X94.567Y-75.757
X94.578Y-44.258
X94.578Y-74.257
X95.438Y-42.657
X95.438Y-72.657
X95.627Y-41.857
X95.627Y-71.858
X96.447Y-47.177
X96.447Y-77.177
X96.597Y-50.648
X96.597Y-80.647
X96.647Y-41.857
X96.647Y-71.858
X96.807Y-48.527
X96.807Y-78.528
X97.197Y-50.057
X97.197Y-80.057
X97.447Y-42.107
X97.447Y-72.108
X97.657Y-45.737
X97.657Y-75.737
X98.387Y-47.067
X98.387Y-77.067
X100.097Y-49.727
X100.097Y-79.727
X101.697Y-42.887
X101.697Y-72.888
X103.858Y-52.457
X103.858Y-82.457
X104.267Y-48.367
X104.267Y-78.367
X104.578Y-44.817
X104.578Y-74.817
X104.657Y-46.527
X104.657Y-76.528
X104.667Y-45.688
X104.667Y-75.688
X104.858Y-50.078
X104.858Y-80.078
X106.027Y-45.907
X106.027Y-75.907
X106.312Y-44.56
X106.312Y-74.56
X106.699Y-42.348
X106.699Y-72.348
X106.92Y-44.039
X106.92Y-74.039
X107.427Y-43.414
X107.427Y-73.414
X108.387Y-44.783
X108.387Y-74.783
X109.227Y-45.267
X109.227Y-53.137
X109.227Y-75.267
X109.227Y-83.138
X109.339Y-49.121
X109.339Y-79.121
X110.492Y-55.107
X110.492Y-85.107
X110.818Y-43.958
X110.818Y-73.958
X111.993Y-39.633
X111.993Y-69.632
X112.767Y-49.707
X112.767Y-79.707
X129.727Y-31.862
X129.727Y-61.862
X131.907Y-32.258
X131.907Y-62.258
X41.117Y-54.517
X42.117Y-54.517
X43.117Y-54.517
X44.117Y-54.517
X41.117Y-24.517
X42.117Y-24.517
X43.117Y-24.517
X44.117Y-24.517
X114.317Y-54.197
X115.317Y-54.197
X116.317Y-54.197
X117.317Y-54.197
X114.317Y-68.307
X115.317Y-68.307
X116.317Y-68.307
X117.317Y-68.307
X114.317Y-85.407
X115.317Y-85.407
X116.317Y-85.407
X117.317Y-85.407
X114.317Y-69.517
X115.317Y-69.517
X116.317Y-69.517
X117.317Y-69.517
X41.117Y-53.307
X42.117Y-53.307
X43.117Y-53.307
X44.117Y-53.307
X41.117Y-23.307
X42.117Y-23.307
X43.117Y-23.307
X44.117Y-23.307
X114.317Y-39.517
X115.317Y-39.517
X116.317Y-39.517
X117.317Y-39.517
X41.117Y-69.197
X42.117Y-69.197
X43.117Y-69.197
X44.117Y-69.197
X41.117Y-39.197
X42.117Y-39.197
X43.117Y-39.197
X44.117Y-39.197
X41.117Y-70.407
X42.117Y-70.407
X43.117Y-70.407
X44.117Y-70.407
X41.117Y-40.407
X42.117Y-40.407
X43.117Y-40.407
X44.117Y-40.407
X114.317Y-55.407
X115.317Y-55.407
X116.317Y-55.407
X117.317Y-55.407
X114.317Y-38.307
X115.317Y-38.307
X116.317Y-38.307
X117.317Y-38.307
X114.317Y-84.197
X115.317Y-84.197
X116.317Y-84.197
X117.317Y-84.197
T2
X91.25Y-73.21
X91.25Y-75.11
X67.185Y-63.605
X67.185Y-65.505
X67.185Y-33.605
X67.185Y-35.505
X91.25Y-43.21
X91.25Y-45.11
T3
X19.3Y-31.95
X136.5Y-40.25
X22.075Y-25.275
X35.525Y-38.625
X123.075Y-70.275
X36.025Y-68.625
X123.Y-83.6
X38.8Y-61.95
X22.5Y-68.6
X28.8Y-41.45
X123.Y-53.6
X19.8Y-61.95
X28.8Y-22.45
X120.3Y-76.95
X136.5Y-70.25
X136.525Y-83.625
X36.Y-55.25
X120.3Y-46.95
X139.3Y-46.95
X129.8Y-56.45
X139.3Y-76.95
X38.3Y-31.95
X136.525Y-53.625
X29.3Y-71.45
X22.Y-38.6
X129.8Y-86.45
X129.8Y-37.45
X123.075Y-40.275
X35.5Y-25.25
X129.8Y-67.45
X22.575Y-55.275
X29.3Y-52.45
T4
X89.08Y-26.795
X89.08Y-36.955
X94.78Y-56.755
X94.78Y-66.915
X69.355Y-41.76
X69.355Y-51.92
X61.755Y-41.8
X61.755Y-51.96
X90.98Y-26.795
X90.98Y-36.955
X63.655Y-71.8
X63.655Y-81.96
X90.837Y-49.218
X95.718Y-49.218
X89.08Y-56.795
X89.08Y-66.955
X94.78Y-26.755
X94.78Y-36.915
X59.855Y-41.8
X59.855Y-51.96
X59.855Y-71.8
X59.855Y-81.96
X90.98Y-56.795
X90.98Y-66.955
X61.755Y-71.8
X61.755Y-81.96
X92.88Y-56.755
X92.88Y-66.915
X65.555Y-41.8
X65.555Y-51.96
X62.717Y-59.497
X67.597Y-59.497
X96.68Y-56.755
X96.68Y-66.915
X92.88Y-26.755
X92.88Y-36.915
X96.68Y-26.755
X96.68Y-36.915
X67.455Y-41.76
X67.455Y-51.92
X69.355Y-71.76
X69.355Y-81.92
X98.58Y-26.755
X98.58Y-36.915
X63.655Y-41.8
X63.655Y-51.96
X98.58Y-56.755
X98.58Y-66.915
X65.555Y-71.8
X65.555Y-81.96
X67.455Y-71.76
X67.455Y-81.92
X90.837Y-79.218
X95.718Y-79.218
X62.717Y-29.497
X67.597Y-29.497
T5
X53.105Y-68.531
X105.33Y-40.184
X50.565Y-38.531
X107.87Y-70.184
X47.188Y-58.277
X52.188Y-58.277
X50.565Y-68.531
X110.41Y-40.184
X106.248Y-50.438
X111.247Y-50.438
X107.87Y-40.184
X106.248Y-80.438
X111.247Y-80.438
X48.025Y-38.531
X110.41Y-70.184
X53.105Y-38.531
X105.33Y-70.184
X48.025Y-68.531
X47.188Y-28.277
X52.188Y-28.277
T6
X28.8Y-31.95
X129.8Y-76.95
X129.8Y-46.95
X29.3Y-61.95
T3
X102.657Y-46.407G85X102.657Y-47.307
G05
X112.657Y-46.407G85X112.657Y-47.307
G05
X46.188Y-55.227G85X46.188Y-55.927
G05
X53.188Y-55.227G85X53.188Y-55.927
G05
X105.248Y-53.487G85X105.248Y-52.787
G05
X112.247Y-53.487G85X112.247Y-52.787
G05
X105.248Y-83.487G85X105.248Y-82.787
G05
X112.247Y-83.487G85X112.247Y-82.787
G05
X45.777Y-32.307G85X45.777Y-31.407
G05
X55.777Y-32.307G85X55.777Y-31.407
G05
X45.777Y-62.307G85X45.777Y-61.407
G05
X55.777Y-62.307G85X55.777Y-61.407
G05
X102.657Y-76.407G85X102.657Y-77.307
G05
X112.657Y-76.407G85X112.657Y-77.307
G05
X46.188Y-25.227G85X46.188Y-25.927
G05
X53.188Y-25.227G85X53.188Y-25.927
G05
T0
M30
