G04 #@! TF.GenerationSoftware,KiCad,Pcbnew,5.0.2+dfsg1-1*
G04 #@! TF.CreationDate,2019-10-24T09:01:44+03:00*
G04 #@! TF.ProjectId,ERG-T-04,4552472d-542d-4303-942e-6b696361645f,rev?*
G04 #@! TF.SameCoordinates,Original*
G04 #@! TF.FileFunction,Soldermask,Bot*
G04 #@! TF.FilePolarity,Negative*
%FSLAX46Y46*%
G04 Gerber Fmt 4.6, Leading zero omitted, Abs format (unit mm)*
G04 Created by KiCad (PCBNEW 5.0.2+dfsg1-1) date Чт 24 окт 2019 09:01:44*
%MOMM*%
%LPD*%
G01*
G04 APERTURE LIST*
%ADD10C,0.100000*%
G04 APERTURE END LIST*
D10*
G36*
X142500000Y-89500000D02*
X114000000Y-89500000D01*
X114000000Y-86232500D01*
X113997598Y-86208114D01*
X113990485Y-86184665D01*
X113978934Y-86163054D01*
X113963388Y-86144112D01*
X113944446Y-86128566D01*
X113922835Y-86117015D01*
X113899386Y-86109902D01*
X113875000Y-86107500D01*
X113617500Y-86107500D01*
X113617500Y-83497500D01*
X113875000Y-83497500D01*
X113899386Y-83495098D01*
X113922835Y-83487985D01*
X113944446Y-83476434D01*
X113963388Y-83460888D01*
X113978934Y-83441946D01*
X113990485Y-83420335D01*
X113997598Y-83396886D01*
X114000000Y-83372500D01*
X114000000Y-70342500D01*
X113997598Y-70318114D01*
X113990485Y-70294665D01*
X113978934Y-70273054D01*
X113963388Y-70254112D01*
X113944446Y-70238566D01*
X113922835Y-70227015D01*
X113899386Y-70219902D01*
X113875000Y-70217500D01*
X113617500Y-70217500D01*
X113617500Y-67607500D01*
X113875000Y-67607500D01*
X113899386Y-67605098D01*
X113922835Y-67597985D01*
X113944446Y-67586434D01*
X113963388Y-67570888D01*
X113978934Y-67551946D01*
X113990485Y-67530335D01*
X113997598Y-67506886D01*
X114000000Y-67482500D01*
X114000000Y-64000000D01*
X142500000Y-64000000D01*
X142500000Y-89500000D01*
X142500000Y-89500000D01*
G37*
G36*
X105394526Y-82048352D02*
X105535900Y-82091238D01*
X105666190Y-82160878D01*
X105780399Y-82254607D01*
X105874120Y-82368806D01*
X105943762Y-82499098D01*
X105972883Y-82595098D01*
X105982260Y-82617737D01*
X105995874Y-82638111D01*
X106013201Y-82655439D01*
X106033576Y-82669052D01*
X106056215Y-82678430D01*
X106080248Y-82683210D01*
X106104752Y-82683210D01*
X106128786Y-82678429D01*
X106151425Y-82669052D01*
X106171799Y-82655438D01*
X106189127Y-82638111D01*
X106202740Y-82617736D01*
X106212118Y-82595097D01*
X106217500Y-82558812D01*
X106217500Y-82207500D01*
X107817500Y-82207500D01*
X107817500Y-83807500D01*
X106217500Y-83807500D01*
X106217500Y-83716188D01*
X106215098Y-83691802D01*
X106207985Y-83668353D01*
X106196434Y-83646742D01*
X106180888Y-83627800D01*
X106161946Y-83612254D01*
X106140335Y-83600703D01*
X106116886Y-83593590D01*
X106092500Y-83591188D01*
X106068114Y-83593590D01*
X106044665Y-83600703D01*
X106023054Y-83612254D01*
X106004112Y-83627800D01*
X105988566Y-83646742D01*
X105972883Y-83679902D01*
X105943762Y-83775902D01*
X105874120Y-83906194D01*
X105780396Y-84020396D01*
X105666194Y-84114120D01*
X105535901Y-84183762D01*
X105394527Y-84226648D01*
X105247500Y-84241128D01*
X105100474Y-84226648D01*
X104959100Y-84183762D01*
X104828807Y-84114120D01*
X104714605Y-84020396D01*
X104620881Y-83906194D01*
X104551240Y-83775902D01*
X104508352Y-83634525D01*
X104497500Y-83524339D01*
X104497500Y-82750662D01*
X104508352Y-82640474D01*
X104551238Y-82499100D01*
X104620878Y-82368810D01*
X104714607Y-82254601D01*
X104828806Y-82160880D01*
X104959099Y-82091238D01*
X105100473Y-82048352D01*
X105247500Y-82033872D01*
X105394526Y-82048352D01*
X105394526Y-82048352D01*
G37*
G36*
X112394526Y-82048352D02*
X112535900Y-82091238D01*
X112666190Y-82160878D01*
X112780399Y-82254607D01*
X112874120Y-82368806D01*
X112943762Y-82499099D01*
X112986648Y-82640473D01*
X112997500Y-82750661D01*
X112997500Y-83524339D01*
X112986648Y-83634527D01*
X112943762Y-83775901D01*
X112874120Y-83906194D01*
X112780396Y-84020396D01*
X112666194Y-84114120D01*
X112535901Y-84183762D01*
X112394527Y-84226648D01*
X112247500Y-84241128D01*
X112100474Y-84226648D01*
X111959100Y-84183762D01*
X111828807Y-84114120D01*
X111714605Y-84020396D01*
X111620881Y-83906194D01*
X111551240Y-83775902D01*
X111508352Y-83634525D01*
X111497500Y-83524339D01*
X111497500Y-82750662D01*
X111508352Y-82640474D01*
X111551238Y-82499100D01*
X111620878Y-82368810D01*
X111714607Y-82254601D01*
X111828806Y-82160880D01*
X111959099Y-82091238D01*
X112100473Y-82048352D01*
X112247500Y-82033872D01*
X112394526Y-82048352D01*
X112394526Y-82048352D01*
G37*
G36*
X110017500Y-83807500D02*
X108417500Y-83807500D01*
X108417500Y-82207500D01*
X110017500Y-82207500D01*
X110017500Y-83807500D01*
X110017500Y-83807500D01*
G37*
G36*
X89575000Y-83260000D02*
X87925000Y-83260000D01*
X87925000Y-81860000D01*
X89575000Y-81860000D01*
X89575000Y-83260000D01*
X89575000Y-83260000D01*
G37*
G36*
X93300000Y-83060000D02*
X91650000Y-83060000D01*
X91650000Y-81660000D01*
X93300000Y-81660000D01*
X93300000Y-83060000D01*
X93300000Y-83060000D01*
G37*
G36*
X95350000Y-83060000D02*
X93700000Y-83060000D01*
X93700000Y-81660000D01*
X95350000Y-81660000D01*
X95350000Y-83060000D01*
X95350000Y-83060000D01*
G37*
G36*
X78150000Y-82985000D02*
X76750000Y-82985000D01*
X76750000Y-81335000D01*
X78150000Y-81335000D01*
X78150000Y-82985000D01*
X78150000Y-82985000D01*
G37*
G36*
X80150000Y-82985000D02*
X78750000Y-82985000D01*
X78750000Y-81335000D01*
X80150000Y-81335000D01*
X80150000Y-82985000D01*
X80150000Y-82985000D01*
G37*
G36*
X67651030Y-80934469D02*
X67651033Y-80934470D01*
X67651034Y-80934470D01*
X67839535Y-80991651D01*
X67839537Y-80991652D01*
X68013260Y-81084509D01*
X68165528Y-81209472D01*
X68290493Y-81361743D01*
X68294761Y-81369727D01*
X68308375Y-81390101D01*
X68325702Y-81407428D01*
X68346077Y-81421042D01*
X68368716Y-81430419D01*
X68392749Y-81435199D01*
X68417254Y-81435199D01*
X68441287Y-81430418D01*
X68463926Y-81421040D01*
X68484300Y-81407426D01*
X68501627Y-81390099D01*
X68515239Y-81369727D01*
X68519507Y-81361743D01*
X68644472Y-81209472D01*
X68796740Y-81084509D01*
X68970463Y-80991652D01*
X68970465Y-80991651D01*
X69158966Y-80934470D01*
X69158967Y-80934470D01*
X69158970Y-80934469D01*
X69305876Y-80920000D01*
X69404124Y-80920000D01*
X69551030Y-80934469D01*
X69551033Y-80934470D01*
X69551034Y-80934470D01*
X69739535Y-80991651D01*
X69739537Y-80991652D01*
X69913260Y-81084509D01*
X70065528Y-81209472D01*
X70190491Y-81361740D01*
X70283348Y-81535463D01*
X70340531Y-81723970D01*
X70359838Y-81920000D01*
X70340531Y-82116030D01*
X70340530Y-82116033D01*
X70340530Y-82116034D01*
X70299380Y-82251689D01*
X70283348Y-82304537D01*
X70190491Y-82478260D01*
X70065528Y-82630528D01*
X69913260Y-82755491D01*
X69913258Y-82755492D01*
X69739535Y-82848349D01*
X69551034Y-82905530D01*
X69551033Y-82905530D01*
X69551030Y-82905531D01*
X69404124Y-82920000D01*
X69305876Y-82920000D01*
X69158970Y-82905531D01*
X69158967Y-82905530D01*
X69158966Y-82905530D01*
X68970465Y-82848349D01*
X68796742Y-82755492D01*
X68796740Y-82755491D01*
X68644472Y-82630528D01*
X68519507Y-82478257D01*
X68515239Y-82470273D01*
X68501625Y-82449899D01*
X68484298Y-82432572D01*
X68463923Y-82418958D01*
X68441284Y-82409581D01*
X68417251Y-82404801D01*
X68392746Y-82404801D01*
X68368713Y-82409582D01*
X68346074Y-82418960D01*
X68325700Y-82432574D01*
X68308373Y-82449901D01*
X68294761Y-82470273D01*
X68290493Y-82478257D01*
X68165528Y-82630528D01*
X68013260Y-82755491D01*
X68013258Y-82755492D01*
X67839535Y-82848349D01*
X67651034Y-82905530D01*
X67651033Y-82905530D01*
X67651030Y-82905531D01*
X67504124Y-82920000D01*
X67405876Y-82920000D01*
X67258970Y-82905531D01*
X67258967Y-82905530D01*
X67258966Y-82905530D01*
X67070465Y-82848349D01*
X66896742Y-82755492D01*
X66896740Y-82755491D01*
X66744472Y-82630528D01*
X66611718Y-82468767D01*
X66594391Y-82451440D01*
X66574017Y-82437826D01*
X66551378Y-82428448D01*
X66527344Y-82423668D01*
X66502840Y-82423668D01*
X66478807Y-82428448D01*
X66456167Y-82437826D01*
X66435793Y-82451440D01*
X66411164Y-82478613D01*
X66331751Y-82597463D01*
X66192463Y-82736751D01*
X66028678Y-82846189D01*
X65846689Y-82921571D01*
X65730770Y-82944628D01*
X65653493Y-82960000D01*
X65456507Y-82960000D01*
X65379230Y-82944628D01*
X65263311Y-82921571D01*
X65081322Y-82846189D01*
X64917537Y-82736751D01*
X64778249Y-82597463D01*
X64708926Y-82493715D01*
X64693388Y-82474781D01*
X64674446Y-82459236D01*
X64652835Y-82447685D01*
X64629386Y-82440572D01*
X64605000Y-82438170D01*
X64580613Y-82440572D01*
X64557164Y-82447685D01*
X64535554Y-82459236D01*
X64516611Y-82474782D01*
X64501074Y-82493715D01*
X64431751Y-82597463D01*
X64292463Y-82736751D01*
X64128678Y-82846189D01*
X63946689Y-82921571D01*
X63830770Y-82944628D01*
X63753493Y-82960000D01*
X63556507Y-82960000D01*
X63479230Y-82944628D01*
X63363311Y-82921571D01*
X63181322Y-82846189D01*
X63017537Y-82736751D01*
X62878249Y-82597463D01*
X62808926Y-82493715D01*
X62793388Y-82474781D01*
X62774446Y-82459236D01*
X62752835Y-82447685D01*
X62729386Y-82440572D01*
X62705000Y-82438170D01*
X62680613Y-82440572D01*
X62657164Y-82447685D01*
X62635554Y-82459236D01*
X62616611Y-82474782D01*
X62601074Y-82493715D01*
X62531751Y-82597463D01*
X62392463Y-82736751D01*
X62228678Y-82846189D01*
X62046689Y-82921571D01*
X61930770Y-82944628D01*
X61853493Y-82960000D01*
X61656507Y-82960000D01*
X61579230Y-82944628D01*
X61463311Y-82921571D01*
X61281322Y-82846189D01*
X61117537Y-82736751D01*
X60978249Y-82597463D01*
X60908926Y-82493715D01*
X60893388Y-82474781D01*
X60874446Y-82459236D01*
X60852835Y-82447685D01*
X60829386Y-82440572D01*
X60805000Y-82438170D01*
X60780613Y-82440572D01*
X60757164Y-82447685D01*
X60735554Y-82459236D01*
X60716611Y-82474782D01*
X60701074Y-82493715D01*
X60631751Y-82597463D01*
X60492463Y-82736751D01*
X60328678Y-82846189D01*
X60146689Y-82921571D01*
X60030770Y-82944628D01*
X59953493Y-82960000D01*
X59756507Y-82960000D01*
X59679230Y-82944628D01*
X59563311Y-82921571D01*
X59381322Y-82846189D01*
X59217537Y-82736751D01*
X59078249Y-82597463D01*
X58968811Y-82433678D01*
X58893429Y-82251689D01*
X58861514Y-82091239D01*
X58855000Y-82058493D01*
X58855000Y-81861507D01*
X58882359Y-81723966D01*
X58893429Y-81668311D01*
X58968811Y-81486322D01*
X59078249Y-81322537D01*
X59217537Y-81183249D01*
X59381322Y-81073811D01*
X59563311Y-80998429D01*
X59679230Y-80975372D01*
X59756507Y-80960000D01*
X59953493Y-80960000D01*
X60030770Y-80975372D01*
X60146689Y-80998429D01*
X60328678Y-81073811D01*
X60492463Y-81183249D01*
X60631751Y-81322537D01*
X60701074Y-81426285D01*
X60716612Y-81445219D01*
X60735554Y-81460764D01*
X60757165Y-81472315D01*
X60780614Y-81479428D01*
X60805000Y-81481830D01*
X60829387Y-81479428D01*
X60852836Y-81472315D01*
X60874446Y-81460764D01*
X60893389Y-81445218D01*
X60908926Y-81426285D01*
X60978249Y-81322537D01*
X61117537Y-81183249D01*
X61281322Y-81073811D01*
X61463311Y-80998429D01*
X61579230Y-80975372D01*
X61656507Y-80960000D01*
X61853493Y-80960000D01*
X61930770Y-80975372D01*
X62046689Y-80998429D01*
X62228678Y-81073811D01*
X62392463Y-81183249D01*
X62531751Y-81322537D01*
X62601074Y-81426285D01*
X62616612Y-81445219D01*
X62635554Y-81460764D01*
X62657165Y-81472315D01*
X62680614Y-81479428D01*
X62705000Y-81481830D01*
X62729387Y-81479428D01*
X62752836Y-81472315D01*
X62774446Y-81460764D01*
X62793389Y-81445218D01*
X62808926Y-81426285D01*
X62878249Y-81322537D01*
X63017537Y-81183249D01*
X63181322Y-81073811D01*
X63363311Y-80998429D01*
X63479230Y-80975372D01*
X63556507Y-80960000D01*
X63753493Y-80960000D01*
X63830770Y-80975372D01*
X63946689Y-80998429D01*
X64128678Y-81073811D01*
X64292463Y-81183249D01*
X64431751Y-81322537D01*
X64501074Y-81426285D01*
X64516612Y-81445219D01*
X64535554Y-81460764D01*
X64557165Y-81472315D01*
X64580614Y-81479428D01*
X64605000Y-81481830D01*
X64629387Y-81479428D01*
X64652836Y-81472315D01*
X64674446Y-81460764D01*
X64693389Y-81445218D01*
X64708926Y-81426285D01*
X64778249Y-81322537D01*
X64917537Y-81183249D01*
X65081322Y-81073811D01*
X65263311Y-80998429D01*
X65379230Y-80975372D01*
X65456507Y-80960000D01*
X65653493Y-80960000D01*
X65730770Y-80975372D01*
X65846689Y-80998429D01*
X66028678Y-81073811D01*
X66192463Y-81183249D01*
X66331751Y-81322537D01*
X66387408Y-81405834D01*
X66402942Y-81424762D01*
X66421884Y-81440307D01*
X66443495Y-81451859D01*
X66466944Y-81458972D01*
X66491331Y-81461374D01*
X66515717Y-81458972D01*
X66539166Y-81451859D01*
X66560777Y-81440308D01*
X66579719Y-81424763D01*
X66601571Y-81395299D01*
X66619508Y-81361741D01*
X66744472Y-81209472D01*
X66896740Y-81084509D01*
X67070463Y-80991652D01*
X67070465Y-80991651D01*
X67258966Y-80934470D01*
X67258967Y-80934470D01*
X67258970Y-80934469D01*
X67405876Y-80920000D01*
X67504124Y-80920000D01*
X67651030Y-80934469D01*
X67651030Y-80934469D01*
G37*
G36*
X102517500Y-79952500D02*
X102519902Y-79976886D01*
X102527015Y-80000335D01*
X102538566Y-80021946D01*
X102554112Y-80040888D01*
X102573054Y-80056434D01*
X102594665Y-80067985D01*
X102618114Y-80075098D01*
X102642500Y-80077500D01*
X103782500Y-80077500D01*
X103782500Y-82877500D01*
X101932500Y-82877500D01*
X101932500Y-80272500D01*
X101930098Y-80248114D01*
X101922985Y-80224665D01*
X101911434Y-80203054D01*
X101895888Y-80184112D01*
X101876946Y-80168566D01*
X101855335Y-80157015D01*
X101831886Y-80149902D01*
X101807500Y-80147500D01*
X101417500Y-80147500D01*
X101417500Y-78447500D01*
X102517500Y-78447500D01*
X102517500Y-79952500D01*
X102517500Y-79952500D01*
G37*
G36*
X100617500Y-80147500D02*
X99507500Y-80147500D01*
X99483114Y-80149902D01*
X99459665Y-80157015D01*
X99438054Y-80168566D01*
X99419112Y-80184112D01*
X99403566Y-80203054D01*
X99392015Y-80224665D01*
X99384902Y-80248114D01*
X99382500Y-80272500D01*
X99382500Y-82877500D01*
X97532500Y-82877500D01*
X97532500Y-80001242D01*
X97532985Y-80000335D01*
X97540098Y-79976886D01*
X97542500Y-79952500D01*
X97542500Y-78607500D01*
X99192500Y-78607500D01*
X99192500Y-79952500D01*
X99194902Y-79976886D01*
X99202015Y-80000335D01*
X99213566Y-80021946D01*
X99229112Y-80040888D01*
X99248054Y-80056434D01*
X99269665Y-80067985D01*
X99293114Y-80075098D01*
X99317500Y-80077500D01*
X99392500Y-80077500D01*
X99416886Y-80075098D01*
X99440335Y-80067985D01*
X99461946Y-80056434D01*
X99480888Y-80040888D01*
X99496434Y-80021946D01*
X99507985Y-80000335D01*
X99515098Y-79976886D01*
X99517500Y-79952500D01*
X99517500Y-78447500D01*
X100617500Y-78447500D01*
X100617500Y-80147500D01*
X100617500Y-80147500D01*
G37*
G36*
X76450000Y-82560000D02*
X71050000Y-82560000D01*
X71050000Y-80660000D01*
X76450000Y-80660000D01*
X76450000Y-82560000D01*
X76450000Y-82560000D01*
G37*
G36*
X86725000Y-81960000D02*
X80575000Y-81960000D01*
X80575000Y-80260000D01*
X86725000Y-80260000D01*
X86725000Y-81960000D01*
X86725000Y-81960000D01*
G37*
G36*
X111510021Y-79572086D02*
X111673809Y-79639929D01*
X111821220Y-79738426D01*
X111946574Y-79863780D01*
X112045071Y-80011191D01*
X112112914Y-80174979D01*
X112147500Y-80348856D01*
X112147500Y-80526144D01*
X112112914Y-80700021D01*
X112045071Y-80863809D01*
X111946574Y-81011220D01*
X111821220Y-81136574D01*
X111673809Y-81235071D01*
X111510021Y-81302914D01*
X111336144Y-81337500D01*
X111158856Y-81337500D01*
X110984979Y-81302914D01*
X110821191Y-81235071D01*
X110673780Y-81136574D01*
X110548426Y-81011220D01*
X110449929Y-80863809D01*
X110382086Y-80700021D01*
X110347500Y-80526144D01*
X110347500Y-80348856D01*
X110382086Y-80174979D01*
X110449929Y-80011191D01*
X110548426Y-79863780D01*
X110673780Y-79738426D01*
X110821191Y-79639929D01*
X110984979Y-79572086D01*
X111158856Y-79537500D01*
X111336144Y-79537500D01*
X111510021Y-79572086D01*
X111510021Y-79572086D01*
G37*
G36*
X106510021Y-79572086D02*
X106673809Y-79639929D01*
X106821220Y-79738426D01*
X106946574Y-79863780D01*
X107045071Y-80011191D01*
X107112914Y-80174979D01*
X107147500Y-80348856D01*
X107147500Y-80526144D01*
X107112914Y-80700021D01*
X107045071Y-80863809D01*
X106946574Y-81011220D01*
X106821220Y-81136574D01*
X106673809Y-81235071D01*
X106510021Y-81302914D01*
X106336144Y-81337500D01*
X106158856Y-81337500D01*
X105984979Y-81302914D01*
X105821191Y-81235071D01*
X105673780Y-81136574D01*
X105548426Y-81011220D01*
X105449929Y-80863809D01*
X105382086Y-80700021D01*
X105347500Y-80526144D01*
X105347500Y-80348856D01*
X105382086Y-80174979D01*
X105449929Y-80011191D01*
X105548426Y-79863780D01*
X105673780Y-79738426D01*
X105821191Y-79639929D01*
X105984979Y-79572086D01*
X106158856Y-79537500D01*
X106336144Y-79537500D01*
X106510021Y-79572086D01*
X106510021Y-79572086D01*
G37*
G36*
X88850000Y-79735000D02*
X88852402Y-79759386D01*
X88859515Y-79782835D01*
X88871066Y-79804446D01*
X88886612Y-79823388D01*
X88905554Y-79838934D01*
X88927165Y-79850485D01*
X88950614Y-79857598D01*
X88975000Y-79860000D01*
X89575000Y-79860000D01*
X89575000Y-81260000D01*
X87925000Y-81260000D01*
X87925000Y-79960000D01*
X87922598Y-79935614D01*
X87915485Y-79912165D01*
X87903934Y-79890554D01*
X87888388Y-79871612D01*
X87869446Y-79856066D01*
X87847835Y-79844515D01*
X87824386Y-79837402D01*
X87800000Y-79835000D01*
X87150000Y-79835000D01*
X87150000Y-73685000D01*
X88850000Y-73685000D01*
X88850000Y-79735000D01*
X88850000Y-79735000D01*
G37*
G36*
X94757500Y-78532221D02*
X94759902Y-78556607D01*
X94767015Y-78580056D01*
X94778566Y-78601667D01*
X94794112Y-78620609D01*
X94813054Y-78636155D01*
X94834665Y-78647706D01*
X94858114Y-78654819D01*
X94882500Y-78657221D01*
X94906886Y-78654819D01*
X94930335Y-78647706D01*
X94951946Y-78636155D01*
X94970888Y-78620609D01*
X95111910Y-78479587D01*
X95267506Y-78375621D01*
X95440395Y-78304008D01*
X95578049Y-78276627D01*
X95623932Y-78267500D01*
X95811068Y-78267500D01*
X95856951Y-78276627D01*
X95994605Y-78304008D01*
X96167494Y-78375621D01*
X96323090Y-78479587D01*
X96455413Y-78611910D01*
X96559379Y-78767506D01*
X96630992Y-78940395D01*
X96658373Y-79078048D01*
X96667500Y-79123932D01*
X96667500Y-79311068D01*
X96658373Y-79356952D01*
X96630992Y-79494605D01*
X96559379Y-79667494D01*
X96455413Y-79823090D01*
X96323090Y-79955413D01*
X96167494Y-80059379D01*
X95994605Y-80130992D01*
X95856951Y-80158373D01*
X95811068Y-80167500D01*
X95623932Y-80167500D01*
X95499386Y-80142726D01*
X95475000Y-80140324D01*
X95450614Y-80142726D01*
X95427165Y-80149839D01*
X95405554Y-80161390D01*
X95386612Y-80176936D01*
X95371066Y-80195878D01*
X95359515Y-80217488D01*
X95352402Y-80240938D01*
X95350000Y-80265324D01*
X95350000Y-81060000D01*
X93700000Y-81060000D01*
X93700000Y-79660000D01*
X94685442Y-79660000D01*
X94709828Y-79657598D01*
X94733277Y-79650485D01*
X94754888Y-79638934D01*
X94773830Y-79623388D01*
X94789376Y-79604446D01*
X94800927Y-79582835D01*
X94808040Y-79559386D01*
X94810442Y-79535000D01*
X94808040Y-79510614D01*
X94805579Y-79502502D01*
X94804008Y-79494602D01*
X94787072Y-79409461D01*
X94767500Y-79311068D01*
X94767500Y-79252500D01*
X94765098Y-79228114D01*
X94757985Y-79204665D01*
X94746434Y-79183054D01*
X94730888Y-79164112D01*
X94711946Y-79148566D01*
X94690335Y-79137015D01*
X94666886Y-79129902D01*
X94642500Y-79127500D01*
X93657500Y-79127500D01*
X93657500Y-77427500D01*
X94757500Y-77427500D01*
X94757500Y-78532221D01*
X94757500Y-78532221D01*
G37*
G36*
X92857500Y-79127500D02*
X91912500Y-79127500D01*
X91888114Y-79129902D01*
X91864665Y-79137015D01*
X91843054Y-79148566D01*
X91824112Y-79164112D01*
X91808566Y-79183054D01*
X91797015Y-79204665D01*
X91789902Y-79228114D01*
X91787500Y-79252500D01*
X91787500Y-79311068D01*
X91777714Y-79360265D01*
X91750992Y-79494605D01*
X91750991Y-79494608D01*
X91749423Y-79502490D01*
X91746962Y-79510601D01*
X91744558Y-79534987D01*
X91746957Y-79559373D01*
X91754068Y-79582823D01*
X91765617Y-79604435D01*
X91781160Y-79623379D01*
X91800101Y-79638926D01*
X91821710Y-79650480D01*
X91845159Y-79657596D01*
X91869558Y-79660000D01*
X93300000Y-79660000D01*
X93300000Y-81060000D01*
X91650000Y-81060000D01*
X91650000Y-80050279D01*
X91647598Y-80025893D01*
X91640485Y-80002444D01*
X91628934Y-79980833D01*
X91613388Y-79961891D01*
X91594446Y-79946345D01*
X91572835Y-79934794D01*
X91549386Y-79927681D01*
X91525000Y-79925279D01*
X91500614Y-79927681D01*
X91477165Y-79934794D01*
X91455554Y-79946345D01*
X91450707Y-79950323D01*
X91443092Y-79955411D01*
X91443090Y-79955413D01*
X91287494Y-80059379D01*
X91114605Y-80130992D01*
X90976951Y-80158373D01*
X90931068Y-80167500D01*
X90743932Y-80167500D01*
X90698049Y-80158373D01*
X90560395Y-80130992D01*
X90387506Y-80059379D01*
X90231910Y-79955413D01*
X90099587Y-79823090D01*
X89995621Y-79667494D01*
X89924008Y-79494605D01*
X89896627Y-79356952D01*
X89887500Y-79311068D01*
X89887500Y-79123932D01*
X89896627Y-79078048D01*
X89924008Y-78940395D01*
X89995621Y-78767506D01*
X90099587Y-78611910D01*
X90231910Y-78479587D01*
X90387506Y-78375621D01*
X90560395Y-78304008D01*
X90698049Y-78276627D01*
X90743932Y-78267500D01*
X90931068Y-78267500D01*
X90976951Y-78276627D01*
X91114605Y-78304008D01*
X91287494Y-78375621D01*
X91443090Y-78479587D01*
X91544112Y-78580609D01*
X91563054Y-78596155D01*
X91584665Y-78607706D01*
X91608114Y-78614819D01*
X91632500Y-78617221D01*
X91656886Y-78614819D01*
X91680335Y-78607706D01*
X91701946Y-78596155D01*
X91720888Y-78580609D01*
X91736434Y-78561667D01*
X91747985Y-78540056D01*
X91755098Y-78516607D01*
X91757500Y-78492221D01*
X91757500Y-77427500D01*
X92857500Y-77427500D01*
X92857500Y-79127500D01*
X92857500Y-79127500D01*
G37*
G36*
X80150000Y-79835000D02*
X78450000Y-79835000D01*
X78450000Y-73685000D01*
X80150000Y-73685000D01*
X80150000Y-79835000D01*
X80150000Y-79835000D01*
G37*
G36*
X112804526Y-75568352D02*
X112945900Y-75611238D01*
X113076190Y-75680878D01*
X113190399Y-75774607D01*
X113284120Y-75888806D01*
X113353762Y-76019099D01*
X113396648Y-76160473D01*
X113407500Y-76270661D01*
X113407500Y-77444339D01*
X113396648Y-77554527D01*
X113353762Y-77695901D01*
X113284120Y-77826194D01*
X113190396Y-77940396D01*
X113076194Y-78034120D01*
X112945901Y-78103762D01*
X112804527Y-78146648D01*
X112657500Y-78161128D01*
X112510474Y-78146648D01*
X112369100Y-78103762D01*
X112238807Y-78034120D01*
X112124605Y-77940396D01*
X112030881Y-77826194D01*
X111961239Y-77695901D01*
X111918353Y-77554527D01*
X111907501Y-77444339D01*
X111907500Y-76270662D01*
X111918352Y-76160474D01*
X111961238Y-76019100D01*
X112030878Y-75888810D01*
X112124607Y-75774601D01*
X112238806Y-75680880D01*
X112369099Y-75611238D01*
X112510473Y-75568352D01*
X112657500Y-75553872D01*
X112804526Y-75568352D01*
X112804526Y-75568352D01*
G37*
G36*
X103407500Y-78157500D02*
X101907500Y-78157500D01*
X101907500Y-75557500D01*
X103407500Y-75557500D01*
X103407500Y-78157500D01*
X103407500Y-78157500D01*
G37*
G36*
X99417500Y-74077500D02*
X98342500Y-74077500D01*
X98318114Y-74079902D01*
X98294665Y-74087015D01*
X98273054Y-74098566D01*
X98254112Y-74114112D01*
X98238566Y-74133054D01*
X98227015Y-74154665D01*
X98219902Y-74178114D01*
X98217500Y-74202500D01*
X98217500Y-74762500D01*
X98219902Y-74786886D01*
X98227015Y-74810335D01*
X98238566Y-74831946D01*
X98254112Y-74850888D01*
X98273054Y-74866434D01*
X98294665Y-74877985D01*
X98318114Y-74885098D01*
X98342500Y-74887500D01*
X99417500Y-74887500D01*
X99417500Y-76587500D01*
X99317500Y-76587500D01*
X99293114Y-76589902D01*
X99269665Y-76597015D01*
X99248054Y-76608566D01*
X99229112Y-76624112D01*
X99213566Y-76643054D01*
X99202015Y-76664665D01*
X99194902Y-76688114D01*
X99192500Y-76712500D01*
X99192500Y-78007500D01*
X97542500Y-78007500D01*
X97542500Y-76712500D01*
X97540098Y-76688114D01*
X97532985Y-76664665D01*
X97521434Y-76643054D01*
X97505888Y-76624112D01*
X97486946Y-76608566D01*
X97465335Y-76597015D01*
X97441886Y-76589902D01*
X97417500Y-76587500D01*
X97107500Y-76587500D01*
X97107500Y-74811242D01*
X97107985Y-74810335D01*
X97115098Y-74786886D01*
X97117500Y-74762500D01*
X97117500Y-73007500D01*
X98192500Y-73007500D01*
X98216886Y-73005098D01*
X98240335Y-72997985D01*
X98261946Y-72986434D01*
X98280888Y-72970888D01*
X98296434Y-72951946D01*
X98307985Y-72930335D01*
X98315098Y-72906886D01*
X98317500Y-72882500D01*
X98317500Y-72377500D01*
X99417500Y-72377500D01*
X99417500Y-74077500D01*
X99417500Y-74077500D01*
G37*
G36*
X27477500Y-77807500D02*
X25577500Y-77807500D01*
X25577500Y-76007500D01*
X27477500Y-76007500D01*
X27477500Y-77807500D01*
X27477500Y-77807500D01*
G37*
G36*
X31547500Y-77777500D02*
X29647500Y-77777500D01*
X29647500Y-75977500D01*
X31547500Y-75977500D01*
X31547500Y-77777500D01*
X31547500Y-77777500D01*
G37*
G36*
X76450000Y-76660000D02*
X71050000Y-76660000D01*
X71050000Y-74760000D01*
X76450000Y-74760000D01*
X76450000Y-76660000D01*
X76450000Y-76660000D01*
G37*
G36*
X93217500Y-76607500D02*
X92117500Y-76607500D01*
X92117500Y-75473276D01*
X92115098Y-75448890D01*
X92107985Y-75425441D01*
X92096434Y-75403830D01*
X92080888Y-75384888D01*
X92061946Y-75369342D01*
X92040335Y-75357791D01*
X92016886Y-75350678D01*
X91992500Y-75348276D01*
X91968114Y-75350678D01*
X91944665Y-75357791D01*
X91923054Y-75369342D01*
X91904112Y-75384888D01*
X91888566Y-75403830D01*
X91877015Y-75425441D01*
X91870332Y-75441575D01*
X91865444Y-75448890D01*
X91793726Y-75556224D01*
X91696224Y-75653726D01*
X91581574Y-75730332D01*
X91454183Y-75783100D01*
X91318945Y-75810000D01*
X91181055Y-75810000D01*
X91045817Y-75783100D01*
X90918426Y-75730332D01*
X90803776Y-75653726D01*
X90706274Y-75556224D01*
X90629668Y-75441574D01*
X90576900Y-75314183D01*
X90550000Y-75178945D01*
X90550000Y-75041055D01*
X90576900Y-74905817D01*
X90629668Y-74778426D01*
X90641980Y-74760000D01*
X90706274Y-74663776D01*
X90803776Y-74566274D01*
X90918426Y-74489668D01*
X90923201Y-74487690D01*
X91045817Y-74436900D01*
X91181055Y-74410000D01*
X91318945Y-74410000D01*
X91454183Y-74436900D01*
X91581574Y-74489668D01*
X91696225Y-74566275D01*
X91793725Y-74663775D01*
X91870332Y-74778425D01*
X91877015Y-74794559D01*
X91888566Y-74816170D01*
X91904111Y-74835112D01*
X91923053Y-74850657D01*
X91944664Y-74862209D01*
X91968113Y-74869322D01*
X91992499Y-74871724D01*
X92016886Y-74869322D01*
X92040335Y-74862209D01*
X92061946Y-74850658D01*
X92080888Y-74835113D01*
X92096433Y-74816171D01*
X92107985Y-74794560D01*
X92115098Y-74771111D01*
X92117500Y-74746724D01*
X92117500Y-73573276D01*
X92115098Y-73548890D01*
X92107985Y-73525441D01*
X92096434Y-73503830D01*
X92080888Y-73484888D01*
X92061946Y-73469342D01*
X92040335Y-73457791D01*
X92016886Y-73450678D01*
X91992500Y-73448276D01*
X91968114Y-73450678D01*
X91944665Y-73457791D01*
X91923054Y-73469342D01*
X91904112Y-73484888D01*
X91888566Y-73503830D01*
X91877015Y-73525441D01*
X91870332Y-73541575D01*
X91793725Y-73656225D01*
X91696225Y-73753725D01*
X91581574Y-73830332D01*
X91454183Y-73883100D01*
X91318945Y-73910000D01*
X91181055Y-73910000D01*
X91045817Y-73883100D01*
X90918426Y-73830332D01*
X90803775Y-73753725D01*
X90706275Y-73656225D01*
X90650851Y-73573276D01*
X90629668Y-73541574D01*
X90576900Y-73414183D01*
X90550000Y-73278945D01*
X90550000Y-73141058D01*
X90550929Y-73136388D01*
X90553331Y-73112002D01*
X90550929Y-73087615D01*
X90543817Y-73064166D01*
X90532266Y-73042555D01*
X90516720Y-73023613D01*
X90497779Y-73008067D01*
X90476168Y-72996516D01*
X90452719Y-72989402D01*
X90428331Y-72987000D01*
X89004000Y-72987000D01*
X89004000Y-71337000D01*
X90404000Y-71337000D01*
X90404000Y-72804091D01*
X90406402Y-72828477D01*
X90413515Y-72851926D01*
X90425066Y-72873537D01*
X90440612Y-72892479D01*
X90459554Y-72908025D01*
X90481165Y-72919576D01*
X90504614Y-72926689D01*
X90529000Y-72929091D01*
X90553386Y-72926689D01*
X90576835Y-72919576D01*
X90598446Y-72908025D01*
X90617388Y-72892479D01*
X90632933Y-72873538D01*
X90706275Y-72763775D01*
X90803775Y-72666275D01*
X90816908Y-72657500D01*
X90918426Y-72589668D01*
X91045817Y-72536900D01*
X91181055Y-72510000D01*
X91318945Y-72510000D01*
X91454183Y-72536900D01*
X91581574Y-72589668D01*
X91683093Y-72657500D01*
X91696225Y-72666275D01*
X91793725Y-72763775D01*
X91870332Y-72878425D01*
X91877015Y-72894559D01*
X91888566Y-72916170D01*
X91904111Y-72935112D01*
X91923053Y-72950657D01*
X91944664Y-72962209D01*
X91968113Y-72969322D01*
X91992499Y-72971724D01*
X92016886Y-72969322D01*
X92040335Y-72962209D01*
X92061946Y-72950658D01*
X92080888Y-72935113D01*
X92096433Y-72916171D01*
X92107985Y-72894560D01*
X92115098Y-72871111D01*
X92117500Y-72846724D01*
X92117500Y-71107500D01*
X93217500Y-71107500D01*
X93217500Y-76607500D01*
X93217500Y-76607500D01*
G37*
G36*
X95117500Y-72882500D02*
X95119902Y-72906886D01*
X95127015Y-72930335D01*
X95138566Y-72951946D01*
X95154112Y-72970888D01*
X95173054Y-72986434D01*
X95194665Y-72997985D01*
X95218114Y-73005098D01*
X95242500Y-73007500D01*
X96317500Y-73007500D01*
X96317500Y-74783758D01*
X96317015Y-74784665D01*
X96309902Y-74808114D01*
X96307500Y-74832500D01*
X96307500Y-76587500D01*
X95242500Y-76587500D01*
X95218114Y-76589902D01*
X95194665Y-76597015D01*
X95175048Y-76607500D01*
X94017500Y-76607500D01*
X94017500Y-71107500D01*
X95117500Y-71107500D01*
X95117500Y-72882500D01*
X95117500Y-72882500D01*
G37*
G36*
X101317500Y-76587500D02*
X100217500Y-76587500D01*
X100217500Y-74887500D01*
X101317500Y-74887500D01*
X101317500Y-76587500D01*
X101317500Y-76587500D01*
G37*
G36*
X44500000Y-52482500D02*
X44502402Y-52506886D01*
X44509515Y-52530335D01*
X44521066Y-52551946D01*
X44536612Y-52570888D01*
X44555554Y-52586434D01*
X44577165Y-52597985D01*
X44600614Y-52605098D01*
X44625000Y-52607500D01*
X44817500Y-52607500D01*
X44817500Y-55217500D01*
X44625000Y-55217500D01*
X44600614Y-55219902D01*
X44577165Y-55227015D01*
X44555554Y-55238566D01*
X44536612Y-55254112D01*
X44521066Y-55273054D01*
X44509515Y-55294665D01*
X44502402Y-55318114D01*
X44500000Y-55342500D01*
X44500000Y-68372500D01*
X44502402Y-68396886D01*
X44509515Y-68420335D01*
X44521066Y-68441946D01*
X44536612Y-68460888D01*
X44555554Y-68476434D01*
X44577165Y-68487985D01*
X44600614Y-68495098D01*
X44625000Y-68497500D01*
X44817500Y-68497500D01*
X44817500Y-71107500D01*
X44625000Y-71107500D01*
X44600614Y-71109902D01*
X44577165Y-71117015D01*
X44555554Y-71128566D01*
X44536612Y-71144112D01*
X44521066Y-71163054D01*
X44509515Y-71184665D01*
X44502402Y-71208114D01*
X44500000Y-71232500D01*
X44500000Y-74500000D01*
X17000000Y-74500000D01*
X17000000Y-49000000D01*
X44500000Y-49000000D01*
X44500000Y-52482500D01*
X44500000Y-52482500D01*
G37*
G36*
X101317500Y-74077500D02*
X100217500Y-74077500D01*
X100217500Y-72377500D01*
X101317500Y-72377500D01*
X101317500Y-74077500D01*
X101317500Y-74077500D01*
G37*
G36*
X75980000Y-73860000D02*
X72430000Y-73860000D01*
X72430000Y-72460000D01*
X75980000Y-72460000D01*
X75980000Y-73860000D01*
X75980000Y-73860000D01*
G37*
G36*
X112892500Y-73857500D02*
X111592500Y-73857500D01*
X111592500Y-72657500D01*
X112892500Y-72657500D01*
X112892500Y-73857500D01*
X112892500Y-73857500D01*
G37*
G36*
X86725000Y-73260000D02*
X80575000Y-73260000D01*
X80575000Y-71560000D01*
X86725000Y-71560000D01*
X86725000Y-73260000D01*
X86725000Y-73260000D01*
G37*
G36*
X78250000Y-73185000D02*
X76850000Y-73185000D01*
X76850000Y-71535000D01*
X78250000Y-71535000D01*
X78250000Y-73185000D01*
X78250000Y-73185000D01*
G37*
G36*
X80250000Y-73185000D02*
X78850000Y-73185000D01*
X78850000Y-71535000D01*
X80250000Y-71535000D01*
X80250000Y-73185000D01*
X80250000Y-73185000D01*
G37*
G36*
X88404000Y-72987000D02*
X87004000Y-72987000D01*
X87004000Y-71337000D01*
X88404000Y-71337000D01*
X88404000Y-72987000D01*
X88404000Y-72987000D01*
G37*
G36*
X110892500Y-72907500D02*
X109592500Y-72907500D01*
X109592500Y-71707500D01*
X110892500Y-71707500D01*
X110892500Y-72907500D01*
X110892500Y-72907500D01*
G37*
G36*
X67630770Y-70775372D02*
X67746689Y-70798429D01*
X67928678Y-70873811D01*
X68092463Y-70983249D01*
X68231751Y-71122537D01*
X68301074Y-71226285D01*
X68316612Y-71245219D01*
X68335554Y-71260764D01*
X68357165Y-71272315D01*
X68380614Y-71279428D01*
X68405000Y-71281830D01*
X68429387Y-71279428D01*
X68452836Y-71272315D01*
X68474446Y-71260764D01*
X68493389Y-71245218D01*
X68508926Y-71226285D01*
X68578249Y-71122537D01*
X68717537Y-70983249D01*
X68881322Y-70873811D01*
X69063311Y-70798429D01*
X69179230Y-70775372D01*
X69256507Y-70760000D01*
X69453493Y-70760000D01*
X69530770Y-70775372D01*
X69646689Y-70798429D01*
X69828678Y-70873811D01*
X69992463Y-70983249D01*
X70131751Y-71122537D01*
X70241189Y-71286322D01*
X70316571Y-71468311D01*
X70355000Y-71661509D01*
X70355000Y-71858491D01*
X70316571Y-72051689D01*
X70241189Y-72233678D01*
X70131751Y-72397463D01*
X69992463Y-72536751D01*
X69828678Y-72646189D01*
X69646689Y-72721571D01*
X69530770Y-72744628D01*
X69453493Y-72760000D01*
X69256507Y-72760000D01*
X69179230Y-72744628D01*
X69063311Y-72721571D01*
X68881322Y-72646189D01*
X68717537Y-72536751D01*
X68578249Y-72397463D01*
X68508926Y-72293715D01*
X68493388Y-72274781D01*
X68474446Y-72259236D01*
X68452835Y-72247685D01*
X68429386Y-72240572D01*
X68405000Y-72238170D01*
X68380613Y-72240572D01*
X68357164Y-72247685D01*
X68335554Y-72259236D01*
X68316611Y-72274782D01*
X68301074Y-72293715D01*
X68231751Y-72397463D01*
X68092463Y-72536751D01*
X67928678Y-72646189D01*
X67746689Y-72721571D01*
X67630770Y-72744628D01*
X67553493Y-72760000D01*
X67356507Y-72760000D01*
X67279230Y-72744628D01*
X67163311Y-72721571D01*
X66981322Y-72646189D01*
X66817537Y-72536751D01*
X66678249Y-72397463D01*
X66622592Y-72314166D01*
X66607058Y-72295238D01*
X66588116Y-72279693D01*
X66566505Y-72268141D01*
X66543056Y-72261028D01*
X66518669Y-72258626D01*
X66494283Y-72261028D01*
X66470834Y-72268141D01*
X66449223Y-72279692D01*
X66430281Y-72295237D01*
X66408429Y-72324701D01*
X66390492Y-72358259D01*
X66265528Y-72510528D01*
X66113260Y-72635491D01*
X66072084Y-72657500D01*
X65939535Y-72728349D01*
X65751034Y-72785530D01*
X65751033Y-72785530D01*
X65751030Y-72785531D01*
X65604124Y-72800000D01*
X65505876Y-72800000D01*
X65358970Y-72785531D01*
X65358967Y-72785530D01*
X65358966Y-72785530D01*
X65170465Y-72728349D01*
X65037916Y-72657500D01*
X64996740Y-72635491D01*
X64844472Y-72510528D01*
X64719507Y-72358257D01*
X64715239Y-72350273D01*
X64701625Y-72329899D01*
X64684298Y-72312572D01*
X64663923Y-72298958D01*
X64641284Y-72289581D01*
X64617251Y-72284801D01*
X64592746Y-72284801D01*
X64568713Y-72289582D01*
X64546074Y-72298960D01*
X64525700Y-72312574D01*
X64508373Y-72329901D01*
X64494761Y-72350273D01*
X64490493Y-72358257D01*
X64365528Y-72510528D01*
X64213260Y-72635491D01*
X64172084Y-72657500D01*
X64039535Y-72728349D01*
X63851034Y-72785530D01*
X63851033Y-72785530D01*
X63851030Y-72785531D01*
X63704124Y-72800000D01*
X63605876Y-72800000D01*
X63458970Y-72785531D01*
X63458967Y-72785530D01*
X63458966Y-72785530D01*
X63270465Y-72728349D01*
X63137916Y-72657500D01*
X63096740Y-72635491D01*
X62944472Y-72510528D01*
X62819507Y-72358257D01*
X62815239Y-72350273D01*
X62801625Y-72329899D01*
X62784298Y-72312572D01*
X62763923Y-72298958D01*
X62741284Y-72289581D01*
X62717251Y-72284801D01*
X62692746Y-72284801D01*
X62668713Y-72289582D01*
X62646074Y-72298960D01*
X62625700Y-72312574D01*
X62608373Y-72329901D01*
X62594761Y-72350273D01*
X62590493Y-72358257D01*
X62465528Y-72510528D01*
X62313260Y-72635491D01*
X62272084Y-72657500D01*
X62139535Y-72728349D01*
X61951034Y-72785530D01*
X61951033Y-72785530D01*
X61951030Y-72785531D01*
X61804124Y-72800000D01*
X61705876Y-72800000D01*
X61558970Y-72785531D01*
X61558967Y-72785530D01*
X61558966Y-72785530D01*
X61370465Y-72728349D01*
X61237916Y-72657500D01*
X61196740Y-72635491D01*
X61044472Y-72510528D01*
X60919507Y-72358257D01*
X60915239Y-72350273D01*
X60901625Y-72329899D01*
X60884298Y-72312572D01*
X60863923Y-72298958D01*
X60841284Y-72289581D01*
X60817251Y-72284801D01*
X60792746Y-72284801D01*
X60768713Y-72289582D01*
X60746074Y-72298960D01*
X60725700Y-72312574D01*
X60708373Y-72329901D01*
X60694761Y-72350273D01*
X60690493Y-72358257D01*
X60565528Y-72510528D01*
X60413260Y-72635491D01*
X60372084Y-72657500D01*
X60239535Y-72728349D01*
X60051034Y-72785530D01*
X60051033Y-72785530D01*
X60051030Y-72785531D01*
X59904124Y-72800000D01*
X59805876Y-72800000D01*
X59658970Y-72785531D01*
X59658967Y-72785530D01*
X59658966Y-72785530D01*
X59470465Y-72728349D01*
X59337916Y-72657500D01*
X59296740Y-72635491D01*
X59144472Y-72510528D01*
X59019509Y-72358260D01*
X58926652Y-72184537D01*
X58869469Y-71996030D01*
X58850162Y-71800000D01*
X58869469Y-71603970D01*
X58890391Y-71535000D01*
X58926651Y-71415465D01*
X58987811Y-71301042D01*
X59019509Y-71241740D01*
X59144472Y-71089472D01*
X59296740Y-70964509D01*
X59470463Y-70871652D01*
X59470465Y-70871651D01*
X59658966Y-70814470D01*
X59658967Y-70814470D01*
X59658970Y-70814469D01*
X59805876Y-70800000D01*
X59904124Y-70800000D01*
X60051030Y-70814469D01*
X60051033Y-70814470D01*
X60051034Y-70814470D01*
X60239535Y-70871651D01*
X60239537Y-70871652D01*
X60413260Y-70964509D01*
X60565528Y-71089472D01*
X60690493Y-71241743D01*
X60694761Y-71249727D01*
X60708375Y-71270101D01*
X60725702Y-71287428D01*
X60746077Y-71301042D01*
X60768716Y-71310419D01*
X60792749Y-71315199D01*
X60817254Y-71315199D01*
X60841287Y-71310418D01*
X60863926Y-71301040D01*
X60884300Y-71287426D01*
X60901627Y-71270099D01*
X60915239Y-71249727D01*
X60919507Y-71241743D01*
X61044472Y-71089472D01*
X61196740Y-70964509D01*
X61370463Y-70871652D01*
X61370465Y-70871651D01*
X61558966Y-70814470D01*
X61558967Y-70814470D01*
X61558970Y-70814469D01*
X61705876Y-70800000D01*
X61804124Y-70800000D01*
X61951030Y-70814469D01*
X61951033Y-70814470D01*
X61951034Y-70814470D01*
X62139535Y-70871651D01*
X62139537Y-70871652D01*
X62313260Y-70964509D01*
X62465528Y-71089472D01*
X62590493Y-71241743D01*
X62594761Y-71249727D01*
X62608375Y-71270101D01*
X62625702Y-71287428D01*
X62646077Y-71301042D01*
X62668716Y-71310419D01*
X62692749Y-71315199D01*
X62717254Y-71315199D01*
X62741287Y-71310418D01*
X62763926Y-71301040D01*
X62784300Y-71287426D01*
X62801627Y-71270099D01*
X62815239Y-71249727D01*
X62819507Y-71241743D01*
X62944472Y-71089472D01*
X63096740Y-70964509D01*
X63270463Y-70871652D01*
X63270465Y-70871651D01*
X63458966Y-70814470D01*
X63458967Y-70814470D01*
X63458970Y-70814469D01*
X63605876Y-70800000D01*
X63704124Y-70800000D01*
X63851030Y-70814469D01*
X63851033Y-70814470D01*
X63851034Y-70814470D01*
X64039535Y-70871651D01*
X64039537Y-70871652D01*
X64213260Y-70964509D01*
X64365528Y-71089472D01*
X64490493Y-71241743D01*
X64494761Y-71249727D01*
X64508375Y-71270101D01*
X64525702Y-71287428D01*
X64546077Y-71301042D01*
X64568716Y-71310419D01*
X64592749Y-71315199D01*
X64617254Y-71315199D01*
X64641287Y-71310418D01*
X64663926Y-71301040D01*
X64684300Y-71287426D01*
X64701627Y-71270099D01*
X64715239Y-71249727D01*
X64719507Y-71241743D01*
X64844472Y-71089472D01*
X64996740Y-70964509D01*
X65170463Y-70871652D01*
X65170465Y-70871651D01*
X65358966Y-70814470D01*
X65358967Y-70814470D01*
X65358970Y-70814469D01*
X65505876Y-70800000D01*
X65604124Y-70800000D01*
X65751030Y-70814469D01*
X65751033Y-70814470D01*
X65751034Y-70814470D01*
X65939535Y-70871651D01*
X65939537Y-70871652D01*
X66113260Y-70964509D01*
X66265528Y-71089472D01*
X66398282Y-71251233D01*
X66415609Y-71268560D01*
X66435983Y-71282174D01*
X66458622Y-71291552D01*
X66482656Y-71296332D01*
X66507160Y-71296332D01*
X66531193Y-71291552D01*
X66553833Y-71282174D01*
X66574207Y-71268560D01*
X66598836Y-71241387D01*
X66678249Y-71122537D01*
X66817537Y-70983249D01*
X66981322Y-70873811D01*
X67163311Y-70798429D01*
X67279230Y-70775372D01*
X67356507Y-70760000D01*
X67553493Y-70760000D01*
X67630770Y-70775372D01*
X67630770Y-70775372D01*
G37*
G36*
X112892500Y-71957500D02*
X111592500Y-71957500D01*
X111592500Y-70806281D01*
X111590098Y-70781895D01*
X111582985Y-70758446D01*
X111582479Y-70757500D01*
X112892500Y-70757500D01*
X112892500Y-71957500D01*
X112892500Y-71957500D01*
G37*
G36*
X75980000Y-71860000D02*
X72430000Y-71860000D01*
X72430000Y-70460000D01*
X75980000Y-70460000D01*
X75980000Y-71860000D01*
X75980000Y-71860000D01*
G37*
G36*
X110730857Y-69126272D02*
X110931042Y-69209191D01*
X110931045Y-69209193D01*
X111093735Y-69317899D01*
X111111213Y-69329578D01*
X111264422Y-69482787D01*
X111264424Y-69482790D01*
X111264425Y-69482791D01*
X111297373Y-69532101D01*
X111384809Y-69662958D01*
X111467728Y-69863143D01*
X111510000Y-70075658D01*
X111510000Y-70292342D01*
X111467728Y-70504858D01*
X111434671Y-70584665D01*
X111427558Y-70608114D01*
X111425156Y-70632500D01*
X111427558Y-70656887D01*
X111434671Y-70680336D01*
X111437388Y-70685420D01*
X111419665Y-70690796D01*
X111398054Y-70702347D01*
X111379112Y-70717893D01*
X111363567Y-70736833D01*
X111273484Y-70871652D01*
X111264422Y-70885213D01*
X111111213Y-71038422D01*
X110931042Y-71158809D01*
X110730857Y-71241728D01*
X110518342Y-71284000D01*
X110301658Y-71284000D01*
X110089143Y-71241728D01*
X109888958Y-71158809D01*
X109708787Y-71038422D01*
X109555578Y-70885213D01*
X109546517Y-70871652D01*
X109435193Y-70705045D01*
X109435191Y-70705042D01*
X109352272Y-70504857D01*
X109310000Y-70292342D01*
X109310000Y-70075658D01*
X109352272Y-69863143D01*
X109435191Y-69662958D01*
X109522627Y-69532101D01*
X109555575Y-69482791D01*
X109555576Y-69482790D01*
X109555578Y-69482787D01*
X109708787Y-69329578D01*
X109726266Y-69317899D01*
X109888955Y-69209193D01*
X109888958Y-69209191D01*
X110089143Y-69126272D01*
X110301658Y-69084000D01*
X110518342Y-69084000D01*
X110730857Y-69126272D01*
X110730857Y-69126272D01*
G37*
G36*
X105650857Y-69126272D02*
X105851042Y-69209191D01*
X105851045Y-69209193D01*
X106013735Y-69317899D01*
X106031213Y-69329578D01*
X106184422Y-69482787D01*
X106184424Y-69482790D01*
X106184425Y-69482791D01*
X106217373Y-69532101D01*
X106304809Y-69662958D01*
X106387728Y-69863143D01*
X106430000Y-70075658D01*
X106430000Y-70292342D01*
X106387728Y-70504857D01*
X106304809Y-70705042D01*
X106304807Y-70705045D01*
X106193484Y-70871652D01*
X106184422Y-70885213D01*
X106031213Y-71038422D01*
X105851042Y-71158809D01*
X105650857Y-71241728D01*
X105438342Y-71284000D01*
X105221658Y-71284000D01*
X105009143Y-71241728D01*
X104808958Y-71158809D01*
X104628787Y-71038422D01*
X104475578Y-70885213D01*
X104466517Y-70871652D01*
X104355193Y-70705045D01*
X104355191Y-70705042D01*
X104272272Y-70504857D01*
X104230000Y-70292342D01*
X104230000Y-70075658D01*
X104272272Y-69863143D01*
X104355191Y-69662958D01*
X104442627Y-69532101D01*
X104475575Y-69482791D01*
X104475576Y-69482790D01*
X104475578Y-69482787D01*
X104628787Y-69329578D01*
X104646266Y-69317899D01*
X104808955Y-69209193D01*
X104808958Y-69209191D01*
X105009143Y-69126272D01*
X105221658Y-69084000D01*
X105438342Y-69084000D01*
X105650857Y-69126272D01*
X105650857Y-69126272D01*
G37*
G36*
X108190857Y-69126272D02*
X108391042Y-69209191D01*
X108391045Y-69209193D01*
X108553735Y-69317899D01*
X108571213Y-69329578D01*
X108724422Y-69482787D01*
X108724424Y-69482790D01*
X108724425Y-69482791D01*
X108757373Y-69532101D01*
X108844809Y-69662958D01*
X108927728Y-69863143D01*
X108970000Y-70075658D01*
X108970000Y-70292342D01*
X108927728Y-70504857D01*
X108844809Y-70705042D01*
X108844807Y-70705045D01*
X108733484Y-70871652D01*
X108724422Y-70885213D01*
X108571213Y-71038422D01*
X108391042Y-71158809D01*
X108190857Y-71241728D01*
X107978342Y-71284000D01*
X107761658Y-71284000D01*
X107549143Y-71241728D01*
X107348958Y-71158809D01*
X107168787Y-71038422D01*
X107015578Y-70885213D01*
X107006517Y-70871652D01*
X106895193Y-70705045D01*
X106895191Y-70705042D01*
X106812272Y-70504857D01*
X106770000Y-70292342D01*
X106770000Y-70075658D01*
X106812272Y-69863143D01*
X106895191Y-69662958D01*
X106982627Y-69532101D01*
X107015575Y-69482791D01*
X107015576Y-69482790D01*
X107015578Y-69482787D01*
X107168787Y-69329578D01*
X107186266Y-69317899D01*
X107348955Y-69209193D01*
X107348958Y-69209191D01*
X107549143Y-69126272D01*
X107761658Y-69084000D01*
X107978342Y-69084000D01*
X108190857Y-69126272D01*
X108190857Y-69126272D01*
G37*
G36*
X53425857Y-67473272D02*
X53626042Y-67556191D01*
X53806213Y-67676578D01*
X53959422Y-67829787D01*
X53959424Y-67829790D01*
X53959425Y-67829791D01*
X54044758Y-67957500D01*
X54079809Y-68009958D01*
X54162728Y-68210143D01*
X54205000Y-68422658D01*
X54205000Y-68639342D01*
X54162728Y-68851857D01*
X54079809Y-69052042D01*
X54079807Y-69052045D01*
X53985348Y-69193413D01*
X53959422Y-69232213D01*
X53806213Y-69385422D01*
X53626042Y-69505809D01*
X53425857Y-69588728D01*
X53213342Y-69631000D01*
X52996658Y-69631000D01*
X52784143Y-69588728D01*
X52583958Y-69505809D01*
X52403787Y-69385422D01*
X52250578Y-69232213D01*
X52224653Y-69193413D01*
X52130193Y-69052045D01*
X52130191Y-69052042D01*
X52047272Y-68851857D01*
X52005000Y-68639342D01*
X52005000Y-68422658D01*
X52047272Y-68210143D01*
X52130191Y-68009958D01*
X52165242Y-67957500D01*
X52250575Y-67829791D01*
X52250576Y-67829790D01*
X52250578Y-67829787D01*
X52403787Y-67676578D01*
X52583958Y-67556191D01*
X52784143Y-67473272D01*
X52996658Y-67431000D01*
X53213342Y-67431000D01*
X53425857Y-67473272D01*
X53425857Y-67473272D01*
G37*
G36*
X48345857Y-67473272D02*
X48546042Y-67556191D01*
X48726213Y-67676578D01*
X48879422Y-67829787D01*
X48879424Y-67829790D01*
X48879425Y-67829791D01*
X48964758Y-67957500D01*
X48999809Y-68009958D01*
X49082728Y-68210143D01*
X49125000Y-68422658D01*
X49125000Y-68639342D01*
X49082728Y-68851857D01*
X48999809Y-69052042D01*
X48999807Y-69052045D01*
X48905348Y-69193413D01*
X48879422Y-69232213D01*
X48726213Y-69385422D01*
X48546042Y-69505809D01*
X48345857Y-69588728D01*
X48133342Y-69631000D01*
X47916658Y-69631000D01*
X47704143Y-69588728D01*
X47503958Y-69505809D01*
X47323787Y-69385422D01*
X47170578Y-69232213D01*
X47144653Y-69193413D01*
X47050193Y-69052045D01*
X47050191Y-69052042D01*
X46967272Y-68851857D01*
X46925000Y-68639342D01*
X46925000Y-68422658D01*
X46967272Y-68210142D01*
X47000329Y-68130335D01*
X47007442Y-68106886D01*
X47009844Y-68082500D01*
X47007442Y-68058113D01*
X47000329Y-68034664D01*
X46997612Y-68029580D01*
X47015335Y-68024204D01*
X47036946Y-68012653D01*
X47055888Y-67997107D01*
X47071434Y-67978166D01*
X47170575Y-67829791D01*
X47170576Y-67829790D01*
X47170578Y-67829787D01*
X47323787Y-67676578D01*
X47503958Y-67556191D01*
X47704143Y-67473272D01*
X47916658Y-67431000D01*
X48133342Y-67431000D01*
X48345857Y-67473272D01*
X48345857Y-67473272D01*
G37*
G36*
X50885857Y-67473272D02*
X51086042Y-67556191D01*
X51266213Y-67676578D01*
X51419422Y-67829787D01*
X51419424Y-67829790D01*
X51419425Y-67829791D01*
X51504758Y-67957500D01*
X51539809Y-68009958D01*
X51622728Y-68210143D01*
X51665000Y-68422658D01*
X51665000Y-68639342D01*
X51622728Y-68851857D01*
X51539809Y-69052042D01*
X51539807Y-69052045D01*
X51445348Y-69193413D01*
X51419422Y-69232213D01*
X51266213Y-69385422D01*
X51086042Y-69505809D01*
X50885857Y-69588728D01*
X50673342Y-69631000D01*
X50456658Y-69631000D01*
X50244143Y-69588728D01*
X50043958Y-69505809D01*
X49863787Y-69385422D01*
X49710578Y-69232213D01*
X49684653Y-69193413D01*
X49590193Y-69052045D01*
X49590191Y-69052042D01*
X49507272Y-68851857D01*
X49465000Y-68639342D01*
X49465000Y-68422658D01*
X49507272Y-68210143D01*
X49590191Y-68009958D01*
X49625242Y-67957500D01*
X49710575Y-67829791D01*
X49710576Y-67829790D01*
X49710578Y-67829787D01*
X49863787Y-67676578D01*
X50043958Y-67556191D01*
X50244143Y-67473272D01*
X50456658Y-67431000D01*
X50673342Y-67431000D01*
X50885857Y-67473272D01*
X50885857Y-67473272D01*
G37*
G36*
X86005000Y-68255000D02*
X82455000Y-68255000D01*
X82455000Y-66855000D01*
X86005000Y-66855000D01*
X86005000Y-68255000D01*
X86005000Y-68255000D01*
G37*
G36*
X46842500Y-67908719D02*
X46844902Y-67933105D01*
X46852015Y-67956554D01*
X46852521Y-67957500D01*
X45542500Y-67957500D01*
X45542500Y-66757500D01*
X46842500Y-66757500D01*
X46842500Y-67908719D01*
X46842500Y-67908719D01*
G37*
G36*
X93076030Y-65929469D02*
X93076033Y-65929470D01*
X93076034Y-65929470D01*
X93264535Y-65986651D01*
X93264537Y-65986652D01*
X93438260Y-66079509D01*
X93590528Y-66204472D01*
X93715493Y-66356743D01*
X93719761Y-66364727D01*
X93733375Y-66385101D01*
X93750702Y-66402428D01*
X93771077Y-66416042D01*
X93793716Y-66425419D01*
X93817749Y-66430199D01*
X93842254Y-66430199D01*
X93866287Y-66425418D01*
X93888926Y-66416040D01*
X93909300Y-66402426D01*
X93926627Y-66385099D01*
X93940239Y-66364727D01*
X93944507Y-66356743D01*
X94069472Y-66204472D01*
X94221740Y-66079509D01*
X94395463Y-65986652D01*
X94395465Y-65986651D01*
X94583966Y-65929470D01*
X94583967Y-65929470D01*
X94583970Y-65929469D01*
X94730876Y-65915000D01*
X94829124Y-65915000D01*
X94976030Y-65929469D01*
X94976033Y-65929470D01*
X94976034Y-65929470D01*
X95164535Y-65986651D01*
X95164537Y-65986652D01*
X95338260Y-66079509D01*
X95490528Y-66204472D01*
X95615493Y-66356743D01*
X95619761Y-66364727D01*
X95633375Y-66385101D01*
X95650702Y-66402428D01*
X95671077Y-66416042D01*
X95693716Y-66425419D01*
X95717749Y-66430199D01*
X95742254Y-66430199D01*
X95766287Y-66425418D01*
X95788926Y-66416040D01*
X95809300Y-66402426D01*
X95826627Y-66385099D01*
X95840239Y-66364727D01*
X95844507Y-66356743D01*
X95969472Y-66204472D01*
X96121740Y-66079509D01*
X96295463Y-65986652D01*
X96295465Y-65986651D01*
X96483966Y-65929470D01*
X96483967Y-65929470D01*
X96483970Y-65929469D01*
X96630876Y-65915000D01*
X96729124Y-65915000D01*
X96876030Y-65929469D01*
X96876033Y-65929470D01*
X96876034Y-65929470D01*
X97064535Y-65986651D01*
X97064537Y-65986652D01*
X97238260Y-66079509D01*
X97390528Y-66204472D01*
X97515493Y-66356743D01*
X97519761Y-66364727D01*
X97533375Y-66385101D01*
X97550702Y-66402428D01*
X97571077Y-66416042D01*
X97593716Y-66425419D01*
X97617749Y-66430199D01*
X97642254Y-66430199D01*
X97666287Y-66425418D01*
X97688926Y-66416040D01*
X97709300Y-66402426D01*
X97726627Y-66385099D01*
X97740239Y-66364727D01*
X97744507Y-66356743D01*
X97869472Y-66204472D01*
X98021740Y-66079509D01*
X98195463Y-65986652D01*
X98195465Y-65986651D01*
X98383966Y-65929470D01*
X98383967Y-65929470D01*
X98383970Y-65929469D01*
X98530876Y-65915000D01*
X98629124Y-65915000D01*
X98776030Y-65929469D01*
X98776033Y-65929470D01*
X98776034Y-65929470D01*
X98964535Y-65986651D01*
X98964537Y-65986652D01*
X99138260Y-66079509D01*
X99290528Y-66204472D01*
X99415491Y-66356740D01*
X99508348Y-66530463D01*
X99565531Y-66718970D01*
X99584838Y-66915000D01*
X99565531Y-67111030D01*
X99565530Y-67111033D01*
X99565530Y-67111034D01*
X99524380Y-67246689D01*
X99508348Y-67299537D01*
X99415491Y-67473260D01*
X99290528Y-67625528D01*
X99138260Y-67750491D01*
X99138258Y-67750492D01*
X98964535Y-67843349D01*
X98776034Y-67900530D01*
X98776033Y-67900530D01*
X98776030Y-67900531D01*
X98629124Y-67915000D01*
X98530876Y-67915000D01*
X98383970Y-67900531D01*
X98383967Y-67900530D01*
X98383966Y-67900530D01*
X98195465Y-67843349D01*
X98021742Y-67750492D01*
X98021740Y-67750491D01*
X97869472Y-67625528D01*
X97744507Y-67473257D01*
X97740239Y-67465273D01*
X97726625Y-67444899D01*
X97709298Y-67427572D01*
X97688923Y-67413958D01*
X97666284Y-67404581D01*
X97642251Y-67399801D01*
X97617746Y-67399801D01*
X97593713Y-67404582D01*
X97571074Y-67413960D01*
X97550700Y-67427574D01*
X97533373Y-67444901D01*
X97519761Y-67465273D01*
X97515493Y-67473257D01*
X97390528Y-67625528D01*
X97238260Y-67750491D01*
X97238258Y-67750492D01*
X97064535Y-67843349D01*
X96876034Y-67900530D01*
X96876033Y-67900530D01*
X96876030Y-67900531D01*
X96729124Y-67915000D01*
X96630876Y-67915000D01*
X96483970Y-67900531D01*
X96483967Y-67900530D01*
X96483966Y-67900530D01*
X96295465Y-67843349D01*
X96121742Y-67750492D01*
X96121740Y-67750491D01*
X95969472Y-67625528D01*
X95844507Y-67473257D01*
X95840239Y-67465273D01*
X95826625Y-67444899D01*
X95809298Y-67427572D01*
X95788923Y-67413958D01*
X95766284Y-67404581D01*
X95742251Y-67399801D01*
X95717746Y-67399801D01*
X95693713Y-67404582D01*
X95671074Y-67413960D01*
X95650700Y-67427574D01*
X95633373Y-67444901D01*
X95619761Y-67465273D01*
X95615493Y-67473257D01*
X95490528Y-67625528D01*
X95338260Y-67750491D01*
X95338258Y-67750492D01*
X95164535Y-67843349D01*
X94976034Y-67900530D01*
X94976033Y-67900530D01*
X94976030Y-67900531D01*
X94829124Y-67915000D01*
X94730876Y-67915000D01*
X94583970Y-67900531D01*
X94583967Y-67900530D01*
X94583966Y-67900530D01*
X94395465Y-67843349D01*
X94221742Y-67750492D01*
X94221740Y-67750491D01*
X94069472Y-67625528D01*
X93944507Y-67473257D01*
X93940239Y-67465273D01*
X93926625Y-67444899D01*
X93909298Y-67427572D01*
X93888923Y-67413958D01*
X93866284Y-67404581D01*
X93842251Y-67399801D01*
X93817746Y-67399801D01*
X93793713Y-67404582D01*
X93771074Y-67413960D01*
X93750700Y-67427574D01*
X93733373Y-67444901D01*
X93719761Y-67465273D01*
X93715493Y-67473257D01*
X93590528Y-67625528D01*
X93438260Y-67750491D01*
X93438258Y-67750492D01*
X93264535Y-67843349D01*
X93076034Y-67900530D01*
X93076033Y-67900530D01*
X93076030Y-67900531D01*
X92929124Y-67915000D01*
X92830876Y-67915000D01*
X92683970Y-67900531D01*
X92683967Y-67900530D01*
X92683966Y-67900530D01*
X92495465Y-67843349D01*
X92321742Y-67750492D01*
X92321740Y-67750491D01*
X92169472Y-67625528D01*
X92036718Y-67463767D01*
X92019391Y-67446440D01*
X91999017Y-67432826D01*
X91976378Y-67423448D01*
X91952344Y-67418668D01*
X91927840Y-67418668D01*
X91903807Y-67423448D01*
X91881167Y-67432826D01*
X91860793Y-67446440D01*
X91836164Y-67473613D01*
X91756751Y-67592463D01*
X91617463Y-67731751D01*
X91453678Y-67841189D01*
X91271689Y-67916571D01*
X91155770Y-67939628D01*
X91078493Y-67955000D01*
X90881507Y-67955000D01*
X90804230Y-67939628D01*
X90688311Y-67916571D01*
X90506322Y-67841189D01*
X90342537Y-67731751D01*
X90203249Y-67592463D01*
X90133926Y-67488715D01*
X90118388Y-67469781D01*
X90099446Y-67454236D01*
X90077835Y-67442685D01*
X90054386Y-67435572D01*
X90030000Y-67433170D01*
X90005613Y-67435572D01*
X89982164Y-67442685D01*
X89960554Y-67454236D01*
X89941611Y-67469782D01*
X89926074Y-67488715D01*
X89856751Y-67592463D01*
X89717463Y-67731751D01*
X89553678Y-67841189D01*
X89371689Y-67916571D01*
X89255770Y-67939628D01*
X89178493Y-67955000D01*
X88981507Y-67955000D01*
X88904230Y-67939628D01*
X88788311Y-67916571D01*
X88606322Y-67841189D01*
X88442537Y-67731751D01*
X88303249Y-67592463D01*
X88193811Y-67428678D01*
X88118429Y-67246689D01*
X88080000Y-67053491D01*
X88080000Y-66856509D01*
X88118429Y-66663311D01*
X88193811Y-66481322D01*
X88303249Y-66317537D01*
X88442537Y-66178249D01*
X88606322Y-66068811D01*
X88788311Y-65993429D01*
X88904230Y-65970372D01*
X88981507Y-65955000D01*
X89178493Y-65955000D01*
X89255770Y-65970372D01*
X89371689Y-65993429D01*
X89553678Y-66068811D01*
X89717463Y-66178249D01*
X89856751Y-66317537D01*
X89926074Y-66421285D01*
X89941612Y-66440219D01*
X89960554Y-66455764D01*
X89982165Y-66467315D01*
X90005614Y-66474428D01*
X90030000Y-66476830D01*
X90054387Y-66474428D01*
X90077836Y-66467315D01*
X90099446Y-66455764D01*
X90118389Y-66440218D01*
X90133926Y-66421285D01*
X90203249Y-66317537D01*
X90342537Y-66178249D01*
X90506322Y-66068811D01*
X90688311Y-65993429D01*
X90804230Y-65970372D01*
X90881507Y-65955000D01*
X91078493Y-65955000D01*
X91155770Y-65970372D01*
X91271689Y-65993429D01*
X91453678Y-66068811D01*
X91617463Y-66178249D01*
X91756751Y-66317537D01*
X91812408Y-66400834D01*
X91827942Y-66419762D01*
X91846884Y-66435307D01*
X91868495Y-66446859D01*
X91891944Y-66453972D01*
X91916331Y-66456374D01*
X91940717Y-66453972D01*
X91964166Y-66446859D01*
X91985777Y-66435308D01*
X92004719Y-66419763D01*
X92026571Y-66390299D01*
X92044508Y-66356741D01*
X92169472Y-66204472D01*
X92321740Y-66079509D01*
X92495463Y-65986652D01*
X92495465Y-65986651D01*
X92683966Y-65929470D01*
X92683967Y-65929470D01*
X92683970Y-65929469D01*
X92830876Y-65915000D01*
X92929124Y-65915000D01*
X93076030Y-65929469D01*
X93076030Y-65929469D01*
G37*
G36*
X66317500Y-63241724D02*
X66319902Y-63266110D01*
X66327015Y-63289559D01*
X66338566Y-63311170D01*
X66354112Y-63330112D01*
X66373054Y-63345658D01*
X66394665Y-63357209D01*
X66418114Y-63364322D01*
X66442500Y-63366724D01*
X66466886Y-63364322D01*
X66490335Y-63357209D01*
X66511946Y-63345658D01*
X66530888Y-63330112D01*
X66546434Y-63311170D01*
X66557985Y-63289559D01*
X66564668Y-63273425D01*
X66615855Y-63196819D01*
X66641274Y-63158776D01*
X66738776Y-63061274D01*
X66853426Y-62984668D01*
X66980817Y-62931900D01*
X67116055Y-62905000D01*
X67253945Y-62905000D01*
X67389183Y-62931900D01*
X67516574Y-62984668D01*
X67631224Y-63061274D01*
X67728726Y-63158776D01*
X67800444Y-63266110D01*
X67805332Y-63273426D01*
X67858100Y-63400817D01*
X67885000Y-63536055D01*
X67885000Y-63673945D01*
X67858100Y-63809183D01*
X67808836Y-63928114D01*
X67805332Y-63936574D01*
X67784150Y-63968276D01*
X67728725Y-64051225D01*
X67631225Y-64148725D01*
X67516574Y-64225332D01*
X67389183Y-64278100D01*
X67253945Y-64305000D01*
X67116055Y-64305000D01*
X66980817Y-64278100D01*
X66853426Y-64225332D01*
X66738775Y-64148725D01*
X66641275Y-64051225D01*
X66564668Y-63936575D01*
X66557985Y-63920441D01*
X66546434Y-63898830D01*
X66530889Y-63879888D01*
X66511947Y-63864343D01*
X66490336Y-63852791D01*
X66466887Y-63845678D01*
X66442501Y-63843276D01*
X66418114Y-63845678D01*
X66394665Y-63852791D01*
X66373054Y-63864342D01*
X66354112Y-63879887D01*
X66338567Y-63898829D01*
X66327015Y-63920440D01*
X66319902Y-63943889D01*
X66317500Y-63968276D01*
X66317500Y-65141724D01*
X66319902Y-65166110D01*
X66327015Y-65189559D01*
X66338566Y-65211170D01*
X66354112Y-65230112D01*
X66373054Y-65245658D01*
X66394665Y-65257209D01*
X66418114Y-65264322D01*
X66442500Y-65266724D01*
X66466886Y-65264322D01*
X66490335Y-65257209D01*
X66511946Y-65245658D01*
X66530888Y-65230112D01*
X66546434Y-65211170D01*
X66557985Y-65189559D01*
X66564668Y-65173425D01*
X66641275Y-65058775D01*
X66738775Y-64961275D01*
X66853426Y-64884668D01*
X66980817Y-64831900D01*
X67116055Y-64805000D01*
X67253945Y-64805000D01*
X67389183Y-64831900D01*
X67516574Y-64884668D01*
X67631224Y-64961274D01*
X67728726Y-65058776D01*
X67800444Y-65166110D01*
X67805332Y-65173426D01*
X67858100Y-65300817D01*
X67885000Y-65436055D01*
X67885000Y-65573942D01*
X67884071Y-65578612D01*
X67881669Y-65602998D01*
X67884071Y-65627385D01*
X67891183Y-65650834D01*
X67902734Y-65672445D01*
X67918280Y-65691387D01*
X67937221Y-65706933D01*
X67958832Y-65718484D01*
X67982281Y-65725598D01*
X68006669Y-65728000D01*
X69431000Y-65728000D01*
X69431000Y-67378000D01*
X68031000Y-67378000D01*
X68031000Y-65910909D01*
X68028598Y-65886523D01*
X68021485Y-65863074D01*
X68009934Y-65841463D01*
X67994388Y-65822521D01*
X67975446Y-65806975D01*
X67953835Y-65795424D01*
X67930386Y-65788311D01*
X67906000Y-65785909D01*
X67881614Y-65788311D01*
X67858165Y-65795424D01*
X67836554Y-65806975D01*
X67817612Y-65822521D01*
X67802067Y-65841462D01*
X67752930Y-65915000D01*
X67728726Y-65951224D01*
X67631224Y-66048726D01*
X67516574Y-66125332D01*
X67389183Y-66178100D01*
X67253945Y-66205000D01*
X67116055Y-66205000D01*
X66980817Y-66178100D01*
X66853426Y-66125332D01*
X66738776Y-66048726D01*
X66641274Y-65951224D01*
X66612059Y-65907500D01*
X66564668Y-65836575D01*
X66557985Y-65820441D01*
X66546434Y-65798830D01*
X66530889Y-65779888D01*
X66511947Y-65764343D01*
X66490336Y-65752791D01*
X66466887Y-65745678D01*
X66442501Y-65743276D01*
X66418114Y-65745678D01*
X66394665Y-65752791D01*
X66373054Y-65764342D01*
X66354112Y-65779887D01*
X66338567Y-65798829D01*
X66327015Y-65820440D01*
X66319902Y-65843889D01*
X66317500Y-65868276D01*
X66317500Y-67607500D01*
X65217500Y-67607500D01*
X65217500Y-62107500D01*
X66317500Y-62107500D01*
X66317500Y-63241724D01*
X66317500Y-63241724D01*
G37*
G36*
X64417500Y-67607500D02*
X63317500Y-67607500D01*
X63317500Y-65832500D01*
X63315098Y-65808114D01*
X63307985Y-65784665D01*
X63296434Y-65763054D01*
X63280888Y-65744112D01*
X63261946Y-65728566D01*
X63240335Y-65717015D01*
X63216886Y-65709902D01*
X63192500Y-65707500D01*
X62117500Y-65707500D01*
X62117500Y-63931242D01*
X62117985Y-63930335D01*
X62125098Y-63906886D01*
X62127500Y-63882500D01*
X62127500Y-62127500D01*
X63192500Y-62127500D01*
X63216886Y-62125098D01*
X63240335Y-62117985D01*
X63259952Y-62107500D01*
X64417500Y-62107500D01*
X64417500Y-67607500D01*
X64417500Y-67607500D01*
G37*
G36*
X71431000Y-67378000D02*
X70031000Y-67378000D01*
X70031000Y-65728000D01*
X71431000Y-65728000D01*
X71431000Y-67378000D01*
X71431000Y-67378000D01*
G37*
G36*
X81585000Y-67180000D02*
X80185000Y-67180000D01*
X80185000Y-65530000D01*
X81585000Y-65530000D01*
X81585000Y-67180000D01*
X81585000Y-67180000D01*
G37*
G36*
X79585000Y-67180000D02*
X78185000Y-67180000D01*
X78185000Y-65530000D01*
X79585000Y-65530000D01*
X79585000Y-67180000D01*
X79585000Y-67180000D01*
G37*
G36*
X77860000Y-67155000D02*
X71710000Y-67155000D01*
X71710000Y-65455000D01*
X77860000Y-65455000D01*
X77860000Y-67155000D01*
X77860000Y-67155000D01*
G37*
G36*
X48842500Y-67007500D02*
X47542500Y-67007500D01*
X47542500Y-65807500D01*
X48842500Y-65807500D01*
X48842500Y-67007500D01*
X48842500Y-67007500D01*
G37*
G36*
X58217500Y-66337500D02*
X57117500Y-66337500D01*
X57117500Y-64637500D01*
X58217500Y-64637500D01*
X58217500Y-66337500D01*
X58217500Y-66337500D01*
G37*
G36*
X60892500Y-62002500D02*
X60894902Y-62026886D01*
X60902015Y-62050335D01*
X60913566Y-62071946D01*
X60929112Y-62090888D01*
X60948054Y-62106434D01*
X60969665Y-62117985D01*
X60993114Y-62125098D01*
X61017500Y-62127500D01*
X61327500Y-62127500D01*
X61327500Y-63903758D01*
X61327015Y-63904665D01*
X61319902Y-63928114D01*
X61317500Y-63952500D01*
X61317500Y-65707500D01*
X60242500Y-65707500D01*
X60218114Y-65709902D01*
X60194665Y-65717015D01*
X60173054Y-65728566D01*
X60154112Y-65744112D01*
X60138566Y-65763054D01*
X60127015Y-65784665D01*
X60119902Y-65808114D01*
X60117500Y-65832500D01*
X60117500Y-66337500D01*
X59017500Y-66337500D01*
X59017500Y-64637500D01*
X60092500Y-64637500D01*
X60116886Y-64635098D01*
X60140335Y-64627985D01*
X60161946Y-64616434D01*
X60180888Y-64600888D01*
X60196434Y-64581946D01*
X60207985Y-64560335D01*
X60215098Y-64536886D01*
X60217500Y-64512500D01*
X60217500Y-63952500D01*
X60215098Y-63928114D01*
X60207985Y-63904665D01*
X60196434Y-63883054D01*
X60180888Y-63864112D01*
X60161946Y-63848566D01*
X60140335Y-63837015D01*
X60116886Y-63829902D01*
X60092500Y-63827500D01*
X59017500Y-63827500D01*
X59017500Y-62127500D01*
X59117500Y-62127500D01*
X59141886Y-62125098D01*
X59165335Y-62117985D01*
X59186946Y-62106434D01*
X59205888Y-62090888D01*
X59221434Y-62071946D01*
X59232985Y-62050335D01*
X59240098Y-62026886D01*
X59242500Y-62002500D01*
X59242500Y-60707500D01*
X60892500Y-60707500D01*
X60892500Y-62002500D01*
X60892500Y-62002500D01*
G37*
G36*
X86005000Y-66255000D02*
X82455000Y-66255000D01*
X82455000Y-64855000D01*
X86005000Y-64855000D01*
X86005000Y-66255000D01*
X86005000Y-66255000D01*
G37*
G36*
X46842500Y-66057500D02*
X45542500Y-66057500D01*
X45542500Y-64857500D01*
X46842500Y-64857500D01*
X46842500Y-66057500D01*
X46842500Y-66057500D01*
G37*
G36*
X79985000Y-65030000D02*
X78285000Y-65030000D01*
X78285000Y-58880000D01*
X79985000Y-58880000D01*
X79985000Y-65030000D01*
X79985000Y-65030000D01*
G37*
G36*
X70510000Y-58755000D02*
X70512402Y-58779386D01*
X70519515Y-58802835D01*
X70531066Y-58824446D01*
X70546612Y-58843388D01*
X70565554Y-58858934D01*
X70587165Y-58870485D01*
X70610614Y-58877598D01*
X70635000Y-58880000D01*
X71285000Y-58880000D01*
X71285000Y-65030000D01*
X69585000Y-65030000D01*
X69585000Y-58980000D01*
X69582598Y-58955614D01*
X69575485Y-58932165D01*
X69563934Y-58910554D01*
X69548388Y-58891612D01*
X69529446Y-58876066D01*
X69507835Y-58864515D01*
X69484386Y-58857402D01*
X69460000Y-58855000D01*
X68860000Y-58855000D01*
X68860000Y-57455000D01*
X70510000Y-57455000D01*
X70510000Y-58755000D01*
X70510000Y-58755000D01*
G37*
G36*
X87385000Y-63955000D02*
X81985000Y-63955000D01*
X81985000Y-62055000D01*
X87385000Y-62055000D01*
X87385000Y-63955000D01*
X87385000Y-63955000D01*
G37*
G36*
X58217500Y-63827500D02*
X57117500Y-63827500D01*
X57117500Y-62127500D01*
X58217500Y-62127500D01*
X58217500Y-63827500D01*
X58217500Y-63827500D01*
G37*
G36*
X45924527Y-60568352D02*
X46065901Y-60611238D01*
X46196194Y-60680880D01*
X46310396Y-60774604D01*
X46404120Y-60888806D01*
X46473762Y-61019099D01*
X46516648Y-61160473D01*
X46527500Y-61270661D01*
X46527500Y-62444339D01*
X46516648Y-62554527D01*
X46473762Y-62695901D01*
X46404120Y-62826194D01*
X46310399Y-62940393D01*
X46196190Y-63034122D01*
X46065900Y-63103762D01*
X45924526Y-63146648D01*
X45777500Y-63161128D01*
X45630473Y-63146648D01*
X45489099Y-63103762D01*
X45358806Y-63034120D01*
X45244607Y-62940399D01*
X45150878Y-62826190D01*
X45081238Y-62695900D01*
X45038352Y-62554526D01*
X45027500Y-62444338D01*
X45027501Y-61270661D01*
X45038353Y-61160473D01*
X45081239Y-61019099D01*
X45150881Y-60888806D01*
X45244605Y-60774604D01*
X45358807Y-60680880D01*
X45489100Y-60611238D01*
X45630474Y-60568352D01*
X45777500Y-60553872D01*
X45924527Y-60568352D01*
X45924527Y-60568352D01*
G37*
G36*
X56527500Y-63157500D02*
X55027500Y-63157500D01*
X55027500Y-60557500D01*
X56527500Y-60557500D01*
X56527500Y-63157500D01*
X56527500Y-63157500D01*
G37*
G36*
X128787500Y-62737500D02*
X126887500Y-62737500D01*
X126887500Y-60937500D01*
X128787500Y-60937500D01*
X128787500Y-62737500D01*
X128787500Y-62737500D01*
G37*
G36*
X132857500Y-62707500D02*
X130957500Y-62707500D01*
X130957500Y-60907500D01*
X132857500Y-60907500D01*
X132857500Y-62707500D01*
X132857500Y-62707500D01*
G37*
G36*
X64735000Y-59055000D02*
X63749558Y-59055000D01*
X63725172Y-59057402D01*
X63701723Y-59064515D01*
X63680112Y-59076066D01*
X63661170Y-59091612D01*
X63645624Y-59110554D01*
X63634073Y-59132165D01*
X63626960Y-59155614D01*
X63624558Y-59180000D01*
X63626960Y-59204386D01*
X63629421Y-59212498D01*
X63630992Y-59220394D01*
X63630992Y-59220395D01*
X63647928Y-59305539D01*
X63667500Y-59403932D01*
X63667500Y-59462500D01*
X63669902Y-59486886D01*
X63677015Y-59510335D01*
X63688566Y-59531946D01*
X63704112Y-59550888D01*
X63723054Y-59566434D01*
X63744665Y-59577985D01*
X63768114Y-59585098D01*
X63792500Y-59587500D01*
X64777500Y-59587500D01*
X64777500Y-61287500D01*
X63677500Y-61287500D01*
X63677500Y-60182779D01*
X63675098Y-60158393D01*
X63667985Y-60134944D01*
X63656434Y-60113333D01*
X63640888Y-60094391D01*
X63621946Y-60078845D01*
X63600335Y-60067294D01*
X63576886Y-60060181D01*
X63552500Y-60057779D01*
X63528114Y-60060181D01*
X63504665Y-60067294D01*
X63483054Y-60078845D01*
X63464112Y-60094391D01*
X63323090Y-60235413D01*
X63167494Y-60339379D01*
X62994605Y-60410992D01*
X62856952Y-60438373D01*
X62811068Y-60447500D01*
X62623932Y-60447500D01*
X62578048Y-60438373D01*
X62440395Y-60410992D01*
X62267506Y-60339379D01*
X62111910Y-60235413D01*
X61979587Y-60103090D01*
X61875621Y-59947494D01*
X61804008Y-59774605D01*
X61767500Y-59591067D01*
X61767500Y-59403933D01*
X61772261Y-59380000D01*
X61776627Y-59358049D01*
X61804008Y-59220395D01*
X61875621Y-59047506D01*
X61979587Y-58891910D01*
X62111910Y-58759587D01*
X62267506Y-58655621D01*
X62440395Y-58584008D01*
X62593216Y-58553610D01*
X62623932Y-58547500D01*
X62811068Y-58547500D01*
X62935614Y-58572274D01*
X62960000Y-58574676D01*
X62984386Y-58572274D01*
X63007835Y-58565161D01*
X63029446Y-58553610D01*
X63048388Y-58538064D01*
X63063934Y-58519122D01*
X63075485Y-58497512D01*
X63082598Y-58474062D01*
X63085000Y-58449676D01*
X63085000Y-57655000D01*
X64735000Y-57655000D01*
X64735000Y-59055000D01*
X64735000Y-59055000D01*
G37*
G36*
X66785000Y-58664721D02*
X66787402Y-58689107D01*
X66794515Y-58712556D01*
X66806066Y-58734167D01*
X66821612Y-58753109D01*
X66840554Y-58768655D01*
X66862165Y-58780206D01*
X66885614Y-58787319D01*
X66910000Y-58789721D01*
X66934386Y-58787319D01*
X66957835Y-58780206D01*
X66979446Y-58768655D01*
X66984293Y-58764677D01*
X66991908Y-58759589D01*
X66991910Y-58759587D01*
X67147506Y-58655621D01*
X67320395Y-58584008D01*
X67473216Y-58553610D01*
X67503932Y-58547500D01*
X67691068Y-58547500D01*
X67721784Y-58553610D01*
X67874605Y-58584008D01*
X68047494Y-58655621D01*
X68203090Y-58759587D01*
X68335413Y-58891910D01*
X68439379Y-59047506D01*
X68510992Y-59220395D01*
X68538373Y-59358049D01*
X68542740Y-59380000D01*
X68547500Y-59403933D01*
X68547500Y-59591067D01*
X68510992Y-59774605D01*
X68439379Y-59947494D01*
X68335413Y-60103090D01*
X68203090Y-60235413D01*
X68047494Y-60339379D01*
X67874605Y-60410992D01*
X67736952Y-60438373D01*
X67691068Y-60447500D01*
X67503932Y-60447500D01*
X67458048Y-60438373D01*
X67320395Y-60410992D01*
X67147506Y-60339379D01*
X66991910Y-60235413D01*
X66890888Y-60134391D01*
X66871946Y-60118845D01*
X66850335Y-60107294D01*
X66826886Y-60100181D01*
X66802500Y-60097779D01*
X66778114Y-60100181D01*
X66754665Y-60107294D01*
X66733054Y-60118845D01*
X66714112Y-60134391D01*
X66698566Y-60153333D01*
X66687015Y-60174944D01*
X66679902Y-60198393D01*
X66677500Y-60222779D01*
X66677500Y-61287500D01*
X65577500Y-61287500D01*
X65577500Y-59587500D01*
X66522500Y-59587500D01*
X66546886Y-59585098D01*
X66570335Y-59577985D01*
X66591946Y-59566434D01*
X66610888Y-59550888D01*
X66626434Y-59531946D01*
X66637985Y-59510335D01*
X66645098Y-59486886D01*
X66647500Y-59462500D01*
X66647500Y-59403932D01*
X66657286Y-59354735D01*
X66684008Y-59220395D01*
X66684009Y-59220392D01*
X66685577Y-59212510D01*
X66688038Y-59204399D01*
X66690442Y-59180013D01*
X66688043Y-59155627D01*
X66680932Y-59132177D01*
X66669383Y-59110565D01*
X66653840Y-59091621D01*
X66634899Y-59076074D01*
X66613290Y-59064520D01*
X66589841Y-59057404D01*
X66565442Y-59055000D01*
X65135000Y-59055000D01*
X65135000Y-57655000D01*
X66785000Y-57655000D01*
X66785000Y-58664721D01*
X66785000Y-58664721D01*
G37*
G36*
X60902500Y-58713758D02*
X60902015Y-58714665D01*
X60894902Y-58738114D01*
X60892500Y-58762500D01*
X60892500Y-60107500D01*
X59242500Y-60107500D01*
X59242500Y-58762500D01*
X59240098Y-58738114D01*
X59232985Y-58714665D01*
X59221434Y-58693054D01*
X59205888Y-58674112D01*
X59186946Y-58658566D01*
X59165335Y-58647015D01*
X59141886Y-58639902D01*
X59117500Y-58637500D01*
X59042500Y-58637500D01*
X59018114Y-58639902D01*
X58994665Y-58647015D01*
X58973054Y-58658566D01*
X58954112Y-58674112D01*
X58938566Y-58693054D01*
X58927015Y-58714665D01*
X58919902Y-58738114D01*
X58917500Y-58762500D01*
X58917500Y-60267500D01*
X57817500Y-60267500D01*
X57817500Y-58567500D01*
X58927500Y-58567500D01*
X58951886Y-58565098D01*
X58975335Y-58557985D01*
X58996946Y-58546434D01*
X59015888Y-58530888D01*
X59031434Y-58511946D01*
X59042985Y-58490335D01*
X59050098Y-58466886D01*
X59052500Y-58442500D01*
X59052500Y-55837500D01*
X60902500Y-55837500D01*
X60902500Y-58713758D01*
X60902500Y-58713758D01*
G37*
G36*
X56502500Y-58442500D02*
X56504902Y-58466886D01*
X56512015Y-58490335D01*
X56523566Y-58511946D01*
X56539112Y-58530888D01*
X56558054Y-58546434D01*
X56579665Y-58557985D01*
X56603114Y-58565098D01*
X56627500Y-58567500D01*
X57017500Y-58567500D01*
X57017500Y-60267500D01*
X55917500Y-60267500D01*
X55917500Y-58762500D01*
X55915098Y-58738114D01*
X55907985Y-58714665D01*
X55896434Y-58693054D01*
X55880888Y-58674112D01*
X55861946Y-58658566D01*
X55840335Y-58647015D01*
X55816886Y-58639902D01*
X55792500Y-58637500D01*
X54652500Y-58637500D01*
X54652500Y-55837500D01*
X56502500Y-55837500D01*
X56502500Y-58442500D01*
X56502500Y-58442500D01*
G37*
G36*
X142500000Y-59500000D02*
X113891250Y-59500000D01*
X113892466Y-59220395D01*
X113905461Y-56233044D01*
X113903165Y-56208647D01*
X113896154Y-56185167D01*
X113884697Y-56163506D01*
X113869234Y-56144497D01*
X113850360Y-56128869D01*
X113828799Y-56117224D01*
X113805381Y-56110009D01*
X113780462Y-56107500D01*
X113617500Y-56107500D01*
X113617500Y-53497500D01*
X113792903Y-53497500D01*
X113817289Y-53495098D01*
X113840738Y-53487985D01*
X113862349Y-53476434D01*
X113881291Y-53460888D01*
X113896837Y-53441946D01*
X113908388Y-53420335D01*
X113915501Y-53396886D01*
X113917902Y-53373044D01*
X113950693Y-45835000D01*
X113974583Y-40343042D01*
X113972287Y-40318647D01*
X113965276Y-40295167D01*
X113953819Y-40273506D01*
X113938356Y-40254497D01*
X113919482Y-40238869D01*
X113897921Y-40227224D01*
X113874503Y-40220009D01*
X113849584Y-40217500D01*
X113617500Y-40217500D01*
X113617500Y-37607500D01*
X113862025Y-37607500D01*
X113886411Y-37605098D01*
X113909860Y-37597985D01*
X113931471Y-37586434D01*
X113950413Y-37570888D01*
X113965959Y-37551946D01*
X113977510Y-37530335D01*
X113984623Y-37506886D01*
X113987024Y-37483044D01*
X113987067Y-37473273D01*
X113992366Y-36255000D01*
X113999946Y-34512311D01*
X113999946Y-34512309D01*
X114000000Y-34500000D01*
X142500000Y-34500000D01*
X142500000Y-59500000D01*
X142500000Y-59500000D01*
G37*
G36*
X47450021Y-57412086D02*
X47613809Y-57479929D01*
X47761220Y-57578426D01*
X47886574Y-57703780D01*
X47985071Y-57851191D01*
X48052914Y-58014979D01*
X48087500Y-58188856D01*
X48087500Y-58366144D01*
X48052914Y-58540021D01*
X47985071Y-58703809D01*
X47886574Y-58851220D01*
X47761220Y-58976574D01*
X47613809Y-59075071D01*
X47450021Y-59142914D01*
X47276144Y-59177500D01*
X47098856Y-59177500D01*
X46924979Y-59142914D01*
X46761191Y-59075071D01*
X46613780Y-58976574D01*
X46488426Y-58851220D01*
X46389929Y-58703809D01*
X46322086Y-58540021D01*
X46287500Y-58366144D01*
X46287500Y-58188856D01*
X46322086Y-58014979D01*
X46389929Y-57851191D01*
X46488426Y-57703780D01*
X46613780Y-57578426D01*
X46761191Y-57479929D01*
X46924979Y-57412086D01*
X47098856Y-57377500D01*
X47276144Y-57377500D01*
X47450021Y-57412086D01*
X47450021Y-57412086D01*
G37*
G36*
X52450021Y-57412086D02*
X52613809Y-57479929D01*
X52761220Y-57578426D01*
X52886574Y-57703780D01*
X52985071Y-57851191D01*
X53052914Y-58014979D01*
X53087500Y-58188856D01*
X53087500Y-58366144D01*
X53052914Y-58540021D01*
X52985071Y-58703809D01*
X52886574Y-58851220D01*
X52761220Y-58976574D01*
X52613809Y-59075071D01*
X52450021Y-59142914D01*
X52276144Y-59177500D01*
X52098856Y-59177500D01*
X51924979Y-59142914D01*
X51761191Y-59075071D01*
X51613780Y-58976574D01*
X51488426Y-58851220D01*
X51389929Y-58703809D01*
X51322086Y-58540021D01*
X51287500Y-58366144D01*
X51287500Y-58188856D01*
X51322086Y-58014979D01*
X51389929Y-57851191D01*
X51488426Y-57703780D01*
X51613780Y-57578426D01*
X51761191Y-57479929D01*
X51924979Y-57412086D01*
X52098856Y-57377500D01*
X52276144Y-57377500D01*
X52450021Y-57412086D01*
X52450021Y-57412086D01*
G37*
G36*
X77860000Y-58455000D02*
X71710000Y-58455000D01*
X71710000Y-56755000D01*
X77860000Y-56755000D01*
X77860000Y-58455000D01*
X77860000Y-58455000D01*
G37*
G36*
X87385000Y-58055000D02*
X81985000Y-58055000D01*
X81985000Y-56155000D01*
X87385000Y-56155000D01*
X87385000Y-58055000D01*
X87385000Y-58055000D01*
G37*
G36*
X93055770Y-55770372D02*
X93171689Y-55793429D01*
X93353678Y-55868811D01*
X93517463Y-55978249D01*
X93656751Y-56117537D01*
X93726074Y-56221285D01*
X93741612Y-56240219D01*
X93760554Y-56255764D01*
X93782165Y-56267315D01*
X93805614Y-56274428D01*
X93830000Y-56276830D01*
X93854387Y-56274428D01*
X93877836Y-56267315D01*
X93899446Y-56255764D01*
X93918389Y-56240218D01*
X93933926Y-56221285D01*
X94003249Y-56117537D01*
X94142537Y-55978249D01*
X94306322Y-55868811D01*
X94488311Y-55793429D01*
X94604230Y-55770372D01*
X94681507Y-55755000D01*
X94878493Y-55755000D01*
X94955770Y-55770372D01*
X95071689Y-55793429D01*
X95253678Y-55868811D01*
X95417463Y-55978249D01*
X95556751Y-56117537D01*
X95626074Y-56221285D01*
X95641612Y-56240219D01*
X95660554Y-56255764D01*
X95682165Y-56267315D01*
X95705614Y-56274428D01*
X95730000Y-56276830D01*
X95754387Y-56274428D01*
X95777836Y-56267315D01*
X95799446Y-56255764D01*
X95818389Y-56240218D01*
X95833926Y-56221285D01*
X95903249Y-56117537D01*
X96042537Y-55978249D01*
X96206322Y-55868811D01*
X96388311Y-55793429D01*
X96504230Y-55770372D01*
X96581507Y-55755000D01*
X96778493Y-55755000D01*
X96855770Y-55770372D01*
X96971689Y-55793429D01*
X97153678Y-55868811D01*
X97317463Y-55978249D01*
X97456751Y-56117537D01*
X97526074Y-56221285D01*
X97541612Y-56240219D01*
X97560554Y-56255764D01*
X97582165Y-56267315D01*
X97605614Y-56274428D01*
X97630000Y-56276830D01*
X97654387Y-56274428D01*
X97677836Y-56267315D01*
X97699446Y-56255764D01*
X97718389Y-56240218D01*
X97733926Y-56221285D01*
X97803249Y-56117537D01*
X97942537Y-55978249D01*
X98106322Y-55868811D01*
X98288311Y-55793429D01*
X98404230Y-55770372D01*
X98481507Y-55755000D01*
X98678493Y-55755000D01*
X98755770Y-55770372D01*
X98871689Y-55793429D01*
X99053678Y-55868811D01*
X99217463Y-55978249D01*
X99356751Y-56117537D01*
X99466189Y-56281322D01*
X99541571Y-56463311D01*
X99559634Y-56554120D01*
X99573487Y-56623762D01*
X99580000Y-56656509D01*
X99580000Y-56853491D01*
X99541571Y-57046689D01*
X99466189Y-57228678D01*
X99356751Y-57392463D01*
X99217463Y-57531751D01*
X99053678Y-57641189D01*
X98871689Y-57716571D01*
X98755770Y-57739628D01*
X98678493Y-57755000D01*
X98481507Y-57755000D01*
X98404230Y-57739628D01*
X98288311Y-57716571D01*
X98106322Y-57641189D01*
X97942537Y-57531751D01*
X97803249Y-57392463D01*
X97733926Y-57288715D01*
X97718388Y-57269781D01*
X97699446Y-57254236D01*
X97677835Y-57242685D01*
X97654386Y-57235572D01*
X97630000Y-57233170D01*
X97605613Y-57235572D01*
X97582164Y-57242685D01*
X97560554Y-57254236D01*
X97541611Y-57269782D01*
X97526074Y-57288715D01*
X97456751Y-57392463D01*
X97317463Y-57531751D01*
X97153678Y-57641189D01*
X96971689Y-57716571D01*
X96855770Y-57739628D01*
X96778493Y-57755000D01*
X96581507Y-57755000D01*
X96504230Y-57739628D01*
X96388311Y-57716571D01*
X96206322Y-57641189D01*
X96042537Y-57531751D01*
X95903249Y-57392463D01*
X95833926Y-57288715D01*
X95818388Y-57269781D01*
X95799446Y-57254236D01*
X95777835Y-57242685D01*
X95754386Y-57235572D01*
X95730000Y-57233170D01*
X95705613Y-57235572D01*
X95682164Y-57242685D01*
X95660554Y-57254236D01*
X95641611Y-57269782D01*
X95626074Y-57288715D01*
X95556751Y-57392463D01*
X95417463Y-57531751D01*
X95253678Y-57641189D01*
X95071689Y-57716571D01*
X94955770Y-57739628D01*
X94878493Y-57755000D01*
X94681507Y-57755000D01*
X94604230Y-57739628D01*
X94488311Y-57716571D01*
X94306322Y-57641189D01*
X94142537Y-57531751D01*
X94003249Y-57392463D01*
X93933926Y-57288715D01*
X93918388Y-57269781D01*
X93899446Y-57254236D01*
X93877835Y-57242685D01*
X93854386Y-57235572D01*
X93830000Y-57233170D01*
X93805613Y-57235572D01*
X93782164Y-57242685D01*
X93760554Y-57254236D01*
X93741611Y-57269782D01*
X93726074Y-57288715D01*
X93656751Y-57392463D01*
X93517463Y-57531751D01*
X93353678Y-57641189D01*
X93171689Y-57716571D01*
X93055770Y-57739628D01*
X92978493Y-57755000D01*
X92781507Y-57755000D01*
X92704230Y-57739628D01*
X92588311Y-57716571D01*
X92406322Y-57641189D01*
X92242537Y-57531751D01*
X92103249Y-57392463D01*
X92047592Y-57309166D01*
X92032058Y-57290238D01*
X92013116Y-57274693D01*
X91991505Y-57263141D01*
X91968056Y-57256028D01*
X91943669Y-57253626D01*
X91919283Y-57256028D01*
X91895834Y-57263141D01*
X91874223Y-57274692D01*
X91855281Y-57290237D01*
X91833429Y-57319701D01*
X91815492Y-57353259D01*
X91690528Y-57505528D01*
X91538260Y-57630491D01*
X91538258Y-57630492D01*
X91364535Y-57723349D01*
X91176034Y-57780530D01*
X91176033Y-57780530D01*
X91176030Y-57780531D01*
X91029124Y-57795000D01*
X90930876Y-57795000D01*
X90783970Y-57780531D01*
X90783967Y-57780530D01*
X90783966Y-57780530D01*
X90595465Y-57723349D01*
X90421742Y-57630492D01*
X90421740Y-57630491D01*
X90269472Y-57505528D01*
X90144507Y-57353257D01*
X90140239Y-57345273D01*
X90126625Y-57324899D01*
X90109298Y-57307572D01*
X90088923Y-57293958D01*
X90066284Y-57284581D01*
X90042251Y-57279801D01*
X90017746Y-57279801D01*
X89993713Y-57284582D01*
X89971074Y-57293960D01*
X89950700Y-57307574D01*
X89933373Y-57324901D01*
X89919761Y-57345273D01*
X89915493Y-57353257D01*
X89790528Y-57505528D01*
X89638260Y-57630491D01*
X89638258Y-57630492D01*
X89464535Y-57723349D01*
X89276034Y-57780530D01*
X89276033Y-57780530D01*
X89276030Y-57780531D01*
X89129124Y-57795000D01*
X89030876Y-57795000D01*
X88883970Y-57780531D01*
X88883967Y-57780530D01*
X88883966Y-57780530D01*
X88695465Y-57723349D01*
X88521742Y-57630492D01*
X88521740Y-57630491D01*
X88369472Y-57505528D01*
X88244509Y-57353260D01*
X88151652Y-57179537D01*
X88102776Y-57018413D01*
X88094470Y-56991034D01*
X88094470Y-56991033D01*
X88094469Y-56991030D01*
X88075162Y-56795000D01*
X88094469Y-56598970D01*
X88132075Y-56475000D01*
X88151651Y-56410465D01*
X88212811Y-56296042D01*
X88244509Y-56236740D01*
X88369472Y-56084472D01*
X88521740Y-55959509D01*
X88695463Y-55866652D01*
X88695465Y-55866651D01*
X88883966Y-55809470D01*
X88883967Y-55809470D01*
X88883970Y-55809469D01*
X89030876Y-55795000D01*
X89129124Y-55795000D01*
X89276030Y-55809469D01*
X89276033Y-55809470D01*
X89276034Y-55809470D01*
X89464535Y-55866651D01*
X89464537Y-55866652D01*
X89638260Y-55959509D01*
X89790528Y-56084472D01*
X89915493Y-56236743D01*
X89919761Y-56244727D01*
X89933375Y-56265101D01*
X89950702Y-56282428D01*
X89971077Y-56296042D01*
X89993716Y-56305419D01*
X90017749Y-56310199D01*
X90042254Y-56310199D01*
X90066287Y-56305418D01*
X90088926Y-56296040D01*
X90109300Y-56282426D01*
X90126627Y-56265099D01*
X90140239Y-56244727D01*
X90144507Y-56236743D01*
X90269472Y-56084472D01*
X90421740Y-55959509D01*
X90595463Y-55866652D01*
X90595465Y-55866651D01*
X90783966Y-55809470D01*
X90783967Y-55809470D01*
X90783970Y-55809469D01*
X90930876Y-55795000D01*
X91029124Y-55795000D01*
X91176030Y-55809469D01*
X91176033Y-55809470D01*
X91176034Y-55809470D01*
X91364535Y-55866651D01*
X91364537Y-55866652D01*
X91538260Y-55959509D01*
X91690528Y-56084472D01*
X91823282Y-56246233D01*
X91840609Y-56263560D01*
X91860983Y-56277174D01*
X91883622Y-56286552D01*
X91907656Y-56291332D01*
X91932160Y-56291332D01*
X91956193Y-56286552D01*
X91978833Y-56277174D01*
X91999207Y-56263560D01*
X92023836Y-56236387D01*
X92103249Y-56117537D01*
X92242537Y-55978249D01*
X92406322Y-55868811D01*
X92588311Y-55793429D01*
X92704230Y-55770372D01*
X92781507Y-55755000D01*
X92978493Y-55755000D01*
X93055770Y-55770372D01*
X93055770Y-55770372D01*
G37*
G36*
X79685000Y-57380000D02*
X78285000Y-57380000D01*
X78285000Y-55730000D01*
X79685000Y-55730000D01*
X79685000Y-57380000D01*
X79685000Y-57380000D01*
G37*
G36*
X81685000Y-57380000D02*
X80285000Y-57380000D01*
X80285000Y-55730000D01*
X81685000Y-55730000D01*
X81685000Y-57380000D01*
X81685000Y-57380000D01*
G37*
G36*
X66785000Y-57055000D02*
X65135000Y-57055000D01*
X65135000Y-55655000D01*
X66785000Y-55655000D01*
X66785000Y-57055000D01*
X66785000Y-57055000D01*
G37*
G36*
X64735000Y-57055000D02*
X63085000Y-57055000D01*
X63085000Y-55655000D01*
X64735000Y-55655000D01*
X64735000Y-57055000D01*
X64735000Y-57055000D01*
G37*
G36*
X70510000Y-56855000D02*
X68860000Y-56855000D01*
X68860000Y-55455000D01*
X70510000Y-55455000D01*
X70510000Y-56855000D01*
X70510000Y-56855000D01*
G37*
G36*
X46334527Y-54488352D02*
X46475901Y-54531238D01*
X46606194Y-54600880D01*
X46720396Y-54694604D01*
X46814120Y-54808806D01*
X46883762Y-54939099D01*
X46926648Y-55080473D01*
X46937500Y-55190661D01*
X46937500Y-55964339D01*
X46926648Y-56074527D01*
X46883762Y-56215901D01*
X46814120Y-56346194D01*
X46720399Y-56460393D01*
X46606190Y-56554122D01*
X46475900Y-56623762D01*
X46334526Y-56666648D01*
X46187500Y-56681128D01*
X46040473Y-56666648D01*
X45899099Y-56623762D01*
X45768806Y-56554120D01*
X45654607Y-56460399D01*
X45560878Y-56346190D01*
X45491238Y-56215900D01*
X45448352Y-56074526D01*
X45437500Y-55964338D01*
X45437500Y-55190661D01*
X45448352Y-55080475D01*
X45491240Y-54939098D01*
X45560881Y-54808806D01*
X45654605Y-54694604D01*
X45768807Y-54600880D01*
X45899100Y-54531238D01*
X46040474Y-54488352D01*
X46187500Y-54473872D01*
X46334527Y-54488352D01*
X46334527Y-54488352D01*
G37*
G36*
X53334527Y-54488352D02*
X53475901Y-54531238D01*
X53606194Y-54600880D01*
X53720396Y-54694604D01*
X53814120Y-54808806D01*
X53883762Y-54939099D01*
X53926648Y-55080473D01*
X53937500Y-55190661D01*
X53937500Y-55964339D01*
X53926648Y-56074527D01*
X53883762Y-56215901D01*
X53814120Y-56346194D01*
X53720399Y-56460393D01*
X53606190Y-56554122D01*
X53475900Y-56623762D01*
X53334526Y-56666648D01*
X53187500Y-56681128D01*
X53040473Y-56666648D01*
X52899099Y-56623762D01*
X52768806Y-56554120D01*
X52654607Y-56460399D01*
X52560878Y-56346190D01*
X52491238Y-56215901D01*
X52462117Y-56119901D01*
X52452740Y-56097262D01*
X52439126Y-56076888D01*
X52421799Y-56059560D01*
X52401424Y-56045947D01*
X52378785Y-56036569D01*
X52354752Y-56031789D01*
X52330248Y-56031789D01*
X52306214Y-56036570D01*
X52283575Y-56045947D01*
X52263201Y-56059561D01*
X52245873Y-56076888D01*
X52232260Y-56097263D01*
X52222882Y-56119902D01*
X52217500Y-56156187D01*
X52217500Y-56507500D01*
X50617500Y-56507500D01*
X50617500Y-54907500D01*
X52217500Y-54907500D01*
X52217500Y-54998813D01*
X52219902Y-55023199D01*
X52227015Y-55046648D01*
X52238566Y-55068259D01*
X52254112Y-55087201D01*
X52273054Y-55102747D01*
X52294665Y-55114298D01*
X52318114Y-55121411D01*
X52342500Y-55123813D01*
X52366886Y-55121411D01*
X52390335Y-55114298D01*
X52411946Y-55102747D01*
X52430888Y-55087201D01*
X52446434Y-55068259D01*
X52462117Y-55035100D01*
X52491240Y-54939097D01*
X52560881Y-54808806D01*
X52654605Y-54694604D01*
X52768807Y-54600880D01*
X52899100Y-54531238D01*
X53040474Y-54488352D01*
X53187500Y-54473872D01*
X53334527Y-54488352D01*
X53334527Y-54488352D01*
G37*
G36*
X50017500Y-56507500D02*
X48417500Y-56507500D01*
X48417500Y-54907500D01*
X50017500Y-54907500D01*
X50017500Y-56507500D01*
X50017500Y-56507500D01*
G37*
G36*
X112394526Y-52048352D02*
X112535900Y-52091238D01*
X112666190Y-52160878D01*
X112780399Y-52254607D01*
X112874120Y-52368806D01*
X112943762Y-52499099D01*
X112986648Y-52640473D01*
X112997500Y-52750661D01*
X112997500Y-53524339D01*
X112986648Y-53634527D01*
X112943762Y-53775901D01*
X112874120Y-53906194D01*
X112780396Y-54020396D01*
X112666194Y-54114120D01*
X112535901Y-54183762D01*
X112394527Y-54226648D01*
X112247500Y-54241128D01*
X112100474Y-54226648D01*
X111959100Y-54183762D01*
X111828807Y-54114120D01*
X111714605Y-54020396D01*
X111620881Y-53906194D01*
X111551240Y-53775902D01*
X111508352Y-53634525D01*
X111497500Y-53524339D01*
X111497500Y-52750662D01*
X111508352Y-52640474D01*
X111551238Y-52499100D01*
X111620878Y-52368810D01*
X111714607Y-52254601D01*
X111828806Y-52160880D01*
X111959099Y-52091238D01*
X112100473Y-52048352D01*
X112247500Y-52033872D01*
X112394526Y-52048352D01*
X112394526Y-52048352D01*
G37*
G36*
X105394526Y-52048352D02*
X105535900Y-52091238D01*
X105666190Y-52160878D01*
X105780399Y-52254607D01*
X105874120Y-52368806D01*
X105943762Y-52499098D01*
X105972883Y-52595098D01*
X105982260Y-52617737D01*
X105995874Y-52638111D01*
X106013201Y-52655439D01*
X106033576Y-52669052D01*
X106056215Y-52678430D01*
X106080248Y-52683210D01*
X106104752Y-52683210D01*
X106128786Y-52678429D01*
X106151425Y-52669052D01*
X106171799Y-52655438D01*
X106189127Y-52638111D01*
X106202740Y-52617736D01*
X106212118Y-52595097D01*
X106217500Y-52558812D01*
X106217500Y-52207500D01*
X107817500Y-52207500D01*
X107817500Y-53807500D01*
X106217500Y-53807500D01*
X106217500Y-53716188D01*
X106215098Y-53691802D01*
X106207985Y-53668353D01*
X106196434Y-53646742D01*
X106180888Y-53627800D01*
X106161946Y-53612254D01*
X106140335Y-53600703D01*
X106116886Y-53593590D01*
X106092500Y-53591188D01*
X106068114Y-53593590D01*
X106044665Y-53600703D01*
X106023054Y-53612254D01*
X106004112Y-53627800D01*
X105988566Y-53646742D01*
X105972883Y-53679902D01*
X105943762Y-53775902D01*
X105874120Y-53906194D01*
X105780396Y-54020396D01*
X105666194Y-54114120D01*
X105535901Y-54183762D01*
X105394527Y-54226648D01*
X105247500Y-54241128D01*
X105100474Y-54226648D01*
X104959100Y-54183762D01*
X104828807Y-54114120D01*
X104714605Y-54020396D01*
X104620881Y-53906194D01*
X104551240Y-53775902D01*
X104508352Y-53634525D01*
X104497500Y-53524339D01*
X104497500Y-52750662D01*
X104508352Y-52640474D01*
X104551238Y-52499100D01*
X104620878Y-52368810D01*
X104714607Y-52254601D01*
X104828806Y-52160880D01*
X104959099Y-52091238D01*
X105100473Y-52048352D01*
X105247500Y-52033872D01*
X105394526Y-52048352D01*
X105394526Y-52048352D01*
G37*
G36*
X110017500Y-53807500D02*
X108417500Y-53807500D01*
X108417500Y-52207500D01*
X110017500Y-52207500D01*
X110017500Y-53807500D01*
X110017500Y-53807500D01*
G37*
G36*
X89575000Y-53260000D02*
X87925000Y-53260000D01*
X87925000Y-51860000D01*
X89575000Y-51860000D01*
X89575000Y-53260000D01*
X89575000Y-53260000D01*
G37*
G36*
X95350000Y-53060000D02*
X93700000Y-53060000D01*
X93700000Y-51660000D01*
X95350000Y-51660000D01*
X95350000Y-53060000D01*
X95350000Y-53060000D01*
G37*
G36*
X93300000Y-53060000D02*
X91650000Y-53060000D01*
X91650000Y-51660000D01*
X93300000Y-51660000D01*
X93300000Y-53060000D01*
X93300000Y-53060000D01*
G37*
G36*
X78150000Y-52985000D02*
X76750000Y-52985000D01*
X76750000Y-51335000D01*
X78150000Y-51335000D01*
X78150000Y-52985000D01*
X78150000Y-52985000D01*
G37*
G36*
X80150000Y-52985000D02*
X78750000Y-52985000D01*
X78750000Y-51335000D01*
X80150000Y-51335000D01*
X80150000Y-52985000D01*
X80150000Y-52985000D01*
G37*
G36*
X67651030Y-50934469D02*
X67651033Y-50934470D01*
X67651034Y-50934470D01*
X67839535Y-50991651D01*
X67839537Y-50991652D01*
X68013260Y-51084509D01*
X68165528Y-51209472D01*
X68290493Y-51361743D01*
X68294761Y-51369727D01*
X68308375Y-51390101D01*
X68325702Y-51407428D01*
X68346077Y-51421042D01*
X68368716Y-51430419D01*
X68392749Y-51435199D01*
X68417254Y-51435199D01*
X68441287Y-51430418D01*
X68463926Y-51421040D01*
X68484300Y-51407426D01*
X68501627Y-51390099D01*
X68515239Y-51369727D01*
X68519507Y-51361743D01*
X68644472Y-51209472D01*
X68796740Y-51084509D01*
X68970463Y-50991652D01*
X68970465Y-50991651D01*
X69158966Y-50934470D01*
X69158967Y-50934470D01*
X69158970Y-50934469D01*
X69305876Y-50920000D01*
X69404124Y-50920000D01*
X69551030Y-50934469D01*
X69551033Y-50934470D01*
X69551034Y-50934470D01*
X69739535Y-50991651D01*
X69739537Y-50991652D01*
X69913260Y-51084509D01*
X70065528Y-51209472D01*
X70190491Y-51361740D01*
X70283348Y-51535463D01*
X70340531Y-51723970D01*
X70359838Y-51920000D01*
X70340531Y-52116030D01*
X70340530Y-52116033D01*
X70340530Y-52116034D01*
X70299380Y-52251689D01*
X70283348Y-52304537D01*
X70190491Y-52478260D01*
X70065528Y-52630528D01*
X69913260Y-52755491D01*
X69913258Y-52755492D01*
X69739535Y-52848349D01*
X69551034Y-52905530D01*
X69551033Y-52905530D01*
X69551030Y-52905531D01*
X69404124Y-52920000D01*
X69305876Y-52920000D01*
X69158970Y-52905531D01*
X69158967Y-52905530D01*
X69158966Y-52905530D01*
X68970465Y-52848349D01*
X68796742Y-52755492D01*
X68796740Y-52755491D01*
X68644472Y-52630528D01*
X68519507Y-52478257D01*
X68515239Y-52470273D01*
X68501625Y-52449899D01*
X68484298Y-52432572D01*
X68463923Y-52418958D01*
X68441284Y-52409581D01*
X68417251Y-52404801D01*
X68392746Y-52404801D01*
X68368713Y-52409582D01*
X68346074Y-52418960D01*
X68325700Y-52432574D01*
X68308373Y-52449901D01*
X68294761Y-52470273D01*
X68290493Y-52478257D01*
X68165528Y-52630528D01*
X68013260Y-52755491D01*
X68013258Y-52755492D01*
X67839535Y-52848349D01*
X67651034Y-52905530D01*
X67651033Y-52905530D01*
X67651030Y-52905531D01*
X67504124Y-52920000D01*
X67405876Y-52920000D01*
X67258970Y-52905531D01*
X67258967Y-52905530D01*
X67258966Y-52905530D01*
X67070465Y-52848349D01*
X66896742Y-52755492D01*
X66896740Y-52755491D01*
X66744472Y-52630528D01*
X66611718Y-52468767D01*
X66594391Y-52451440D01*
X66574017Y-52437826D01*
X66551378Y-52428448D01*
X66527344Y-52423668D01*
X66502840Y-52423668D01*
X66478807Y-52428448D01*
X66456167Y-52437826D01*
X66435793Y-52451440D01*
X66411164Y-52478613D01*
X66331751Y-52597463D01*
X66192463Y-52736751D01*
X66028678Y-52846189D01*
X65846689Y-52921571D01*
X65730770Y-52944628D01*
X65653493Y-52960000D01*
X65456507Y-52960000D01*
X65379230Y-52944628D01*
X65263311Y-52921571D01*
X65081322Y-52846189D01*
X64917537Y-52736751D01*
X64778249Y-52597463D01*
X64708926Y-52493715D01*
X64693388Y-52474781D01*
X64674446Y-52459236D01*
X64652835Y-52447685D01*
X64629386Y-52440572D01*
X64605000Y-52438170D01*
X64580613Y-52440572D01*
X64557164Y-52447685D01*
X64535554Y-52459236D01*
X64516611Y-52474782D01*
X64501074Y-52493715D01*
X64431751Y-52597463D01*
X64292463Y-52736751D01*
X64128678Y-52846189D01*
X63946689Y-52921571D01*
X63830770Y-52944628D01*
X63753493Y-52960000D01*
X63556507Y-52960000D01*
X63479230Y-52944628D01*
X63363311Y-52921571D01*
X63181322Y-52846189D01*
X63017537Y-52736751D01*
X62878249Y-52597463D01*
X62808926Y-52493715D01*
X62793388Y-52474781D01*
X62774446Y-52459236D01*
X62752835Y-52447685D01*
X62729386Y-52440572D01*
X62705000Y-52438170D01*
X62680613Y-52440572D01*
X62657164Y-52447685D01*
X62635554Y-52459236D01*
X62616611Y-52474782D01*
X62601074Y-52493715D01*
X62531751Y-52597463D01*
X62392463Y-52736751D01*
X62228678Y-52846189D01*
X62046689Y-52921571D01*
X61930770Y-52944628D01*
X61853493Y-52960000D01*
X61656507Y-52960000D01*
X61579230Y-52944628D01*
X61463311Y-52921571D01*
X61281322Y-52846189D01*
X61117537Y-52736751D01*
X60978249Y-52597463D01*
X60908926Y-52493715D01*
X60893388Y-52474781D01*
X60874446Y-52459236D01*
X60852835Y-52447685D01*
X60829386Y-52440572D01*
X60805000Y-52438170D01*
X60780613Y-52440572D01*
X60757164Y-52447685D01*
X60735554Y-52459236D01*
X60716611Y-52474782D01*
X60701074Y-52493715D01*
X60631751Y-52597463D01*
X60492463Y-52736751D01*
X60328678Y-52846189D01*
X60146689Y-52921571D01*
X60030770Y-52944628D01*
X59953493Y-52960000D01*
X59756507Y-52960000D01*
X59679230Y-52944628D01*
X59563311Y-52921571D01*
X59381322Y-52846189D01*
X59217537Y-52736751D01*
X59078249Y-52597463D01*
X58968811Y-52433678D01*
X58893429Y-52251689D01*
X58861514Y-52091239D01*
X58855000Y-52058493D01*
X58855000Y-51861507D01*
X58882359Y-51723966D01*
X58893429Y-51668311D01*
X58968811Y-51486322D01*
X59078249Y-51322537D01*
X59217537Y-51183249D01*
X59381322Y-51073811D01*
X59563311Y-50998429D01*
X59679230Y-50975372D01*
X59756507Y-50960000D01*
X59953493Y-50960000D01*
X60030770Y-50975372D01*
X60146689Y-50998429D01*
X60328678Y-51073811D01*
X60492463Y-51183249D01*
X60631751Y-51322537D01*
X60701074Y-51426285D01*
X60716612Y-51445219D01*
X60735554Y-51460764D01*
X60757165Y-51472315D01*
X60780614Y-51479428D01*
X60805000Y-51481830D01*
X60829387Y-51479428D01*
X60852836Y-51472315D01*
X60874446Y-51460764D01*
X60893389Y-51445218D01*
X60908926Y-51426285D01*
X60978249Y-51322537D01*
X61117537Y-51183249D01*
X61281322Y-51073811D01*
X61463311Y-50998429D01*
X61579230Y-50975372D01*
X61656507Y-50960000D01*
X61853493Y-50960000D01*
X61930770Y-50975372D01*
X62046689Y-50998429D01*
X62228678Y-51073811D01*
X62392463Y-51183249D01*
X62531751Y-51322537D01*
X62601074Y-51426285D01*
X62616612Y-51445219D01*
X62635554Y-51460764D01*
X62657165Y-51472315D01*
X62680614Y-51479428D01*
X62705000Y-51481830D01*
X62729387Y-51479428D01*
X62752836Y-51472315D01*
X62774446Y-51460764D01*
X62793389Y-51445218D01*
X62808926Y-51426285D01*
X62878249Y-51322537D01*
X63017537Y-51183249D01*
X63181322Y-51073811D01*
X63363311Y-50998429D01*
X63479230Y-50975372D01*
X63556507Y-50960000D01*
X63753493Y-50960000D01*
X63830770Y-50975372D01*
X63946689Y-50998429D01*
X64128678Y-51073811D01*
X64292463Y-51183249D01*
X64431751Y-51322537D01*
X64501074Y-51426285D01*
X64516612Y-51445219D01*
X64535554Y-51460764D01*
X64557165Y-51472315D01*
X64580614Y-51479428D01*
X64605000Y-51481830D01*
X64629387Y-51479428D01*
X64652836Y-51472315D01*
X64674446Y-51460764D01*
X64693389Y-51445218D01*
X64708926Y-51426285D01*
X64778249Y-51322537D01*
X64917537Y-51183249D01*
X65081322Y-51073811D01*
X65263311Y-50998429D01*
X65379230Y-50975372D01*
X65456507Y-50960000D01*
X65653493Y-50960000D01*
X65730770Y-50975372D01*
X65846689Y-50998429D01*
X66028678Y-51073811D01*
X66192463Y-51183249D01*
X66331751Y-51322537D01*
X66387408Y-51405834D01*
X66402942Y-51424762D01*
X66421884Y-51440307D01*
X66443495Y-51451859D01*
X66466944Y-51458972D01*
X66491331Y-51461374D01*
X66515717Y-51458972D01*
X66539166Y-51451859D01*
X66560777Y-51440308D01*
X66579719Y-51424763D01*
X66601571Y-51395299D01*
X66619508Y-51361741D01*
X66744472Y-51209472D01*
X66896740Y-51084509D01*
X67070463Y-50991652D01*
X67070465Y-50991651D01*
X67258966Y-50934470D01*
X67258967Y-50934470D01*
X67258970Y-50934469D01*
X67405876Y-50920000D01*
X67504124Y-50920000D01*
X67651030Y-50934469D01*
X67651030Y-50934469D01*
G37*
G36*
X102517500Y-49952500D02*
X102519902Y-49976886D01*
X102527015Y-50000335D01*
X102538566Y-50021946D01*
X102554112Y-50040888D01*
X102573054Y-50056434D01*
X102594665Y-50067985D01*
X102618114Y-50075098D01*
X102642500Y-50077500D01*
X103782500Y-50077500D01*
X103782500Y-52877500D01*
X101932500Y-52877500D01*
X101932500Y-50272500D01*
X101930098Y-50248114D01*
X101922985Y-50224665D01*
X101911434Y-50203054D01*
X101895888Y-50184112D01*
X101876946Y-50168566D01*
X101855335Y-50157015D01*
X101831886Y-50149902D01*
X101807500Y-50147500D01*
X101417500Y-50147500D01*
X101417500Y-48447500D01*
X102517500Y-48447500D01*
X102517500Y-49952500D01*
X102517500Y-49952500D01*
G37*
G36*
X100617500Y-50147500D02*
X99507500Y-50147500D01*
X99483114Y-50149902D01*
X99459665Y-50157015D01*
X99438054Y-50168566D01*
X99419112Y-50184112D01*
X99403566Y-50203054D01*
X99392015Y-50224665D01*
X99384902Y-50248114D01*
X99382500Y-50272500D01*
X99382500Y-52877500D01*
X97532500Y-52877500D01*
X97532500Y-50001242D01*
X97532985Y-50000335D01*
X97540098Y-49976886D01*
X97542500Y-49952500D01*
X97542500Y-48607500D01*
X99192500Y-48607500D01*
X99192500Y-49952500D01*
X99194902Y-49976886D01*
X99202015Y-50000335D01*
X99213566Y-50021946D01*
X99229112Y-50040888D01*
X99248054Y-50056434D01*
X99269665Y-50067985D01*
X99293114Y-50075098D01*
X99317500Y-50077500D01*
X99392500Y-50077500D01*
X99416886Y-50075098D01*
X99440335Y-50067985D01*
X99461946Y-50056434D01*
X99480888Y-50040888D01*
X99496434Y-50021946D01*
X99507985Y-50000335D01*
X99515098Y-49976886D01*
X99517500Y-49952500D01*
X99517500Y-48447500D01*
X100617500Y-48447500D01*
X100617500Y-50147500D01*
X100617500Y-50147500D01*
G37*
G36*
X76450000Y-52560000D02*
X71050000Y-52560000D01*
X71050000Y-50660000D01*
X76450000Y-50660000D01*
X76450000Y-52560000D01*
X76450000Y-52560000D01*
G37*
G36*
X86725000Y-51960000D02*
X80575000Y-51960000D01*
X80575000Y-50260000D01*
X86725000Y-50260000D01*
X86725000Y-51960000D01*
X86725000Y-51960000D01*
G37*
G36*
X106510021Y-49572086D02*
X106673809Y-49639929D01*
X106821220Y-49738426D01*
X106946574Y-49863780D01*
X107045071Y-50011191D01*
X107112914Y-50174979D01*
X107147500Y-50348856D01*
X107147500Y-50526144D01*
X107112914Y-50700021D01*
X107045071Y-50863809D01*
X106946574Y-51011220D01*
X106821220Y-51136574D01*
X106673809Y-51235071D01*
X106510021Y-51302914D01*
X106336144Y-51337500D01*
X106158856Y-51337500D01*
X105984979Y-51302914D01*
X105821191Y-51235071D01*
X105673780Y-51136574D01*
X105548426Y-51011220D01*
X105449929Y-50863809D01*
X105382086Y-50700021D01*
X105347500Y-50526144D01*
X105347500Y-50348856D01*
X105382086Y-50174979D01*
X105449929Y-50011191D01*
X105548426Y-49863780D01*
X105673780Y-49738426D01*
X105821191Y-49639929D01*
X105984979Y-49572086D01*
X106158856Y-49537500D01*
X106336144Y-49537500D01*
X106510021Y-49572086D01*
X106510021Y-49572086D01*
G37*
G36*
X111510021Y-49572086D02*
X111673809Y-49639929D01*
X111821220Y-49738426D01*
X111946574Y-49863780D01*
X112045071Y-50011191D01*
X112112914Y-50174979D01*
X112147500Y-50348856D01*
X112147500Y-50526144D01*
X112112914Y-50700021D01*
X112045071Y-50863809D01*
X111946574Y-51011220D01*
X111821220Y-51136574D01*
X111673809Y-51235071D01*
X111510021Y-51302914D01*
X111336144Y-51337500D01*
X111158856Y-51337500D01*
X110984979Y-51302914D01*
X110821191Y-51235071D01*
X110673780Y-51136574D01*
X110548426Y-51011220D01*
X110449929Y-50863809D01*
X110382086Y-50700021D01*
X110347500Y-50526144D01*
X110347500Y-50348856D01*
X110382086Y-50174979D01*
X110449929Y-50011191D01*
X110548426Y-49863780D01*
X110673780Y-49738426D01*
X110821191Y-49639929D01*
X110984979Y-49572086D01*
X111158856Y-49537500D01*
X111336144Y-49537500D01*
X111510021Y-49572086D01*
X111510021Y-49572086D01*
G37*
G36*
X88850000Y-49735000D02*
X88852402Y-49759386D01*
X88859515Y-49782835D01*
X88871066Y-49804446D01*
X88886612Y-49823388D01*
X88905554Y-49838934D01*
X88927165Y-49850485D01*
X88950614Y-49857598D01*
X88975000Y-49860000D01*
X89575000Y-49860000D01*
X89575000Y-51260000D01*
X87925000Y-51260000D01*
X87925000Y-49960000D01*
X87922598Y-49935614D01*
X87915485Y-49912165D01*
X87903934Y-49890554D01*
X87888388Y-49871612D01*
X87869446Y-49856066D01*
X87847835Y-49844515D01*
X87824386Y-49837402D01*
X87800000Y-49835000D01*
X87150000Y-49835000D01*
X87150000Y-43685000D01*
X88850000Y-43685000D01*
X88850000Y-49735000D01*
X88850000Y-49735000D01*
G37*
G36*
X92857500Y-49127500D02*
X91912500Y-49127500D01*
X91888114Y-49129902D01*
X91864665Y-49137015D01*
X91843054Y-49148566D01*
X91824112Y-49164112D01*
X91808566Y-49183054D01*
X91797015Y-49204665D01*
X91789902Y-49228114D01*
X91787500Y-49252500D01*
X91787500Y-49311068D01*
X91777714Y-49360265D01*
X91750992Y-49494605D01*
X91750991Y-49494608D01*
X91749423Y-49502490D01*
X91746962Y-49510601D01*
X91744558Y-49534987D01*
X91746957Y-49559373D01*
X91754068Y-49582823D01*
X91765617Y-49604435D01*
X91781160Y-49623379D01*
X91800101Y-49638926D01*
X91821710Y-49650480D01*
X91845159Y-49657596D01*
X91869558Y-49660000D01*
X93300000Y-49660000D01*
X93300000Y-51060000D01*
X91650000Y-51060000D01*
X91650000Y-50050279D01*
X91647598Y-50025893D01*
X91640485Y-50002444D01*
X91628934Y-49980833D01*
X91613388Y-49961891D01*
X91594446Y-49946345D01*
X91572835Y-49934794D01*
X91549386Y-49927681D01*
X91525000Y-49925279D01*
X91500614Y-49927681D01*
X91477165Y-49934794D01*
X91455554Y-49946345D01*
X91450707Y-49950323D01*
X91443092Y-49955411D01*
X91443090Y-49955413D01*
X91287494Y-50059379D01*
X91114605Y-50130992D01*
X90976952Y-50158373D01*
X90931068Y-50167500D01*
X90743932Y-50167500D01*
X90698048Y-50158373D01*
X90560395Y-50130992D01*
X90387506Y-50059379D01*
X90231910Y-49955413D01*
X90099587Y-49823090D01*
X89995621Y-49667494D01*
X89924008Y-49494605D01*
X89896627Y-49356951D01*
X89887500Y-49311068D01*
X89887500Y-49123932D01*
X89912152Y-49000000D01*
X89924008Y-48940395D01*
X89995621Y-48767506D01*
X90099587Y-48611910D01*
X90231910Y-48479587D01*
X90387506Y-48375621D01*
X90560395Y-48304008D01*
X90698049Y-48276627D01*
X90743932Y-48267500D01*
X90931068Y-48267500D01*
X90976951Y-48276627D01*
X91114605Y-48304008D01*
X91287494Y-48375621D01*
X91443090Y-48479587D01*
X91544112Y-48580609D01*
X91563054Y-48596155D01*
X91584665Y-48607706D01*
X91608114Y-48614819D01*
X91632500Y-48617221D01*
X91656886Y-48614819D01*
X91680335Y-48607706D01*
X91701946Y-48596155D01*
X91720888Y-48580609D01*
X91736434Y-48561667D01*
X91747985Y-48540056D01*
X91755098Y-48516607D01*
X91757500Y-48492221D01*
X91757500Y-47427500D01*
X92857500Y-47427500D01*
X92857500Y-49127500D01*
X92857500Y-49127500D01*
G37*
G36*
X94757500Y-48532221D02*
X94759902Y-48556607D01*
X94767015Y-48580056D01*
X94778566Y-48601667D01*
X94794112Y-48620609D01*
X94813054Y-48636155D01*
X94834665Y-48647706D01*
X94858114Y-48654819D01*
X94882500Y-48657221D01*
X94906886Y-48654819D01*
X94930335Y-48647706D01*
X94951946Y-48636155D01*
X94970888Y-48620609D01*
X95111910Y-48479587D01*
X95267506Y-48375621D01*
X95440395Y-48304008D01*
X95578049Y-48276627D01*
X95623932Y-48267500D01*
X95811068Y-48267500D01*
X95856951Y-48276627D01*
X95994605Y-48304008D01*
X96167494Y-48375621D01*
X96323090Y-48479587D01*
X96455413Y-48611910D01*
X96559379Y-48767506D01*
X96630992Y-48940395D01*
X96642848Y-49000000D01*
X96667500Y-49123932D01*
X96667500Y-49311068D01*
X96658373Y-49356951D01*
X96630992Y-49494605D01*
X96559379Y-49667494D01*
X96455413Y-49823090D01*
X96323090Y-49955413D01*
X96167494Y-50059379D01*
X95994605Y-50130992D01*
X95856952Y-50158373D01*
X95811068Y-50167500D01*
X95623932Y-50167500D01*
X95499386Y-50142726D01*
X95475000Y-50140324D01*
X95450614Y-50142726D01*
X95427165Y-50149839D01*
X95405554Y-50161390D01*
X95386612Y-50176936D01*
X95371066Y-50195878D01*
X95359515Y-50217488D01*
X95352402Y-50240938D01*
X95350000Y-50265324D01*
X95350000Y-51060000D01*
X93700000Y-51060000D01*
X93700000Y-49660000D01*
X94685442Y-49660000D01*
X94709828Y-49657598D01*
X94733277Y-49650485D01*
X94754888Y-49638934D01*
X94773830Y-49623388D01*
X94789376Y-49604446D01*
X94800927Y-49582835D01*
X94808040Y-49559386D01*
X94810442Y-49535000D01*
X94808040Y-49510614D01*
X94805579Y-49502502D01*
X94804008Y-49494602D01*
X94787072Y-49409461D01*
X94767500Y-49311068D01*
X94767500Y-49252500D01*
X94765098Y-49228114D01*
X94757985Y-49204665D01*
X94746434Y-49183054D01*
X94730888Y-49164112D01*
X94711946Y-49148566D01*
X94690335Y-49137015D01*
X94666886Y-49129902D01*
X94642500Y-49127500D01*
X93657500Y-49127500D01*
X93657500Y-47427500D01*
X94757500Y-47427500D01*
X94757500Y-48532221D01*
X94757500Y-48532221D01*
G37*
G36*
X80150000Y-49835000D02*
X78450000Y-49835000D01*
X78450000Y-43685000D01*
X80150000Y-43685000D01*
X80150000Y-49835000D01*
X80150000Y-49835000D01*
G37*
G36*
X112804526Y-45568352D02*
X112945900Y-45611238D01*
X113076190Y-45680878D01*
X113190399Y-45774607D01*
X113284120Y-45888806D01*
X113353762Y-46019099D01*
X113396648Y-46160473D01*
X113407500Y-46270661D01*
X113407500Y-47444339D01*
X113396648Y-47554527D01*
X113353762Y-47695901D01*
X113284120Y-47826194D01*
X113190396Y-47940396D01*
X113076194Y-48034120D01*
X112945901Y-48103762D01*
X112804527Y-48146648D01*
X112657500Y-48161128D01*
X112510474Y-48146648D01*
X112369100Y-48103762D01*
X112238807Y-48034120D01*
X112124605Y-47940396D01*
X112030881Y-47826194D01*
X111961239Y-47695901D01*
X111918353Y-47554527D01*
X111907501Y-47444339D01*
X111907500Y-46270662D01*
X111918352Y-46160474D01*
X111961238Y-46019100D01*
X112030878Y-45888810D01*
X112124607Y-45774601D01*
X112238806Y-45680880D01*
X112369099Y-45611238D01*
X112510473Y-45568352D01*
X112657500Y-45553872D01*
X112804526Y-45568352D01*
X112804526Y-45568352D01*
G37*
G36*
X103407500Y-48157500D02*
X101907500Y-48157500D01*
X101907500Y-45557500D01*
X103407500Y-45557500D01*
X103407500Y-48157500D01*
X103407500Y-48157500D01*
G37*
G36*
X99417500Y-44077500D02*
X98342500Y-44077500D01*
X98318114Y-44079902D01*
X98294665Y-44087015D01*
X98273054Y-44098566D01*
X98254112Y-44114112D01*
X98238566Y-44133054D01*
X98227015Y-44154665D01*
X98219902Y-44178114D01*
X98217500Y-44202500D01*
X98217500Y-44762500D01*
X98219902Y-44786886D01*
X98227015Y-44810335D01*
X98238566Y-44831946D01*
X98254112Y-44850888D01*
X98273054Y-44866434D01*
X98294665Y-44877985D01*
X98318114Y-44885098D01*
X98342500Y-44887500D01*
X99417500Y-44887500D01*
X99417500Y-46587500D01*
X99317500Y-46587500D01*
X99293114Y-46589902D01*
X99269665Y-46597015D01*
X99248054Y-46608566D01*
X99229112Y-46624112D01*
X99213566Y-46643054D01*
X99202015Y-46664665D01*
X99194902Y-46688114D01*
X99192500Y-46712500D01*
X99192500Y-48007500D01*
X97542500Y-48007500D01*
X97542500Y-46712500D01*
X97540098Y-46688114D01*
X97532985Y-46664665D01*
X97521434Y-46643054D01*
X97505888Y-46624112D01*
X97486946Y-46608566D01*
X97465335Y-46597015D01*
X97441886Y-46589902D01*
X97417500Y-46587500D01*
X97107500Y-46587500D01*
X97107500Y-44811242D01*
X97107985Y-44810335D01*
X97115098Y-44786886D01*
X97117500Y-44762500D01*
X97117500Y-43007500D01*
X98192500Y-43007500D01*
X98216886Y-43005098D01*
X98240335Y-42997985D01*
X98261946Y-42986434D01*
X98280888Y-42970888D01*
X98296434Y-42951946D01*
X98307985Y-42930335D01*
X98315098Y-42906886D01*
X98317500Y-42882500D01*
X98317500Y-42377500D01*
X99417500Y-42377500D01*
X99417500Y-44077500D01*
X99417500Y-44077500D01*
G37*
G36*
X27477500Y-47807500D02*
X25577500Y-47807500D01*
X25577500Y-46007500D01*
X27477500Y-46007500D01*
X27477500Y-47807500D01*
X27477500Y-47807500D01*
G37*
G36*
X31547500Y-47777500D02*
X29647500Y-47777500D01*
X29647500Y-45977500D01*
X31547500Y-45977500D01*
X31547500Y-47777500D01*
X31547500Y-47777500D01*
G37*
G36*
X76450000Y-46660000D02*
X71050000Y-46660000D01*
X71050000Y-44760000D01*
X76450000Y-44760000D01*
X76450000Y-46660000D01*
X76450000Y-46660000D01*
G37*
G36*
X95117500Y-42882500D02*
X95119902Y-42906886D01*
X95127015Y-42930335D01*
X95138566Y-42951946D01*
X95154112Y-42970888D01*
X95173054Y-42986434D01*
X95194665Y-42997985D01*
X95218114Y-43005098D01*
X95242500Y-43007500D01*
X96317500Y-43007500D01*
X96317500Y-44783758D01*
X96317015Y-44784665D01*
X96309902Y-44808114D01*
X96307500Y-44832500D01*
X96307500Y-46587500D01*
X95242500Y-46587500D01*
X95218114Y-46589902D01*
X95194665Y-46597015D01*
X95175048Y-46607500D01*
X94017500Y-46607500D01*
X94017500Y-41107500D01*
X95117500Y-41107500D01*
X95117500Y-42882500D01*
X95117500Y-42882500D01*
G37*
G36*
X93217500Y-46607500D02*
X92117500Y-46607500D01*
X92117500Y-45473276D01*
X92115098Y-45448890D01*
X92107985Y-45425441D01*
X92096434Y-45403830D01*
X92080888Y-45384888D01*
X92061946Y-45369342D01*
X92040335Y-45357791D01*
X92016886Y-45350678D01*
X91992500Y-45348276D01*
X91968114Y-45350678D01*
X91944665Y-45357791D01*
X91923054Y-45369342D01*
X91904112Y-45384888D01*
X91888566Y-45403830D01*
X91877015Y-45425441D01*
X91870332Y-45441575D01*
X91865444Y-45448890D01*
X91793726Y-45556224D01*
X91696224Y-45653726D01*
X91581574Y-45730332D01*
X91454183Y-45783100D01*
X91318945Y-45810000D01*
X91181055Y-45810000D01*
X91045817Y-45783100D01*
X90918426Y-45730332D01*
X90803776Y-45653726D01*
X90706274Y-45556224D01*
X90629668Y-45441574D01*
X90576900Y-45314183D01*
X90550000Y-45178945D01*
X90550000Y-45041055D01*
X90576900Y-44905817D01*
X90629668Y-44778426D01*
X90641980Y-44760000D01*
X90706274Y-44663776D01*
X90803776Y-44566274D01*
X90918426Y-44489668D01*
X90923201Y-44487690D01*
X91045817Y-44436900D01*
X91181055Y-44410000D01*
X91318945Y-44410000D01*
X91454183Y-44436900D01*
X91581574Y-44489668D01*
X91696225Y-44566275D01*
X91793725Y-44663775D01*
X91870332Y-44778425D01*
X91877015Y-44794559D01*
X91888566Y-44816170D01*
X91904111Y-44835112D01*
X91923053Y-44850657D01*
X91944664Y-44862209D01*
X91968113Y-44869322D01*
X91992499Y-44871724D01*
X92016886Y-44869322D01*
X92040335Y-44862209D01*
X92061946Y-44850658D01*
X92080888Y-44835113D01*
X92096433Y-44816171D01*
X92107985Y-44794560D01*
X92115098Y-44771111D01*
X92117500Y-44746724D01*
X92117500Y-43573276D01*
X92115098Y-43548890D01*
X92107985Y-43525441D01*
X92096434Y-43503830D01*
X92080888Y-43484888D01*
X92061946Y-43469342D01*
X92040335Y-43457791D01*
X92016886Y-43450678D01*
X91992500Y-43448276D01*
X91968114Y-43450678D01*
X91944665Y-43457791D01*
X91923054Y-43469342D01*
X91904112Y-43484888D01*
X91888566Y-43503830D01*
X91877015Y-43525441D01*
X91870332Y-43541575D01*
X91793725Y-43656225D01*
X91696225Y-43753725D01*
X91581574Y-43830332D01*
X91454183Y-43883100D01*
X91318945Y-43910000D01*
X91181055Y-43910000D01*
X91045817Y-43883100D01*
X90918426Y-43830332D01*
X90803775Y-43753725D01*
X90706275Y-43656225D01*
X90650851Y-43573276D01*
X90629668Y-43541574D01*
X90576900Y-43414183D01*
X90550000Y-43278945D01*
X90550000Y-43141058D01*
X90550929Y-43136388D01*
X90553331Y-43112002D01*
X90550929Y-43087615D01*
X90543817Y-43064166D01*
X90532266Y-43042555D01*
X90516720Y-43023613D01*
X90497779Y-43008067D01*
X90476168Y-42996516D01*
X90452719Y-42989402D01*
X90428331Y-42987000D01*
X89004000Y-42987000D01*
X89004000Y-41337000D01*
X90404000Y-41337000D01*
X90404000Y-42804091D01*
X90406402Y-42828477D01*
X90413515Y-42851926D01*
X90425066Y-42873537D01*
X90440612Y-42892479D01*
X90459554Y-42908025D01*
X90481165Y-42919576D01*
X90504614Y-42926689D01*
X90529000Y-42929091D01*
X90553386Y-42926689D01*
X90576835Y-42919576D01*
X90598446Y-42908025D01*
X90617388Y-42892479D01*
X90632933Y-42873538D01*
X90706275Y-42763775D01*
X90803775Y-42666275D01*
X90816908Y-42657500D01*
X90918426Y-42589668D01*
X91045817Y-42536900D01*
X91181055Y-42510000D01*
X91318945Y-42510000D01*
X91454183Y-42536900D01*
X91581574Y-42589668D01*
X91683093Y-42657500D01*
X91696225Y-42666275D01*
X91793725Y-42763775D01*
X91870332Y-42878425D01*
X91877015Y-42894559D01*
X91888566Y-42916170D01*
X91904111Y-42935112D01*
X91923053Y-42950657D01*
X91944664Y-42962209D01*
X91968113Y-42969322D01*
X91992499Y-42971724D01*
X92016886Y-42969322D01*
X92040335Y-42962209D01*
X92061946Y-42950658D01*
X92080888Y-42935113D01*
X92096433Y-42916171D01*
X92107985Y-42894560D01*
X92115098Y-42871111D01*
X92117500Y-42846724D01*
X92117500Y-41107500D01*
X93217500Y-41107500D01*
X93217500Y-46607500D01*
X93217500Y-46607500D01*
G37*
G36*
X101317500Y-46587500D02*
X100217500Y-46587500D01*
X100217500Y-44887500D01*
X101317500Y-44887500D01*
X101317500Y-46587500D01*
X101317500Y-46587500D01*
G37*
G36*
X44500000Y-22482500D02*
X44502402Y-22506886D01*
X44509515Y-22530335D01*
X44521066Y-22551946D01*
X44536612Y-22570888D01*
X44555554Y-22586434D01*
X44577165Y-22597985D01*
X44600614Y-22605098D01*
X44625000Y-22607500D01*
X44817500Y-22607500D01*
X44817500Y-25217500D01*
X44625000Y-25217500D01*
X44600614Y-25219902D01*
X44577165Y-25227015D01*
X44555554Y-25238566D01*
X44536612Y-25254112D01*
X44521066Y-25273054D01*
X44509515Y-25294665D01*
X44502402Y-25318114D01*
X44500000Y-25342500D01*
X44500000Y-38372500D01*
X44502402Y-38396886D01*
X44509515Y-38420335D01*
X44521066Y-38441946D01*
X44536612Y-38460888D01*
X44555554Y-38476434D01*
X44577165Y-38487985D01*
X44600614Y-38495098D01*
X44625000Y-38497500D01*
X44817500Y-38497500D01*
X44817500Y-41107500D01*
X44625000Y-41107500D01*
X44600614Y-41109902D01*
X44577165Y-41117015D01*
X44555554Y-41128566D01*
X44536612Y-41144112D01*
X44521066Y-41163054D01*
X44509515Y-41184665D01*
X44502402Y-41208114D01*
X44500000Y-41232500D01*
X44500000Y-44500000D01*
X16500000Y-44500000D01*
X16500000Y-19500000D01*
X44500000Y-19500000D01*
X44500000Y-22482500D01*
X44500000Y-22482500D01*
G37*
G36*
X101317500Y-44077500D02*
X100217500Y-44077500D01*
X100217500Y-42377500D01*
X101317500Y-42377500D01*
X101317500Y-44077500D01*
X101317500Y-44077500D01*
G37*
G36*
X75980000Y-43860000D02*
X72430000Y-43860000D01*
X72430000Y-42460000D01*
X75980000Y-42460000D01*
X75980000Y-43860000D01*
X75980000Y-43860000D01*
G37*
G36*
X112892500Y-43857500D02*
X111592500Y-43857500D01*
X111592500Y-42657500D01*
X112892500Y-42657500D01*
X112892500Y-43857500D01*
X112892500Y-43857500D01*
G37*
G36*
X86725000Y-43260000D02*
X80575000Y-43260000D01*
X80575000Y-41560000D01*
X86725000Y-41560000D01*
X86725000Y-43260000D01*
X86725000Y-43260000D01*
G37*
G36*
X80250000Y-43185000D02*
X78850000Y-43185000D01*
X78850000Y-41535000D01*
X80250000Y-41535000D01*
X80250000Y-43185000D01*
X80250000Y-43185000D01*
G37*
G36*
X78250000Y-43185000D02*
X76850000Y-43185000D01*
X76850000Y-41535000D01*
X78250000Y-41535000D01*
X78250000Y-43185000D01*
X78250000Y-43185000D01*
G37*
G36*
X88404000Y-42987000D02*
X87004000Y-42987000D01*
X87004000Y-41337000D01*
X88404000Y-41337000D01*
X88404000Y-42987000D01*
X88404000Y-42987000D01*
G37*
G36*
X110892500Y-42907500D02*
X109592500Y-42907500D01*
X109592500Y-41707500D01*
X110892500Y-41707500D01*
X110892500Y-42907500D01*
X110892500Y-42907500D01*
G37*
G36*
X67630770Y-40775372D02*
X67746689Y-40798429D01*
X67928678Y-40873811D01*
X68092463Y-40983249D01*
X68231751Y-41122537D01*
X68301074Y-41226285D01*
X68316612Y-41245219D01*
X68335554Y-41260764D01*
X68357165Y-41272315D01*
X68380614Y-41279428D01*
X68405000Y-41281830D01*
X68429387Y-41279428D01*
X68452836Y-41272315D01*
X68474446Y-41260764D01*
X68493389Y-41245218D01*
X68508926Y-41226285D01*
X68578249Y-41122537D01*
X68717537Y-40983249D01*
X68881322Y-40873811D01*
X69063311Y-40798429D01*
X69179230Y-40775372D01*
X69256507Y-40760000D01*
X69453493Y-40760000D01*
X69530770Y-40775372D01*
X69646689Y-40798429D01*
X69828678Y-40873811D01*
X69992463Y-40983249D01*
X70131751Y-41122537D01*
X70241189Y-41286322D01*
X70316571Y-41468311D01*
X70355000Y-41661509D01*
X70355000Y-41858491D01*
X70316571Y-42051689D01*
X70241189Y-42233678D01*
X70131751Y-42397463D01*
X69992463Y-42536751D01*
X69828678Y-42646189D01*
X69646689Y-42721571D01*
X69530770Y-42744628D01*
X69453493Y-42760000D01*
X69256507Y-42760000D01*
X69179230Y-42744628D01*
X69063311Y-42721571D01*
X68881322Y-42646189D01*
X68717537Y-42536751D01*
X68578249Y-42397463D01*
X68508926Y-42293715D01*
X68493388Y-42274781D01*
X68474446Y-42259236D01*
X68452835Y-42247685D01*
X68429386Y-42240572D01*
X68405000Y-42238170D01*
X68380613Y-42240572D01*
X68357164Y-42247685D01*
X68335554Y-42259236D01*
X68316611Y-42274782D01*
X68301074Y-42293715D01*
X68231751Y-42397463D01*
X68092463Y-42536751D01*
X67928678Y-42646189D01*
X67746689Y-42721571D01*
X67630770Y-42744628D01*
X67553493Y-42760000D01*
X67356507Y-42760000D01*
X67279230Y-42744628D01*
X67163311Y-42721571D01*
X66981322Y-42646189D01*
X66817537Y-42536751D01*
X66678249Y-42397463D01*
X66622592Y-42314166D01*
X66607058Y-42295238D01*
X66588116Y-42279693D01*
X66566505Y-42268141D01*
X66543056Y-42261028D01*
X66518669Y-42258626D01*
X66494283Y-42261028D01*
X66470834Y-42268141D01*
X66449223Y-42279692D01*
X66430281Y-42295237D01*
X66408429Y-42324701D01*
X66390492Y-42358259D01*
X66265528Y-42510528D01*
X66113260Y-42635491D01*
X66072084Y-42657500D01*
X65939535Y-42728349D01*
X65751034Y-42785530D01*
X65751033Y-42785530D01*
X65751030Y-42785531D01*
X65604124Y-42800000D01*
X65505876Y-42800000D01*
X65358970Y-42785531D01*
X65358967Y-42785530D01*
X65358966Y-42785530D01*
X65170465Y-42728349D01*
X65037916Y-42657500D01*
X64996740Y-42635491D01*
X64844472Y-42510528D01*
X64719507Y-42358257D01*
X64715239Y-42350273D01*
X64701625Y-42329899D01*
X64684298Y-42312572D01*
X64663923Y-42298958D01*
X64641284Y-42289581D01*
X64617251Y-42284801D01*
X64592746Y-42284801D01*
X64568713Y-42289582D01*
X64546074Y-42298960D01*
X64525700Y-42312574D01*
X64508373Y-42329901D01*
X64494761Y-42350273D01*
X64490493Y-42358257D01*
X64365528Y-42510528D01*
X64213260Y-42635491D01*
X64172084Y-42657500D01*
X64039535Y-42728349D01*
X63851034Y-42785530D01*
X63851033Y-42785530D01*
X63851030Y-42785531D01*
X63704124Y-42800000D01*
X63605876Y-42800000D01*
X63458970Y-42785531D01*
X63458967Y-42785530D01*
X63458966Y-42785530D01*
X63270465Y-42728349D01*
X63137916Y-42657500D01*
X63096740Y-42635491D01*
X62944472Y-42510528D01*
X62819507Y-42358257D01*
X62815239Y-42350273D01*
X62801625Y-42329899D01*
X62784298Y-42312572D01*
X62763923Y-42298958D01*
X62741284Y-42289581D01*
X62717251Y-42284801D01*
X62692746Y-42284801D01*
X62668713Y-42289582D01*
X62646074Y-42298960D01*
X62625700Y-42312574D01*
X62608373Y-42329901D01*
X62594761Y-42350273D01*
X62590493Y-42358257D01*
X62465528Y-42510528D01*
X62313260Y-42635491D01*
X62272084Y-42657500D01*
X62139535Y-42728349D01*
X61951034Y-42785530D01*
X61951033Y-42785530D01*
X61951030Y-42785531D01*
X61804124Y-42800000D01*
X61705876Y-42800000D01*
X61558970Y-42785531D01*
X61558967Y-42785530D01*
X61558966Y-42785530D01*
X61370465Y-42728349D01*
X61237916Y-42657500D01*
X61196740Y-42635491D01*
X61044472Y-42510528D01*
X60919507Y-42358257D01*
X60915239Y-42350273D01*
X60901625Y-42329899D01*
X60884298Y-42312572D01*
X60863923Y-42298958D01*
X60841284Y-42289581D01*
X60817251Y-42284801D01*
X60792746Y-42284801D01*
X60768713Y-42289582D01*
X60746074Y-42298960D01*
X60725700Y-42312574D01*
X60708373Y-42329901D01*
X60694761Y-42350273D01*
X60690493Y-42358257D01*
X60565528Y-42510528D01*
X60413260Y-42635491D01*
X60372084Y-42657500D01*
X60239535Y-42728349D01*
X60051034Y-42785530D01*
X60051033Y-42785530D01*
X60051030Y-42785531D01*
X59904124Y-42800000D01*
X59805876Y-42800000D01*
X59658970Y-42785531D01*
X59658967Y-42785530D01*
X59658966Y-42785530D01*
X59470465Y-42728349D01*
X59337916Y-42657500D01*
X59296740Y-42635491D01*
X59144472Y-42510528D01*
X59019509Y-42358260D01*
X58926652Y-42184537D01*
X58869469Y-41996030D01*
X58850162Y-41800000D01*
X58869469Y-41603970D01*
X58890391Y-41535000D01*
X58926651Y-41415465D01*
X58987811Y-41301042D01*
X59019509Y-41241740D01*
X59144472Y-41089472D01*
X59296740Y-40964509D01*
X59470463Y-40871652D01*
X59470465Y-40871651D01*
X59658966Y-40814470D01*
X59658967Y-40814470D01*
X59658970Y-40814469D01*
X59805876Y-40800000D01*
X59904124Y-40800000D01*
X60051030Y-40814469D01*
X60051033Y-40814470D01*
X60051034Y-40814470D01*
X60239535Y-40871651D01*
X60239537Y-40871652D01*
X60413260Y-40964509D01*
X60565528Y-41089472D01*
X60690493Y-41241743D01*
X60694761Y-41249727D01*
X60708375Y-41270101D01*
X60725702Y-41287428D01*
X60746077Y-41301042D01*
X60768716Y-41310419D01*
X60792749Y-41315199D01*
X60817254Y-41315199D01*
X60841287Y-41310418D01*
X60863926Y-41301040D01*
X60884300Y-41287426D01*
X60901627Y-41270099D01*
X60915239Y-41249727D01*
X60919507Y-41241743D01*
X61044472Y-41089472D01*
X61196740Y-40964509D01*
X61370463Y-40871652D01*
X61370465Y-40871651D01*
X61558966Y-40814470D01*
X61558967Y-40814470D01*
X61558970Y-40814469D01*
X61705876Y-40800000D01*
X61804124Y-40800000D01*
X61951030Y-40814469D01*
X61951033Y-40814470D01*
X61951034Y-40814470D01*
X62139535Y-40871651D01*
X62139537Y-40871652D01*
X62313260Y-40964509D01*
X62465528Y-41089472D01*
X62590493Y-41241743D01*
X62594761Y-41249727D01*
X62608375Y-41270101D01*
X62625702Y-41287428D01*
X62646077Y-41301042D01*
X62668716Y-41310419D01*
X62692749Y-41315199D01*
X62717254Y-41315199D01*
X62741287Y-41310418D01*
X62763926Y-41301040D01*
X62784300Y-41287426D01*
X62801627Y-41270099D01*
X62815239Y-41249727D01*
X62819507Y-41241743D01*
X62944472Y-41089472D01*
X63096740Y-40964509D01*
X63270463Y-40871652D01*
X63270465Y-40871651D01*
X63458966Y-40814470D01*
X63458967Y-40814470D01*
X63458970Y-40814469D01*
X63605876Y-40800000D01*
X63704124Y-40800000D01*
X63851030Y-40814469D01*
X63851033Y-40814470D01*
X63851034Y-40814470D01*
X64039535Y-40871651D01*
X64039537Y-40871652D01*
X64213260Y-40964509D01*
X64365528Y-41089472D01*
X64490493Y-41241743D01*
X64494761Y-41249727D01*
X64508375Y-41270101D01*
X64525702Y-41287428D01*
X64546077Y-41301042D01*
X64568716Y-41310419D01*
X64592749Y-41315199D01*
X64617254Y-41315199D01*
X64641287Y-41310418D01*
X64663926Y-41301040D01*
X64684300Y-41287426D01*
X64701627Y-41270099D01*
X64715239Y-41249727D01*
X64719507Y-41241743D01*
X64844472Y-41089472D01*
X64996740Y-40964509D01*
X65170463Y-40871652D01*
X65170465Y-40871651D01*
X65358966Y-40814470D01*
X65358967Y-40814470D01*
X65358970Y-40814469D01*
X65505876Y-40800000D01*
X65604124Y-40800000D01*
X65751030Y-40814469D01*
X65751033Y-40814470D01*
X65751034Y-40814470D01*
X65939535Y-40871651D01*
X65939537Y-40871652D01*
X66113260Y-40964509D01*
X66265528Y-41089472D01*
X66398282Y-41251233D01*
X66415609Y-41268560D01*
X66435983Y-41282174D01*
X66458622Y-41291552D01*
X66482656Y-41296332D01*
X66507160Y-41296332D01*
X66531193Y-41291552D01*
X66553833Y-41282174D01*
X66574207Y-41268560D01*
X66598836Y-41241387D01*
X66678249Y-41122537D01*
X66817537Y-40983249D01*
X66981322Y-40873811D01*
X67163311Y-40798429D01*
X67279230Y-40775372D01*
X67356507Y-40760000D01*
X67553493Y-40760000D01*
X67630770Y-40775372D01*
X67630770Y-40775372D01*
G37*
G36*
X112892500Y-41957500D02*
X111592500Y-41957500D01*
X111592500Y-40806281D01*
X111590098Y-40781895D01*
X111582985Y-40758446D01*
X111582479Y-40757500D01*
X112892500Y-40757500D01*
X112892500Y-41957500D01*
X112892500Y-41957500D01*
G37*
G36*
X75980000Y-41860000D02*
X72430000Y-41860000D01*
X72430000Y-40460000D01*
X75980000Y-40460000D01*
X75980000Y-41860000D01*
X75980000Y-41860000D01*
G37*
G36*
X110730857Y-39126272D02*
X110931042Y-39209191D01*
X110931045Y-39209193D01*
X111093735Y-39317899D01*
X111111213Y-39329578D01*
X111264422Y-39482787D01*
X111264424Y-39482790D01*
X111264425Y-39482791D01*
X111297373Y-39532101D01*
X111384809Y-39662958D01*
X111467728Y-39863143D01*
X111510000Y-40075658D01*
X111510000Y-40292342D01*
X111467728Y-40504858D01*
X111434671Y-40584665D01*
X111427558Y-40608114D01*
X111425156Y-40632500D01*
X111427558Y-40656887D01*
X111434671Y-40680336D01*
X111437388Y-40685420D01*
X111419665Y-40690796D01*
X111398054Y-40702347D01*
X111379112Y-40717893D01*
X111363567Y-40736833D01*
X111273484Y-40871652D01*
X111264422Y-40885213D01*
X111111213Y-41038422D01*
X110931042Y-41158809D01*
X110730857Y-41241728D01*
X110518342Y-41284000D01*
X110301658Y-41284000D01*
X110089143Y-41241728D01*
X109888958Y-41158809D01*
X109708787Y-41038422D01*
X109555578Y-40885213D01*
X109546517Y-40871652D01*
X109435193Y-40705045D01*
X109435191Y-40705042D01*
X109352272Y-40504857D01*
X109310000Y-40292342D01*
X109310000Y-40075658D01*
X109352272Y-39863143D01*
X109435191Y-39662958D01*
X109522627Y-39532101D01*
X109555575Y-39482791D01*
X109555576Y-39482790D01*
X109555578Y-39482787D01*
X109708787Y-39329578D01*
X109726266Y-39317899D01*
X109888955Y-39209193D01*
X109888958Y-39209191D01*
X110089143Y-39126272D01*
X110301658Y-39084000D01*
X110518342Y-39084000D01*
X110730857Y-39126272D01*
X110730857Y-39126272D01*
G37*
G36*
X108190857Y-39126272D02*
X108391042Y-39209191D01*
X108391045Y-39209193D01*
X108553735Y-39317899D01*
X108571213Y-39329578D01*
X108724422Y-39482787D01*
X108724424Y-39482790D01*
X108724425Y-39482791D01*
X108757373Y-39532101D01*
X108844809Y-39662958D01*
X108927728Y-39863143D01*
X108970000Y-40075658D01*
X108970000Y-40292342D01*
X108927728Y-40504857D01*
X108844809Y-40705042D01*
X108844807Y-40705045D01*
X108733484Y-40871652D01*
X108724422Y-40885213D01*
X108571213Y-41038422D01*
X108391042Y-41158809D01*
X108190857Y-41241728D01*
X107978342Y-41284000D01*
X107761658Y-41284000D01*
X107549143Y-41241728D01*
X107348958Y-41158809D01*
X107168787Y-41038422D01*
X107015578Y-40885213D01*
X107006517Y-40871652D01*
X106895193Y-40705045D01*
X106895191Y-40705042D01*
X106812272Y-40504857D01*
X106770000Y-40292342D01*
X106770000Y-40075658D01*
X106812272Y-39863143D01*
X106895191Y-39662958D01*
X106982627Y-39532101D01*
X107015575Y-39482791D01*
X107015576Y-39482790D01*
X107015578Y-39482787D01*
X107168787Y-39329578D01*
X107186266Y-39317899D01*
X107348955Y-39209193D01*
X107348958Y-39209191D01*
X107549143Y-39126272D01*
X107761658Y-39084000D01*
X107978342Y-39084000D01*
X108190857Y-39126272D01*
X108190857Y-39126272D01*
G37*
G36*
X105650857Y-39126272D02*
X105851042Y-39209191D01*
X105851045Y-39209193D01*
X106013735Y-39317899D01*
X106031213Y-39329578D01*
X106184422Y-39482787D01*
X106184424Y-39482790D01*
X106184425Y-39482791D01*
X106217373Y-39532101D01*
X106304809Y-39662958D01*
X106387728Y-39863143D01*
X106430000Y-40075658D01*
X106430000Y-40292342D01*
X106387728Y-40504857D01*
X106304809Y-40705042D01*
X106304807Y-40705045D01*
X106193484Y-40871652D01*
X106184422Y-40885213D01*
X106031213Y-41038422D01*
X105851042Y-41158809D01*
X105650857Y-41241728D01*
X105438342Y-41284000D01*
X105221658Y-41284000D01*
X105009143Y-41241728D01*
X104808958Y-41158809D01*
X104628787Y-41038422D01*
X104475578Y-40885213D01*
X104466517Y-40871652D01*
X104355193Y-40705045D01*
X104355191Y-40705042D01*
X104272272Y-40504857D01*
X104230000Y-40292342D01*
X104230000Y-40075658D01*
X104272272Y-39863143D01*
X104355191Y-39662958D01*
X104442627Y-39532101D01*
X104475575Y-39482791D01*
X104475576Y-39482790D01*
X104475578Y-39482787D01*
X104628787Y-39329578D01*
X104646266Y-39317899D01*
X104808955Y-39209193D01*
X104808958Y-39209191D01*
X105009143Y-39126272D01*
X105221658Y-39084000D01*
X105438342Y-39084000D01*
X105650857Y-39126272D01*
X105650857Y-39126272D01*
G37*
G36*
X48345857Y-37473272D02*
X48546042Y-37556191D01*
X48726213Y-37676578D01*
X48879422Y-37829787D01*
X48879424Y-37829790D01*
X48879425Y-37829791D01*
X48964758Y-37957500D01*
X48999809Y-38009958D01*
X49082728Y-38210143D01*
X49125000Y-38422658D01*
X49125000Y-38639342D01*
X49082728Y-38851857D01*
X48999809Y-39052042D01*
X48999807Y-39052045D01*
X48905348Y-39193413D01*
X48879422Y-39232213D01*
X48726213Y-39385422D01*
X48546042Y-39505809D01*
X48345857Y-39588728D01*
X48133342Y-39631000D01*
X47916658Y-39631000D01*
X47704143Y-39588728D01*
X47503958Y-39505809D01*
X47323787Y-39385422D01*
X47170578Y-39232213D01*
X47144653Y-39193413D01*
X47050193Y-39052045D01*
X47050191Y-39052042D01*
X46967272Y-38851857D01*
X46925000Y-38639342D01*
X46925000Y-38422658D01*
X46967272Y-38210142D01*
X47000329Y-38130335D01*
X47007442Y-38106886D01*
X47009844Y-38082500D01*
X47007442Y-38058113D01*
X47000329Y-38034664D01*
X46997612Y-38029580D01*
X47015335Y-38024204D01*
X47036946Y-38012653D01*
X47055888Y-37997107D01*
X47071434Y-37978166D01*
X47170575Y-37829791D01*
X47170576Y-37829790D01*
X47170578Y-37829787D01*
X47323787Y-37676578D01*
X47503958Y-37556191D01*
X47704143Y-37473272D01*
X47916658Y-37431000D01*
X48133342Y-37431000D01*
X48345857Y-37473272D01*
X48345857Y-37473272D01*
G37*
G36*
X53425857Y-37473272D02*
X53626042Y-37556191D01*
X53806213Y-37676578D01*
X53959422Y-37829787D01*
X53959424Y-37829790D01*
X53959425Y-37829791D01*
X54044758Y-37957500D01*
X54079809Y-38009958D01*
X54162728Y-38210143D01*
X54205000Y-38422658D01*
X54205000Y-38639342D01*
X54162728Y-38851857D01*
X54079809Y-39052042D01*
X54079807Y-39052045D01*
X53985348Y-39193413D01*
X53959422Y-39232213D01*
X53806213Y-39385422D01*
X53626042Y-39505809D01*
X53425857Y-39588728D01*
X53213342Y-39631000D01*
X52996658Y-39631000D01*
X52784143Y-39588728D01*
X52583958Y-39505809D01*
X52403787Y-39385422D01*
X52250578Y-39232213D01*
X52224653Y-39193413D01*
X52130193Y-39052045D01*
X52130191Y-39052042D01*
X52047272Y-38851857D01*
X52005000Y-38639342D01*
X52005000Y-38422658D01*
X52047272Y-38210143D01*
X52130191Y-38009958D01*
X52165242Y-37957500D01*
X52250575Y-37829791D01*
X52250576Y-37829790D01*
X52250578Y-37829787D01*
X52403787Y-37676578D01*
X52583958Y-37556191D01*
X52784143Y-37473272D01*
X52996658Y-37431000D01*
X53213342Y-37431000D01*
X53425857Y-37473272D01*
X53425857Y-37473272D01*
G37*
G36*
X50885857Y-37473272D02*
X51086042Y-37556191D01*
X51266213Y-37676578D01*
X51419422Y-37829787D01*
X51419424Y-37829790D01*
X51419425Y-37829791D01*
X51504758Y-37957500D01*
X51539809Y-38009958D01*
X51622728Y-38210143D01*
X51665000Y-38422658D01*
X51665000Y-38639342D01*
X51622728Y-38851857D01*
X51539809Y-39052042D01*
X51539807Y-39052045D01*
X51445348Y-39193413D01*
X51419422Y-39232213D01*
X51266213Y-39385422D01*
X51086042Y-39505809D01*
X50885857Y-39588728D01*
X50673342Y-39631000D01*
X50456658Y-39631000D01*
X50244143Y-39588728D01*
X50043958Y-39505809D01*
X49863787Y-39385422D01*
X49710578Y-39232213D01*
X49684653Y-39193413D01*
X49590193Y-39052045D01*
X49590191Y-39052042D01*
X49507272Y-38851857D01*
X49465000Y-38639342D01*
X49465000Y-38422658D01*
X49507272Y-38210143D01*
X49590191Y-38009958D01*
X49625242Y-37957500D01*
X49710575Y-37829791D01*
X49710576Y-37829790D01*
X49710578Y-37829787D01*
X49863787Y-37676578D01*
X50043958Y-37556191D01*
X50244143Y-37473272D01*
X50456658Y-37431000D01*
X50673342Y-37431000D01*
X50885857Y-37473272D01*
X50885857Y-37473272D01*
G37*
G36*
X86005000Y-38255000D02*
X82455000Y-38255000D01*
X82455000Y-36855000D01*
X86005000Y-36855000D01*
X86005000Y-38255000D01*
X86005000Y-38255000D01*
G37*
G36*
X46842500Y-37908719D02*
X46844902Y-37933105D01*
X46852015Y-37956554D01*
X46852521Y-37957500D01*
X45542500Y-37957500D01*
X45542500Y-36757500D01*
X46842500Y-36757500D01*
X46842500Y-37908719D01*
X46842500Y-37908719D01*
G37*
G36*
X93076030Y-35929469D02*
X93076033Y-35929470D01*
X93076034Y-35929470D01*
X93264535Y-35986651D01*
X93264537Y-35986652D01*
X93438260Y-36079509D01*
X93590528Y-36204472D01*
X93715493Y-36356743D01*
X93719761Y-36364727D01*
X93733375Y-36385101D01*
X93750702Y-36402428D01*
X93771077Y-36416042D01*
X93793716Y-36425419D01*
X93817749Y-36430199D01*
X93842254Y-36430199D01*
X93866287Y-36425418D01*
X93888926Y-36416040D01*
X93909300Y-36402426D01*
X93926627Y-36385099D01*
X93940239Y-36364727D01*
X93944507Y-36356743D01*
X94069472Y-36204472D01*
X94221740Y-36079509D01*
X94395463Y-35986652D01*
X94395465Y-35986651D01*
X94583966Y-35929470D01*
X94583967Y-35929470D01*
X94583970Y-35929469D01*
X94730876Y-35915000D01*
X94829124Y-35915000D01*
X94976030Y-35929469D01*
X94976033Y-35929470D01*
X94976034Y-35929470D01*
X95164535Y-35986651D01*
X95164537Y-35986652D01*
X95338260Y-36079509D01*
X95490528Y-36204472D01*
X95615493Y-36356743D01*
X95619761Y-36364727D01*
X95633375Y-36385101D01*
X95650702Y-36402428D01*
X95671077Y-36416042D01*
X95693716Y-36425419D01*
X95717749Y-36430199D01*
X95742254Y-36430199D01*
X95766287Y-36425418D01*
X95788926Y-36416040D01*
X95809300Y-36402426D01*
X95826627Y-36385099D01*
X95840239Y-36364727D01*
X95844507Y-36356743D01*
X95969472Y-36204472D01*
X96121740Y-36079509D01*
X96295463Y-35986652D01*
X96295465Y-35986651D01*
X96483966Y-35929470D01*
X96483967Y-35929470D01*
X96483970Y-35929469D01*
X96630876Y-35915000D01*
X96729124Y-35915000D01*
X96876030Y-35929469D01*
X96876033Y-35929470D01*
X96876034Y-35929470D01*
X97064535Y-35986651D01*
X97064537Y-35986652D01*
X97238260Y-36079509D01*
X97390528Y-36204472D01*
X97515493Y-36356743D01*
X97519761Y-36364727D01*
X97533375Y-36385101D01*
X97550702Y-36402428D01*
X97571077Y-36416042D01*
X97593716Y-36425419D01*
X97617749Y-36430199D01*
X97642254Y-36430199D01*
X97666287Y-36425418D01*
X97688926Y-36416040D01*
X97709300Y-36402426D01*
X97726627Y-36385099D01*
X97740239Y-36364727D01*
X97744507Y-36356743D01*
X97869472Y-36204472D01*
X98021740Y-36079509D01*
X98195463Y-35986652D01*
X98195465Y-35986651D01*
X98383966Y-35929470D01*
X98383967Y-35929470D01*
X98383970Y-35929469D01*
X98530876Y-35915000D01*
X98629124Y-35915000D01*
X98776030Y-35929469D01*
X98776033Y-35929470D01*
X98776034Y-35929470D01*
X98964535Y-35986651D01*
X98964537Y-35986652D01*
X99138260Y-36079509D01*
X99290528Y-36204472D01*
X99415491Y-36356740D01*
X99508348Y-36530463D01*
X99565531Y-36718970D01*
X99584838Y-36915000D01*
X99565531Y-37111030D01*
X99565530Y-37111033D01*
X99565530Y-37111034D01*
X99524380Y-37246689D01*
X99508348Y-37299537D01*
X99415491Y-37473260D01*
X99290528Y-37625528D01*
X99138260Y-37750491D01*
X99138258Y-37750492D01*
X98964535Y-37843349D01*
X98776034Y-37900530D01*
X98776033Y-37900530D01*
X98776030Y-37900531D01*
X98629124Y-37915000D01*
X98530876Y-37915000D01*
X98383970Y-37900531D01*
X98383967Y-37900530D01*
X98383966Y-37900530D01*
X98195465Y-37843349D01*
X98021742Y-37750492D01*
X98021740Y-37750491D01*
X97869472Y-37625528D01*
X97744507Y-37473257D01*
X97740239Y-37465273D01*
X97726625Y-37444899D01*
X97709298Y-37427572D01*
X97688923Y-37413958D01*
X97666284Y-37404581D01*
X97642251Y-37399801D01*
X97617746Y-37399801D01*
X97593713Y-37404582D01*
X97571074Y-37413960D01*
X97550700Y-37427574D01*
X97533373Y-37444901D01*
X97519761Y-37465273D01*
X97515493Y-37473257D01*
X97390528Y-37625528D01*
X97238260Y-37750491D01*
X97238258Y-37750492D01*
X97064535Y-37843349D01*
X96876034Y-37900530D01*
X96876033Y-37900530D01*
X96876030Y-37900531D01*
X96729124Y-37915000D01*
X96630876Y-37915000D01*
X96483970Y-37900531D01*
X96483967Y-37900530D01*
X96483966Y-37900530D01*
X96295465Y-37843349D01*
X96121742Y-37750492D01*
X96121740Y-37750491D01*
X95969472Y-37625528D01*
X95844507Y-37473257D01*
X95840239Y-37465273D01*
X95826625Y-37444899D01*
X95809298Y-37427572D01*
X95788923Y-37413958D01*
X95766284Y-37404581D01*
X95742251Y-37399801D01*
X95717746Y-37399801D01*
X95693713Y-37404582D01*
X95671074Y-37413960D01*
X95650700Y-37427574D01*
X95633373Y-37444901D01*
X95619761Y-37465273D01*
X95615493Y-37473257D01*
X95490528Y-37625528D01*
X95338260Y-37750491D01*
X95338258Y-37750492D01*
X95164535Y-37843349D01*
X94976034Y-37900530D01*
X94976033Y-37900530D01*
X94976030Y-37900531D01*
X94829124Y-37915000D01*
X94730876Y-37915000D01*
X94583970Y-37900531D01*
X94583967Y-37900530D01*
X94583966Y-37900530D01*
X94395465Y-37843349D01*
X94221742Y-37750492D01*
X94221740Y-37750491D01*
X94069472Y-37625528D01*
X93944507Y-37473257D01*
X93940239Y-37465273D01*
X93926625Y-37444899D01*
X93909298Y-37427572D01*
X93888923Y-37413958D01*
X93866284Y-37404581D01*
X93842251Y-37399801D01*
X93817746Y-37399801D01*
X93793713Y-37404582D01*
X93771074Y-37413960D01*
X93750700Y-37427574D01*
X93733373Y-37444901D01*
X93719761Y-37465273D01*
X93715493Y-37473257D01*
X93590528Y-37625528D01*
X93438260Y-37750491D01*
X93438258Y-37750492D01*
X93264535Y-37843349D01*
X93076034Y-37900530D01*
X93076033Y-37900530D01*
X93076030Y-37900531D01*
X92929124Y-37915000D01*
X92830876Y-37915000D01*
X92683970Y-37900531D01*
X92683967Y-37900530D01*
X92683966Y-37900530D01*
X92495465Y-37843349D01*
X92321742Y-37750492D01*
X92321740Y-37750491D01*
X92169472Y-37625528D01*
X92036718Y-37463767D01*
X92019391Y-37446440D01*
X91999017Y-37432826D01*
X91976378Y-37423448D01*
X91952344Y-37418668D01*
X91927840Y-37418668D01*
X91903807Y-37423448D01*
X91881167Y-37432826D01*
X91860793Y-37446440D01*
X91836164Y-37473613D01*
X91756751Y-37592463D01*
X91617463Y-37731751D01*
X91453678Y-37841189D01*
X91271689Y-37916571D01*
X91155770Y-37939628D01*
X91078493Y-37955000D01*
X90881507Y-37955000D01*
X90804230Y-37939628D01*
X90688311Y-37916571D01*
X90506322Y-37841189D01*
X90342537Y-37731751D01*
X90203249Y-37592463D01*
X90133926Y-37488715D01*
X90118388Y-37469781D01*
X90099446Y-37454236D01*
X90077835Y-37442685D01*
X90054386Y-37435572D01*
X90030000Y-37433170D01*
X90005613Y-37435572D01*
X89982164Y-37442685D01*
X89960554Y-37454236D01*
X89941611Y-37469782D01*
X89926074Y-37488715D01*
X89856751Y-37592463D01*
X89717463Y-37731751D01*
X89553678Y-37841189D01*
X89371689Y-37916571D01*
X89255770Y-37939628D01*
X89178493Y-37955000D01*
X88981507Y-37955000D01*
X88904230Y-37939628D01*
X88788311Y-37916571D01*
X88606322Y-37841189D01*
X88442537Y-37731751D01*
X88303249Y-37592463D01*
X88193811Y-37428678D01*
X88118429Y-37246689D01*
X88080000Y-37053491D01*
X88080000Y-36856509D01*
X88118429Y-36663311D01*
X88193811Y-36481322D01*
X88303249Y-36317537D01*
X88442537Y-36178249D01*
X88606322Y-36068811D01*
X88788311Y-35993429D01*
X88904230Y-35970372D01*
X88981507Y-35955000D01*
X89178493Y-35955000D01*
X89255770Y-35970372D01*
X89371689Y-35993429D01*
X89553678Y-36068811D01*
X89717463Y-36178249D01*
X89856751Y-36317537D01*
X89926074Y-36421285D01*
X89941612Y-36440219D01*
X89960554Y-36455764D01*
X89982165Y-36467315D01*
X90005614Y-36474428D01*
X90030000Y-36476830D01*
X90054387Y-36474428D01*
X90077836Y-36467315D01*
X90099446Y-36455764D01*
X90118389Y-36440218D01*
X90133926Y-36421285D01*
X90203249Y-36317537D01*
X90342537Y-36178249D01*
X90506322Y-36068811D01*
X90688311Y-35993429D01*
X90804230Y-35970372D01*
X90881507Y-35955000D01*
X91078493Y-35955000D01*
X91155770Y-35970372D01*
X91271689Y-35993429D01*
X91453678Y-36068811D01*
X91617463Y-36178249D01*
X91756751Y-36317537D01*
X91812408Y-36400834D01*
X91827942Y-36419762D01*
X91846884Y-36435307D01*
X91868495Y-36446859D01*
X91891944Y-36453972D01*
X91916331Y-36456374D01*
X91940717Y-36453972D01*
X91964166Y-36446859D01*
X91985777Y-36435308D01*
X92004719Y-36419763D01*
X92026571Y-36390299D01*
X92044508Y-36356741D01*
X92169472Y-36204472D01*
X92321740Y-36079509D01*
X92495463Y-35986652D01*
X92495465Y-35986651D01*
X92683966Y-35929470D01*
X92683967Y-35929470D01*
X92683970Y-35929469D01*
X92830876Y-35915000D01*
X92929124Y-35915000D01*
X93076030Y-35929469D01*
X93076030Y-35929469D01*
G37*
G36*
X66317500Y-33241724D02*
X66319902Y-33266110D01*
X66327015Y-33289559D01*
X66338566Y-33311170D01*
X66354112Y-33330112D01*
X66373054Y-33345658D01*
X66394665Y-33357209D01*
X66418114Y-33364322D01*
X66442500Y-33366724D01*
X66466886Y-33364322D01*
X66490335Y-33357209D01*
X66511946Y-33345658D01*
X66530888Y-33330112D01*
X66546434Y-33311170D01*
X66557985Y-33289559D01*
X66564668Y-33273425D01*
X66615855Y-33196819D01*
X66641274Y-33158776D01*
X66738776Y-33061274D01*
X66853426Y-32984668D01*
X66980817Y-32931900D01*
X67116055Y-32905000D01*
X67253945Y-32905000D01*
X67389183Y-32931900D01*
X67516574Y-32984668D01*
X67631224Y-33061274D01*
X67728726Y-33158776D01*
X67800444Y-33266110D01*
X67805332Y-33273426D01*
X67858100Y-33400817D01*
X67885000Y-33536055D01*
X67885000Y-33673945D01*
X67858100Y-33809183D01*
X67808836Y-33928114D01*
X67805332Y-33936574D01*
X67784150Y-33968276D01*
X67728725Y-34051225D01*
X67631225Y-34148725D01*
X67516574Y-34225332D01*
X67389183Y-34278100D01*
X67253945Y-34305000D01*
X67116055Y-34305000D01*
X66980817Y-34278100D01*
X66853426Y-34225332D01*
X66738775Y-34148725D01*
X66641275Y-34051225D01*
X66564668Y-33936575D01*
X66557985Y-33920441D01*
X66546434Y-33898830D01*
X66530889Y-33879888D01*
X66511947Y-33864343D01*
X66490336Y-33852791D01*
X66466887Y-33845678D01*
X66442501Y-33843276D01*
X66418114Y-33845678D01*
X66394665Y-33852791D01*
X66373054Y-33864342D01*
X66354112Y-33879887D01*
X66338567Y-33898829D01*
X66327015Y-33920440D01*
X66319902Y-33943889D01*
X66317500Y-33968276D01*
X66317500Y-35141724D01*
X66319902Y-35166110D01*
X66327015Y-35189559D01*
X66338566Y-35211170D01*
X66354112Y-35230112D01*
X66373054Y-35245658D01*
X66394665Y-35257209D01*
X66418114Y-35264322D01*
X66442500Y-35266724D01*
X66466886Y-35264322D01*
X66490335Y-35257209D01*
X66511946Y-35245658D01*
X66530888Y-35230112D01*
X66546434Y-35211170D01*
X66557985Y-35189559D01*
X66564668Y-35173425D01*
X66641275Y-35058775D01*
X66738775Y-34961275D01*
X66853426Y-34884668D01*
X66980817Y-34831900D01*
X67116055Y-34805000D01*
X67253945Y-34805000D01*
X67389183Y-34831900D01*
X67516574Y-34884668D01*
X67631224Y-34961274D01*
X67728726Y-35058776D01*
X67800444Y-35166110D01*
X67805332Y-35173426D01*
X67858100Y-35300817D01*
X67885000Y-35436055D01*
X67885000Y-35573942D01*
X67884071Y-35578612D01*
X67881669Y-35602998D01*
X67884071Y-35627385D01*
X67891183Y-35650834D01*
X67902734Y-35672445D01*
X67918280Y-35691387D01*
X67937221Y-35706933D01*
X67958832Y-35718484D01*
X67982281Y-35725598D01*
X68006669Y-35728000D01*
X69431000Y-35728000D01*
X69431000Y-37378000D01*
X68031000Y-37378000D01*
X68031000Y-35910909D01*
X68028598Y-35886523D01*
X68021485Y-35863074D01*
X68009934Y-35841463D01*
X67994388Y-35822521D01*
X67975446Y-35806975D01*
X67953835Y-35795424D01*
X67930386Y-35788311D01*
X67906000Y-35785909D01*
X67881614Y-35788311D01*
X67858165Y-35795424D01*
X67836554Y-35806975D01*
X67817612Y-35822521D01*
X67802067Y-35841462D01*
X67752930Y-35915000D01*
X67728726Y-35951224D01*
X67631224Y-36048726D01*
X67516574Y-36125332D01*
X67389183Y-36178100D01*
X67253945Y-36205000D01*
X67116055Y-36205000D01*
X66980817Y-36178100D01*
X66853426Y-36125332D01*
X66738776Y-36048726D01*
X66641274Y-35951224D01*
X66612059Y-35907500D01*
X66564668Y-35836575D01*
X66557985Y-35820441D01*
X66546434Y-35798830D01*
X66530889Y-35779888D01*
X66511947Y-35764343D01*
X66490336Y-35752791D01*
X66466887Y-35745678D01*
X66442501Y-35743276D01*
X66418114Y-35745678D01*
X66394665Y-35752791D01*
X66373054Y-35764342D01*
X66354112Y-35779887D01*
X66338567Y-35798829D01*
X66327015Y-35820440D01*
X66319902Y-35843889D01*
X66317500Y-35868276D01*
X66317500Y-37607500D01*
X65217500Y-37607500D01*
X65217500Y-32107500D01*
X66317500Y-32107500D01*
X66317500Y-33241724D01*
X66317500Y-33241724D01*
G37*
G36*
X64417500Y-37607500D02*
X63317500Y-37607500D01*
X63317500Y-35832500D01*
X63315098Y-35808114D01*
X63307985Y-35784665D01*
X63296434Y-35763054D01*
X63280888Y-35744112D01*
X63261946Y-35728566D01*
X63240335Y-35717015D01*
X63216886Y-35709902D01*
X63192500Y-35707500D01*
X62117500Y-35707500D01*
X62117500Y-33931242D01*
X62117985Y-33930335D01*
X62125098Y-33906886D01*
X62127500Y-33882500D01*
X62127500Y-32127500D01*
X63192500Y-32127500D01*
X63216886Y-32125098D01*
X63240335Y-32117985D01*
X63259952Y-32107500D01*
X64417500Y-32107500D01*
X64417500Y-37607500D01*
X64417500Y-37607500D01*
G37*
G36*
X71431000Y-37378000D02*
X70031000Y-37378000D01*
X70031000Y-35728000D01*
X71431000Y-35728000D01*
X71431000Y-37378000D01*
X71431000Y-37378000D01*
G37*
G36*
X79585000Y-37180000D02*
X78185000Y-37180000D01*
X78185000Y-35530000D01*
X79585000Y-35530000D01*
X79585000Y-37180000D01*
X79585000Y-37180000D01*
G37*
G36*
X81585000Y-37180000D02*
X80185000Y-37180000D01*
X80185000Y-35530000D01*
X81585000Y-35530000D01*
X81585000Y-37180000D01*
X81585000Y-37180000D01*
G37*
G36*
X77860000Y-37155000D02*
X71710000Y-37155000D01*
X71710000Y-35455000D01*
X77860000Y-35455000D01*
X77860000Y-37155000D01*
X77860000Y-37155000D01*
G37*
G36*
X48842500Y-37007500D02*
X47542500Y-37007500D01*
X47542500Y-35807500D01*
X48842500Y-35807500D01*
X48842500Y-37007500D01*
X48842500Y-37007500D01*
G37*
G36*
X60892500Y-32002500D02*
X60894902Y-32026886D01*
X60902015Y-32050335D01*
X60913566Y-32071946D01*
X60929112Y-32090888D01*
X60948054Y-32106434D01*
X60969665Y-32117985D01*
X60993114Y-32125098D01*
X61017500Y-32127500D01*
X61327500Y-32127500D01*
X61327500Y-33903758D01*
X61327015Y-33904665D01*
X61319902Y-33928114D01*
X61317500Y-33952500D01*
X61317500Y-35707500D01*
X60242500Y-35707500D01*
X60218114Y-35709902D01*
X60194665Y-35717015D01*
X60173054Y-35728566D01*
X60154112Y-35744112D01*
X60138566Y-35763054D01*
X60127015Y-35784665D01*
X60119902Y-35808114D01*
X60117500Y-35832500D01*
X60117500Y-36337500D01*
X59017500Y-36337500D01*
X59017500Y-34637500D01*
X60092500Y-34637500D01*
X60116886Y-34635098D01*
X60140335Y-34627985D01*
X60161946Y-34616434D01*
X60180888Y-34600888D01*
X60196434Y-34581946D01*
X60207985Y-34560335D01*
X60215098Y-34536886D01*
X60217500Y-34512500D01*
X60217500Y-33952500D01*
X60215098Y-33928114D01*
X60207985Y-33904665D01*
X60196434Y-33883054D01*
X60180888Y-33864112D01*
X60161946Y-33848566D01*
X60140335Y-33837015D01*
X60116886Y-33829902D01*
X60092500Y-33827500D01*
X59017500Y-33827500D01*
X59017500Y-32127500D01*
X59117500Y-32127500D01*
X59141886Y-32125098D01*
X59165335Y-32117985D01*
X59186946Y-32106434D01*
X59205888Y-32090888D01*
X59221434Y-32071946D01*
X59232985Y-32050335D01*
X59240098Y-32026886D01*
X59242500Y-32002500D01*
X59242500Y-30707500D01*
X60892500Y-30707500D01*
X60892500Y-32002500D01*
X60892500Y-32002500D01*
G37*
G36*
X58217500Y-36337500D02*
X57117500Y-36337500D01*
X57117500Y-34637500D01*
X58217500Y-34637500D01*
X58217500Y-36337500D01*
X58217500Y-36337500D01*
G37*
G36*
X86005000Y-36255000D02*
X82455000Y-36255000D01*
X82455000Y-34855000D01*
X86005000Y-34855000D01*
X86005000Y-36255000D01*
X86005000Y-36255000D01*
G37*
G36*
X46842500Y-36057500D02*
X45542500Y-36057500D01*
X45542500Y-34857500D01*
X46842500Y-34857500D01*
X46842500Y-36057500D01*
X46842500Y-36057500D01*
G37*
G36*
X79985000Y-35030000D02*
X78285000Y-35030000D01*
X78285000Y-28880000D01*
X79985000Y-28880000D01*
X79985000Y-35030000D01*
X79985000Y-35030000D01*
G37*
G36*
X70510000Y-28755000D02*
X70512402Y-28779386D01*
X70519515Y-28802835D01*
X70531066Y-28824446D01*
X70546612Y-28843388D01*
X70565554Y-28858934D01*
X70587165Y-28870485D01*
X70610614Y-28877598D01*
X70635000Y-28880000D01*
X71285000Y-28880000D01*
X71285000Y-35030000D01*
X69585000Y-35030000D01*
X69585000Y-28980000D01*
X69582598Y-28955614D01*
X69575485Y-28932165D01*
X69563934Y-28910554D01*
X69548388Y-28891612D01*
X69529446Y-28876066D01*
X69507835Y-28864515D01*
X69484386Y-28857402D01*
X69460000Y-28855000D01*
X68860000Y-28855000D01*
X68860000Y-27455000D01*
X70510000Y-27455000D01*
X70510000Y-28755000D01*
X70510000Y-28755000D01*
G37*
G36*
X87385000Y-33955000D02*
X81985000Y-33955000D01*
X81985000Y-32055000D01*
X87385000Y-32055000D01*
X87385000Y-33955000D01*
X87385000Y-33955000D01*
G37*
G36*
X58217500Y-33827500D02*
X57117500Y-33827500D01*
X57117500Y-32127500D01*
X58217500Y-32127500D01*
X58217500Y-33827500D01*
X58217500Y-33827500D01*
G37*
G36*
X45924527Y-30568352D02*
X46065901Y-30611238D01*
X46196194Y-30680880D01*
X46310396Y-30774604D01*
X46404120Y-30888806D01*
X46473762Y-31019099D01*
X46516648Y-31160473D01*
X46527500Y-31270661D01*
X46527500Y-32444339D01*
X46516648Y-32554527D01*
X46473762Y-32695901D01*
X46404120Y-32826194D01*
X46310399Y-32940393D01*
X46196190Y-33034122D01*
X46065900Y-33103762D01*
X45924526Y-33146648D01*
X45777500Y-33161128D01*
X45630473Y-33146648D01*
X45489099Y-33103762D01*
X45358806Y-33034120D01*
X45244607Y-32940399D01*
X45150878Y-32826190D01*
X45081238Y-32695900D01*
X45038352Y-32554526D01*
X45027500Y-32444338D01*
X45027501Y-31270661D01*
X45038353Y-31160473D01*
X45081239Y-31019099D01*
X45150881Y-30888806D01*
X45244605Y-30774604D01*
X45358807Y-30680880D01*
X45489100Y-30611238D01*
X45630474Y-30568352D01*
X45777500Y-30553872D01*
X45924527Y-30568352D01*
X45924527Y-30568352D01*
G37*
G36*
X56527500Y-33157500D02*
X55027500Y-33157500D01*
X55027500Y-30557500D01*
X56527500Y-30557500D01*
X56527500Y-33157500D01*
X56527500Y-33157500D01*
G37*
G36*
X128787500Y-32737500D02*
X126887500Y-32737500D01*
X126887500Y-30937500D01*
X128787500Y-30937500D01*
X128787500Y-32737500D01*
X128787500Y-32737500D01*
G37*
G36*
X132857500Y-32707500D02*
X130957500Y-32707500D01*
X130957500Y-30907500D01*
X132857500Y-30907500D01*
X132857500Y-32707500D01*
X132857500Y-32707500D01*
G37*
G36*
X64735000Y-29055000D02*
X63749558Y-29055000D01*
X63725172Y-29057402D01*
X63701723Y-29064515D01*
X63680112Y-29076066D01*
X63661170Y-29091612D01*
X63645624Y-29110554D01*
X63634073Y-29132165D01*
X63626960Y-29155614D01*
X63624558Y-29180000D01*
X63626960Y-29204386D01*
X63629421Y-29212498D01*
X63630992Y-29220394D01*
X63630992Y-29220395D01*
X63647928Y-29305539D01*
X63667500Y-29403932D01*
X63667500Y-29462500D01*
X63669902Y-29486886D01*
X63677015Y-29510335D01*
X63688566Y-29531946D01*
X63704112Y-29550888D01*
X63723054Y-29566434D01*
X63744665Y-29577985D01*
X63768114Y-29585098D01*
X63792500Y-29587500D01*
X64777500Y-29587500D01*
X64777500Y-31287500D01*
X63677500Y-31287500D01*
X63677500Y-30182779D01*
X63675098Y-30158393D01*
X63667985Y-30134944D01*
X63656434Y-30113333D01*
X63640888Y-30094391D01*
X63621946Y-30078845D01*
X63600335Y-30067294D01*
X63576886Y-30060181D01*
X63552500Y-30057779D01*
X63528114Y-30060181D01*
X63504665Y-30067294D01*
X63483054Y-30078845D01*
X63464112Y-30094391D01*
X63323090Y-30235413D01*
X63167494Y-30339379D01*
X62994605Y-30410992D01*
X62856952Y-30438373D01*
X62811068Y-30447500D01*
X62623932Y-30447500D01*
X62578048Y-30438373D01*
X62440395Y-30410992D01*
X62267506Y-30339379D01*
X62111910Y-30235413D01*
X61979587Y-30103090D01*
X61875621Y-29947494D01*
X61804008Y-29774605D01*
X61767500Y-29591067D01*
X61767500Y-29403933D01*
X61772261Y-29380000D01*
X61776627Y-29358048D01*
X61804008Y-29220395D01*
X61875621Y-29047506D01*
X61979587Y-28891910D01*
X62111910Y-28759587D01*
X62267506Y-28655621D01*
X62440395Y-28584008D01*
X62593216Y-28553610D01*
X62623932Y-28547500D01*
X62811068Y-28547500D01*
X62935614Y-28572274D01*
X62960000Y-28574676D01*
X62984386Y-28572274D01*
X63007835Y-28565161D01*
X63029446Y-28553610D01*
X63048388Y-28538064D01*
X63063934Y-28519122D01*
X63075485Y-28497512D01*
X63082598Y-28474062D01*
X63085000Y-28449676D01*
X63085000Y-27655000D01*
X64735000Y-27655000D01*
X64735000Y-29055000D01*
X64735000Y-29055000D01*
G37*
G36*
X66785000Y-28664721D02*
X66787402Y-28689107D01*
X66794515Y-28712556D01*
X66806066Y-28734167D01*
X66821612Y-28753109D01*
X66840554Y-28768655D01*
X66862165Y-28780206D01*
X66885614Y-28787319D01*
X66910000Y-28789721D01*
X66934386Y-28787319D01*
X66957835Y-28780206D01*
X66979446Y-28768655D01*
X66984293Y-28764677D01*
X66991908Y-28759589D01*
X66991910Y-28759587D01*
X67147506Y-28655621D01*
X67320395Y-28584008D01*
X67473216Y-28553610D01*
X67503932Y-28547500D01*
X67691068Y-28547500D01*
X67721784Y-28553610D01*
X67874605Y-28584008D01*
X68047494Y-28655621D01*
X68203090Y-28759587D01*
X68335413Y-28891910D01*
X68439379Y-29047506D01*
X68510992Y-29220395D01*
X68538373Y-29358048D01*
X68542740Y-29380000D01*
X68547500Y-29403933D01*
X68547500Y-29591067D01*
X68510992Y-29774605D01*
X68439379Y-29947494D01*
X68335413Y-30103090D01*
X68203090Y-30235413D01*
X68047494Y-30339379D01*
X67874605Y-30410992D01*
X67736952Y-30438373D01*
X67691068Y-30447500D01*
X67503932Y-30447500D01*
X67458048Y-30438373D01*
X67320395Y-30410992D01*
X67147506Y-30339379D01*
X66991910Y-30235413D01*
X66890888Y-30134391D01*
X66871946Y-30118845D01*
X66850335Y-30107294D01*
X66826886Y-30100181D01*
X66802500Y-30097779D01*
X66778114Y-30100181D01*
X66754665Y-30107294D01*
X66733054Y-30118845D01*
X66714112Y-30134391D01*
X66698566Y-30153333D01*
X66687015Y-30174944D01*
X66679902Y-30198393D01*
X66677500Y-30222779D01*
X66677500Y-31287500D01*
X65577500Y-31287500D01*
X65577500Y-29587500D01*
X66522500Y-29587500D01*
X66546886Y-29585098D01*
X66570335Y-29577985D01*
X66591946Y-29566434D01*
X66610888Y-29550888D01*
X66626434Y-29531946D01*
X66637985Y-29510335D01*
X66645098Y-29486886D01*
X66647500Y-29462500D01*
X66647500Y-29403932D01*
X66657286Y-29354735D01*
X66684008Y-29220395D01*
X66684009Y-29220392D01*
X66685577Y-29212510D01*
X66688038Y-29204399D01*
X66690442Y-29180013D01*
X66688043Y-29155627D01*
X66680932Y-29132177D01*
X66669383Y-29110565D01*
X66653840Y-29091621D01*
X66634899Y-29076074D01*
X66613290Y-29064520D01*
X66589841Y-29057404D01*
X66565442Y-29055000D01*
X65135000Y-29055000D01*
X65135000Y-27655000D01*
X66785000Y-27655000D01*
X66785000Y-28664721D01*
X66785000Y-28664721D01*
G37*
G36*
X60902500Y-28713758D02*
X60902015Y-28714665D01*
X60894902Y-28738114D01*
X60892500Y-28762500D01*
X60892500Y-30107500D01*
X59242500Y-30107500D01*
X59242500Y-28762500D01*
X59240098Y-28738114D01*
X59232985Y-28714665D01*
X59221434Y-28693054D01*
X59205888Y-28674112D01*
X59186946Y-28658566D01*
X59165335Y-28647015D01*
X59141886Y-28639902D01*
X59117500Y-28637500D01*
X59042500Y-28637500D01*
X59018114Y-28639902D01*
X58994665Y-28647015D01*
X58973054Y-28658566D01*
X58954112Y-28674112D01*
X58938566Y-28693054D01*
X58927015Y-28714665D01*
X58919902Y-28738114D01*
X58917500Y-28762500D01*
X58917500Y-30267500D01*
X57817500Y-30267500D01*
X57817500Y-28567500D01*
X58927500Y-28567500D01*
X58951886Y-28565098D01*
X58975335Y-28557985D01*
X58996946Y-28546434D01*
X59015888Y-28530888D01*
X59031434Y-28511946D01*
X59042985Y-28490335D01*
X59050098Y-28466886D01*
X59052500Y-28442500D01*
X59052500Y-25837500D01*
X60902500Y-25837500D01*
X60902500Y-28713758D01*
X60902500Y-28713758D01*
G37*
G36*
X56502500Y-28442500D02*
X56504902Y-28466886D01*
X56512015Y-28490335D01*
X56523566Y-28511946D01*
X56539112Y-28530888D01*
X56558054Y-28546434D01*
X56579665Y-28557985D01*
X56603114Y-28565098D01*
X56627500Y-28567500D01*
X57017500Y-28567500D01*
X57017500Y-30267500D01*
X55917500Y-30267500D01*
X55917500Y-28762500D01*
X55915098Y-28738114D01*
X55907985Y-28714665D01*
X55896434Y-28693054D01*
X55880888Y-28674112D01*
X55861946Y-28658566D01*
X55840335Y-28647015D01*
X55816886Y-28639902D01*
X55792500Y-28637500D01*
X54652500Y-28637500D01*
X54652500Y-25837500D01*
X56502500Y-25837500D01*
X56502500Y-28442500D01*
X56502500Y-28442500D01*
G37*
G36*
X47450021Y-27412086D02*
X47613809Y-27479929D01*
X47761220Y-27578426D01*
X47886574Y-27703780D01*
X47985071Y-27851191D01*
X48052914Y-28014979D01*
X48087500Y-28188856D01*
X48087500Y-28366144D01*
X48052914Y-28540021D01*
X47985071Y-28703809D01*
X47886574Y-28851220D01*
X47761220Y-28976574D01*
X47613809Y-29075071D01*
X47450021Y-29142914D01*
X47276144Y-29177500D01*
X47098856Y-29177500D01*
X46924979Y-29142914D01*
X46761191Y-29075071D01*
X46613780Y-28976574D01*
X46488426Y-28851220D01*
X46389929Y-28703809D01*
X46322086Y-28540021D01*
X46287500Y-28366144D01*
X46287500Y-28188856D01*
X46322086Y-28014979D01*
X46389929Y-27851191D01*
X46488426Y-27703780D01*
X46613780Y-27578426D01*
X46761191Y-27479929D01*
X46924979Y-27412086D01*
X47098856Y-27377500D01*
X47276144Y-27377500D01*
X47450021Y-27412086D01*
X47450021Y-27412086D01*
G37*
G36*
X52450021Y-27412086D02*
X52613809Y-27479929D01*
X52761220Y-27578426D01*
X52886574Y-27703780D01*
X52985071Y-27851191D01*
X53052914Y-28014979D01*
X53087500Y-28188856D01*
X53087500Y-28366144D01*
X53052914Y-28540021D01*
X52985071Y-28703809D01*
X52886574Y-28851220D01*
X52761220Y-28976574D01*
X52613809Y-29075071D01*
X52450021Y-29142914D01*
X52276144Y-29177500D01*
X52098856Y-29177500D01*
X51924979Y-29142914D01*
X51761191Y-29075071D01*
X51613780Y-28976574D01*
X51488426Y-28851220D01*
X51389929Y-28703809D01*
X51322086Y-28540021D01*
X51287500Y-28366144D01*
X51287500Y-28188856D01*
X51322086Y-28014979D01*
X51389929Y-27851191D01*
X51488426Y-27703780D01*
X51613780Y-27578426D01*
X51761191Y-27479929D01*
X51924979Y-27412086D01*
X52098856Y-27377500D01*
X52276144Y-27377500D01*
X52450021Y-27412086D01*
X52450021Y-27412086D01*
G37*
G36*
X77860000Y-28455000D02*
X71710000Y-28455000D01*
X71710000Y-26755000D01*
X77860000Y-26755000D01*
X77860000Y-28455000D01*
X77860000Y-28455000D01*
G37*
G36*
X87385000Y-28055000D02*
X81985000Y-28055000D01*
X81985000Y-26155000D01*
X87385000Y-26155000D01*
X87385000Y-28055000D01*
X87385000Y-28055000D01*
G37*
G36*
X93055770Y-25770372D02*
X93171689Y-25793429D01*
X93353678Y-25868811D01*
X93517463Y-25978249D01*
X93656751Y-26117537D01*
X93726074Y-26221285D01*
X93741612Y-26240219D01*
X93760554Y-26255764D01*
X93782165Y-26267315D01*
X93805614Y-26274428D01*
X93830000Y-26276830D01*
X93854387Y-26274428D01*
X93877836Y-26267315D01*
X93899446Y-26255764D01*
X93918389Y-26240218D01*
X93933926Y-26221285D01*
X94003249Y-26117537D01*
X94142537Y-25978249D01*
X94306322Y-25868811D01*
X94488311Y-25793429D01*
X94604230Y-25770372D01*
X94681507Y-25755000D01*
X94878493Y-25755000D01*
X94955770Y-25770372D01*
X95071689Y-25793429D01*
X95253678Y-25868811D01*
X95417463Y-25978249D01*
X95556751Y-26117537D01*
X95626074Y-26221285D01*
X95641612Y-26240219D01*
X95660554Y-26255764D01*
X95682165Y-26267315D01*
X95705614Y-26274428D01*
X95730000Y-26276830D01*
X95754387Y-26274428D01*
X95777836Y-26267315D01*
X95799446Y-26255764D01*
X95818389Y-26240218D01*
X95833926Y-26221285D01*
X95903249Y-26117537D01*
X96042537Y-25978249D01*
X96206322Y-25868811D01*
X96388311Y-25793429D01*
X96504230Y-25770372D01*
X96581507Y-25755000D01*
X96778493Y-25755000D01*
X96855770Y-25770372D01*
X96971689Y-25793429D01*
X97153678Y-25868811D01*
X97317463Y-25978249D01*
X97456751Y-26117537D01*
X97526074Y-26221285D01*
X97541612Y-26240219D01*
X97560554Y-26255764D01*
X97582165Y-26267315D01*
X97605614Y-26274428D01*
X97630000Y-26276830D01*
X97654387Y-26274428D01*
X97677836Y-26267315D01*
X97699446Y-26255764D01*
X97718389Y-26240218D01*
X97733926Y-26221285D01*
X97803249Y-26117537D01*
X97942537Y-25978249D01*
X98106322Y-25868811D01*
X98288311Y-25793429D01*
X98404230Y-25770372D01*
X98481507Y-25755000D01*
X98678493Y-25755000D01*
X98755770Y-25770372D01*
X98871689Y-25793429D01*
X99053678Y-25868811D01*
X99217463Y-25978249D01*
X99356751Y-26117537D01*
X99466189Y-26281322D01*
X99541571Y-26463311D01*
X99559634Y-26554120D01*
X99573487Y-26623762D01*
X99580000Y-26656509D01*
X99580000Y-26853491D01*
X99541571Y-27046689D01*
X99466189Y-27228678D01*
X99356751Y-27392463D01*
X99217463Y-27531751D01*
X99053678Y-27641189D01*
X98871689Y-27716571D01*
X98755770Y-27739628D01*
X98678493Y-27755000D01*
X98481507Y-27755000D01*
X98404230Y-27739628D01*
X98288311Y-27716571D01*
X98106322Y-27641189D01*
X97942537Y-27531751D01*
X97803249Y-27392463D01*
X97733926Y-27288715D01*
X97718388Y-27269781D01*
X97699446Y-27254236D01*
X97677835Y-27242685D01*
X97654386Y-27235572D01*
X97630000Y-27233170D01*
X97605613Y-27235572D01*
X97582164Y-27242685D01*
X97560554Y-27254236D01*
X97541611Y-27269782D01*
X97526074Y-27288715D01*
X97456751Y-27392463D01*
X97317463Y-27531751D01*
X97153678Y-27641189D01*
X96971689Y-27716571D01*
X96855770Y-27739628D01*
X96778493Y-27755000D01*
X96581507Y-27755000D01*
X96504230Y-27739628D01*
X96388311Y-27716571D01*
X96206322Y-27641189D01*
X96042537Y-27531751D01*
X95903249Y-27392463D01*
X95833926Y-27288715D01*
X95818388Y-27269781D01*
X95799446Y-27254236D01*
X95777835Y-27242685D01*
X95754386Y-27235572D01*
X95730000Y-27233170D01*
X95705613Y-27235572D01*
X95682164Y-27242685D01*
X95660554Y-27254236D01*
X95641611Y-27269782D01*
X95626074Y-27288715D01*
X95556751Y-27392463D01*
X95417463Y-27531751D01*
X95253678Y-27641189D01*
X95071689Y-27716571D01*
X94955770Y-27739628D01*
X94878493Y-27755000D01*
X94681507Y-27755000D01*
X94604230Y-27739628D01*
X94488311Y-27716571D01*
X94306322Y-27641189D01*
X94142537Y-27531751D01*
X94003249Y-27392463D01*
X93933926Y-27288715D01*
X93918388Y-27269781D01*
X93899446Y-27254236D01*
X93877835Y-27242685D01*
X93854386Y-27235572D01*
X93830000Y-27233170D01*
X93805613Y-27235572D01*
X93782164Y-27242685D01*
X93760554Y-27254236D01*
X93741611Y-27269782D01*
X93726074Y-27288715D01*
X93656751Y-27392463D01*
X93517463Y-27531751D01*
X93353678Y-27641189D01*
X93171689Y-27716571D01*
X93055770Y-27739628D01*
X92978493Y-27755000D01*
X92781507Y-27755000D01*
X92704230Y-27739628D01*
X92588311Y-27716571D01*
X92406322Y-27641189D01*
X92242537Y-27531751D01*
X92103249Y-27392463D01*
X92047592Y-27309166D01*
X92032058Y-27290238D01*
X92013116Y-27274693D01*
X91991505Y-27263141D01*
X91968056Y-27256028D01*
X91943669Y-27253626D01*
X91919283Y-27256028D01*
X91895834Y-27263141D01*
X91874223Y-27274692D01*
X91855281Y-27290237D01*
X91833429Y-27319701D01*
X91815492Y-27353259D01*
X91690528Y-27505528D01*
X91538260Y-27630491D01*
X91538258Y-27630492D01*
X91364535Y-27723349D01*
X91176034Y-27780530D01*
X91176033Y-27780530D01*
X91176030Y-27780531D01*
X91029124Y-27795000D01*
X90930876Y-27795000D01*
X90783970Y-27780531D01*
X90783967Y-27780530D01*
X90783966Y-27780530D01*
X90595465Y-27723349D01*
X90421742Y-27630492D01*
X90421740Y-27630491D01*
X90269472Y-27505528D01*
X90144507Y-27353257D01*
X90140239Y-27345273D01*
X90126625Y-27324899D01*
X90109298Y-27307572D01*
X90088923Y-27293958D01*
X90066284Y-27284581D01*
X90042251Y-27279801D01*
X90017746Y-27279801D01*
X89993713Y-27284582D01*
X89971074Y-27293960D01*
X89950700Y-27307574D01*
X89933373Y-27324901D01*
X89919761Y-27345273D01*
X89915493Y-27353257D01*
X89790528Y-27505528D01*
X89638260Y-27630491D01*
X89638258Y-27630492D01*
X89464535Y-27723349D01*
X89276034Y-27780530D01*
X89276033Y-27780530D01*
X89276030Y-27780531D01*
X89129124Y-27795000D01*
X89030876Y-27795000D01*
X88883970Y-27780531D01*
X88883967Y-27780530D01*
X88883966Y-27780530D01*
X88695465Y-27723349D01*
X88521742Y-27630492D01*
X88521740Y-27630491D01*
X88369472Y-27505528D01*
X88244509Y-27353260D01*
X88151652Y-27179537D01*
X88094469Y-26991030D01*
X88075162Y-26795000D01*
X88094469Y-26598970D01*
X88132075Y-26475000D01*
X88151651Y-26410465D01*
X88212811Y-26296042D01*
X88244509Y-26236740D01*
X88369472Y-26084472D01*
X88521740Y-25959509D01*
X88695463Y-25866652D01*
X88695465Y-25866651D01*
X88883966Y-25809470D01*
X88883967Y-25809470D01*
X88883970Y-25809469D01*
X89030876Y-25795000D01*
X89129124Y-25795000D01*
X89276030Y-25809469D01*
X89276033Y-25809470D01*
X89276034Y-25809470D01*
X89464535Y-25866651D01*
X89464537Y-25866652D01*
X89638260Y-25959509D01*
X89790528Y-26084472D01*
X89915493Y-26236743D01*
X89919761Y-26244727D01*
X89933375Y-26265101D01*
X89950702Y-26282428D01*
X89971077Y-26296042D01*
X89993716Y-26305419D01*
X90017749Y-26310199D01*
X90042254Y-26310199D01*
X90066287Y-26305418D01*
X90088926Y-26296040D01*
X90109300Y-26282426D01*
X90126627Y-26265099D01*
X90140239Y-26244727D01*
X90144507Y-26236743D01*
X90269472Y-26084472D01*
X90421740Y-25959509D01*
X90595463Y-25866652D01*
X90595465Y-25866651D01*
X90783966Y-25809470D01*
X90783967Y-25809470D01*
X90783970Y-25809469D01*
X90930876Y-25795000D01*
X91029124Y-25795000D01*
X91176030Y-25809469D01*
X91176033Y-25809470D01*
X91176034Y-25809470D01*
X91364535Y-25866651D01*
X91364537Y-25866652D01*
X91538260Y-25959509D01*
X91690528Y-26084472D01*
X91823282Y-26246233D01*
X91840609Y-26263560D01*
X91860983Y-26277174D01*
X91883622Y-26286552D01*
X91907656Y-26291332D01*
X91932160Y-26291332D01*
X91956193Y-26286552D01*
X91978833Y-26277174D01*
X91999207Y-26263560D01*
X92023836Y-26236387D01*
X92103249Y-26117537D01*
X92242537Y-25978249D01*
X92406322Y-25868811D01*
X92588311Y-25793429D01*
X92704230Y-25770372D01*
X92781507Y-25755000D01*
X92978493Y-25755000D01*
X93055770Y-25770372D01*
X93055770Y-25770372D01*
G37*
G36*
X79685000Y-27380000D02*
X78285000Y-27380000D01*
X78285000Y-25730000D01*
X79685000Y-25730000D01*
X79685000Y-27380000D01*
X79685000Y-27380000D01*
G37*
G36*
X81685000Y-27380000D02*
X80285000Y-27380000D01*
X80285000Y-25730000D01*
X81685000Y-25730000D01*
X81685000Y-27380000D01*
X81685000Y-27380000D01*
G37*
G36*
X66785000Y-27055000D02*
X65135000Y-27055000D01*
X65135000Y-25655000D01*
X66785000Y-25655000D01*
X66785000Y-27055000D01*
X66785000Y-27055000D01*
G37*
G36*
X64735000Y-27055000D02*
X63085000Y-27055000D01*
X63085000Y-25655000D01*
X64735000Y-25655000D01*
X64735000Y-27055000D01*
X64735000Y-27055000D01*
G37*
G36*
X70510000Y-26855000D02*
X68860000Y-26855000D01*
X68860000Y-25455000D01*
X70510000Y-25455000D01*
X70510000Y-26855000D01*
X70510000Y-26855000D01*
G37*
G36*
X46334527Y-24488352D02*
X46475901Y-24531238D01*
X46606194Y-24600880D01*
X46720396Y-24694604D01*
X46814120Y-24808806D01*
X46883762Y-24939099D01*
X46926648Y-25080473D01*
X46937500Y-25190661D01*
X46937500Y-25964339D01*
X46926648Y-26074527D01*
X46883762Y-26215901D01*
X46814120Y-26346194D01*
X46720399Y-26460393D01*
X46606190Y-26554122D01*
X46475900Y-26623762D01*
X46334526Y-26666648D01*
X46187500Y-26681128D01*
X46040473Y-26666648D01*
X45899099Y-26623762D01*
X45768806Y-26554120D01*
X45654607Y-26460399D01*
X45560878Y-26346190D01*
X45491238Y-26215900D01*
X45448352Y-26074526D01*
X45437500Y-25964338D01*
X45437500Y-25190661D01*
X45448352Y-25080475D01*
X45491240Y-24939098D01*
X45560881Y-24808806D01*
X45654605Y-24694604D01*
X45768807Y-24600880D01*
X45899100Y-24531238D01*
X46040474Y-24488352D01*
X46187500Y-24473872D01*
X46334527Y-24488352D01*
X46334527Y-24488352D01*
G37*
G36*
X53334527Y-24488352D02*
X53475901Y-24531238D01*
X53606194Y-24600880D01*
X53720396Y-24694604D01*
X53814120Y-24808806D01*
X53883762Y-24939099D01*
X53926648Y-25080473D01*
X53937500Y-25190661D01*
X53937500Y-25964339D01*
X53926648Y-26074527D01*
X53883762Y-26215901D01*
X53814120Y-26346194D01*
X53720399Y-26460393D01*
X53606190Y-26554122D01*
X53475900Y-26623762D01*
X53334526Y-26666648D01*
X53187500Y-26681128D01*
X53040473Y-26666648D01*
X52899099Y-26623762D01*
X52768806Y-26554120D01*
X52654607Y-26460399D01*
X52560878Y-26346190D01*
X52491238Y-26215901D01*
X52462117Y-26119901D01*
X52452740Y-26097262D01*
X52439126Y-26076888D01*
X52421799Y-26059560D01*
X52401424Y-26045947D01*
X52378785Y-26036569D01*
X52354752Y-26031789D01*
X52330248Y-26031789D01*
X52306214Y-26036570D01*
X52283575Y-26045947D01*
X52263201Y-26059561D01*
X52245873Y-26076888D01*
X52232260Y-26097263D01*
X52222882Y-26119902D01*
X52217500Y-26156187D01*
X52217500Y-26507500D01*
X50617500Y-26507500D01*
X50617500Y-24907500D01*
X52217500Y-24907500D01*
X52217500Y-24998813D01*
X52219902Y-25023199D01*
X52227015Y-25046648D01*
X52238566Y-25068259D01*
X52254112Y-25087201D01*
X52273054Y-25102747D01*
X52294665Y-25114298D01*
X52318114Y-25121411D01*
X52342500Y-25123813D01*
X52366886Y-25121411D01*
X52390335Y-25114298D01*
X52411946Y-25102747D01*
X52430888Y-25087201D01*
X52446434Y-25068259D01*
X52462117Y-25035100D01*
X52491240Y-24939097D01*
X52560881Y-24808806D01*
X52654605Y-24694604D01*
X52768807Y-24600880D01*
X52899100Y-24531238D01*
X53040474Y-24488352D01*
X53187500Y-24473872D01*
X53334527Y-24488352D01*
X53334527Y-24488352D01*
G37*
G36*
X50017500Y-26507500D02*
X48417500Y-26507500D01*
X48417500Y-24907500D01*
X50017500Y-24907500D01*
X50017500Y-26507500D01*
X50017500Y-26507500D01*
G37*
M02*
