G04 #@! TF.GenerationSoftware,KiCad,Pcbnew,5.0.2+dfsg1-1*
G04 #@! TF.CreationDate,2019-10-24T09:01:44+03:00*
G04 #@! TF.ProjectId,ERG-T-04,4552472d-542d-4303-942e-6b696361645f,rev?*
G04 #@! TF.SameCoordinates,Original*
G04 #@! TF.FileFunction,Legend,Bot*
G04 #@! TF.FilePolarity,Positive*
%FSLAX46Y46*%
G04 Gerber Fmt 4.6, Leading zero omitted, Abs format (unit mm)*
G04 Created by KiCad (PCBNEW 5.0.2+dfsg1-1) date Чт 24 окт 2019 09:01:44*
%MOMM*%
%LPD*%
G01*
G04 APERTURE LIST*
%ADD10C,0.200000*%
%ADD11C,0.100000*%
%ADD12C,0.150000*%
%ADD13C,0.030000*%
%ADD14C,0.120000*%
%ADD15C,0.070000*%
G04 APERTURE END LIST*
D10*
X106490000Y-85650000D02*
X106490000Y-85200000D01*
X106490000Y-85200000D02*
X106490000Y-85600000D01*
X106490000Y-85200000D02*
X106190000Y-85200000D01*
X106190000Y-84400000D02*
X106490000Y-84400000D01*
X106190000Y-85200000D02*
X106190000Y-84400000D01*
X106490000Y-84400000D02*
X106490000Y-83900000D01*
X109590000Y-84800000D02*
X109090000Y-84800000D01*
X106990000Y-85100000D02*
X106990000Y-84500000D01*
X106690000Y-84800000D02*
X107290000Y-84800000D01*
X109990000Y-83900000D02*
X109990000Y-85650000D01*
X106490000Y-83900000D02*
X109990000Y-83900000D01*
X109990000Y-85650000D02*
X106490000Y-85650000D01*
D11*
X104217500Y-85757500D02*
X104217500Y-83157500D01*
X104217500Y-67957500D02*
X104217500Y-70857500D01*
D10*
X51945000Y-53065000D02*
X51945000Y-53515000D01*
X51945000Y-53515000D02*
X51945000Y-53115000D01*
X51945000Y-53515000D02*
X52245000Y-53515000D01*
X52245000Y-54315000D02*
X51945000Y-54315000D01*
X52245000Y-53515000D02*
X52245000Y-54315000D01*
X51945000Y-54315000D02*
X51945000Y-54815000D01*
X48845000Y-53915000D02*
X49345000Y-53915000D01*
X51445000Y-53615000D02*
X51445000Y-54215000D01*
X51745000Y-53915000D02*
X51145000Y-53915000D01*
X48445000Y-54815000D02*
X48445000Y-53065000D01*
X51945000Y-54815000D02*
X48445000Y-54815000D01*
X48445000Y-53065000D02*
X51945000Y-53065000D01*
D11*
X54217500Y-52957500D02*
X54217500Y-55557500D01*
X54217500Y-70757500D02*
X54217500Y-67857500D01*
D10*
X51945000Y-23065000D02*
X51945000Y-23515000D01*
X51945000Y-23515000D02*
X51945000Y-23115000D01*
X51945000Y-23515000D02*
X52245000Y-23515000D01*
X52245000Y-24315000D02*
X51945000Y-24315000D01*
X52245000Y-23515000D02*
X52245000Y-24315000D01*
X51945000Y-24315000D02*
X51945000Y-24815000D01*
X48845000Y-23915000D02*
X49345000Y-23915000D01*
X51445000Y-23615000D02*
X51445000Y-24215000D01*
X51745000Y-23915000D02*
X51145000Y-23915000D01*
X48445000Y-24815000D02*
X48445000Y-23065000D01*
X51945000Y-24815000D02*
X48445000Y-24815000D01*
X48445000Y-23065000D02*
X51945000Y-23065000D01*
D11*
X54217500Y-22957500D02*
X54217500Y-25557500D01*
X54217500Y-40757500D02*
X54217500Y-37857500D01*
X104217500Y-37957500D02*
X104217500Y-40857500D01*
X104217500Y-55757500D02*
X104217500Y-53157500D01*
D10*
X109990000Y-55650000D02*
X106490000Y-55650000D01*
X106490000Y-53900000D02*
X109990000Y-53900000D01*
X109990000Y-53900000D02*
X109990000Y-55650000D01*
X106690000Y-54800000D02*
X107290000Y-54800000D01*
X106990000Y-55100000D02*
X106990000Y-54500000D01*
X109590000Y-54800000D02*
X109090000Y-54800000D01*
X106490000Y-54400000D02*
X106490000Y-53900000D01*
X106190000Y-55200000D02*
X106190000Y-54400000D01*
X106190000Y-54400000D02*
X106490000Y-54400000D01*
X106490000Y-55200000D02*
X106190000Y-55200000D01*
X106490000Y-55200000D02*
X106490000Y-55600000D01*
X106490000Y-55650000D02*
X106490000Y-55200000D01*
D12*
G04 #@! TO.C,U2*
X87410000Y-57855000D02*
X87410000Y-62255000D01*
X81885000Y-56280000D02*
X81885000Y-62255000D01*
D13*
G04 #@! TO.C,R14*
X25777500Y-78007500D02*
X25777500Y-75807500D01*
X23277500Y-78007500D02*
X25777500Y-78007500D01*
X23277500Y-75807500D02*
X23277500Y-78007500D01*
X25777500Y-75807500D02*
X23277500Y-75807500D01*
G04 #@! TO.C,R16*
X29847500Y-77977500D02*
X29847500Y-75777500D01*
X27347500Y-77977500D02*
X29847500Y-77977500D01*
X27347500Y-75777500D02*
X27347500Y-77977500D01*
X29847500Y-75777500D02*
X27347500Y-75777500D01*
D14*
G04 #@! TO.C,C23*
X59217500Y-60907500D02*
X59217500Y-59907500D01*
X60917500Y-59907500D02*
X60917500Y-60907500D01*
G04 #@! TO.C,C21*
X104907500Y-77607500D02*
X104907500Y-76107500D01*
X104157500Y-76857500D02*
X105657500Y-76857500D01*
X112738500Y-77136500D02*
X112738500Y-76578500D01*
X112698500Y-77529500D02*
X112698500Y-76185500D01*
X112658500Y-77770500D02*
X112658500Y-75944500D01*
X112555937Y-75474236D02*
G75*
G02X112556857Y-78237500I-4898437J-1383264D01*
G01*
X112555937Y-75474236D02*
G75*
G03X102758143Y-75477500I-4898437J-1383264D01*
G01*
X112555937Y-78240764D02*
G75*
G02X102758143Y-78237500I-4898437J1383264D01*
G01*
G04 #@! TO.C,R19*
X56817500Y-60297500D02*
X58017500Y-60297500D01*
X58017500Y-58537500D02*
X56817500Y-58537500D01*
G04 #@! TO.C,IC2*
X100657500Y-79857500D02*
X103657500Y-79857500D01*
X99657500Y-83097500D02*
X101657500Y-83097500D01*
G04 #@! TO.C,C20*
X88204000Y-71312000D02*
X89204000Y-71312000D01*
X89204000Y-73012000D02*
X88204000Y-73012000D01*
G04 #@! TO.C,C19*
X89600000Y-81060000D02*
X89600000Y-82060000D01*
X87900000Y-82060000D02*
X87900000Y-81060000D01*
G04 #@! TO.C,C16*
X78950000Y-83010000D02*
X77950000Y-83010000D01*
X77950000Y-81310000D02*
X78950000Y-81310000D01*
G04 #@! TO.C,R7*
X99217500Y-74107500D02*
X100417500Y-74107500D01*
X100417500Y-72347500D02*
X99217500Y-72347500D01*
G04 #@! TO.C,R6*
X100417500Y-74857500D02*
X99217500Y-74857500D01*
X99217500Y-76617500D02*
X100417500Y-76617500D01*
G04 #@! TO.C,R5*
X97317500Y-72977500D02*
X96117500Y-72977500D01*
X96117500Y-74737500D02*
X97317500Y-74737500D01*
G04 #@! TO.C,R4*
X94217500Y-74877500D02*
X93017500Y-74877500D01*
X93017500Y-76637500D02*
X94217500Y-76637500D01*
G04 #@! TO.C,R3*
X93017500Y-74737500D02*
X94217500Y-74737500D01*
X94217500Y-72977500D02*
X93017500Y-72977500D01*
G04 #@! TO.C,R2*
X93017500Y-72837500D02*
X94217500Y-72837500D01*
X94217500Y-71077500D02*
X93017500Y-71077500D01*
G04 #@! TO.C,R1*
X92657500Y-79157500D02*
X93857500Y-79157500D01*
X93857500Y-77397500D02*
X92657500Y-77397500D01*
G04 #@! TO.C,C17*
X72405000Y-72660000D02*
X72405000Y-71660000D01*
X74105000Y-71660000D02*
X74105000Y-72660000D01*
G04 #@! TO.C,C15*
X74305000Y-72660000D02*
X74305000Y-71660000D01*
X76005000Y-71660000D02*
X76005000Y-72660000D01*
G04 #@! TO.C,C7*
X79050000Y-73210000D02*
X78050000Y-73210000D01*
X78050000Y-71510000D02*
X79050000Y-71510000D01*
G04 #@! TO.C,C4*
X93325000Y-80860000D02*
X93325000Y-81860000D01*
X91625000Y-81860000D02*
X91625000Y-80860000D01*
G04 #@! TO.C,C2*
X95375000Y-80860000D02*
X95375000Y-81860000D01*
X93675000Y-81860000D02*
X93675000Y-80860000D01*
G04 #@! TO.C,R13*
X61755000Y-72780000D02*
X61755000Y-73670000D01*
X61755000Y-80980000D02*
X61755000Y-80090000D01*
X63065000Y-73670000D02*
X63065000Y-80090000D01*
X60445000Y-73670000D02*
X63065000Y-73670000D01*
X60445000Y-80090000D02*
X60445000Y-73670000D01*
X63065000Y-80090000D02*
X60445000Y-80090000D01*
G04 #@! TO.C,R11*
X65555000Y-72780000D02*
X65555000Y-73670000D01*
X65555000Y-80980000D02*
X65555000Y-80090000D01*
X66865000Y-73670000D02*
X66865000Y-80090000D01*
X64245000Y-73670000D02*
X66865000Y-73670000D01*
X64245000Y-80090000D02*
X64245000Y-73670000D01*
X66865000Y-80090000D02*
X64245000Y-80090000D01*
G04 #@! TO.C,Q1*
X110482500Y-73887500D02*
X111942500Y-73887500D01*
X110482500Y-70727500D02*
X112642500Y-70727500D01*
X110482500Y-70727500D02*
X110482500Y-71657500D01*
X110482500Y-73887500D02*
X110482500Y-72957500D01*
D12*
G04 #@! TO.C,SPI1-CS1*
X87275000Y-73585000D02*
X88650000Y-73585000D01*
X80025000Y-73135000D02*
X80550000Y-73135000D01*
X80025000Y-80385000D02*
X80550000Y-80385000D01*
X87275000Y-80385000D02*
X86750000Y-80385000D01*
X87275000Y-73135000D02*
X86750000Y-73135000D01*
X87275000Y-80385000D02*
X87275000Y-79860000D01*
X80025000Y-80385000D02*
X80025000Y-79860000D01*
X80025000Y-73135000D02*
X80025000Y-73660000D01*
X87275000Y-73135000D02*
X87275000Y-73585000D01*
D14*
G04 #@! TO.C,D2*
X109917500Y-82307500D02*
X107117500Y-82307500D01*
X109917500Y-83707500D02*
X107117500Y-83707500D01*
X109917500Y-82307500D02*
X109917500Y-83707500D01*
G04 #@! TO.C,R18*
X69355000Y-80940000D02*
X69355000Y-80050000D01*
X69355000Y-72740000D02*
X69355000Y-73630000D01*
X68045000Y-80050000D02*
X68045000Y-73630000D01*
X70665000Y-80050000D02*
X68045000Y-80050000D01*
X70665000Y-73630000D02*
X70665000Y-80050000D01*
X68045000Y-73630000D02*
X70665000Y-73630000D01*
G04 #@! TO.C,R9*
X96107500Y-76617500D02*
X97307500Y-76617500D01*
X97307500Y-74857500D02*
X96107500Y-74857500D01*
G04 #@! TO.C,R19*
X100417500Y-80177500D02*
X101617500Y-80177500D01*
X101617500Y-78417500D02*
X100417500Y-78417500D01*
G04 #@! TO.C,C23*
X97517500Y-78807500D02*
X97517500Y-77807500D01*
X99217500Y-77807500D02*
X99217500Y-78807500D01*
D13*
G04 #@! TO.C,R14*
X132657500Y-62907500D02*
X135157500Y-62907500D01*
X135157500Y-62907500D02*
X135157500Y-60707500D01*
X135157500Y-60707500D02*
X132657500Y-60707500D01*
X132657500Y-60707500D02*
X132657500Y-62907500D01*
G04 #@! TO.C,R16*
X128587500Y-62937500D02*
X131087500Y-62937500D01*
X131087500Y-62937500D02*
X131087500Y-60737500D01*
X131087500Y-60737500D02*
X128587500Y-60737500D01*
X128587500Y-60737500D02*
X128587500Y-62937500D01*
D14*
G04 #@! TO.C,C21*
X45879063Y-60474236D02*
G75*
G02X55676857Y-60477500I4898437J-1383264D01*
G01*
X45879063Y-63240764D02*
G75*
G03X55676857Y-63237500I4898437J1383264D01*
G01*
X45879063Y-63240764D02*
G75*
G02X45878143Y-60477500I4898437J1383264D01*
G01*
X45776500Y-60944500D02*
X45776500Y-62770500D01*
X45736500Y-61185500D02*
X45736500Y-62529500D01*
X45696500Y-61578500D02*
X45696500Y-62136500D01*
X54277500Y-61857500D02*
X52777500Y-61857500D01*
X53527500Y-61107500D02*
X53527500Y-62607500D01*
G04 #@! TO.C,IC2*
X58777500Y-55617500D02*
X56777500Y-55617500D01*
X57777500Y-58857500D02*
X54777500Y-58857500D01*
G04 #@! TO.C,C20*
X69231000Y-65703000D02*
X70231000Y-65703000D01*
X70231000Y-67403000D02*
X69231000Y-67403000D01*
G04 #@! TO.C,C19*
X70535000Y-56655000D02*
X70535000Y-57655000D01*
X68835000Y-57655000D02*
X68835000Y-56655000D01*
G04 #@! TO.C,C16*
X80485000Y-57405000D02*
X79485000Y-57405000D01*
X79485000Y-55705000D02*
X80485000Y-55705000D01*
G04 #@! TO.C,R7*
X58017500Y-66367500D02*
X59217500Y-66367500D01*
X59217500Y-64607500D02*
X58017500Y-64607500D01*
G04 #@! TO.C,R6*
X59217500Y-62097500D02*
X58017500Y-62097500D01*
X58017500Y-63857500D02*
X59217500Y-63857500D01*
G04 #@! TO.C,R5*
X62317500Y-63977500D02*
X61117500Y-63977500D01*
X61117500Y-65737500D02*
X62317500Y-65737500D01*
G04 #@! TO.C,R4*
X65417500Y-62077500D02*
X64217500Y-62077500D01*
X64217500Y-63837500D02*
X65417500Y-63837500D01*
G04 #@! TO.C,R3*
X64217500Y-65737500D02*
X65417500Y-65737500D01*
X65417500Y-63977500D02*
X64217500Y-63977500D01*
G04 #@! TO.C,R2*
X64217500Y-67637500D02*
X65417500Y-67637500D01*
X65417500Y-65877500D02*
X64217500Y-65877500D01*
G04 #@! TO.C,R1*
X64577500Y-61317500D02*
X65777500Y-61317500D01*
X65777500Y-59557500D02*
X64577500Y-59557500D01*
G04 #@! TO.C,C17*
X84330000Y-67055000D02*
X84330000Y-66055000D01*
X86030000Y-66055000D02*
X86030000Y-67055000D01*
G04 #@! TO.C,C15*
X82430000Y-67055000D02*
X82430000Y-66055000D01*
X84130000Y-66055000D02*
X84130000Y-67055000D01*
G04 #@! TO.C,C7*
X80385000Y-67205000D02*
X79385000Y-67205000D01*
X79385000Y-65505000D02*
X80385000Y-65505000D01*
G04 #@! TO.C,C4*
X66810000Y-56855000D02*
X66810000Y-57855000D01*
X65110000Y-57855000D02*
X65110000Y-56855000D01*
G04 #@! TO.C,C2*
X64760000Y-56855000D02*
X64760000Y-57855000D01*
X63060000Y-57855000D02*
X63060000Y-56855000D01*
G04 #@! TO.C,R13*
X95370000Y-58625000D02*
X97990000Y-58625000D01*
X97990000Y-58625000D02*
X97990000Y-65045000D01*
X97990000Y-65045000D02*
X95370000Y-65045000D01*
X95370000Y-65045000D02*
X95370000Y-58625000D01*
X96680000Y-57735000D02*
X96680000Y-58625000D01*
X96680000Y-65935000D02*
X96680000Y-65045000D01*
G04 #@! TO.C,R11*
X91570000Y-58625000D02*
X94190000Y-58625000D01*
X94190000Y-58625000D02*
X94190000Y-65045000D01*
X94190000Y-65045000D02*
X91570000Y-65045000D01*
X91570000Y-65045000D02*
X91570000Y-58625000D01*
X92880000Y-57735000D02*
X92880000Y-58625000D01*
X92880000Y-65935000D02*
X92880000Y-65045000D01*
G04 #@! TO.C,D2*
X48517500Y-56407500D02*
X48517500Y-55007500D01*
X48517500Y-55007500D02*
X51317500Y-55007500D01*
X48517500Y-56407500D02*
X51317500Y-56407500D01*
G04 #@! TO.C,R18*
X90390000Y-65085000D02*
X87770000Y-65085000D01*
X87770000Y-65085000D02*
X87770000Y-58665000D01*
X87770000Y-58665000D02*
X90390000Y-58665000D01*
X90390000Y-58665000D02*
X90390000Y-65085000D01*
X89080000Y-65975000D02*
X89080000Y-65085000D01*
X89080000Y-57775000D02*
X89080000Y-58665000D01*
G04 #@! TO.C,R9*
X61127500Y-63857500D02*
X62327500Y-63857500D01*
X62327500Y-62097500D02*
X61127500Y-62097500D01*
G04 #@! TO.C,Q1*
X47952500Y-64827500D02*
X47952500Y-65757500D01*
X47952500Y-67987500D02*
X47952500Y-67057500D01*
X47952500Y-67987500D02*
X45792500Y-67987500D01*
X47952500Y-64827500D02*
X46492500Y-64827500D01*
D12*
G04 #@! TO.C,SPI1-CS1*
X71160000Y-65580000D02*
X71160000Y-65130000D01*
X78410000Y-65580000D02*
X78410000Y-65055000D01*
X78410000Y-58330000D02*
X78410000Y-58855000D01*
X71160000Y-58330000D02*
X71160000Y-58855000D01*
X71160000Y-65580000D02*
X71685000Y-65580000D01*
X71160000Y-58330000D02*
X71685000Y-58330000D01*
X78410000Y-58330000D02*
X77885000Y-58330000D01*
X78410000Y-65580000D02*
X77885000Y-65580000D01*
X71160000Y-65130000D02*
X69785000Y-65130000D01*
G04 #@! TO.C,U2*
X76550000Y-82435000D02*
X76550000Y-76460000D01*
X71025000Y-80860000D02*
X71025000Y-76460000D01*
D13*
G04 #@! TO.C,R14*
X132657500Y-30707500D02*
X132657500Y-32907500D01*
X135157500Y-30707500D02*
X132657500Y-30707500D01*
X135157500Y-32907500D02*
X135157500Y-30707500D01*
X132657500Y-32907500D02*
X135157500Y-32907500D01*
G04 #@! TO.C,R16*
X128587500Y-30737500D02*
X128587500Y-32937500D01*
X131087500Y-30737500D02*
X128587500Y-30737500D01*
X131087500Y-32937500D02*
X131087500Y-30737500D01*
X128587500Y-32937500D02*
X131087500Y-32937500D01*
D14*
G04 #@! TO.C,C21*
X53527500Y-31107500D02*
X53527500Y-32607500D01*
X54277500Y-31857500D02*
X52777500Y-31857500D01*
X45696500Y-31578500D02*
X45696500Y-32136500D01*
X45736500Y-31185500D02*
X45736500Y-32529500D01*
X45776500Y-30944500D02*
X45776500Y-32770500D01*
X45879063Y-33240764D02*
G75*
G02X45878143Y-30477500I4898437J1383264D01*
G01*
X45879063Y-33240764D02*
G75*
G03X55676857Y-33237500I4898437J1383264D01*
G01*
X45879063Y-30474236D02*
G75*
G02X55676857Y-30477500I4898437J-1383264D01*
G01*
G04 #@! TO.C,IC2*
X57777500Y-28857500D02*
X54777500Y-28857500D01*
X58777500Y-25617500D02*
X56777500Y-25617500D01*
G04 #@! TO.C,C20*
X70231000Y-37403000D02*
X69231000Y-37403000D01*
X69231000Y-35703000D02*
X70231000Y-35703000D01*
G04 #@! TO.C,C19*
X68835000Y-27655000D02*
X68835000Y-26655000D01*
X70535000Y-26655000D02*
X70535000Y-27655000D01*
G04 #@! TO.C,C16*
X79485000Y-25705000D02*
X80485000Y-25705000D01*
X80485000Y-27405000D02*
X79485000Y-27405000D01*
G04 #@! TO.C,R7*
X59217500Y-34607500D02*
X58017500Y-34607500D01*
X58017500Y-36367500D02*
X59217500Y-36367500D01*
G04 #@! TO.C,R6*
X58017500Y-33857500D02*
X59217500Y-33857500D01*
X59217500Y-32097500D02*
X58017500Y-32097500D01*
G04 #@! TO.C,R5*
X61117500Y-35737500D02*
X62317500Y-35737500D01*
X62317500Y-33977500D02*
X61117500Y-33977500D01*
G04 #@! TO.C,R4*
X64217500Y-33837500D02*
X65417500Y-33837500D01*
X65417500Y-32077500D02*
X64217500Y-32077500D01*
G04 #@! TO.C,R3*
X65417500Y-33977500D02*
X64217500Y-33977500D01*
X64217500Y-35737500D02*
X65417500Y-35737500D01*
G04 #@! TO.C,R2*
X65417500Y-35877500D02*
X64217500Y-35877500D01*
X64217500Y-37637500D02*
X65417500Y-37637500D01*
G04 #@! TO.C,R1*
X65777500Y-29557500D02*
X64577500Y-29557500D01*
X64577500Y-31317500D02*
X65777500Y-31317500D01*
G04 #@! TO.C,C17*
X86030000Y-36055000D02*
X86030000Y-37055000D01*
X84330000Y-37055000D02*
X84330000Y-36055000D01*
G04 #@! TO.C,C15*
X84130000Y-36055000D02*
X84130000Y-37055000D01*
X82430000Y-37055000D02*
X82430000Y-36055000D01*
G04 #@! TO.C,C7*
X79385000Y-35505000D02*
X80385000Y-35505000D01*
X80385000Y-37205000D02*
X79385000Y-37205000D01*
G04 #@! TO.C,C4*
X65110000Y-27855000D02*
X65110000Y-26855000D01*
X66810000Y-26855000D02*
X66810000Y-27855000D01*
G04 #@! TO.C,C2*
X63060000Y-27855000D02*
X63060000Y-26855000D01*
X64760000Y-26855000D02*
X64760000Y-27855000D01*
G04 #@! TO.C,R13*
X96680000Y-35935000D02*
X96680000Y-35045000D01*
X96680000Y-27735000D02*
X96680000Y-28625000D01*
X95370000Y-35045000D02*
X95370000Y-28625000D01*
X97990000Y-35045000D02*
X95370000Y-35045000D01*
X97990000Y-28625000D02*
X97990000Y-35045000D01*
X95370000Y-28625000D02*
X97990000Y-28625000D01*
G04 #@! TO.C,R11*
X92880000Y-35935000D02*
X92880000Y-35045000D01*
X92880000Y-27735000D02*
X92880000Y-28625000D01*
X91570000Y-35045000D02*
X91570000Y-28625000D01*
X94190000Y-35045000D02*
X91570000Y-35045000D01*
X94190000Y-28625000D02*
X94190000Y-35045000D01*
X91570000Y-28625000D02*
X94190000Y-28625000D01*
G04 #@! TO.C,Q1*
X47952500Y-34827500D02*
X46492500Y-34827500D01*
X47952500Y-37987500D02*
X45792500Y-37987500D01*
X47952500Y-37987500D02*
X47952500Y-37057500D01*
X47952500Y-34827500D02*
X47952500Y-35757500D01*
D12*
G04 #@! TO.C,SPI1-CS1*
X71160000Y-35130000D02*
X69785000Y-35130000D01*
X78410000Y-35580000D02*
X77885000Y-35580000D01*
X78410000Y-28330000D02*
X77885000Y-28330000D01*
X71160000Y-28330000D02*
X71685000Y-28330000D01*
X71160000Y-35580000D02*
X71685000Y-35580000D01*
X71160000Y-28330000D02*
X71160000Y-28855000D01*
X78410000Y-28330000D02*
X78410000Y-28855000D01*
X78410000Y-35580000D02*
X78410000Y-35055000D01*
X71160000Y-35580000D02*
X71160000Y-35130000D01*
D14*
G04 #@! TO.C,D2*
X48517500Y-26407500D02*
X51317500Y-26407500D01*
X48517500Y-25007500D02*
X51317500Y-25007500D01*
X48517500Y-26407500D02*
X48517500Y-25007500D01*
G04 #@! TO.C,R18*
X89080000Y-27775000D02*
X89080000Y-28665000D01*
X89080000Y-35975000D02*
X89080000Y-35085000D01*
X90390000Y-28665000D02*
X90390000Y-35085000D01*
X87770000Y-28665000D02*
X90390000Y-28665000D01*
X87770000Y-35085000D02*
X87770000Y-28665000D01*
X90390000Y-35085000D02*
X87770000Y-35085000D01*
G04 #@! TO.C,R9*
X62327500Y-32097500D02*
X61127500Y-32097500D01*
X61127500Y-33857500D02*
X62327500Y-33857500D01*
G04 #@! TO.C,R19*
X58017500Y-28537500D02*
X56817500Y-28537500D01*
X56817500Y-30297500D02*
X58017500Y-30297500D01*
G04 #@! TO.C,C23*
X60917500Y-29907500D02*
X60917500Y-30907500D01*
X59217500Y-30907500D02*
X59217500Y-29907500D01*
D12*
G04 #@! TO.C,U2*
X81885000Y-26280000D02*
X81885000Y-32255000D01*
X87410000Y-27855000D02*
X87410000Y-32255000D01*
D13*
G04 #@! TO.C,R14*
X25777500Y-45807500D02*
X23277500Y-45807500D01*
X23277500Y-45807500D02*
X23277500Y-48007500D01*
X23277500Y-48007500D02*
X25777500Y-48007500D01*
X25777500Y-48007500D02*
X25777500Y-45807500D01*
G04 #@! TO.C,R16*
X29847500Y-45777500D02*
X27347500Y-45777500D01*
X27347500Y-45777500D02*
X27347500Y-47977500D01*
X27347500Y-47977500D02*
X29847500Y-47977500D01*
X29847500Y-47977500D02*
X29847500Y-45777500D01*
D14*
G04 #@! TO.C,C21*
X112555937Y-48240764D02*
G75*
G02X102758143Y-48237500I-4898437J1383264D01*
G01*
X112555937Y-45474236D02*
G75*
G03X102758143Y-45477500I-4898437J-1383264D01*
G01*
X112555937Y-45474236D02*
G75*
G02X112556857Y-48237500I-4898437J-1383264D01*
G01*
X112658500Y-47770500D02*
X112658500Y-45944500D01*
X112698500Y-47529500D02*
X112698500Y-46185500D01*
X112738500Y-47136500D02*
X112738500Y-46578500D01*
X104157500Y-46857500D02*
X105657500Y-46857500D01*
X104907500Y-47607500D02*
X104907500Y-46107500D01*
D12*
G04 #@! TO.C,U2*
X71025000Y-50860000D02*
X71025000Y-46460000D01*
X76550000Y-52435000D02*
X76550000Y-46460000D01*
D14*
G04 #@! TO.C,IC2*
X99657500Y-53097500D02*
X101657500Y-53097500D01*
X100657500Y-49857500D02*
X103657500Y-49857500D01*
G04 #@! TO.C,R11*
X66865000Y-50090000D02*
X64245000Y-50090000D01*
X64245000Y-50090000D02*
X64245000Y-43670000D01*
X64245000Y-43670000D02*
X66865000Y-43670000D01*
X66865000Y-43670000D02*
X66865000Y-50090000D01*
X65555000Y-50980000D02*
X65555000Y-50090000D01*
X65555000Y-42780000D02*
X65555000Y-43670000D01*
G04 #@! TO.C,R13*
X63065000Y-50090000D02*
X60445000Y-50090000D01*
X60445000Y-50090000D02*
X60445000Y-43670000D01*
X60445000Y-43670000D02*
X63065000Y-43670000D01*
X63065000Y-43670000D02*
X63065000Y-50090000D01*
X61755000Y-50980000D02*
X61755000Y-50090000D01*
X61755000Y-42780000D02*
X61755000Y-43670000D01*
G04 #@! TO.C,C2*
X93675000Y-51860000D02*
X93675000Y-50860000D01*
X95375000Y-50860000D02*
X95375000Y-51860000D01*
G04 #@! TO.C,C4*
X91625000Y-51860000D02*
X91625000Y-50860000D01*
X93325000Y-50860000D02*
X93325000Y-51860000D01*
G04 #@! TO.C,C7*
X78050000Y-41510000D02*
X79050000Y-41510000D01*
X79050000Y-43210000D02*
X78050000Y-43210000D01*
G04 #@! TO.C,C15*
X76005000Y-41660000D02*
X76005000Y-42660000D01*
X74305000Y-42660000D02*
X74305000Y-41660000D01*
G04 #@! TO.C,C17*
X74105000Y-41660000D02*
X74105000Y-42660000D01*
X72405000Y-42660000D02*
X72405000Y-41660000D01*
G04 #@! TO.C,R1*
X93857500Y-47397500D02*
X92657500Y-47397500D01*
X92657500Y-49157500D02*
X93857500Y-49157500D01*
G04 #@! TO.C,R2*
X94217500Y-41077500D02*
X93017500Y-41077500D01*
X93017500Y-42837500D02*
X94217500Y-42837500D01*
G04 #@! TO.C,R3*
X94217500Y-42977500D02*
X93017500Y-42977500D01*
X93017500Y-44737500D02*
X94217500Y-44737500D01*
G04 #@! TO.C,R4*
X93017500Y-46637500D02*
X94217500Y-46637500D01*
X94217500Y-44877500D02*
X93017500Y-44877500D01*
G04 #@! TO.C,R5*
X96117500Y-44737500D02*
X97317500Y-44737500D01*
X97317500Y-42977500D02*
X96117500Y-42977500D01*
G04 #@! TO.C,R6*
X99217500Y-46617500D02*
X100417500Y-46617500D01*
X100417500Y-44857500D02*
X99217500Y-44857500D01*
G04 #@! TO.C,R7*
X100417500Y-42347500D02*
X99217500Y-42347500D01*
X99217500Y-44107500D02*
X100417500Y-44107500D01*
G04 #@! TO.C,C16*
X77950000Y-51310000D02*
X78950000Y-51310000D01*
X78950000Y-53010000D02*
X77950000Y-53010000D01*
G04 #@! TO.C,C19*
X87900000Y-52060000D02*
X87900000Y-51060000D01*
X89600000Y-51060000D02*
X89600000Y-52060000D01*
G04 #@! TO.C,C20*
X89204000Y-43012000D02*
X88204000Y-43012000D01*
X88204000Y-41312000D02*
X89204000Y-41312000D01*
G04 #@! TO.C,C23*
X99217500Y-47807500D02*
X99217500Y-48807500D01*
X97517500Y-48807500D02*
X97517500Y-47807500D01*
G04 #@! TO.C,R19*
X101617500Y-48417500D02*
X100417500Y-48417500D01*
X100417500Y-50177500D02*
X101617500Y-50177500D01*
G04 #@! TO.C,R9*
X97307500Y-44857500D02*
X96107500Y-44857500D01*
X96107500Y-46617500D02*
X97307500Y-46617500D01*
G04 #@! TO.C,R18*
X68045000Y-43630000D02*
X70665000Y-43630000D01*
X70665000Y-43630000D02*
X70665000Y-50050000D01*
X70665000Y-50050000D02*
X68045000Y-50050000D01*
X68045000Y-50050000D02*
X68045000Y-43630000D01*
X69355000Y-42740000D02*
X69355000Y-43630000D01*
X69355000Y-50940000D02*
X69355000Y-50050000D01*
G04 #@! TO.C,D2*
X109917500Y-52307500D02*
X109917500Y-53707500D01*
X109917500Y-53707500D02*
X107117500Y-53707500D01*
X109917500Y-52307500D02*
X107117500Y-52307500D01*
D12*
G04 #@! TO.C,SPI1-CS1*
X87275000Y-43135000D02*
X87275000Y-43585000D01*
X80025000Y-43135000D02*
X80025000Y-43660000D01*
X80025000Y-50385000D02*
X80025000Y-49860000D01*
X87275000Y-50385000D02*
X87275000Y-49860000D01*
X87275000Y-43135000D02*
X86750000Y-43135000D01*
X87275000Y-50385000D02*
X86750000Y-50385000D01*
X80025000Y-50385000D02*
X80550000Y-50385000D01*
X80025000Y-43135000D02*
X80550000Y-43135000D01*
X87275000Y-43585000D02*
X88650000Y-43585000D01*
D14*
G04 #@! TO.C,Q1*
X110482500Y-43887500D02*
X110482500Y-42957500D01*
X110482500Y-40727500D02*
X110482500Y-41657500D01*
X110482500Y-40727500D02*
X112642500Y-40727500D01*
X110482500Y-43887500D02*
X111942500Y-43887500D01*
G04 #@! TO.C,U2*
D11*
X81480833Y-58836071D02*
X81480833Y-59074166D01*
X81623690Y-58788452D02*
X81123690Y-58955119D01*
X81623690Y-59121785D01*
X81623690Y-59288452D02*
X81123690Y-59288452D01*
X81123690Y-59407500D01*
X81147500Y-59478928D01*
X81195119Y-59526547D01*
X81242738Y-59550357D01*
X81337976Y-59574166D01*
X81409404Y-59574166D01*
X81504642Y-59550357D01*
X81552261Y-59526547D01*
X81599880Y-59478928D01*
X81623690Y-59407500D01*
X81623690Y-59288452D01*
X81123690Y-59740833D02*
X81123690Y-60074166D01*
X81623690Y-59859880D01*
X81123690Y-60217023D02*
X81123690Y-60550357D01*
X81623690Y-60336071D01*
X81123690Y-60693214D02*
X81123690Y-61026547D01*
X81623690Y-60812261D01*
X81623690Y-61240833D02*
X81623690Y-61336071D01*
X81599880Y-61383690D01*
X81576071Y-61407500D01*
X81504642Y-61455119D01*
X81409404Y-61478928D01*
X81218928Y-61478928D01*
X81171309Y-61455119D01*
X81147500Y-61431309D01*
X81123690Y-61383690D01*
X81123690Y-61288452D01*
X81147500Y-61240833D01*
X81171309Y-61217023D01*
X81218928Y-61193214D01*
X81337976Y-61193214D01*
X81385595Y-61217023D01*
X81409404Y-61240833D01*
X81433214Y-61288452D01*
X81433214Y-61383690D01*
X81409404Y-61431309D01*
X81385595Y-61455119D01*
X81337976Y-61478928D01*
G04 #@! TO.C,R14*
X25625833Y-75915833D02*
X25525833Y-75949166D01*
X25359166Y-75949166D01*
X25292500Y-75915833D01*
X25259166Y-75882500D01*
X25225833Y-75815833D01*
X25225833Y-75749166D01*
X25259166Y-75682500D01*
X25292500Y-75649166D01*
X25359166Y-75615833D01*
X25492500Y-75582500D01*
X25559166Y-75549166D01*
X25592500Y-75515833D01*
X25625833Y-75449166D01*
X25625833Y-75382500D01*
X25592500Y-75315833D01*
X25559166Y-75282500D01*
X25492500Y-75249166D01*
X25325833Y-75249166D01*
X25225833Y-75282500D01*
X24959166Y-75315833D02*
X24925833Y-75282500D01*
X24859166Y-75249166D01*
X24692500Y-75249166D01*
X24625833Y-75282500D01*
X24592500Y-75315833D01*
X24559166Y-75382500D01*
X24559166Y-75449166D01*
X24592500Y-75549166D01*
X24992500Y-75949166D01*
X24559166Y-75949166D01*
G04 #@! TO.C,R16*
X29750833Y-75940833D02*
X29650833Y-75974166D01*
X29484166Y-75974166D01*
X29417500Y-75940833D01*
X29384166Y-75907500D01*
X29350833Y-75840833D01*
X29350833Y-75774166D01*
X29384166Y-75707500D01*
X29417500Y-75674166D01*
X29484166Y-75640833D01*
X29617500Y-75607500D01*
X29684166Y-75574166D01*
X29717500Y-75540833D01*
X29750833Y-75474166D01*
X29750833Y-75407500D01*
X29717500Y-75340833D01*
X29684166Y-75307500D01*
X29617500Y-75274166D01*
X29450833Y-75274166D01*
X29350833Y-75307500D01*
X29117500Y-75274166D02*
X28684166Y-75274166D01*
X28917500Y-75540833D01*
X28817500Y-75540833D01*
X28750833Y-75574166D01*
X28717500Y-75607500D01*
X28684166Y-75674166D01*
X28684166Y-75840833D01*
X28717500Y-75907500D01*
X28750833Y-75940833D01*
X28817500Y-75974166D01*
X29017500Y-75974166D01*
X29084166Y-75940833D01*
X29117500Y-75907500D01*
G04 #@! TO.C,C23*
X61391309Y-61388452D02*
X61391309Y-61340833D01*
X61367500Y-61293214D01*
X61343690Y-61269404D01*
X61296071Y-61245595D01*
X61200833Y-61221785D01*
X61081785Y-61221785D01*
X60986547Y-61245595D01*
X60938928Y-61269404D01*
X60915119Y-61293214D01*
X60891309Y-61340833D01*
X60891309Y-61388452D01*
X60915119Y-61436071D01*
X60938928Y-61459880D01*
X60986547Y-61483690D01*
X61081785Y-61507500D01*
X61200833Y-61507500D01*
X61296071Y-61483690D01*
X61343690Y-61459880D01*
X61367500Y-61436071D01*
X61391309Y-61388452D01*
X60938928Y-61007500D02*
X60915119Y-60983690D01*
X60891309Y-61007500D01*
X60915119Y-61031309D01*
X60938928Y-61007500D01*
X60891309Y-61007500D01*
X60891309Y-60507500D02*
X60891309Y-60793214D01*
X60891309Y-60650357D02*
X61391309Y-60650357D01*
X61319880Y-60697976D01*
X61272261Y-60745595D01*
X61248452Y-60793214D01*
X60891309Y-60293214D02*
X61224642Y-60293214D01*
X61177023Y-60293214D02*
X61200833Y-60269404D01*
X61224642Y-60221785D01*
X61224642Y-60150357D01*
X61200833Y-60102738D01*
X61153214Y-60078928D01*
X60891309Y-60078928D01*
X61153214Y-60078928D02*
X61200833Y-60055119D01*
X61224642Y-60007500D01*
X61224642Y-59936071D01*
X61200833Y-59888452D01*
X61153214Y-59864642D01*
X60891309Y-59864642D01*
X60891309Y-59626547D02*
X61391309Y-59626547D01*
X61081785Y-59578928D02*
X60891309Y-59436071D01*
X61224642Y-59436071D02*
X61034166Y-59626547D01*
X61153214Y-59055119D02*
X61153214Y-59221785D01*
X60891309Y-59221785D02*
X61391309Y-59221785D01*
X61391309Y-58983690D01*
G04 #@! TO.C,C21*
X107443690Y-75117023D02*
X107443690Y-75164642D01*
X107467500Y-75212261D01*
X107491309Y-75236071D01*
X107538928Y-75259880D01*
X107634166Y-75283690D01*
X107753214Y-75283690D01*
X107848452Y-75259880D01*
X107896071Y-75236071D01*
X107919880Y-75212261D01*
X107943690Y-75164642D01*
X107943690Y-75117023D01*
X107919880Y-75069404D01*
X107896071Y-75045595D01*
X107848452Y-75021785D01*
X107753214Y-74997976D01*
X107634166Y-74997976D01*
X107538928Y-75021785D01*
X107491309Y-75045595D01*
X107467500Y-75069404D01*
X107443690Y-75117023D01*
X107896071Y-75497976D02*
X107919880Y-75521785D01*
X107943690Y-75497976D01*
X107919880Y-75474166D01*
X107896071Y-75497976D01*
X107943690Y-75497976D01*
X107443690Y-75688452D02*
X107443690Y-75997976D01*
X107634166Y-75831309D01*
X107634166Y-75902738D01*
X107657976Y-75950357D01*
X107681785Y-75974166D01*
X107729404Y-75997976D01*
X107848452Y-75997976D01*
X107896071Y-75974166D01*
X107919880Y-75950357D01*
X107943690Y-75902738D01*
X107943690Y-75759880D01*
X107919880Y-75712261D01*
X107896071Y-75688452D01*
X107443690Y-76164642D02*
X107443690Y-76474166D01*
X107634166Y-76307500D01*
X107634166Y-76378928D01*
X107657976Y-76426547D01*
X107681785Y-76450357D01*
X107729404Y-76474166D01*
X107848452Y-76474166D01*
X107896071Y-76450357D01*
X107919880Y-76426547D01*
X107943690Y-76378928D01*
X107943690Y-76236071D01*
X107919880Y-76188452D01*
X107896071Y-76164642D01*
X107681785Y-76855119D02*
X107681785Y-76688452D01*
X107943690Y-76688452D02*
X107443690Y-76688452D01*
X107443690Y-76926547D01*
X107943690Y-77497976D02*
X107610357Y-77497976D01*
X107443690Y-77497976D02*
X107467500Y-77474166D01*
X107491309Y-77497976D01*
X107467500Y-77521785D01*
X107443690Y-77497976D01*
X107491309Y-77497976D01*
X107943690Y-77807500D02*
X107919880Y-77759880D01*
X107896071Y-77736071D01*
X107848452Y-77712261D01*
X107705595Y-77712261D01*
X107657976Y-77736071D01*
X107634166Y-77759880D01*
X107610357Y-77807500D01*
X107610357Y-77878928D01*
X107634166Y-77926547D01*
X107657976Y-77950357D01*
X107705595Y-77974166D01*
X107848452Y-77974166D01*
X107896071Y-77950357D01*
X107919880Y-77926547D01*
X107943690Y-77878928D01*
X107943690Y-77807500D01*
X107610357Y-78188452D02*
X107943690Y-78188452D01*
X107657976Y-78188452D02*
X107634166Y-78212261D01*
X107610357Y-78259880D01*
X107610357Y-78331309D01*
X107634166Y-78378928D01*
X107681785Y-78402738D01*
X107943690Y-78402738D01*
X107943690Y-78640833D02*
X107610357Y-78640833D01*
X107443690Y-78640833D02*
X107467500Y-78617023D01*
X107491309Y-78640833D01*
X107467500Y-78664642D01*
X107443690Y-78640833D01*
X107491309Y-78640833D01*
X107919880Y-78855119D02*
X107943690Y-78902738D01*
X107943690Y-78997976D01*
X107919880Y-79045595D01*
X107872261Y-79069404D01*
X107848452Y-79069404D01*
X107800833Y-79045595D01*
X107777023Y-78997976D01*
X107777023Y-78926547D01*
X107753214Y-78878928D01*
X107705595Y-78855119D01*
X107681785Y-78855119D01*
X107634166Y-78878928D01*
X107610357Y-78926547D01*
X107610357Y-78997976D01*
X107634166Y-79045595D01*
X107610357Y-79212261D02*
X107610357Y-79402738D01*
X107443690Y-79283690D02*
X107872261Y-79283690D01*
X107919880Y-79307500D01*
X107943690Y-79355119D01*
X107943690Y-79402738D01*
X107943690Y-79640833D02*
X107919880Y-79593214D01*
X107896071Y-79569404D01*
X107848452Y-79545595D01*
X107705595Y-79545595D01*
X107657976Y-79569404D01*
X107634166Y-79593214D01*
X107610357Y-79640833D01*
X107610357Y-79712261D01*
X107634166Y-79759880D01*
X107657976Y-79783690D01*
X107705595Y-79807500D01*
X107848452Y-79807500D01*
X107896071Y-79783690D01*
X107919880Y-79759880D01*
X107943690Y-79712261D01*
X107943690Y-79640833D01*
X107943690Y-80021785D02*
X107610357Y-80021785D01*
X107705595Y-80021785D02*
X107657976Y-80045595D01*
X107634166Y-80069404D01*
X107610357Y-80117023D01*
X107610357Y-80164642D01*
G04 #@! TO.C,R19*
X56834166Y-60581309D02*
X56548452Y-60581309D01*
X56691309Y-60581309D02*
X56691309Y-61081309D01*
X56643690Y-61009880D01*
X56596071Y-60962261D01*
X56548452Y-60938452D01*
X57143690Y-61081309D02*
X57191309Y-61081309D01*
X57238928Y-61057500D01*
X57262738Y-61033690D01*
X57286547Y-60986071D01*
X57310357Y-60890833D01*
X57310357Y-60771785D01*
X57286547Y-60676547D01*
X57262738Y-60628928D01*
X57238928Y-60605119D01*
X57191309Y-60581309D01*
X57143690Y-60581309D01*
X57096071Y-60605119D01*
X57072261Y-60628928D01*
X57048452Y-60676547D01*
X57024642Y-60771785D01*
X57024642Y-60890833D01*
X57048452Y-60986071D01*
X57072261Y-61033690D01*
X57096071Y-61057500D01*
X57143690Y-61081309D01*
X57619880Y-61081309D02*
X57667500Y-61081309D01*
X57715119Y-61057500D01*
X57738928Y-61033690D01*
X57762738Y-60986071D01*
X57786547Y-60890833D01*
X57786547Y-60771785D01*
X57762738Y-60676547D01*
X57738928Y-60628928D01*
X57715119Y-60605119D01*
X57667500Y-60581309D01*
X57619880Y-60581309D01*
X57572261Y-60605119D01*
X57548452Y-60628928D01*
X57524642Y-60676547D01*
X57500833Y-60771785D01*
X57500833Y-60890833D01*
X57524642Y-60986071D01*
X57548452Y-61033690D01*
X57572261Y-61057500D01*
X57619880Y-61081309D01*
X58000833Y-60581309D02*
X58000833Y-61081309D01*
X58286547Y-60581309D02*
X58072261Y-60867023D01*
X58286547Y-61081309D02*
X58000833Y-60795595D01*
G04 #@! TO.C,IC2*
D15*
X105574642Y-79578928D02*
X105531785Y-79593214D01*
X105460357Y-79593214D01*
X105431785Y-79578928D01*
X105417500Y-79564642D01*
X105403214Y-79536071D01*
X105403214Y-79507500D01*
X105417500Y-79478928D01*
X105431785Y-79464642D01*
X105460357Y-79450357D01*
X105517500Y-79436071D01*
X105546071Y-79421785D01*
X105560357Y-79407500D01*
X105574642Y-79378928D01*
X105574642Y-79350357D01*
X105560357Y-79321785D01*
X105546071Y-79307500D01*
X105517500Y-79293214D01*
X105446071Y-79293214D01*
X105403214Y-79307500D01*
X105274642Y-79593214D02*
X105274642Y-79293214D01*
X105103214Y-79593214D01*
X105103214Y-79293214D01*
X104988928Y-79293214D02*
X104788928Y-79293214D01*
X104917500Y-79593214D01*
X104546071Y-79393214D02*
X104546071Y-79593214D01*
X104617500Y-79278928D02*
X104688928Y-79493214D01*
X104503214Y-79493214D01*
X104246071Y-79593214D02*
X104388928Y-79593214D01*
X104388928Y-79293214D01*
X104188928Y-79293214D02*
X104088928Y-79593214D01*
X103988928Y-79293214D01*
X103717500Y-79564642D02*
X103731785Y-79578928D01*
X103774642Y-79593214D01*
X103803214Y-79593214D01*
X103846071Y-79578928D01*
X103874642Y-79550357D01*
X103888928Y-79521785D01*
X103903214Y-79464642D01*
X103903214Y-79421785D01*
X103888928Y-79364642D01*
X103874642Y-79336071D01*
X103846071Y-79307500D01*
X103803214Y-79293214D01*
X103774642Y-79293214D01*
X103731785Y-79307500D01*
X103717500Y-79321785D01*
X103603214Y-79321785D02*
X103588928Y-79307500D01*
X103560357Y-79293214D01*
X103488928Y-79293214D01*
X103460357Y-79307500D01*
X103446071Y-79321785D01*
X103431785Y-79350357D01*
X103431785Y-79378928D01*
X103446071Y-79421785D01*
X103617500Y-79593214D01*
X103431785Y-79593214D01*
X103146071Y-79307500D02*
X103174642Y-79293214D01*
X103217500Y-79293214D01*
X103260357Y-79307500D01*
X103288928Y-79336071D01*
X103303214Y-79364642D01*
X103317500Y-79421785D01*
X103317500Y-79464642D01*
X103303214Y-79521785D01*
X103288928Y-79550357D01*
X103260357Y-79578928D01*
X103217500Y-79593214D01*
X103188928Y-79593214D01*
X103146071Y-79578928D01*
X103131785Y-79564642D01*
X103131785Y-79464642D01*
X103188928Y-79464642D01*
X102946071Y-79293214D02*
X102917500Y-79293214D01*
X102888928Y-79307500D01*
X102874642Y-79321785D01*
X102860357Y-79350357D01*
X102846071Y-79407500D01*
X102846071Y-79478928D01*
X102860357Y-79536071D01*
X102874642Y-79564642D01*
X102888928Y-79578928D01*
X102917500Y-79593214D01*
X102946071Y-79593214D01*
X102974642Y-79578928D01*
X102988928Y-79564642D01*
X103003214Y-79536071D01*
X103017500Y-79478928D01*
X103017500Y-79407500D01*
X103003214Y-79350357D01*
X102988928Y-79321785D01*
X102974642Y-79307500D01*
X102946071Y-79293214D01*
X102731785Y-79321785D02*
X102717500Y-79307500D01*
X102688928Y-79293214D01*
X102617500Y-79293214D01*
X102588928Y-79307500D01*
X102574642Y-79321785D01*
X102560357Y-79350357D01*
X102560357Y-79378928D01*
X102574642Y-79421785D01*
X102746071Y-79593214D01*
X102560357Y-79593214D01*
G04 #@! TO.C,C20*
D11*
X89745952Y-70636190D02*
X89698333Y-70636190D01*
X89650714Y-70660000D01*
X89626904Y-70683809D01*
X89603095Y-70731428D01*
X89579285Y-70826666D01*
X89579285Y-70945714D01*
X89603095Y-71040952D01*
X89626904Y-71088571D01*
X89650714Y-71112380D01*
X89698333Y-71136190D01*
X89745952Y-71136190D01*
X89793571Y-71112380D01*
X89817380Y-71088571D01*
X89841190Y-71040952D01*
X89865000Y-70945714D01*
X89865000Y-70826666D01*
X89841190Y-70731428D01*
X89817380Y-70683809D01*
X89793571Y-70660000D01*
X89745952Y-70636190D01*
X89365000Y-71088571D02*
X89341190Y-71112380D01*
X89365000Y-71136190D01*
X89388809Y-71112380D01*
X89365000Y-71088571D01*
X89365000Y-71136190D01*
X88865000Y-71136190D02*
X89150714Y-71136190D01*
X89007857Y-71136190D02*
X89007857Y-70636190D01*
X89055476Y-70707619D01*
X89103095Y-70755238D01*
X89150714Y-70779047D01*
X88650714Y-71136190D02*
X88650714Y-70802857D01*
X88650714Y-70850476D02*
X88626904Y-70826666D01*
X88579285Y-70802857D01*
X88507857Y-70802857D01*
X88460238Y-70826666D01*
X88436428Y-70874285D01*
X88436428Y-71136190D01*
X88436428Y-70874285D02*
X88412619Y-70826666D01*
X88365000Y-70802857D01*
X88293571Y-70802857D01*
X88245952Y-70826666D01*
X88222142Y-70874285D01*
X88222142Y-71136190D01*
X87984047Y-71136190D02*
X87984047Y-70636190D01*
X87936428Y-70945714D02*
X87793571Y-71136190D01*
X87793571Y-70802857D02*
X87984047Y-70993333D01*
X87412619Y-70874285D02*
X87579285Y-70874285D01*
X87579285Y-71136190D02*
X87579285Y-70636190D01*
X87341190Y-70636190D01*
G04 #@! TO.C,C19*
X87151190Y-80669047D02*
X87151190Y-80716666D01*
X87175000Y-80764285D01*
X87198809Y-80788095D01*
X87246428Y-80811904D01*
X87341666Y-80835714D01*
X87460714Y-80835714D01*
X87555952Y-80811904D01*
X87603571Y-80788095D01*
X87627380Y-80764285D01*
X87651190Y-80716666D01*
X87651190Y-80669047D01*
X87627380Y-80621428D01*
X87603571Y-80597619D01*
X87555952Y-80573809D01*
X87460714Y-80550000D01*
X87341666Y-80550000D01*
X87246428Y-80573809D01*
X87198809Y-80597619D01*
X87175000Y-80621428D01*
X87151190Y-80669047D01*
X87603571Y-81050000D02*
X87627380Y-81073809D01*
X87651190Y-81050000D01*
X87627380Y-81026190D01*
X87603571Y-81050000D01*
X87651190Y-81050000D01*
X87651190Y-81550000D02*
X87651190Y-81264285D01*
X87651190Y-81407142D02*
X87151190Y-81407142D01*
X87222619Y-81359523D01*
X87270238Y-81311904D01*
X87294047Y-81264285D01*
X87651190Y-81764285D02*
X87317857Y-81764285D01*
X87365476Y-81764285D02*
X87341666Y-81788095D01*
X87317857Y-81835714D01*
X87317857Y-81907142D01*
X87341666Y-81954761D01*
X87389285Y-81978571D01*
X87651190Y-81978571D01*
X87389285Y-81978571D02*
X87341666Y-82002380D01*
X87317857Y-82050000D01*
X87317857Y-82121428D01*
X87341666Y-82169047D01*
X87389285Y-82192857D01*
X87651190Y-82192857D01*
X87651190Y-82430952D02*
X87151190Y-82430952D01*
X87460714Y-82478571D02*
X87651190Y-82621428D01*
X87317857Y-82621428D02*
X87508333Y-82430952D01*
X87389285Y-83002380D02*
X87389285Y-82835714D01*
X87651190Y-82835714D02*
X87151190Y-82835714D01*
X87151190Y-83073809D01*
G04 #@! TO.C,C16*
X79798452Y-80383690D02*
X79750833Y-80383690D01*
X79703214Y-80407500D01*
X79679404Y-80431309D01*
X79655595Y-80478928D01*
X79631785Y-80574166D01*
X79631785Y-80693214D01*
X79655595Y-80788452D01*
X79679404Y-80836071D01*
X79703214Y-80859880D01*
X79750833Y-80883690D01*
X79798452Y-80883690D01*
X79846071Y-80859880D01*
X79869880Y-80836071D01*
X79893690Y-80788452D01*
X79917500Y-80693214D01*
X79917500Y-80574166D01*
X79893690Y-80478928D01*
X79869880Y-80431309D01*
X79846071Y-80407500D01*
X79798452Y-80383690D01*
X79417500Y-80836071D02*
X79393690Y-80859880D01*
X79417500Y-80883690D01*
X79441309Y-80859880D01*
X79417500Y-80836071D01*
X79417500Y-80883690D01*
X78917500Y-80883690D02*
X79203214Y-80883690D01*
X79060357Y-80883690D02*
X79060357Y-80383690D01*
X79107976Y-80455119D01*
X79155595Y-80502738D01*
X79203214Y-80526547D01*
X78703214Y-80883690D02*
X78703214Y-80550357D01*
X78703214Y-80597976D02*
X78679404Y-80574166D01*
X78631785Y-80550357D01*
X78560357Y-80550357D01*
X78512738Y-80574166D01*
X78488928Y-80621785D01*
X78488928Y-80883690D01*
X78488928Y-80621785D02*
X78465119Y-80574166D01*
X78417500Y-80550357D01*
X78346071Y-80550357D01*
X78298452Y-80574166D01*
X78274642Y-80621785D01*
X78274642Y-80883690D01*
X78036547Y-80883690D02*
X78036547Y-80383690D01*
X77988928Y-80693214D02*
X77846071Y-80883690D01*
X77846071Y-80550357D02*
X78036547Y-80740833D01*
X77465119Y-80621785D02*
X77631785Y-80621785D01*
X77631785Y-80883690D02*
X77631785Y-80383690D01*
X77393690Y-80383690D01*
G04 #@! TO.C,R7*
X100400833Y-72083690D02*
X100686547Y-72083690D01*
X100543690Y-72083690D02*
X100543690Y-71583690D01*
X100591309Y-71655119D01*
X100638928Y-71702738D01*
X100686547Y-71726547D01*
X100091309Y-71583690D02*
X100043690Y-71583690D01*
X99996071Y-71607500D01*
X99972261Y-71631309D01*
X99948452Y-71678928D01*
X99924642Y-71774166D01*
X99924642Y-71893214D01*
X99948452Y-71988452D01*
X99972261Y-72036071D01*
X99996071Y-72059880D01*
X100043690Y-72083690D01*
X100091309Y-72083690D01*
X100138928Y-72059880D01*
X100162738Y-72036071D01*
X100186547Y-71988452D01*
X100210357Y-71893214D01*
X100210357Y-71774166D01*
X100186547Y-71678928D01*
X100162738Y-71631309D01*
X100138928Y-71607500D01*
X100091309Y-71583690D01*
X99615119Y-71583690D02*
X99567500Y-71583690D01*
X99519880Y-71607500D01*
X99496071Y-71631309D01*
X99472261Y-71678928D01*
X99448452Y-71774166D01*
X99448452Y-71893214D01*
X99472261Y-71988452D01*
X99496071Y-72036071D01*
X99519880Y-72059880D01*
X99567500Y-72083690D01*
X99615119Y-72083690D01*
X99662738Y-72059880D01*
X99686547Y-72036071D01*
X99710357Y-71988452D01*
X99734166Y-71893214D01*
X99734166Y-71774166D01*
X99710357Y-71678928D01*
X99686547Y-71631309D01*
X99662738Y-71607500D01*
X99615119Y-71583690D01*
X98948452Y-72083690D02*
X99115119Y-71845595D01*
X99234166Y-72083690D02*
X99234166Y-71583690D01*
X99043690Y-71583690D01*
X98996071Y-71607500D01*
X98972261Y-71631309D01*
X98948452Y-71678928D01*
X98948452Y-71750357D01*
X98972261Y-71797976D01*
X98996071Y-71821785D01*
X99043690Y-71845595D01*
X99234166Y-71845595D01*
G04 #@! TO.C,R6*
X103010357Y-74183690D02*
X102700833Y-74183690D01*
X102867500Y-74374166D01*
X102796071Y-74374166D01*
X102748452Y-74397976D01*
X102724642Y-74421785D01*
X102700833Y-74469404D01*
X102700833Y-74588452D01*
X102724642Y-74636071D01*
X102748452Y-74659880D01*
X102796071Y-74683690D01*
X102938928Y-74683690D01*
X102986547Y-74659880D01*
X103010357Y-74636071D01*
X102391309Y-74183690D02*
X102343690Y-74183690D01*
X102296071Y-74207500D01*
X102272261Y-74231309D01*
X102248452Y-74278928D01*
X102224642Y-74374166D01*
X102224642Y-74493214D01*
X102248452Y-74588452D01*
X102272261Y-74636071D01*
X102296071Y-74659880D01*
X102343690Y-74683690D01*
X102391309Y-74683690D01*
X102438928Y-74659880D01*
X102462738Y-74636071D01*
X102486547Y-74588452D01*
X102510357Y-74493214D01*
X102510357Y-74374166D01*
X102486547Y-74278928D01*
X102462738Y-74231309D01*
X102438928Y-74207500D01*
X102391309Y-74183690D01*
X101915119Y-74183690D02*
X101867500Y-74183690D01*
X101819880Y-74207500D01*
X101796071Y-74231309D01*
X101772261Y-74278928D01*
X101748452Y-74374166D01*
X101748452Y-74493214D01*
X101772261Y-74588452D01*
X101796071Y-74636071D01*
X101819880Y-74659880D01*
X101867500Y-74683690D01*
X101915119Y-74683690D01*
X101962738Y-74659880D01*
X101986547Y-74636071D01*
X102010357Y-74588452D01*
X102034166Y-74493214D01*
X102034166Y-74374166D01*
X102010357Y-74278928D01*
X101986547Y-74231309D01*
X101962738Y-74207500D01*
X101915119Y-74183690D01*
X101248452Y-74683690D02*
X101415119Y-74445595D01*
X101534166Y-74683690D02*
X101534166Y-74183690D01*
X101343690Y-74183690D01*
X101296071Y-74207500D01*
X101272261Y-74231309D01*
X101248452Y-74278928D01*
X101248452Y-74350357D01*
X101272261Y-74397976D01*
X101296071Y-74421785D01*
X101343690Y-74445595D01*
X101534166Y-74445595D01*
G04 #@! TO.C,R5*
X97048452Y-72331309D02*
X97024642Y-72307500D01*
X96977023Y-72283690D01*
X96857976Y-72283690D01*
X96810357Y-72307500D01*
X96786547Y-72331309D01*
X96762738Y-72378928D01*
X96762738Y-72426547D01*
X96786547Y-72497976D01*
X97072261Y-72783690D01*
X96762738Y-72783690D01*
X96572261Y-72331309D02*
X96548452Y-72307500D01*
X96500833Y-72283690D01*
X96381785Y-72283690D01*
X96334166Y-72307500D01*
X96310357Y-72331309D01*
X96286547Y-72378928D01*
X96286547Y-72426547D01*
X96310357Y-72497976D01*
X96596071Y-72783690D01*
X96286547Y-72783690D01*
X95786547Y-72783690D02*
X95953214Y-72545595D01*
X96072261Y-72783690D02*
X96072261Y-72283690D01*
X95881785Y-72283690D01*
X95834166Y-72307500D01*
X95810357Y-72331309D01*
X95786547Y-72378928D01*
X95786547Y-72450357D01*
X95810357Y-72497976D01*
X95834166Y-72521785D01*
X95881785Y-72545595D01*
X96072261Y-72545595D01*
G04 #@! TO.C,R4*
X91948452Y-75931309D02*
X91924642Y-75907500D01*
X91877023Y-75883690D01*
X91757976Y-75883690D01*
X91710357Y-75907500D01*
X91686547Y-75931309D01*
X91662738Y-75978928D01*
X91662738Y-76026547D01*
X91686547Y-76097976D01*
X91972261Y-76383690D01*
X91662738Y-76383690D01*
X91472261Y-75931309D02*
X91448452Y-75907500D01*
X91400833Y-75883690D01*
X91281785Y-75883690D01*
X91234166Y-75907500D01*
X91210357Y-75931309D01*
X91186547Y-75978928D01*
X91186547Y-76026547D01*
X91210357Y-76097976D01*
X91496071Y-76383690D01*
X91186547Y-76383690D01*
X90686547Y-76383690D02*
X90853214Y-76145595D01*
X90972261Y-76383690D02*
X90972261Y-75883690D01*
X90781785Y-75883690D01*
X90734166Y-75907500D01*
X90710357Y-75931309D01*
X90686547Y-75978928D01*
X90686547Y-76050357D01*
X90710357Y-76097976D01*
X90734166Y-76121785D01*
X90781785Y-76145595D01*
X90972261Y-76145595D01*
G04 #@! TO.C,R3*
X91762738Y-74383690D02*
X92048452Y-74383690D01*
X91905595Y-74383690D02*
X91905595Y-73883690D01*
X91953214Y-73955119D01*
X92000833Y-74002738D01*
X92048452Y-74026547D01*
X91548452Y-74383690D02*
X91548452Y-73883690D01*
X91262738Y-74383690D02*
X91477023Y-74097976D01*
X91262738Y-73883690D02*
X91548452Y-74169404D01*
X90810357Y-73883690D02*
X91048452Y-73883690D01*
X91072261Y-74121785D01*
X91048452Y-74097976D01*
X91000833Y-74074166D01*
X90881785Y-74074166D01*
X90834166Y-74097976D01*
X90810357Y-74121785D01*
X90786547Y-74169404D01*
X90786547Y-74288452D01*
X90810357Y-74336071D01*
X90834166Y-74359880D01*
X90881785Y-74383690D01*
X91000833Y-74383690D01*
X91048452Y-74359880D01*
X91072261Y-74336071D01*
G04 #@! TO.C,R2*
X94300833Y-70983690D02*
X94586547Y-70983690D01*
X94443690Y-70983690D02*
X94443690Y-70483690D01*
X94491309Y-70555119D01*
X94538928Y-70602738D01*
X94586547Y-70626547D01*
X93991309Y-70483690D02*
X93943690Y-70483690D01*
X93896071Y-70507500D01*
X93872261Y-70531309D01*
X93848452Y-70578928D01*
X93824642Y-70674166D01*
X93824642Y-70793214D01*
X93848452Y-70888452D01*
X93872261Y-70936071D01*
X93896071Y-70959880D01*
X93943690Y-70983690D01*
X93991309Y-70983690D01*
X94038928Y-70959880D01*
X94062738Y-70936071D01*
X94086547Y-70888452D01*
X94110357Y-70793214D01*
X94110357Y-70674166D01*
X94086547Y-70578928D01*
X94062738Y-70531309D01*
X94038928Y-70507500D01*
X93991309Y-70483690D01*
X93515119Y-70483690D02*
X93467500Y-70483690D01*
X93419880Y-70507500D01*
X93396071Y-70531309D01*
X93372261Y-70578928D01*
X93348452Y-70674166D01*
X93348452Y-70793214D01*
X93372261Y-70888452D01*
X93396071Y-70936071D01*
X93419880Y-70959880D01*
X93467500Y-70983690D01*
X93515119Y-70983690D01*
X93562738Y-70959880D01*
X93586547Y-70936071D01*
X93610357Y-70888452D01*
X93634166Y-70793214D01*
X93634166Y-70674166D01*
X93610357Y-70578928D01*
X93586547Y-70531309D01*
X93562738Y-70507500D01*
X93515119Y-70483690D01*
X93134166Y-70983690D02*
X93134166Y-70483690D01*
X92848452Y-70983690D02*
X93062738Y-70697976D01*
X92848452Y-70483690D02*
X93134166Y-70769404D01*
G04 #@! TO.C,R1*
X91400833Y-77983690D02*
X91686547Y-77983690D01*
X91543690Y-77983690D02*
X91543690Y-77483690D01*
X91591309Y-77555119D01*
X91638928Y-77602738D01*
X91686547Y-77626547D01*
X91091309Y-77483690D02*
X91043690Y-77483690D01*
X90996071Y-77507500D01*
X90972261Y-77531309D01*
X90948452Y-77578928D01*
X90924642Y-77674166D01*
X90924642Y-77793214D01*
X90948452Y-77888452D01*
X90972261Y-77936071D01*
X90996071Y-77959880D01*
X91043690Y-77983690D01*
X91091309Y-77983690D01*
X91138928Y-77959880D01*
X91162738Y-77936071D01*
X91186547Y-77888452D01*
X91210357Y-77793214D01*
X91210357Y-77674166D01*
X91186547Y-77578928D01*
X91162738Y-77531309D01*
X91138928Y-77507500D01*
X91091309Y-77483690D01*
X90615119Y-77483690D02*
X90567500Y-77483690D01*
X90519880Y-77507500D01*
X90496071Y-77531309D01*
X90472261Y-77578928D01*
X90448452Y-77674166D01*
X90448452Y-77793214D01*
X90472261Y-77888452D01*
X90496071Y-77936071D01*
X90519880Y-77959880D01*
X90567500Y-77983690D01*
X90615119Y-77983690D01*
X90662738Y-77959880D01*
X90686547Y-77936071D01*
X90710357Y-77888452D01*
X90734166Y-77793214D01*
X90734166Y-77674166D01*
X90710357Y-77578928D01*
X90686547Y-77531309D01*
X90662738Y-77507500D01*
X90615119Y-77483690D01*
X90234166Y-77983690D02*
X90234166Y-77483690D01*
X89948452Y-77983690D02*
X90162738Y-77697976D01*
X89948452Y-77483690D02*
X90234166Y-77769404D01*
G04 #@! TO.C,C17*
X72081190Y-71552857D02*
X72081190Y-71267142D01*
X72081190Y-71410000D02*
X71581190Y-71410000D01*
X71652619Y-71362380D01*
X71700238Y-71314761D01*
X71724047Y-71267142D01*
X72081190Y-71767142D02*
X71747857Y-71767142D01*
X71795476Y-71767142D02*
X71771666Y-71790952D01*
X71747857Y-71838571D01*
X71747857Y-71910000D01*
X71771666Y-71957619D01*
X71819285Y-71981428D01*
X72081190Y-71981428D01*
X71819285Y-71981428D02*
X71771666Y-72005238D01*
X71747857Y-72052857D01*
X71747857Y-72124285D01*
X71771666Y-72171904D01*
X71819285Y-72195714D01*
X72081190Y-72195714D01*
X72081190Y-72433809D02*
X71581190Y-72433809D01*
X71890714Y-72481428D02*
X72081190Y-72624285D01*
X71747857Y-72624285D02*
X71938333Y-72433809D01*
X71819285Y-73005238D02*
X71819285Y-72838571D01*
X72081190Y-72838571D02*
X71581190Y-72838571D01*
X71581190Y-73076666D01*
G04 #@! TO.C,C15*
X76228809Y-72667142D02*
X76228809Y-72952857D01*
X76228809Y-72810000D02*
X76728809Y-72810000D01*
X76657380Y-72857619D01*
X76609761Y-72905238D01*
X76585952Y-72952857D01*
X76228809Y-72452857D02*
X76562142Y-72452857D01*
X76514523Y-72452857D02*
X76538333Y-72429047D01*
X76562142Y-72381428D01*
X76562142Y-72310000D01*
X76538333Y-72262380D01*
X76490714Y-72238571D01*
X76228809Y-72238571D01*
X76490714Y-72238571D02*
X76538333Y-72214761D01*
X76562142Y-72167142D01*
X76562142Y-72095714D01*
X76538333Y-72048095D01*
X76490714Y-72024285D01*
X76228809Y-72024285D01*
X76228809Y-71786190D02*
X76728809Y-71786190D01*
X76419285Y-71738571D02*
X76228809Y-71595714D01*
X76562142Y-71595714D02*
X76371666Y-71786190D01*
X76490714Y-71214761D02*
X76490714Y-71381428D01*
X76228809Y-71381428D02*
X76728809Y-71381428D01*
X76728809Y-71143333D01*
G04 #@! TO.C,C7*
X79785952Y-70686190D02*
X79738333Y-70686190D01*
X79690714Y-70710000D01*
X79666904Y-70733809D01*
X79643095Y-70781428D01*
X79619285Y-70876666D01*
X79619285Y-70995714D01*
X79643095Y-71090952D01*
X79666904Y-71138571D01*
X79690714Y-71162380D01*
X79738333Y-71186190D01*
X79785952Y-71186190D01*
X79833571Y-71162380D01*
X79857380Y-71138571D01*
X79881190Y-71090952D01*
X79905000Y-70995714D01*
X79905000Y-70876666D01*
X79881190Y-70781428D01*
X79857380Y-70733809D01*
X79833571Y-70710000D01*
X79785952Y-70686190D01*
X79405000Y-71138571D02*
X79381190Y-71162380D01*
X79405000Y-71186190D01*
X79428809Y-71162380D01*
X79405000Y-71138571D01*
X79405000Y-71186190D01*
X78905000Y-71186190D02*
X79190714Y-71186190D01*
X79047857Y-71186190D02*
X79047857Y-70686190D01*
X79095476Y-70757619D01*
X79143095Y-70805238D01*
X79190714Y-70829047D01*
X78690714Y-71186190D02*
X78690714Y-70852857D01*
X78690714Y-70900476D02*
X78666904Y-70876666D01*
X78619285Y-70852857D01*
X78547857Y-70852857D01*
X78500238Y-70876666D01*
X78476428Y-70924285D01*
X78476428Y-71186190D01*
X78476428Y-70924285D02*
X78452619Y-70876666D01*
X78405000Y-70852857D01*
X78333571Y-70852857D01*
X78285952Y-70876666D01*
X78262142Y-70924285D01*
X78262142Y-71186190D01*
X78024047Y-71186190D02*
X78024047Y-70686190D01*
X77976428Y-70995714D02*
X77833571Y-71186190D01*
X77833571Y-70852857D02*
X78024047Y-71043333D01*
X77452619Y-70924285D02*
X77619285Y-70924285D01*
X77619285Y-71186190D02*
X77619285Y-70686190D01*
X77381190Y-70686190D01*
G04 #@! TO.C,C4*
X91313214Y-82853690D02*
X91598928Y-82853690D01*
X91456071Y-82853690D02*
X91456071Y-82353690D01*
X91503690Y-82425119D01*
X91551309Y-82472738D01*
X91598928Y-82496547D01*
X91027500Y-82567976D02*
X91075119Y-82544166D01*
X91098928Y-82520357D01*
X91122738Y-82472738D01*
X91122738Y-82448928D01*
X91098928Y-82401309D01*
X91075119Y-82377500D01*
X91027500Y-82353690D01*
X90932261Y-82353690D01*
X90884642Y-82377500D01*
X90860833Y-82401309D01*
X90837023Y-82448928D01*
X90837023Y-82472738D01*
X90860833Y-82520357D01*
X90884642Y-82544166D01*
X90932261Y-82567976D01*
X91027500Y-82567976D01*
X91075119Y-82591785D01*
X91098928Y-82615595D01*
X91122738Y-82663214D01*
X91122738Y-82758452D01*
X91098928Y-82806071D01*
X91075119Y-82829880D01*
X91027500Y-82853690D01*
X90932261Y-82853690D01*
X90884642Y-82829880D01*
X90860833Y-82806071D01*
X90837023Y-82758452D01*
X90837023Y-82663214D01*
X90860833Y-82615595D01*
X90884642Y-82591785D01*
X90932261Y-82567976D01*
X90622738Y-82520357D02*
X90622738Y-83020357D01*
X90622738Y-82544166D02*
X90575119Y-82520357D01*
X90479880Y-82520357D01*
X90432261Y-82544166D01*
X90408452Y-82567976D01*
X90384642Y-82615595D01*
X90384642Y-82758452D01*
X90408452Y-82806071D01*
X90432261Y-82829880D01*
X90479880Y-82853690D01*
X90575119Y-82853690D01*
X90622738Y-82829880D01*
X90003690Y-82591785D02*
X90170357Y-82591785D01*
X90170357Y-82853690D02*
X90170357Y-82353690D01*
X89932261Y-82353690D01*
G04 #@! TO.C,C2*
X96703214Y-82843690D02*
X96988928Y-82843690D01*
X96846071Y-82843690D02*
X96846071Y-82343690D01*
X96893690Y-82415119D01*
X96941309Y-82462738D01*
X96988928Y-82486547D01*
X96417500Y-82557976D02*
X96465119Y-82534166D01*
X96488928Y-82510357D01*
X96512738Y-82462738D01*
X96512738Y-82438928D01*
X96488928Y-82391309D01*
X96465119Y-82367500D01*
X96417500Y-82343690D01*
X96322261Y-82343690D01*
X96274642Y-82367500D01*
X96250833Y-82391309D01*
X96227023Y-82438928D01*
X96227023Y-82462738D01*
X96250833Y-82510357D01*
X96274642Y-82534166D01*
X96322261Y-82557976D01*
X96417500Y-82557976D01*
X96465119Y-82581785D01*
X96488928Y-82605595D01*
X96512738Y-82653214D01*
X96512738Y-82748452D01*
X96488928Y-82796071D01*
X96465119Y-82819880D01*
X96417500Y-82843690D01*
X96322261Y-82843690D01*
X96274642Y-82819880D01*
X96250833Y-82796071D01*
X96227023Y-82748452D01*
X96227023Y-82653214D01*
X96250833Y-82605595D01*
X96274642Y-82581785D01*
X96322261Y-82557976D01*
X96012738Y-82510357D02*
X96012738Y-83010357D01*
X96012738Y-82534166D02*
X95965119Y-82510357D01*
X95869880Y-82510357D01*
X95822261Y-82534166D01*
X95798452Y-82557976D01*
X95774642Y-82605595D01*
X95774642Y-82748452D01*
X95798452Y-82796071D01*
X95822261Y-82819880D01*
X95869880Y-82843690D01*
X95965119Y-82843690D01*
X96012738Y-82819880D01*
X95393690Y-82581785D02*
X95560357Y-82581785D01*
X95560357Y-82843690D02*
X95560357Y-82343690D01*
X95322261Y-82343690D01*
G04 #@! TO.C,R13*
D12*
X61207380Y-78598095D02*
X61207380Y-78121904D01*
X61683571Y-78074285D01*
X61635952Y-78121904D01*
X61588333Y-78217142D01*
X61588333Y-78455238D01*
X61635952Y-78550476D01*
X61683571Y-78598095D01*
X61778809Y-78645714D01*
X62016904Y-78645714D01*
X62112142Y-78598095D01*
X62159761Y-78550476D01*
X62207380Y-78455238D01*
X62207380Y-78217142D01*
X62159761Y-78121904D01*
X62112142Y-78074285D01*
X62207380Y-79074285D02*
X61207380Y-79074285D01*
X62207380Y-79645714D02*
X61635952Y-79217142D01*
X61207380Y-79645714D02*
X61778809Y-79074285D01*
G04 #@! TO.C,R11*
X65107380Y-78698095D02*
X65107380Y-78221904D01*
X65583571Y-78174285D01*
X65535952Y-78221904D01*
X65488333Y-78317142D01*
X65488333Y-78555238D01*
X65535952Y-78650476D01*
X65583571Y-78698095D01*
X65678809Y-78745714D01*
X65916904Y-78745714D01*
X66012142Y-78698095D01*
X66059761Y-78650476D01*
X66107380Y-78555238D01*
X66107380Y-78317142D01*
X66059761Y-78221904D01*
X66012142Y-78174285D01*
X66107380Y-79174285D02*
X65107380Y-79174285D01*
X66107380Y-79745714D02*
X65535952Y-79317142D01*
X65107380Y-79745714D02*
X65678809Y-79174285D01*
G04 #@! TO.C,Q1*
D11*
X113710357Y-72558690D02*
X113710357Y-72058690D01*
X113186547Y-72558690D02*
X113353214Y-72320595D01*
X113472261Y-72558690D02*
X113472261Y-72058690D01*
X113281785Y-72058690D01*
X113234166Y-72082500D01*
X113210357Y-72106309D01*
X113186547Y-72153928D01*
X113186547Y-72225357D01*
X113210357Y-72272976D01*
X113234166Y-72296785D01*
X113281785Y-72320595D01*
X113472261Y-72320595D01*
X112734166Y-72558690D02*
X112972261Y-72558690D01*
X112972261Y-72058690D01*
X112567500Y-72558690D02*
X112567500Y-72058690D01*
X112400833Y-72415833D01*
X112234166Y-72058690D01*
X112234166Y-72558690D01*
X111757976Y-72558690D02*
X111996071Y-72558690D01*
X111996071Y-72058690D01*
X111377023Y-72058690D02*
X111472261Y-72058690D01*
X111519880Y-72082500D01*
X111543690Y-72106309D01*
X111591309Y-72177738D01*
X111615119Y-72272976D01*
X111615119Y-72463452D01*
X111591309Y-72511071D01*
X111567500Y-72534880D01*
X111519880Y-72558690D01*
X111424642Y-72558690D01*
X111377023Y-72534880D01*
X111353214Y-72511071D01*
X111329404Y-72463452D01*
X111329404Y-72344404D01*
X111353214Y-72296785D01*
X111377023Y-72272976D01*
X111424642Y-72249166D01*
X111519880Y-72249166D01*
X111567500Y-72272976D01*
X111591309Y-72296785D01*
X111615119Y-72344404D01*
X110900833Y-72225357D02*
X110900833Y-72558690D01*
X111019880Y-72034880D02*
X111138928Y-72392023D01*
X110829404Y-72392023D01*
X110543690Y-72058690D02*
X110496071Y-72058690D01*
X110448452Y-72082500D01*
X110424642Y-72106309D01*
X110400833Y-72153928D01*
X110377023Y-72249166D01*
X110377023Y-72368214D01*
X110400833Y-72463452D01*
X110424642Y-72511071D01*
X110448452Y-72534880D01*
X110496071Y-72558690D01*
X110543690Y-72558690D01*
X110591309Y-72534880D01*
X110615119Y-72511071D01*
X110638928Y-72463452D01*
X110662738Y-72368214D01*
X110662738Y-72249166D01*
X110638928Y-72153928D01*
X110615119Y-72106309D01*
X110591309Y-72082500D01*
X110543690Y-72058690D01*
X109900833Y-72558690D02*
X110186547Y-72558690D01*
X110043690Y-72558690D02*
X110043690Y-72058690D01*
X110091309Y-72130119D01*
X110138928Y-72177738D01*
X110186547Y-72201547D01*
G04 #@! TO.C,P6*
X111100833Y-68257500D02*
X111167500Y-68224166D01*
X111267500Y-68224166D01*
X111367500Y-68257500D01*
X111434166Y-68324166D01*
X111467500Y-68390833D01*
X111500833Y-68524166D01*
X111500833Y-68624166D01*
X111467500Y-68757500D01*
X111434166Y-68824166D01*
X111367500Y-68890833D01*
X111267500Y-68924166D01*
X111200833Y-68924166D01*
X111100833Y-68890833D01*
X111067500Y-68857500D01*
X111067500Y-68624166D01*
X111200833Y-68624166D01*
X110767500Y-68924166D02*
X110767500Y-68224166D01*
X110367500Y-68924166D01*
X110367500Y-68224166D01*
X110034166Y-68924166D02*
X110034166Y-68224166D01*
X109867500Y-68224166D01*
X109767500Y-68257500D01*
X109700833Y-68324166D01*
X109667500Y-68390833D01*
X109634166Y-68524166D01*
X109634166Y-68624166D01*
X109667500Y-68757500D01*
X109700833Y-68824166D01*
X109767500Y-68890833D01*
X109867500Y-68924166D01*
X110034166Y-68924166D01*
G04 #@! TO.C,P5*
X106734166Y-68924166D02*
X106734166Y-68224166D01*
X106567500Y-68224166D01*
X106467500Y-68257500D01*
X106400833Y-68324166D01*
X106367500Y-68390833D01*
X106334166Y-68524166D01*
X106334166Y-68624166D01*
X106367500Y-68757500D01*
X106400833Y-68824166D01*
X106467500Y-68890833D01*
X106567500Y-68924166D01*
X106734166Y-68924166D01*
X105634166Y-68857500D02*
X105667500Y-68890833D01*
X105767500Y-68924166D01*
X105834166Y-68924166D01*
X105934166Y-68890833D01*
X106000833Y-68824166D01*
X106034166Y-68757500D01*
X106067500Y-68624166D01*
X106067500Y-68524166D01*
X106034166Y-68390833D01*
X106000833Y-68324166D01*
X105934166Y-68257500D01*
X105834166Y-68224166D01*
X105767500Y-68224166D01*
X105667500Y-68257500D01*
X105634166Y-68290833D01*
X105000833Y-68924166D02*
X105334166Y-68924166D01*
X105334166Y-68224166D01*
X104767500Y-68924166D02*
X104767500Y-68224166D01*
X104367500Y-68924166D02*
X104667500Y-68524166D01*
X104367500Y-68224166D02*
X104767500Y-68624166D01*
G04 #@! TO.C,P4*
X108909166Y-68924166D02*
X108909166Y-68224166D01*
X108742500Y-68224166D01*
X108642500Y-68257500D01*
X108575833Y-68324166D01*
X108542500Y-68390833D01*
X108509166Y-68524166D01*
X108509166Y-68624166D01*
X108542500Y-68757500D01*
X108575833Y-68824166D01*
X108642500Y-68890833D01*
X108742500Y-68924166D01*
X108909166Y-68924166D01*
X108209166Y-68924166D02*
X108209166Y-68224166D01*
X107742500Y-68224166D02*
X107609166Y-68224166D01*
X107542500Y-68257500D01*
X107475833Y-68324166D01*
X107442500Y-68457500D01*
X107442500Y-68690833D01*
X107475833Y-68824166D01*
X107542500Y-68890833D01*
X107609166Y-68924166D01*
X107742500Y-68924166D01*
X107809166Y-68890833D01*
X107875833Y-68824166D01*
X107909166Y-68690833D01*
X107909166Y-68457500D01*
X107875833Y-68324166D01*
X107809166Y-68257500D01*
X107742500Y-68224166D01*
G04 #@! TO.C,SPI1-CS1*
X86659166Y-71284880D02*
X86587738Y-71308690D01*
X86468690Y-71308690D01*
X86421071Y-71284880D01*
X86397261Y-71261071D01*
X86373452Y-71213452D01*
X86373452Y-71165833D01*
X86397261Y-71118214D01*
X86421071Y-71094404D01*
X86468690Y-71070595D01*
X86563928Y-71046785D01*
X86611547Y-71022976D01*
X86635357Y-70999166D01*
X86659166Y-70951547D01*
X86659166Y-70903928D01*
X86635357Y-70856309D01*
X86611547Y-70832500D01*
X86563928Y-70808690D01*
X86444880Y-70808690D01*
X86373452Y-70832500D01*
X86230595Y-70808690D02*
X85944880Y-70808690D01*
X86087738Y-71308690D02*
X86087738Y-70808690D01*
X85778214Y-71308690D02*
X85778214Y-70808690D01*
X85611547Y-71165833D01*
X85444880Y-70808690D01*
X85444880Y-71308690D01*
X85254404Y-70808690D02*
X84944880Y-70808690D01*
X85111547Y-70999166D01*
X85040119Y-70999166D01*
X84992500Y-71022976D01*
X84968690Y-71046785D01*
X84944880Y-71094404D01*
X84944880Y-71213452D01*
X84968690Y-71261071D01*
X84992500Y-71284880D01*
X85040119Y-71308690D01*
X85182976Y-71308690D01*
X85230595Y-71284880D01*
X85254404Y-71261071D01*
X84754404Y-70856309D02*
X84730595Y-70832500D01*
X84682976Y-70808690D01*
X84563928Y-70808690D01*
X84516309Y-70832500D01*
X84492500Y-70856309D01*
X84468690Y-70903928D01*
X84468690Y-70951547D01*
X84492500Y-71022976D01*
X84778214Y-71308690D01*
X84468690Y-71308690D01*
X84087738Y-71046785D02*
X84254404Y-71046785D01*
X84254404Y-71308690D02*
X84254404Y-70808690D01*
X84016309Y-70808690D01*
X83563928Y-71308690D02*
X83849642Y-71308690D01*
X83706785Y-71308690D02*
X83706785Y-70808690D01*
X83754404Y-70880119D01*
X83802023Y-70927738D01*
X83849642Y-70951547D01*
X83254404Y-70808690D02*
X83206785Y-70808690D01*
X83159166Y-70832500D01*
X83135357Y-70856309D01*
X83111547Y-70903928D01*
X83087738Y-70999166D01*
X83087738Y-71118214D01*
X83111547Y-71213452D01*
X83135357Y-71261071D01*
X83159166Y-71284880D01*
X83206785Y-71308690D01*
X83254404Y-71308690D01*
X83302023Y-71284880D01*
X83325833Y-71261071D01*
X83349642Y-71213452D01*
X83373452Y-71118214D01*
X83373452Y-70999166D01*
X83349642Y-70903928D01*
X83325833Y-70856309D01*
X83302023Y-70832500D01*
X83254404Y-70808690D01*
X82921071Y-70808690D02*
X82611547Y-70808690D01*
X82778214Y-70999166D01*
X82706785Y-70999166D01*
X82659166Y-71022976D01*
X82635357Y-71046785D01*
X82611547Y-71094404D01*
X82611547Y-71213452D01*
X82635357Y-71261071D01*
X82659166Y-71284880D01*
X82706785Y-71308690D01*
X82849642Y-71308690D01*
X82897261Y-71284880D01*
X82921071Y-71261071D01*
X82111547Y-71261071D02*
X82135357Y-71284880D01*
X82206785Y-71308690D01*
X82254404Y-71308690D01*
X82325833Y-71284880D01*
X82373452Y-71237261D01*
X82397261Y-71189642D01*
X82421071Y-71094404D01*
X82421071Y-71022976D01*
X82397261Y-70927738D01*
X82373452Y-70880119D01*
X82325833Y-70832500D01*
X82254404Y-70808690D01*
X82206785Y-70808690D01*
X82135357Y-70832500D01*
X82111547Y-70856309D01*
X81730595Y-71046785D02*
X81659166Y-71070595D01*
X81635357Y-71094404D01*
X81611547Y-71142023D01*
X81611547Y-71213452D01*
X81635357Y-71261071D01*
X81659166Y-71284880D01*
X81706785Y-71308690D01*
X81897261Y-71308690D01*
X81897261Y-70808690D01*
X81730595Y-70808690D01*
X81682976Y-70832500D01*
X81659166Y-70856309D01*
X81635357Y-70903928D01*
X81635357Y-70951547D01*
X81659166Y-70999166D01*
X81682976Y-71022976D01*
X81730595Y-71046785D01*
X81897261Y-71046785D01*
X81468690Y-70808690D02*
X81182976Y-70808690D01*
X81325833Y-71308690D02*
X81325833Y-70808690D01*
X81063928Y-71308690D02*
X80802023Y-70975357D01*
X81063928Y-70975357D02*
X80802023Y-71308690D01*
G04 #@! TO.C,D2*
X110693690Y-82696071D02*
X110693690Y-82457976D01*
X110193690Y-82457976D01*
X110431785Y-82862738D02*
X110431785Y-83029404D01*
X110693690Y-83100833D02*
X110693690Y-82862738D01*
X110193690Y-82862738D01*
X110193690Y-83100833D01*
X110693690Y-83315119D02*
X110193690Y-83315119D01*
X110193690Y-83434166D01*
X110217500Y-83505595D01*
X110265119Y-83553214D01*
X110312738Y-83577023D01*
X110407976Y-83600833D01*
X110479404Y-83600833D01*
X110574642Y-83577023D01*
X110622261Y-83553214D01*
X110669880Y-83505595D01*
X110693690Y-83434166D01*
X110693690Y-83315119D01*
G04 #@! TO.C,R18*
D12*
X68807380Y-77621904D02*
X68807380Y-77145714D01*
X69283571Y-77098095D01*
X69235952Y-77145714D01*
X69188333Y-77240952D01*
X69188333Y-77479047D01*
X69235952Y-77574285D01*
X69283571Y-77621904D01*
X69378809Y-77669523D01*
X69616904Y-77669523D01*
X69712142Y-77621904D01*
X69759761Y-77574285D01*
X69807380Y-77479047D01*
X69807380Y-77240952D01*
X69759761Y-77145714D01*
X69712142Y-77098095D01*
X68807380Y-78288571D02*
X68807380Y-78383809D01*
X68855000Y-78479047D01*
X68902619Y-78526666D01*
X68997857Y-78574285D01*
X69188333Y-78621904D01*
X69426428Y-78621904D01*
X69616904Y-78574285D01*
X69712142Y-78526666D01*
X69759761Y-78479047D01*
X69807380Y-78383809D01*
X69807380Y-78288571D01*
X69759761Y-78193333D01*
X69712142Y-78145714D01*
X69616904Y-78098095D01*
X69426428Y-78050476D01*
X69188333Y-78050476D01*
X68997857Y-78098095D01*
X68902619Y-78145714D01*
X68855000Y-78193333D01*
X68807380Y-78288571D01*
X69807380Y-79621904D02*
X69331190Y-79288571D01*
X69807380Y-79050476D02*
X68807380Y-79050476D01*
X68807380Y-79431428D01*
X68855000Y-79526666D01*
X68902619Y-79574285D01*
X68997857Y-79621904D01*
X69140714Y-79621904D01*
X69235952Y-79574285D01*
X69283571Y-79526666D01*
X69331190Y-79431428D01*
X69331190Y-79050476D01*
G04 #@! TO.C,R9*
D15*
X96853214Y-75407500D02*
X96853214Y-75236071D01*
X96853214Y-75321785D02*
X96553214Y-75321785D01*
X96596071Y-75293214D01*
X96624642Y-75264642D01*
X96638928Y-75236071D01*
X96553214Y-75593214D02*
X96553214Y-75621785D01*
X96567500Y-75650357D01*
X96581785Y-75664642D01*
X96610357Y-75678928D01*
X96667500Y-75693214D01*
X96738928Y-75693214D01*
X96796071Y-75678928D01*
X96824642Y-75664642D01*
X96838928Y-75650357D01*
X96853214Y-75621785D01*
X96853214Y-75593214D01*
X96838928Y-75564642D01*
X96824642Y-75550357D01*
X96796071Y-75536071D01*
X96738928Y-75521785D01*
X96667500Y-75521785D01*
X96610357Y-75536071D01*
X96581785Y-75550357D01*
X96567500Y-75564642D01*
X96553214Y-75593214D01*
X96553214Y-75878928D02*
X96553214Y-75907500D01*
X96567500Y-75936071D01*
X96581785Y-75950357D01*
X96610357Y-75964642D01*
X96667500Y-75978928D01*
X96738928Y-75978928D01*
X96796071Y-75964642D01*
X96824642Y-75950357D01*
X96838928Y-75936071D01*
X96853214Y-75907500D01*
X96853214Y-75878928D01*
X96838928Y-75850357D01*
X96824642Y-75836071D01*
X96796071Y-75821785D01*
X96738928Y-75807500D01*
X96667500Y-75807500D01*
X96610357Y-75821785D01*
X96581785Y-75836071D01*
X96567500Y-75850357D01*
X96553214Y-75878928D01*
X96853214Y-76107500D02*
X96553214Y-76107500D01*
X96853214Y-76278928D02*
X96681785Y-76150357D01*
X96553214Y-76278928D02*
X96724642Y-76107500D01*
G04 #@! TO.C,R19*
D11*
X101600833Y-78133690D02*
X101886547Y-78133690D01*
X101743690Y-78133690D02*
X101743690Y-77633690D01*
X101791309Y-77705119D01*
X101838928Y-77752738D01*
X101886547Y-77776547D01*
X101291309Y-77633690D02*
X101243690Y-77633690D01*
X101196071Y-77657500D01*
X101172261Y-77681309D01*
X101148452Y-77728928D01*
X101124642Y-77824166D01*
X101124642Y-77943214D01*
X101148452Y-78038452D01*
X101172261Y-78086071D01*
X101196071Y-78109880D01*
X101243690Y-78133690D01*
X101291309Y-78133690D01*
X101338928Y-78109880D01*
X101362738Y-78086071D01*
X101386547Y-78038452D01*
X101410357Y-77943214D01*
X101410357Y-77824166D01*
X101386547Y-77728928D01*
X101362738Y-77681309D01*
X101338928Y-77657500D01*
X101291309Y-77633690D01*
X100815119Y-77633690D02*
X100767500Y-77633690D01*
X100719880Y-77657500D01*
X100696071Y-77681309D01*
X100672261Y-77728928D01*
X100648452Y-77824166D01*
X100648452Y-77943214D01*
X100672261Y-78038452D01*
X100696071Y-78086071D01*
X100719880Y-78109880D01*
X100767500Y-78133690D01*
X100815119Y-78133690D01*
X100862738Y-78109880D01*
X100886547Y-78086071D01*
X100910357Y-78038452D01*
X100934166Y-77943214D01*
X100934166Y-77824166D01*
X100910357Y-77728928D01*
X100886547Y-77681309D01*
X100862738Y-77657500D01*
X100815119Y-77633690D01*
X100434166Y-78133690D02*
X100434166Y-77633690D01*
X100148452Y-78133690D02*
X100362738Y-77847976D01*
X100148452Y-77633690D02*
X100434166Y-77919404D01*
G04 #@! TO.C,C23*
X97043690Y-77326547D02*
X97043690Y-77374166D01*
X97067500Y-77421785D01*
X97091309Y-77445595D01*
X97138928Y-77469404D01*
X97234166Y-77493214D01*
X97353214Y-77493214D01*
X97448452Y-77469404D01*
X97496071Y-77445595D01*
X97519880Y-77421785D01*
X97543690Y-77374166D01*
X97543690Y-77326547D01*
X97519880Y-77278928D01*
X97496071Y-77255119D01*
X97448452Y-77231309D01*
X97353214Y-77207500D01*
X97234166Y-77207500D01*
X97138928Y-77231309D01*
X97091309Y-77255119D01*
X97067500Y-77278928D01*
X97043690Y-77326547D01*
X97496071Y-77707500D02*
X97519880Y-77731309D01*
X97543690Y-77707500D01*
X97519880Y-77683690D01*
X97496071Y-77707500D01*
X97543690Y-77707500D01*
X97543690Y-78207500D02*
X97543690Y-77921785D01*
X97543690Y-78064642D02*
X97043690Y-78064642D01*
X97115119Y-78017023D01*
X97162738Y-77969404D01*
X97186547Y-77921785D01*
X97543690Y-78421785D02*
X97210357Y-78421785D01*
X97257976Y-78421785D02*
X97234166Y-78445595D01*
X97210357Y-78493214D01*
X97210357Y-78564642D01*
X97234166Y-78612261D01*
X97281785Y-78636071D01*
X97543690Y-78636071D01*
X97281785Y-78636071D02*
X97234166Y-78659880D01*
X97210357Y-78707500D01*
X97210357Y-78778928D01*
X97234166Y-78826547D01*
X97281785Y-78850357D01*
X97543690Y-78850357D01*
X97543690Y-79088452D02*
X97043690Y-79088452D01*
X97353214Y-79136071D02*
X97543690Y-79278928D01*
X97210357Y-79278928D02*
X97400833Y-79088452D01*
X97281785Y-79659880D02*
X97281785Y-79493214D01*
X97543690Y-79493214D02*
X97043690Y-79493214D01*
X97043690Y-79731309D01*
G04 #@! TO.C,R14*
X132809166Y-62799166D02*
X132909166Y-62765833D01*
X133075833Y-62765833D01*
X133142500Y-62799166D01*
X133175833Y-62832500D01*
X133209166Y-62899166D01*
X133209166Y-62965833D01*
X133175833Y-63032500D01*
X133142500Y-63065833D01*
X133075833Y-63099166D01*
X132942500Y-63132500D01*
X132875833Y-63165833D01*
X132842500Y-63199166D01*
X132809166Y-63265833D01*
X132809166Y-63332500D01*
X132842500Y-63399166D01*
X132875833Y-63432500D01*
X132942500Y-63465833D01*
X133109166Y-63465833D01*
X133209166Y-63432500D01*
X133475833Y-63399166D02*
X133509166Y-63432500D01*
X133575833Y-63465833D01*
X133742500Y-63465833D01*
X133809166Y-63432500D01*
X133842500Y-63399166D01*
X133875833Y-63332500D01*
X133875833Y-63265833D01*
X133842500Y-63165833D01*
X133442500Y-62765833D01*
X133875833Y-62765833D01*
G04 #@! TO.C,R16*
X128684166Y-62774166D02*
X128784166Y-62740833D01*
X128950833Y-62740833D01*
X129017500Y-62774166D01*
X129050833Y-62807500D01*
X129084166Y-62874166D01*
X129084166Y-62940833D01*
X129050833Y-63007500D01*
X129017500Y-63040833D01*
X128950833Y-63074166D01*
X128817500Y-63107500D01*
X128750833Y-63140833D01*
X128717500Y-63174166D01*
X128684166Y-63240833D01*
X128684166Y-63307500D01*
X128717500Y-63374166D01*
X128750833Y-63407500D01*
X128817500Y-63440833D01*
X128984166Y-63440833D01*
X129084166Y-63407500D01*
X129317500Y-63440833D02*
X129750833Y-63440833D01*
X129517500Y-63174166D01*
X129617500Y-63174166D01*
X129684166Y-63140833D01*
X129717500Y-63107500D01*
X129750833Y-63040833D01*
X129750833Y-62874166D01*
X129717500Y-62807500D01*
X129684166Y-62774166D01*
X129617500Y-62740833D01*
X129417500Y-62740833D01*
X129350833Y-62774166D01*
X129317500Y-62807500D01*
G04 #@! TO.C,C21*
X50443690Y-58717023D02*
X50443690Y-58764642D01*
X50467500Y-58812261D01*
X50491309Y-58836071D01*
X50538928Y-58859880D01*
X50634166Y-58883690D01*
X50753214Y-58883690D01*
X50848452Y-58859880D01*
X50896071Y-58836071D01*
X50919880Y-58812261D01*
X50943690Y-58764642D01*
X50943690Y-58717023D01*
X50919880Y-58669404D01*
X50896071Y-58645595D01*
X50848452Y-58621785D01*
X50753214Y-58597976D01*
X50634166Y-58597976D01*
X50538928Y-58621785D01*
X50491309Y-58645595D01*
X50467500Y-58669404D01*
X50443690Y-58717023D01*
X50896071Y-59097976D02*
X50919880Y-59121785D01*
X50943690Y-59097976D01*
X50919880Y-59074166D01*
X50896071Y-59097976D01*
X50943690Y-59097976D01*
X50443690Y-59288452D02*
X50443690Y-59597976D01*
X50634166Y-59431309D01*
X50634166Y-59502738D01*
X50657976Y-59550357D01*
X50681785Y-59574166D01*
X50729404Y-59597976D01*
X50848452Y-59597976D01*
X50896071Y-59574166D01*
X50919880Y-59550357D01*
X50943690Y-59502738D01*
X50943690Y-59359880D01*
X50919880Y-59312261D01*
X50896071Y-59288452D01*
X50443690Y-59764642D02*
X50443690Y-60074166D01*
X50634166Y-59907500D01*
X50634166Y-59978928D01*
X50657976Y-60026547D01*
X50681785Y-60050357D01*
X50729404Y-60074166D01*
X50848452Y-60074166D01*
X50896071Y-60050357D01*
X50919880Y-60026547D01*
X50943690Y-59978928D01*
X50943690Y-59836071D01*
X50919880Y-59788452D01*
X50896071Y-59764642D01*
X50681785Y-60455119D02*
X50681785Y-60288452D01*
X50943690Y-60288452D02*
X50443690Y-60288452D01*
X50443690Y-60526547D01*
X50943690Y-61097976D02*
X50610357Y-61097976D01*
X50443690Y-61097976D02*
X50467500Y-61074166D01*
X50491309Y-61097976D01*
X50467500Y-61121785D01*
X50443690Y-61097976D01*
X50491309Y-61097976D01*
X50943690Y-61407500D02*
X50919880Y-61359880D01*
X50896071Y-61336071D01*
X50848452Y-61312261D01*
X50705595Y-61312261D01*
X50657976Y-61336071D01*
X50634166Y-61359880D01*
X50610357Y-61407500D01*
X50610357Y-61478928D01*
X50634166Y-61526547D01*
X50657976Y-61550357D01*
X50705595Y-61574166D01*
X50848452Y-61574166D01*
X50896071Y-61550357D01*
X50919880Y-61526547D01*
X50943690Y-61478928D01*
X50943690Y-61407500D01*
X50610357Y-61788452D02*
X50943690Y-61788452D01*
X50657976Y-61788452D02*
X50634166Y-61812261D01*
X50610357Y-61859880D01*
X50610357Y-61931309D01*
X50634166Y-61978928D01*
X50681785Y-62002738D01*
X50943690Y-62002738D01*
X50943690Y-62240833D02*
X50610357Y-62240833D01*
X50443690Y-62240833D02*
X50467500Y-62217023D01*
X50491309Y-62240833D01*
X50467500Y-62264642D01*
X50443690Y-62240833D01*
X50491309Y-62240833D01*
X50919880Y-62455119D02*
X50943690Y-62502738D01*
X50943690Y-62597976D01*
X50919880Y-62645595D01*
X50872261Y-62669404D01*
X50848452Y-62669404D01*
X50800833Y-62645595D01*
X50777023Y-62597976D01*
X50777023Y-62526547D01*
X50753214Y-62478928D01*
X50705595Y-62455119D01*
X50681785Y-62455119D01*
X50634166Y-62478928D01*
X50610357Y-62526547D01*
X50610357Y-62597976D01*
X50634166Y-62645595D01*
X50610357Y-62812261D02*
X50610357Y-63002738D01*
X50443690Y-62883690D02*
X50872261Y-62883690D01*
X50919880Y-62907500D01*
X50943690Y-62955119D01*
X50943690Y-63002738D01*
X50943690Y-63240833D02*
X50919880Y-63193214D01*
X50896071Y-63169404D01*
X50848452Y-63145595D01*
X50705595Y-63145595D01*
X50657976Y-63169404D01*
X50634166Y-63193214D01*
X50610357Y-63240833D01*
X50610357Y-63312261D01*
X50634166Y-63359880D01*
X50657976Y-63383690D01*
X50705595Y-63407500D01*
X50848452Y-63407500D01*
X50896071Y-63383690D01*
X50919880Y-63359880D01*
X50943690Y-63312261D01*
X50943690Y-63240833D01*
X50943690Y-63621785D02*
X50610357Y-63621785D01*
X50705595Y-63621785D02*
X50657976Y-63645595D01*
X50634166Y-63669404D01*
X50610357Y-63717023D01*
X50610357Y-63764642D01*
G04 #@! TO.C,IC2*
D15*
X52860357Y-59136071D02*
X52903214Y-59121785D01*
X52974642Y-59121785D01*
X53003214Y-59136071D01*
X53017500Y-59150357D01*
X53031785Y-59178928D01*
X53031785Y-59207500D01*
X53017500Y-59236071D01*
X53003214Y-59250357D01*
X52974642Y-59264642D01*
X52917500Y-59278928D01*
X52888928Y-59293214D01*
X52874642Y-59307500D01*
X52860357Y-59336071D01*
X52860357Y-59364642D01*
X52874642Y-59393214D01*
X52888928Y-59407500D01*
X52917500Y-59421785D01*
X52988928Y-59421785D01*
X53031785Y-59407500D01*
X53160357Y-59121785D02*
X53160357Y-59421785D01*
X53331785Y-59121785D01*
X53331785Y-59421785D01*
X53446071Y-59421785D02*
X53646071Y-59421785D01*
X53517500Y-59121785D01*
X53888928Y-59321785D02*
X53888928Y-59121785D01*
X53817500Y-59436071D02*
X53746071Y-59221785D01*
X53931785Y-59221785D01*
X54188928Y-59121785D02*
X54046071Y-59121785D01*
X54046071Y-59421785D01*
X54246071Y-59421785D02*
X54346071Y-59121785D01*
X54446071Y-59421785D01*
X54717500Y-59150357D02*
X54703214Y-59136071D01*
X54660357Y-59121785D01*
X54631785Y-59121785D01*
X54588928Y-59136071D01*
X54560357Y-59164642D01*
X54546071Y-59193214D01*
X54531785Y-59250357D01*
X54531785Y-59293214D01*
X54546071Y-59350357D01*
X54560357Y-59378928D01*
X54588928Y-59407500D01*
X54631785Y-59421785D01*
X54660357Y-59421785D01*
X54703214Y-59407500D01*
X54717500Y-59393214D01*
X54831785Y-59393214D02*
X54846071Y-59407500D01*
X54874642Y-59421785D01*
X54946071Y-59421785D01*
X54974642Y-59407500D01*
X54988928Y-59393214D01*
X55003214Y-59364642D01*
X55003214Y-59336071D01*
X54988928Y-59293214D01*
X54817500Y-59121785D01*
X55003214Y-59121785D01*
X55288928Y-59407500D02*
X55260357Y-59421785D01*
X55217500Y-59421785D01*
X55174642Y-59407500D01*
X55146071Y-59378928D01*
X55131785Y-59350357D01*
X55117500Y-59293214D01*
X55117500Y-59250357D01*
X55131785Y-59193214D01*
X55146071Y-59164642D01*
X55174642Y-59136071D01*
X55217500Y-59121785D01*
X55246071Y-59121785D01*
X55288928Y-59136071D01*
X55303214Y-59150357D01*
X55303214Y-59250357D01*
X55246071Y-59250357D01*
X55488928Y-59421785D02*
X55517500Y-59421785D01*
X55546071Y-59407500D01*
X55560357Y-59393214D01*
X55574642Y-59364642D01*
X55588928Y-59307500D01*
X55588928Y-59236071D01*
X55574642Y-59178928D01*
X55560357Y-59150357D01*
X55546071Y-59136071D01*
X55517500Y-59121785D01*
X55488928Y-59121785D01*
X55460357Y-59136071D01*
X55446071Y-59150357D01*
X55431785Y-59178928D01*
X55417500Y-59236071D01*
X55417500Y-59307500D01*
X55431785Y-59364642D01*
X55446071Y-59393214D01*
X55460357Y-59407500D01*
X55488928Y-59421785D01*
X55703214Y-59393214D02*
X55717500Y-59407500D01*
X55746071Y-59421785D01*
X55817500Y-59421785D01*
X55846071Y-59407500D01*
X55860357Y-59393214D01*
X55874642Y-59364642D01*
X55874642Y-59336071D01*
X55860357Y-59293214D01*
X55688928Y-59121785D01*
X55874642Y-59121785D01*
G04 #@! TO.C,C20*
D11*
X68689047Y-68078809D02*
X68736666Y-68078809D01*
X68784285Y-68055000D01*
X68808095Y-68031190D01*
X68831904Y-67983571D01*
X68855714Y-67888333D01*
X68855714Y-67769285D01*
X68831904Y-67674047D01*
X68808095Y-67626428D01*
X68784285Y-67602619D01*
X68736666Y-67578809D01*
X68689047Y-67578809D01*
X68641428Y-67602619D01*
X68617619Y-67626428D01*
X68593809Y-67674047D01*
X68570000Y-67769285D01*
X68570000Y-67888333D01*
X68593809Y-67983571D01*
X68617619Y-68031190D01*
X68641428Y-68055000D01*
X68689047Y-68078809D01*
X69070000Y-67626428D02*
X69093809Y-67602619D01*
X69070000Y-67578809D01*
X69046190Y-67602619D01*
X69070000Y-67626428D01*
X69070000Y-67578809D01*
X69570000Y-67578809D02*
X69284285Y-67578809D01*
X69427142Y-67578809D02*
X69427142Y-68078809D01*
X69379523Y-68007380D01*
X69331904Y-67959761D01*
X69284285Y-67935952D01*
X69784285Y-67578809D02*
X69784285Y-67912142D01*
X69784285Y-67864523D02*
X69808095Y-67888333D01*
X69855714Y-67912142D01*
X69927142Y-67912142D01*
X69974761Y-67888333D01*
X69998571Y-67840714D01*
X69998571Y-67578809D01*
X69998571Y-67840714D02*
X70022380Y-67888333D01*
X70070000Y-67912142D01*
X70141428Y-67912142D01*
X70189047Y-67888333D01*
X70212857Y-67840714D01*
X70212857Y-67578809D01*
X70450952Y-67578809D02*
X70450952Y-68078809D01*
X70498571Y-67769285D02*
X70641428Y-67578809D01*
X70641428Y-67912142D02*
X70450952Y-67721666D01*
X71022380Y-67840714D02*
X70855714Y-67840714D01*
X70855714Y-67578809D02*
X70855714Y-68078809D01*
X71093809Y-68078809D01*
G04 #@! TO.C,C19*
X71283809Y-58045952D02*
X71283809Y-57998333D01*
X71260000Y-57950714D01*
X71236190Y-57926904D01*
X71188571Y-57903095D01*
X71093333Y-57879285D01*
X70974285Y-57879285D01*
X70879047Y-57903095D01*
X70831428Y-57926904D01*
X70807619Y-57950714D01*
X70783809Y-57998333D01*
X70783809Y-58045952D01*
X70807619Y-58093571D01*
X70831428Y-58117380D01*
X70879047Y-58141190D01*
X70974285Y-58165000D01*
X71093333Y-58165000D01*
X71188571Y-58141190D01*
X71236190Y-58117380D01*
X71260000Y-58093571D01*
X71283809Y-58045952D01*
X70831428Y-57665000D02*
X70807619Y-57641190D01*
X70783809Y-57665000D01*
X70807619Y-57688809D01*
X70831428Y-57665000D01*
X70783809Y-57665000D01*
X70783809Y-57165000D02*
X70783809Y-57450714D01*
X70783809Y-57307857D02*
X71283809Y-57307857D01*
X71212380Y-57355476D01*
X71164761Y-57403095D01*
X71140952Y-57450714D01*
X70783809Y-56950714D02*
X71117142Y-56950714D01*
X71069523Y-56950714D02*
X71093333Y-56926904D01*
X71117142Y-56879285D01*
X71117142Y-56807857D01*
X71093333Y-56760238D01*
X71045714Y-56736428D01*
X70783809Y-56736428D01*
X71045714Y-56736428D02*
X71093333Y-56712619D01*
X71117142Y-56665000D01*
X71117142Y-56593571D01*
X71093333Y-56545952D01*
X71045714Y-56522142D01*
X70783809Y-56522142D01*
X70783809Y-56284047D02*
X71283809Y-56284047D01*
X70974285Y-56236428D02*
X70783809Y-56093571D01*
X71117142Y-56093571D02*
X70926666Y-56284047D01*
X71045714Y-55712619D02*
X71045714Y-55879285D01*
X70783809Y-55879285D02*
X71283809Y-55879285D01*
X71283809Y-55641190D01*
G04 #@! TO.C,C16*
X78636547Y-58331309D02*
X78684166Y-58331309D01*
X78731785Y-58307500D01*
X78755595Y-58283690D01*
X78779404Y-58236071D01*
X78803214Y-58140833D01*
X78803214Y-58021785D01*
X78779404Y-57926547D01*
X78755595Y-57878928D01*
X78731785Y-57855119D01*
X78684166Y-57831309D01*
X78636547Y-57831309D01*
X78588928Y-57855119D01*
X78565119Y-57878928D01*
X78541309Y-57926547D01*
X78517500Y-58021785D01*
X78517500Y-58140833D01*
X78541309Y-58236071D01*
X78565119Y-58283690D01*
X78588928Y-58307500D01*
X78636547Y-58331309D01*
X79017500Y-57878928D02*
X79041309Y-57855119D01*
X79017500Y-57831309D01*
X78993690Y-57855119D01*
X79017500Y-57878928D01*
X79017500Y-57831309D01*
X79517500Y-57831309D02*
X79231785Y-57831309D01*
X79374642Y-57831309D02*
X79374642Y-58331309D01*
X79327023Y-58259880D01*
X79279404Y-58212261D01*
X79231785Y-58188452D01*
X79731785Y-57831309D02*
X79731785Y-58164642D01*
X79731785Y-58117023D02*
X79755595Y-58140833D01*
X79803214Y-58164642D01*
X79874642Y-58164642D01*
X79922261Y-58140833D01*
X79946071Y-58093214D01*
X79946071Y-57831309D01*
X79946071Y-58093214D02*
X79969880Y-58140833D01*
X80017500Y-58164642D01*
X80088928Y-58164642D01*
X80136547Y-58140833D01*
X80160357Y-58093214D01*
X80160357Y-57831309D01*
X80398452Y-57831309D02*
X80398452Y-58331309D01*
X80446071Y-58021785D02*
X80588928Y-57831309D01*
X80588928Y-58164642D02*
X80398452Y-57974166D01*
X80969880Y-58093214D02*
X80803214Y-58093214D01*
X80803214Y-57831309D02*
X80803214Y-58331309D01*
X81041309Y-58331309D01*
G04 #@! TO.C,R7*
X59200833Y-67083690D02*
X59486547Y-67083690D01*
X59343690Y-67083690D02*
X59343690Y-66583690D01*
X59391309Y-66655119D01*
X59438928Y-66702738D01*
X59486547Y-66726547D01*
X58891309Y-66583690D02*
X58843690Y-66583690D01*
X58796071Y-66607500D01*
X58772261Y-66631309D01*
X58748452Y-66678928D01*
X58724642Y-66774166D01*
X58724642Y-66893214D01*
X58748452Y-66988452D01*
X58772261Y-67036071D01*
X58796071Y-67059880D01*
X58843690Y-67083690D01*
X58891309Y-67083690D01*
X58938928Y-67059880D01*
X58962738Y-67036071D01*
X58986547Y-66988452D01*
X59010357Y-66893214D01*
X59010357Y-66774166D01*
X58986547Y-66678928D01*
X58962738Y-66631309D01*
X58938928Y-66607500D01*
X58891309Y-66583690D01*
X58415119Y-66583690D02*
X58367500Y-66583690D01*
X58319880Y-66607500D01*
X58296071Y-66631309D01*
X58272261Y-66678928D01*
X58248452Y-66774166D01*
X58248452Y-66893214D01*
X58272261Y-66988452D01*
X58296071Y-67036071D01*
X58319880Y-67059880D01*
X58367500Y-67083690D01*
X58415119Y-67083690D01*
X58462738Y-67059880D01*
X58486547Y-67036071D01*
X58510357Y-66988452D01*
X58534166Y-66893214D01*
X58534166Y-66774166D01*
X58510357Y-66678928D01*
X58486547Y-66631309D01*
X58462738Y-66607500D01*
X58415119Y-66583690D01*
X57748452Y-67083690D02*
X57915119Y-66845595D01*
X58034166Y-67083690D02*
X58034166Y-66583690D01*
X57843690Y-66583690D01*
X57796071Y-66607500D01*
X57772261Y-66631309D01*
X57748452Y-66678928D01*
X57748452Y-66750357D01*
X57772261Y-66797976D01*
X57796071Y-66821785D01*
X57843690Y-66845595D01*
X58034166Y-66845595D01*
G04 #@! TO.C,R6*
X55424642Y-64531309D02*
X55734166Y-64531309D01*
X55567500Y-64340833D01*
X55638928Y-64340833D01*
X55686547Y-64317023D01*
X55710357Y-64293214D01*
X55734166Y-64245595D01*
X55734166Y-64126547D01*
X55710357Y-64078928D01*
X55686547Y-64055119D01*
X55638928Y-64031309D01*
X55496071Y-64031309D01*
X55448452Y-64055119D01*
X55424642Y-64078928D01*
X56043690Y-64531309D02*
X56091309Y-64531309D01*
X56138928Y-64507500D01*
X56162738Y-64483690D01*
X56186547Y-64436071D01*
X56210357Y-64340833D01*
X56210357Y-64221785D01*
X56186547Y-64126547D01*
X56162738Y-64078928D01*
X56138928Y-64055119D01*
X56091309Y-64031309D01*
X56043690Y-64031309D01*
X55996071Y-64055119D01*
X55972261Y-64078928D01*
X55948452Y-64126547D01*
X55924642Y-64221785D01*
X55924642Y-64340833D01*
X55948452Y-64436071D01*
X55972261Y-64483690D01*
X55996071Y-64507500D01*
X56043690Y-64531309D01*
X56519880Y-64531309D02*
X56567500Y-64531309D01*
X56615119Y-64507500D01*
X56638928Y-64483690D01*
X56662738Y-64436071D01*
X56686547Y-64340833D01*
X56686547Y-64221785D01*
X56662738Y-64126547D01*
X56638928Y-64078928D01*
X56615119Y-64055119D01*
X56567500Y-64031309D01*
X56519880Y-64031309D01*
X56472261Y-64055119D01*
X56448452Y-64078928D01*
X56424642Y-64126547D01*
X56400833Y-64221785D01*
X56400833Y-64340833D01*
X56424642Y-64436071D01*
X56448452Y-64483690D01*
X56472261Y-64507500D01*
X56519880Y-64531309D01*
X57186547Y-64031309D02*
X57019880Y-64269404D01*
X56900833Y-64031309D02*
X56900833Y-64531309D01*
X57091309Y-64531309D01*
X57138928Y-64507500D01*
X57162738Y-64483690D01*
X57186547Y-64436071D01*
X57186547Y-64364642D01*
X57162738Y-64317023D01*
X57138928Y-64293214D01*
X57091309Y-64269404D01*
X56900833Y-64269404D01*
G04 #@! TO.C,R5*
X61386547Y-66383690D02*
X61410357Y-66407500D01*
X61457976Y-66431309D01*
X61577023Y-66431309D01*
X61624642Y-66407500D01*
X61648452Y-66383690D01*
X61672261Y-66336071D01*
X61672261Y-66288452D01*
X61648452Y-66217023D01*
X61362738Y-65931309D01*
X61672261Y-65931309D01*
X61862738Y-66383690D02*
X61886547Y-66407500D01*
X61934166Y-66431309D01*
X62053214Y-66431309D01*
X62100833Y-66407500D01*
X62124642Y-66383690D01*
X62148452Y-66336071D01*
X62148452Y-66288452D01*
X62124642Y-66217023D01*
X61838928Y-65931309D01*
X62148452Y-65931309D01*
X62648452Y-65931309D02*
X62481785Y-66169404D01*
X62362738Y-65931309D02*
X62362738Y-66431309D01*
X62553214Y-66431309D01*
X62600833Y-66407500D01*
X62624642Y-66383690D01*
X62648452Y-66336071D01*
X62648452Y-66264642D01*
X62624642Y-66217023D01*
X62600833Y-66193214D01*
X62553214Y-66169404D01*
X62362738Y-66169404D01*
G04 #@! TO.C,R4*
X66486547Y-62783690D02*
X66510357Y-62807500D01*
X66557976Y-62831309D01*
X66677023Y-62831309D01*
X66724642Y-62807500D01*
X66748452Y-62783690D01*
X66772261Y-62736071D01*
X66772261Y-62688452D01*
X66748452Y-62617023D01*
X66462738Y-62331309D01*
X66772261Y-62331309D01*
X66962738Y-62783690D02*
X66986547Y-62807500D01*
X67034166Y-62831309D01*
X67153214Y-62831309D01*
X67200833Y-62807500D01*
X67224642Y-62783690D01*
X67248452Y-62736071D01*
X67248452Y-62688452D01*
X67224642Y-62617023D01*
X66938928Y-62331309D01*
X67248452Y-62331309D01*
X67748452Y-62331309D02*
X67581785Y-62569404D01*
X67462738Y-62331309D02*
X67462738Y-62831309D01*
X67653214Y-62831309D01*
X67700833Y-62807500D01*
X67724642Y-62783690D01*
X67748452Y-62736071D01*
X67748452Y-62664642D01*
X67724642Y-62617023D01*
X67700833Y-62593214D01*
X67653214Y-62569404D01*
X67462738Y-62569404D01*
G04 #@! TO.C,R3*
X66672261Y-64331309D02*
X66386547Y-64331309D01*
X66529404Y-64331309D02*
X66529404Y-64831309D01*
X66481785Y-64759880D01*
X66434166Y-64712261D01*
X66386547Y-64688452D01*
X66886547Y-64331309D02*
X66886547Y-64831309D01*
X67172261Y-64331309D02*
X66957976Y-64617023D01*
X67172261Y-64831309D02*
X66886547Y-64545595D01*
X67624642Y-64831309D02*
X67386547Y-64831309D01*
X67362738Y-64593214D01*
X67386547Y-64617023D01*
X67434166Y-64640833D01*
X67553214Y-64640833D01*
X67600833Y-64617023D01*
X67624642Y-64593214D01*
X67648452Y-64545595D01*
X67648452Y-64426547D01*
X67624642Y-64378928D01*
X67600833Y-64355119D01*
X67553214Y-64331309D01*
X67434166Y-64331309D01*
X67386547Y-64355119D01*
X67362738Y-64378928D01*
G04 #@! TO.C,R2*
X64134166Y-67731309D02*
X63848452Y-67731309D01*
X63991309Y-67731309D02*
X63991309Y-68231309D01*
X63943690Y-68159880D01*
X63896071Y-68112261D01*
X63848452Y-68088452D01*
X64443690Y-68231309D02*
X64491309Y-68231309D01*
X64538928Y-68207500D01*
X64562738Y-68183690D01*
X64586547Y-68136071D01*
X64610357Y-68040833D01*
X64610357Y-67921785D01*
X64586547Y-67826547D01*
X64562738Y-67778928D01*
X64538928Y-67755119D01*
X64491309Y-67731309D01*
X64443690Y-67731309D01*
X64396071Y-67755119D01*
X64372261Y-67778928D01*
X64348452Y-67826547D01*
X64324642Y-67921785D01*
X64324642Y-68040833D01*
X64348452Y-68136071D01*
X64372261Y-68183690D01*
X64396071Y-68207500D01*
X64443690Y-68231309D01*
X64919880Y-68231309D02*
X64967500Y-68231309D01*
X65015119Y-68207500D01*
X65038928Y-68183690D01*
X65062738Y-68136071D01*
X65086547Y-68040833D01*
X65086547Y-67921785D01*
X65062738Y-67826547D01*
X65038928Y-67778928D01*
X65015119Y-67755119D01*
X64967500Y-67731309D01*
X64919880Y-67731309D01*
X64872261Y-67755119D01*
X64848452Y-67778928D01*
X64824642Y-67826547D01*
X64800833Y-67921785D01*
X64800833Y-68040833D01*
X64824642Y-68136071D01*
X64848452Y-68183690D01*
X64872261Y-68207500D01*
X64919880Y-68231309D01*
X65300833Y-67731309D02*
X65300833Y-68231309D01*
X65586547Y-67731309D02*
X65372261Y-68017023D01*
X65586547Y-68231309D02*
X65300833Y-67945595D01*
G04 #@! TO.C,R1*
X67034166Y-60731309D02*
X66748452Y-60731309D01*
X66891309Y-60731309D02*
X66891309Y-61231309D01*
X66843690Y-61159880D01*
X66796071Y-61112261D01*
X66748452Y-61088452D01*
X67343690Y-61231309D02*
X67391309Y-61231309D01*
X67438928Y-61207500D01*
X67462738Y-61183690D01*
X67486547Y-61136071D01*
X67510357Y-61040833D01*
X67510357Y-60921785D01*
X67486547Y-60826547D01*
X67462738Y-60778928D01*
X67438928Y-60755119D01*
X67391309Y-60731309D01*
X67343690Y-60731309D01*
X67296071Y-60755119D01*
X67272261Y-60778928D01*
X67248452Y-60826547D01*
X67224642Y-60921785D01*
X67224642Y-61040833D01*
X67248452Y-61136071D01*
X67272261Y-61183690D01*
X67296071Y-61207500D01*
X67343690Y-61231309D01*
X67819880Y-61231309D02*
X67867500Y-61231309D01*
X67915119Y-61207500D01*
X67938928Y-61183690D01*
X67962738Y-61136071D01*
X67986547Y-61040833D01*
X67986547Y-60921785D01*
X67962738Y-60826547D01*
X67938928Y-60778928D01*
X67915119Y-60755119D01*
X67867500Y-60731309D01*
X67819880Y-60731309D01*
X67772261Y-60755119D01*
X67748452Y-60778928D01*
X67724642Y-60826547D01*
X67700833Y-60921785D01*
X67700833Y-61040833D01*
X67724642Y-61136071D01*
X67748452Y-61183690D01*
X67772261Y-61207500D01*
X67819880Y-61231309D01*
X68200833Y-60731309D02*
X68200833Y-61231309D01*
X68486547Y-60731309D02*
X68272261Y-61017023D01*
X68486547Y-61231309D02*
X68200833Y-60945595D01*
G04 #@! TO.C,C17*
X86353809Y-67162142D02*
X86353809Y-67447857D01*
X86353809Y-67305000D02*
X86853809Y-67305000D01*
X86782380Y-67352619D01*
X86734761Y-67400238D01*
X86710952Y-67447857D01*
X86353809Y-66947857D02*
X86687142Y-66947857D01*
X86639523Y-66947857D02*
X86663333Y-66924047D01*
X86687142Y-66876428D01*
X86687142Y-66805000D01*
X86663333Y-66757380D01*
X86615714Y-66733571D01*
X86353809Y-66733571D01*
X86615714Y-66733571D02*
X86663333Y-66709761D01*
X86687142Y-66662142D01*
X86687142Y-66590714D01*
X86663333Y-66543095D01*
X86615714Y-66519285D01*
X86353809Y-66519285D01*
X86353809Y-66281190D02*
X86853809Y-66281190D01*
X86544285Y-66233571D02*
X86353809Y-66090714D01*
X86687142Y-66090714D02*
X86496666Y-66281190D01*
X86615714Y-65709761D02*
X86615714Y-65876428D01*
X86353809Y-65876428D02*
X86853809Y-65876428D01*
X86853809Y-65638333D01*
G04 #@! TO.C,C15*
X82206190Y-66047857D02*
X82206190Y-65762142D01*
X82206190Y-65905000D02*
X81706190Y-65905000D01*
X81777619Y-65857380D01*
X81825238Y-65809761D01*
X81849047Y-65762142D01*
X82206190Y-66262142D02*
X81872857Y-66262142D01*
X81920476Y-66262142D02*
X81896666Y-66285952D01*
X81872857Y-66333571D01*
X81872857Y-66405000D01*
X81896666Y-66452619D01*
X81944285Y-66476428D01*
X82206190Y-66476428D01*
X81944285Y-66476428D02*
X81896666Y-66500238D01*
X81872857Y-66547857D01*
X81872857Y-66619285D01*
X81896666Y-66666904D01*
X81944285Y-66690714D01*
X82206190Y-66690714D01*
X82206190Y-66928809D02*
X81706190Y-66928809D01*
X82015714Y-66976428D02*
X82206190Y-67119285D01*
X81872857Y-67119285D02*
X82063333Y-66928809D01*
X81944285Y-67500238D02*
X81944285Y-67333571D01*
X82206190Y-67333571D02*
X81706190Y-67333571D01*
X81706190Y-67571666D01*
G04 #@! TO.C,C7*
X78649047Y-68028809D02*
X78696666Y-68028809D01*
X78744285Y-68005000D01*
X78768095Y-67981190D01*
X78791904Y-67933571D01*
X78815714Y-67838333D01*
X78815714Y-67719285D01*
X78791904Y-67624047D01*
X78768095Y-67576428D01*
X78744285Y-67552619D01*
X78696666Y-67528809D01*
X78649047Y-67528809D01*
X78601428Y-67552619D01*
X78577619Y-67576428D01*
X78553809Y-67624047D01*
X78530000Y-67719285D01*
X78530000Y-67838333D01*
X78553809Y-67933571D01*
X78577619Y-67981190D01*
X78601428Y-68005000D01*
X78649047Y-68028809D01*
X79030000Y-67576428D02*
X79053809Y-67552619D01*
X79030000Y-67528809D01*
X79006190Y-67552619D01*
X79030000Y-67576428D01*
X79030000Y-67528809D01*
X79530000Y-67528809D02*
X79244285Y-67528809D01*
X79387142Y-67528809D02*
X79387142Y-68028809D01*
X79339523Y-67957380D01*
X79291904Y-67909761D01*
X79244285Y-67885952D01*
X79744285Y-67528809D02*
X79744285Y-67862142D01*
X79744285Y-67814523D02*
X79768095Y-67838333D01*
X79815714Y-67862142D01*
X79887142Y-67862142D01*
X79934761Y-67838333D01*
X79958571Y-67790714D01*
X79958571Y-67528809D01*
X79958571Y-67790714D02*
X79982380Y-67838333D01*
X80030000Y-67862142D01*
X80101428Y-67862142D01*
X80149047Y-67838333D01*
X80172857Y-67790714D01*
X80172857Y-67528809D01*
X80410952Y-67528809D02*
X80410952Y-68028809D01*
X80458571Y-67719285D02*
X80601428Y-67528809D01*
X80601428Y-67862142D02*
X80410952Y-67671666D01*
X80982380Y-67790714D02*
X80815714Y-67790714D01*
X80815714Y-67528809D02*
X80815714Y-68028809D01*
X81053809Y-68028809D01*
G04 #@! TO.C,C4*
X67121785Y-55861309D02*
X66836071Y-55861309D01*
X66978928Y-55861309D02*
X66978928Y-56361309D01*
X66931309Y-56289880D01*
X66883690Y-56242261D01*
X66836071Y-56218452D01*
X67407500Y-56147023D02*
X67359880Y-56170833D01*
X67336071Y-56194642D01*
X67312261Y-56242261D01*
X67312261Y-56266071D01*
X67336071Y-56313690D01*
X67359880Y-56337500D01*
X67407500Y-56361309D01*
X67502738Y-56361309D01*
X67550357Y-56337500D01*
X67574166Y-56313690D01*
X67597976Y-56266071D01*
X67597976Y-56242261D01*
X67574166Y-56194642D01*
X67550357Y-56170833D01*
X67502738Y-56147023D01*
X67407500Y-56147023D01*
X67359880Y-56123214D01*
X67336071Y-56099404D01*
X67312261Y-56051785D01*
X67312261Y-55956547D01*
X67336071Y-55908928D01*
X67359880Y-55885119D01*
X67407500Y-55861309D01*
X67502738Y-55861309D01*
X67550357Y-55885119D01*
X67574166Y-55908928D01*
X67597976Y-55956547D01*
X67597976Y-56051785D01*
X67574166Y-56099404D01*
X67550357Y-56123214D01*
X67502738Y-56147023D01*
X67812261Y-56194642D02*
X67812261Y-55694642D01*
X67812261Y-56170833D02*
X67859880Y-56194642D01*
X67955119Y-56194642D01*
X68002738Y-56170833D01*
X68026547Y-56147023D01*
X68050357Y-56099404D01*
X68050357Y-55956547D01*
X68026547Y-55908928D01*
X68002738Y-55885119D01*
X67955119Y-55861309D01*
X67859880Y-55861309D01*
X67812261Y-55885119D01*
X68431309Y-56123214D02*
X68264642Y-56123214D01*
X68264642Y-55861309D02*
X68264642Y-56361309D01*
X68502738Y-56361309D01*
G04 #@! TO.C,C2*
X61731785Y-55871309D02*
X61446071Y-55871309D01*
X61588928Y-55871309D02*
X61588928Y-56371309D01*
X61541309Y-56299880D01*
X61493690Y-56252261D01*
X61446071Y-56228452D01*
X62017500Y-56157023D02*
X61969880Y-56180833D01*
X61946071Y-56204642D01*
X61922261Y-56252261D01*
X61922261Y-56276071D01*
X61946071Y-56323690D01*
X61969880Y-56347500D01*
X62017500Y-56371309D01*
X62112738Y-56371309D01*
X62160357Y-56347500D01*
X62184166Y-56323690D01*
X62207976Y-56276071D01*
X62207976Y-56252261D01*
X62184166Y-56204642D01*
X62160357Y-56180833D01*
X62112738Y-56157023D01*
X62017500Y-56157023D01*
X61969880Y-56133214D01*
X61946071Y-56109404D01*
X61922261Y-56061785D01*
X61922261Y-55966547D01*
X61946071Y-55918928D01*
X61969880Y-55895119D01*
X62017500Y-55871309D01*
X62112738Y-55871309D01*
X62160357Y-55895119D01*
X62184166Y-55918928D01*
X62207976Y-55966547D01*
X62207976Y-56061785D01*
X62184166Y-56109404D01*
X62160357Y-56133214D01*
X62112738Y-56157023D01*
X62422261Y-56204642D02*
X62422261Y-55704642D01*
X62422261Y-56180833D02*
X62469880Y-56204642D01*
X62565119Y-56204642D01*
X62612738Y-56180833D01*
X62636547Y-56157023D01*
X62660357Y-56109404D01*
X62660357Y-55966547D01*
X62636547Y-55918928D01*
X62612738Y-55895119D01*
X62565119Y-55871309D01*
X62469880Y-55871309D01*
X62422261Y-55895119D01*
X63041309Y-56133214D02*
X62874642Y-56133214D01*
X62874642Y-55871309D02*
X62874642Y-56371309D01*
X63112738Y-56371309D01*
G04 #@! TO.C,R13*
D12*
X97227619Y-60116904D02*
X97227619Y-60593095D01*
X96751428Y-60640714D01*
X96799047Y-60593095D01*
X96846666Y-60497857D01*
X96846666Y-60259761D01*
X96799047Y-60164523D01*
X96751428Y-60116904D01*
X96656190Y-60069285D01*
X96418095Y-60069285D01*
X96322857Y-60116904D01*
X96275238Y-60164523D01*
X96227619Y-60259761D01*
X96227619Y-60497857D01*
X96275238Y-60593095D01*
X96322857Y-60640714D01*
X96227619Y-59640714D02*
X97227619Y-59640714D01*
X96227619Y-59069285D02*
X96799047Y-59497857D01*
X97227619Y-59069285D02*
X96656190Y-59640714D01*
G04 #@! TO.C,R11*
X93327619Y-60016904D02*
X93327619Y-60493095D01*
X92851428Y-60540714D01*
X92899047Y-60493095D01*
X92946666Y-60397857D01*
X92946666Y-60159761D01*
X92899047Y-60064523D01*
X92851428Y-60016904D01*
X92756190Y-59969285D01*
X92518095Y-59969285D01*
X92422857Y-60016904D01*
X92375238Y-60064523D01*
X92327619Y-60159761D01*
X92327619Y-60397857D01*
X92375238Y-60493095D01*
X92422857Y-60540714D01*
X92327619Y-59540714D02*
X93327619Y-59540714D01*
X92327619Y-58969285D02*
X92899047Y-59397857D01*
X93327619Y-58969285D02*
X92756190Y-59540714D01*
G04 #@! TO.C,D2*
D11*
X47741309Y-56018928D02*
X47741309Y-56257023D01*
X48241309Y-56257023D01*
X48003214Y-55852261D02*
X48003214Y-55685595D01*
X47741309Y-55614166D02*
X47741309Y-55852261D01*
X48241309Y-55852261D01*
X48241309Y-55614166D01*
X47741309Y-55399880D02*
X48241309Y-55399880D01*
X48241309Y-55280833D01*
X48217500Y-55209404D01*
X48169880Y-55161785D01*
X48122261Y-55137976D01*
X48027023Y-55114166D01*
X47955595Y-55114166D01*
X47860357Y-55137976D01*
X47812738Y-55161785D01*
X47765119Y-55209404D01*
X47741309Y-55280833D01*
X47741309Y-55399880D01*
G04 #@! TO.C,R18*
D12*
X89627619Y-61093095D02*
X89627619Y-61569285D01*
X89151428Y-61616904D01*
X89199047Y-61569285D01*
X89246666Y-61474047D01*
X89246666Y-61235952D01*
X89199047Y-61140714D01*
X89151428Y-61093095D01*
X89056190Y-61045476D01*
X88818095Y-61045476D01*
X88722857Y-61093095D01*
X88675238Y-61140714D01*
X88627619Y-61235952D01*
X88627619Y-61474047D01*
X88675238Y-61569285D01*
X88722857Y-61616904D01*
X89627619Y-60426428D02*
X89627619Y-60331190D01*
X89580000Y-60235952D01*
X89532380Y-60188333D01*
X89437142Y-60140714D01*
X89246666Y-60093095D01*
X89008571Y-60093095D01*
X88818095Y-60140714D01*
X88722857Y-60188333D01*
X88675238Y-60235952D01*
X88627619Y-60331190D01*
X88627619Y-60426428D01*
X88675238Y-60521666D01*
X88722857Y-60569285D01*
X88818095Y-60616904D01*
X89008571Y-60664523D01*
X89246666Y-60664523D01*
X89437142Y-60616904D01*
X89532380Y-60569285D01*
X89580000Y-60521666D01*
X89627619Y-60426428D01*
X88627619Y-59093095D02*
X89103809Y-59426428D01*
X88627619Y-59664523D02*
X89627619Y-59664523D01*
X89627619Y-59283571D01*
X89580000Y-59188333D01*
X89532380Y-59140714D01*
X89437142Y-59093095D01*
X89294285Y-59093095D01*
X89199047Y-59140714D01*
X89151428Y-59188333D01*
X89103809Y-59283571D01*
X89103809Y-59664523D01*
G04 #@! TO.C,R9*
D15*
X61581785Y-63307500D02*
X61581785Y-63478928D01*
X61581785Y-63393214D02*
X61881785Y-63393214D01*
X61838928Y-63421785D01*
X61810357Y-63450357D01*
X61796071Y-63478928D01*
X61881785Y-63121785D02*
X61881785Y-63093214D01*
X61867500Y-63064642D01*
X61853214Y-63050357D01*
X61824642Y-63036071D01*
X61767500Y-63021785D01*
X61696071Y-63021785D01*
X61638928Y-63036071D01*
X61610357Y-63050357D01*
X61596071Y-63064642D01*
X61581785Y-63093214D01*
X61581785Y-63121785D01*
X61596071Y-63150357D01*
X61610357Y-63164642D01*
X61638928Y-63178928D01*
X61696071Y-63193214D01*
X61767500Y-63193214D01*
X61824642Y-63178928D01*
X61853214Y-63164642D01*
X61867500Y-63150357D01*
X61881785Y-63121785D01*
X61881785Y-62836071D02*
X61881785Y-62807500D01*
X61867500Y-62778928D01*
X61853214Y-62764642D01*
X61824642Y-62750357D01*
X61767500Y-62736071D01*
X61696071Y-62736071D01*
X61638928Y-62750357D01*
X61610357Y-62764642D01*
X61596071Y-62778928D01*
X61581785Y-62807500D01*
X61581785Y-62836071D01*
X61596071Y-62864642D01*
X61610357Y-62878928D01*
X61638928Y-62893214D01*
X61696071Y-62907500D01*
X61767500Y-62907500D01*
X61824642Y-62893214D01*
X61853214Y-62878928D01*
X61867500Y-62864642D01*
X61881785Y-62836071D01*
X61581785Y-62607500D02*
X61881785Y-62607500D01*
X61581785Y-62436071D02*
X61753214Y-62564642D01*
X61881785Y-62436071D02*
X61710357Y-62607500D01*
G04 #@! TO.C,Q1*
D11*
X44724642Y-66156309D02*
X44724642Y-66656309D01*
X45248452Y-66156309D02*
X45081785Y-66394404D01*
X44962738Y-66156309D02*
X44962738Y-66656309D01*
X45153214Y-66656309D01*
X45200833Y-66632500D01*
X45224642Y-66608690D01*
X45248452Y-66561071D01*
X45248452Y-66489642D01*
X45224642Y-66442023D01*
X45200833Y-66418214D01*
X45153214Y-66394404D01*
X44962738Y-66394404D01*
X45700833Y-66156309D02*
X45462738Y-66156309D01*
X45462738Y-66656309D01*
X45867500Y-66156309D02*
X45867500Y-66656309D01*
X46034166Y-66299166D01*
X46200833Y-66656309D01*
X46200833Y-66156309D01*
X46677023Y-66156309D02*
X46438928Y-66156309D01*
X46438928Y-66656309D01*
X47057976Y-66656309D02*
X46962738Y-66656309D01*
X46915119Y-66632500D01*
X46891309Y-66608690D01*
X46843690Y-66537261D01*
X46819880Y-66442023D01*
X46819880Y-66251547D01*
X46843690Y-66203928D01*
X46867500Y-66180119D01*
X46915119Y-66156309D01*
X47010357Y-66156309D01*
X47057976Y-66180119D01*
X47081785Y-66203928D01*
X47105595Y-66251547D01*
X47105595Y-66370595D01*
X47081785Y-66418214D01*
X47057976Y-66442023D01*
X47010357Y-66465833D01*
X46915119Y-66465833D01*
X46867500Y-66442023D01*
X46843690Y-66418214D01*
X46819880Y-66370595D01*
X47534166Y-66489642D02*
X47534166Y-66156309D01*
X47415119Y-66680119D02*
X47296071Y-66322976D01*
X47605595Y-66322976D01*
X47891309Y-66656309D02*
X47938928Y-66656309D01*
X47986547Y-66632500D01*
X48010357Y-66608690D01*
X48034166Y-66561071D01*
X48057976Y-66465833D01*
X48057976Y-66346785D01*
X48034166Y-66251547D01*
X48010357Y-66203928D01*
X47986547Y-66180119D01*
X47938928Y-66156309D01*
X47891309Y-66156309D01*
X47843690Y-66180119D01*
X47819880Y-66203928D01*
X47796071Y-66251547D01*
X47772261Y-66346785D01*
X47772261Y-66465833D01*
X47796071Y-66561071D01*
X47819880Y-66608690D01*
X47843690Y-66632500D01*
X47891309Y-66656309D01*
X48534166Y-66156309D02*
X48248452Y-66156309D01*
X48391309Y-66156309D02*
X48391309Y-66656309D01*
X48343690Y-66584880D01*
X48296071Y-66537261D01*
X48248452Y-66513452D01*
G04 #@! TO.C,P6*
X47334166Y-70457500D02*
X47267500Y-70490833D01*
X47167500Y-70490833D01*
X47067500Y-70457500D01*
X47000833Y-70390833D01*
X46967500Y-70324166D01*
X46934166Y-70190833D01*
X46934166Y-70090833D01*
X46967500Y-69957500D01*
X47000833Y-69890833D01*
X47067500Y-69824166D01*
X47167500Y-69790833D01*
X47234166Y-69790833D01*
X47334166Y-69824166D01*
X47367500Y-69857500D01*
X47367500Y-70090833D01*
X47234166Y-70090833D01*
X47667500Y-69790833D02*
X47667500Y-70490833D01*
X48067500Y-69790833D01*
X48067500Y-70490833D01*
X48400833Y-69790833D02*
X48400833Y-70490833D01*
X48567500Y-70490833D01*
X48667500Y-70457500D01*
X48734166Y-70390833D01*
X48767500Y-70324166D01*
X48800833Y-70190833D01*
X48800833Y-70090833D01*
X48767500Y-69957500D01*
X48734166Y-69890833D01*
X48667500Y-69824166D01*
X48567500Y-69790833D01*
X48400833Y-69790833D01*
G04 #@! TO.C,P5*
X51700833Y-69790833D02*
X51700833Y-70490833D01*
X51867500Y-70490833D01*
X51967500Y-70457500D01*
X52034166Y-70390833D01*
X52067500Y-70324166D01*
X52100833Y-70190833D01*
X52100833Y-70090833D01*
X52067500Y-69957500D01*
X52034166Y-69890833D01*
X51967500Y-69824166D01*
X51867500Y-69790833D01*
X51700833Y-69790833D01*
X52800833Y-69857500D02*
X52767500Y-69824166D01*
X52667500Y-69790833D01*
X52600833Y-69790833D01*
X52500833Y-69824166D01*
X52434166Y-69890833D01*
X52400833Y-69957500D01*
X52367500Y-70090833D01*
X52367500Y-70190833D01*
X52400833Y-70324166D01*
X52434166Y-70390833D01*
X52500833Y-70457500D01*
X52600833Y-70490833D01*
X52667500Y-70490833D01*
X52767500Y-70457500D01*
X52800833Y-70424166D01*
X53434166Y-69790833D02*
X53100833Y-69790833D01*
X53100833Y-70490833D01*
X53667500Y-69790833D02*
X53667500Y-70490833D01*
X54067500Y-69790833D02*
X53767500Y-70190833D01*
X54067500Y-70490833D02*
X53667500Y-70090833D01*
G04 #@! TO.C,P4*
X49525833Y-69790833D02*
X49525833Y-70490833D01*
X49692500Y-70490833D01*
X49792500Y-70457500D01*
X49859166Y-70390833D01*
X49892500Y-70324166D01*
X49925833Y-70190833D01*
X49925833Y-70090833D01*
X49892500Y-69957500D01*
X49859166Y-69890833D01*
X49792500Y-69824166D01*
X49692500Y-69790833D01*
X49525833Y-69790833D01*
X50225833Y-69790833D02*
X50225833Y-70490833D01*
X50692500Y-70490833D02*
X50825833Y-70490833D01*
X50892500Y-70457500D01*
X50959166Y-70390833D01*
X50992500Y-70257500D01*
X50992500Y-70024166D01*
X50959166Y-69890833D01*
X50892500Y-69824166D01*
X50825833Y-69790833D01*
X50692500Y-69790833D01*
X50625833Y-69824166D01*
X50559166Y-69890833D01*
X50525833Y-70024166D01*
X50525833Y-70257500D01*
X50559166Y-70390833D01*
X50625833Y-70457500D01*
X50692500Y-70490833D01*
G04 #@! TO.C,SPI1-CS1*
X71775833Y-67430119D02*
X71847261Y-67406309D01*
X71966309Y-67406309D01*
X72013928Y-67430119D01*
X72037738Y-67453928D01*
X72061547Y-67501547D01*
X72061547Y-67549166D01*
X72037738Y-67596785D01*
X72013928Y-67620595D01*
X71966309Y-67644404D01*
X71871071Y-67668214D01*
X71823452Y-67692023D01*
X71799642Y-67715833D01*
X71775833Y-67763452D01*
X71775833Y-67811071D01*
X71799642Y-67858690D01*
X71823452Y-67882500D01*
X71871071Y-67906309D01*
X71990119Y-67906309D01*
X72061547Y-67882500D01*
X72204404Y-67906309D02*
X72490119Y-67906309D01*
X72347261Y-67406309D02*
X72347261Y-67906309D01*
X72656785Y-67406309D02*
X72656785Y-67906309D01*
X72823452Y-67549166D01*
X72990119Y-67906309D01*
X72990119Y-67406309D01*
X73180595Y-67906309D02*
X73490119Y-67906309D01*
X73323452Y-67715833D01*
X73394880Y-67715833D01*
X73442500Y-67692023D01*
X73466309Y-67668214D01*
X73490119Y-67620595D01*
X73490119Y-67501547D01*
X73466309Y-67453928D01*
X73442500Y-67430119D01*
X73394880Y-67406309D01*
X73252023Y-67406309D01*
X73204404Y-67430119D01*
X73180595Y-67453928D01*
X73680595Y-67858690D02*
X73704404Y-67882500D01*
X73752023Y-67906309D01*
X73871071Y-67906309D01*
X73918690Y-67882500D01*
X73942500Y-67858690D01*
X73966309Y-67811071D01*
X73966309Y-67763452D01*
X73942500Y-67692023D01*
X73656785Y-67406309D01*
X73966309Y-67406309D01*
X74347261Y-67668214D02*
X74180595Y-67668214D01*
X74180595Y-67406309D02*
X74180595Y-67906309D01*
X74418690Y-67906309D01*
X74871071Y-67406309D02*
X74585357Y-67406309D01*
X74728214Y-67406309D02*
X74728214Y-67906309D01*
X74680595Y-67834880D01*
X74632976Y-67787261D01*
X74585357Y-67763452D01*
X75180595Y-67906309D02*
X75228214Y-67906309D01*
X75275833Y-67882500D01*
X75299642Y-67858690D01*
X75323452Y-67811071D01*
X75347261Y-67715833D01*
X75347261Y-67596785D01*
X75323452Y-67501547D01*
X75299642Y-67453928D01*
X75275833Y-67430119D01*
X75228214Y-67406309D01*
X75180595Y-67406309D01*
X75132976Y-67430119D01*
X75109166Y-67453928D01*
X75085357Y-67501547D01*
X75061547Y-67596785D01*
X75061547Y-67715833D01*
X75085357Y-67811071D01*
X75109166Y-67858690D01*
X75132976Y-67882500D01*
X75180595Y-67906309D01*
X75513928Y-67906309D02*
X75823452Y-67906309D01*
X75656785Y-67715833D01*
X75728214Y-67715833D01*
X75775833Y-67692023D01*
X75799642Y-67668214D01*
X75823452Y-67620595D01*
X75823452Y-67501547D01*
X75799642Y-67453928D01*
X75775833Y-67430119D01*
X75728214Y-67406309D01*
X75585357Y-67406309D01*
X75537738Y-67430119D01*
X75513928Y-67453928D01*
X76323452Y-67453928D02*
X76299642Y-67430119D01*
X76228214Y-67406309D01*
X76180595Y-67406309D01*
X76109166Y-67430119D01*
X76061547Y-67477738D01*
X76037738Y-67525357D01*
X76013928Y-67620595D01*
X76013928Y-67692023D01*
X76037738Y-67787261D01*
X76061547Y-67834880D01*
X76109166Y-67882500D01*
X76180595Y-67906309D01*
X76228214Y-67906309D01*
X76299642Y-67882500D01*
X76323452Y-67858690D01*
X76704404Y-67668214D02*
X76775833Y-67644404D01*
X76799642Y-67620595D01*
X76823452Y-67572976D01*
X76823452Y-67501547D01*
X76799642Y-67453928D01*
X76775833Y-67430119D01*
X76728214Y-67406309D01*
X76537738Y-67406309D01*
X76537738Y-67906309D01*
X76704404Y-67906309D01*
X76752023Y-67882500D01*
X76775833Y-67858690D01*
X76799642Y-67811071D01*
X76799642Y-67763452D01*
X76775833Y-67715833D01*
X76752023Y-67692023D01*
X76704404Y-67668214D01*
X76537738Y-67668214D01*
X76966309Y-67906309D02*
X77252023Y-67906309D01*
X77109166Y-67406309D02*
X77109166Y-67906309D01*
X77371071Y-67406309D02*
X77632976Y-67739642D01*
X77371071Y-67739642D02*
X77632976Y-67406309D01*
G04 #@! TO.C,U2*
X76954166Y-79878928D02*
X76954166Y-79640833D01*
X76811309Y-79926547D02*
X77311309Y-79759880D01*
X76811309Y-79593214D01*
X76811309Y-79426547D02*
X77311309Y-79426547D01*
X77311309Y-79307500D01*
X77287500Y-79236071D01*
X77239880Y-79188452D01*
X77192261Y-79164642D01*
X77097023Y-79140833D01*
X77025595Y-79140833D01*
X76930357Y-79164642D01*
X76882738Y-79188452D01*
X76835119Y-79236071D01*
X76811309Y-79307500D01*
X76811309Y-79426547D01*
X77311309Y-78974166D02*
X77311309Y-78640833D01*
X76811309Y-78855119D01*
X77311309Y-78497976D02*
X77311309Y-78164642D01*
X76811309Y-78378928D01*
X77311309Y-78021785D02*
X77311309Y-77688452D01*
X76811309Y-77902738D01*
X76811309Y-77474166D02*
X76811309Y-77378928D01*
X76835119Y-77331309D01*
X76858928Y-77307500D01*
X76930357Y-77259880D01*
X77025595Y-77236071D01*
X77216071Y-77236071D01*
X77263690Y-77259880D01*
X77287500Y-77283690D01*
X77311309Y-77331309D01*
X77311309Y-77426547D01*
X77287500Y-77474166D01*
X77263690Y-77497976D01*
X77216071Y-77521785D01*
X77097023Y-77521785D01*
X77049404Y-77497976D01*
X77025595Y-77474166D01*
X77001785Y-77426547D01*
X77001785Y-77331309D01*
X77025595Y-77283690D01*
X77049404Y-77259880D01*
X77097023Y-77236071D01*
G04 #@! TO.C,R14*
X132809166Y-32799166D02*
X132909166Y-32765833D01*
X133075833Y-32765833D01*
X133142500Y-32799166D01*
X133175833Y-32832500D01*
X133209166Y-32899166D01*
X133209166Y-32965833D01*
X133175833Y-33032500D01*
X133142500Y-33065833D01*
X133075833Y-33099166D01*
X132942500Y-33132500D01*
X132875833Y-33165833D01*
X132842500Y-33199166D01*
X132809166Y-33265833D01*
X132809166Y-33332500D01*
X132842500Y-33399166D01*
X132875833Y-33432500D01*
X132942500Y-33465833D01*
X133109166Y-33465833D01*
X133209166Y-33432500D01*
X133475833Y-33399166D02*
X133509166Y-33432500D01*
X133575833Y-33465833D01*
X133742500Y-33465833D01*
X133809166Y-33432500D01*
X133842500Y-33399166D01*
X133875833Y-33332500D01*
X133875833Y-33265833D01*
X133842500Y-33165833D01*
X133442500Y-32765833D01*
X133875833Y-32765833D01*
G04 #@! TO.C,R16*
X128684166Y-32774166D02*
X128784166Y-32740833D01*
X128950833Y-32740833D01*
X129017500Y-32774166D01*
X129050833Y-32807500D01*
X129084166Y-32874166D01*
X129084166Y-32940833D01*
X129050833Y-33007500D01*
X129017500Y-33040833D01*
X128950833Y-33074166D01*
X128817500Y-33107500D01*
X128750833Y-33140833D01*
X128717500Y-33174166D01*
X128684166Y-33240833D01*
X128684166Y-33307500D01*
X128717500Y-33374166D01*
X128750833Y-33407500D01*
X128817500Y-33440833D01*
X128984166Y-33440833D01*
X129084166Y-33407500D01*
X129317500Y-33440833D02*
X129750833Y-33440833D01*
X129517500Y-33174166D01*
X129617500Y-33174166D01*
X129684166Y-33140833D01*
X129717500Y-33107500D01*
X129750833Y-33040833D01*
X129750833Y-32874166D01*
X129717500Y-32807500D01*
X129684166Y-32774166D01*
X129617500Y-32740833D01*
X129417500Y-32740833D01*
X129350833Y-32774166D01*
X129317500Y-32807500D01*
G04 #@! TO.C,C21*
X50443690Y-28717023D02*
X50443690Y-28764642D01*
X50467500Y-28812261D01*
X50491309Y-28836071D01*
X50538928Y-28859880D01*
X50634166Y-28883690D01*
X50753214Y-28883690D01*
X50848452Y-28859880D01*
X50896071Y-28836071D01*
X50919880Y-28812261D01*
X50943690Y-28764642D01*
X50943690Y-28717023D01*
X50919880Y-28669404D01*
X50896071Y-28645595D01*
X50848452Y-28621785D01*
X50753214Y-28597976D01*
X50634166Y-28597976D01*
X50538928Y-28621785D01*
X50491309Y-28645595D01*
X50467500Y-28669404D01*
X50443690Y-28717023D01*
X50896071Y-29097976D02*
X50919880Y-29121785D01*
X50943690Y-29097976D01*
X50919880Y-29074166D01*
X50896071Y-29097976D01*
X50943690Y-29097976D01*
X50443690Y-29288452D02*
X50443690Y-29597976D01*
X50634166Y-29431309D01*
X50634166Y-29502738D01*
X50657976Y-29550357D01*
X50681785Y-29574166D01*
X50729404Y-29597976D01*
X50848452Y-29597976D01*
X50896071Y-29574166D01*
X50919880Y-29550357D01*
X50943690Y-29502738D01*
X50943690Y-29359880D01*
X50919880Y-29312261D01*
X50896071Y-29288452D01*
X50443690Y-29764642D02*
X50443690Y-30074166D01*
X50634166Y-29907500D01*
X50634166Y-29978928D01*
X50657976Y-30026547D01*
X50681785Y-30050357D01*
X50729404Y-30074166D01*
X50848452Y-30074166D01*
X50896071Y-30050357D01*
X50919880Y-30026547D01*
X50943690Y-29978928D01*
X50943690Y-29836071D01*
X50919880Y-29788452D01*
X50896071Y-29764642D01*
X50681785Y-30455119D02*
X50681785Y-30288452D01*
X50943690Y-30288452D02*
X50443690Y-30288452D01*
X50443690Y-30526547D01*
X50943690Y-31097976D02*
X50610357Y-31097976D01*
X50443690Y-31097976D02*
X50467500Y-31074166D01*
X50491309Y-31097976D01*
X50467500Y-31121785D01*
X50443690Y-31097976D01*
X50491309Y-31097976D01*
X50943690Y-31407500D02*
X50919880Y-31359880D01*
X50896071Y-31336071D01*
X50848452Y-31312261D01*
X50705595Y-31312261D01*
X50657976Y-31336071D01*
X50634166Y-31359880D01*
X50610357Y-31407500D01*
X50610357Y-31478928D01*
X50634166Y-31526547D01*
X50657976Y-31550357D01*
X50705595Y-31574166D01*
X50848452Y-31574166D01*
X50896071Y-31550357D01*
X50919880Y-31526547D01*
X50943690Y-31478928D01*
X50943690Y-31407500D01*
X50610357Y-31788452D02*
X50943690Y-31788452D01*
X50657976Y-31788452D02*
X50634166Y-31812261D01*
X50610357Y-31859880D01*
X50610357Y-31931309D01*
X50634166Y-31978928D01*
X50681785Y-32002738D01*
X50943690Y-32002738D01*
X50943690Y-32240833D02*
X50610357Y-32240833D01*
X50443690Y-32240833D02*
X50467500Y-32217023D01*
X50491309Y-32240833D01*
X50467500Y-32264642D01*
X50443690Y-32240833D01*
X50491309Y-32240833D01*
X50919880Y-32455119D02*
X50943690Y-32502738D01*
X50943690Y-32597976D01*
X50919880Y-32645595D01*
X50872261Y-32669404D01*
X50848452Y-32669404D01*
X50800833Y-32645595D01*
X50777023Y-32597976D01*
X50777023Y-32526547D01*
X50753214Y-32478928D01*
X50705595Y-32455119D01*
X50681785Y-32455119D01*
X50634166Y-32478928D01*
X50610357Y-32526547D01*
X50610357Y-32597976D01*
X50634166Y-32645595D01*
X50610357Y-32812261D02*
X50610357Y-33002738D01*
X50443690Y-32883690D02*
X50872261Y-32883690D01*
X50919880Y-32907500D01*
X50943690Y-32955119D01*
X50943690Y-33002738D01*
X50943690Y-33240833D02*
X50919880Y-33193214D01*
X50896071Y-33169404D01*
X50848452Y-33145595D01*
X50705595Y-33145595D01*
X50657976Y-33169404D01*
X50634166Y-33193214D01*
X50610357Y-33240833D01*
X50610357Y-33312261D01*
X50634166Y-33359880D01*
X50657976Y-33383690D01*
X50705595Y-33407500D01*
X50848452Y-33407500D01*
X50896071Y-33383690D01*
X50919880Y-33359880D01*
X50943690Y-33312261D01*
X50943690Y-33240833D01*
X50943690Y-33621785D02*
X50610357Y-33621785D01*
X50705595Y-33621785D02*
X50657976Y-33645595D01*
X50634166Y-33669404D01*
X50610357Y-33717023D01*
X50610357Y-33764642D01*
G04 #@! TO.C,IC2*
D15*
X52860357Y-29136071D02*
X52903214Y-29121785D01*
X52974642Y-29121785D01*
X53003214Y-29136071D01*
X53017500Y-29150357D01*
X53031785Y-29178928D01*
X53031785Y-29207500D01*
X53017500Y-29236071D01*
X53003214Y-29250357D01*
X52974642Y-29264642D01*
X52917500Y-29278928D01*
X52888928Y-29293214D01*
X52874642Y-29307500D01*
X52860357Y-29336071D01*
X52860357Y-29364642D01*
X52874642Y-29393214D01*
X52888928Y-29407500D01*
X52917500Y-29421785D01*
X52988928Y-29421785D01*
X53031785Y-29407500D01*
X53160357Y-29121785D02*
X53160357Y-29421785D01*
X53331785Y-29121785D01*
X53331785Y-29421785D01*
X53446071Y-29421785D02*
X53646071Y-29421785D01*
X53517500Y-29121785D01*
X53888928Y-29321785D02*
X53888928Y-29121785D01*
X53817500Y-29436071D02*
X53746071Y-29221785D01*
X53931785Y-29221785D01*
X54188928Y-29121785D02*
X54046071Y-29121785D01*
X54046071Y-29421785D01*
X54246071Y-29421785D02*
X54346071Y-29121785D01*
X54446071Y-29421785D01*
X54717500Y-29150357D02*
X54703214Y-29136071D01*
X54660357Y-29121785D01*
X54631785Y-29121785D01*
X54588928Y-29136071D01*
X54560357Y-29164642D01*
X54546071Y-29193214D01*
X54531785Y-29250357D01*
X54531785Y-29293214D01*
X54546071Y-29350357D01*
X54560357Y-29378928D01*
X54588928Y-29407500D01*
X54631785Y-29421785D01*
X54660357Y-29421785D01*
X54703214Y-29407500D01*
X54717500Y-29393214D01*
X54831785Y-29393214D02*
X54846071Y-29407500D01*
X54874642Y-29421785D01*
X54946071Y-29421785D01*
X54974642Y-29407500D01*
X54988928Y-29393214D01*
X55003214Y-29364642D01*
X55003214Y-29336071D01*
X54988928Y-29293214D01*
X54817500Y-29121785D01*
X55003214Y-29121785D01*
X55288928Y-29407500D02*
X55260357Y-29421785D01*
X55217500Y-29421785D01*
X55174642Y-29407500D01*
X55146071Y-29378928D01*
X55131785Y-29350357D01*
X55117500Y-29293214D01*
X55117500Y-29250357D01*
X55131785Y-29193214D01*
X55146071Y-29164642D01*
X55174642Y-29136071D01*
X55217500Y-29121785D01*
X55246071Y-29121785D01*
X55288928Y-29136071D01*
X55303214Y-29150357D01*
X55303214Y-29250357D01*
X55246071Y-29250357D01*
X55488928Y-29421785D02*
X55517500Y-29421785D01*
X55546071Y-29407500D01*
X55560357Y-29393214D01*
X55574642Y-29364642D01*
X55588928Y-29307500D01*
X55588928Y-29236071D01*
X55574642Y-29178928D01*
X55560357Y-29150357D01*
X55546071Y-29136071D01*
X55517500Y-29121785D01*
X55488928Y-29121785D01*
X55460357Y-29136071D01*
X55446071Y-29150357D01*
X55431785Y-29178928D01*
X55417500Y-29236071D01*
X55417500Y-29307500D01*
X55431785Y-29364642D01*
X55446071Y-29393214D01*
X55460357Y-29407500D01*
X55488928Y-29421785D01*
X55703214Y-29393214D02*
X55717500Y-29407500D01*
X55746071Y-29421785D01*
X55817500Y-29421785D01*
X55846071Y-29407500D01*
X55860357Y-29393214D01*
X55874642Y-29364642D01*
X55874642Y-29336071D01*
X55860357Y-29293214D01*
X55688928Y-29121785D01*
X55874642Y-29121785D01*
G04 #@! TO.C,C20*
D11*
X68689047Y-38078809D02*
X68736666Y-38078809D01*
X68784285Y-38055000D01*
X68808095Y-38031190D01*
X68831904Y-37983571D01*
X68855714Y-37888333D01*
X68855714Y-37769285D01*
X68831904Y-37674047D01*
X68808095Y-37626428D01*
X68784285Y-37602619D01*
X68736666Y-37578809D01*
X68689047Y-37578809D01*
X68641428Y-37602619D01*
X68617619Y-37626428D01*
X68593809Y-37674047D01*
X68570000Y-37769285D01*
X68570000Y-37888333D01*
X68593809Y-37983571D01*
X68617619Y-38031190D01*
X68641428Y-38055000D01*
X68689047Y-38078809D01*
X69070000Y-37626428D02*
X69093809Y-37602619D01*
X69070000Y-37578809D01*
X69046190Y-37602619D01*
X69070000Y-37626428D01*
X69070000Y-37578809D01*
X69570000Y-37578809D02*
X69284285Y-37578809D01*
X69427142Y-37578809D02*
X69427142Y-38078809D01*
X69379523Y-38007380D01*
X69331904Y-37959761D01*
X69284285Y-37935952D01*
X69784285Y-37578809D02*
X69784285Y-37912142D01*
X69784285Y-37864523D02*
X69808095Y-37888333D01*
X69855714Y-37912142D01*
X69927142Y-37912142D01*
X69974761Y-37888333D01*
X69998571Y-37840714D01*
X69998571Y-37578809D01*
X69998571Y-37840714D02*
X70022380Y-37888333D01*
X70070000Y-37912142D01*
X70141428Y-37912142D01*
X70189047Y-37888333D01*
X70212857Y-37840714D01*
X70212857Y-37578809D01*
X70450952Y-37578809D02*
X70450952Y-38078809D01*
X70498571Y-37769285D02*
X70641428Y-37578809D01*
X70641428Y-37912142D02*
X70450952Y-37721666D01*
X71022380Y-37840714D02*
X70855714Y-37840714D01*
X70855714Y-37578809D02*
X70855714Y-38078809D01*
X71093809Y-38078809D01*
G04 #@! TO.C,C19*
X71283809Y-28045952D02*
X71283809Y-27998333D01*
X71260000Y-27950714D01*
X71236190Y-27926904D01*
X71188571Y-27903095D01*
X71093333Y-27879285D01*
X70974285Y-27879285D01*
X70879047Y-27903095D01*
X70831428Y-27926904D01*
X70807619Y-27950714D01*
X70783809Y-27998333D01*
X70783809Y-28045952D01*
X70807619Y-28093571D01*
X70831428Y-28117380D01*
X70879047Y-28141190D01*
X70974285Y-28165000D01*
X71093333Y-28165000D01*
X71188571Y-28141190D01*
X71236190Y-28117380D01*
X71260000Y-28093571D01*
X71283809Y-28045952D01*
X70831428Y-27665000D02*
X70807619Y-27641190D01*
X70783809Y-27665000D01*
X70807619Y-27688809D01*
X70831428Y-27665000D01*
X70783809Y-27665000D01*
X70783809Y-27165000D02*
X70783809Y-27450714D01*
X70783809Y-27307857D02*
X71283809Y-27307857D01*
X71212380Y-27355476D01*
X71164761Y-27403095D01*
X71140952Y-27450714D01*
X70783809Y-26950714D02*
X71117142Y-26950714D01*
X71069523Y-26950714D02*
X71093333Y-26926904D01*
X71117142Y-26879285D01*
X71117142Y-26807857D01*
X71093333Y-26760238D01*
X71045714Y-26736428D01*
X70783809Y-26736428D01*
X71045714Y-26736428D02*
X71093333Y-26712619D01*
X71117142Y-26665000D01*
X71117142Y-26593571D01*
X71093333Y-26545952D01*
X71045714Y-26522142D01*
X70783809Y-26522142D01*
X70783809Y-26284047D02*
X71283809Y-26284047D01*
X70974285Y-26236428D02*
X70783809Y-26093571D01*
X71117142Y-26093571D02*
X70926666Y-26284047D01*
X71045714Y-25712619D02*
X71045714Y-25879285D01*
X70783809Y-25879285D02*
X71283809Y-25879285D01*
X71283809Y-25641190D01*
G04 #@! TO.C,C16*
X78636547Y-28331309D02*
X78684166Y-28331309D01*
X78731785Y-28307500D01*
X78755595Y-28283690D01*
X78779404Y-28236071D01*
X78803214Y-28140833D01*
X78803214Y-28021785D01*
X78779404Y-27926547D01*
X78755595Y-27878928D01*
X78731785Y-27855119D01*
X78684166Y-27831309D01*
X78636547Y-27831309D01*
X78588928Y-27855119D01*
X78565119Y-27878928D01*
X78541309Y-27926547D01*
X78517500Y-28021785D01*
X78517500Y-28140833D01*
X78541309Y-28236071D01*
X78565119Y-28283690D01*
X78588928Y-28307500D01*
X78636547Y-28331309D01*
X79017500Y-27878928D02*
X79041309Y-27855119D01*
X79017500Y-27831309D01*
X78993690Y-27855119D01*
X79017500Y-27878928D01*
X79017500Y-27831309D01*
X79517500Y-27831309D02*
X79231785Y-27831309D01*
X79374642Y-27831309D02*
X79374642Y-28331309D01*
X79327023Y-28259880D01*
X79279404Y-28212261D01*
X79231785Y-28188452D01*
X79731785Y-27831309D02*
X79731785Y-28164642D01*
X79731785Y-28117023D02*
X79755595Y-28140833D01*
X79803214Y-28164642D01*
X79874642Y-28164642D01*
X79922261Y-28140833D01*
X79946071Y-28093214D01*
X79946071Y-27831309D01*
X79946071Y-28093214D02*
X79969880Y-28140833D01*
X80017500Y-28164642D01*
X80088928Y-28164642D01*
X80136547Y-28140833D01*
X80160357Y-28093214D01*
X80160357Y-27831309D01*
X80398452Y-27831309D02*
X80398452Y-28331309D01*
X80446071Y-28021785D02*
X80588928Y-27831309D01*
X80588928Y-28164642D02*
X80398452Y-27974166D01*
X80969880Y-28093214D02*
X80803214Y-28093214D01*
X80803214Y-27831309D02*
X80803214Y-28331309D01*
X81041309Y-28331309D01*
G04 #@! TO.C,R7*
X59200833Y-37083690D02*
X59486547Y-37083690D01*
X59343690Y-37083690D02*
X59343690Y-36583690D01*
X59391309Y-36655119D01*
X59438928Y-36702738D01*
X59486547Y-36726547D01*
X58891309Y-36583690D02*
X58843690Y-36583690D01*
X58796071Y-36607500D01*
X58772261Y-36631309D01*
X58748452Y-36678928D01*
X58724642Y-36774166D01*
X58724642Y-36893214D01*
X58748452Y-36988452D01*
X58772261Y-37036071D01*
X58796071Y-37059880D01*
X58843690Y-37083690D01*
X58891309Y-37083690D01*
X58938928Y-37059880D01*
X58962738Y-37036071D01*
X58986547Y-36988452D01*
X59010357Y-36893214D01*
X59010357Y-36774166D01*
X58986547Y-36678928D01*
X58962738Y-36631309D01*
X58938928Y-36607500D01*
X58891309Y-36583690D01*
X58415119Y-36583690D02*
X58367500Y-36583690D01*
X58319880Y-36607500D01*
X58296071Y-36631309D01*
X58272261Y-36678928D01*
X58248452Y-36774166D01*
X58248452Y-36893214D01*
X58272261Y-36988452D01*
X58296071Y-37036071D01*
X58319880Y-37059880D01*
X58367500Y-37083690D01*
X58415119Y-37083690D01*
X58462738Y-37059880D01*
X58486547Y-37036071D01*
X58510357Y-36988452D01*
X58534166Y-36893214D01*
X58534166Y-36774166D01*
X58510357Y-36678928D01*
X58486547Y-36631309D01*
X58462738Y-36607500D01*
X58415119Y-36583690D01*
X57748452Y-37083690D02*
X57915119Y-36845595D01*
X58034166Y-37083690D02*
X58034166Y-36583690D01*
X57843690Y-36583690D01*
X57796071Y-36607500D01*
X57772261Y-36631309D01*
X57748452Y-36678928D01*
X57748452Y-36750357D01*
X57772261Y-36797976D01*
X57796071Y-36821785D01*
X57843690Y-36845595D01*
X58034166Y-36845595D01*
G04 #@! TO.C,R6*
X55424642Y-34531309D02*
X55734166Y-34531309D01*
X55567500Y-34340833D01*
X55638928Y-34340833D01*
X55686547Y-34317023D01*
X55710357Y-34293214D01*
X55734166Y-34245595D01*
X55734166Y-34126547D01*
X55710357Y-34078928D01*
X55686547Y-34055119D01*
X55638928Y-34031309D01*
X55496071Y-34031309D01*
X55448452Y-34055119D01*
X55424642Y-34078928D01*
X56043690Y-34531309D02*
X56091309Y-34531309D01*
X56138928Y-34507500D01*
X56162738Y-34483690D01*
X56186547Y-34436071D01*
X56210357Y-34340833D01*
X56210357Y-34221785D01*
X56186547Y-34126547D01*
X56162738Y-34078928D01*
X56138928Y-34055119D01*
X56091309Y-34031309D01*
X56043690Y-34031309D01*
X55996071Y-34055119D01*
X55972261Y-34078928D01*
X55948452Y-34126547D01*
X55924642Y-34221785D01*
X55924642Y-34340833D01*
X55948452Y-34436071D01*
X55972261Y-34483690D01*
X55996071Y-34507500D01*
X56043690Y-34531309D01*
X56519880Y-34531309D02*
X56567500Y-34531309D01*
X56615119Y-34507500D01*
X56638928Y-34483690D01*
X56662738Y-34436071D01*
X56686547Y-34340833D01*
X56686547Y-34221785D01*
X56662738Y-34126547D01*
X56638928Y-34078928D01*
X56615119Y-34055119D01*
X56567500Y-34031309D01*
X56519880Y-34031309D01*
X56472261Y-34055119D01*
X56448452Y-34078928D01*
X56424642Y-34126547D01*
X56400833Y-34221785D01*
X56400833Y-34340833D01*
X56424642Y-34436071D01*
X56448452Y-34483690D01*
X56472261Y-34507500D01*
X56519880Y-34531309D01*
X57186547Y-34031309D02*
X57019880Y-34269404D01*
X56900833Y-34031309D02*
X56900833Y-34531309D01*
X57091309Y-34531309D01*
X57138928Y-34507500D01*
X57162738Y-34483690D01*
X57186547Y-34436071D01*
X57186547Y-34364642D01*
X57162738Y-34317023D01*
X57138928Y-34293214D01*
X57091309Y-34269404D01*
X56900833Y-34269404D01*
G04 #@! TO.C,R5*
X61386547Y-36383690D02*
X61410357Y-36407500D01*
X61457976Y-36431309D01*
X61577023Y-36431309D01*
X61624642Y-36407500D01*
X61648452Y-36383690D01*
X61672261Y-36336071D01*
X61672261Y-36288452D01*
X61648452Y-36217023D01*
X61362738Y-35931309D01*
X61672261Y-35931309D01*
X61862738Y-36383690D02*
X61886547Y-36407500D01*
X61934166Y-36431309D01*
X62053214Y-36431309D01*
X62100833Y-36407500D01*
X62124642Y-36383690D01*
X62148452Y-36336071D01*
X62148452Y-36288452D01*
X62124642Y-36217023D01*
X61838928Y-35931309D01*
X62148452Y-35931309D01*
X62648452Y-35931309D02*
X62481785Y-36169404D01*
X62362738Y-35931309D02*
X62362738Y-36431309D01*
X62553214Y-36431309D01*
X62600833Y-36407500D01*
X62624642Y-36383690D01*
X62648452Y-36336071D01*
X62648452Y-36264642D01*
X62624642Y-36217023D01*
X62600833Y-36193214D01*
X62553214Y-36169404D01*
X62362738Y-36169404D01*
G04 #@! TO.C,R4*
X66486547Y-32783690D02*
X66510357Y-32807500D01*
X66557976Y-32831309D01*
X66677023Y-32831309D01*
X66724642Y-32807500D01*
X66748452Y-32783690D01*
X66772261Y-32736071D01*
X66772261Y-32688452D01*
X66748452Y-32617023D01*
X66462738Y-32331309D01*
X66772261Y-32331309D01*
X66962738Y-32783690D02*
X66986547Y-32807500D01*
X67034166Y-32831309D01*
X67153214Y-32831309D01*
X67200833Y-32807500D01*
X67224642Y-32783690D01*
X67248452Y-32736071D01*
X67248452Y-32688452D01*
X67224642Y-32617023D01*
X66938928Y-32331309D01*
X67248452Y-32331309D01*
X67748452Y-32331309D02*
X67581785Y-32569404D01*
X67462738Y-32331309D02*
X67462738Y-32831309D01*
X67653214Y-32831309D01*
X67700833Y-32807500D01*
X67724642Y-32783690D01*
X67748452Y-32736071D01*
X67748452Y-32664642D01*
X67724642Y-32617023D01*
X67700833Y-32593214D01*
X67653214Y-32569404D01*
X67462738Y-32569404D01*
G04 #@! TO.C,R3*
X66672261Y-34331309D02*
X66386547Y-34331309D01*
X66529404Y-34331309D02*
X66529404Y-34831309D01*
X66481785Y-34759880D01*
X66434166Y-34712261D01*
X66386547Y-34688452D01*
X66886547Y-34331309D02*
X66886547Y-34831309D01*
X67172261Y-34331309D02*
X66957976Y-34617023D01*
X67172261Y-34831309D02*
X66886547Y-34545595D01*
X67624642Y-34831309D02*
X67386547Y-34831309D01*
X67362738Y-34593214D01*
X67386547Y-34617023D01*
X67434166Y-34640833D01*
X67553214Y-34640833D01*
X67600833Y-34617023D01*
X67624642Y-34593214D01*
X67648452Y-34545595D01*
X67648452Y-34426547D01*
X67624642Y-34378928D01*
X67600833Y-34355119D01*
X67553214Y-34331309D01*
X67434166Y-34331309D01*
X67386547Y-34355119D01*
X67362738Y-34378928D01*
G04 #@! TO.C,R2*
X64134166Y-37731309D02*
X63848452Y-37731309D01*
X63991309Y-37731309D02*
X63991309Y-38231309D01*
X63943690Y-38159880D01*
X63896071Y-38112261D01*
X63848452Y-38088452D01*
X64443690Y-38231309D02*
X64491309Y-38231309D01*
X64538928Y-38207500D01*
X64562738Y-38183690D01*
X64586547Y-38136071D01*
X64610357Y-38040833D01*
X64610357Y-37921785D01*
X64586547Y-37826547D01*
X64562738Y-37778928D01*
X64538928Y-37755119D01*
X64491309Y-37731309D01*
X64443690Y-37731309D01*
X64396071Y-37755119D01*
X64372261Y-37778928D01*
X64348452Y-37826547D01*
X64324642Y-37921785D01*
X64324642Y-38040833D01*
X64348452Y-38136071D01*
X64372261Y-38183690D01*
X64396071Y-38207500D01*
X64443690Y-38231309D01*
X64919880Y-38231309D02*
X64967500Y-38231309D01*
X65015119Y-38207500D01*
X65038928Y-38183690D01*
X65062738Y-38136071D01*
X65086547Y-38040833D01*
X65086547Y-37921785D01*
X65062738Y-37826547D01*
X65038928Y-37778928D01*
X65015119Y-37755119D01*
X64967500Y-37731309D01*
X64919880Y-37731309D01*
X64872261Y-37755119D01*
X64848452Y-37778928D01*
X64824642Y-37826547D01*
X64800833Y-37921785D01*
X64800833Y-38040833D01*
X64824642Y-38136071D01*
X64848452Y-38183690D01*
X64872261Y-38207500D01*
X64919880Y-38231309D01*
X65300833Y-37731309D02*
X65300833Y-38231309D01*
X65586547Y-37731309D02*
X65372261Y-38017023D01*
X65586547Y-38231309D02*
X65300833Y-37945595D01*
G04 #@! TO.C,R1*
X67034166Y-30731309D02*
X66748452Y-30731309D01*
X66891309Y-30731309D02*
X66891309Y-31231309D01*
X66843690Y-31159880D01*
X66796071Y-31112261D01*
X66748452Y-31088452D01*
X67343690Y-31231309D02*
X67391309Y-31231309D01*
X67438928Y-31207500D01*
X67462738Y-31183690D01*
X67486547Y-31136071D01*
X67510357Y-31040833D01*
X67510357Y-30921785D01*
X67486547Y-30826547D01*
X67462738Y-30778928D01*
X67438928Y-30755119D01*
X67391309Y-30731309D01*
X67343690Y-30731309D01*
X67296071Y-30755119D01*
X67272261Y-30778928D01*
X67248452Y-30826547D01*
X67224642Y-30921785D01*
X67224642Y-31040833D01*
X67248452Y-31136071D01*
X67272261Y-31183690D01*
X67296071Y-31207500D01*
X67343690Y-31231309D01*
X67819880Y-31231309D02*
X67867500Y-31231309D01*
X67915119Y-31207500D01*
X67938928Y-31183690D01*
X67962738Y-31136071D01*
X67986547Y-31040833D01*
X67986547Y-30921785D01*
X67962738Y-30826547D01*
X67938928Y-30778928D01*
X67915119Y-30755119D01*
X67867500Y-30731309D01*
X67819880Y-30731309D01*
X67772261Y-30755119D01*
X67748452Y-30778928D01*
X67724642Y-30826547D01*
X67700833Y-30921785D01*
X67700833Y-31040833D01*
X67724642Y-31136071D01*
X67748452Y-31183690D01*
X67772261Y-31207500D01*
X67819880Y-31231309D01*
X68200833Y-30731309D02*
X68200833Y-31231309D01*
X68486547Y-30731309D02*
X68272261Y-31017023D01*
X68486547Y-31231309D02*
X68200833Y-30945595D01*
G04 #@! TO.C,C17*
X86353809Y-37162142D02*
X86353809Y-37447857D01*
X86353809Y-37305000D02*
X86853809Y-37305000D01*
X86782380Y-37352619D01*
X86734761Y-37400238D01*
X86710952Y-37447857D01*
X86353809Y-36947857D02*
X86687142Y-36947857D01*
X86639523Y-36947857D02*
X86663333Y-36924047D01*
X86687142Y-36876428D01*
X86687142Y-36805000D01*
X86663333Y-36757380D01*
X86615714Y-36733571D01*
X86353809Y-36733571D01*
X86615714Y-36733571D02*
X86663333Y-36709761D01*
X86687142Y-36662142D01*
X86687142Y-36590714D01*
X86663333Y-36543095D01*
X86615714Y-36519285D01*
X86353809Y-36519285D01*
X86353809Y-36281190D02*
X86853809Y-36281190D01*
X86544285Y-36233571D02*
X86353809Y-36090714D01*
X86687142Y-36090714D02*
X86496666Y-36281190D01*
X86615714Y-35709761D02*
X86615714Y-35876428D01*
X86353809Y-35876428D02*
X86853809Y-35876428D01*
X86853809Y-35638333D01*
G04 #@! TO.C,C15*
X82206190Y-36047857D02*
X82206190Y-35762142D01*
X82206190Y-35905000D02*
X81706190Y-35905000D01*
X81777619Y-35857380D01*
X81825238Y-35809761D01*
X81849047Y-35762142D01*
X82206190Y-36262142D02*
X81872857Y-36262142D01*
X81920476Y-36262142D02*
X81896666Y-36285952D01*
X81872857Y-36333571D01*
X81872857Y-36405000D01*
X81896666Y-36452619D01*
X81944285Y-36476428D01*
X82206190Y-36476428D01*
X81944285Y-36476428D02*
X81896666Y-36500238D01*
X81872857Y-36547857D01*
X81872857Y-36619285D01*
X81896666Y-36666904D01*
X81944285Y-36690714D01*
X82206190Y-36690714D01*
X82206190Y-36928809D02*
X81706190Y-36928809D01*
X82015714Y-36976428D02*
X82206190Y-37119285D01*
X81872857Y-37119285D02*
X82063333Y-36928809D01*
X81944285Y-37500238D02*
X81944285Y-37333571D01*
X82206190Y-37333571D02*
X81706190Y-37333571D01*
X81706190Y-37571666D01*
G04 #@! TO.C,C7*
X78649047Y-38028809D02*
X78696666Y-38028809D01*
X78744285Y-38005000D01*
X78768095Y-37981190D01*
X78791904Y-37933571D01*
X78815714Y-37838333D01*
X78815714Y-37719285D01*
X78791904Y-37624047D01*
X78768095Y-37576428D01*
X78744285Y-37552619D01*
X78696666Y-37528809D01*
X78649047Y-37528809D01*
X78601428Y-37552619D01*
X78577619Y-37576428D01*
X78553809Y-37624047D01*
X78530000Y-37719285D01*
X78530000Y-37838333D01*
X78553809Y-37933571D01*
X78577619Y-37981190D01*
X78601428Y-38005000D01*
X78649047Y-38028809D01*
X79030000Y-37576428D02*
X79053809Y-37552619D01*
X79030000Y-37528809D01*
X79006190Y-37552619D01*
X79030000Y-37576428D01*
X79030000Y-37528809D01*
X79530000Y-37528809D02*
X79244285Y-37528809D01*
X79387142Y-37528809D02*
X79387142Y-38028809D01*
X79339523Y-37957380D01*
X79291904Y-37909761D01*
X79244285Y-37885952D01*
X79744285Y-37528809D02*
X79744285Y-37862142D01*
X79744285Y-37814523D02*
X79768095Y-37838333D01*
X79815714Y-37862142D01*
X79887142Y-37862142D01*
X79934761Y-37838333D01*
X79958571Y-37790714D01*
X79958571Y-37528809D01*
X79958571Y-37790714D02*
X79982380Y-37838333D01*
X80030000Y-37862142D01*
X80101428Y-37862142D01*
X80149047Y-37838333D01*
X80172857Y-37790714D01*
X80172857Y-37528809D01*
X80410952Y-37528809D02*
X80410952Y-38028809D01*
X80458571Y-37719285D02*
X80601428Y-37528809D01*
X80601428Y-37862142D02*
X80410952Y-37671666D01*
X80982380Y-37790714D02*
X80815714Y-37790714D01*
X80815714Y-37528809D02*
X80815714Y-38028809D01*
X81053809Y-38028809D01*
G04 #@! TO.C,C4*
X67121785Y-25861309D02*
X66836071Y-25861309D01*
X66978928Y-25861309D02*
X66978928Y-26361309D01*
X66931309Y-26289880D01*
X66883690Y-26242261D01*
X66836071Y-26218452D01*
X67407500Y-26147023D02*
X67359880Y-26170833D01*
X67336071Y-26194642D01*
X67312261Y-26242261D01*
X67312261Y-26266071D01*
X67336071Y-26313690D01*
X67359880Y-26337500D01*
X67407500Y-26361309D01*
X67502738Y-26361309D01*
X67550357Y-26337500D01*
X67574166Y-26313690D01*
X67597976Y-26266071D01*
X67597976Y-26242261D01*
X67574166Y-26194642D01*
X67550357Y-26170833D01*
X67502738Y-26147023D01*
X67407500Y-26147023D01*
X67359880Y-26123214D01*
X67336071Y-26099404D01*
X67312261Y-26051785D01*
X67312261Y-25956547D01*
X67336071Y-25908928D01*
X67359880Y-25885119D01*
X67407500Y-25861309D01*
X67502738Y-25861309D01*
X67550357Y-25885119D01*
X67574166Y-25908928D01*
X67597976Y-25956547D01*
X67597976Y-26051785D01*
X67574166Y-26099404D01*
X67550357Y-26123214D01*
X67502738Y-26147023D01*
X67812261Y-26194642D02*
X67812261Y-25694642D01*
X67812261Y-26170833D02*
X67859880Y-26194642D01*
X67955119Y-26194642D01*
X68002738Y-26170833D01*
X68026547Y-26147023D01*
X68050357Y-26099404D01*
X68050357Y-25956547D01*
X68026547Y-25908928D01*
X68002738Y-25885119D01*
X67955119Y-25861309D01*
X67859880Y-25861309D01*
X67812261Y-25885119D01*
X68431309Y-26123214D02*
X68264642Y-26123214D01*
X68264642Y-25861309D02*
X68264642Y-26361309D01*
X68502738Y-26361309D01*
G04 #@! TO.C,C2*
X61731785Y-25871309D02*
X61446071Y-25871309D01*
X61588928Y-25871309D02*
X61588928Y-26371309D01*
X61541309Y-26299880D01*
X61493690Y-26252261D01*
X61446071Y-26228452D01*
X62017500Y-26157023D02*
X61969880Y-26180833D01*
X61946071Y-26204642D01*
X61922261Y-26252261D01*
X61922261Y-26276071D01*
X61946071Y-26323690D01*
X61969880Y-26347500D01*
X62017500Y-26371309D01*
X62112738Y-26371309D01*
X62160357Y-26347500D01*
X62184166Y-26323690D01*
X62207976Y-26276071D01*
X62207976Y-26252261D01*
X62184166Y-26204642D01*
X62160357Y-26180833D01*
X62112738Y-26157023D01*
X62017500Y-26157023D01*
X61969880Y-26133214D01*
X61946071Y-26109404D01*
X61922261Y-26061785D01*
X61922261Y-25966547D01*
X61946071Y-25918928D01*
X61969880Y-25895119D01*
X62017500Y-25871309D01*
X62112738Y-25871309D01*
X62160357Y-25895119D01*
X62184166Y-25918928D01*
X62207976Y-25966547D01*
X62207976Y-26061785D01*
X62184166Y-26109404D01*
X62160357Y-26133214D01*
X62112738Y-26157023D01*
X62422261Y-26204642D02*
X62422261Y-25704642D01*
X62422261Y-26180833D02*
X62469880Y-26204642D01*
X62565119Y-26204642D01*
X62612738Y-26180833D01*
X62636547Y-26157023D01*
X62660357Y-26109404D01*
X62660357Y-25966547D01*
X62636547Y-25918928D01*
X62612738Y-25895119D01*
X62565119Y-25871309D01*
X62469880Y-25871309D01*
X62422261Y-25895119D01*
X63041309Y-26133214D02*
X62874642Y-26133214D01*
X62874642Y-25871309D02*
X62874642Y-26371309D01*
X63112738Y-26371309D01*
G04 #@! TO.C,R13*
D12*
X97227619Y-30116904D02*
X97227619Y-30593095D01*
X96751428Y-30640714D01*
X96799047Y-30593095D01*
X96846666Y-30497857D01*
X96846666Y-30259761D01*
X96799047Y-30164523D01*
X96751428Y-30116904D01*
X96656190Y-30069285D01*
X96418095Y-30069285D01*
X96322857Y-30116904D01*
X96275238Y-30164523D01*
X96227619Y-30259761D01*
X96227619Y-30497857D01*
X96275238Y-30593095D01*
X96322857Y-30640714D01*
X96227619Y-29640714D02*
X97227619Y-29640714D01*
X96227619Y-29069285D02*
X96799047Y-29497857D01*
X97227619Y-29069285D02*
X96656190Y-29640714D01*
G04 #@! TO.C,R11*
X93327619Y-30016904D02*
X93327619Y-30493095D01*
X92851428Y-30540714D01*
X92899047Y-30493095D01*
X92946666Y-30397857D01*
X92946666Y-30159761D01*
X92899047Y-30064523D01*
X92851428Y-30016904D01*
X92756190Y-29969285D01*
X92518095Y-29969285D01*
X92422857Y-30016904D01*
X92375238Y-30064523D01*
X92327619Y-30159761D01*
X92327619Y-30397857D01*
X92375238Y-30493095D01*
X92422857Y-30540714D01*
X92327619Y-29540714D02*
X93327619Y-29540714D01*
X92327619Y-28969285D02*
X92899047Y-29397857D01*
X93327619Y-28969285D02*
X92756190Y-29540714D01*
G04 #@! TO.C,Q1*
D11*
X44724642Y-36156309D02*
X44724642Y-36656309D01*
X45248452Y-36156309D02*
X45081785Y-36394404D01*
X44962738Y-36156309D02*
X44962738Y-36656309D01*
X45153214Y-36656309D01*
X45200833Y-36632500D01*
X45224642Y-36608690D01*
X45248452Y-36561071D01*
X45248452Y-36489642D01*
X45224642Y-36442023D01*
X45200833Y-36418214D01*
X45153214Y-36394404D01*
X44962738Y-36394404D01*
X45700833Y-36156309D02*
X45462738Y-36156309D01*
X45462738Y-36656309D01*
X45867500Y-36156309D02*
X45867500Y-36656309D01*
X46034166Y-36299166D01*
X46200833Y-36656309D01*
X46200833Y-36156309D01*
X46677023Y-36156309D02*
X46438928Y-36156309D01*
X46438928Y-36656309D01*
X47057976Y-36656309D02*
X46962738Y-36656309D01*
X46915119Y-36632500D01*
X46891309Y-36608690D01*
X46843690Y-36537261D01*
X46819880Y-36442023D01*
X46819880Y-36251547D01*
X46843690Y-36203928D01*
X46867500Y-36180119D01*
X46915119Y-36156309D01*
X47010357Y-36156309D01*
X47057976Y-36180119D01*
X47081785Y-36203928D01*
X47105595Y-36251547D01*
X47105595Y-36370595D01*
X47081785Y-36418214D01*
X47057976Y-36442023D01*
X47010357Y-36465833D01*
X46915119Y-36465833D01*
X46867500Y-36442023D01*
X46843690Y-36418214D01*
X46819880Y-36370595D01*
X47534166Y-36489642D02*
X47534166Y-36156309D01*
X47415119Y-36680119D02*
X47296071Y-36322976D01*
X47605595Y-36322976D01*
X47891309Y-36656309D02*
X47938928Y-36656309D01*
X47986547Y-36632500D01*
X48010357Y-36608690D01*
X48034166Y-36561071D01*
X48057976Y-36465833D01*
X48057976Y-36346785D01*
X48034166Y-36251547D01*
X48010357Y-36203928D01*
X47986547Y-36180119D01*
X47938928Y-36156309D01*
X47891309Y-36156309D01*
X47843690Y-36180119D01*
X47819880Y-36203928D01*
X47796071Y-36251547D01*
X47772261Y-36346785D01*
X47772261Y-36465833D01*
X47796071Y-36561071D01*
X47819880Y-36608690D01*
X47843690Y-36632500D01*
X47891309Y-36656309D01*
X48534166Y-36156309D02*
X48248452Y-36156309D01*
X48391309Y-36156309D02*
X48391309Y-36656309D01*
X48343690Y-36584880D01*
X48296071Y-36537261D01*
X48248452Y-36513452D01*
G04 #@! TO.C,P6*
X47334166Y-40457500D02*
X47267500Y-40490833D01*
X47167500Y-40490833D01*
X47067500Y-40457500D01*
X47000833Y-40390833D01*
X46967500Y-40324166D01*
X46934166Y-40190833D01*
X46934166Y-40090833D01*
X46967500Y-39957500D01*
X47000833Y-39890833D01*
X47067500Y-39824166D01*
X47167500Y-39790833D01*
X47234166Y-39790833D01*
X47334166Y-39824166D01*
X47367500Y-39857500D01*
X47367500Y-40090833D01*
X47234166Y-40090833D01*
X47667500Y-39790833D02*
X47667500Y-40490833D01*
X48067500Y-39790833D01*
X48067500Y-40490833D01*
X48400833Y-39790833D02*
X48400833Y-40490833D01*
X48567500Y-40490833D01*
X48667500Y-40457500D01*
X48734166Y-40390833D01*
X48767500Y-40324166D01*
X48800833Y-40190833D01*
X48800833Y-40090833D01*
X48767500Y-39957500D01*
X48734166Y-39890833D01*
X48667500Y-39824166D01*
X48567500Y-39790833D01*
X48400833Y-39790833D01*
G04 #@! TO.C,P5*
X51700833Y-39790833D02*
X51700833Y-40490833D01*
X51867500Y-40490833D01*
X51967500Y-40457500D01*
X52034166Y-40390833D01*
X52067500Y-40324166D01*
X52100833Y-40190833D01*
X52100833Y-40090833D01*
X52067500Y-39957500D01*
X52034166Y-39890833D01*
X51967500Y-39824166D01*
X51867500Y-39790833D01*
X51700833Y-39790833D01*
X52800833Y-39857500D02*
X52767500Y-39824166D01*
X52667500Y-39790833D01*
X52600833Y-39790833D01*
X52500833Y-39824166D01*
X52434166Y-39890833D01*
X52400833Y-39957500D01*
X52367500Y-40090833D01*
X52367500Y-40190833D01*
X52400833Y-40324166D01*
X52434166Y-40390833D01*
X52500833Y-40457500D01*
X52600833Y-40490833D01*
X52667500Y-40490833D01*
X52767500Y-40457500D01*
X52800833Y-40424166D01*
X53434166Y-39790833D02*
X53100833Y-39790833D01*
X53100833Y-40490833D01*
X53667500Y-39790833D02*
X53667500Y-40490833D01*
X54067500Y-39790833D02*
X53767500Y-40190833D01*
X54067500Y-40490833D02*
X53667500Y-40090833D01*
G04 #@! TO.C,P4*
X49525833Y-39790833D02*
X49525833Y-40490833D01*
X49692500Y-40490833D01*
X49792500Y-40457500D01*
X49859166Y-40390833D01*
X49892500Y-40324166D01*
X49925833Y-40190833D01*
X49925833Y-40090833D01*
X49892500Y-39957500D01*
X49859166Y-39890833D01*
X49792500Y-39824166D01*
X49692500Y-39790833D01*
X49525833Y-39790833D01*
X50225833Y-39790833D02*
X50225833Y-40490833D01*
X50692500Y-40490833D02*
X50825833Y-40490833D01*
X50892500Y-40457500D01*
X50959166Y-40390833D01*
X50992500Y-40257500D01*
X50992500Y-40024166D01*
X50959166Y-39890833D01*
X50892500Y-39824166D01*
X50825833Y-39790833D01*
X50692500Y-39790833D01*
X50625833Y-39824166D01*
X50559166Y-39890833D01*
X50525833Y-40024166D01*
X50525833Y-40257500D01*
X50559166Y-40390833D01*
X50625833Y-40457500D01*
X50692500Y-40490833D01*
G04 #@! TO.C,SPI1-CS1*
X71775833Y-37430119D02*
X71847261Y-37406309D01*
X71966309Y-37406309D01*
X72013928Y-37430119D01*
X72037738Y-37453928D01*
X72061547Y-37501547D01*
X72061547Y-37549166D01*
X72037738Y-37596785D01*
X72013928Y-37620595D01*
X71966309Y-37644404D01*
X71871071Y-37668214D01*
X71823452Y-37692023D01*
X71799642Y-37715833D01*
X71775833Y-37763452D01*
X71775833Y-37811071D01*
X71799642Y-37858690D01*
X71823452Y-37882500D01*
X71871071Y-37906309D01*
X71990119Y-37906309D01*
X72061547Y-37882500D01*
X72204404Y-37906309D02*
X72490119Y-37906309D01*
X72347261Y-37406309D02*
X72347261Y-37906309D01*
X72656785Y-37406309D02*
X72656785Y-37906309D01*
X72823452Y-37549166D01*
X72990119Y-37906309D01*
X72990119Y-37406309D01*
X73180595Y-37906309D02*
X73490119Y-37906309D01*
X73323452Y-37715833D01*
X73394880Y-37715833D01*
X73442500Y-37692023D01*
X73466309Y-37668214D01*
X73490119Y-37620595D01*
X73490119Y-37501547D01*
X73466309Y-37453928D01*
X73442500Y-37430119D01*
X73394880Y-37406309D01*
X73252023Y-37406309D01*
X73204404Y-37430119D01*
X73180595Y-37453928D01*
X73680595Y-37858690D02*
X73704404Y-37882500D01*
X73752023Y-37906309D01*
X73871071Y-37906309D01*
X73918690Y-37882500D01*
X73942500Y-37858690D01*
X73966309Y-37811071D01*
X73966309Y-37763452D01*
X73942500Y-37692023D01*
X73656785Y-37406309D01*
X73966309Y-37406309D01*
X74347261Y-37668214D02*
X74180595Y-37668214D01*
X74180595Y-37406309D02*
X74180595Y-37906309D01*
X74418690Y-37906309D01*
X74871071Y-37406309D02*
X74585357Y-37406309D01*
X74728214Y-37406309D02*
X74728214Y-37906309D01*
X74680595Y-37834880D01*
X74632976Y-37787261D01*
X74585357Y-37763452D01*
X75180595Y-37906309D02*
X75228214Y-37906309D01*
X75275833Y-37882500D01*
X75299642Y-37858690D01*
X75323452Y-37811071D01*
X75347261Y-37715833D01*
X75347261Y-37596785D01*
X75323452Y-37501547D01*
X75299642Y-37453928D01*
X75275833Y-37430119D01*
X75228214Y-37406309D01*
X75180595Y-37406309D01*
X75132976Y-37430119D01*
X75109166Y-37453928D01*
X75085357Y-37501547D01*
X75061547Y-37596785D01*
X75061547Y-37715833D01*
X75085357Y-37811071D01*
X75109166Y-37858690D01*
X75132976Y-37882500D01*
X75180595Y-37906309D01*
X75513928Y-37906309D02*
X75823452Y-37906309D01*
X75656785Y-37715833D01*
X75728214Y-37715833D01*
X75775833Y-37692023D01*
X75799642Y-37668214D01*
X75823452Y-37620595D01*
X75823452Y-37501547D01*
X75799642Y-37453928D01*
X75775833Y-37430119D01*
X75728214Y-37406309D01*
X75585357Y-37406309D01*
X75537738Y-37430119D01*
X75513928Y-37453928D01*
X76323452Y-37453928D02*
X76299642Y-37430119D01*
X76228214Y-37406309D01*
X76180595Y-37406309D01*
X76109166Y-37430119D01*
X76061547Y-37477738D01*
X76037738Y-37525357D01*
X76013928Y-37620595D01*
X76013928Y-37692023D01*
X76037738Y-37787261D01*
X76061547Y-37834880D01*
X76109166Y-37882500D01*
X76180595Y-37906309D01*
X76228214Y-37906309D01*
X76299642Y-37882500D01*
X76323452Y-37858690D01*
X76704404Y-37668214D02*
X76775833Y-37644404D01*
X76799642Y-37620595D01*
X76823452Y-37572976D01*
X76823452Y-37501547D01*
X76799642Y-37453928D01*
X76775833Y-37430119D01*
X76728214Y-37406309D01*
X76537738Y-37406309D01*
X76537738Y-37906309D01*
X76704404Y-37906309D01*
X76752023Y-37882500D01*
X76775833Y-37858690D01*
X76799642Y-37811071D01*
X76799642Y-37763452D01*
X76775833Y-37715833D01*
X76752023Y-37692023D01*
X76704404Y-37668214D01*
X76537738Y-37668214D01*
X76966309Y-37906309D02*
X77252023Y-37906309D01*
X77109166Y-37406309D02*
X77109166Y-37906309D01*
X77371071Y-37406309D02*
X77632976Y-37739642D01*
X77371071Y-37739642D02*
X77632976Y-37406309D01*
G04 #@! TO.C,D2*
X47741309Y-26018928D02*
X47741309Y-26257023D01*
X48241309Y-26257023D01*
X48003214Y-25852261D02*
X48003214Y-25685595D01*
X47741309Y-25614166D02*
X47741309Y-25852261D01*
X48241309Y-25852261D01*
X48241309Y-25614166D01*
X47741309Y-25399880D02*
X48241309Y-25399880D01*
X48241309Y-25280833D01*
X48217500Y-25209404D01*
X48169880Y-25161785D01*
X48122261Y-25137976D01*
X48027023Y-25114166D01*
X47955595Y-25114166D01*
X47860357Y-25137976D01*
X47812738Y-25161785D01*
X47765119Y-25209404D01*
X47741309Y-25280833D01*
X47741309Y-25399880D01*
G04 #@! TO.C,R18*
D12*
X89627619Y-31093095D02*
X89627619Y-31569285D01*
X89151428Y-31616904D01*
X89199047Y-31569285D01*
X89246666Y-31474047D01*
X89246666Y-31235952D01*
X89199047Y-31140714D01*
X89151428Y-31093095D01*
X89056190Y-31045476D01*
X88818095Y-31045476D01*
X88722857Y-31093095D01*
X88675238Y-31140714D01*
X88627619Y-31235952D01*
X88627619Y-31474047D01*
X88675238Y-31569285D01*
X88722857Y-31616904D01*
X89627619Y-30426428D02*
X89627619Y-30331190D01*
X89580000Y-30235952D01*
X89532380Y-30188333D01*
X89437142Y-30140714D01*
X89246666Y-30093095D01*
X89008571Y-30093095D01*
X88818095Y-30140714D01*
X88722857Y-30188333D01*
X88675238Y-30235952D01*
X88627619Y-30331190D01*
X88627619Y-30426428D01*
X88675238Y-30521666D01*
X88722857Y-30569285D01*
X88818095Y-30616904D01*
X89008571Y-30664523D01*
X89246666Y-30664523D01*
X89437142Y-30616904D01*
X89532380Y-30569285D01*
X89580000Y-30521666D01*
X89627619Y-30426428D01*
X88627619Y-29093095D02*
X89103809Y-29426428D01*
X88627619Y-29664523D02*
X89627619Y-29664523D01*
X89627619Y-29283571D01*
X89580000Y-29188333D01*
X89532380Y-29140714D01*
X89437142Y-29093095D01*
X89294285Y-29093095D01*
X89199047Y-29140714D01*
X89151428Y-29188333D01*
X89103809Y-29283571D01*
X89103809Y-29664523D01*
G04 #@! TO.C,R9*
D15*
X61581785Y-33307500D02*
X61581785Y-33478928D01*
X61581785Y-33393214D02*
X61881785Y-33393214D01*
X61838928Y-33421785D01*
X61810357Y-33450357D01*
X61796071Y-33478928D01*
X61881785Y-33121785D02*
X61881785Y-33093214D01*
X61867500Y-33064642D01*
X61853214Y-33050357D01*
X61824642Y-33036071D01*
X61767500Y-33021785D01*
X61696071Y-33021785D01*
X61638928Y-33036071D01*
X61610357Y-33050357D01*
X61596071Y-33064642D01*
X61581785Y-33093214D01*
X61581785Y-33121785D01*
X61596071Y-33150357D01*
X61610357Y-33164642D01*
X61638928Y-33178928D01*
X61696071Y-33193214D01*
X61767500Y-33193214D01*
X61824642Y-33178928D01*
X61853214Y-33164642D01*
X61867500Y-33150357D01*
X61881785Y-33121785D01*
X61881785Y-32836071D02*
X61881785Y-32807500D01*
X61867500Y-32778928D01*
X61853214Y-32764642D01*
X61824642Y-32750357D01*
X61767500Y-32736071D01*
X61696071Y-32736071D01*
X61638928Y-32750357D01*
X61610357Y-32764642D01*
X61596071Y-32778928D01*
X61581785Y-32807500D01*
X61581785Y-32836071D01*
X61596071Y-32864642D01*
X61610357Y-32878928D01*
X61638928Y-32893214D01*
X61696071Y-32907500D01*
X61767500Y-32907500D01*
X61824642Y-32893214D01*
X61853214Y-32878928D01*
X61867500Y-32864642D01*
X61881785Y-32836071D01*
X61581785Y-32607500D02*
X61881785Y-32607500D01*
X61581785Y-32436071D02*
X61753214Y-32564642D01*
X61881785Y-32436071D02*
X61710357Y-32607500D01*
G04 #@! TO.C,R19*
D11*
X56834166Y-30581309D02*
X56548452Y-30581309D01*
X56691309Y-30581309D02*
X56691309Y-31081309D01*
X56643690Y-31009880D01*
X56596071Y-30962261D01*
X56548452Y-30938452D01*
X57143690Y-31081309D02*
X57191309Y-31081309D01*
X57238928Y-31057500D01*
X57262738Y-31033690D01*
X57286547Y-30986071D01*
X57310357Y-30890833D01*
X57310357Y-30771785D01*
X57286547Y-30676547D01*
X57262738Y-30628928D01*
X57238928Y-30605119D01*
X57191309Y-30581309D01*
X57143690Y-30581309D01*
X57096071Y-30605119D01*
X57072261Y-30628928D01*
X57048452Y-30676547D01*
X57024642Y-30771785D01*
X57024642Y-30890833D01*
X57048452Y-30986071D01*
X57072261Y-31033690D01*
X57096071Y-31057500D01*
X57143690Y-31081309D01*
X57619880Y-31081309D02*
X57667500Y-31081309D01*
X57715119Y-31057500D01*
X57738928Y-31033690D01*
X57762738Y-30986071D01*
X57786547Y-30890833D01*
X57786547Y-30771785D01*
X57762738Y-30676547D01*
X57738928Y-30628928D01*
X57715119Y-30605119D01*
X57667500Y-30581309D01*
X57619880Y-30581309D01*
X57572261Y-30605119D01*
X57548452Y-30628928D01*
X57524642Y-30676547D01*
X57500833Y-30771785D01*
X57500833Y-30890833D01*
X57524642Y-30986071D01*
X57548452Y-31033690D01*
X57572261Y-31057500D01*
X57619880Y-31081309D01*
X58000833Y-30581309D02*
X58000833Y-31081309D01*
X58286547Y-30581309D02*
X58072261Y-30867023D01*
X58286547Y-31081309D02*
X58000833Y-30795595D01*
G04 #@! TO.C,C23*
X61391309Y-31388452D02*
X61391309Y-31340833D01*
X61367500Y-31293214D01*
X61343690Y-31269404D01*
X61296071Y-31245595D01*
X61200833Y-31221785D01*
X61081785Y-31221785D01*
X60986547Y-31245595D01*
X60938928Y-31269404D01*
X60915119Y-31293214D01*
X60891309Y-31340833D01*
X60891309Y-31388452D01*
X60915119Y-31436071D01*
X60938928Y-31459880D01*
X60986547Y-31483690D01*
X61081785Y-31507500D01*
X61200833Y-31507500D01*
X61296071Y-31483690D01*
X61343690Y-31459880D01*
X61367500Y-31436071D01*
X61391309Y-31388452D01*
X60938928Y-31007500D02*
X60915119Y-30983690D01*
X60891309Y-31007500D01*
X60915119Y-31031309D01*
X60938928Y-31007500D01*
X60891309Y-31007500D01*
X60891309Y-30507500D02*
X60891309Y-30793214D01*
X60891309Y-30650357D02*
X61391309Y-30650357D01*
X61319880Y-30697976D01*
X61272261Y-30745595D01*
X61248452Y-30793214D01*
X60891309Y-30293214D02*
X61224642Y-30293214D01*
X61177023Y-30293214D02*
X61200833Y-30269404D01*
X61224642Y-30221785D01*
X61224642Y-30150357D01*
X61200833Y-30102738D01*
X61153214Y-30078928D01*
X60891309Y-30078928D01*
X61153214Y-30078928D02*
X61200833Y-30055119D01*
X61224642Y-30007500D01*
X61224642Y-29936071D01*
X61200833Y-29888452D01*
X61153214Y-29864642D01*
X60891309Y-29864642D01*
X60891309Y-29626547D02*
X61391309Y-29626547D01*
X61081785Y-29578928D02*
X60891309Y-29436071D01*
X61224642Y-29436071D02*
X61034166Y-29626547D01*
X61153214Y-29055119D02*
X61153214Y-29221785D01*
X60891309Y-29221785D02*
X61391309Y-29221785D01*
X61391309Y-28983690D01*
G04 #@! TO.C,U2*
X81480833Y-28836071D02*
X81480833Y-29074166D01*
X81623690Y-28788452D02*
X81123690Y-28955119D01*
X81623690Y-29121785D01*
X81623690Y-29288452D02*
X81123690Y-29288452D01*
X81123690Y-29407500D01*
X81147500Y-29478928D01*
X81195119Y-29526547D01*
X81242738Y-29550357D01*
X81337976Y-29574166D01*
X81409404Y-29574166D01*
X81504642Y-29550357D01*
X81552261Y-29526547D01*
X81599880Y-29478928D01*
X81623690Y-29407500D01*
X81623690Y-29288452D01*
X81123690Y-29740833D02*
X81123690Y-30074166D01*
X81623690Y-29859880D01*
X81123690Y-30217023D02*
X81123690Y-30550357D01*
X81623690Y-30336071D01*
X81123690Y-30693214D02*
X81123690Y-31026547D01*
X81623690Y-30812261D01*
X81623690Y-31240833D02*
X81623690Y-31336071D01*
X81599880Y-31383690D01*
X81576071Y-31407500D01*
X81504642Y-31455119D01*
X81409404Y-31478928D01*
X81218928Y-31478928D01*
X81171309Y-31455119D01*
X81147500Y-31431309D01*
X81123690Y-31383690D01*
X81123690Y-31288452D01*
X81147500Y-31240833D01*
X81171309Y-31217023D01*
X81218928Y-31193214D01*
X81337976Y-31193214D01*
X81385595Y-31217023D01*
X81409404Y-31240833D01*
X81433214Y-31288452D01*
X81433214Y-31383690D01*
X81409404Y-31431309D01*
X81385595Y-31455119D01*
X81337976Y-31478928D01*
G04 #@! TO.C,R14*
X25625833Y-45915833D02*
X25525833Y-45949166D01*
X25359166Y-45949166D01*
X25292500Y-45915833D01*
X25259166Y-45882500D01*
X25225833Y-45815833D01*
X25225833Y-45749166D01*
X25259166Y-45682500D01*
X25292500Y-45649166D01*
X25359166Y-45615833D01*
X25492500Y-45582500D01*
X25559166Y-45549166D01*
X25592500Y-45515833D01*
X25625833Y-45449166D01*
X25625833Y-45382500D01*
X25592500Y-45315833D01*
X25559166Y-45282500D01*
X25492500Y-45249166D01*
X25325833Y-45249166D01*
X25225833Y-45282500D01*
X24959166Y-45315833D02*
X24925833Y-45282500D01*
X24859166Y-45249166D01*
X24692500Y-45249166D01*
X24625833Y-45282500D01*
X24592500Y-45315833D01*
X24559166Y-45382500D01*
X24559166Y-45449166D01*
X24592500Y-45549166D01*
X24992500Y-45949166D01*
X24559166Y-45949166D01*
G04 #@! TO.C,R16*
X29750833Y-45940833D02*
X29650833Y-45974166D01*
X29484166Y-45974166D01*
X29417500Y-45940833D01*
X29384166Y-45907500D01*
X29350833Y-45840833D01*
X29350833Y-45774166D01*
X29384166Y-45707500D01*
X29417500Y-45674166D01*
X29484166Y-45640833D01*
X29617500Y-45607500D01*
X29684166Y-45574166D01*
X29717500Y-45540833D01*
X29750833Y-45474166D01*
X29750833Y-45407500D01*
X29717500Y-45340833D01*
X29684166Y-45307500D01*
X29617500Y-45274166D01*
X29450833Y-45274166D01*
X29350833Y-45307500D01*
X29117500Y-45274166D02*
X28684166Y-45274166D01*
X28917500Y-45540833D01*
X28817500Y-45540833D01*
X28750833Y-45574166D01*
X28717500Y-45607500D01*
X28684166Y-45674166D01*
X28684166Y-45840833D01*
X28717500Y-45907500D01*
X28750833Y-45940833D01*
X28817500Y-45974166D01*
X29017500Y-45974166D01*
X29084166Y-45940833D01*
X29117500Y-45907500D01*
G04 #@! TO.C,C21*
X107443690Y-45117023D02*
X107443690Y-45164642D01*
X107467500Y-45212261D01*
X107491309Y-45236071D01*
X107538928Y-45259880D01*
X107634166Y-45283690D01*
X107753214Y-45283690D01*
X107848452Y-45259880D01*
X107896071Y-45236071D01*
X107919880Y-45212261D01*
X107943690Y-45164642D01*
X107943690Y-45117023D01*
X107919880Y-45069404D01*
X107896071Y-45045595D01*
X107848452Y-45021785D01*
X107753214Y-44997976D01*
X107634166Y-44997976D01*
X107538928Y-45021785D01*
X107491309Y-45045595D01*
X107467500Y-45069404D01*
X107443690Y-45117023D01*
X107896071Y-45497976D02*
X107919880Y-45521785D01*
X107943690Y-45497976D01*
X107919880Y-45474166D01*
X107896071Y-45497976D01*
X107943690Y-45497976D01*
X107443690Y-45688452D02*
X107443690Y-45997976D01*
X107634166Y-45831309D01*
X107634166Y-45902738D01*
X107657976Y-45950357D01*
X107681785Y-45974166D01*
X107729404Y-45997976D01*
X107848452Y-45997976D01*
X107896071Y-45974166D01*
X107919880Y-45950357D01*
X107943690Y-45902738D01*
X107943690Y-45759880D01*
X107919880Y-45712261D01*
X107896071Y-45688452D01*
X107443690Y-46164642D02*
X107443690Y-46474166D01*
X107634166Y-46307500D01*
X107634166Y-46378928D01*
X107657976Y-46426547D01*
X107681785Y-46450357D01*
X107729404Y-46474166D01*
X107848452Y-46474166D01*
X107896071Y-46450357D01*
X107919880Y-46426547D01*
X107943690Y-46378928D01*
X107943690Y-46236071D01*
X107919880Y-46188452D01*
X107896071Y-46164642D01*
X107681785Y-46855119D02*
X107681785Y-46688452D01*
X107943690Y-46688452D02*
X107443690Y-46688452D01*
X107443690Y-46926547D01*
X107943690Y-47497976D02*
X107610357Y-47497976D01*
X107443690Y-47497976D02*
X107467500Y-47474166D01*
X107491309Y-47497976D01*
X107467500Y-47521785D01*
X107443690Y-47497976D01*
X107491309Y-47497976D01*
X107943690Y-47807500D02*
X107919880Y-47759880D01*
X107896071Y-47736071D01*
X107848452Y-47712261D01*
X107705595Y-47712261D01*
X107657976Y-47736071D01*
X107634166Y-47759880D01*
X107610357Y-47807500D01*
X107610357Y-47878928D01*
X107634166Y-47926547D01*
X107657976Y-47950357D01*
X107705595Y-47974166D01*
X107848452Y-47974166D01*
X107896071Y-47950357D01*
X107919880Y-47926547D01*
X107943690Y-47878928D01*
X107943690Y-47807500D01*
X107610357Y-48188452D02*
X107943690Y-48188452D01*
X107657976Y-48188452D02*
X107634166Y-48212261D01*
X107610357Y-48259880D01*
X107610357Y-48331309D01*
X107634166Y-48378928D01*
X107681785Y-48402738D01*
X107943690Y-48402738D01*
X107943690Y-48640833D02*
X107610357Y-48640833D01*
X107443690Y-48640833D02*
X107467500Y-48617023D01*
X107491309Y-48640833D01*
X107467500Y-48664642D01*
X107443690Y-48640833D01*
X107491309Y-48640833D01*
X107919880Y-48855119D02*
X107943690Y-48902738D01*
X107943690Y-48997976D01*
X107919880Y-49045595D01*
X107872261Y-49069404D01*
X107848452Y-49069404D01*
X107800833Y-49045595D01*
X107777023Y-48997976D01*
X107777023Y-48926547D01*
X107753214Y-48878928D01*
X107705595Y-48855119D01*
X107681785Y-48855119D01*
X107634166Y-48878928D01*
X107610357Y-48926547D01*
X107610357Y-48997976D01*
X107634166Y-49045595D01*
X107610357Y-49212261D02*
X107610357Y-49402738D01*
X107443690Y-49283690D02*
X107872261Y-49283690D01*
X107919880Y-49307500D01*
X107943690Y-49355119D01*
X107943690Y-49402738D01*
X107943690Y-49640833D02*
X107919880Y-49593214D01*
X107896071Y-49569404D01*
X107848452Y-49545595D01*
X107705595Y-49545595D01*
X107657976Y-49569404D01*
X107634166Y-49593214D01*
X107610357Y-49640833D01*
X107610357Y-49712261D01*
X107634166Y-49759880D01*
X107657976Y-49783690D01*
X107705595Y-49807500D01*
X107848452Y-49807500D01*
X107896071Y-49783690D01*
X107919880Y-49759880D01*
X107943690Y-49712261D01*
X107943690Y-49640833D01*
X107943690Y-50021785D02*
X107610357Y-50021785D01*
X107705595Y-50021785D02*
X107657976Y-50045595D01*
X107634166Y-50069404D01*
X107610357Y-50117023D01*
X107610357Y-50164642D01*
G04 #@! TO.C,U2*
X76954166Y-49878928D02*
X76954166Y-49640833D01*
X76811309Y-49926547D02*
X77311309Y-49759880D01*
X76811309Y-49593214D01*
X76811309Y-49426547D02*
X77311309Y-49426547D01*
X77311309Y-49307500D01*
X77287500Y-49236071D01*
X77239880Y-49188452D01*
X77192261Y-49164642D01*
X77097023Y-49140833D01*
X77025595Y-49140833D01*
X76930357Y-49164642D01*
X76882738Y-49188452D01*
X76835119Y-49236071D01*
X76811309Y-49307500D01*
X76811309Y-49426547D01*
X77311309Y-48974166D02*
X77311309Y-48640833D01*
X76811309Y-48855119D01*
X77311309Y-48497976D02*
X77311309Y-48164642D01*
X76811309Y-48378928D01*
X77311309Y-48021785D02*
X77311309Y-47688452D01*
X76811309Y-47902738D01*
X76811309Y-47474166D02*
X76811309Y-47378928D01*
X76835119Y-47331309D01*
X76858928Y-47307500D01*
X76930357Y-47259880D01*
X77025595Y-47236071D01*
X77216071Y-47236071D01*
X77263690Y-47259880D01*
X77287500Y-47283690D01*
X77311309Y-47331309D01*
X77311309Y-47426547D01*
X77287500Y-47474166D01*
X77263690Y-47497976D01*
X77216071Y-47521785D01*
X77097023Y-47521785D01*
X77049404Y-47497976D01*
X77025595Y-47474166D01*
X77001785Y-47426547D01*
X77001785Y-47331309D01*
X77025595Y-47283690D01*
X77049404Y-47259880D01*
X77097023Y-47236071D01*
G04 #@! TO.C,IC2*
D15*
X105574642Y-49578928D02*
X105531785Y-49593214D01*
X105460357Y-49593214D01*
X105431785Y-49578928D01*
X105417500Y-49564642D01*
X105403214Y-49536071D01*
X105403214Y-49507500D01*
X105417500Y-49478928D01*
X105431785Y-49464642D01*
X105460357Y-49450357D01*
X105517500Y-49436071D01*
X105546071Y-49421785D01*
X105560357Y-49407500D01*
X105574642Y-49378928D01*
X105574642Y-49350357D01*
X105560357Y-49321785D01*
X105546071Y-49307500D01*
X105517500Y-49293214D01*
X105446071Y-49293214D01*
X105403214Y-49307500D01*
X105274642Y-49593214D02*
X105274642Y-49293214D01*
X105103214Y-49593214D01*
X105103214Y-49293214D01*
X104988928Y-49293214D02*
X104788928Y-49293214D01*
X104917500Y-49593214D01*
X104546071Y-49393214D02*
X104546071Y-49593214D01*
X104617500Y-49278928D02*
X104688928Y-49493214D01*
X104503214Y-49493214D01*
X104246071Y-49593214D02*
X104388928Y-49593214D01*
X104388928Y-49293214D01*
X104188928Y-49293214D02*
X104088928Y-49593214D01*
X103988928Y-49293214D01*
X103717500Y-49564642D02*
X103731785Y-49578928D01*
X103774642Y-49593214D01*
X103803214Y-49593214D01*
X103846071Y-49578928D01*
X103874642Y-49550357D01*
X103888928Y-49521785D01*
X103903214Y-49464642D01*
X103903214Y-49421785D01*
X103888928Y-49364642D01*
X103874642Y-49336071D01*
X103846071Y-49307500D01*
X103803214Y-49293214D01*
X103774642Y-49293214D01*
X103731785Y-49307500D01*
X103717500Y-49321785D01*
X103603214Y-49321785D02*
X103588928Y-49307500D01*
X103560357Y-49293214D01*
X103488928Y-49293214D01*
X103460357Y-49307500D01*
X103446071Y-49321785D01*
X103431785Y-49350357D01*
X103431785Y-49378928D01*
X103446071Y-49421785D01*
X103617500Y-49593214D01*
X103431785Y-49593214D01*
X103146071Y-49307500D02*
X103174642Y-49293214D01*
X103217500Y-49293214D01*
X103260357Y-49307500D01*
X103288928Y-49336071D01*
X103303214Y-49364642D01*
X103317500Y-49421785D01*
X103317500Y-49464642D01*
X103303214Y-49521785D01*
X103288928Y-49550357D01*
X103260357Y-49578928D01*
X103217500Y-49593214D01*
X103188928Y-49593214D01*
X103146071Y-49578928D01*
X103131785Y-49564642D01*
X103131785Y-49464642D01*
X103188928Y-49464642D01*
X102946071Y-49293214D02*
X102917500Y-49293214D01*
X102888928Y-49307500D01*
X102874642Y-49321785D01*
X102860357Y-49350357D01*
X102846071Y-49407500D01*
X102846071Y-49478928D01*
X102860357Y-49536071D01*
X102874642Y-49564642D01*
X102888928Y-49578928D01*
X102917500Y-49593214D01*
X102946071Y-49593214D01*
X102974642Y-49578928D01*
X102988928Y-49564642D01*
X103003214Y-49536071D01*
X103017500Y-49478928D01*
X103017500Y-49407500D01*
X103003214Y-49350357D01*
X102988928Y-49321785D01*
X102974642Y-49307500D01*
X102946071Y-49293214D01*
X102731785Y-49321785D02*
X102717500Y-49307500D01*
X102688928Y-49293214D01*
X102617500Y-49293214D01*
X102588928Y-49307500D01*
X102574642Y-49321785D01*
X102560357Y-49350357D01*
X102560357Y-49378928D01*
X102574642Y-49421785D01*
X102746071Y-49593214D01*
X102560357Y-49593214D01*
G04 #@! TO.C,R11*
D12*
X65107380Y-48698095D02*
X65107380Y-48221904D01*
X65583571Y-48174285D01*
X65535952Y-48221904D01*
X65488333Y-48317142D01*
X65488333Y-48555238D01*
X65535952Y-48650476D01*
X65583571Y-48698095D01*
X65678809Y-48745714D01*
X65916904Y-48745714D01*
X66012142Y-48698095D01*
X66059761Y-48650476D01*
X66107380Y-48555238D01*
X66107380Y-48317142D01*
X66059761Y-48221904D01*
X66012142Y-48174285D01*
X66107380Y-49174285D02*
X65107380Y-49174285D01*
X66107380Y-49745714D02*
X65535952Y-49317142D01*
X65107380Y-49745714D02*
X65678809Y-49174285D01*
G04 #@! TO.C,R13*
X61207380Y-48598095D02*
X61207380Y-48121904D01*
X61683571Y-48074285D01*
X61635952Y-48121904D01*
X61588333Y-48217142D01*
X61588333Y-48455238D01*
X61635952Y-48550476D01*
X61683571Y-48598095D01*
X61778809Y-48645714D01*
X62016904Y-48645714D01*
X62112142Y-48598095D01*
X62159761Y-48550476D01*
X62207380Y-48455238D01*
X62207380Y-48217142D01*
X62159761Y-48121904D01*
X62112142Y-48074285D01*
X62207380Y-49074285D02*
X61207380Y-49074285D01*
X62207380Y-49645714D02*
X61635952Y-49217142D01*
X61207380Y-49645714D02*
X61778809Y-49074285D01*
G04 #@! TO.C,C2*
D11*
X96703214Y-52843690D02*
X96988928Y-52843690D01*
X96846071Y-52843690D02*
X96846071Y-52343690D01*
X96893690Y-52415119D01*
X96941309Y-52462738D01*
X96988928Y-52486547D01*
X96417500Y-52557976D02*
X96465119Y-52534166D01*
X96488928Y-52510357D01*
X96512738Y-52462738D01*
X96512738Y-52438928D01*
X96488928Y-52391309D01*
X96465119Y-52367500D01*
X96417500Y-52343690D01*
X96322261Y-52343690D01*
X96274642Y-52367500D01*
X96250833Y-52391309D01*
X96227023Y-52438928D01*
X96227023Y-52462738D01*
X96250833Y-52510357D01*
X96274642Y-52534166D01*
X96322261Y-52557976D01*
X96417500Y-52557976D01*
X96465119Y-52581785D01*
X96488928Y-52605595D01*
X96512738Y-52653214D01*
X96512738Y-52748452D01*
X96488928Y-52796071D01*
X96465119Y-52819880D01*
X96417500Y-52843690D01*
X96322261Y-52843690D01*
X96274642Y-52819880D01*
X96250833Y-52796071D01*
X96227023Y-52748452D01*
X96227023Y-52653214D01*
X96250833Y-52605595D01*
X96274642Y-52581785D01*
X96322261Y-52557976D01*
X96012738Y-52510357D02*
X96012738Y-53010357D01*
X96012738Y-52534166D02*
X95965119Y-52510357D01*
X95869880Y-52510357D01*
X95822261Y-52534166D01*
X95798452Y-52557976D01*
X95774642Y-52605595D01*
X95774642Y-52748452D01*
X95798452Y-52796071D01*
X95822261Y-52819880D01*
X95869880Y-52843690D01*
X95965119Y-52843690D01*
X96012738Y-52819880D01*
X95393690Y-52581785D02*
X95560357Y-52581785D01*
X95560357Y-52843690D02*
X95560357Y-52343690D01*
X95322261Y-52343690D01*
G04 #@! TO.C,C4*
X91313214Y-52853690D02*
X91598928Y-52853690D01*
X91456071Y-52853690D02*
X91456071Y-52353690D01*
X91503690Y-52425119D01*
X91551309Y-52472738D01*
X91598928Y-52496547D01*
X91027500Y-52567976D02*
X91075119Y-52544166D01*
X91098928Y-52520357D01*
X91122738Y-52472738D01*
X91122738Y-52448928D01*
X91098928Y-52401309D01*
X91075119Y-52377500D01*
X91027500Y-52353690D01*
X90932261Y-52353690D01*
X90884642Y-52377500D01*
X90860833Y-52401309D01*
X90837023Y-52448928D01*
X90837023Y-52472738D01*
X90860833Y-52520357D01*
X90884642Y-52544166D01*
X90932261Y-52567976D01*
X91027500Y-52567976D01*
X91075119Y-52591785D01*
X91098928Y-52615595D01*
X91122738Y-52663214D01*
X91122738Y-52758452D01*
X91098928Y-52806071D01*
X91075119Y-52829880D01*
X91027500Y-52853690D01*
X90932261Y-52853690D01*
X90884642Y-52829880D01*
X90860833Y-52806071D01*
X90837023Y-52758452D01*
X90837023Y-52663214D01*
X90860833Y-52615595D01*
X90884642Y-52591785D01*
X90932261Y-52567976D01*
X90622738Y-52520357D02*
X90622738Y-53020357D01*
X90622738Y-52544166D02*
X90575119Y-52520357D01*
X90479880Y-52520357D01*
X90432261Y-52544166D01*
X90408452Y-52567976D01*
X90384642Y-52615595D01*
X90384642Y-52758452D01*
X90408452Y-52806071D01*
X90432261Y-52829880D01*
X90479880Y-52853690D01*
X90575119Y-52853690D01*
X90622738Y-52829880D01*
X90003690Y-52591785D02*
X90170357Y-52591785D01*
X90170357Y-52853690D02*
X90170357Y-52353690D01*
X89932261Y-52353690D01*
G04 #@! TO.C,C7*
X79785952Y-40686190D02*
X79738333Y-40686190D01*
X79690714Y-40710000D01*
X79666904Y-40733809D01*
X79643095Y-40781428D01*
X79619285Y-40876666D01*
X79619285Y-40995714D01*
X79643095Y-41090952D01*
X79666904Y-41138571D01*
X79690714Y-41162380D01*
X79738333Y-41186190D01*
X79785952Y-41186190D01*
X79833571Y-41162380D01*
X79857380Y-41138571D01*
X79881190Y-41090952D01*
X79905000Y-40995714D01*
X79905000Y-40876666D01*
X79881190Y-40781428D01*
X79857380Y-40733809D01*
X79833571Y-40710000D01*
X79785952Y-40686190D01*
X79405000Y-41138571D02*
X79381190Y-41162380D01*
X79405000Y-41186190D01*
X79428809Y-41162380D01*
X79405000Y-41138571D01*
X79405000Y-41186190D01*
X78905000Y-41186190D02*
X79190714Y-41186190D01*
X79047857Y-41186190D02*
X79047857Y-40686190D01*
X79095476Y-40757619D01*
X79143095Y-40805238D01*
X79190714Y-40829047D01*
X78690714Y-41186190D02*
X78690714Y-40852857D01*
X78690714Y-40900476D02*
X78666904Y-40876666D01*
X78619285Y-40852857D01*
X78547857Y-40852857D01*
X78500238Y-40876666D01*
X78476428Y-40924285D01*
X78476428Y-41186190D01*
X78476428Y-40924285D02*
X78452619Y-40876666D01*
X78405000Y-40852857D01*
X78333571Y-40852857D01*
X78285952Y-40876666D01*
X78262142Y-40924285D01*
X78262142Y-41186190D01*
X78024047Y-41186190D02*
X78024047Y-40686190D01*
X77976428Y-40995714D02*
X77833571Y-41186190D01*
X77833571Y-40852857D02*
X78024047Y-41043333D01*
X77452619Y-40924285D02*
X77619285Y-40924285D01*
X77619285Y-41186190D02*
X77619285Y-40686190D01*
X77381190Y-40686190D01*
G04 #@! TO.C,C15*
X76228809Y-42667142D02*
X76228809Y-42952857D01*
X76228809Y-42810000D02*
X76728809Y-42810000D01*
X76657380Y-42857619D01*
X76609761Y-42905238D01*
X76585952Y-42952857D01*
X76228809Y-42452857D02*
X76562142Y-42452857D01*
X76514523Y-42452857D02*
X76538333Y-42429047D01*
X76562142Y-42381428D01*
X76562142Y-42310000D01*
X76538333Y-42262380D01*
X76490714Y-42238571D01*
X76228809Y-42238571D01*
X76490714Y-42238571D02*
X76538333Y-42214761D01*
X76562142Y-42167142D01*
X76562142Y-42095714D01*
X76538333Y-42048095D01*
X76490714Y-42024285D01*
X76228809Y-42024285D01*
X76228809Y-41786190D02*
X76728809Y-41786190D01*
X76419285Y-41738571D02*
X76228809Y-41595714D01*
X76562142Y-41595714D02*
X76371666Y-41786190D01*
X76490714Y-41214761D02*
X76490714Y-41381428D01*
X76228809Y-41381428D02*
X76728809Y-41381428D01*
X76728809Y-41143333D01*
G04 #@! TO.C,C17*
X72081190Y-41552857D02*
X72081190Y-41267142D01*
X72081190Y-41410000D02*
X71581190Y-41410000D01*
X71652619Y-41362380D01*
X71700238Y-41314761D01*
X71724047Y-41267142D01*
X72081190Y-41767142D02*
X71747857Y-41767142D01*
X71795476Y-41767142D02*
X71771666Y-41790952D01*
X71747857Y-41838571D01*
X71747857Y-41910000D01*
X71771666Y-41957619D01*
X71819285Y-41981428D01*
X72081190Y-41981428D01*
X71819285Y-41981428D02*
X71771666Y-42005238D01*
X71747857Y-42052857D01*
X71747857Y-42124285D01*
X71771666Y-42171904D01*
X71819285Y-42195714D01*
X72081190Y-42195714D01*
X72081190Y-42433809D02*
X71581190Y-42433809D01*
X71890714Y-42481428D02*
X72081190Y-42624285D01*
X71747857Y-42624285D02*
X71938333Y-42433809D01*
X71819285Y-43005238D02*
X71819285Y-42838571D01*
X72081190Y-42838571D02*
X71581190Y-42838571D01*
X71581190Y-43076666D01*
G04 #@! TO.C,R1*
X91400833Y-47983690D02*
X91686547Y-47983690D01*
X91543690Y-47983690D02*
X91543690Y-47483690D01*
X91591309Y-47555119D01*
X91638928Y-47602738D01*
X91686547Y-47626547D01*
X91091309Y-47483690D02*
X91043690Y-47483690D01*
X90996071Y-47507500D01*
X90972261Y-47531309D01*
X90948452Y-47578928D01*
X90924642Y-47674166D01*
X90924642Y-47793214D01*
X90948452Y-47888452D01*
X90972261Y-47936071D01*
X90996071Y-47959880D01*
X91043690Y-47983690D01*
X91091309Y-47983690D01*
X91138928Y-47959880D01*
X91162738Y-47936071D01*
X91186547Y-47888452D01*
X91210357Y-47793214D01*
X91210357Y-47674166D01*
X91186547Y-47578928D01*
X91162738Y-47531309D01*
X91138928Y-47507500D01*
X91091309Y-47483690D01*
X90615119Y-47483690D02*
X90567500Y-47483690D01*
X90519880Y-47507500D01*
X90496071Y-47531309D01*
X90472261Y-47578928D01*
X90448452Y-47674166D01*
X90448452Y-47793214D01*
X90472261Y-47888452D01*
X90496071Y-47936071D01*
X90519880Y-47959880D01*
X90567500Y-47983690D01*
X90615119Y-47983690D01*
X90662738Y-47959880D01*
X90686547Y-47936071D01*
X90710357Y-47888452D01*
X90734166Y-47793214D01*
X90734166Y-47674166D01*
X90710357Y-47578928D01*
X90686547Y-47531309D01*
X90662738Y-47507500D01*
X90615119Y-47483690D01*
X90234166Y-47983690D02*
X90234166Y-47483690D01*
X89948452Y-47983690D02*
X90162738Y-47697976D01*
X89948452Y-47483690D02*
X90234166Y-47769404D01*
G04 #@! TO.C,R2*
X94300833Y-40983690D02*
X94586547Y-40983690D01*
X94443690Y-40983690D02*
X94443690Y-40483690D01*
X94491309Y-40555119D01*
X94538928Y-40602738D01*
X94586547Y-40626547D01*
X93991309Y-40483690D02*
X93943690Y-40483690D01*
X93896071Y-40507500D01*
X93872261Y-40531309D01*
X93848452Y-40578928D01*
X93824642Y-40674166D01*
X93824642Y-40793214D01*
X93848452Y-40888452D01*
X93872261Y-40936071D01*
X93896071Y-40959880D01*
X93943690Y-40983690D01*
X93991309Y-40983690D01*
X94038928Y-40959880D01*
X94062738Y-40936071D01*
X94086547Y-40888452D01*
X94110357Y-40793214D01*
X94110357Y-40674166D01*
X94086547Y-40578928D01*
X94062738Y-40531309D01*
X94038928Y-40507500D01*
X93991309Y-40483690D01*
X93515119Y-40483690D02*
X93467500Y-40483690D01*
X93419880Y-40507500D01*
X93396071Y-40531309D01*
X93372261Y-40578928D01*
X93348452Y-40674166D01*
X93348452Y-40793214D01*
X93372261Y-40888452D01*
X93396071Y-40936071D01*
X93419880Y-40959880D01*
X93467500Y-40983690D01*
X93515119Y-40983690D01*
X93562738Y-40959880D01*
X93586547Y-40936071D01*
X93610357Y-40888452D01*
X93634166Y-40793214D01*
X93634166Y-40674166D01*
X93610357Y-40578928D01*
X93586547Y-40531309D01*
X93562738Y-40507500D01*
X93515119Y-40483690D01*
X93134166Y-40983690D02*
X93134166Y-40483690D01*
X92848452Y-40983690D02*
X93062738Y-40697976D01*
X92848452Y-40483690D02*
X93134166Y-40769404D01*
G04 #@! TO.C,R3*
X91762738Y-44383690D02*
X92048452Y-44383690D01*
X91905595Y-44383690D02*
X91905595Y-43883690D01*
X91953214Y-43955119D01*
X92000833Y-44002738D01*
X92048452Y-44026547D01*
X91548452Y-44383690D02*
X91548452Y-43883690D01*
X91262738Y-44383690D02*
X91477023Y-44097976D01*
X91262738Y-43883690D02*
X91548452Y-44169404D01*
X90810357Y-43883690D02*
X91048452Y-43883690D01*
X91072261Y-44121785D01*
X91048452Y-44097976D01*
X91000833Y-44074166D01*
X90881785Y-44074166D01*
X90834166Y-44097976D01*
X90810357Y-44121785D01*
X90786547Y-44169404D01*
X90786547Y-44288452D01*
X90810357Y-44336071D01*
X90834166Y-44359880D01*
X90881785Y-44383690D01*
X91000833Y-44383690D01*
X91048452Y-44359880D01*
X91072261Y-44336071D01*
G04 #@! TO.C,R4*
X91948452Y-45931309D02*
X91924642Y-45907500D01*
X91877023Y-45883690D01*
X91757976Y-45883690D01*
X91710357Y-45907500D01*
X91686547Y-45931309D01*
X91662738Y-45978928D01*
X91662738Y-46026547D01*
X91686547Y-46097976D01*
X91972261Y-46383690D01*
X91662738Y-46383690D01*
X91472261Y-45931309D02*
X91448452Y-45907500D01*
X91400833Y-45883690D01*
X91281785Y-45883690D01*
X91234166Y-45907500D01*
X91210357Y-45931309D01*
X91186547Y-45978928D01*
X91186547Y-46026547D01*
X91210357Y-46097976D01*
X91496071Y-46383690D01*
X91186547Y-46383690D01*
X90686547Y-46383690D02*
X90853214Y-46145595D01*
X90972261Y-46383690D02*
X90972261Y-45883690D01*
X90781785Y-45883690D01*
X90734166Y-45907500D01*
X90710357Y-45931309D01*
X90686547Y-45978928D01*
X90686547Y-46050357D01*
X90710357Y-46097976D01*
X90734166Y-46121785D01*
X90781785Y-46145595D01*
X90972261Y-46145595D01*
G04 #@! TO.C,R5*
X97048452Y-42331309D02*
X97024642Y-42307500D01*
X96977023Y-42283690D01*
X96857976Y-42283690D01*
X96810357Y-42307500D01*
X96786547Y-42331309D01*
X96762738Y-42378928D01*
X96762738Y-42426547D01*
X96786547Y-42497976D01*
X97072261Y-42783690D01*
X96762738Y-42783690D01*
X96572261Y-42331309D02*
X96548452Y-42307500D01*
X96500833Y-42283690D01*
X96381785Y-42283690D01*
X96334166Y-42307500D01*
X96310357Y-42331309D01*
X96286547Y-42378928D01*
X96286547Y-42426547D01*
X96310357Y-42497976D01*
X96596071Y-42783690D01*
X96286547Y-42783690D01*
X95786547Y-42783690D02*
X95953214Y-42545595D01*
X96072261Y-42783690D02*
X96072261Y-42283690D01*
X95881785Y-42283690D01*
X95834166Y-42307500D01*
X95810357Y-42331309D01*
X95786547Y-42378928D01*
X95786547Y-42450357D01*
X95810357Y-42497976D01*
X95834166Y-42521785D01*
X95881785Y-42545595D01*
X96072261Y-42545595D01*
G04 #@! TO.C,R6*
X103010357Y-44183690D02*
X102700833Y-44183690D01*
X102867500Y-44374166D01*
X102796071Y-44374166D01*
X102748452Y-44397976D01*
X102724642Y-44421785D01*
X102700833Y-44469404D01*
X102700833Y-44588452D01*
X102724642Y-44636071D01*
X102748452Y-44659880D01*
X102796071Y-44683690D01*
X102938928Y-44683690D01*
X102986547Y-44659880D01*
X103010357Y-44636071D01*
X102391309Y-44183690D02*
X102343690Y-44183690D01*
X102296071Y-44207500D01*
X102272261Y-44231309D01*
X102248452Y-44278928D01*
X102224642Y-44374166D01*
X102224642Y-44493214D01*
X102248452Y-44588452D01*
X102272261Y-44636071D01*
X102296071Y-44659880D01*
X102343690Y-44683690D01*
X102391309Y-44683690D01*
X102438928Y-44659880D01*
X102462738Y-44636071D01*
X102486547Y-44588452D01*
X102510357Y-44493214D01*
X102510357Y-44374166D01*
X102486547Y-44278928D01*
X102462738Y-44231309D01*
X102438928Y-44207500D01*
X102391309Y-44183690D01*
X101915119Y-44183690D02*
X101867500Y-44183690D01*
X101819880Y-44207500D01*
X101796071Y-44231309D01*
X101772261Y-44278928D01*
X101748452Y-44374166D01*
X101748452Y-44493214D01*
X101772261Y-44588452D01*
X101796071Y-44636071D01*
X101819880Y-44659880D01*
X101867500Y-44683690D01*
X101915119Y-44683690D01*
X101962738Y-44659880D01*
X101986547Y-44636071D01*
X102010357Y-44588452D01*
X102034166Y-44493214D01*
X102034166Y-44374166D01*
X102010357Y-44278928D01*
X101986547Y-44231309D01*
X101962738Y-44207500D01*
X101915119Y-44183690D01*
X101248452Y-44683690D02*
X101415119Y-44445595D01*
X101534166Y-44683690D02*
X101534166Y-44183690D01*
X101343690Y-44183690D01*
X101296071Y-44207500D01*
X101272261Y-44231309D01*
X101248452Y-44278928D01*
X101248452Y-44350357D01*
X101272261Y-44397976D01*
X101296071Y-44421785D01*
X101343690Y-44445595D01*
X101534166Y-44445595D01*
G04 #@! TO.C,R7*
X100400833Y-42083690D02*
X100686547Y-42083690D01*
X100543690Y-42083690D02*
X100543690Y-41583690D01*
X100591309Y-41655119D01*
X100638928Y-41702738D01*
X100686547Y-41726547D01*
X100091309Y-41583690D02*
X100043690Y-41583690D01*
X99996071Y-41607500D01*
X99972261Y-41631309D01*
X99948452Y-41678928D01*
X99924642Y-41774166D01*
X99924642Y-41893214D01*
X99948452Y-41988452D01*
X99972261Y-42036071D01*
X99996071Y-42059880D01*
X100043690Y-42083690D01*
X100091309Y-42083690D01*
X100138928Y-42059880D01*
X100162738Y-42036071D01*
X100186547Y-41988452D01*
X100210357Y-41893214D01*
X100210357Y-41774166D01*
X100186547Y-41678928D01*
X100162738Y-41631309D01*
X100138928Y-41607500D01*
X100091309Y-41583690D01*
X99615119Y-41583690D02*
X99567500Y-41583690D01*
X99519880Y-41607500D01*
X99496071Y-41631309D01*
X99472261Y-41678928D01*
X99448452Y-41774166D01*
X99448452Y-41893214D01*
X99472261Y-41988452D01*
X99496071Y-42036071D01*
X99519880Y-42059880D01*
X99567500Y-42083690D01*
X99615119Y-42083690D01*
X99662738Y-42059880D01*
X99686547Y-42036071D01*
X99710357Y-41988452D01*
X99734166Y-41893214D01*
X99734166Y-41774166D01*
X99710357Y-41678928D01*
X99686547Y-41631309D01*
X99662738Y-41607500D01*
X99615119Y-41583690D01*
X98948452Y-42083690D02*
X99115119Y-41845595D01*
X99234166Y-42083690D02*
X99234166Y-41583690D01*
X99043690Y-41583690D01*
X98996071Y-41607500D01*
X98972261Y-41631309D01*
X98948452Y-41678928D01*
X98948452Y-41750357D01*
X98972261Y-41797976D01*
X98996071Y-41821785D01*
X99043690Y-41845595D01*
X99234166Y-41845595D01*
G04 #@! TO.C,C16*
X79798452Y-50383690D02*
X79750833Y-50383690D01*
X79703214Y-50407500D01*
X79679404Y-50431309D01*
X79655595Y-50478928D01*
X79631785Y-50574166D01*
X79631785Y-50693214D01*
X79655595Y-50788452D01*
X79679404Y-50836071D01*
X79703214Y-50859880D01*
X79750833Y-50883690D01*
X79798452Y-50883690D01*
X79846071Y-50859880D01*
X79869880Y-50836071D01*
X79893690Y-50788452D01*
X79917500Y-50693214D01*
X79917500Y-50574166D01*
X79893690Y-50478928D01*
X79869880Y-50431309D01*
X79846071Y-50407500D01*
X79798452Y-50383690D01*
X79417500Y-50836071D02*
X79393690Y-50859880D01*
X79417500Y-50883690D01*
X79441309Y-50859880D01*
X79417500Y-50836071D01*
X79417500Y-50883690D01*
X78917500Y-50883690D02*
X79203214Y-50883690D01*
X79060357Y-50883690D02*
X79060357Y-50383690D01*
X79107976Y-50455119D01*
X79155595Y-50502738D01*
X79203214Y-50526547D01*
X78703214Y-50883690D02*
X78703214Y-50550357D01*
X78703214Y-50597976D02*
X78679404Y-50574166D01*
X78631785Y-50550357D01*
X78560357Y-50550357D01*
X78512738Y-50574166D01*
X78488928Y-50621785D01*
X78488928Y-50883690D01*
X78488928Y-50621785D02*
X78465119Y-50574166D01*
X78417500Y-50550357D01*
X78346071Y-50550357D01*
X78298452Y-50574166D01*
X78274642Y-50621785D01*
X78274642Y-50883690D01*
X78036547Y-50883690D02*
X78036547Y-50383690D01*
X77988928Y-50693214D02*
X77846071Y-50883690D01*
X77846071Y-50550357D02*
X78036547Y-50740833D01*
X77465119Y-50621785D02*
X77631785Y-50621785D01*
X77631785Y-50883690D02*
X77631785Y-50383690D01*
X77393690Y-50383690D01*
G04 #@! TO.C,C19*
X87151190Y-50669047D02*
X87151190Y-50716666D01*
X87175000Y-50764285D01*
X87198809Y-50788095D01*
X87246428Y-50811904D01*
X87341666Y-50835714D01*
X87460714Y-50835714D01*
X87555952Y-50811904D01*
X87603571Y-50788095D01*
X87627380Y-50764285D01*
X87651190Y-50716666D01*
X87651190Y-50669047D01*
X87627380Y-50621428D01*
X87603571Y-50597619D01*
X87555952Y-50573809D01*
X87460714Y-50550000D01*
X87341666Y-50550000D01*
X87246428Y-50573809D01*
X87198809Y-50597619D01*
X87175000Y-50621428D01*
X87151190Y-50669047D01*
X87603571Y-51050000D02*
X87627380Y-51073809D01*
X87651190Y-51050000D01*
X87627380Y-51026190D01*
X87603571Y-51050000D01*
X87651190Y-51050000D01*
X87651190Y-51550000D02*
X87651190Y-51264285D01*
X87651190Y-51407142D02*
X87151190Y-51407142D01*
X87222619Y-51359523D01*
X87270238Y-51311904D01*
X87294047Y-51264285D01*
X87651190Y-51764285D02*
X87317857Y-51764285D01*
X87365476Y-51764285D02*
X87341666Y-51788095D01*
X87317857Y-51835714D01*
X87317857Y-51907142D01*
X87341666Y-51954761D01*
X87389285Y-51978571D01*
X87651190Y-51978571D01*
X87389285Y-51978571D02*
X87341666Y-52002380D01*
X87317857Y-52050000D01*
X87317857Y-52121428D01*
X87341666Y-52169047D01*
X87389285Y-52192857D01*
X87651190Y-52192857D01*
X87651190Y-52430952D02*
X87151190Y-52430952D01*
X87460714Y-52478571D02*
X87651190Y-52621428D01*
X87317857Y-52621428D02*
X87508333Y-52430952D01*
X87389285Y-53002380D02*
X87389285Y-52835714D01*
X87651190Y-52835714D02*
X87151190Y-52835714D01*
X87151190Y-53073809D01*
G04 #@! TO.C,C20*
X89745952Y-40636190D02*
X89698333Y-40636190D01*
X89650714Y-40660000D01*
X89626904Y-40683809D01*
X89603095Y-40731428D01*
X89579285Y-40826666D01*
X89579285Y-40945714D01*
X89603095Y-41040952D01*
X89626904Y-41088571D01*
X89650714Y-41112380D01*
X89698333Y-41136190D01*
X89745952Y-41136190D01*
X89793571Y-41112380D01*
X89817380Y-41088571D01*
X89841190Y-41040952D01*
X89865000Y-40945714D01*
X89865000Y-40826666D01*
X89841190Y-40731428D01*
X89817380Y-40683809D01*
X89793571Y-40660000D01*
X89745952Y-40636190D01*
X89365000Y-41088571D02*
X89341190Y-41112380D01*
X89365000Y-41136190D01*
X89388809Y-41112380D01*
X89365000Y-41088571D01*
X89365000Y-41136190D01*
X88865000Y-41136190D02*
X89150714Y-41136190D01*
X89007857Y-41136190D02*
X89007857Y-40636190D01*
X89055476Y-40707619D01*
X89103095Y-40755238D01*
X89150714Y-40779047D01*
X88650714Y-41136190D02*
X88650714Y-40802857D01*
X88650714Y-40850476D02*
X88626904Y-40826666D01*
X88579285Y-40802857D01*
X88507857Y-40802857D01*
X88460238Y-40826666D01*
X88436428Y-40874285D01*
X88436428Y-41136190D01*
X88436428Y-40874285D02*
X88412619Y-40826666D01*
X88365000Y-40802857D01*
X88293571Y-40802857D01*
X88245952Y-40826666D01*
X88222142Y-40874285D01*
X88222142Y-41136190D01*
X87984047Y-41136190D02*
X87984047Y-40636190D01*
X87936428Y-40945714D02*
X87793571Y-41136190D01*
X87793571Y-40802857D02*
X87984047Y-40993333D01*
X87412619Y-40874285D02*
X87579285Y-40874285D01*
X87579285Y-41136190D02*
X87579285Y-40636190D01*
X87341190Y-40636190D01*
G04 #@! TO.C,C23*
X97043690Y-47326547D02*
X97043690Y-47374166D01*
X97067500Y-47421785D01*
X97091309Y-47445595D01*
X97138928Y-47469404D01*
X97234166Y-47493214D01*
X97353214Y-47493214D01*
X97448452Y-47469404D01*
X97496071Y-47445595D01*
X97519880Y-47421785D01*
X97543690Y-47374166D01*
X97543690Y-47326547D01*
X97519880Y-47278928D01*
X97496071Y-47255119D01*
X97448452Y-47231309D01*
X97353214Y-47207500D01*
X97234166Y-47207500D01*
X97138928Y-47231309D01*
X97091309Y-47255119D01*
X97067500Y-47278928D01*
X97043690Y-47326547D01*
X97496071Y-47707500D02*
X97519880Y-47731309D01*
X97543690Y-47707500D01*
X97519880Y-47683690D01*
X97496071Y-47707500D01*
X97543690Y-47707500D01*
X97543690Y-48207500D02*
X97543690Y-47921785D01*
X97543690Y-48064642D02*
X97043690Y-48064642D01*
X97115119Y-48017023D01*
X97162738Y-47969404D01*
X97186547Y-47921785D01*
X97543690Y-48421785D02*
X97210357Y-48421785D01*
X97257976Y-48421785D02*
X97234166Y-48445595D01*
X97210357Y-48493214D01*
X97210357Y-48564642D01*
X97234166Y-48612261D01*
X97281785Y-48636071D01*
X97543690Y-48636071D01*
X97281785Y-48636071D02*
X97234166Y-48659880D01*
X97210357Y-48707500D01*
X97210357Y-48778928D01*
X97234166Y-48826547D01*
X97281785Y-48850357D01*
X97543690Y-48850357D01*
X97543690Y-49088452D02*
X97043690Y-49088452D01*
X97353214Y-49136071D02*
X97543690Y-49278928D01*
X97210357Y-49278928D02*
X97400833Y-49088452D01*
X97281785Y-49659880D02*
X97281785Y-49493214D01*
X97543690Y-49493214D02*
X97043690Y-49493214D01*
X97043690Y-49731309D01*
G04 #@! TO.C,R19*
X101600833Y-48133690D02*
X101886547Y-48133690D01*
X101743690Y-48133690D02*
X101743690Y-47633690D01*
X101791309Y-47705119D01*
X101838928Y-47752738D01*
X101886547Y-47776547D01*
X101291309Y-47633690D02*
X101243690Y-47633690D01*
X101196071Y-47657500D01*
X101172261Y-47681309D01*
X101148452Y-47728928D01*
X101124642Y-47824166D01*
X101124642Y-47943214D01*
X101148452Y-48038452D01*
X101172261Y-48086071D01*
X101196071Y-48109880D01*
X101243690Y-48133690D01*
X101291309Y-48133690D01*
X101338928Y-48109880D01*
X101362738Y-48086071D01*
X101386547Y-48038452D01*
X101410357Y-47943214D01*
X101410357Y-47824166D01*
X101386547Y-47728928D01*
X101362738Y-47681309D01*
X101338928Y-47657500D01*
X101291309Y-47633690D01*
X100815119Y-47633690D02*
X100767500Y-47633690D01*
X100719880Y-47657500D01*
X100696071Y-47681309D01*
X100672261Y-47728928D01*
X100648452Y-47824166D01*
X100648452Y-47943214D01*
X100672261Y-48038452D01*
X100696071Y-48086071D01*
X100719880Y-48109880D01*
X100767500Y-48133690D01*
X100815119Y-48133690D01*
X100862738Y-48109880D01*
X100886547Y-48086071D01*
X100910357Y-48038452D01*
X100934166Y-47943214D01*
X100934166Y-47824166D01*
X100910357Y-47728928D01*
X100886547Y-47681309D01*
X100862738Y-47657500D01*
X100815119Y-47633690D01*
X100434166Y-48133690D02*
X100434166Y-47633690D01*
X100148452Y-48133690D02*
X100362738Y-47847976D01*
X100148452Y-47633690D02*
X100434166Y-47919404D01*
G04 #@! TO.C,R9*
D15*
X96853214Y-45407500D02*
X96853214Y-45236071D01*
X96853214Y-45321785D02*
X96553214Y-45321785D01*
X96596071Y-45293214D01*
X96624642Y-45264642D01*
X96638928Y-45236071D01*
X96553214Y-45593214D02*
X96553214Y-45621785D01*
X96567500Y-45650357D01*
X96581785Y-45664642D01*
X96610357Y-45678928D01*
X96667500Y-45693214D01*
X96738928Y-45693214D01*
X96796071Y-45678928D01*
X96824642Y-45664642D01*
X96838928Y-45650357D01*
X96853214Y-45621785D01*
X96853214Y-45593214D01*
X96838928Y-45564642D01*
X96824642Y-45550357D01*
X96796071Y-45536071D01*
X96738928Y-45521785D01*
X96667500Y-45521785D01*
X96610357Y-45536071D01*
X96581785Y-45550357D01*
X96567500Y-45564642D01*
X96553214Y-45593214D01*
X96553214Y-45878928D02*
X96553214Y-45907500D01*
X96567500Y-45936071D01*
X96581785Y-45950357D01*
X96610357Y-45964642D01*
X96667500Y-45978928D01*
X96738928Y-45978928D01*
X96796071Y-45964642D01*
X96824642Y-45950357D01*
X96838928Y-45936071D01*
X96853214Y-45907500D01*
X96853214Y-45878928D01*
X96838928Y-45850357D01*
X96824642Y-45836071D01*
X96796071Y-45821785D01*
X96738928Y-45807500D01*
X96667500Y-45807500D01*
X96610357Y-45821785D01*
X96581785Y-45836071D01*
X96567500Y-45850357D01*
X96553214Y-45878928D01*
X96853214Y-46107500D02*
X96553214Y-46107500D01*
X96853214Y-46278928D02*
X96681785Y-46150357D01*
X96553214Y-46278928D02*
X96724642Y-46107500D01*
G04 #@! TO.C,R18*
D12*
X68807380Y-47621904D02*
X68807380Y-47145714D01*
X69283571Y-47098095D01*
X69235952Y-47145714D01*
X69188333Y-47240952D01*
X69188333Y-47479047D01*
X69235952Y-47574285D01*
X69283571Y-47621904D01*
X69378809Y-47669523D01*
X69616904Y-47669523D01*
X69712142Y-47621904D01*
X69759761Y-47574285D01*
X69807380Y-47479047D01*
X69807380Y-47240952D01*
X69759761Y-47145714D01*
X69712142Y-47098095D01*
X68807380Y-48288571D02*
X68807380Y-48383809D01*
X68855000Y-48479047D01*
X68902619Y-48526666D01*
X68997857Y-48574285D01*
X69188333Y-48621904D01*
X69426428Y-48621904D01*
X69616904Y-48574285D01*
X69712142Y-48526666D01*
X69759761Y-48479047D01*
X69807380Y-48383809D01*
X69807380Y-48288571D01*
X69759761Y-48193333D01*
X69712142Y-48145714D01*
X69616904Y-48098095D01*
X69426428Y-48050476D01*
X69188333Y-48050476D01*
X68997857Y-48098095D01*
X68902619Y-48145714D01*
X68855000Y-48193333D01*
X68807380Y-48288571D01*
X69807380Y-49621904D02*
X69331190Y-49288571D01*
X69807380Y-49050476D02*
X68807380Y-49050476D01*
X68807380Y-49431428D01*
X68855000Y-49526666D01*
X68902619Y-49574285D01*
X68997857Y-49621904D01*
X69140714Y-49621904D01*
X69235952Y-49574285D01*
X69283571Y-49526666D01*
X69331190Y-49431428D01*
X69331190Y-49050476D01*
G04 #@! TO.C,D2*
D11*
X110693690Y-52696071D02*
X110693690Y-52457976D01*
X110193690Y-52457976D01*
X110431785Y-52862738D02*
X110431785Y-53029404D01*
X110693690Y-53100833D02*
X110693690Y-52862738D01*
X110193690Y-52862738D01*
X110193690Y-53100833D01*
X110693690Y-53315119D02*
X110193690Y-53315119D01*
X110193690Y-53434166D01*
X110217500Y-53505595D01*
X110265119Y-53553214D01*
X110312738Y-53577023D01*
X110407976Y-53600833D01*
X110479404Y-53600833D01*
X110574642Y-53577023D01*
X110622261Y-53553214D01*
X110669880Y-53505595D01*
X110693690Y-53434166D01*
X110693690Y-53315119D01*
G04 #@! TO.C,SPI1-CS1*
X86659166Y-41284880D02*
X86587738Y-41308690D01*
X86468690Y-41308690D01*
X86421071Y-41284880D01*
X86397261Y-41261071D01*
X86373452Y-41213452D01*
X86373452Y-41165833D01*
X86397261Y-41118214D01*
X86421071Y-41094404D01*
X86468690Y-41070595D01*
X86563928Y-41046785D01*
X86611547Y-41022976D01*
X86635357Y-40999166D01*
X86659166Y-40951547D01*
X86659166Y-40903928D01*
X86635357Y-40856309D01*
X86611547Y-40832500D01*
X86563928Y-40808690D01*
X86444880Y-40808690D01*
X86373452Y-40832500D01*
X86230595Y-40808690D02*
X85944880Y-40808690D01*
X86087738Y-41308690D02*
X86087738Y-40808690D01*
X85778214Y-41308690D02*
X85778214Y-40808690D01*
X85611547Y-41165833D01*
X85444880Y-40808690D01*
X85444880Y-41308690D01*
X85254404Y-40808690D02*
X84944880Y-40808690D01*
X85111547Y-40999166D01*
X85040119Y-40999166D01*
X84992500Y-41022976D01*
X84968690Y-41046785D01*
X84944880Y-41094404D01*
X84944880Y-41213452D01*
X84968690Y-41261071D01*
X84992500Y-41284880D01*
X85040119Y-41308690D01*
X85182976Y-41308690D01*
X85230595Y-41284880D01*
X85254404Y-41261071D01*
X84754404Y-40856309D02*
X84730595Y-40832500D01*
X84682976Y-40808690D01*
X84563928Y-40808690D01*
X84516309Y-40832500D01*
X84492500Y-40856309D01*
X84468690Y-40903928D01*
X84468690Y-40951547D01*
X84492500Y-41022976D01*
X84778214Y-41308690D01*
X84468690Y-41308690D01*
X84087738Y-41046785D02*
X84254404Y-41046785D01*
X84254404Y-41308690D02*
X84254404Y-40808690D01*
X84016309Y-40808690D01*
X83563928Y-41308690D02*
X83849642Y-41308690D01*
X83706785Y-41308690D02*
X83706785Y-40808690D01*
X83754404Y-40880119D01*
X83802023Y-40927738D01*
X83849642Y-40951547D01*
X83254404Y-40808690D02*
X83206785Y-40808690D01*
X83159166Y-40832500D01*
X83135357Y-40856309D01*
X83111547Y-40903928D01*
X83087738Y-40999166D01*
X83087738Y-41118214D01*
X83111547Y-41213452D01*
X83135357Y-41261071D01*
X83159166Y-41284880D01*
X83206785Y-41308690D01*
X83254404Y-41308690D01*
X83302023Y-41284880D01*
X83325833Y-41261071D01*
X83349642Y-41213452D01*
X83373452Y-41118214D01*
X83373452Y-40999166D01*
X83349642Y-40903928D01*
X83325833Y-40856309D01*
X83302023Y-40832500D01*
X83254404Y-40808690D01*
X82921071Y-40808690D02*
X82611547Y-40808690D01*
X82778214Y-40999166D01*
X82706785Y-40999166D01*
X82659166Y-41022976D01*
X82635357Y-41046785D01*
X82611547Y-41094404D01*
X82611547Y-41213452D01*
X82635357Y-41261071D01*
X82659166Y-41284880D01*
X82706785Y-41308690D01*
X82849642Y-41308690D01*
X82897261Y-41284880D01*
X82921071Y-41261071D01*
X82111547Y-41261071D02*
X82135357Y-41284880D01*
X82206785Y-41308690D01*
X82254404Y-41308690D01*
X82325833Y-41284880D01*
X82373452Y-41237261D01*
X82397261Y-41189642D01*
X82421071Y-41094404D01*
X82421071Y-41022976D01*
X82397261Y-40927738D01*
X82373452Y-40880119D01*
X82325833Y-40832500D01*
X82254404Y-40808690D01*
X82206785Y-40808690D01*
X82135357Y-40832500D01*
X82111547Y-40856309D01*
X81730595Y-41046785D02*
X81659166Y-41070595D01*
X81635357Y-41094404D01*
X81611547Y-41142023D01*
X81611547Y-41213452D01*
X81635357Y-41261071D01*
X81659166Y-41284880D01*
X81706785Y-41308690D01*
X81897261Y-41308690D01*
X81897261Y-40808690D01*
X81730595Y-40808690D01*
X81682976Y-40832500D01*
X81659166Y-40856309D01*
X81635357Y-40903928D01*
X81635357Y-40951547D01*
X81659166Y-40999166D01*
X81682976Y-41022976D01*
X81730595Y-41046785D01*
X81897261Y-41046785D01*
X81468690Y-40808690D02*
X81182976Y-40808690D01*
X81325833Y-41308690D02*
X81325833Y-40808690D01*
X81063928Y-41308690D02*
X80802023Y-40975357D01*
X81063928Y-40975357D02*
X80802023Y-41308690D01*
G04 #@! TO.C,P4*
X108909166Y-38924166D02*
X108909166Y-38224166D01*
X108742500Y-38224166D01*
X108642500Y-38257500D01*
X108575833Y-38324166D01*
X108542500Y-38390833D01*
X108509166Y-38524166D01*
X108509166Y-38624166D01*
X108542500Y-38757500D01*
X108575833Y-38824166D01*
X108642500Y-38890833D01*
X108742500Y-38924166D01*
X108909166Y-38924166D01*
X108209166Y-38924166D02*
X108209166Y-38224166D01*
X107742500Y-38224166D02*
X107609166Y-38224166D01*
X107542500Y-38257500D01*
X107475833Y-38324166D01*
X107442500Y-38457500D01*
X107442500Y-38690833D01*
X107475833Y-38824166D01*
X107542500Y-38890833D01*
X107609166Y-38924166D01*
X107742500Y-38924166D01*
X107809166Y-38890833D01*
X107875833Y-38824166D01*
X107909166Y-38690833D01*
X107909166Y-38457500D01*
X107875833Y-38324166D01*
X107809166Y-38257500D01*
X107742500Y-38224166D01*
G04 #@! TO.C,P5*
X106734166Y-38924166D02*
X106734166Y-38224166D01*
X106567500Y-38224166D01*
X106467500Y-38257500D01*
X106400833Y-38324166D01*
X106367500Y-38390833D01*
X106334166Y-38524166D01*
X106334166Y-38624166D01*
X106367500Y-38757500D01*
X106400833Y-38824166D01*
X106467500Y-38890833D01*
X106567500Y-38924166D01*
X106734166Y-38924166D01*
X105634166Y-38857500D02*
X105667500Y-38890833D01*
X105767500Y-38924166D01*
X105834166Y-38924166D01*
X105934166Y-38890833D01*
X106000833Y-38824166D01*
X106034166Y-38757500D01*
X106067500Y-38624166D01*
X106067500Y-38524166D01*
X106034166Y-38390833D01*
X106000833Y-38324166D01*
X105934166Y-38257500D01*
X105834166Y-38224166D01*
X105767500Y-38224166D01*
X105667500Y-38257500D01*
X105634166Y-38290833D01*
X105000833Y-38924166D02*
X105334166Y-38924166D01*
X105334166Y-38224166D01*
X104767500Y-38924166D02*
X104767500Y-38224166D01*
X104367500Y-38924166D02*
X104667500Y-38524166D01*
X104367500Y-38224166D02*
X104767500Y-38624166D01*
G04 #@! TO.C,P6*
X111100833Y-38257500D02*
X111167500Y-38224166D01*
X111267500Y-38224166D01*
X111367500Y-38257500D01*
X111434166Y-38324166D01*
X111467500Y-38390833D01*
X111500833Y-38524166D01*
X111500833Y-38624166D01*
X111467500Y-38757500D01*
X111434166Y-38824166D01*
X111367500Y-38890833D01*
X111267500Y-38924166D01*
X111200833Y-38924166D01*
X111100833Y-38890833D01*
X111067500Y-38857500D01*
X111067500Y-38624166D01*
X111200833Y-38624166D01*
X110767500Y-38924166D02*
X110767500Y-38224166D01*
X110367500Y-38924166D01*
X110367500Y-38224166D01*
X110034166Y-38924166D02*
X110034166Y-38224166D01*
X109867500Y-38224166D01*
X109767500Y-38257500D01*
X109700833Y-38324166D01*
X109667500Y-38390833D01*
X109634166Y-38524166D01*
X109634166Y-38624166D01*
X109667500Y-38757500D01*
X109700833Y-38824166D01*
X109767500Y-38890833D01*
X109867500Y-38924166D01*
X110034166Y-38924166D01*
G04 #@! TO.C,Q1*
X113710357Y-42558690D02*
X113710357Y-42058690D01*
X113186547Y-42558690D02*
X113353214Y-42320595D01*
X113472261Y-42558690D02*
X113472261Y-42058690D01*
X113281785Y-42058690D01*
X113234166Y-42082500D01*
X113210357Y-42106309D01*
X113186547Y-42153928D01*
X113186547Y-42225357D01*
X113210357Y-42272976D01*
X113234166Y-42296785D01*
X113281785Y-42320595D01*
X113472261Y-42320595D01*
X112734166Y-42558690D02*
X112972261Y-42558690D01*
X112972261Y-42058690D01*
X112567500Y-42558690D02*
X112567500Y-42058690D01*
X112400833Y-42415833D01*
X112234166Y-42058690D01*
X112234166Y-42558690D01*
X111757976Y-42558690D02*
X111996071Y-42558690D01*
X111996071Y-42058690D01*
X111377023Y-42058690D02*
X111472261Y-42058690D01*
X111519880Y-42082500D01*
X111543690Y-42106309D01*
X111591309Y-42177738D01*
X111615119Y-42272976D01*
X111615119Y-42463452D01*
X111591309Y-42511071D01*
X111567500Y-42534880D01*
X111519880Y-42558690D01*
X111424642Y-42558690D01*
X111377023Y-42534880D01*
X111353214Y-42511071D01*
X111329404Y-42463452D01*
X111329404Y-42344404D01*
X111353214Y-42296785D01*
X111377023Y-42272976D01*
X111424642Y-42249166D01*
X111519880Y-42249166D01*
X111567500Y-42272976D01*
X111591309Y-42296785D01*
X111615119Y-42344404D01*
X110900833Y-42225357D02*
X110900833Y-42558690D01*
X111019880Y-42034880D02*
X111138928Y-42392023D01*
X110829404Y-42392023D01*
X110543690Y-42058690D02*
X110496071Y-42058690D01*
X110448452Y-42082500D01*
X110424642Y-42106309D01*
X110400833Y-42153928D01*
X110377023Y-42249166D01*
X110377023Y-42368214D01*
X110400833Y-42463452D01*
X110424642Y-42511071D01*
X110448452Y-42534880D01*
X110496071Y-42558690D01*
X110543690Y-42558690D01*
X110591309Y-42534880D01*
X110615119Y-42511071D01*
X110638928Y-42463452D01*
X110662738Y-42368214D01*
X110662738Y-42249166D01*
X110638928Y-42153928D01*
X110615119Y-42106309D01*
X110591309Y-42082500D01*
X110543690Y-42058690D01*
X109900833Y-42558690D02*
X110186547Y-42558690D01*
X110043690Y-42558690D02*
X110043690Y-42058690D01*
X110091309Y-42130119D01*
X110138928Y-42177738D01*
X110186547Y-42201547D01*
G04 #@! TD*
M02*
