  0
SECTION
  2
HEADER
  9
$ACADVER
  1
AC1009
  9
$INSBASE
 10
0.0
 20
0.0
 30
0.0
  9
$EXTMIN
 10
0.0
 20
0.0
 30
0.0
  9
$EXTMAX
 10
0.0
 20
0.0
 30
0.0
  0
ENDSEC
  0
SECTION
  2
TABLES
  0
TABLE
  2
VPORT
 70
0
  0
ENDTAB
  0
TABLE
  2
LTYPE
 70
1
  0
LTYPE
  2
CONTINUOUS
 70
0
  3
Solid line
 72
65
 73
0
 40
0.0
  0
ENDTAB
  0
TABLE
  2
LAYER
 70
1
  0
LAYER
  2
0
 70
64
 62
7
  6
continuous
  0
ENDTAB
  0
TABLE
  2
STYLE
 70
1
  0
STYLE
  2
STANDARD
 70
0
 40
0
 41
1.0
 50
0.0
 71
0
 42
1
 3
ARIAL.TTF
 4

  0
ENDTAB
  0
TABLE
  2
VIEW
 70
0
  0
ENDTAB
  0
ENDSEC
  0
SECTION
  2
BLOCKS
  0
BLOCK
  8
0
  2
CUT084
 70
0
 10
0.0
 20
0.0
 30
0.0
  3
CUT084
  0
POLYLINE
  8
0
 62
0
 70
0
 66
1
 10
0.0
 20
0.0
 30
0.0
  0
VERTEX
  8
0
 10
184.5
 20
12.5
 30
0.0
  0
VERTEX
  8
0
 10
184.5
 20
10.7657050761
 30
0.0
  0
VERTEX
  8
0
 10
184.5
 20
6.21357200039
 30
0.0
  0
VERTEX
  8
0
 10
184.5
 20
1.53080849893e-15
 30
0.0
  0
VERTEX
  8
0
 10
184.5
 20
-6.21357200039
 30
0.0
  0
VERTEX
  8
0
 10
184.5
 20
-10.7657050761
 30
0.0
  0
VERTEX
  8
0
 10
184.5
 20
-12.5
 30
0.0
  0
SEQEND
  8
0
  0
POLYLINE
  8
0
 62
0
 70
0
 66
1
 10
0.0
 20
0.0
 30
0.0
  0
VERTEX
  8
0
 10
228.2
 20
12.5
 30
0.0
  0
VERTEX
  8
0
 10
228.2
 20
10.7657050761
 30
0.0
  0
VERTEX
  8
0
 10
228.2
 20
6.21357200039
 30
0.0
  0
VERTEX
  8
0
 10
228.2
 20
1.53080849893e-15
 30
0.0
  0
VERTEX
  8
0
 10
228.2
 20
-6.21357200039
 30
0.0
  0
VERTEX
  8
0
 10
228.2
 20
-10.7657050761
 30
0.0
  0
VERTEX
  8
0
 10
228.2
 20
-12.5
 30
0.0
  0
SEQEND
  8
0
  0
LINE
  8
0
 62
0
 10
196.475079533
 20
-12.4599357944
 30
0.0
 11
196.746553552
 21
-12.4599357944
 31
0.0
  0
POLYLINE
  8
0
 62
0
 70
0
 66
1
 10
0.0
 20
0.0
 30
0.0
  0
VERTEX
  8
0
 10
196.746553552
 20
-12.4990542224
 30
0.0
  0
VERTEX
  8
0
 10
196.746553552
 20
-12.5
 30
0.0
  0
SEQEND
  8
0
  0
LINE
  8
0
 62
0
 10
196.746553552
 20
-12.4990542224
 30
0.0
 11
196.978791092
 21
-12.4990542224
 31
0.0
  0
POLYLINE
  8
0
 62
0
 70
0
 66
1
 10
0.0
 20
0.0
 30
0.0
  0
VERTEX
  8
0
 10
196.978791092
 20
-12.4990542224
 30
0.0
  0
VERTEX
  8
0
 10
197.217391304
 20
-12.4993947106
 30
0.0
  0
SEQEND
  8
0
  0
POLYLINE
  8
0
 62
0
 70
0
 66
1
 10
0.0
 20
0.0
 30
0.0
  0
VERTEX
  8
0
 10
197.217391304
 20
-12.4993947106
 30
0.0
  0
VERTEX
  8
0
 10
197.326617179
 20
-12.4999992803
 30
0.0
  0
SEQEND
  8
0
  0
POLYLINE
  8
0
 62
0
 70
0
 66
1
 10
0.0
 20
0.0
 30
0.0
  0
VERTEX
  8
0
 10
197.326617179
 20
-12.4999992803
 30
0.0
  0
VERTEX
  8
0
 10
197.328063167
 20
-12.5000000014
 30
0.0
  0
SEQEND
  8
0
  0
POLYLINE
  8
0
 62
0
 70
0
 66
1
 10
0.0
 20
0.0
 30
0.0
  0
VERTEX
  8
0
 10
197.328063167
 20
-12.5000000014
 30
0.0
  0
VERTEX
  8
0
 10
197.357370095
 20
-12.4971657818
 30
0.0
  0
SEQEND
  8
0
  0
LINE
  8
0
 62
0
 10
197.357370095
 20
-12.4971657818
 30
0.0
 11
197.4252386
 21
-12.4971657818
 31
0.0
  0
POLYLINE
  8
0
 62
0
 70
0
 66
1
 10
0.0
 20
0.0
 30
0.0
  0
VERTEX
  8
0
 10
197.4252386
 20
-12.4844381337
 30
0.0
  0
VERTEX
  8
0
 10
197.4252386
 20
-12.5
 30
0.0
  0
SEQEND
  8
0
  0
LINE
  8
0
 62
0
 10
197.357370095
 20
-12.4844381337
 30
0.0
 11
197.4252386
 21
-12.4844381337
 31
0.0
  0
POLYLINE
  8
0
 62
0
 70
0
 66
1
 10
0.0
 20
0.0
 30
0.0
  0
VERTEX
  8
0
 10
197.357370095
 20
-12.4844381337
 30
0.0
  0
VERTEX
  8
0
 10
197.326617179
 20
-12.4947068182
 30
0.0
  0
SEQEND
  8
0
  0
POLYLINE
  8
0
 62
0
 70
0
 66
1
 10
0.0
 20
0.0
 30
0.0
  0
VERTEX
  8
0
 10
197.326617179
 20
-12.4947068182
 30
0.0
  0
VERTEX
  8
0
 10
197.217391304
 20
-12.4974731632
 30
0.0
  0
SEQEND
  8
0
  0
POLYLINE
  8
0
 62
0
 70
0
 66
1
 10
0.0
 20
0.0
 30
0.0
  0
VERTEX
  8
0
 10
197.217391304
 20
-12.4974731632
 30
0.0
  0
VERTEX
  8
0
 10
196.978791092
 20
-12.4980349966
 30
0.0
  0
SEQEND
  8
0
  0
LINE
  8
0
 62
0
 10
196.746553552
 20
-12.4980349966
 30
0.0
 11
196.978791092
 21
-12.4980349966
 31
0.0
  0
POLYLINE
  8
0
 62
0
 70
0
 66
1
 10
0.0
 20
0.0
 30
0.0
  0
VERTEX
  8
0
 10
196.746553552
 20
-12.4547562363
 30
0.0
  0
VERTEX
  8
0
 10
196.746553552
 20
-12.4980349966
 30
0.0
  0
SEQEND
  8
0
  0
POLYLINE
  8
0
 62
0
 70
0
 66
1
 10
0.0
 20
0.0
 30
0.0
  0
VERTEX
  8
0
 10
196.746553552
 20
-12.4547562363
 30
0.0
  0
VERTEX
  8
0
 10
196.766702015
 20
-12.4482003336
 30
0.0
  0
SEQEND
  8
0
  0
POLYLINE
  8
0
 62
0
 70
0
 66
1
 10
0.0
 20
0.0
 30
0.0
  0
VERTEX
  8
0
 10
196.766702015
 20
-12.4482003336
 30
0.0
  0
VERTEX
  8
0
 10
196.82078473
 20
-12.4454530353
 30
0.0
  0
SEQEND
  8
0
  0
POLYLINE
  8
0
 62
0
 70
0
 66
1
 10
0.0
 20
0.0
 30
0.0
  0
VERTEX
  8
0
 10
196.82078473
 20
-12.4454530353
 30
0.0
  0
VERTEX
  8
0
 10
196.914103924
 20
-12.4449549276
 30
0.0
  0
SEQEND
  8
0
  0
LINE
  8
0
 62
0
 10
196.914103924
 20
-12.4449549276
 30
0.0
 11
197.237539767
 21
-12.4449549276
 31
0.0
  0
POLYLINE
  8
0
 62
0
 70
0
 66
1
 10
0.0
 20
0.0
 30
0.0
  0
VERTEX
  8
0
 10
197.237539767
 20
-12.4449549276
 30
0.0
  0
VERTEX
  8
0
 10
197.65747614
 20
-12.4497381513
 30
0.0
  0
SEQEND
  8
0
  0
POLYLINE
  8
0
 62
0
 70
0
 66
1
 10
0.0
 20
0.0
 30
0.0
  0
VERTEX
  8
0
 10
197.65747614
 20
-12.4497381513
 30
0.0
  0
VERTEX
  8
0
 10
197.861081654
 20
-12.4652760379
 30
0.0
  0
SEQEND
  8
0
  0
POLYLINE
  8
0
 62
0
 70
0
 66
1
 10
0.0
 20
0.0
 30
0.0
  0
VERTEX
  8
0
 10
197.861081654
 20
-12.4652760379
 30
0.0
  0
VERTEX
  8
0
 10
197.959703075
 20
-12.4904367696
 30
0.0
  0
SEQEND
  8
0
  0
LINE
  8
0
 62
0
 10
197.959703075
 20
-12.4904367696
 30
0.0
 11
198.05514316
 21
-12.4904367696
 31
0.0
  0
POLYLINE
  8
0
 62
0
 70
0
 66
1
 10
0.0
 20
0.0
 30
0.0
  0
VERTEX
  8
0
 10
197.963944857
 20
-12.4383777662
 30
0.0
  0
VERTEX
  8
0
 10
198.05514316
 20
-12.4904367696
 30
0.0
  0
SEQEND
  8
0
  0
LINE
  8
0
 62
0
 10
196.101802757
 20
-12.4383777662
 30
0.0
 11
197.963944857
 21
-12.4383777662
 31
0.0
  0
POLYLINE
  8
0
 62
0
 70
0
 66
1
 10
0.0
 20
0.0
 30
0.0
  0
VERTEX
  8
0
 10
196.101802757
 20
-12.4383777662
 30
0.0
  0
VERTEX
  8
0
 10
196.101802757
 20
-12.4449549276
 30
0.0
  0
SEQEND
  8
0
  0
POLYLINE
  8
0
 62
0
 70
0
 66
1
 10
0.0
 20
0.0
 30
0.0
  0
VERTEX
  8
0
 10
196.101802757
 20
-12.4449549276
 30
0.0
  0
VERTEX
  8
0
 10
196.475079533
 20
-12.4547562363
 30
0.0
  0
SEQEND
  8
0
  0
POLYLINE
  8
0
 62
0
 70
0
 66
1
 10
0.0
 20
0.0
 30
0.0
  0
VERTEX
  8
0
 10
196.475079533
 20
-12.4547562363
 30
0.0
  0
VERTEX
  8
0
 10
196.475079533
 20
-12.5
 30
0.0
  0
SEQEND
  8
0
  0
LINE
  8
0
 62
0
 10
198.714740191
 20
-12.4599357944
 30
0.0
 11
198.98621421
 21
-12.4599357944
 31
0.0
  0
POLYLINE
  8
0
 62
0
 70
0
 66
1
 10
0.0
 20
0.0
 30
0.0
  0
VERTEX
  8
0
 10
198.98621421
 20
-12.4997048711
 30
0.0
  0
VERTEX
  8
0
 10
198.98621421
 20
-12.5
 30
0.0
  0
SEQEND
  8
0
  0
LINE
  8
0
 62
0
 10
198.98621421
 20
-12.4997048711
 30
0.0
 11
199.357370095
 21
-12.4997048711
 31
0.0
  0
POLYLINE
  8
0
 62
0
 70
0
 66
1
 10
0.0
 20
0.0
 30
0.0
  0
VERTEX
  8
0
 10
199.357370095
 20
-12.4997048711
 30
0.0
  0
VERTEX
  8
0
 10
199.587063503
 20
-12.5000000002
 30
0.0
  0
SEQEND
  8
0
  0
POLYLINE
  8
0
 62
0
 70
0
 66
1
 10
0.0
 20
0.0
 30
0.0
  0
VERTEX
  8
0
 10
199.587063503
 20
-12.5000000002
 30
0.0
  0
VERTEX
  8
0
 10
199.619300106
 20
-12.4999595163
 30
0.0
  0
SEQEND
  8
0
  0
POLYLINE
  8
0
 62
0
 70
0
 66
1
 10
0.0
 20
0.0
 30
0.0
  0
VERTEX
  8
0
 10
199.619300106
 20
-12.4999595163
 30
0.0
  0
VERTEX
  8
0
 10
199.675884196
 20
-12.4995207399
 30
0.0
  0
SEQEND
  8
0
  0
POLYLINE
  8
0
 62
0
 70
0
 66
1
 10
0.0
 20
0.0
 30
0.0
  0
VERTEX
  8
0
 10
199.906680806
 20
-12.4998963616
 30
0.0
  0
VERTEX
  8
0
 10
199.854357163
 20
-12.4999999966
 30
0.0
  0
SEQEND
  8
0
  0
POLYLINE
  8
0
 62
0
 70
0
 66
1
 10
0.0
 20
0.0
 30
0.0
  0
VERTEX
  8
0
 10
199.854357163
 20
-12.4999999966
 30
0.0
  0
VERTEX
  8
0
 10
199.662778367
 20
-12.4994753215
 30
0.0
  0
SEQEND
  8
0
  0
POLYLINE
  8
0
 62
0
 70
0
 66
1
 10
0.0
 20
0.0
 30
0.0
  0
VERTEX
  8
0
 10
199.662778367
 20
-12.4994753215
 30
0.0
  0
VERTEX
  8
0
 10
199.920466596
 20
-12.4980724272
 30
0.0
  0
SEQEND
  8
0
  0
POLYLINE
  8
0
 62
0
 70
0
 66
1
 10
0.0
 20
0.0
 30
0.0
  0
VERTEX
  8
0
 10
199.920466596
 20
-12.4980724272
 30
0.0
  0
VERTEX
  8
0
 10
200.127253446
 20
-12.4936051493
 30
0.0
  0
SEQEND
  8
0
  0
POLYLINE
  8
0
 62
0
 70
0
 66
1
 10
0.0
 20
0.0
 30
0.0
  0
VERTEX
  8
0
 10
200.127253446
 20
-12.4936051493
 30
0.0
  0
VERTEX
  8
0
 10
200.207847296
 20
-12.483305966
 30
0.0
  0
SEQEND
  8
0
  0
POLYLINE
  8
0
 62
0
 70
0
 66
1
 10
0.0
 20
0.0
 30
0.0
  0
VERTEX
  8
0
 10
200.207847296
 20
-12.483305966
 30
0.0
  0
VERTEX
  8
0
 10
200.073170732
 20
-12.4622832298
 30
0.0
  0
SEQEND
  8
0
  0
POLYLINE
  8
0
 62
0
 70
0
 66
1
 10
0.0
 20
0.0
 30
0.0
  0
VERTEX
  8
0
 10
200.073170732
 20
-12.4622832298
 30
0.0
  0
VERTEX
  8
0
 10
199.74019088
 20
-12.4448550326
 30
0.0
  0
SEQEND
  8
0
  0
POLYLINE
  8
0
 62
0
 70
0
 66
1
 10
0.0
 20
0.0
 30
0.0
  0
VERTEX
  8
0
 10
199.74019088
 20
-12.4448550326
 30
0.0
  0
VERTEX
  8
0
 10
199.360551432
 20
-12.4383777662
 30
0.0
  0
SEQEND
  8
0
  0
LINE
  8
0
 62
0
 10
198.346765642
 20
-12.4383777662
 30
0.0
 11
199.360551432
 21
-12.4383777662
 31
0.0
  0
POLYLINE
  8
0
 62
0
 70
0
 66
1
 10
0.0
 20
0.0
 30
0.0
  0
VERTEX
  8
0
 10
198.346765642
 20
-12.4383777662
 30
0.0
  0
VERTEX
  8
0
 10
198.346765642
 20
-12.4449549276
 30
0.0
  0
SEQEND
  8
0
  0
POLYLINE
  8
0
 62
0
 70
0
 66
1
 10
0.0
 20
0.0
 30
0.0
  0
VERTEX
  8
0
 10
198.346765642
 20
-12.4449549276
 30
0.0
  0
VERTEX
  8
0
 10
198.714740191
 20
-12.4545751125
 30
0.0
  0
SEQEND
  8
0
  0
POLYLINE
  8
0
 62
0
 70
0
 66
1
 10
0.0
 20
0.0
 30
0.0
  0
VERTEX
  8
0
 10
198.714740191
 20
-12.4545751125
 30
0.0
  0
VERTEX
  8
0
 10
198.714740191
 20
-12.5
 30
0.0
  0
SEQEND
  8
0
  0
POLYLINE
  8
0
 62
0
 70
0
 66
1
 10
0.0
 20
0.0
 30
0.0
  0
VERTEX
  8
0
 10
201.161140562
 20
-12.5000000032
 30
0.0
  0
VERTEX
  8
0
 10
201.158006363
 20
-12.4994154032
 30
0.0
  0
SEQEND
  8
0
  0
POLYLINE
  8
0
 62
0
 70
0
 66
1
 10
0.0
 20
0.0
 30
0.0
  0
VERTEX
  8
0
 10
201.158006363
 20
-12.4994154032
 30
0.0
  0
VERTEX
  8
0
 10
201.20466596
 20
-12.4876429758
 30
0.0
  0
SEQEND
  8
0
  0
POLYLINE
  8
0
 62
0
 70
0
 66
1
 10
0.0
 20
0.0
 30
0.0
  0
VERTEX
  8
0
 10
201.20466596
 20
-12.4876429758
 30
0.0
  0
VERTEX
  8
0
 10
201.373276776
 20
-12.4660635826
 30
0.0
  0
SEQEND
  8
0
  0
POLYLINE
  8
0
 62
0
 70
0
 66
1
 10
0.0
 20
0.0
 30
0.0
  0
VERTEX
  8
0
 10
201.373276776
 20
-12.4660635826
 30
0.0
  0
VERTEX
  8
0
 10
201.655355249
 20
-12.4465408511
 30
0.0
  0
SEQEND
  8
0
  0
POLYLINE
  8
0
 62
0
 70
0
 66
1
 10
0.0
 20
0.0
 30
0.0
  0
VERTEX
  8
0
 10
201.655355249
 20
-12.4465408511
 30
0.0
  0
VERTEX
  8
0
 10
202.008483563
 20
-12.4383777662
 30
0.0
  0
SEQEND
  8
0
  0
POLYLINE
  8
0
 62
0
 70
0
 66
1
 10
0.0
 20
0.0
 30
0.0
  0
VERTEX
  8
0
 10
202.008483563
 20
-12.4383777662
 30
0.0
  0
VERTEX
  8
0
 10
202.434782609
 20
-12.4555667916
 30
0.0
  0
SEQEND
  8
0
  0
POLYLINE
  8
0
 62
0
 70
0
 66
1
 10
0.0
 20
0.0
 30
0.0
  0
VERTEX
  8
0
 10
202.434782609
 20
-12.4555667916
 30
0.0
  0
VERTEX
  8
0
 10
202.557794274
 20
-12.4703062667
 30
0.0
  0
SEQEND
  8
0
  0
POLYLINE
  8
0
 62
0
 70
0
 66
1
 10
0.0
 20
0.0
 30
0.0
  0
VERTEX
  8
0
 10
202.557794274
 20
-12.4703062667
 30
0.0
  0
VERTEX
  8
0
 10
202.645811241
 20
-12.4841187212
 30
0.0
  0
SEQEND
  8
0
  0
POLYLINE
  8
0
 62
0
 70
0
 66
1
 10
0.0
 20
0.0
 30
0.0
  0
VERTEX
  8
0
 10
202.645811241
 20
-12.4841187212
 30
0.0
  0
VERTEX
  8
0
 10
202.680805938
 20
-12.4932613079
 30
0.0
  0
SEQEND
  8
0
  0
POLYLINE
  8
0
 62
0
 70
0
 66
1
 10
0.0
 20
0.0
 30
0.0
  0
VERTEX
  8
0
 10
202.680805938
 20
-12.4932613079
 30
0.0
  0
VERTEX
  8
0
 10
202.709437964
 20
-12.4942013587
 30
0.0
  0
SEQEND
  8
0
  0
LINE
  8
0
 62
0
 10
202.709437964
 20
-12.4942013587
 30
0.0
 11
202.763520679
 21
-12.4942013587
 31
0.0
  0
POLYLINE
  8
0
 62
0
 70
0
 66
1
 10
0.0
 20
0.0
 30
0.0
  0
VERTEX
  8
0
 10
202.763520679
 20
-12.4942013587
 30
0.0
  0
VERTEX
  8
0
 10
202.786850477
 20
-12.4932960975
 30
0.0
  0
SEQEND
  8
0
  0
POLYLINE
  8
0
 62
0
 70
0
 66
1
 10
0.0
 20
0.0
 30
0.0
  0
VERTEX
  8
0
 10
202.786850477
 20
-12.4341864556
 30
0.0
  0
VERTEX
  8
0
 10
202.786850477
 20
-12.4932960975
 30
0.0
  0
SEQEND
  8
0
  0
POLYLINE
  8
0
 62
0
 70
0
 66
1
 10
0.0
 20
0.0
 30
0.0
  0
VERTEX
  8
0
 10
202.786850477
 20
-12.4341864556
 30
0.0
  0
VERTEX
  8
0
 10
202.779427359
 20
-12.4323159762
 30
0.0
  0
SEQEND
  8
0
  0
POLYLINE
  8
0
 62
0
 70
0
 66
1
 10
0.0
 20
0.0
 30
0.0
  0
VERTEX
  8
0
 10
202.779427359
 20
-12.4323159762
 30
0.0
  0
VERTEX
  8
0
 10
202.763520679
 20
-12.4314266072
 30
0.0
  0
SEQEND
  8
0
  0
LINE
  8
0
 62
0
 10
202.742311771
 20
-12.4314266072
 30
0.0
 11
202.763520679
 21
-12.4314266072
 31
0.0
  0
POLYLINE
  8
0
 62
0
 70
0
 66
1
 10
0.0
 20
0.0
 30
0.0
  0
VERTEX
  8
0
 10
202.742311771
 20
-12.4314266072
 30
0.0
  0
VERTEX
  8
0
 10
202.722163309
 20
-12.4322051251
 30
0.0
  0
SEQEND
  8
0
  0
POLYLINE
  8
0
 62
0
 70
0
 66
1
 10
0.0
 20
0.0
 30
0.0
  0
VERTEX
  8
0
 10
202.552492047
 20
-12.4534807293
 30
0.0
  0
VERTEX
  8
0
 10
202.722163309
 20
-12.4322051251
 30
0.0
  0
SEQEND
  8
0
  0
POLYLINE
  8
0
 62
0
 70
0
 66
1
 10
0.0
 20
0.0
 30
0.0
  0
VERTEX
  8
0
 10
202.552492047
 20
-12.4534807293
 30
0.0
  0
VERTEX
  8
0
 10
202.283138918
 20
-12.4376357101
 30
0.0
  0
SEQEND
  8
0
  0
POLYLINE
  8
0
 62
0
 70
0
 66
1
 10
0.0
 20
0.0
 30
0.0
  0
VERTEX
  8
0
 10
202.283138918
 20
-12.4376357101
 30
0.0
  0
VERTEX
  8
0
 10
201.962884411
 20
-12.4314266072
 30
0.0
  0
SEQEND
  8
0
  0
POLYLINE
  8
0
 62
0
 70
0
 66
1
 10
0.0
 20
0.0
 30
0.0
  0
VERTEX
  8
0
 10
201.962884411
 20
-12.4314266072
 30
0.0
  0
VERTEX
  8
0
 10
201.518557794
 20
-12.440887997
 30
0.0
  0
SEQEND
  8
0
  0
POLYLINE
  8
0
 62
0
 70
0
 66
1
 10
0.0
 20
0.0
 30
0.0
  0
VERTEX
  8
0
 10
201.518557794
 20
-12.440887997
 30
0.0
  0
VERTEX
  8
0
 10
201.15164369
 20
-12.4635115044
 30
0.0
  0
SEQEND
  8
0
  0
POLYLINE
  8
0
 62
0
 70
0
 66
1
 10
0.0
 20
0.0
 30
0.0
  0
VERTEX
  8
0
 10
201.15164369
 20
-12.4635115044
 30
0.0
  0
VERTEX
  8
0
 10
200.906680806
 20
-12.486973507
 30
0.0
  0
SEQEND
  8
0
  0
POLYLINE
  8
0
 62
0
 70
0
 66
1
 10
0.0
 20
0.0
 30
0.0
  0
VERTEX
  8
0
 10
200.906680806
 20
-12.486973507
 30
0.0
  0
VERTEX
  8
0
 10
200.818663839
 20
-12.4994154032
 30
0.0
  0
SEQEND
  8
0
  0
POLYLINE
  8
0
 62
0
 70
0
 66
1
 10
0.0
 20
0.0
 30
0.0
  0
VERTEX
  8
0
 10
200.818663839
 20
-12.4994154032
 30
0.0
  0
VERTEX
  8
0
 10
200.824394692
 20
-12.5000000011
 30
0.0
  0
SEQEND
  8
0
  0
POLYLINE
  8
0
 62
0
 70
0
 66
1
 10
0.0
 20
0.0
 30
0.0
  0
VERTEX
  8
0
 10
200.824394692
 20
-12.5000000011
 30
0.0
  0
VERTEX
  8
0
 10
200.970307529
 20
-12.4912488358
 30
0.0
  0
SEQEND
  8
0
  0
POLYLINE
  8
0
 62
0
 70
0
 66
1
 10
0.0
 20
0.0
 30
0.0
  0
VERTEX
  8
0
 10
200.970307529
 20
-12.4912488358
 30
0.0
  0
VERTEX
  8
0
 10
201.158006363
 20
-12.4790822916
 30
0.0
  0
SEQEND
  8
0
  0
LINE
  8
0
 62
0
 10
205.297985154
 20
-12.4599357944
 30
0.0
 11
205.569459173
 21
-12.4599357944
 31
0.0
  0
POLYLINE
  8
0
 62
0
 70
0
 66
1
 10
0.0
 20
0.0
 30
0.0
  0
VERTEX
  8
0
 10
205.569459173
 20
-12.4544844142
 30
0.0
  0
VERTEX
  8
0
 10
205.569459173
 20
-12.5
 30
0.0
  0
SEQEND
  8
0
  0
POLYLINE
  8
0
 62
0
 70
0
 66
1
 10
0.0
 20
0.0
 30
0.0
  0
VERTEX
  8
0
 10
205.569459173
 20
-12.4544844142
 30
0.0
  0
VERTEX
  8
0
 10
205.591728526
 20
-12.4481034459
 30
0.0
  0
SEQEND
  8
0
  0
POLYLINE
  8
0
 62
0
 70
0
 66
1
 10
0.0
 20
0.0
 30
0.0
  0
VERTEX
  8
0
 10
205.591728526
 20
-12.4481034459
 30
0.0
  0
VERTEX
  8
0
 10
205.647932131
 20
-12.4454530353
 30
0.0
  0
SEQEND
  8
0
  0
POLYLINE
  8
0
 62
0
 70
0
 66
1
 10
0.0
 20
0.0
 30
0.0
  0
VERTEX
  8
0
 10
205.647932131
 20
-12.4454530353
 30
0.0
  0
VERTEX
  8
0
 10
205.745493107
 20
-12.4449549276
 30
0.0
  0
SEQEND
  8
0
  0
LINE
  8
0
 62
0
 10
205.745493107
 20
-12.4449549276
 30
0.0
 11
205.891834571
 21
-12.4449549276
 31
0.0
  0
POLYLINE
  8
0
 62
0
 70
0
 66
1
 10
0.0
 20
0.0
 30
0.0
  0
VERTEX
  8
0
 10
205.891834571
 20
-12.4449549276
 30
0.0
  0
VERTEX
  8
0
 10
206.297985154
 20
-12.4564587704
 30
0.0
  0
SEQEND
  8
0
  0
POLYLINE
  8
0
 62
0
 70
0
 66
1
 10
0.0
 20
0.0
 30
0.0
  0
VERTEX
  8
0
 10
206.297985154
 20
-12.4564587704
 30
0.0
  0
VERTEX
  8
0
 10
206.387062566
 20
-12.4714662596
 30
0.0
  0
SEQEND
  8
0
  0
POLYLINE
  8
0
 62
0
 70
0
 66
1
 10
0.0
 20
0.0
 30
0.0
  0
VERTEX
  8
0
 10
206.387062566
 20
-12.4714662596
 30
0.0
  0
VERTEX
  8
0
 10
206.431601273
 20
-12.4908066624
 30
0.0
  0
SEQEND
  8
0
  0
LINE
  8
0
 62
0
 10
206.431601273
 20
-12.4908066624
 30
0.0
 11
206.53340403
 21
-12.4908066624
 31
0.0
  0
POLYLINE
  8
0
 62
0
 70
0
 66
1
 10
0.0
 20
0.0
 30
0.0
  0
VERTEX
  8
0
 10
206.470837752
 20
-12.4383777662
 30
0.0
  0
VERTEX
  8
0
 10
206.53340403
 20
-12.4908066624
 30
0.0
  0
SEQEND
  8
0
  0
LINE
  8
0
 62
0
 10
204.461293743
 20
-12.4383777662
 30
0.0
 11
206.470837752
 21
-12.4383777662
 31
0.0
  0
POLYLINE
  8
0
 62
0
 70
0
 66
1
 10
0.0
 20
0.0
 30
0.0
  0
VERTEX
  8
0
 10
204.398727466
 20
-12.4908066624
 30
0.0
  0
VERTEX
  8
0
 10
204.461293743
 20
-12.4383777662
 30
0.0
  0
SEQEND
  8
0
  0
LINE
  8
0
 62
0
 10
204.398727466
 20
-12.4908066624
 30
0.0
 11
204.49204666
 21
-12.4908066624
 31
0.0
  0
POLYLINE
  8
0
 62
0
 70
0
 66
1
 10
0.0
 20
0.0
 30
0.0
  0
VERTEX
  8
0
 10
204.49204666
 20
-12.4908066624
 30
0.0
  0
VERTEX
  8
0
 10
204.534464475
 20
-12.4720375597
 30
0.0
  0
SEQEND
  8
0
  0
POLYLINE
  8
0
 62
0
 70
0
 66
1
 10
0.0
 20
0.0
 30
0.0
  0
VERTEX
  8
0
 10
204.534464475
 20
-12.4720375597
 30
0.0
  0
VERTEX
  8
0
 10
204.618239661
 20
-12.4564587704
 30
0.0
  0
SEQEND
  8
0
  0
POLYLINE
  8
0
 62
0
 70
0
 66
1
 10
0.0
 20
0.0
 30
0.0
  0
VERTEX
  8
0
 10
204.618239661
 20
-12.4564587704
 30
0.0
  0
VERTEX
  8
0
 10
204.997879109
 20
-12.4449549276
 30
0.0
  0
SEQEND
  8
0
  0
LINE
  8
0
 62
0
 10
204.997879109
 20
-12.4449549276
 30
0.0
 11
205.133616119
 21
-12.4449549276
 31
0.0
  0
POLYLINE
  8
0
 62
0
 70
0
 66
1
 10
0.0
 20
0.0
 30
0.0
  0
VERTEX
  8
0
 10
205.133616119
 20
-12.4449549276
 30
0.0
  0
VERTEX
  8
0
 10
205.258748674
 20
-12.4465408511
 30
0.0
  0
SEQEND
  8
0
  0
POLYLINE
  8
0
 62
0
 70
0
 66
1
 10
0.0
 20
0.0
 30
0.0
  0
VERTEX
  8
0
 10
205.258748674
 20
-12.4465408511
 30
0.0
  0
VERTEX
  8
0
 10
205.297985154
 20
-12.4544844142
 30
0.0
  0
SEQEND
  8
0
  0
POLYLINE
  8
0
 62
0
 70
0
 66
1
 10
0.0
 20
0.0
 30
0.0
  0
VERTEX
  8
0
 10
205.297985154
 20
-12.4544844142
 30
0.0
  0
VERTEX
  8
0
 10
205.297985154
 20
-12.5
 30
0.0
  0
SEQEND
  8
0
  0
POLYLINE
  8
0
 62
0
 70
0
 66
1
 10
0.0
 20
0.0
 30
0.0
  0
VERTEX
  8
0
 10
217.2
 20
10.8253175473
 30
0.0
  0
VERTEX
  8
0
 10
213.710061637
 20
8.64231572969
 30
0.0
  0
VERTEX
  8
0
 10
210.200000009
 20
10.8253175578
 30
0.0
  0
SEQEND
  8
0
  0
POLYLINE
  8
0
 62
0
 70
0
 66
1
 10
0.0
 20
0.0
 30
0.0
  0
VERTEX
  8
0
 10
210.200000009
 20
10.8253175578
 30
0.0
  0
VERTEX
  8
0
 10
213.696488882
 20
12.1423044097
 30
0.0
  0
VERTEX
  8
0
 10
217.2
 20
10.8253175473
 30
0.0
  0
SEQEND
  8
0
  0
POLYLINE
  8
0
 62
0
 70
0
 66
1
 10
0.0
 20
0.0
 30
0.0
  0
VERTEX
  8
0
 10
217.2
 20
4.4e-16
 30
0.0
  0
VERTEX
  8
0
 10
214.649886269
 20
3.36863713614
 30
0.0
  0
VERTEX
  8
0
 10
211.03996092
 20
2.27468507531
 30
0.0
  0
VERTEX
  8
0
 10
211.039679337
 20
-2.27435574529
 30
0.0
  0
VERTEX
  8
0
 10
214.648853578
 20
-3.36892813986
 30
0.0
  0
VERTEX
  8
0
 10
217.2
 20
4.4e-16
 30
0.0
  0
SEQEND
  8
0
  0
POLYLINE
  8
0
 62
0
 70
0
 66
1
 10
0.0
 20
0.0
 30
0.0
  0
VERTEX
  8
0
 10
212.362672322
 20
-12.4786899812
 30
0.0
  0
VERTEX
  8
0
 10
212.49204666
 20
-12.4658473034
 30
0.0
  0
SEQEND
  8
0
  0
POLYLINE
  8
0
 62
0
 70
0
 66
1
 10
0.0
 20
0.0
 30
0.0
  0
VERTEX
  8
0
 10
213.306468717
 20
-12.4666088923
 30
0.0
  0
VERTEX
  8
0
 10
213.325556734
 20
-12.4681446534
 30
0.0
  0
SEQEND
  8
0
  0
POLYLINE
  8
0
 62
0
 70
0
 66
1
 10
0.0
 20
0.0
 30
0.0
  0
VERTEX
  8
0
 10
213.325556734
 20
-12.4681446534
 30
0.0
  0
VERTEX
  8
0
 10
213.525980912
 20
-12.4913675352
 30
0.0
  0
SEQEND
  8
0
  0
POLYLINE
  8
0
 62
0
 70
0
 66
1
 10
0.0
 20
0.0
 30
0.0
  0
VERTEX
  8
0
 10
213.525980912
 20
-12.4913675352
 30
0.0
  0
VERTEX
  8
0
 10
213.57704243
 20
-12.4999999997
 30
0.0
  0
SEQEND
  8
0
  0
POLYLINE
  8
0
 62
0
 70
0
 66
1
 10
0.0
 20
0.0
 30
0.0
  0
VERTEX
  8
0
 10
213.57704243
 20
-12.4999999997
 30
0.0
  0
VERTEX
  8
0
 10
213.577942736
 20
-12.4997732448
 30
0.0
  0
SEQEND
  8
0
  0
POLYLINE
  8
0
 62
0
 70
0
 66
1
 10
0.0
 20
0.0
 30
0.0
  0
VERTEX
  8
0
 10
213.577942736
 20
-12.4997732448
 30
0.0
  0
VERTEX
  8
0
 10
213.551431601
 20
-12.4906020681
 30
0.0
  0
SEQEND
  8
0
  0
POLYLINE
  8
0
 62
0
 70
0
 66
1
 10
0.0
 20
0.0
 30
0.0
  0
VERTEX
  8
0
 10
213.551431601
 20
-12.4906020681
 30
0.0
  0
VERTEX
  8
0
 10
213.454931071
 20
-12.4709616164
 30
0.0
  0
SEQEND
  8
0
  0
POLYLINE
  8
0
 62
0
 70
0
 66
1
 10
0.0
 20
0.0
 30
0.0
  0
VERTEX
  8
0
 10
213.454931071
 20
-12.4709616164
 30
0.0
  0
VERTEX
  8
0
 10
213.248144221
 20
-12.4486834062
 30
0.0
  0
SEQEND
  8
0
  0
POLYLINE
  8
0
 62
0
 70
0
 66
1
 10
0.0
 20
0.0
 30
0.0
  0
VERTEX
  8
0
 10
213.248144221
 20
-12.4486834062
 30
0.0
  0
VERTEX
  8
0
 10
212.900318134
 20
-12.4383777662
 30
0.0
  0
SEQEND
  8
0
  0
POLYLINE
  8
0
 62
0
 70
0
 66
1
 10
0.0
 20
0.0
 30
0.0
  0
VERTEX
  8
0
 10
212.900318134
 20
-12.4383777662
 30
0.0
  0
VERTEX
  8
0
 10
212.475079533
 20
-12.4549369963
 30
0.0
  0
SEQEND
  8
0
  0
POLYLINE
  8
0
 62
0
 70
0
 66
1
 10
0.0
 20
0.0
 30
0.0
  0
VERTEX
  8
0
 10
212.475079533
 20
-12.4549369963
 30
0.0
  0
VERTEX
  8
0
 10
212.271474019
 20
-12.4844381337
 30
0.0
  0
SEQEND
  8
0
  0
POLYLINE
  8
0
 62
0
 70
0
 66
1
 10
0.0
 20
0.0
 30
0.0
  0
VERTEX
  8
0
 10
212.271474019
 20
-12.4844381337
 30
0.0
  0
VERTEX
  8
0
 10
212.220572641
 20
-12.4997732448
 30
0.0
  0
SEQEND
  8
0
  0
POLYLINE
  8
0
 62
0
 70
0
 66
1
 10
0.0
 20
0.0
 30
0.0
  0
VERTEX
  8
0
 10
212.220572641
 20
-12.4997732448
 30
0.0
  0
VERTEX
  8
0
 10
212.221518746
 20
-12.5000000002
 30
0.0
  0
SEQEND
  8
0
  0
POLYLINE
  8
0
 62
0
 70
0
 66
1
 10
0.0
 20
0.0
 30
0.0
  0
VERTEX
  8
0
 10
212.221518746
 20
-12.5000000002
 30
0.0
  0
VERTEX
  8
0
 10
212.362672322
 20
-12.4786899812
 30
0.0
  0
SEQEND
  8
0
  0
LINE
  8
0
 62
0
 10
210.116648993
 20
-12.4599357944
 30
0.0
 11
210.320254507
 21
-12.4599357944
 31
0.0
  0
POLYLINE
  8
0
 62
0
 70
0
 66
1
 10
0.0
 20
0.0
 30
0.0
  0
VERTEX
  8
0
 10
210.320254507
 20
-12.4471295575
 30
0.0
  0
VERTEX
  8
0
 10
210.320254507
 20
-12.5
 30
0.0
  0
SEQEND
  8
0
  0
POLYLINE
  8
0
 62
0
 70
0
 66
1
 10
0.0
 20
0.0
 30
0.0
  0
VERTEX
  8
0
 10
210.320254507
 20
-12.4471295575
 30
0.0
  0
VERTEX
  8
0
 10
210.311770944
 20
-12.4453535961
 30
0.0
  0
SEQEND
  8
0
  0
POLYLINE
  8
0
 62
0
 70
0
 66
1
 10
0.0
 20
0.0
 30
0.0
  0
VERTEX
  8
0
 10
210.311770944
 20
-12.4453535961
 30
0.0
  0
VERTEX
  8
0
 10
210.294803818
 20
-12.4444545409
 30
0.0
  0
SEQEND
  8
0
  0
LINE
  8
0
 62
0
 10
210.257688229
 20
-12.4444545409
 30
0.0
 11
210.294803818
 21
-12.4444545409
 31
0.0
  0
POLYLINE
  8
0
 62
0
 70
0
 66
1
 10
0.0
 20
0.0
 30
0.0
  0
VERTEX
  8
0
 10
210.257688229
 20
-12.4444545409
 30
0.0
  0
VERTEX
  8
0
 10
209.653234358
 20
-12.4624481798
 30
0.0
  0
SEQEND
  8
0
  0
POLYLINE
  8
0
 62
0
 70
0
 66
1
 10
0.0
 20
0.0
 30
0.0
  0
VERTEX
  8
0
 10
209.653234358
 20
-12.4624481798
 30
0.0
  0
VERTEX
  8
0
 10
209.653234358
 20
-12.4675349311
 30
0.0
  0
SEQEND
  8
0
  0
POLYLINE
  8
0
 62
0
 70
0
 66
1
 10
0.0
 20
0.0
 30
0.0
  0
VERTEX
  8
0
 10
209.653234358
 20
-12.4675349311
 30
0.0
  0
VERTEX
  8
0
 10
210.116648993
 20
-12.4639970963
 30
0.0
  0
SEQEND
  8
0
  0
POLYLINE
  8
0
 62
0
 70
0
 66
1
 10
0.0
 20
0.0
 30
0.0
  0
VERTEX
  8
0
 10
210.116648993
 20
-12.4639970963
 30
0.0
  0
VERTEX
  8
0
 10
210.116648993
 20
-12.5
 30
0.0
  0
SEQEND
  8
0
  0
POLYLINE
  8
0
 62
0
 70
0
 66
1
 10
0.0
 20
0.0
 30
0.0
  0
VERTEX
  8
0
 10
215.620360551
 20
-12.4786899812
 30
0.0
  0
VERTEX
  8
0
 10
215.749734889
 20
-12.4658473034
 30
0.0
  0
SEQEND
  8
0
  0
POLYLINE
  8
0
 62
0
 70
0
 66
1
 10
0.0
 20
0.0
 30
0.0
  0
VERTEX
  8
0
 10
216.564156946
 20
-12.4666088923
 30
0.0
  0
VERTEX
  8
0
 10
216.583244963
 20
-12.4681446534
 30
0.0
  0
SEQEND
  8
0
  0
POLYLINE
  8
0
 62
0
 70
0
 66
1
 10
0.0
 20
0.0
 30
0.0
  0
VERTEX
  8
0
 10
216.583244963
 20
-12.4681446534
 30
0.0
  0
VERTEX
  8
0
 10
216.783669141
 20
-12.4913675352
 30
0.0
  0
SEQEND
  8
0
  0
POLYLINE
  8
0
 62
0
 70
0
 66
1
 10
0.0
 20
0.0
 30
0.0
  0
VERTEX
  8
0
 10
216.783669141
 20
-12.4913675352
 30
0.0
  0
VERTEX
  8
0
 10
216.834730659
 20
-12.4999999997
 30
0.0
  0
SEQEND
  8
0
  0
POLYLINE
  8
0
 62
0
 70
0
 66
1
 10
0.0
 20
0.0
 30
0.0
  0
VERTEX
  8
0
 10
216.834730659
 20
-12.4999999997
 30
0.0
  0
VERTEX
  8
0
 10
216.835630965
 20
-12.4997732448
 30
0.0
  0
SEQEND
  8
0
  0
POLYLINE
  8
0
 62
0
 70
0
 66
1
 10
0.0
 20
0.0
 30
0.0
  0
VERTEX
  8
0
 10
216.835630965
 20
-12.4997732448
 30
0.0
  0
VERTEX
  8
0
 10
216.80911983
 20
-12.4906020681
 30
0.0
  0
SEQEND
  8
0
  0
POLYLINE
  8
0
 62
0
 70
0
 66
1
 10
0.0
 20
0.0
 30
0.0
  0
VERTEX
  8
0
 10
216.80911983
 20
-12.4906020681
 30
0.0
  0
VERTEX
  8
0
 10
216.7126193
 20
-12.4709616164
 30
0.0
  0
SEQEND
  8
0
  0
POLYLINE
  8
0
 62
0
 70
0
 66
1
 10
0.0
 20
0.0
 30
0.0
  0
VERTEX
  8
0
 10
216.7126193
 20
-12.4709616164
 30
0.0
  0
VERTEX
  8
0
 10
216.50583245
 20
-12.4486834062
 30
0.0
  0
SEQEND
  8
0
  0
POLYLINE
  8
0
 62
0
 70
0
 66
1
 10
0.0
 20
0.0
 30
0.0
  0
VERTEX
  8
0
 10
216.50583245
 20
-12.4486834062
 30
0.0
  0
VERTEX
  8
0
 10
216.158006363
 20
-12.4383777662
 30
0.0
  0
SEQEND
  8
0
  0
POLYLINE
  8
0
 62
0
 70
0
 66
1
 10
0.0
 20
0.0
 30
0.0
  0
VERTEX
  8
0
 10
216.158006363
 20
-12.4383777662
 30
0.0
  0
VERTEX
  8
0
 10
215.732767762
 20
-12.4549369963
 30
0.0
  0
SEQEND
  8
0
  0
POLYLINE
  8
0
 62
0
 70
0
 66
1
 10
0.0
 20
0.0
 30
0.0
  0
VERTEX
  8
0
 10
215.732767762
 20
-12.4549369963
 30
0.0
  0
VERTEX
  8
0
 10
215.529162248
 20
-12.4844381337
 30
0.0
  0
SEQEND
  8
0
  0
POLYLINE
  8
0
 62
0
 70
0
 66
1
 10
0.0
 20
0.0
 30
0.0
  0
VERTEX
  8
0
 10
215.529162248
 20
-12.4844381337
 30
0.0
  0
VERTEX
  8
0
 10
215.47826087
 20
-12.4997732448
 30
0.0
  0
SEQEND
  8
0
  0
POLYLINE
  8
0
 62
0
 70
0
 66
1
 10
0.0
 20
0.0
 30
0.0
  0
VERTEX
  8
0
 10
215.47826087
 20
-12.4997732448
 30
0.0
  0
VERTEX
  8
0
 10
215.479206975
 20
-12.5000000002
 30
0.0
  0
SEQEND
  8
0
  0
POLYLINE
  8
0
 62
0
 70
0
 66
1
 10
0.0
 20
0.0
 30
0.0
  0
VERTEX
  8
0
 10
215.479206975
 20
-12.5000000002
 30
0.0
  0
VERTEX
  8
0
 10
215.620360551
 20
-12.4786899812
 30
0.0
  0
SEQEND
  8
0
  0
POLYLINE
  8
0
 62
0
 70
0
 66
1
 10
0.0
 20
0.0
 30
0.0
  0
VERTEX
  8
0
 10
213.991516437
 20
-12.4786899812
 30
0.0
  0
VERTEX
  8
0
 10
214.120890774
 20
-12.4658473034
 30
0.0
  0
SEQEND
  8
0
  0
POLYLINE
  8
0
 62
0
 70
0
 66
1
 10
0.0
 20
0.0
 30
0.0
  0
VERTEX
  8
0
 10
214.935312831
 20
-12.4666088923
 30
0.0
  0
VERTEX
  8
0
 10
214.954400848
 20
-12.4681446534
 30
0.0
  0
SEQEND
  8
0
  0
POLYLINE
  8
0
 62
0
 70
0
 66
1
 10
0.0
 20
0.0
 30
0.0
  0
VERTEX
  8
0
 10
214.954400848
 20
-12.4681446534
 30
0.0
  0
VERTEX
  8
0
 10
215.154825027
 20
-12.4913675352
 30
0.0
  0
SEQEND
  8
0
  0
POLYLINE
  8
0
 62
0
 70
0
 66
1
 10
0.0
 20
0.0
 30
0.0
  0
VERTEX
  8
0
 10
215.154825027
 20
-12.4913675352
 30
0.0
  0
VERTEX
  8
0
 10
215.205886545
 20
-12.4999999997
 30
0.0
  0
SEQEND
  8
0
  0
POLYLINE
  8
0
 62
0
 70
0
 66
1
 10
0.0
 20
0.0
 30
0.0
  0
VERTEX
  8
0
 10
215.205886545
 20
-12.4999999997
 30
0.0
  0
VERTEX
  8
0
 10
215.20678685
 20
-12.4997732448
 30
0.0
  0
SEQEND
  8
0
  0
POLYLINE
  8
0
 62
0
 70
0
 66
1
 10
0.0
 20
0.0
 30
0.0
  0
VERTEX
  8
0
 10
215.20678685
 20
-12.4997732448
 30
0.0
  0
VERTEX
  8
0
 10
215.180275716
 20
-12.4906020681
 30
0.0
  0
SEQEND
  8
0
  0
POLYLINE
  8
0
 62
0
 70
0
 66
1
 10
0.0
 20
0.0
 30
0.0
  0
VERTEX
  8
0
 10
215.180275716
 20
-12.4906020681
 30
0.0
  0
VERTEX
  8
0
 10
215.083775186
 20
-12.4709616164
 30
0.0
  0
SEQEND
  8
0
  0
POLYLINE
  8
0
 62
0
 70
0
 66
1
 10
0.0
 20
0.0
 30
0.0
  0
VERTEX
  8
0
 10
215.083775186
 20
-12.4709616164
 30
0.0
  0
VERTEX
  8
0
 10
214.876988335
 20
-12.4486834062
 30
0.0
  0
SEQEND
  8
0
  0
POLYLINE
  8
0
 62
0
 70
0
 66
1
 10
0.0
 20
0.0
 30
0.0
  0
VERTEX
  8
0
 10
214.876988335
 20
-12.4486834062
 30
0.0
  0
VERTEX
  8
0
 10
214.529162248
 20
-12.4383777662
 30
0.0
  0
SEQEND
  8
0
  0
POLYLINE
  8
0
 62
0
 70
0
 66
1
 10
0.0
 20
0.0
 30
0.0
  0
VERTEX
  8
0
 10
214.529162248
 20
-12.4383777662
 30
0.0
  0
VERTEX
  8
0
 10
214.103923648
 20
-12.4549369963
 30
0.0
  0
SEQEND
  8
0
  0
POLYLINE
  8
0
 62
0
 70
0
 66
1
 10
0.0
 20
0.0
 30
0.0
  0
VERTEX
  8
0
 10
214.103923648
 20
-12.4549369963
 30
0.0
  0
VERTEX
  8
0
 10
213.900318134
 20
-12.4844381337
 30
0.0
  0
SEQEND
  8
0
  0
POLYLINE
  8
0
 62
0
 70
0
 66
1
 10
0.0
 20
0.0
 30
0.0
  0
VERTEX
  8
0
 10
213.900318134
 20
-12.4844381337
 30
0.0
  0
VERTEX
  8
0
 10
213.849416755
 20
-12.4997732448
 30
0.0
  0
SEQEND
  8
0
  0
POLYLINE
  8
0
 62
0
 70
0
 66
1
 10
0.0
 20
0.0
 30
0.0
  0
VERTEX
  8
0
 10
213.849416755
 20
-12.4997732448
 30
0.0
  0
VERTEX
  8
0
 10
213.85036286
 20
-12.5000000002
 30
0.0
  0
SEQEND
  8
0
  0
POLYLINE
  8
0
 62
0
 70
0
 66
1
 10
0.0
 20
0.0
 30
0.0
  0
VERTEX
  8
0
 10
213.85036286
 20
-12.5000000002
 30
0.0
  0
VERTEX
  8
0
 10
213.991516437
 20
-12.4786899812
 30
0.0
  0
SEQEND
  8
0
  0
POLYLINE
  8
0
 62
0
 70
0
 66
1
 10
0.0
 20
0.0
 30
0.0
  0
VERTEX
  8
0
 10
217.2
 20
-10.8253175473
 30
0.0
  0
VERTEX
  8
0
 10
213.710061176
 20
-12.1423012676
 30
0.0
  0
VERTEX
  8
0
 10
210.200000009
 20
-10.8253175407
 30
0.0
  0
SEQEND
  8
0
  0
POLYLINE
  8
0
 62
0
 70
0
 66
1
 10
0.0
 20
0.0
 30
0.0
  0
VERTEX
  8
0
 10
210.200000009
 20
-10.8253175407
 30
0.0
  0
VERTEX
  8
0
 10
213.696486489
 20
-8.64230617265
 30
0.0
  0
VERTEX
  8
0
 10
217.2
 20
-10.8253175473
 30
0.0
  0
SEQEND
  8
0
  0
POLYLINE
  8
0
 62
0
 70
0
 66
1
 10
0.0
 20
0.0
 30
0.0
  0
VERTEX
  8
0
 10
208.019088017
 20
-12.4786899812
 30
0.0
  0
VERTEX
  8
0
 10
208.148462354
 20
-12.4658473034
 30
0.0
  0
SEQEND
  8
0
  0
POLYLINE
  8
0
 62
0
 70
0
 66
1
 10
0.0
 20
0.0
 30
0.0
  0
VERTEX
  8
0
 10
208.962884411
 20
-12.4666088923
 30
0.0
  0
VERTEX
  8
0
 10
208.981972428
 20
-12.4681446534
 30
0.0
  0
SEQEND
  8
0
  0
POLYLINE
  8
0
 62
0
 70
0
 66
1
 10
0.0
 20
0.0
 30
0.0
  0
VERTEX
  8
0
 10
208.981972428
 20
-12.4681446534
 30
0.0
  0
VERTEX
  8
0
 10
209.182396607
 20
-12.4913675352
 30
0.0
  0
SEQEND
  8
0
  0
POLYLINE
  8
0
 62
0
 70
0
 66
1
 10
0.0
 20
0.0
 30
0.0
  0
VERTEX
  8
0
 10
209.182396607
 20
-12.4913675352
 30
0.0
  0
VERTEX
  8
0
 10
209.233458125
 20
-12.4999999997
 30
0.0
  0
SEQEND
  8
0
  0
POLYLINE
  8
0
 62
0
 70
0
 66
1
 10
0.0
 20
0.0
 30
0.0
  0
VERTEX
  8
0
 10
209.233458125
 20
-12.4999999997
 30
0.0
  0
VERTEX
  8
0
 10
209.234358431
 20
-12.4997732448
 30
0.0
  0
SEQEND
  8
0
  0
POLYLINE
  8
0
 62
0
 70
0
 66
1
 10
0.0
 20
0.0
 30
0.0
  0
VERTEX
  8
0
 10
209.234358431
 20
-12.4997732448
 30
0.0
  0
VERTEX
  8
0
 10
209.207847296
 20
-12.4906020681
 30
0.0
  0
SEQEND
  8
0
  0
POLYLINE
  8
0
 62
0
 70
0
 66
1
 10
0.0
 20
0.0
 30
0.0
  0
VERTEX
  8
0
 10
209.207847296
 20
-12.4906020681
 30
0.0
  0
VERTEX
  8
0
 10
209.111346766
 20
-12.4709616164
 30
0.0
  0
SEQEND
  8
0
  0
POLYLINE
  8
0
 62
0
 70
0
 66
1
 10
0.0
 20
0.0
 30
0.0
  0
VERTEX
  8
0
 10
209.111346766
 20
-12.4709616164
 30
0.0
  0
VERTEX
  8
0
 10
208.904559915
 20
-12.4486834062
 30
0.0
  0
SEQEND
  8
0
  0
POLYLINE
  8
0
 62
0
 70
0
 66
1
 10
0.0
 20
0.0
 30
0.0
  0
VERTEX
  8
0
 10
208.904559915
 20
-12.4486834062
 30
0.0
  0
VERTEX
  8
0
 10
208.556733828
 20
-12.4383777662
 30
0.0
  0
SEQEND
  8
0
  0
POLYLINE
  8
0
 62
0
 70
0
 66
1
 10
0.0
 20
0.0
 30
0.0
  0
VERTEX
  8
0
 10
208.556733828
 20
-12.4383777662
 30
0.0
  0
VERTEX
  8
0
 10
208.131495228
 20
-12.4549369963
 30
0.0
  0
SEQEND
  8
0
  0
POLYLINE
  8
0
 62
0
 70
0
 66
1
 10
0.0
 20
0.0
 30
0.0
  0
VERTEX
  8
0
 10
208.131495228
 20
-12.4549369963
 30
0.0
  0
VERTEX
  8
0
 10
207.927889714
 20
-12.4844381337
 30
0.0
  0
SEQEND
  8
0
  0
POLYLINE
  8
0
 62
0
 70
0
 66
1
 10
0.0
 20
0.0
 30
0.0
  0
VERTEX
  8
0
 10
207.927889714
 20
-12.4844381337
 30
0.0
  0
VERTEX
  8
0
 10
207.876988335
 20
-12.4997732448
 30
0.0
  0
SEQEND
  8
0
  0
POLYLINE
  8
0
 62
0
 70
0
 66
1
 10
0.0
 20
0.0
 30
0.0
  0
VERTEX
  8
0
 10
207.876988335
 20
-12.4997732448
 30
0.0
  0
VERTEX
  8
0
 10
207.87793444
 20
-12.5000000002
 30
0.0
  0
SEQEND
  8
0
  0
POLYLINE
  8
0
 62
0
 70
0
 66
1
 10
0.0
 20
0.0
 30
0.0
  0
VERTEX
  8
0
 10
207.87793444
 20
-12.5000000002
 30
0.0
  0
VERTEX
  8
0
 10
208.019088017
 20
-12.4786899812
 30
0.0
  0
SEQEND
  8
0
  0
POLYLINE
  8
0
 62
0
 70
0
 66
1
 10
0.0
 20
0.0
 30
0.0
  0
VERTEX
  8
0
 10
226.2
 20
-6.25
 30
0.0
  0
VERTEX
  8
0
 10
224.269421914
 20
-3.34181891119
 30
0.0
  0
VERTEX
  8
0
 10
221.149278142
 20
-3.33254955282
 30
0.0
  0
VERTEX
  8
0
 10
219.200000009
 20
-6.25000001588
 30
0.0
  0
SEQEND
  8
0
  0
POLYLINE
  8
0
 62
0
 70
0
 66
1
 10
0.0
 20
0.0
 30
0.0
  0
VERTEX
  8
0
 10
219.200000009
 20
-6.25000001588
 30
0.0
  0
VERTEX
  8
0
 10
222.696488956
 20
-9.03108764493
 30
0.0
  0
VERTEX
  8
0
 10
226.2
 20
-6.25
 30
0.0
  0
SEQEND
  8
0
  0
POLYLINE
  8
0
 62
0
 70
0
 66
1
 10
0.0
 20
0.0
 30
0.0
  0
VERTEX
  8
0
 10
225.356077977
 20
-12.290433287
 30
0.0
  0
VERTEX
  8
0
 10
225.236158685
 20
-12.2650764729
 30
0.0
  0
SEQEND
  8
0
  0
POLYLINE
  8
0
 62
0
 70
0
 66
1
 10
0.0
 20
0.0
 30
0.0
  0
VERTEX
  8
0
 10
224.793179571
 20
-12.1811904458
 30
0.0
  0
VERTEX
  8
0
 10
224.727984491
 20
-12.1701569873
 30
0.0
  0
SEQEND
  8
0
  0
POLYLINE
  8
0
 62
0
 70
0
 66
1
 10
0.0
 20
0.0
 30
0.0
  0
VERTEX
  8
0
 10
224.671597447
 20
-12.1608879868
 30
0.0
  0
VERTEX
  8
0
 10
224.598625355
 20
-12.1492706988
 30
0.0
  0
SEQEND
  8
0
  0
POLYLINE
  8
0
 62
0
 70
0
 66
1
 10
0.0
 20
0.0
 30
0.0
  0
VERTEX
  8
0
 10
224.325270282
 20
-12.1095624759
 30
0.0
  0
VERTEX
  8
0
 10
224.268111886
 20
-12.1020235865
 30
0.0
  0
SEQEND
  8
0
  0
POLYLINE
  8
0
 62
0
 70
0
 66
1
 10
0.0
 20
0.0
 30
0.0
  0
VERTEX
  8
0
 10
222.523229131
 20
-12.0013019485
 30
0.0
  0
VERTEX
  8
0
 10
222.379879894
 20
-12.0042691246
 30
0.0
  0
SEQEND
  8
0
  0
POLYLINE
  8
0
 62
0
 70
0
 66
1
 10
0.0
 20
0.0
 30
0.0
  0
VERTEX
  8
0
 10
221.790559613
 20
-12.0344124195
 30
0.0
  0
VERTEX
  8
0
 10
221.562323708
 20
-12.0538088354
 30
0.0
  0
SEQEND
  8
0
  0
POLYLINE
  8
0
 62
0
 70
0
 66
1
 10
0.0
 20
0.0
 30
0.0
  0
VERTEX
  8
0
 10
221.045376818
 20
-12.1135369761
 30
0.0
  0
VERTEX
  8
0
 10
220.832547286
 20
-12.1444382069
 30
0.0
  0
SEQEND
  8
0
  0
POLYLINE
  8
0
 62
0
 70
0
 66
1
 10
0.0
 20
0.0
 30
0.0
  0
VERTEX
  8
0
 10
220.433189778
 20
-12.2122245597
 30
0.0
  0
VERTEX
  8
0
 10
220.267152013
 20
-12.2441312114
 30
0.0
  0
SEQEND
  8
0
  0
POLYLINE
  8
0
 62
0
 70
0
 66
1
 10
0.0
 20
0.0
 30
0.0
  0
VERTEX
  8
0
 10
220.0867529
 20
-12.2812483306
 30
0.0
  0
VERTEX
  8
0
 10
219.200000009
 20
-12.5000000022
 30
0.0
  0
SEQEND
  8
0
  0
POLYLINE
  8
0
 62
0
 70
0
 66
1
 10
0.0
 20
0.0
 30
0.0
  0
VERTEX
  8
0
 10
219.200000009
 20
-12.5000000022
 30
0.0
  0
VERTEX
  8
0
 10
222.696488948
 20
-12.0000005137
 30
0.0
  0
VERTEX
  8
0
 10
226.2
 20
-12.5
 30
0.0
  0
SEQEND
  8
0
  0
LINE
  8
0
 62
0
 10
217.717921527
 20
-12.4599357944
 30
0.0
 11
217.921527041
 21
-12.4599357944
 31
0.0
  0
POLYLINE
  8
0
 62
0
 70
0
 66
1
 10
0.0
 20
0.0
 30
0.0
  0
VERTEX
  8
0
 10
217.921527041
 20
-12.4471295575
 30
0.0
  0
VERTEX
  8
0
 10
217.921527041
 20
-12.5
 30
0.0
  0
SEQEND
  8
0
  0
POLYLINE
  8
0
 62
0
 70
0
 66
1
 10
0.0
 20
0.0
 30
0.0
  0
VERTEX
  8
0
 10
217.921527041
 20
-12.4471295575
 30
0.0
  0
VERTEX
  8
0
 10
217.913043478
 20
-12.4453535961
 30
0.0
  0
SEQEND
  8
0
  0
POLYLINE
  8
0
 62
0
 70
0
 66
1
 10
0.0
 20
0.0
 30
0.0
  0
VERTEX
  8
0
 10
217.913043478
 20
-12.4453535961
 30
0.0
  0
VERTEX
  8
0
 10
217.896076352
 20
-12.4444545409
 30
0.0
  0
SEQEND
  8
0
  0
LINE
  8
0
 62
0
 10
217.858960764
 20
-12.4444545409
 30
0.0
 11
217.896076352
 21
-12.4444545409
 31
0.0
  0
POLYLINE
  8
0
 62
0
 70
0
 66
1
 10
0.0
 20
0.0
 30
0.0
  0
VERTEX
  8
0
 10
217.858960764
 20
-12.4444545409
 30
0.0
  0
VERTEX
  8
0
 10
217.254506893
 20
-12.4624481798
 30
0.0
  0
SEQEND
  8
0
  0
POLYLINE
  8
0
 62
0
 70
0
 66
1
 10
0.0
 20
0.0
 30
0.0
  0
VERTEX
  8
0
 10
217.254506893
 20
-12.4624481798
 30
0.0
  0
VERTEX
  8
0
 10
217.254506893
 20
-12.4675349311
 30
0.0
  0
SEQEND
  8
0
  0
POLYLINE
  8
0
 62
0
 70
0
 66
1
 10
0.0
 20
0.0
 30
0.0
  0
VERTEX
  8
0
 10
217.254506893
 20
-12.4675349311
 30
0.0
  0
VERTEX
  8
0
 10
217.717921527
 20
-12.4639970963
 30
0.0
  0
SEQEND
  8
0
  0
POLYLINE
  8
0
 62
0
 70
0
 66
1
 10
0.0
 20
0.0
 30
0.0
  0
VERTEX
  8
0
 10
217.717921527
 20
-12.4639970963
 30
0.0
  0
VERTEX
  8
0
 10
217.717921527
 20
-12.5
 30
0.0
  0
SEQEND
  8
0
  0
POLYLINE
  8
0
 62
0
 70
0
 66
1
 10
0.0
 20
0.0
 30
0.0
  0
VERTEX
  8
0
 10
219.257075927
 20
-5.6969040608
 30
0.0
  0
VERTEX
  8
0
 10
219.32431679
 20
-5.43221153187
 30
0.0
  0
SEQEND
  8
0
  0
POLYLINE
  8
0
 62
0
 70
0
 66
1
 10
0.0
 20
0.0
 30
0.0
  0
VERTEX
  8
0
 10
219.394840955
 20
-5.22620749085
 30
0.0
  0
VERTEX
  8
0
 10
219.394846564
 20
-5.22619280358
 30
0.0
  0
SEQEND
  8
0
  0
POLYLINE
  8
0
 62
0
 70
0
 66
1
 10
0.0
 20
0.0
 30
0.0
  0
VERTEX
  8
0
 10
219.395770217
 20
-5.22377717511
 30
0.0
  0
VERTEX
  8
0
 10
219.395773043
 20
-5.22376979354
 30
0.0
  0
SEQEND
  8
0
  0
POLYLINE
  8
0
 62
0
 70
0
 66
1
 10
0.0
 20
0.0
 30
0.0
  0
VERTEX
  8
0
 10
219.396701408
 20
-5.221347822
 30
0.0
  0
VERTEX
  8
0
 10
219.396706178
 20
-5.22133539124
 30
0.0
  0
SEQEND
  8
0
  0
POLYLINE
  8
0
 62
0
 70
0
 66
1
 10
0.0
 20
0.0
 30
0.0
  0
VERTEX
  8
0
 10
219.397540658
 20
-5.21916345036
 30
0.0
  0
VERTEX
  8
0
 10
219.397543116
 20
-5.21915705974
 30
0.0
  0
SEQEND
  8
0
  0
POLYLINE
  8
0
 62
0
 70
0
 66
1
 10
0.0
 20
0.0
 30
0.0
  0
VERTEX
  8
0
 10
219.399221563
 20
-5.21480292476
 30
0.0
  0
VERTEX
  8
0
 10
219.399223828
 20
-5.21479706097
 30
0.0
  0
SEQEND
  8
0
  0
POLYLINE
  8
0
 62
0
 70
0
 66
1
 10
0.0
 20
0.0
 30
0.0
  0
VERTEX
  8
0
 10
219.400063068
 20
-5.21262712283
 30
0.0
  0
VERTEX
  8
0
 10
219.400067744
 20
-5.21261504802
 30
0.0
  0
SEQEND
  8
0
  0
POLYLINE
  8
0
 62
0
 70
0
 66
1
 10
0.0
 20
0.0
 30
0.0
  0
VERTEX
  8
0
 10
219.400296669
 20
-5.21202396857
 30
0.0
  0
VERTEX
  8
0
 10
219.402189647
 20
-5.20714978322
 30
0.0
  0
SEQEND
  8
0
  0
POLYLINE
  8
0
 62
0
 70
0
 66
1
 10
0.0
 20
0.0
 30
0.0
  0
VERTEX
  8
0
 10
219.534875489
 20
-4.91137199976
 30
0.0
  0
VERTEX
  8
0
 10
219.819160737
 20
-4.44912064088
 30
0.0
  0
SEQEND
  8
0
  0
POLYLINE
  8
0
 62
0
 70
0
 66
1
 10
0.0
 20
0.0
 30
0.0
  0
VERTEX
  8
0
 10
219.819926351
 20
-4.44807069691
 30
0.0
  0
VERTEX
  8
0
 10
219.984134239
 20
-4.2397957093
 30
0.0
  0
SEQEND
  8
0
  0
POLYLINE
  8
0
 62
0
 70
0
 66
1
 10
0.0
 20
0.0
 30
0.0
  0
VERTEX
  8
0
 10
220.073750195
 20
-4.13836193916
 30
0.0
  0
VERTEX
  8
0
 10
220.073758787
 20
-4.13835257424
 30
0.0
  0
SEQEND
  8
0
  0
POLYLINE
  8
0
 62
0
 70
0
 66
1
 10
0.0
 20
0.0
 30
0.0
  0
VERTEX
  8
0
 10
220.076243283
 20
-4.13564738422
 30
0.0
  0
VERTEX
  8
0
 10
220.076253378
 20
-4.13563640294
 30
0.0
  0
SEQEND
  8
0
  0
POLYLINE
  8
0
 62
0
 70
0
 66
1
 10
0.0
 20
0.0
 30
0.0
  0
VERTEX
  8
0
 10
220.078738482
 20
-4.13293608342
 30
0.0
  0
VERTEX
  8
0
 10
220.078750154
 20
-4.13292341357
 30
0.0
  0
SEQEND
  8
0
  0
POLYLINE
  8
0
 62
0
 70
0
 66
1
 10
0.0
 20
0.0
 30
0.0
  0
VERTEX
  8
0
 10
220.081235788
 20
-4.13022803797
 30
0.0
  0
VERTEX
  8
0
 10
220.08124911
 20
-4.1302136065
 30
0.0
  0
SEQEND
  8
0
  0
POLYLINE
  8
0
 62
0
 70
0
 66
1
 10
0.0
 20
0.0
 30
0.0
  0
VERTEX
  8
0
 10
220.083735193
 20
-4.12752324911
 30
0.0
  0
VERTEX
  8
0
 10
220.08375024
 20
-4.1275069821
 30
0.0
  0
SEQEND
  8
0
  0
POLYLINE
  8
0
 62
0
 70
0
 66
1
 10
0.0
 20
0.0
 30
0.0
  0
VERTEX
  8
0
 10
226.12449831
 20
-5.613349226
 30
0.0
  0
VERTEX
  8
0
 10
226.124500497
 20
-5.61335849528
 30
0.0
  0
SEQEND
  8
0
  0
POLYLINE
  8
0
 62
0
 70
0
 66
1
 10
0.0
 20
0.0
 30
0.0
  0
VERTEX
  8
0
 10
226.125150589
 20
-5.61612012379
 30
0.0
  0
VERTEX
  8
0
 10
226.125153504
 20
-5.61613253658
 30
0.0
  0
SEQEND
  8
0
  0
POLYLINE
  8
0
 62
0
 70
0
 66
1
 10
0.0
 20
0.0
 30
0.0
  0
VERTEX
  8
0
 10
226.125800176
 20
-5.61889162581
 30
0.0
  0
VERTEX
  8
0
 10
226.12580382
 20
-5.61890720746
 30
0.0
  0
SEQEND
  8
0
  0
POLYLINE
  8
0
 62
0
 70
0
 66
1
 10
0.0
 20
0.0
 30
0.0
  0
VERTEX
  8
0
 10
226.12644707
 20
-5.62166372863
 30
0.0
  0
VERTEX
  8
0
 10
226.151929289
 20
-5.74267492339
 30
0.0
  0
SEQEND
  8
0
  0
POLYLINE
  8
0
 62
0
 70
0
 66
1
 10
0.0
 20
0.0
 30
0.0
  0
VERTEX
  8
0
 10
219.256587169
 20
5.69929157697
 30
0.0
  0
VERTEX
  8
0
 10
219.324316999
 20
5.43221084155
 30
0.0
  0
SEQEND
  8
0
  0
POLYLINE
  8
0
 62
0
 70
0
 66
1
 10
0.0
 20
0.0
 30
0.0
  0
VERTEX
  8
0
 10
219.394841282
 20
5.22620663592
 30
0.0
  0
VERTEX
  8
0
 10
219.394846892
 20
5.22619194571
 30
0.0
  0
SEQEND
  8
0
  0
POLYLINE
  8
0
 62
0
 70
0
 66
1
 10
0.0
 20
0.0
 30
0.0
  0
VERTEX
  8
0
 10
219.395770545
 20
5.22377631832
 30
0.0
  0
VERTEX
  8
0
 10
219.395773371
 20
5.22376893525
 30
0.0
  0
SEQEND
  8
0
  0
POLYLINE
  8
0
 62
0
 70
0
 66
1
 10
0.0
 20
0.0
 30
0.0
  0
VERTEX
  8
0
 10
219.396701737
 20
5.22134696335
 30
0.0
  0
VERTEX
  8
0
 10
219.396706541
 20
5.22133444589
 30
0.0
  0
SEQEND
  8
0
  0
POLYLINE
  8
0
 62
0
 70
0
 66
1
 10
0.0
 20
0.0
 30
0.0
  0
VERTEX
  8
0
 10
219.397540989
 20
5.21916259004
 30
0.0
  0
VERTEX
  8
0
 10
219.39754348
 20
5.21915611334
 30
0.0
  0
SEQEND
  8
0
  0
POLYLINE
  8
0
 62
0
 70
0
 66
1
 10
0.0
 20
0.0
 30
0.0
  0
VERTEX
  8
0
 10
219.399221929
 20
5.2148019764
 30
0.0
  0
VERTEX
  8
0
 10
219.399224162
 20
5.21479619732
 30
0.0
  0
SEQEND
  8
0
  0
POLYLINE
  8
0
 62
0
 70
0
 66
1
 10
0.0
 20
0.0
 30
0.0
  0
VERTEX
  8
0
 10
219.400063436
 20
5.21262617357
 30
0.0
  0
VERTEX
  8
0
 10
219.400068079
 20
5.21261418271
 30
0.0
  0
SEQEND
  8
0
  0
POLYLINE
  8
0
 62
0
 70
0
 66
1
 10
0.0
 20
0.0
 30
0.0
  0
VERTEX
  8
0
 10
219.400297005
 20
5.21202310281
 30
0.0
  0
VERTEX
  8
0
 10
219.403053994
 20
5.20493210478
 30
0.0
  0
SEQEND
  8
0
  0
POLYLINE
  8
0
 62
0
 70
0
 66
1
 10
0.0
 20
0.0
 30
0.0
  0
VERTEX
  8
0
 10
219.534876788
 20
4.91136944934
 30
0.0
  0
VERTEX
  8
0
 10
219.819162761
 20
4.44911786401
 30
0.0
  0
SEQEND
  8
0
  0
POLYLINE
  8
0
 62
0
 70
0
 66
1
 10
0.0
 20
0.0
 30
0.0
  0
VERTEX
  8
0
 10
219.819928379
 20
4.44806791669
 30
0.0
  0
VERTEX
  8
0
 10
219.98413708
 20
4.2397923692
 30
0.0
  0
SEQEND
  8
0
  0
POLYLINE
  8
0
 62
0
 70
0
 66
1
 10
0.0
 20
0.0
 30
0.0
  0
VERTEX
  8
0
 10
220.073751739
 20
4.13836025621
 30
0.0
  0
VERTEX
  8
0
 10
220.07376031
 20
4.13835091463
 30
0.0
  0
SEQEND
  8
0
  0
POLYLINE
  8
0
 62
0
 70
0
 66
1
 10
0.0
 20
0.0
 30
0.0
  0
VERTEX
  8
0
 10
220.076244836
 20
4.13564569422
 30
0.0
  0
VERTEX
  8
0
 10
220.076254908
 20
4.13563473931
 30
0.0
  0
SEQEND
  8
0
  0
POLYLINE
  8
0
 62
0
 70
0
 66
1
 10
0.0
 20
0.0
 30
0.0
  0
VERTEX
  8
0
 10
220.078740046
 20
4.13293438646
 30
0.0
  0
VERTEX
  8
0
 10
220.078751691
 20
4.13292174593
 30
0.0
  0
SEQEND
  8
0
  0
POLYLINE
  8
0
 62
0
 70
0
 66
1
 10
0.0
 20
0.0
 30
0.0
  0
VERTEX
  8
0
 10
220.081237361
 20
4.13022633416
 30
0.0
  0
VERTEX
  8
0
 10
220.081250653
 20
4.13021193486
 30
0.0
  0
SEQEND
  8
0
  0
POLYLINE
  8
0
 62
0
 70
0
 66
1
 10
0.0
 20
0.0
 30
0.0
  0
VERTEX
  8
0
 10
220.083736775
 20
4.12752153853
 30
0.0
  0
VERTEX
  8
0
 10
220.08375179
 20
4.12750530647
 30
0.0
  0
SEQEND
  8
0
  0
POLYLINE
  8
0
 62
0
 70
0
 66
1
 10
0.0
 20
0.0
 30
0.0
  0
VERTEX
  8
0
 10
226.124497611
 20
5.6133462622
 30
0.0
  0
VERTEX
  8
0
 10
226.124499798
 20
5.61335553139
 30
0.0
  0
SEQEND
  8
0
  0
POLYLINE
  8
0
 62
0
 70
0
 66
1
 10
0.0
 20
0.0
 30
0.0
  0
VERTEX
  8
0
 10
226.125149896
 20
5.61611717394
 30
0.0
  0
VERTEX
  8
0
 10
226.125152811
 20
5.61612958661
 30
0.0
  0
SEQEND
  8
0
  0
POLYLINE
  8
0
 62
0
 70
0
 66
1
 10
0.0
 20
0.0
 30
0.0
  0
VERTEX
  8
0
 10
226.125799489
 20
5.61888868993
 30
0.0
  0
VERTEX
  8
0
 10
226.125803133
 20
5.61890427143
 30
0.0
  0
SEQEND
  8
0
  0
POLYLINE
  8
0
 62
0
 70
0
 66
1
 10
0.0
 20
0.0
 30
0.0
  0
VERTEX
  8
0
 10
226.12644639
 20
5.62166080672
 30
0.0
  0
VERTEX
  8
0
 10
226.126450761
 20
5.62167958148
 30
0.0
  0
SEQEND
  8
0
  0
POLYLINE
  8
0
 62
0
 70
0
 66
1
 10
0.0
 20
0.0
 30
0.0
  0
VERTEX
  8
0
 10
225.356077978
 20
12.2904332871
 30
0.0
  0
VERTEX
  8
0
 10
225.236211188
 20
12.2650873294
 30
0.0
  0
SEQEND
  8
0
  0
POLYLINE
  8
0
 62
0
 70
0
 66
1
 10
0.0
 20
0.0
 30
0.0
  0
VERTEX
  8
0
 10
224.793179579
 20
12.1811904473
 30
0.0
  0
VERTEX
  8
0
 10
224.727984508
 20
12.1701569901
 30
0.0
  0
SEQEND
  8
0
  0
POLYLINE
  8
0
 62
0
 70
0
 66
1
 10
0.0
 20
0.0
 30
0.0
  0
VERTEX
  8
0
 10
224.671597453
 20
12.1608879878
 30
0.0
  0
VERTEX
  8
0
 10
224.598625361
 20
12.1492706997
 30
0.0
  0
SEQEND
  8
0
  0
POLYLINE
  8
0
 62
0
 70
0
 66
1
 10
0.0
 20
0.0
 30
0.0
  0
VERTEX
  8
0
 10
224.325270297
 20
12.1095624779
 30
0.0
  0
VERTEX
  8
0
 10
224.268110497
 20
12.1020234064
 30
0.0
  0
SEQEND
  8
0
  0
POLYLINE
  8
0
 62
0
 70
0
 66
1
 10
0.0
 20
0.0
 30
0.0
  0
VERTEX
  8
0
 10
222.523240456
 20
12.0013017818
 30
0.0
  0
VERTEX
  8
0
 10
222.379854914
 20
12.0042697908
 30
0.0
  0
SEQEND
  8
0
  0
POLYLINE
  8
0
 62
0
 70
0
 66
1
 10
0.0
 20
0.0
 30
0.0
  0
VERTEX
  8
0
 10
221.790578062
 20
12.0344110254
 30
0.0
  0
VERTEX
  8
0
 10
221.562315295
 20
12.0538096295
 30
0.0
  0
SEQEND
  8
0
  0
POLYLINE
  8
0
 62
0
 70
0
 66
1
 10
0.0
 20
0.0
 30
0.0
  0
VERTEX
  8
0
 10
221.045383863
 20
12.1135360138
 30
0.0
  0
VERTEX
  8
0
 10
220.832547766
 20
12.144438133
 30
0.0
  0
SEQEND
  8
0
  0
POLYLINE
  8
0
 62
0
 70
0
 66
1
 10
0.0
 20
0.0
 30
0.0
  0
VERTEX
  8
0
 10
220.43319166
 20
12.2122242105
 30
0.0
  0
VERTEX
  8
0
 10
220.267151676
 20
12.2441312782
 30
0.0
  0
SEQEND
  8
0
  0
POLYLINE
  8
0
 62
0
 70
0
 66
1
 10
0.0
 20
0.0
 30
0.0
  0
VERTEX
  8
0
 10
220.086754165
 20
12.2812480615
 30
0.0
  0
VERTEX
  8
0
 10
219.200000009
 20
12.5000000022
 30
0.0
  0
SEQEND
  8
0
  0
POLYLINE
  8
0
 62
0
 70
0
 66
1
 10
0.0
 20
0.0
 30
0.0
  0
VERTEX
  8
0
 10
219.200000009
 20
12.5000000022
 30
0.0
  0
VERTEX
  8
0
 10
222.696488949
 20
12.0000005137
 30
0.0
  0
VERTEX
  8
0
 10
226.2
 20
12.5
 30
0.0
  0
SEQEND
  8
0
  0
POLYLINE
  8
0
 62
0
 70
0
 66
1
 10
0.0
 20
0.0
 30
0.0
  0
VERTEX
  8
0
 10
226.2
 20
6.25
 30
0.0
  0
VERTEX
  8
0
 10
224.269416553
 20
3.34181623454
 30
0.0
  0
VERTEX
  8
0
 10
221.149275334
 20
3.33255093443
 30
0.0
  0
VERTEX
  8
0
 10
219.200000009
 20
6.25000001589
 30
0.0
  0
SEQEND
  8
0
  0
POLYLINE
  8
0
 62
0
 70
0
 66
1
 10
0.0
 20
0.0
 30
0.0
  0
VERTEX
  8
0
 10
219.200000009
 20
6.25000001589
 30
0.0
  0
VERTEX
  8
0
 10
222.696488885
 20
9.03108764488
 30
0.0
  0
VERTEX
  8
0
 10
226.2
 20
6.25
 30
0.0
  0
SEQEND
  8
0
  0
LINE
  8
0
 62
0
 10
196.746553552
 20
-12.4980349966
 30
0.0
 11
196.746553552
 21
-12.4990542224
 31
0.0
  0
LINE
  8
0
 62
0
 10
197.217391304
 20
-12.4974731632
 30
0.0
 11
197.217391304
 21
-12.4993947106
 31
0.0
  0
LINE
  8
0
 62
0
 10
197.326617179
 20
-12.4947068182
 30
0.0
 11
197.326617179
 21
-12.4999992803
 31
0.0
  0
LINE
  8
0
 62
0
 10
197.357370095
 20
-12.4844381337
 30
0.0
 11
197.357370095
 21
-12.4971657818
 31
0.0
  0
LINE
  8
0
 62
0
 10
197.4252386
 20
-12.4844381337
 30
0.0
 11
197.4252386
 21
-12.4971657818
 31
0.0
  0
LINE
  8
0
 62
0
 10
196.746553552
 20
-12.4383777662
 30
0.0
 11
196.746553552
 21
-12.4547562363
 31
0.0
  0
LINE
  8
0
 62
0
 10
196.766702015
 20
-12.4383777662
 30
0.0
 11
196.766702015
 21
-12.4482003336
 31
0.0
  0
LINE
  8
0
 62
0
 10
196.82078473
 20
-12.4383777662
 30
0.0
 11
196.82078473
 21
-12.4454530353
 31
0.0
  0
LINE
  8
0
 62
0
 10
197.65747614
 20
-12.4383777662
 30
0.0
 11
197.65747614
 21
-12.4497381513
 31
0.0
  0
LINE
  8
0
 62
0
 10
197.959703075
 20
-12.4383777662
 30
0.0
 11
197.959703075
 21
-12.4904367696
 31
0.0
  0
LINE
  8
0
 62
0
 10
196.101802757
 20
-12.4383777662
 30
0.0
 11
196.101802757
 21
-12.4449549276
 31
0.0
  0
LINE
  8
0
 62
0
 10
196.475079533
 20
-12.4383777662
 30
0.0
 11
196.475079533
 21
-12.4547562363
 31
0.0
  0
LINE
  8
0
 62
0
 10
198.98621421
 20
-12.4990542224
 30
0.0
 11
198.98621421
 21
-12.4997048711
 31
0.0
  0
LINE
  8
0
 62
0
 10
199.619300106
 20
-12.4983458896
 30
0.0
 11
199.619300106
 21
-12.4999595163
 31
0.0
  0
LINE
  8
0
 62
0
 10
199.662778367
 20
-12.4979911232
 30
0.0
 11
199.662778367
 21
-12.4994753215
 31
0.0
  0
LINE
  8
0
 62
0
 10
200.127253446
 20
-12.4671144565
 30
0.0
 11
200.127253446
 21
-12.4936051493
 31
0.0
  0
LINE
  8
0
 62
0
 10
198.346765642
 20
-12.4383777662
 30
0.0
 11
198.346765642
 21
-12.4449549276
 31
0.0
  0
LINE
  8
0
 62
0
 10
198.714740191
 20
-12.4383777662
 30
0.0
 11
198.714740191
 21
-12.4545751125
 31
0.0
  0
LINE
  8
0
 62
0
 10
201.158006363
 20
-12.4630002435
 30
0.0
 11
201.158006363
 21
-12.4994154032
 31
0.0
  0
LINE
  8
0
 62
0
 10
201.373276776
 20
-12.4482168765
 30
0.0
 11
201.373276776
 21
-12.4660635826
 31
0.0
  0
LINE
  8
0
 62
0
 10
201.655355249
 20
-12.4358781616
 30
0.0
 11
201.655355249
 21
-12.4465408511
 31
0.0
  0
LINE
  8
0
 62
0
 10
202.434782609
 20
-12.445197279
 30
0.0
 11
202.434782609
 21
-12.4555667916
 31
0.0
  0
LINE
  8
0
 62
0
 10
202.557794274
 20
-12.4528766976
 30
0.0
 11
202.557794274
 21
-12.4703062667
 31
0.0
  0
LINE
  8
0
 62
0
 10
202.645811241
 20
-12.4422769016
 30
0.0
 11
202.645811241
 21
-12.4841187212
 31
0.0
  0
LINE
  8
0
 62
0
 10
202.680805938
 20
-12.4377619098
 30
0.0
 11
202.680805938
 21
-12.4932613079
 31
0.0
  0
LINE
  8
0
 62
0
 10
205.569459173
 20
-12.4383777662
 30
0.0
 11
205.569459173
 21
-12.4544844142
 31
0.0
  0
LINE
  8
0
 62
0
 10
205.591728526
 20
-12.4383777662
 30
0.0
 11
205.591728526
 21
-12.4481034459
 31
0.0
  0
LINE
  8
0
 62
0
 10
205.647932131
 20
-12.4383777662
 30
0.0
 11
205.647932131
 21
-12.4454530353
 31
0.0
  0
LINE
  8
0
 62
0
 10
206.297985154
 20
-12.4383777662
 30
0.0
 11
206.297985154
 21
-12.4564587704
 31
0.0
  0
LINE
  8
0
 62
0
 10
206.431601273
 20
-12.4383777662
 30
0.0
 11
206.431601273
 21
-12.4908066624
 31
0.0
  0
LINE
  8
0
 62
0
 10
204.49204666
 20
-12.4383777662
 30
0.0
 11
204.49204666
 21
-12.4908066624
 31
0.0
  0
LINE
  8
0
 62
0
 10
204.618239661
 20
-12.4383777662
 30
0.0
 11
204.618239661
 21
-12.4564587704
 31
0.0
  0
LINE
  8
0
 62
0
 10
205.258748674
 20
-12.4383777662
 30
0.0
 11
205.258748674
 21
-12.4465408511
 31
0.0
  0
LINE
  8
0
 62
0
 10
205.297985154
 20
-12.4383777662
 30
0.0
 11
205.297985154
 21
-12.4544844142
 31
0.0
  0
POLYLINE
  8
0
 62
0
 70
0
 66
1
 10
0.0
 20
0.0
 30
0.0
  0
VERTEX
  8
0
 10
210.670463953
 20
9.84203173387
 30
0.0
  0
VERTEX
  8
0
 10
213.69981327
 20
10.3232140988
 30
0.0
  0
VERTEX
  8
0
 10
216.72953604
 20
9.84203174639
 30
0.0
  0
SEQEND
  8
0
  0
POLYLINE
  8
0
 62
0
 70
0
 66
1
 10
0.0
 20
0.0
 30
0.0
  0
VERTEX
  8
0
 10
217.2
 20
0.0
 30
0.0
  0
VERTEX
  8
0
 10
217.139674953
 20
0.647021020946
 30
0.0
  0
SEQEND
  8
0
  0
POLYLINE
  8
0
 62
0
 70
0
 66
1
 10
0.0
 20
0.0
 30
0.0
  0
VERTEX
  8
0
 10
217.139231133
 20
0.649376005307
 30
0.0
  0
VERTEX
  8
0
 10
217.116730699
 20
0.758914567316
 30
0.0
  0
SEQEND
  8
0
  0
POLYLINE
  8
0
 62
0
 70
0
 66
1
 10
0.0
 20
0.0
 30
0.0
  0
VERTEX
  8
0
 10
217.116006478
 20
0.762167785205
 30
0.0
  0
VERTEX
  8
0
 10
217.111592104
 20
0.781690033605
 30
0.0
  0
SEQEND
  8
0
  0
POLYLINE
  8
0
 62
0
 70
0
 66
1
 10
0.0
 20
0.0
 30
0.0
  0
VERTEX
  8
0
 10
216.902738985
 20
1.41154633014
 30
0.0
  0
VERTEX
  8
0
 10
216.815714266
 20
1.59446684601
 30
0.0
  0
SEQEND
  8
0
  0
POLYLINE
  8
0
 62
0
 70
0
 66
1
 10
0.0
 20
0.0
 30
0.0
  0
VERTEX
  8
0
 10
216.812303494
 20
1.60111425891
 30
0.0
  0
VERTEX
  8
0
 10
215.754639317
 20
2.83345327963
 30
0.0
  0
SEQEND
  8
0
  0
POLYLINE
  8
0
 62
0
 70
0
 66
1
 10
0.0
 20
0.0
 30
0.0
  0
VERTEX
  8
0
 10
215.753359
 20
2.83438124267
 30
0.0
  0
VERTEX
  8
0
 10
215.747208722
 20
2.8388266355
 30
0.0
  0
SEQEND
  8
0
  0
POLYLINE
  8
0
 62
0
 70
0
 66
1
 10
0.0
 20
0.0
 30
0.0
  0
VERTEX
  8
0
 10
215.741146228
 20
2.84318875435
 30
0.0
  0
VERTEX
  8
0
 10
215.741108985
 20
2.84321549107
 30
0.0
  0
SEQEND
  8
0
  0
POLYLINE
  8
0
 62
0
 70
0
 66
1
 10
0.0
 20
0.0
 30
0.0
  0
VERTEX
  8
0
 10
214.77594317
 20
3.33051743611
 30
0.0
  0
VERTEX
  8
0
 10
213.62824788
 20
3.49926444364
 30
0.0
  0
SEQEND
  8
0
  0
POLYLINE
  8
0
 62
0
 70
0
 66
1
 10
0.0
 20
0.0
 30
0.0
  0
VERTEX
  8
0
 10
213.624755943
 20
3.49919109885
 30
0.0
  0
VERTEX
  8
0
 10
213.554359839
 20
3.49696854216
 30
0.0
  0
SEQEND
  8
0
  0
POLYLINE
  8
0
 62
0
 70
0
 66
1
 10
0.0
 20
0.0
 30
0.0
  0
VERTEX
  8
0
 10
213.551630669
 20
3.49685381222
 30
0.0
  0
VERTEX
  8
0
 10
213.536730383
 20
3.49618979469
 30
0.0
  0
SEQEND
  8
0
  0
POLYLINE
  8
0
 62
0
 70
0
 66
1
 10
0.0
 20
0.0
 30
0.0
  0
VERTEX
  8
0
 10
213.014445626
 20
3.43220266344
 30
0.0
  0
VERTEX
  8
0
 10
213.01269888
 20
3.43185330304
 30
0.0
  0
SEQEND
  8
0
  0
POLYLINE
  8
0
 62
0
 70
0
 66
1
 10
0.0
 20
0.0
 30
0.0
  0
VERTEX
  8
0
 10
212.693449984
 20
3.35214216902
 30
0.0
  0
VERTEX
  8
0
 10
212.693417577
 20
3.35213243791
 30
0.0
  0
SEQEND
  8
0
  0
POLYLINE
  8
0
 62
0
 70
0
 66
1
 10
0.0
 20
0.0
 30
0.0
  0
VERTEX
  8
0
 10
212.651548036
 20
3.33927365867
 30
0.0
  0
VERTEX
  8
0
 10
211.450179503
 20
2.68110196938
 30
0.0
  0
SEQEND
  8
0
  0
POLYLINE
  8
0
 62
0
 70
0
 66
1
 10
0.0
 20
0.0
 30
0.0
  0
VERTEX
  8
0
 10
211.450121356
 20
2.68105317515
 30
0.0
  0
VERTEX
  8
0
 10
211.450096296
 20
2.68103214504
 30
0.0
  0
SEQEND
  8
0
  0
POLYLINE
  8
0
 62
0
 70
0
 66
1
 10
0.0
 20
0.0
 30
0.0
  0
VERTEX
  8
0
 10
211.223513719
 20
2.47326013767
 30
0.0
  0
VERTEX
  8
0
 10
211.221989397
 20
2.47173288684
 30
0.0
  0
SEQEND
  8
0
  0
POLYLINE
  8
0
 62
0
 70
0
 66
1
 10
0.0
 20
0.0
 30
0.0
  0
VERTEX
  8
0
 10
211.059055523
 20
2.29682656947
 30
0.0
  0
VERTEX
  8
0
 10
211.042217539
 20
2.2773213306
 30
0.0
  0
SEQEND
  8
0
  0
POLYLINE
  8
0
 62
0
 70
0
 66
1
 10
0.0
 20
0.0
 30
0.0
  0
VERTEX
  8
0
 10
210.87341962
 20
2.06408412397
 30
0.0
  0
VERTEX
  8
0
 10
210.706406283
 20
1.8133937163
 30
0.0
  0
SEQEND
  8
0
  0
POLYLINE
  8
0
 62
0
 70
0
 66
1
 10
0.0
 20
0.0
 30
0.0
  0
VERTEX
  8
0
 10
210.703676911
 20
1.80888033295
 30
0.0
  0
VERTEX
  8
0
 10
210.694954103
 20
1.79435204814
 30
0.0
  0
SEQEND
  8
0
  0
POLYLINE
  8
0
 62
0
 70
0
 66
1
 10
0.0
 20
0.0
 30
0.0
  0
VERTEX
  8
0
 10
210.690110942
 20
1.78621610376
 30
0.0
  0
VERTEX
  8
0
 10
210.685607329
 20
1.77860533332
 30
0.0
  0
SEQEND
  8
0
  0
POLYLINE
  8
0
 62
0
 70
0
 66
1
 10
0.0
 20
0.0
 30
0.0
  0
VERTEX
  8
0
 10
210.669894819
 20
1.75170279407
 30
0.0
  0
VERTEX
  8
0
 10
210.618088076
 20
1.65886071912
 30
0.0
  0
SEQEND
  8
0
  0
POLYLINE
  8
0
 62
0
 70
0
 66
1
 10
0.0
 20
0.0
 30
0.0
  0
VERTEX
  8
0
 10
210.615291282
 20
1.65365417095
 30
0.0
  0
VERTEX
  8
0
 10
210.615284155
 20
1.65364087549
 30
0.0
  0
SEQEND
  8
0
  0
POLYLINE
  8
0
 62
0
 70
0
 66
1
 10
0.0
 20
0.0
 30
0.0
  0
VERTEX
  8
0
 10
210.612501507
 20
1.64843957801
 30
0.0
  0
VERTEX
  8
0
 10
210.612487431
 20
1.64841321323
 30
0.0
  0
SEQEND
  8
0
  0
POLYLINE
  8
0
 62
0
 70
0
 66
1
 10
0.0
 20
0.0
 30
0.0
  0
VERTEX
  8
0
 10
210.609718779
 20
1.64321695303
 30
0.0
  0
VERTEX
  8
0
 10
210.60969789
 20
1.64317766698
 30
0.0
  0
SEQEND
  8
0
  0
POLYLINE
  8
0
 62
0
 70
0
 66
1
 10
0.0
 20
0.0
 30
0.0
  0
VERTEX
  8
0
 10
210.606943126
 20
1.63798630882
 30
0.0
  0
VERTEX
  8
0
 10
210.226986233
 20
-0.433791854355
 30
0.0
  0
SEQEND
  8
0
  0
POLYLINE
  8
0
 62
0
 70
0
 66
1
 10
0.0
 20
0.0
 30
0.0
  0
VERTEX
  8
0
 10
210.571867905
 20
-1.56996474072
 30
0.0
  0
VERTEX
  8
0
 10
210.583184205
 20
-1.59231247772
 30
0.0
  0
SEQEND
  8
0
  0
POLYLINE
  8
0
 62
0
 70
0
 66
1
 10
0.0
 20
0.0
 30
0.0
  0
VERTEX
  8
0
 10
210.583908702
 20
-1.59372982358
 30
0.0
  0
VERTEX
  8
0
 10
210.600985408
 20
-1.62668631726
 30
0.0
  0
SEQEND
  8
0
  0
POLYLINE
  8
0
 62
0
 70
0
 66
1
 10
0.0
 20
0.0
 30
0.0
  0
VERTEX
  8
0
 10
210.601209384
 20
-1.62711294326
 30
0.0
  0
VERTEX
  8
0
 10
210.622025617
 20
-1.66615534357
 30
0.0
  0
SEQEND
  8
0
  0
POLYLINE
  8
0
 62
0
 70
0
 66
1
 10
0.0
 20
0.0
 30
0.0
  0
VERTEX
  8
0
 10
210.756174478
 20
-1.89311684518
 30
0.0
  0
VERTEX
  8
0
 10
210.883782848
 20
-2.07820135422
 30
0.0
  0
SEQEND
  8
0
  0
POLYLINE
  8
0
 62
0
 70
0
 66
1
 10
0.0
 20
0.0
 30
0.0
  0
VERTEX
  8
0
 10
210.885150404
 20
-2.08005328445
 30
0.0
  0
VERTEX
  8
0
 10
210.899231219
 20
-2.09897455135
 30
0.0
  0
SEQEND
  8
0
  0
POLYLINE
  8
0
 62
0
 70
0
 66
1
 10
0.0
 20
0.0
 30
0.0
  0
VERTEX
  8
0
 10
210.901582984
 20
-2.10210897459
 30
0.0
  0
VERTEX
  8
0
 10
210.90159666
 20
-2.1021271812
 30
0.0
  0
SEQEND
  8
0
  0
POLYLINE
  8
0
 62
0
 70
0
 66
1
 10
0.0
 20
0.0
 30
0.0
  0
VERTEX
  8
0
 10
211.024570671
 20
-2.25656332187
 30
0.0
  0
VERTEX
  8
0
 10
211.416626028
 20
-2.6525842834
 30
0.0
  0
SEQEND
  8
0
  0
POLYLINE
  8
0
 62
0
 70
0
 66
1
 10
0.0
 20
0.0
 30
0.0
  0
VERTEX
  8
0
 10
211.417496242
 20
-2.65333312532
 30
0.0
  0
VERTEX
  8
0
 10
211.417541139
 20
-2.65337174668
 30
0.0
  0
SEQEND
  8
0
  0
POLYLINE
  8
0
 62
0
 70
0
 66
1
 10
0.0
 20
0.0
 30
0.0
  0
VERTEX
  8
0
 10
211.638942654
 20
-2.82878822488
 30
0.0
  0
VERTEX
  8
0
 10
211.638961412
 20
-2.8288018921
 30
0.0
  0
SEQEND
  8
0
  0
POLYLINE
  8
0
 62
0
 70
0
 66
1
 10
0.0
 20
0.0
 30
0.0
  0
VERTEX
  8
0
 10
212.852094256
 20
-3.39574083265
 30
0.0
  0
VERTEX
  8
0
 10
212.853469609
 20
-3.39608395793
 30
0.0
  0
SEQEND
  8
0
  0
POLYLINE
  8
0
 62
0
 70
0
 66
1
 10
0.0
 20
0.0
 30
0.0
  0
VERTEX
  8
0
 10
213.50517241
 20
-3.49457325938
 30
0.0
  0
VERTEX
  8
0
 10
213.726651568
 20
-3.49989852654
 30
0.0
  0
SEQEND
  8
0
  0
POLYLINE
  8
0
 62
0
 70
0
 66
1
 10
0.0
 20
0.0
 30
0.0
  0
VERTEX
  8
0
 10
213.731804594
 20
-3.49985549284
 30
0.0
  0
VERTEX
  8
0
 10
213.783994009
 20
-3.49899200111
 30
0.0
  0
SEQEND
  8
0
  0
POLYLINE
  8
0
 62
0
 70
0
 66
1
 10
0.0
 20
0.0
 30
0.0
  0
VERTEX
  8
0
 10
213.789375911
 20
-3.49885866619
 30
0.0
  0
VERTEX
  8
0
 10
213.818810317
 20
-3.4979828672
 30
0.0
  0
SEQEND
  8
0
  0
POLYLINE
  8
0
 62
0
 70
0
 66
1
 10
0.0
 20
0.0
 30
0.0
  0
VERTEX
  8
0
 10
216.769501043
 20
-1.6817144074
 30
0.0
  0
VERTEX
  8
0
 10
216.886954015
 20
-1.44683249658
 30
0.0
  0
SEQEND
  8
0
  0
POLYLINE
  8
0
 62
0
 70
0
 66
1
 10
0.0
 20
0.0
 30
0.0
  0
VERTEX
  8
0
 10
216.887307242
 20
-1.44605418747
 30
0.0
  0
VERTEX
  8
0
 10
216.893839716
 20
-1.43156838024
 30
0.0
  0
SEQEND
  8
0
  0
POLYLINE
  8
0
 62
0
 70
0
 66
1
 10
0.0
 20
0.0
 30
0.0
  0
VERTEX
  8
0
 10
216.894250732
 20
-1.43065104803
 30
0.0
  0
VERTEX
  8
0
 10
216.894264913
 20
-1.43061938499
 30
0.0
  0
SEQEND
  8
0
  0
POLYLINE
  8
0
 62
0
 70
0
 66
1
 10
0.0
 20
0.0
 30
0.0
  0
VERTEX
  8
0
 10
217.128313397
 20
-0.704746321333
 30
0.0
  0
VERTEX
  8
0
 10
217.130136064
 20
-0.695820889945
 30
0.0
  0
SEQEND
  8
0
  0
POLYLINE
  8
0
 62
0
 70
0
 66
1
 10
0.0
 20
0.0
 30
0.0
  0
VERTEX
  8
0
 10
217.131875979
 20
-0.687188029681
 30
0.0
  0
VERTEX
  8
0
 10
217.131907943
 20
-0.687028383003
 30
0.0
  0
SEQEND
  8
0
  0
POLYLINE
  8
0
 62
0
 70
0
 66
1
 10
0.0
 20
0.0
 30
0.0
  0
VERTEX
  8
0
 10
217.133624756
 20
-0.678396019312
 30
0.0
  0
VERTEX
  8
0
 10
217.133657303
 20
-0.678231269927
 30
0.0
  0
SEQEND
  8
0
  0
POLYLINE
  8
0
 62
0
 70
0
 66
1
 10
0.0
 20
0.0
 30
0.0
  0
VERTEX
  8
0
 10
217.135351794
 20
-0.669595534547
 30
0.0
  0
VERTEX
  8
0
 10
217.135386673
 20
-0.669416559711
 30
0.0
  0
SEQEND
  8
0
  0
POLYLINE
  8
0
 62
0
 70
0
 66
1
 10
0.0
 20
0.0
 30
0.0
  0
VERTEX
  8
0
 10
217.137057044
 20
-0.660786653147
 30
0.0
  0
VERTEX
  8
0
 10
217.137090874
 20
-0.660610664605
 30
0.0
  0
SEQEND
  8
0
  0
POLYLINE
  8
0
 62
0
 70
0
 66
1
 10
0.0
 20
0.0
 30
0.0
  0
VERTEX
  8
0
 10
217.138740461
 20
-0.65196945302
 30
0.0
  0
VERTEX
  8
0
 10
217.138775298
 20
-0.651785678845
 30
0.0
  0
SEQEND
  8
0
  0
POLYLINE
  8
0
 62
0
 70
0
 66
1
 10
0.0
 20
0.0
 30
0.0
  0
VERTEX
  8
0
 10
217.140401997
 20
-0.643144012218
 30
0.0
  0
VERTEX
  8
0
 10
217.140438117
 20
-0.642950763507
 30
0.0
  0
SEQEND
  8
0
  0
POLYLINE
  8
0
 62
0
 70
0
 66
1
 10
0.0
 20
0.0
 30
0.0
  0
VERTEX
  8
0
 10
217.142041607
 20
-0.634310408936
 30
0.0
  0
VERTEX
  8
0
 10
217.142078989
 20
-0.634107525653
 30
0.0
  0
SEQEND
  8
0
  0
POLYLINE
  8
0
 62
0
 70
0
 66
1
 10
0.0
 20
0.0
 30
0.0
  0
VERTEX
  8
0
 10
217.143659245
 20
-0.625468721513
 30
0.0
  0
VERTEX
  8
0
 10
217.143697592
 20
-0.625257557051
 30
0.0
  0
SEQEND
  8
0
  0
POLYLINE
  8
0
 62
0
 70
0
 66
1
 10
0.0
 20
0.0
 30
0.0
  0
VERTEX
  8
0
 10
217.145254866
 20
-0.61661902843
 30
0.0
  0
VERTEX
  8
0
 10
217.145291957
 20
-0.616411750395
 30
0.0
  0
SEQEND
  8
0
  0
POLYLINE
  8
0
 62
0
 70
0
 66
1
 10
0.0
 20
0.0
 30
0.0
  0
VERTEX
  8
0
 10
217.146828424
 20
-0.607761408307
 30
0.0
  0
VERTEX
  8
0
 10
217.146867194
 20
-0.607541486088
 30
0.0
  0
SEQEND
  8
0
  0
POLYLINE
  8
0
 62
0
 70
0
 66
1
 10
0.0
 20
0.0
 30
0.0
  0
VERTEX
  8
0
 10
217.148379875
 20
-0.598895939904
 30
0.0
  0
VERTEX
  8
0
 10
217.148418419
 20
-0.598673963728
 30
0.0
  0
SEQEND
  8
0
  0
POLYLINE
  8
0
 62
0
 70
0
 66
1
 10
0.0
 20
0.0
 30
0.0
  0
VERTEX
  8
0
 10
217.149909175
 20
-0.590022702121
 30
0.0
  0
VERTEX
  8
0
 10
217.151367451
 20
-0.581431693312
 30
0.0
  0
SEQEND
  8
0
  0
POLYLINE
  8
0
 62
0
 70
0
 66
1
 10
0.0
 20
0.0
 30
0.0
  0
VERTEX
  8
0
 10
217.15141628
 20
-0.581141773994
 30
0.0
  0
VERTEX
  8
0
 10
217.152787181
 20
-0.572940465945
 30
0.0
  0
SEQEND
  8
0
  0
POLYLINE
  8
0
 62
0
 70
0
 66
1
 10
0.0
 20
0.0
 30
0.0
  0
VERTEX
  8
0
 10
217.152901146
 20
-0.572253234696
 30
0.0
  0
VERTEX
  8
0
 10
217.154217063
 20
-0.564255766364
 30
0.0
  0
SEQEND
  8
0
  0
POLYLINE
  8
0
 62
0
 70
0
 66
1
 10
0.0
 20
0.0
 30
0.0
  0
VERTEX
  8
0
 10
217.154363732
 20
-0.563357163536
 30
0.0
  0
VERTEX
  8
0
 10
217.155631522
 20
-0.555527555708
 30
0.0
  0
SEQEND
  8
0
  0
POLYLINE
  8
0
 62
0
 70
0
 66
1
 10
0.0
 20
0.0
 30
0.0
  0
VERTEX
  8
0
 10
217.155803993
 20
-0.554453639957
 30
0.0
  0
VERTEX
  8
0
 10
217.157028572
 20
-0.546766429805
 30
0.0
  0
SEQEND
  8
0
  0
POLYLINE
  8
0
 62
0
 70
0
 66
1
 10
0.0
 20
0.0
 30
0.0
  0
VERTEX
  8
0
 10
217.157221889
 20
-0.545542743535
 30
0.0
  0
VERTEX
  8
0
 10
217.158407665
 20
-0.53797442898
 30
0.0
  0
SEQEND
  8
0
  0
POLYLINE
  8
0
 62
0
 70
0
 66
1
 10
0.0
 20
0.0
 30
0.0
  0
VERTEX
  8
0
 10
217.158617376
 20
-0.536624553978
 30
0.0
  0
VERTEX
  8
0
 10
217.159763608
 20
-0.529184120687
 30
0.0
  0
SEQEND
  8
0
  0
POLYLINE
  8
0
 62
0
 70
0
 66
1
 10
0.0
 20
0.0
 30
0.0
  0
VERTEX
  8
0
 10
217.159990414
 20
-0.527699151127
 30
0.0
  0
VERTEX
  8
0
 10
217.171008726
 20
-0.449553564649
 30
0.0
  0
SEQEND
  8
0
  0
POLYLINE
  8
0
 62
0
 70
0
 66
1
 10
0.0
 20
0.0
 30
0.0
  0
VERTEX
  8
0
 10
217.171330881
 20
-0.447059164423
 30
0.0
  0
VERTEX
  8
0
 10
217.172323747
 20
-0.439280971658
 30
0.0
  0
SEQEND
  8
0
  0
POLYLINE
  8
0
 62
0
 70
0
 66
1
 10
0.0
 20
0.0
 30
0.0
  0
VERTEX
  8
0
 10
217.172645693
 20
-0.43672859002
 30
0.0
  0
VERTEX
  8
0
 10
217.173588522
 20
-0.429165168338
 30
0.0
  0
SEQEND
  8
0
  0
POLYLINE
  8
0
 62
0
 70
0
 66
1
 10
0.0
 20
0.0
 30
0.0
  0
VERTEX
  8
0
 10
217.173930317
 20
-0.42638962199
 30
0.0
  0
VERTEX
  8
0
 10
217.174491152
 20
-0.421795194642
 30
0.0
  0
SEQEND
  8
0
  0
POLYLINE
  8
0
 62
0
 70
0
 66
1
 10
0.0
 20
0.0
 30
0.0
  0
VERTEX
  8
0
 10
217.17449954
 20
-0.421726098257
 30
0.0
  0
VERTEX
  8
0
 10
217.180759358
 20
-0.366489005735
 30
0.0
  0
SEQEND
  8
0
  0
POLYLINE
  8
0
 62
0
 70
0
 66
1
 10
0.0
 20
0.0
 30
0.0
  0
VERTEX
  8
0
 10
217.181079552
 20
-0.363435070833
 30
0.0
  0
VERTEX
  8
0
 10
217.181081768
 20
-0.363413848804
 30
0.0
  0
SEQEND
  8
0
  0
POLYLINE
  8
0
 62
0
 70
0
 66
1
 10
0.0
 20
0.0
 30
0.0
  0
VERTEX
  8
0
 10
217.181399168
 20
-0.360360553167
 30
0.0
  0
VERTEX
  8
0
 10
217.181401499
 20
-0.360338036279
 30
0.0
  0
SEQEND
  8
0
  0
POLYLINE
  8
0
 62
0
 70
0
 66
1
 10
0.0
 20
0.0
 30
0.0
  0
VERTEX
  8
0
 10
217.181716107
 20
-0.357285386137
 30
0.0
  0
VERTEX
  8
0
 10
217.18171855
 20
-0.357261571513
 30
0.0
  0
SEQEND
  8
0
  0
POLYLINE
  8
0
 62
0
 70
0
 66
1
 10
0.0
 20
0.0
 30
0.0
  0
VERTEX
  8
0
 10
217.182030366
 20
-0.35420957297
 30
0.0
  0
VERTEX
  8
0
 10
217.182032921
 20
-0.35418445786
 30
0.0
  0
SEQEND
  8
0
  0
POLYLINE
  8
0
 62
0
 70
0
 66
1
 10
0.0
 20
0.0
 30
0.0
  0
VERTEX
  8
0
 10
217.182341945
 20
-0.351133116899
 30
0.0
  0
VERTEX
  8
0
 10
217.182344609
 20
-0.351106698677
 30
0.0
  0
SEQEND
  8
0
  0
POLYLINE
  8
0
 62
0
 70
0
 66
1
 10
0.0
 20
0.0
 30
0.0
  0
VERTEX
  8
0
 10
217.182650843
 20
-0.348056021155
 30
0.0
  0
VERTEX
  8
0
 10
217.182653613
 20
-0.348028297321
 30
0.0
  0
SEQEND
  8
0
  0
POLYLINE
  8
0
 62
0
 70
0
 66
1
 10
0.0
 20
0.0
 30
0.0
  0
VERTEX
  8
0
 10
217.182957057
 20
-0.344978288973
 30
0.0
  0
VERTEX
  8
0
 10
217.182959933
 20
-0.344949257151
 30
0.0
  0
SEQEND
  8
0
  0
POLYLINE
  8
0
 62
0
 70
0
 66
1
 10
0.0
 20
0.0
 30
0.0
  0
VERTEX
  8
0
 10
217.183260588
 20
-0.341899923587
 30
0.0
  0
VERTEX
  8
0
 10
217.183263566
 20
-0.341869581527
 30
0.0
  0
SEQEND
  8
0
  0
POLYLINE
  8
0
 62
0
 70
0
 66
1
 10
0.0
 20
0.0
 30
0.0
  0
VERTEX
  8
0
 10
217.199937906
 20
-0.0208480349988
 30
0.0
  0
VERTEX
  8
0
 10
217.2
 20
0.0
 30
0.0
  0
SEQEND
  8
0
  0
LINE
  8
0
 62
0
 10
212.362672322
 20
-12.4682058996
 30
0.0
 11
212.362672322
 21
-12.4786899812
 31
0.0
  0
LINE
  8
0
 62
0
 10
213.525980912
 20
-12.4842165241
 30
0.0
 11
213.525980912
 21
-12.4913675352
 31
0.0
  0
LINE
  8
0
 62
0
 10
210.320254507
 20
-12.4471295575
 30
0.0
 11
210.320254507
 21
-12.4755433682
 31
0.0
  0
LINE
  8
0
 62
0
 10
209.653234358
 20
-12.4624481798
 30
0.0
 11
209.653234358
 21
-12.4675349311
 31
0.0
  0
LINE
  8
0
 62
0
 10
210.116648993
 20
-12.4541047734
 30
0.0
 11
210.116648993
 21
-12.4639970963
 31
0.0
  0
LINE
  8
0
 62
0
 10
215.620360551
 20
-12.4682058996
 30
0.0
 11
215.620360551
 21
-12.4786899812
 31
0.0
  0
LINE
  8
0
 62
0
 10
216.783669141
 20
-12.4842165241
 30
0.0
 11
216.783669141
 21
-12.4913675352
 31
0.0
  0
LINE
  8
0
 62
0
 10
213.991516437
 20
-12.4682058996
 30
0.0
 11
213.991516437
 21
-12.4786899812
 31
0.0
  0
LINE
  8
0
 62
0
 10
215.154825027
 20
-12.4842165241
 30
0.0
 11
215.154825027
 21
-12.4913675352
 31
0.0
  0
POLYLINE
  8
0
 62
0
 70
0
 66
1
 10
0.0
 20
0.0
 30
0.0
  0
VERTEX
  8
0
 10
216.729536046
 20
-9.84203173252
 30
0.0
  0
VERTEX
  8
0
 10
213.69952474
 20
-10.3232140938
 30
0.0
  0
VERTEX
  8
0
 10
210.670463964
 20
-9.84203174291
 30
0.0
  0
SEQEND
  8
0
  0
LINE
  8
0
 62
0
 10
208.019088017
 20
-12.4682058996
 30
0.0
 11
208.019088017
 21
-12.4786899812
 31
0.0
  0
LINE
  8
0
 62
0
 10
209.182396607
 20
-12.4842165241
 30
0.0
 11
209.182396607
 21
-12.4913675352
 31
0.0
  0
POLYLINE
  8
0
 62
0
 70
0
 66
1
 10
0.0
 20
0.0
 30
0.0
  0
VERTEX
  8
0
 10
219.248070711
 20
-5.7426749347
 30
0.0
  0
VERTEX
  8
0
 10
222.697863056
 20
-7.98083593191
 30
0.0
  0
VERTEX
  8
0
 10
226.151929287
 20
-5.74267499871
 30
0.0
  0
SEQEND
  8
0
  0
LINE
  8
0
 62
0
 10
217.921527041
 20
-12.4471295575
 30
0.0
 11
217.921527041
 21
-12.4755433682
 31
0.0
  0
LINE
  8
0
 62
0
 10
217.254506893
 20
-12.4624481798
 30
0.0
 11
217.254506893
 21
-12.4675349311
 31
0.0
  0
LINE
  8
0
 62
0
 10
217.717921527
 20
-12.4541047734
 30
0.0
 11
217.717921527
 21
-12.4639970963
 31
0.0
  0
POLYLINE
  8
0
 62
0
 70
0
 66
1
 10
0.0
 20
0.0
 30
0.0
  0
VERTEX
  8
0
 10
226.136587306
 20
-5.81388637113
 30
0.0
  0
VERTEX
  8
0
 10
226.060662868
 20
-6.07392406174
 30
0.0
  0
SEQEND
  8
0
  0
POLYLINE
  8
0
 62
0
 70
0
 66
1
 10
0.0
 20
0.0
 30
0.0
  0
VERTEX
  8
0
 10
226.06035142
 20
-6.0748005516
 30
0.0
  0
VERTEX
  8
0
 10
226.05062743
 20
-6.10163373816
 30
0.0
  0
SEQEND
  8
0
  0
POLYLINE
  8
0
 62
0
 70
0
 66
1
 10
0.0
 20
0.0
 30
0.0
  0
VERTEX
  8
0
 10
219.422332597
 20
-6.27709365287
 30
0.0
  0
VERTEX
  8
0
 10
219.248070705
 20
-5.74267496672
 30
0.0
  0
SEQEND
  8
0
  0
POLYLINE
  8
0
 62
0
 70
0
 66
1
 10
0.0
 20
0.0
 30
0.0
  0
VERTEX
  8
0
 10
226.136587494
 20
5.81388555664
 30
0.0
  0
VERTEX
  8
0
 10
226.060661926
 20
6.07392671504
 30
0.0
  0
SEQEND
  8
0
  0
POLYLINE
  8
0
 62
0
 70
0
 66
1
 10
0.0
 20
0.0
 30
0.0
  0
VERTEX
  8
0
 10
226.060351407
 20
6.0748005875
 30
0.0
  0
VERTEX
  8
0
 10
226.050627426
 20
6.10163374925
 30
0.0
  0
SEQEND
  8
0
  0
POLYLINE
  8
0
 62
0
 70
0
 66
1
 10
0.0
 20
0.0
 30
0.0
  0
VERTEX
  8
0
 10
219.422336792
 20
6.27710269321
 30
0.0
  0
VERTEX
  8
0
 10
219.248070705
 20
5.74267496672
 30
0.0
  0
SEQEND
  8
0
  0
POLYLINE
  8
0
 62
0
 70
0
 66
1
 10
0.0
 20
0.0
 30
0.0
  0
VERTEX
  8
0
 10
219.248070711
 20
5.7426749347
 30
0.0
  0
VERTEX
  8
0
 10
222.697863126
 20
7.98083593194
 30
0.0
  0
VERTEX
  8
0
 10
226.151929287
 20
5.74267499871
 30
0.0
  0
SEQEND
  8
0
  0
POLYLINE
  8
0
 62
0
 70
0
 66
1
 10
0.0
 20
0.0
 30
0.0
  0
VERTEX
  8
0
 10
182.0
 20
10.5
 30
0.0
  0
VERTEX
  8
0
 10
182.0
 20
8.45941907533
 30
0.0
  0
VERTEX
  8
0
 10
182.0
 20
3.22419358822
 30
0.0
  0
VERTEX
  8
0
 10
182.0
 20
-3.22419358822
 30
0.0
  0
VERTEX
  8
0
 10
182.0
 20
-8.45941907533
 30
0.0
  0
VERTEX
  8
0
 10
182.0
 20
-10.5
 30
0.0
  0
SEQEND
  8
0
  0
LINE
  8
0
 62
0
 10
198.98621421
 20
-12.4990542224
 30
0.0
 11
199.326617179
 21
-12.4990542224
 31
0.0
  0
POLYLINE
  8
0
 62
0
 70
0
 66
1
 10
0.0
 20
0.0
 30
0.0
  0
VERTEX
  8
0
 10
199.729586426
 20
-12.4970976187
 30
0.0
  0
VERTEX
  8
0
 10
199.326617179
 20
-12.4990542224
 30
0.0
  0
SEQEND
  8
0
  0
LINE
  8
0
 62
0
 10
199.868504772
 20
-12.4497449686
 30
0.0
 11
199.868504772
 21
-12.4823038329
 31
0.0
  0
POLYLINE
  8
0
 62
0
 70
0
 66
1
 10
0.0
 20
0.0
 30
0.0
  0
VERTEX
  8
0
 10
199.868504772
 20
-12.4823038329
 30
0.0
  0
VERTEX
  8
0
 10
199.729586426
 20
-12.4970976187
 30
0.0
  0
SEQEND
  8
0
  0
POLYLINE
  8
0
 62
0
 70
0
 66
1
 10
0.0
 20
0.0
 30
0.0
  0
VERTEX
  8
0
 10
199.731707317
 20
-12.4552974249
 30
0.0
  0
VERTEX
  8
0
 10
199.868504772
 20
-12.4823038329
 30
0.0
  0
SEQEND
  8
0
  0
POLYLINE
  8
0
 62
0
 70
0
 66
1
 10
0.0
 20
0.0
 30
0.0
  0
VERTEX
  8
0
 10
199.326617179
 20
-12.4449549276
 30
0.0
  0
VERTEX
  8
0
 10
199.731707317
 20
-12.4552974249
 30
0.0
  0
SEQEND
  8
0
  0
LINE
  8
0
 62
0
 10
199.148462354
 20
-12.4449549276
 30
0.0
 11
199.326617179
 21
-12.4449549276
 31
0.0
  0
POLYLINE
  8
0
 62
0
 70
0
 66
1
 10
0.0
 20
0.0
 30
0.0
  0
VERTEX
  8
0
 10
199.058324496
 20
-12.4454530353
 30
0.0
  0
VERTEX
  8
0
 10
199.148462354
 20
-12.4449549276
 30
0.0
  0
SEQEND
  8
0
  0
POLYLINE
  8
0
 62
0
 70
0
 66
1
 10
0.0
 20
0.0
 30
0.0
  0
VERTEX
  8
0
 10
199.006362672
 20
-12.4482003336
 30
0.0
  0
VERTEX
  8
0
 10
199.058324496
 20
-12.4454530353
 30
0.0
  0
SEQEND
  8
0
  0
LINE
  8
0
 62
0
 10
198.98621421
 20
-12.4383777662
 30
0.0
 11
198.98621421
 21
-12.4548466617
 31
0.0
  0
POLYLINE
  8
0
 62
0
 70
0
 66
1
 10
0.0
 20
0.0
 30
0.0
  0
VERTEX
  8
0
 10
198.98621421
 20
-12.4548466617
 30
0.0
  0
VERTEX
  8
0
 10
199.006362672
 20
-12.4482003336
 30
0.0
  0
SEQEND
  8
0
  0
POLYLINE
  8
0
 62
0
 70
0
 66
1
 10
0.0
 20
0.0
 30
0.0
  0
VERTEX
  8
0
 10
198.98621421
 20
-12.4548466617
 30
0.0
  0
VERTEX
  8
0
 10
198.98621421
 20
-12.4990542224
 30
0.0
  0
SEQEND
  8
0
  0
LINE
  8
0
 62
0
 10
213.306468717
 20
-12.4533367051
 30
0.0
 11
213.306468717
 21
-12.4993194522
 31
0.0
  0
POLYLINE
  8
0
 62
0
 70
0
 66
1
 10
0.0
 20
0.0
 30
0.0
  0
VERTEX
  8
0
 10
213.306468717
 20
-12.4993194522
 30
0.0
  0
VERTEX
  8
0
 10
213.305168758
 20
-12.5
 30
0.0
  0
SEQEND
  8
0
  0
LINE
  8
0
 62
0
 10
213.285259809
 20
-12.4515401063
 30
0.0
 11
213.285259809
 21
-12.4854281614
 31
0.0
  0
POLYLINE
  8
0
 62
0
 70
0
 66
1
 10
0.0
 20
0.0
 30
0.0
  0
VERTEX
  8
0
 10
213.285259809
 20
-12.4854281614
 30
0.0
  0
VERTEX
  8
0
 10
213.306468717
 20
-12.4993194522
 30
0.0
  0
SEQEND
  8
0
  0
LINE
  8
0
 62
0
 10
213.174973489
 20
-12.4442453286
 30
0.0
 11
213.174973489
 21
-12.4602755014
 31
0.0
  0
POLYLINE
  8
0
 62
0
 70
0
 66
1
 10
0.0
 20
0.0
 30
0.0
  0
VERTEX
  8
0
 10
213.174973489
 20
-12.4602755014
 30
0.0
  0
VERTEX
  8
0
 10
213.285259809
 20
-12.4854281614
 30
0.0
  0
SEQEND
  8
0
  0
POLYLINE
  8
0
 62
0
 70
0
 66
1
 10
0.0
 20
0.0
 30
0.0
  0
VERTEX
  8
0
 10
212.901378579
 20
-12.4449549276
 30
0.0
  0
VERTEX
  8
0
 10
213.174973489
 20
-12.4602755014
 30
0.0
  0
SEQEND
  8
0
  0
LINE
  8
0
 62
0
 10
212.623541888
 20
-12.4442597601
 30
0.0
 11
212.623541888
 21
-12.4603602011
 31
0.0
  0
POLYLINE
  8
0
 62
0
 70
0
 66
1
 10
0.0
 20
0.0
 30
0.0
  0
VERTEX
  8
0
 10
212.623541888
 20
-12.4603602011
 30
0.0
  0
VERTEX
  8
0
 10
212.901378579
 20
-12.4449549276
 30
0.0
  0
SEQEND
  8
0
  0
LINE
  8
0
 62
0
 10
212.512195122
 20
-12.4515154835
 30
0.0
 11
212.512195122
 21
-12.4854793653
 31
0.0
  0
POLYLINE
  8
0
 62
0
 70
0
 66
1
 10
0.0
 20
0.0
 30
0.0
  0
VERTEX
  8
0
 10
212.512195122
 20
-12.4854793653
 30
0.0
  0
VERTEX
  8
0
 10
212.623541888
 20
-12.4603602011
 30
0.0
  0
SEQEND
  8
0
  0
LINE
  8
0
 62
0
 10
212.49204666
 20
-12.4532974712
 30
0.0
 11
212.49204666
 21
-12.4993194522
 31
0.0
  0
POLYLINE
  8
0
 62
0
 70
0
 66
1
 10
0.0
 20
0.0
 30
0.0
  0
VERTEX
  8
0
 10
212.49204666
 20
-12.4993194522
 30
0.0
  0
VERTEX
  8
0
 10
212.512195122
 20
-12.4854793653
 30
0.0
  0
SEQEND
  8
0
  0
POLYLINE
  8
0
 62
0
 70
0
 66
1
 10
0.0
 20
0.0
 30
0.0
  0
VERTEX
  8
0
 10
212.493078556
 20
-12.4999999948
 30
0.0
  0
VERTEX
  8
0
 10
212.49204666
 20
-12.4993194522
 30
0.0
  0
SEQEND
  8
0
  0
LINE
  8
0
 62
0
 10
216.564156946
 20
-12.4533367051
 30
0.0
 11
216.564156946
 21
-12.4993194522
 31
0.0
  0
POLYLINE
  8
0
 62
0
 70
0
 66
1
 10
0.0
 20
0.0
 30
0.0
  0
VERTEX
  8
0
 10
216.564156946
 20
-12.4993194522
 30
0.0
  0
VERTEX
  8
0
 10
216.562856987
 20
-12.5
 30
0.0
  0
SEQEND
  8
0
  0
LINE
  8
0
 62
0
 10
216.542948038
 20
-12.4515401063
 30
0.0
 11
216.542948038
 21
-12.4854281614
 31
0.0
  0
POLYLINE
  8
0
 62
0
 70
0
 66
1
 10
0.0
 20
0.0
 30
0.0
  0
VERTEX
  8
0
 10
216.542948038
 20
-12.4854281614
 30
0.0
  0
VERTEX
  8
0
 10
216.564156946
 20
-12.4993194522
 30
0.0
  0
SEQEND
  8
0
  0
LINE
  8
0
 62
0
 10
216.432661718
 20
-12.4442453286
 30
0.0
 11
216.432661718
 21
-12.4602755014
 31
0.0
  0
POLYLINE
  8
0
 62
0
 70
0
 66
1
 10
0.0
 20
0.0
 30
0.0
  0
VERTEX
  8
0
 10
216.432661718
 20
-12.4602755014
 30
0.0
  0
VERTEX
  8
0
 10
216.542948038
 20
-12.4854281614
 30
0.0
  0
SEQEND
  8
0
  0
POLYLINE
  8
0
 62
0
 70
0
 66
1
 10
0.0
 20
0.0
 30
0.0
  0
VERTEX
  8
0
 10
216.159066808
 20
-12.4449549276
 30
0.0
  0
VERTEX
  8
0
 10
216.432661718
 20
-12.4602755014
 30
0.0
  0
SEQEND
  8
0
  0
LINE
  8
0
 62
0
 10
215.881230117
 20
-12.4442597601
 30
0.0
 11
215.881230117
 21
-12.4603602011
 31
0.0
  0
POLYLINE
  8
0
 62
0
 70
0
 66
1
 10
0.0
 20
0.0
 30
0.0
  0
VERTEX
  8
0
 10
215.881230117
 20
-12.4603602011
 30
0.0
  0
VERTEX
  8
0
 10
216.159066808
 20
-12.4449549276
 30
0.0
  0
SEQEND
  8
0
  0
LINE
  8
0
 62
0
 10
215.769883351
 20
-12.4515154835
 30
0.0
 11
215.769883351
 21
-12.4854793653
 31
0.0
  0
POLYLINE
  8
0
 62
0
 70
0
 66
1
 10
0.0
 20
0.0
 30
0.0
  0
VERTEX
  8
0
 10
215.769883351
 20
-12.4854793653
 30
0.0
  0
VERTEX
  8
0
 10
215.881230117
 20
-12.4603602011
 30
0.0
  0
SEQEND
  8
0
  0
LINE
  8
0
 62
0
 10
215.749734889
 20
-12.4532974712
 30
0.0
 11
215.749734889
 21
-12.4993194522
 31
0.0
  0
POLYLINE
  8
0
 62
0
 70
0
 66
1
 10
0.0
 20
0.0
 30
0.0
  0
VERTEX
  8
0
 10
215.749734889
 20
-12.4993194522
 30
0.0
  0
VERTEX
  8
0
 10
215.769883351
 20
-12.4854793653
 30
0.0
  0
SEQEND
  8
0
  0
POLYLINE
  8
0
 62
0
 70
0
 66
1
 10
0.0
 20
0.0
 30
0.0
  0
VERTEX
  8
0
 10
215.750766785
 20
-12.4999999948
 30
0.0
  0
VERTEX
  8
0
 10
215.749734889
 20
-12.4993194522
 30
0.0
  0
SEQEND
  8
0
  0
LINE
  8
0
 62
0
 10
214.935312831
 20
-12.4533367051
 30
0.0
 11
214.935312831
 21
-12.4993194522
 31
0.0
  0
POLYLINE
  8
0
 62
0
 70
0
 66
1
 10
0.0
 20
0.0
 30
0.0
  0
VERTEX
  8
0
 10
214.935312831
 20
-12.4993194522
 30
0.0
  0
VERTEX
  8
0
 10
214.934012872
 20
-12.5
 30
0.0
  0
SEQEND
  8
0
  0
LINE
  8
0
 62
0
 10
214.914103924
 20
-12.4515401063
 30
0.0
 11
214.914103924
 21
-12.4854281614
 31
0.0
  0
POLYLINE
  8
0
 62
0
 70
0
 66
1
 10
0.0
 20
0.0
 30
0.0
  0
VERTEX
  8
0
 10
214.914103924
 20
-12.4854281614
 30
0.0
  0
VERTEX
  8
0
 10
214.935312831
 20
-12.4993194522
 30
0.0
  0
SEQEND
  8
0
  0
LINE
  8
0
 62
0
 10
214.803817603
 20
-12.4442453286
 30
0.0
 11
214.803817603
 21
-12.4602755014
 31
0.0
  0
POLYLINE
  8
0
 62
0
 70
0
 66
1
 10
0.0
 20
0.0
 30
0.0
  0
VERTEX
  8
0
 10
214.803817603
 20
-12.4602755014
 30
0.0
  0
VERTEX
  8
0
 10
214.914103924
 20
-12.4854281614
 30
0.0
  0
SEQEND
  8
0
  0
POLYLINE
  8
0
 62
0
 70
0
 66
1
 10
0.0
 20
0.0
 30
0.0
  0
VERTEX
  8
0
 10
214.530222694
 20
-12.4449549276
 30
0.0
  0
VERTEX
  8
0
 10
214.803817603
 20
-12.4602755014
 30
0.0
  0
SEQEND
  8
0
  0
LINE
  8
0
 62
0
 10
214.252386002
 20
-12.4442597601
 30
0.0
 11
214.252386002
 21
-12.4603602011
 31
0.0
  0
POLYLINE
  8
0
 62
0
 70
0
 66
1
 10
0.0
 20
0.0
 30
0.0
  0
VERTEX
  8
0
 10
214.252386002
 20
-12.4603602011
 30
0.0
  0
VERTEX
  8
0
 10
214.530222694
 20
-12.4449549276
 30
0.0
  0
SEQEND
  8
0
  0
LINE
  8
0
 62
0
 10
214.141039236
 20
-12.4515154835
 30
0.0
 11
214.141039236
 21
-12.4854793653
 31
0.0
  0
POLYLINE
  8
0
 62
0
 70
0
 66
1
 10
0.0
 20
0.0
 30
0.0
  0
VERTEX
  8
0
 10
214.141039236
 20
-12.4854793653
 30
0.0
  0
VERTEX
  8
0
 10
214.252386002
 20
-12.4603602011
 30
0.0
  0
SEQEND
  8
0
  0
LINE
  8
0
 62
0
 10
214.120890774
 20
-12.4532974712
 30
0.0
 11
214.120890774
 21
-12.4993194522
 31
0.0
  0
POLYLINE
  8
0
 62
0
 70
0
 66
1
 10
0.0
 20
0.0
 30
0.0
  0
VERTEX
  8
0
 10
214.120890774
 20
-12.4993194522
 30
0.0
  0
VERTEX
  8
0
 10
214.141039236
 20
-12.4854793653
 30
0.0
  0
SEQEND
  8
0
  0
POLYLINE
  8
0
 62
0
 70
0
 66
1
 10
0.0
 20
0.0
 30
0.0
  0
VERTEX
  8
0
 10
214.121922671
 20
-12.4999999948
 30
0.0
  0
VERTEX
  8
0
 10
214.120890774
 20
-12.4993194522
 30
0.0
  0
SEQEND
  8
0
  0
LINE
  8
0
 62
0
 10
208.962884411
 20
-12.4533367051
 30
0.0
 11
208.962884411
 21
-12.4993194522
 31
0.0
  0
POLYLINE
  8
0
 62
0
 70
0
 66
1
 10
0.0
 20
0.0
 30
0.0
  0
VERTEX
  8
0
 10
208.962884411
 20
-12.4993194522
 30
0.0
  0
VERTEX
  8
0
 10
208.961584452
 20
-12.5
 30
0.0
  0
SEQEND
  8
0
  0
LINE
  8
0
 62
0
 10
208.941675504
 20
-12.4515401063
 30
0.0
 11
208.941675504
 21
-12.4854281614
 31
0.0
  0
POLYLINE
  8
0
 62
0
 70
0
 66
1
 10
0.0
 20
0.0
 30
0.0
  0
VERTEX
  8
0
 10
208.941675504
 20
-12.4854281614
 30
0.0
  0
VERTEX
  8
0
 10
208.962884411
 20
-12.4993194522
 30
0.0
  0
SEQEND
  8
0
  0
LINE
  8
0
 62
0
 10
208.831389183
 20
-12.4442453286
 30
0.0
 11
208.831389183
 21
-12.4602755014
 31
0.0
  0
POLYLINE
  8
0
 62
0
 70
0
 66
1
 10
0.0
 20
0.0
 30
0.0
  0
VERTEX
  8
0
 10
208.831389183
 20
-12.4602755014
 30
0.0
  0
VERTEX
  8
0
 10
208.941675504
 20
-12.4854281614
 30
0.0
  0
SEQEND
  8
0
  0
POLYLINE
  8
0
 62
0
 70
0
 66
1
 10
0.0
 20
0.0
 30
0.0
  0
VERTEX
  8
0
 10
208.557794274
 20
-12.4449549276
 30
0.0
  0
VERTEX
  8
0
 10
208.831389183
 20
-12.4602755014
 30
0.0
  0
SEQEND
  8
0
  0
LINE
  8
0
 62
0
 10
208.279957582
 20
-12.4442597601
 30
0.0
 11
208.279957582
 21
-12.4603602011
 31
0.0
  0
POLYLINE
  8
0
 62
0
 70
0
 66
1
 10
0.0
 20
0.0
 30
0.0
  0
VERTEX
  8
0
 10
208.279957582
 20
-12.4603602011
 30
0.0
  0
VERTEX
  8
0
 10
208.557794274
 20
-12.4449549276
 30
0.0
  0
SEQEND
  8
0
  0
LINE
  8
0
 62
0
 10
208.168610817
 20
-12.4515154835
 30
0.0
 11
208.168610817
 21
-12.4854793653
 31
0.0
  0
POLYLINE
  8
0
 62
0
 70
0
 66
1
 10
0.0
 20
0.0
 30
0.0
  0
VERTEX
  8
0
 10
208.168610817
 20
-12.4854793653
 30
0.0
  0
VERTEX
  8
0
 10
208.279957582
 20
-12.4603602011
 30
0.0
  0
SEQEND
  8
0
  0
LINE
  8
0
 62
0
 10
208.148462354
 20
-12.4532974712
 30
0.0
 11
208.148462354
 21
-12.4993194522
 31
0.0
  0
POLYLINE
  8
0
 62
0
 70
0
 66
1
 10
0.0
 20
0.0
 30
0.0
  0
VERTEX
  8
0
 10
208.148462354
 20
-12.4993194522
 30
0.0
  0
VERTEX
  8
0
 10
208.168610817
 20
-12.4854793653
 30
0.0
  0
SEQEND
  8
0
  0
POLYLINE
  8
0
 62
0
 70
0
 66
1
 10
0.0
 20
0.0
 30
0.0
  0
VERTEX
  8
0
 10
208.149494251
 20
-12.4999999948
 30
0.0
  0
VERTEX
  8
0
 10
208.148462354
 20
-12.4993194522
 30
0.0
  0
SEQEND
  8
0
  0
POLYLINE
  8
0
 62
0
 70
0
 66
1
 10
0.0
 20
0.0
 30
0.0
  0
VERTEX
  8
0
 10
180.5
 20
10.5
 30
0.0
  0
VERTEX
  8
0
 10
180.5
 20
8.45941907533
 30
0.0
  0
VERTEX
  8
0
 10
180.5
 20
3.22419358822
 30
0.0
  0
VERTEX
  8
0
 10
180.5
 20
-3.22419358822
 30
0.0
  0
VERTEX
  8
0
 10
180.5
 20
-8.45941907533
 30
0.0
  0
VERTEX
  8
0
 10
180.5
 20
-10.5
 30
0.0
  0
SEQEND
  8
0
  0
POLYLINE
  8
0
 62
0
 70
0
 66
1
 10
0.0
 20
0.0
 30
0.0
  0
VERTEX
  8
0
 10
178.5
 20
10.5
 30
0.0
  0
VERTEX
  8
0
 10
178.5
 20
8.45941907533
 30
0.0
  0
VERTEX
  8
0
 10
178.5
 20
3.22419358822
 30
0.0
  0
VERTEX
  8
0
 10
178.5
 20
-3.22419358822
 30
0.0
  0
VERTEX
  8
0
 10
178.5
 20
-8.45941907533
 30
0.0
  0
VERTEX
  8
0
 10
178.5
 20
-10.5
 30
0.0
  0
SEQEND
  8
0
  0
POLYLINE
  8
0
 62
0
 70
0
 66
1
 10
0.0
 20
0.0
 30
0.0
  0
VERTEX
  8
0
 10
177.0
 20
10.5
 30
0.0
  0
VERTEX
  8
0
 10
177.0
 20
8.45941907533
 30
0.0
  0
VERTEX
  8
0
 10
177.0
 20
3.22419358822
 30
0.0
  0
VERTEX
  8
0
 10
177.0
 20
-3.22419358822
 30
0.0
  0
VERTEX
  8
0
 10
177.0
 20
-8.45941907533
 30
0.0
  0
VERTEX
  8
0
 10
177.0
 20
-10.5
 30
0.0
  0
SEQEND
  8
0
  0
POLYLINE
  8
0
 62
0
 70
0
 66
1
 10
0.0
 20
0.0
 30
0.0
  0
VERTEX
  8
0
 10
174.5
 20
10.5
 30
0.0
  0
VERTEX
  8
0
 10
174.5
 20
8.45941907533
 30
0.0
  0
VERTEX
  8
0
 10
174.5
 20
3.22419358822
 30
0.0
  0
VERTEX
  8
0
 10
174.5
 20
-3.22419358822
 30
0.0
  0
VERTEX
  8
0
 10
174.5
 20
-8.45941907533
 30
0.0
  0
VERTEX
  8
0
 10
174.5
 20
-10.5
 30
0.0
  0
SEQEND
  8
0
  0
POLYLINE
  8
0
 62
0
 70
0
 66
1
 10
0.0
 20
0.0
 30
0.0
  0
VERTEX
  8
0
 10
172.0
 20
-9.50528241519
 30
0.0
  0
VERTEX
  8
0
 10
172.0
 20
-7.41894085758
 30
0.0
  0
VERTEX
  8
0
 10
172.0
 20
-2.10055622761
 30
0.0
  0
VERTEX
  8
0
 10
172.0
 20
4.22525317989
 30
0.0
  0
VERTEX
  8
0
 10
172.0
 20
9.08381786001
 30
0.0
  0
SEQEND
  8
0
  0
POLYLINE
  8
0
 62
0
 70
0
 66
1
 10
0.0
 20
0.0
 30
0.0
  0
VERTEX
  8
0
 10
172.0
 20
10.5
 30
0.0
  0
VERTEX
  8
0
 10
172.0
 20
9.08381785948
 30
0.0
  0
SEQEND
  8
0
  0
POLYLINE
  8
0
 62
0
 70
0
 66
1
 10
0.0
 20
0.0
 30
0.0
  0
VERTEX
  8
0
 10
171.199893788
 20
9.49228192081
 30
0.0
  0
VERTEX
  8
0
 10
171.371410407
 20
6.51179456291
 30
0.0
  0
VERTEX
  8
0
 10
171.542925217
 20
-0.191658971522
 30
0.0
  0
VERTEX
  8
0
 10
171.71448809
 20
-6.78554280342
 30
0.0
  0
VERTEX
  8
0
 10
171.885975121
 20
-9.50000000148
 30
0.0
  0
SEQEND
  8
0
  0
POLYLINE
  8
0
 62
0
 70
0
 66
1
 10
0.0
 20
0.0
 30
0.0
  0
VERTEX
  8
0
 10
170.613647212
 20
10.5000000015
 30
0.0
  0
VERTEX
  8
0
 10
170.621716349
 20
10.4930154844
 30
0.0
  0
SEQEND
  8
0
  0
POLYLINE
  8
0
 62
0
 70
0
 66
1
 10
0.0
 20
0.0
 30
0.0
  0
VERTEX
  8
0
 10
170.621716349
 20
10.4930154844
 30
0.0
  0
VERTEX
  8
0
 10
170.759098919
 20
8.31138266525
 30
0.0
  0
VERTEX
  8
0
 10
170.896475361
 20
3.02561013116
 30
0.0
  0
VERTEX
  8
0
 10
171.03387771
 20
-3.39044211208
 30
0.0
  0
VERTEX
  8
0
 10
171.171285094
 20
-8.53986424868
 30
0.0
  0
VERTEX
  8
0
 10
171.308646225
 20
-10.5000000008
 30
0.0
  0
SEQEND
  8
0
  0
POLYLINE
  8
0
 62
0
 70
0
 66
1
 10
0.0
 20
0.0
 30
0.0
  0
VERTEX
  8
0
 10
171.308646225
 20
-10.5000000008
 30
0.0
  0
VERTEX
  8
0
 10
171.316716907
 20
-10.4930141571
 30
0.0
  0
SEQEND
  8
0
  0
POLYLINE
  8
0
 62
0
 70
0
 66
1
 10
0.0
 20
0.0
 30
0.0
  0
VERTEX
  8
0
 10
171.306406446
 20
9.50000000182
 30
0.0
  0
VERTEX
  8
0
 10
171.47790474
 20
6.78520426235
 30
0.0
  0
VERTEX
  8
0
 10
171.649450671
 20
0.191902824238
 30
0.0
  0
VERTEX
  8
0
 10
171.820966562
 20
-6.51165085494
 30
0.0
  0
VERTEX
  8
0
 10
171.992488435
 20
-9.49228305664
 30
0.0
  0
SEQEND
  8
0
  0
POLYLINE
  8
0
 62
0
 70
0
 66
1
 10
0.0
 20
0.0
 30
0.0
  0
VERTEX
  8
0
 10
171.875707805
 20
10.4930151857
 30
0.0
  0
VERTEX
  8
0
 10
171.883777893
 20
10.5000000015
 30
0.0
  0
SEQEND
  8
0
  0
POLYLINE
  8
0
 62
0
 70
0
 66
1
 10
0.0
 20
0.0
 30
0.0
  0
VERTEX
  8
0
 10
171.883777893
 20
10.5000000015
 30
0.0
  0
VERTEX
  8
0
 10
172.0
 20
9.08381787991
 30
0.0
  0
SEQEND
  8
0
  0
POLYLINE
  8
0
 62
0
 70
0
 66
1
 10
0.0
 20
0.0
 30
0.0
  0
VERTEX
  8
0
 10
170.485707219
 20
10.4930151368
 30
0.0
  0
VERTEX
  8
0
 10
170.493777335
 20
10.5000000015
 30
0.0
  0
SEQEND
  8
0
  0
POLYLINE
  8
0
 62
0
 70
0
 66
1
 10
0.0
 20
0.0
 30
0.0
  0
VERTEX
  8
0
 10
170.493777335
 20
10.5000000015
 30
0.0
  0
VERTEX
  8
0
 10
170.631138126
 20
8.53987365179
 30
0.0
  0
VERTEX
  8
0
 10
170.768546607
 20
3.39040814456
 30
0.0
  0
VERTEX
  8
0
 10
170.905949064
 20
-3.02564940933
 30
0.0
  0
VERTEX
  8
0
 10
171.043324769
 20
-8.31138596241
 30
0.0
  0
VERTEX
  8
0
 10
171.180707777
 20
-10.4930164632
 30
0.0
  0
SEQEND
  8
0
  0
POLYLINE
  8
0
 62
0
 70
0
 66
1
 10
0.0
 20
0.0
 30
0.0
  0
VERTEX
  8
0
 10
171.180707777
 20
-10.4930164632
 30
0.0
  0
VERTEX
  8
0
 10
171.188776348
 20
-10.5000000004
 30
0.0
  0
SEQEND
  8
0
  0
POLYLINE
  8
0
 62
0
 70
0
 66
1
 10
0.0
 20
0.0
 30
0.0
  0
VERTEX
  8
0
 10
169.809895227
 20
9.49228197492
 30
0.0
  0
VERTEX
  8
0
 10
169.981414954
 20
6.51169839156
 30
0.0
  0
VERTEX
  8
0
 10
170.152931067
 20
-0.191847014175
 30
0.0
  0
VERTEX
  8
0
 10
170.324478105
 20
-6.78519851432
 30
0.0
  0
VERTEX
  8
0
 10
170.495976591
 20
-9.50000000008
 30
0.0
  0
SEQEND
  8
0
  0
POLYLINE
  8
0
 62
0
 70
0
 66
1
 10
0.0
 20
0.0
 30
0.0
  0
VERTEX
  8
0
 10
169.223646656
 20
10.5000000015
 30
0.0
  0
VERTEX
  8
0
 10
169.231715765
 20
10.4930155334
 30
0.0
  0
SEQEND
  8
0
  0
POLYLINE
  8
0
 62
0
 70
0
 66
1
 10
0.0
 20
0.0
 30
0.0
  0
VERTEX
  8
0
 10
169.231715765
 20
10.4930155334
 30
0.0
  0
VERTEX
  8
0
 10
169.369098341
 20
8.31138330723
 30
0.0
  0
VERTEX
  8
0
 10
169.506474788
 20
3.02561086926
 30
0.0
  0
VERTEX
  8
0
 10
169.643877144
 20
-3.39044164494
 30
0.0
  0
VERTEX
  8
0
 10
169.781284533
 20
-8.53986412302
 30
0.0
  0
VERTEX
  8
0
 10
169.918645669
 20
-10.5000000008
 30
0.0
  0
SEQEND
  8
0
  0
POLYLINE
  8
0
 62
0
 70
0
 66
1
 10
0.0
 20
0.0
 30
0.0
  0
VERTEX
  8
0
 10
169.918645669
 20
-10.5000000008
 30
0.0
  0
VERTEX
  8
0
 10
169.926716323
 20
-10.4930142061
 30
0.0
  0
SEQEND
  8
0
  0
POLYLINE
  8
0
 62
0
 70
0
 66
1
 10
0.0
 20
0.0
 30
0.0
  0
VERTEX
  8
0
 10
169.916407914
 20
9.50000000182
 30
0.0
  0
VERTEX
  8
0
 10
170.0879062
 20
6.78520450303
 30
0.0
  0
VERTEX
  8
0
 10
170.259452123
 20
0.191903511722
 30
0.0
  0
VERTEX
  8
0
 10
170.430968006
 20
-6.51165010864
 30
0.0
  0
VERTEX
  8
0
 10
170.602489872
 20
-9.49228300253
 30
0.0
  0
SEQEND
  8
0
  0
POLYLINE
  8
0
 62
0
 70
0
 66
1
 10
0.0
 20
0.0
 30
0.0
  0
VERTEX
  8
0
 10
169.095706632
 20
10.4930150878
 30
0.0
  0
VERTEX
  8
0
 10
169.103776777
 20
10.5000000015
 30
0.0
  0
SEQEND
  8
0
  0
POLYLINE
  8
0
 62
0
 70
0
 66
1
 10
0.0
 20
0.0
 30
0.0
  0
VERTEX
  8
0
 10
169.103776777
 20
10.5000000015
 30
0.0
  0
VERTEX
  8
0
 10
169.241137547
 20
8.53987422696
 30
0.0
  0
VERTEX
  8
0
 10
169.378546007
 20
3.39041001061
 30
0.0
  0
VERTEX
  8
0
 10
169.515948445
 20
-3.02564659814
 30
0.0
  0
VERTEX
  8
0
 10
169.653324134
 20
-8.31138375208
 30
0.0
  0
VERTEX
  8
0
 10
169.790707191
 20
-10.4930164142
 30
0.0
  0
SEQEND
  8
0
  0
POLYLINE
  8
0
 62
0
 70
0
 66
1
 10
0.0
 20
0.0
 30
0.0
  0
VERTEX
  8
0
 10
169.790707191
 20
-10.4930164142
 30
0.0
  0
VERTEX
  8
0
 10
169.79877579
 20
-10.5000000004
 30
0.0
  0
SEQEND
  8
0
  0
POLYLINE
  8
0
 62
0
 70
0
 66
1
 10
0.0
 20
0.0
 30
0.0
  0
VERTEX
  8
0
 10
168.419896666
 20
9.49228202903
 30
0.0
  0
VERTEX
  8
0
 10
168.591411532
 20
6.51185133796
 30
0.0
  0
VERTEX
  8
0
 10
168.762925393
 20
-0.191540311658
 30
0.0
  0
VERTEX
  8
0
 10
168.934485307
 20
-6.78537076691
 30
0.0
  0
VERTEX
  8
0
 10
169.105978061
 20
-9.50000000083
 30
0.0
  0
SEQEND
  8
0
  0
POLYLINE
  8
0
 62
0
 70
0
 66
1
 10
0.0
 20
0.0
 30
0.0
  0
VERTEX
  8
0
 10
167.8336461
 20
10.5000000015
 30
0.0
  0
VERTEX
  8
0
 10
167.84171518
 20
10.4930155824
 30
0.0
  0
SEQEND
  8
0
  0
POLYLINE
  8
0
 62
0
 70
0
 66
1
 10
0.0
 20
0.0
 30
0.0
  0
VERTEX
  8
0
 10
167.84171518
 20
10.4930155824
 30
0.0
  0
VERTEX
  8
0
 10
167.979097762
 20
8.31138395718
 30
0.0
  0
VERTEX
  8
0
 10
168.116474216
 20
3.02561162565
 30
0.0
  0
VERTEX
  8
0
 10
168.253876577
 20
-3.39044115539
 30
0.0
  0
VERTEX
  8
0
 10
168.391283972
 20
-8.53986398077
 30
0.0
  0
VERTEX
  8
0
 10
168.528645113
 20
-10.5000000008
 30
0.0
  0
SEQEND
  8
0
  0
POLYLINE
  8
0
 62
0
 70
0
 66
1
 10
0.0
 20
0.0
 30
0.0
  0
VERTEX
  8
0
 10
168.528645113
 20
-10.5000000008
 30
0.0
  0
VERTEX
  8
0
 10
168.536715739
 20
-10.4930142551
 30
0.0
  0
SEQEND
  8
0
  0
POLYLINE
  8
0
 62
0
 70
0
 66
1
 10
0.0
 20
0.0
 30
0.0
  0
VERTEX
  8
0
 10
168.526409382
 20
9.50000000182
 30
0.0
  0
VERTEX
  8
0
 10
168.697907661
 20
6.78520471494
 30
0.0
  0
VERTEX
  8
0
 10
168.869453577
 20
0.19190411762
 30
0.0
  0
VERTEX
  8
0
 10
169.040969453
 20
-6.51164942659
 30
0.0
  0
VERTEX
  8
0
 10
169.212491309
 20
-9.49228294843
 30
0.0
  0
SEQEND
  8
0
  0
POLYLINE
  8
0
 62
0
 70
0
 66
1
 10
0.0
 20
0.0
 30
0.0
  0
VERTEX
  8
0
 10
167.705706046
 20
10.4930150388
 30
0.0
  0
VERTEX
  8
0
 10
167.713776219
 20
10.5000000015
 30
0.0
  0
SEQEND
  8
0
  0
POLYLINE
  8
0
 62
0
 70
0
 66
1
 10
0.0
 20
0.0
 30
0.0
  0
VERTEX
  8
0
 10
167.713776219
 20
10.5000000015
 30
0.0
  0
VERTEX
  8
0
 10
167.851136941
 20
8.53987555268
 30
0.0
  0
VERTEX
  8
0
 10
167.988545353
 20
3.39041430462
 30
0.0
  0
VERTEX
  8
0
 10
168.125947745
 20
-3.02564015634
 30
0.0
  0
VERTEX
  8
0
 10
168.263323406
 20
-8.31137879952
 30
0.0
  0
VERTEX
  8
0
 10
168.400706605
 20
-10.4930163654
 30
0.0
  0
SEQEND
  8
0
  0
POLYLINE
  8
0
 62
0
 70
0
 66
1
 10
0.0
 20
0.0
 30
0.0
  0
VERTEX
  8
0
 10
168.400706605
 20
-10.4930163654
 30
0.0
  0
VERTEX
  8
0
 10
168.408775232
 20
-10.5000000003
 30
0.0
  0
SEQEND
  8
0
  0
POLYLINE
  8
0
 62
0
 70
0
 66
1
 10
0.0
 20
0.0
 30
0.0
  0
VERTEX
  8
0
 10
167.029898105
 20
9.49228208314
 30
0.0
  0
VERTEX
  8
0
 10
167.201414263
 20
6.51181191766
 30
0.0
  0
VERTEX
  8
0
 10
167.372930298
 20
-0.191687745835
 30
0.0
  0
VERTEX
  8
0
 10
167.544492143
 20
-6.78553205223
 30
0.0
  0
VERTEX
  8
0
 10
167.715979532
 20
-9.50000000721
 30
0.0
  0
SEQEND
  8
0
  0
POLYLINE
  8
0
 62
0
 70
0
 66
1
 10
0.0
 20
0.0
 30
0.0
  0
VERTEX
  8
0
 10
166.443645544
 20
10.5000000015
 30
0.0
  0
VERTEX
  8
0
 10
166.451714596
 20
10.4930156313
 30
0.0
  0
SEQEND
  8
0
  0
POLYLINE
  8
0
 62
0
 70
0
 66
1
 10
0.0
 20
0.0
 30
0.0
  0
VERTEX
  8
0
 10
166.451714596
 20
10.4930156313
 30
0.0
  0
VERTEX
  8
0
 10
166.589097183
 20
8.3113846349
 30
0.0
  0
VERTEX
  8
0
 10
166.726473642
 20
3.02561244601
 30
0.0
  0
VERTEX
  8
0
 10
166.863876009
 20
-3.39044058725
 30
0.0
  0
VERTEX
  8
0
 10
167.001283409
 20
-8.53986378039
 30
0.0
  0
VERTEX
  8
0
 10
167.138644557
 20
-10.5000000008
 30
0.0
  0
SEQEND
  8
0
  0
POLYLINE
  8
0
 62
0
 70
0
 66
1
 10
0.0
 20
0.0
 30
0.0
  0
VERTEX
  8
0
 10
167.138644557
 20
-10.5000000008
 30
0.0
  0
VERTEX
  8
0
 10
167.146715154
 20
-10.4930143041
 30
0.0
  0
SEQEND
  8
0
  0
POLYLINE
  8
0
 62
0
 70
0
 66
1
 10
0.0
 20
0.0
 30
0.0
  0
VERTEX
  8
0
 10
167.13641085
 20
9.50000000182
 30
0.0
  0
VERTEX
  8
0
 10
167.307909122
 20
6.78520493303
 30
0.0
  0
VERTEX
  8
0
 10
167.479455031
 20
0.191904740991
 30
0.0
  0
VERTEX
  8
0
 10
167.650970899
 20
-6.5116487308
 30
0.0
  0
VERTEX
  8
0
 10
167.822492746
 20
-9.49228289432
 30
0.0
  0
SEQEND
  8
0
  0
POLYLINE
  8
0
 62
0
 70
0
 66
1
 10
0.0
 20
0.0
 30
0.0
  0
VERTEX
  8
0
 10
166.31570546
 20
10.4930149898
 30
0.0
  0
VERTEX
  8
0
 10
166.323775661
 20
10.5000000015
 30
0.0
  0
SEQEND
  8
0
  0
POLYLINE
  8
0
 62
0
 70
0
 66
1
 10
0.0
 20
0.0
 30
0.0
  0
VERTEX
  8
0
 10
166.323775661
 20
10.5000000015
 30
0.0
  0
VERTEX
  8
0
 10
166.461136413
 20
8.53987470885
 30
0.0
  0
VERTEX
  8
0
 10
166.598544856
 20
3.39041157583
 30
0.0
  0
VERTEX
  8
0
 10
166.735947276
 20
-3.02564423296
 30
0.0
  0
VERTEX
  8
0
 10
166.873322952
 20
-8.31138182502
 30
0.0
  0
VERTEX
  8
0
 10
167.010706018
 20
-10.4930163164
 30
0.0
  0
SEQEND
  8
0
  0
POLYLINE
  8
0
 62
0
 70
0
 66
1
 10
0.0
 20
0.0
 30
0.0
  0
VERTEX
  8
0
 10
167.010706018
 20
-10.4930163164
 30
0.0
  0
VERTEX
  8
0
 10
167.018774674
 20
-10.5000000004
 30
0.0
  0
SEQEND
  8
0
  0
POLYLINE
  8
0
 62
0
 70
0
 66
1
 10
0.0
 20
0.0
 30
0.0
  0
VERTEX
  8
0
 10
165.639899544
 20
9.49228213725
 30
0.0
  0
VERTEX
  8
0
 10
165.811425506
 20
6.51150639388
 30
0.0
  0
VERTEX
  8
0
 10
165.982924141
 20
-0.191360309858
 30
0.0
  0
VERTEX
  8
0
 10
166.154485837
 20
-6.78529832023
 30
0.0
  0
VERTEX
  8
0
 10
166.325981002
 20
-9.50000000048
 30
0.0
  0
SEQEND
  8
0
  0
POLYLINE
  8
0
 62
0
 70
0
 66
1
 10
0.0
 20
0.0
 30
0.0
  0
VERTEX
  8
0
 10
165.053644988
 20
10.5000000015
 30
0.0
  0
VERTEX
  8
0
 10
165.061714012
 20
10.4930156803
 30
0.0
  0
SEQEND
  8
0
  0
POLYLINE
  8
0
 62
0
 70
0
 66
1
 10
0.0
 20
0.0
 30
0.0
  0
VERTEX
  8
0
 10
165.061714012
 20
10.4930156803
 30
0.0
  0
VERTEX
  8
0
 10
165.199096608
 20
8.31138518433
 30
0.0
  0
VERTEX
  8
0
 10
165.336473075
 20
3.0256129575
 30
0.0
  0
VERTEX
  8
0
 10
165.473875449
 20
-3.39044041126
 30
0.0
  0
VERTEX
  8
0
 10
165.611282856
 20
-8.53986387599
 30
0.0
  0
VERTEX
  8
0
 10
165.748644001
 20
-10.5000000008
 30
0.0
  0
SEQEND
  8
0
  0
POLYLINE
  8
0
 62
0
 70
0
 66
1
 10
0.0
 20
0.0
 30
0.0
  0
VERTEX
  8
0
 10
165.748644001
 20
-10.5000000008
 30
0.0
  0
VERTEX
  8
0
 10
165.75671457
 20
-10.493014353
 30
0.0
  0
SEQEND
  8
0
  0
POLYLINE
  8
0
 62
0
 70
0
 66
1
 10
0.0
 20
0.0
 30
0.0
  0
VERTEX
  8
0
 10
165.746412319
 20
9.50000000182
 30
0.0
  0
VERTEX
  8
0
 10
165.917910582
 20
6.78520518904
 30
0.0
  0
VERTEX
  8
0
 10
166.089456482
 20
0.191905471832
 30
0.0
  0
VERTEX
  8
0
 10
166.260972342
 20
-6.51164795038
 30
0.0
  0
VERTEX
  8
0
 10
166.432494183
 20
-9.49228284021
 30
0.0
  0
SEQEND
  8
0
  0
POLYLINE
  8
0
 62
0
 70
0
 66
1
 10
0.0
 20
0.0
 30
0.0
  0
VERTEX
  8
0
 10
164.925704873
 20
10.4930149409
 30
0.0
  0
VERTEX
  8
0
 10
164.933775103
 20
10.5000000015
 30
0.0
  0
SEQEND
  8
0
  0
POLYLINE
  8
0
 62
0
 70
0
 66
1
 10
0.0
 20
0.0
 30
0.0
  0
VERTEX
  8
0
 10
164.933775103
 20
10.5000000015
 30
0.0
  0
VERTEX
  8
0
 10
165.071135848
 20
8.53987491651
 30
0.0
  0
VERTEX
  8
0
 10
165.208544283
 20
3.39041225033
 30
0.0
  0
VERTEX
  8
0
 10
165.345946696
 20
-3.02564321372
 30
0.0
  0
VERTEX
  8
0
 10
165.483322365
 20
-8.3113809938
 30
0.0
  0
VERTEX
  8
0
 10
165.620705432
 20
-10.4930162675
 30
0.0
  0
SEQEND
  8
0
  0
POLYLINE
  8
0
 62
0
 70
0
 66
1
 10
0.0
 20
0.0
 30
0.0
  0
VERTEX
  8
0
 10
165.620705432
 20
-10.4930162675
 30
0.0
  0
VERTEX
  8
0
 10
165.628774116
 20
-10.5000000004
 30
0.0
  0
SEQEND
  8
0
  0
POLYLINE
  8
0
 62
0
 70
0
 66
1
 10
0.0
 20
0.0
 30
0.0
  0
VERTEX
  8
0
 10
164.249900983
 20
9.49228219136
 30
0.0
  0
VERTEX
  8
0
 10
164.421415996
 20
6.51184969327
 30
0.0
  0
VERTEX
  8
0
 10
164.592929153
 20
-0.191512340093
 30
0.0
  0
VERTEX
  8
0
 10
164.764489568
 20
-6.78536625778
 30
0.0
  0
VERTEX
  8
0
 10
164.935982472
 20
-9.50000000072
 30
0.0
  0
SEQEND
  8
0
  0
POLYLINE
  8
0
 62
0
 70
0
 66
1
 10
0.0
 20
0.0
 30
0.0
  0
VERTEX
  8
0
 10
163.663644432
 20
10.5000000015
 30
0.0
  0
VERTEX
  8
0
 10
163.671713428
 20
10.4930157293
 30
0.0
  0
SEQEND
  8
0
  0
POLYLINE
  8
0
 62
0
 70
0
 66
1
 10
0.0
 20
0.0
 30
0.0
  0
VERTEX
  8
0
 10
163.671713428
 20
10.4930157293
 30
0.0
  0
VERTEX
  8
0
 10
163.809096031
 20
8.31138582052
 30
0.0
  0
VERTEX
  8
0
 10
163.946472503
 20
3.02561367808
 30
0.0
  0
VERTEX
  8
0
 10
164.083874883
 20
-3.39043996969
 30
0.0
  0
VERTEX
  8
0
 10
164.221282297
 20
-8.53986377111
 30
0.0
  0
VERTEX
  8
0
 10
164.358643445
 20
-10.5000000008
 30
0.0
  0
SEQEND
  8
0
  0
POLYLINE
  8
0
 62
0
 70
0
 66
1
 10
0.0
 20
0.0
 30
0.0
  0
VERTEX
  8
0
 10
164.358643445
 20
-10.5000000008
 30
0.0
  0
VERTEX
  8
0
 10
164.366713986
 20
-10.4930144019
 30
0.0
  0
SEQEND
  8
0
  0
POLYLINE
  8
0
 62
0
 70
0
 66
1
 10
0.0
 20
0.0
 30
0.0
  0
VERTEX
  8
0
 10
164.356413787
 20
9.50000000182
 30
0.0
  0
VERTEX
  8
0
 10
164.527912043
 20
6.78520540402
 30
0.0
  0
VERTEX
  8
0
 10
164.699457936
 20
0.191906086393
 30
0.0
  0
VERTEX
  8
0
 10
164.870973788
 20
-6.51164726157
 30
0.0
  0
VERTEX
  8
0
 10
165.04249562
 20
-9.49228278611
 30
0.0
  0
SEQEND
  8
0
  0
POLYLINE
  8
0
 62
0
 70
0
 66
1
 10
0.0
 20
0.0
 30
0.0
  0
VERTEX
  8
0
 10
163.535704287
 20
10.4930148919
 30
0.0
  0
VERTEX
  8
0
 10
163.543774545
 20
10.5000000015
 30
0.0
  0
SEQEND
  8
0
  0
POLYLINE
  8
0
 62
0
 70
0
 66
1
 10
0.0
 20
0.0
 30
0.0
  0
VERTEX
  8
0
 10
163.543774545
 20
10.5000000015
 30
0.0
  0
VERTEX
  8
0
 10
163.681135265
 20
8.53987559776
 30
0.0
  0
VERTEX
  8
0
 10
163.818543675
 20
3.39041446045
 30
0.0
  0
VERTEX
  8
0
 10
163.955946064
 20
-3.02563988451
 30
0.0
  0
VERTEX
  8
0
 10
164.093321716
 20
-8.31137835444
 30
0.0
  0
VERTEX
  8
0
 10
164.230704845
 20
-10.4930162183
 30
0.0
  0
SEQEND
  8
0
  0
POLYLINE
  8
0
 62
0
 70
0
 66
1
 10
0.0
 20
0.0
 30
0.0
  0
VERTEX
  8
0
 10
164.230704845
 20
-10.4930162183
 30
0.0
  0
VERTEX
  8
0
 10
164.238773558
 20
-10.5000000002
 30
0.0
  0
SEQEND
  8
0
  0
POLYLINE
  8
0
 62
0
 70
0
 66
1
 10
0.0
 20
0.0
 30
0.0
  0
VERTEX
  8
0
 10
162.859902422
 20
9.49228224546
 30
0.0
  0
VERTEX
  8
0
 10
163.031421306
 20
6.51172963442
 30
0.0
  0
VERTEX
  8
0
 10
163.202939083
 20
-0.19187554148
 30
0.0
  0
VERTEX
  8
0
 10
163.374486768
 20
-6.78523793476
 30
0.0
  0
VERTEX
  8
0
 10
163.545983942
 20
-9.5000000008
 30
0.0
  0
SEQEND
  8
0
  0
POLYLINE
  8
0
 62
0
 70
0
 66
1
 10
0.0
 20
0.0
 30
0.0
  0
VERTEX
  8
0
 10
162.273643876
 20
10.5000000015
 30
0.0
  0
VERTEX
  8
0
 10
162.281712843
 20
10.4930157783
 30
0.0
  0
SEQEND
  8
0
  0
POLYLINE
  8
0
 62
0
 70
0
 66
1
 10
0.0
 20
0.0
 30
0.0
  0
VERTEX
  8
0
 10
162.281712843
 20
10.4930157783
 30
0.0
  0
VERTEX
  8
0
 10
162.419095451
 20
8.31138650216
 30
0.0
  0
VERTEX
  8
0
 10
162.556471928
 20
3.02561451255
 30
0.0
  0
VERTEX
  8
0
 10
162.693874314
 20
-3.39043937934
 30
0.0
  0
VERTEX
  8
0
 10
162.831281733
 20
-8.53986355205
 30
0.0
  0
VERTEX
  8
0
 10
162.968642889
 20
-10.5000000008
 30
0.0
  0
SEQEND
  8
0
  0
POLYLINE
  8
0
 62
0
 70
0
 66
1
 10
0.0
 20
0.0
 30
0.0
  0
VERTEX
  8
0
 10
162.968642889
 20
-10.5000000008
 30
0.0
  0
VERTEX
  8
0
 10
162.976713402
 20
-10.4930144509
 30
0.0
  0
SEQEND
  8
0
  0
POLYLINE
  8
0
 62
0
 70
0
 66
1
 10
0.0
 20
0.0
 30
0.0
  0
VERTEX
  8
0
 10
162.966415255
 20
9.50000000182
 30
0.0
  0
VERTEX
  8
0
 10
163.137913504
 20
6.78520563727
 30
0.0
  0
VERTEX
  8
0
 10
163.309459388
 20
0.191906752746
 30
0.0
  0
VERTEX
  8
0
 10
163.480975233
 20
-6.51164653191
 30
0.0
  0
VERTEX
  8
0
 10
163.652497057
 20
-9.492282732
 30
0.0
  0
SEQEND
  8
0
  0
POLYLINE
  8
0
 62
0
 70
0
 66
1
 10
0.0
 20
0.0
 30
0.0
  0
VERTEX
  8
0
 10
162.145703701
 20
10.4930148429
 30
0.0
  0
VERTEX
  8
0
 10
162.153773987
 20
10.5000000015
 30
0.0
  0
SEQEND
  8
0
  0
POLYLINE
  8
0
 62
0
 70
0
 66
1
 10
0.0
 20
0.0
 30
0.0
  0
VERTEX
  8
0
 10
162.153773987
 20
10.5000000015
 30
0.0
  0
VERTEX
  8
0
 10
162.291134738
 20
8.53987475833
 30
0.0
  0
VERTEX
  8
0
 10
162.428543178
 20
3.39041174203
 30
0.0
  0
VERTEX
  8
0
 10
162.565945596
 20
-3.0256439606
 30
0.0
  0
VERTEX
  8
0
 10
162.703321264
 20
-8.31138142606
 30
0.0
  0
VERTEX
  8
0
 10
162.840704259
 20
-10.4930161696
 30
0.0
  0
SEQEND
  8
0
  0
POLYLINE
  8
0
 62
0
 70
0
 66
1
 10
0.0
 20
0.0
 30
0.0
  0
VERTEX
  8
0
 10
162.840704259
 20
-10.4930161696
 30
0.0
  0
VERTEX
  8
0
 10
162.848773
 20
-10.5000000005
 30
0.0
  0
SEQEND
  8
0
  0
POLYLINE
  8
0
 62
0
 70
0
 66
1
 10
0.0
 20
0.0
 30
0.0
  0
VERTEX
  8
0
 10
161.469903861
 20
9.49228229958
 30
0.0
  0
VERTEX
  8
0
 10
161.64142326
 20
6.51171451997
 30
0.0
  0
VERTEX
  8
0
 10
161.812939022
 20
-0.191809790302
 30
0.0
  0
VERTEX
  8
0
 10
161.984488202
 20
-6.78523684368
 30
0.0
  0
VERTEX
  8
0
 10
162.155985413
 20
-9.50000000078
 30
0.0
  0
SEQEND
  8
0
  0
POLYLINE
  8
0
 62
0
 70
0
 66
1
 10
0.0
 20
0.0
 30
0.0
  0
VERTEX
  8
0
 10
160.88364332
 20
10.5000000015
 30
0.0
  0
VERTEX
  8
0
 10
160.891712259
 20
10.4930158272
 30
0.0
  0
SEQEND
  8
0
  0
POLYLINE
  8
0
 62
0
 70
0
 66
1
 10
0.0
 20
0.0
 30
0.0
  0
VERTEX
  8
0
 10
160.891712259
 20
10.4930158272
 30
0.0
  0
VERTEX
  8
0
 10
161.029094875
 20
8.31138708088
 30
0.0
  0
VERTEX
  8
0
 10
161.166471359
 20
3.02561510983
 30
0.0
  0
VERTEX
  8
0
 10
161.303873751
 20
-3.39043908049
 30
0.0
  0
VERTEX
  8
0
 10
161.441281177
 20
-8.53986354855
 30
0.0
  0
VERTEX
  8
0
 10
161.578642333
 20
-10.5000000008
 30
0.0
  0
SEQEND
  8
0
  0
POLYLINE
  8
0
 62
0
 70
0
 66
1
 10
0.0
 20
0.0
 30
0.0
  0
VERTEX
  8
0
 10
161.578642333
 20
-10.5000000008
 30
0.0
  0
VERTEX
  8
0
 10
161.586712818
 20
-10.4930144999
 30
0.0
  0
SEQEND
  8
0
  0
POLYLINE
  8
0
 62
0
 70
0
 66
1
 10
0.0
 20
0.0
 30
0.0
  0
VERTEX
  8
0
 10
161.576416723
 20
9.50000000182
 30
0.0
  0
VERTEX
  8
0
 10
161.747914964
 20
6.78520587231
 30
0.0
  0
VERTEX
  8
0
 10
161.919460841
 20
0.191907424137
 30
0.0
  0
VERTEX
  8
0
 10
162.090976678
 20
-6.51164579833
 30
0.0
  0
VERTEX
  8
0
 10
162.262498494
 20
-9.49228267789
 30
0.0
  0
SEQEND
  8
0
  0
POLYLINE
  8
0
 62
0
 70
0
 66
1
 10
0.0
 20
0.0
 30
0.0
  0
VERTEX
  8
0
 10
160.755703114
 20
10.4930147939
 30
0.0
  0
VERTEX
  8
0
 10
160.763773429
 20
10.5000000015
 30
0.0
  0
SEQEND
  8
0
  0
POLYLINE
  8
0
 62
0
 70
0
 66
1
 10
0.0
 20
0.0
 30
0.0
  0
VERTEX
  8
0
 10
160.763773429
 20
10.5000000015
 30
0.0
  0
VERTEX
  8
0
 10
160.901134151
 20
8.539875536
 30
0.0
  0
VERTEX
  8
0
 10
161.038542564
 20
3.390414264
 30
0.0
  0
VERTEX
  8
0
 10
161.175944954
 20
-3.02564016499
 30
0.0
  0
VERTEX
  8
0
 10
161.313320604
 20
-8.3113784586
 30
0.0
  0
VERTEX
  8
0
 10
161.450703673
 20
-10.4930161205
 30
0.0
  0
SEQEND
  8
0
  0
POLYLINE
  8
0
 62
0
 70
0
 66
1
 10
0.0
 20
0.0
 30
0.0
  0
VERTEX
  8
0
 10
161.450703673
 20
-10.4930161205
 30
0.0
  0
VERTEX
  8
0
 10
161.458772442
 20
-10.5000000004
 30
0.0
  0
SEQEND
  8
0
  0
POLYLINE
  8
0
 62
0
 70
0
 66
1
 10
0.0
 20
0.0
 30
0.0
  0
VERTEX
  8
0
 10
160.079905301
 20
9.4922823537
 30
0.0
  0
VERTEX
  8
0
 10
160.251421446
 20
6.51181719557
 30
0.0
  0
VERTEX
  8
0
 10
160.422938146
 20
-0.191709080875
 30
0.0
  0
VERTEX
  8
0
 10
160.594499568
 20
-6.78553422603
 30
0.0
  0
VERTEX
  8
0
 10
160.765986883
 20
-9.50000000672
 30
0.0
  0
SEQEND
  8
0
  0
POLYLINE
  8
0
 62
0
 70
0
 66
1
 10
0.0
 20
0.0
 30
0.0
  0
VERTEX
  8
0
 10
159.493642764
 20
10.5000000015
 30
0.0
  0
VERTEX
  8
0
 10
159.501711675
 20
10.4930158762
 30
0.0
  0
SEQEND
  8
0
  0
POLYLINE
  8
0
 62
0
 70
0
 66
1
 10
0.0
 20
0.0
 30
0.0
  0
VERTEX
  8
0
 10
159.501711675
 20
10.4930158762
 30
0.0
  0
VERTEX
  8
0
 10
159.639094297
 20
8.31138773749
 30
0.0
  0
VERTEX
  8
0
 10
159.776470786
 20
3.02561588402
 30
0.0
  0
VERTEX
  8
0
 10
159.913873184
 20
-3.39043856672
 30
0.0
  0
VERTEX
  8
0
 10
160.051280615
 20
-8.53986338731
 30
0.0
  0
VERTEX
  8
0
 10
160.188641777
 20
-10.5000000008
 30
0.0
  0
SEQEND
  8
0
  0
POLYLINE
  8
0
 62
0
 70
0
 66
1
 10
0.0
 20
0.0
 30
0.0
  0
VERTEX
  8
0
 10
160.188641777
 20
-10.5000000008
 30
0.0
  0
VERTEX
  8
0
 10
160.196712233
 20
-10.4930145488
 30
0.0
  0
SEQEND
  8
0
  0
POLYLINE
  8
0
 62
0
 70
0
 66
1
 10
0.0
 20
0.0
 30
0.0
  0
VERTEX
  8
0
 10
160.186418192
 20
9.50000000182
 30
0.0
  0
VERTEX
  8
0
 10
160.357916425
 20
6.78520609831
 30
0.0
  0
VERTEX
  8
0
 10
160.529462294
 20
0.191908069983
 30
0.0
  0
VERTEX
  8
0
 10
160.700978123
 20
-6.51164508484
 30
0.0
  0
VERTEX
  8
0
 10
160.87249993
 20
-9.49228262379
 30
0.0
  0
SEQEND
  8
0
  0
POLYLINE
  8
0
 62
0
 70
0
 66
1
 10
0.0
 20
0.0
 30
0.0
  0
VERTEX
  8
0
 10
159.365702528
 20
10.493014745
 30
0.0
  0
VERTEX
  8
0
 10
159.37377287
 20
10.5000000015
 30
0.0
  0
SEQEND
  8
0
  0
POLYLINE
  8
0
 62
0
 70
0
 66
1
 10
0.0
 20
0.0
 30
0.0
  0
VERTEX
  8
0
 10
159.37377287
 20
10.5000000015
 30
0.0
  0
VERTEX
  8
0
 10
159.511133613
 20
8.53987498214
 30
0.0
  0
VERTEX
  8
0
 10
159.648542045
 20
3.39041247096
 30
0.0
  0
VERTEX
  8
0
 10
159.785944455
 20
-3.0256428513
 30
0.0
  0
VERTEX
  8
0
 10
159.923320115
 20
-8.31138045611
 30
0.0
  0
VERTEX
  8
0
 10
160.060703086
 20
-10.4930160717
 30
0.0
  0
SEQEND
  8
0
  0
POLYLINE
  8
0
 62
0
 70
0
 66
1
 10
0.0
 20
0.0
 30
0.0
  0
VERTEX
  8
0
 10
160.060703086
 20
-10.4930160717
 30
0.0
  0
VERTEX
  8
0
 10
160.068771884
 20
-10.5000000005
 30
0.0
  0
SEQEND
  8
0
  0
POLYLINE
  8
0
 62
0
 70
0
 66
1
 10
0.0
 20
0.0
 30
0.0
  0
VERTEX
  8
0
 10
159.045958876
 20
-0.75
 30
0.0
  0
VERTEX
  8
0
 10
159.211010114
 20
-6.97819304592
 30
0.0
  0
VERTEX
  8
0
 10
159.375988354
 20
-9.50000000722
 30
0.0
  0
SEQEND
  8
0
  0
POLYLINE
  8
0
 62
0
 70
0
 66
1
 10
0.0
 20
0.0
 30
0.0
  0
VERTEX
  8
0
 10
158.466942106
 20
-0.75
 30
0.0
  0
VERTEX
  8
0
 10
158.632826722
 20
-7.68572531196
 30
0.0
  0
VERTEX
  8
0
 10
158.798641222
 20
-10.5000000008
 30
0.0
  0
SEQEND
  8
0
  0
POLYLINE
  8
0
 62
0
 70
0
 66
1
 10
0.0
 20
0.0
 30
0.0
  0
VERTEX
  8
0
 10
158.798641222
 20
-10.5000000008
 30
0.0
  0
VERTEX
  8
0
 10
158.806711649
 20
-10.4930145979
 30
0.0
  0
SEQEND
  8
0
  0
POLYLINE
  8
0
 62
0
 70
0
 66
1
 10
0.0
 20
0.0
 30
0.0
  0
VERTEX
  8
0
 10
158.466942109
 20
-0.75
 30
0.0
  0
VERTEX
  8
0
 10
159.045958879
 20
-0.75
 30
0.0
  0
SEQEND
  8
0
  0
LINE
  8
0
 62
0
 10
159.045958876
 20
-0.75
 30
0.0
 11
159.161415796
 21
-0.75
 31
0.0
  0
POLYLINE
  8
0
 62
0
 70
0
 66
1
 10
0.0
 20
0.0
 30
0.0
  0
VERTEX
  8
0
 10
159.161415796
 20
-0.75
 30
0.0
  0
VERTEX
  8
0
 10
159.321957378
 20
-6.84675069649
 30
0.0
  0
VERTEX
  8
0
 10
159.482501367
 20
-9.49228256968
 30
0.0
  0
SEQEND
  8
0
  0
POLYLINE
  8
0
 62
0
 70
0
 66
1
 10
0.0
 20
0.0
 30
0.0
  0
VERTEX
  8
0
 10
159.161415794
 20
-0.75
 30
0.0
  0
VERTEX
  8
0
 10
159.5
 20
-0.75
 30
0.0
  0
SEQEND
  8
0
  0
POLYLINE
  8
0
 62
0
 70
0
 66
1
 10
0.0
 20
0.0
 30
0.0
  0
VERTEX
  8
0
 10
159.5
 20
-0.75
 30
0.0
  0
VERTEX
  8
0
 10
159.5
 20
0.75
 30
0.0
  0
SEQEND
  8
0
  0
POLYLINE
  8
0
 62
0
 70
0
 66
1
 10
0.0
 20
0.0
 30
0.0
  0
VERTEX
  8
0
 10
159.126449136
 20
0.75
 30
0.0
  0
VERTEX
  8
0
 10
159.5
 20
0.75
 30
0.0
  0
SEQEND
  8
0
  0
POLYLINE
  8
0
 62
0
 70
0
 66
1
 10
0.0
 20
0.0
 30
0.0
  0
VERTEX
  8
0
 10
158.79641966
 20
9.50000000182
 30
0.0
  0
VERTEX
  8
0
 10
158.9614105
 20
6.97782587155
 30
0.0
  0
VERTEX
  8
0
 10
159.126449136
 20
0.75
 30
0.0
  0
SEQEND
  8
0
  0
POLYLINE
  8
0
 62
0
 70
0
 66
1
 10
0.0
 20
0.0
 30
0.0
  0
VERTEX
  8
0
 10
159.5
 20
0.75
 30
0.0
  0
VERTEX
  8
0
 10
159.5
 20
-0.75
 30
0.0
  0
SEQEND
  8
0
  0
POLYLINE
  8
0
 62
0
 70
0
 66
1
 10
0.0
 20
0.0
 30
0.0
  0
VERTEX
  8
0
 10
157.5
 20
0.75
 30
0.0
  0
VERTEX
  8
0
 10
157.5
 20
5.56648268698
 30
0.0
  0
SEQEND
  8
0
  0
POLYLINE
  8
0
 62
0
 70
0
 66
1
 10
0.0
 20
0.0
 30
0.0
  0
VERTEX
  8
0
 10
157.5
 20
8.66258057663
 30
0.0
  0
VERTEX
  8
0
 10
157.5
 20
5.56648268794
 30
0.0
  0
SEQEND
  8
0
  0
POLYLINE
  8
0
 62
0
 70
0
 66
1
 10
0.0
 20
0.0
 30
0.0
  0
VERTEX
  8
0
 10
157.5
 20
9.66967073049
 30
0.0
  0
VERTEX
  8
0
 10
157.5
 20
8.66258057868
 30
0.0
  0
SEQEND
  8
0
  0
POLYLINE
  8
0
 62
0
 70
0
 66
1
 10
0.0
 20
0.0
 30
0.0
  0
VERTEX
  8
0
 10
157.975701941
 20
10.493014696
 30
0.0
  0
VERTEX
  8
0
 10
157.983772312
 20
10.5000000015
 30
0.0
  0
SEQEND
  8
0
  0
POLYLINE
  8
0
 62
0
 70
0
 66
1
 10
0.0
 20
0.0
 30
0.0
  0
VERTEX
  8
0
 10
157.983772312
 20
10.5000000015
 30
0.0
  0
VERTEX
  8
0
 10
158.149586001
 20
7.68575154277
 30
0.0
  0
VERTEX
  8
0
 10
158.315471428
 20
0.75
 30
0.0
  0
SEQEND
  8
0
  0
POLYLINE
  8
0
 62
0
 70
0
 66
1
 10
0.0
 20
0.0
 30
0.0
  0
VERTEX
  8
0
 10
157.736450605
 20
0.75
 30
0.0
  0
VERTEX
  8
0
 10
158.315471425
 20
0.75
 30
0.0
  0
SEQEND
  8
0
  0
POLYLINE
  8
0
 62
0
 70
0
 66
1
 10
0.0
 20
0.0
 30
0.0
  0
VERTEX
  8
0
 10
157.5
 20
8.66258054418
 30
0.0
  0
VERTEX
  8
0
 10
157.618212224
 20
5.46874341503
 30
0.0
  0
VERTEX
  8
0
 10
157.736450604
 20
0.75
 30
0.0
  0
SEQEND
  8
0
  0
POLYLINE
  8
0
 62
0
 70
0
 66
1
 10
0.0
 20
0.0
 30
0.0
  0
VERTEX
  8
0
 10
158.103642209
 20
10.5000000015
 30
0.0
  0
VERTEX
  8
0
 10
158.111711091
 20
10.4930159252
 30
0.0
  0
SEQEND
  8
0
  0
POLYLINE
  8
0
 62
0
 70
0
 66
1
 10
0.0
 20
0.0
 30
0.0
  0
VERTEX
  8
0
 10
158.111711091
 20
10.4930159252
 30
0.0
  0
VERTEX
  8
0
 10
158.273511764
 20
7.55404227563
 30
0.0
  0
VERTEX
  8
0
 10
158.435311593
 20
0.75
 30
0.0
  0
SEQEND
  8
0
  0
LINE
  8
0
 62
0
 10
158.315471428
 20
0.75
 30
0.0
 11
158.435311593
 21
0.75
 31
0.0
  0
POLYLINE
  8
0
 62
0
 70
0
 66
1
 10
0.0
 20
0.0
 30
0.0
  0
VERTEX
  8
0
 10
158.68990674
 20
9.4922824078
 30
0.0
  0
VERTEX
  8
0
 10
158.850449751
 20
6.84677704116
 30
0.0
  0
VERTEX
  8
0
 10
159.010992218
 20
0.75
 30
0.0
  0
SEQEND
  8
0
  0
POLYLINE
  8
0
 62
0
 70
0
 66
1
 10
0.0
 20
0.0
 30
0.0
  0
VERTEX
  8
0
 10
158.435311594
 20
0.75
 30
0.0
  0
VERTEX
  8
0
 10
159.010992218
 20
0.75
 30
0.0
  0
SEQEND
  8
0
  0
LINE
  8
0
 62
0
 10
159.010992218
 20
0.75
 30
0.0
 11
159.126449136
 21
0.75
 31
0.0
  0
POLYLINE
  8
0
 62
0
 70
0
 66
1
 10
0.0
 20
0.0
 30
0.0
  0
VERTEX
  8
0
 10
158.347101942
 20
-0.75
 30
0.0
  0
VERTEX
  8
0
 10
158.508900826
 20
-7.55401113918
 30
0.0
  0
VERTEX
  8
0
 10
158.6707025
 20
-10.4930160225
 30
0.0
  0
SEQEND
  8
0
  0
POLYLINE
  8
0
 62
0
 70
0
 66
1
 10
0.0
 20
0.0
 30
0.0
  0
VERTEX
  8
0
 10
158.6707025
 20
-10.4930160225
 30
0.0
  0
VERTEX
  8
0
 10
158.678771326
 20
-10.5000000002
 30
0.0
  0
SEQEND
  8
0
  0
LINE
  8
0
 62
0
 10
158.347101942
 20
-0.75
 30
0.0
 11
158.466942106
 21
-0.75
 31
0.0
  0
POLYLINE
  8
0
 62
0
 70
0
 66
1
 10
0.0
 20
0.0
 30
0.0
  0
VERTEX
  8
0
 10
157.771417263
 20
-0.75
 30
0.0
  0
VERTEX
  8
0
 10
158.34710194
 20
-0.75
 30
0.0
  0
SEQEND
  8
0
  0
LINE
  8
0
 62
0
 10
157.655960346
 20
-0.75
 30
0.0
 11
157.771417264
 21
-0.75
 31
0.0
  0
POLYLINE
  8
0
 62
0
 70
0
 66
1
 10
0.0
 20
0.0
 30
0.0
  0
VERTEX
  8
0
 10
157.5
 20
-0.75
 30
0.0
  0
VERTEX
  8
0
 10
157.655960349
 20
-0.75
 30
0.0
  0
SEQEND
  8
0
  0
LINE
  8
0
 62
0
 10
157.620993688
 20
0.75
 30
0.0
 11
157.736450604
 21
0.75
 31
0.0
  0
POLYLINE
  8
0
 62
0
 70
0
 66
1
 10
0.0
 20
0.0
 30
0.0
  0
VERTEX
  8
0
 10
157.5
 20
0.75
 30
0.0
  0
VERTEX
  8
0
 10
157.620993688
 20
0.75
 30
0.0
  0
SEQEND
  8
0
  0
POLYLINE
  8
0
 62
0
 70
0
 66
1
 10
0.0
 20
0.0
 30
0.0
  0
VERTEX
  8
0
 10
157.5
 20
-10.3488510024
 30
0.0
  0
VERTEX
  8
0
 10
157.5
 20
-7.58504064764
 30
0.0
  0
VERTEX
  8
0
 10
157.5
 20
-0.75
 30
0.0
  0
SEQEND
  8
0
  0
POLYLINE
  8
0
 62
0
 70
0
 66
1
 10
0.0
 20
0.0
 30
0.0
  0
VERTEX
  8
0
 10
157.5
 20
5.56648268953
 30
0.0
  0
VERTEX
  8
0
 10
157.620993688
 20
0.75
 30
0.0
  0
SEQEND
  8
0
  0
POLYLINE
  8
0
 62
0
 70
0
 66
1
 10
0.0
 20
0.0
 30
0.0
  0
VERTEX
  8
0
 10
157.655960346
 20
-0.75
 30
0.0
  0
VERTEX
  8
0
 10
157.821007833
 20
-6.97808373968
 30
0.0
  0
VERTEX
  8
0
 10
157.985989823
 20
-9.49999999652
 30
0.0
  0
SEQEND
  8
0
  0
POLYLINE
  8
0
 62
0
 70
0
 66
1
 10
0.0
 20
0.0
 30
0.0
  0
VERTEX
  8
0
 10
157.771417264
 20
-0.75
 30
0.0
  0
VERTEX
  8
0
 10
157.93195883
 20
-6.84675022572
 30
0.0
  0
VERTEX
  8
0
 10
158.092502804
 20
-9.49228251557
 30
0.0
  0
SEQEND
  8
0
  0
LINE
  8
0
 62
0
 10
196.978791092
 20
-12.4980349966
 30
0.0
 11
196.978791092
 21
-12.4990542224
 31
0.0
  0
LINE
  8
0
 62
0
 10
196.914103924
 20
-12.4383777662
 30
0.0
 11
196.914103924
 21
-12.4449549276
 31
0.0
  0
LINE
  8
0
 62
0
 10
197.237539767
 20
-12.4383777662
 30
0.0
 11
197.237539767
 21
-12.4449549276
 31
0.0
  0
LINE
  8
0
 62
0
 10
197.861081654
 20
-12.4383777662
 30
0.0
 11
197.861081654
 21
-12.4652760379
 31
0.0
  0
LINE
  8
0
 62
0
 10
199.357370095
 20
-12.4990492993
 30
0.0
 11
199.357370095
 21
-12.4997048711
 31
0.0
  0
LINE
  8
0
 62
0
 10
199.920466596
 20
-12.452302295
 30
0.0
 11
199.920466596
 21
-12.4980724272
 31
0.0
  0
LINE
  8
0
 62
0
 10
201.20466596
 20
-12.4593816233
 30
0.0
 11
201.20466596
 21
-12.4876429758
 31
0.0
  0
LINE
  8
0
 62
0
 10
202.008483563
 20
-12.4315431209
 30
0.0
 11
202.008483563
 21
-12.4383777662
 31
0.0
  0
LINE
  8
0
 62
0
 10
202.709437964
 20
-12.4339404091
 30
0.0
 11
202.709437964
 21
-12.4942013587
 31
0.0
  0
LINE
  8
0
 62
0
 10
202.763520679
 20
-12.4314266072
 30
0.0
 11
202.763520679
 21
-12.4942013587
 31
0.0
  0
LINE
  8
0
 62
0
 10
200.970307529
 20
-12.4800842997
 30
0.0
 11
200.970307529
 21
-12.4912488358
 31
0.0
  0
LINE
  8
0
 62
0
 10
205.745493107
 20
-12.4383777662
 30
0.0
 11
205.745493107
 21
-12.4449549276
 31
0.0
  0
LINE
  8
0
 62
0
 10
205.891834571
 20
-12.4383777662
 30
0.0
 11
205.891834571
 21
-12.4449549276
 31
0.0
  0
LINE
  8
0
 62
0
 10
206.387062566
 20
-12.4383777662
 30
0.0
 11
206.387062566
 21
-12.4714662596
 31
0.0
  0
LINE
  8
0
 62
0
 10
204.534464475
 20
-12.4383777662
 30
0.0
 11
204.534464475
 21
-12.4720375597
 31
0.0
  0
LINE
  8
0
 62
0
 10
204.997879109
 20
-12.4383777662
 30
0.0
 11
204.997879109
 21
-12.4449549276
 31
0.0
  0
LINE
  8
0
 62
0
 10
205.133616119
 20
-12.4383777662
 30
0.0
 11
205.133616119
 21
-12.4449549276
 31
0.0
  0
LINE
  8
0
 62
0
 10
213.325556734
 20
-12.4550683818
 30
0.0
 11
213.325556734
 21
-12.4681446534
 31
0.0
  0
LINE
  8
0
 62
0
 10
216.583244963
 20
-12.4550683818
 30
0.0
 11
216.583244963
 21
-12.4681446534
 31
0.0
  0
LINE
  8
0
 62
0
 10
214.954400848
 20
-12.4550683818
 30
0.0
 11
214.954400848
 21
-12.4681446534
 31
0.0
  0
LINE
  8
0
 62
0
 10
208.981972428
 20
-12.4550683818
 30
0.0
 11
208.981972428
 21
-12.4681446534
 31
0.0
  0
LINE
  8
0
 62
0
 10
199.731707317
 20
-12.4445893681
 30
0.0
 11
199.731707317
 21
-12.4552974249
 31
0.0
  0
LINE
  8
0
 62
0
 10
199.326617179
 20
-12.4383777662
 30
0.0
 11
199.326617179
 21
-12.4449549276
 31
0.0
  0
LINE
  8
0
 62
0
 10
199.148462354
 20
-12.4383777662
 30
0.0
 11
199.148462354
 21
-12.4449549276
 31
0.0
  0
LINE
  8
0
 62
0
 10
199.058324496
 20
-12.4383777662
 30
0.0
 11
199.058324496
 21
-12.4454530353
 31
0.0
  0
LINE
  8
0
 62
0
 10
199.006362672
 20
-12.4383777662
 30
0.0
 11
199.006362672
 21
-12.4482003336
 31
0.0
  0
LINE
  8
0
 62
0
 10
212.901378579
 20
-12.438377833
 30
0.0
 11
212.901378579
 21
-12.4449549276
 31
0.0
  0
LINE
  8
0
 62
0
 10
216.159066808
 20
-12.438377833
 30
0.0
 11
216.159066808
 21
-12.4449549276
 31
0.0
  0
LINE
  8
0
 62
0
 10
214.530222694
 20
-12.438377833
 30
0.0
 11
214.530222694
 21
-12.4449549276
 31
0.0
  0
LINE
  8
0
 62
0
 10
208.557794274
 20
-12.438377833
 30
0.0
 11
208.557794274
 21
-12.4449549276
 31
0.0
  0
LINE
  8
0
 62
0
 10
184.5
 20
-12.5
 30
0.0
 11
196.475079533
 21
-12.5
 31
0.0
  0
LINE
  8
0
 62
0
 10
196.746553552
 20
-12.5
 30
0.0
 11
197.328063167
 21
-12.5
 31
0.0
  0
LINE
  8
0
 62
0
 10
197.4252386
 20
-12.5
 30
0.0
 11
198.714740191
 21
-12.5
 31
0.0
  0
LINE
  8
0
 62
0
 10
198.98621421
 20
-12.5
 30
0.0
 11
199.587063503
 21
-12.5
 31
0.0
  0
LINE
  8
0
 62
0
 10
199.854357163
 20
-12.5
 30
0.0
 11
200.824394692
 21
-12.5
 31
0.0
  0
LINE
  8
0
 62
0
 10
201.161140562
 20
-12.5
 30
0.0
 11
205.297985154
 21
-12.5
 31
0.0
  0
LINE
  8
0
 62
0
 10
205.569459173
 20
-12.5
 30
0.0
 11
207.87793444
 21
-12.5
 31
0.0
  0
LINE
  8
0
 62
0
 10
209.233458125
 20
-12.5
 30
0.0
 11
210.116648993
 21
-12.5
 31
0.0
  0
LINE
  8
0
 62
0
 10
210.320254507
 20
-12.5
 30
0.0
 11
212.221518746
 21
-12.5
 31
0.0
  0
LINE
  8
0
 62
0
 10
213.57704243
 20
-12.5
 30
0.0
 11
213.85036286
 21
-12.5
 31
0.0
  0
LINE
  8
0
 62
0
 10
215.205886545
 20
-12.5
 30
0.0
 11
215.479206975
 21
-12.5
 31
0.0
  0
LINE
  8
0
 62
0
 10
216.834730659
 20
-12.5
 30
0.0
 11
217.717921527
 21
-12.5
 31
0.0
  0
LINE
  8
0
 62
0
 10
217.921527041
 20
-12.5
 30
0.0
 11
219.200000009
 21
-12.5
 31
0.0
  0
LINE
  8
0
 62
0
 10
226.2
 20
-12.5
 30
0.0
 11
228.2
 21
-12.5
 31
0.0
  0
LINE
  8
0
 62
0
 10
184.5
 20
12.5
 30
0.0
 11
219.200000009
 21
12.5
 31
0.0
  0
LINE
  8
0
 62
0
 10
226.2
 20
12.5
 30
0.0
 11
228.2
 21
12.5
 31
0.0
  0
LINE
  8
0
 62
0
 10
182.0
 20
-10.5
 30
0.0
 11
184.5
 21
-10.5
 31
0.0
  0
LINE
  8
0
 62
0
 10
182.0
 20
10.5
 30
0.0
 11
184.5
 21
10.5
 31
0.0
  0
LINE
  8
0
 62
0
 10
180.5
 20
-9.6
 30
0.0
 11
182.0
 21
-9.6
 31
0.0
  0
LINE
  8
0
 62
0
 10
180.5
 20
9.6
 30
0.0
 11
182.0
 21
9.6
 31
0.0
  0
LINE
  8
0
 62
0
 10
220.207635046
 20
-4.0
 30
0.0
 11
225.192364943
 21
-4.0
 31
0.0
  0
LINE
  8
0
 62
0
 10
220.207635046
 20
4.0
 30
0.0
 11
225.192364943
 21
4.0
 31
0.0
  0
LINE
  8
0
 62
0
 10
212.493078556
 20
-12.5
 30
0.0
 11
213.305168758
 21
-12.5
 31
0.0
  0
LINE
  8
0
 62
0
 10
215.750766785
 20
-12.5
 30
0.0
 11
216.562856987
 21
-12.5
 31
0.0
  0
LINE
  8
0
 62
0
 10
214.121922671
 20
-12.5
 30
0.0
 11
214.934012872
 21
-12.5
 31
0.0
  0
LINE
  8
0
 62
0
 10
208.149494251
 20
-12.5
 30
0.0
 11
208.961584452
 21
-12.5
 31
0.0
  0
LINE
  8
0
 62
0
 10
178.5
 20
-10.5
 30
0.0
 11
180.5
 21
-10.5
 31
0.0
  0
LINE
  8
0
 62
0
 10
178.5
 20
10.5
 30
0.0
 11
180.5
 21
10.5
 31
0.0
  0
LINE
  8
0
 62
0
 10
177.0
 20
-9.6
 30
0.0
 11
178.5
 21
-9.6
 31
0.0
  0
LINE
  8
0
 62
0
 10
177.0
 20
9.6
 30
0.0
 11
178.5
 21
9.6
 31
0.0
  0
LINE
  8
0
 62
0
 10
174.5
 20
-10.5
 30
0.0
 11
177.0
 21
-10.5
 31
0.0
  0
LINE
  8
0
 62
0
 10
174.5
 20
10.5
 30
0.0
 11
177.0
 21
10.5
 31
0.0
  0
LINE
  8
0
 62
0
 10
172.0
 20
-9.49
 30
0.0
 11
174.5
 21
-9.49
 31
0.0
  0
LINE
  8
0
 62
0
 10
172.0
 20
9.49
 30
0.0
 11
174.5
 21
9.49
 31
0.0
  0
POLYLINE
  8
0
 62
0
 70
0
 66
1
 10
0.0
 20
0.0
 30
0.0
  0
VERTEX
  8
0
 10
171.199893788
 20
9.49228192172
 30
0.0
  0
VERTEX
  8
0
 10
170.621716349
 20
10.4930154851
 30
0.0
  0
SEQEND
  8
0
  0
POLYLINE
  8
0
 62
0
 70
0
 66
1
 10
0.0
 20
0.0
 30
0.0
  0
VERTEX
  8
0
 10
171.89043415
 20
-9.5
 30
0.0
  0
VERTEX
  8
0
 10
171.316716907
 20
-10.4930141539
 30
0.0
  0
SEQEND
  8
0
  0
LINE
  8
0
 62
0
 10
171.885975121
 20
-9.5
 30
0.0
 11
171.996947596
 21
-9.5
 31
0.0
  0
LINE
  8
0
 62
0
 10
171.195434298
 20
9.5
 30
0.0
 11
171.306406446
 21
9.5
 31
0.0
  0
POLYLINE
  8
0
 62
0
 70
0
 66
1
 10
0.0
 20
0.0
 30
0.0
  0
VERTEX
  8
0
 10
171.875707805
 20
10.4930151825
 30
0.0
  0
VERTEX
  8
0
 10
171.301947744
 20
9.5
 30
0.0
  0
SEQEND
  8
0
  0
POLYLINE
  8
0
 62
0
 70
0
 66
1
 10
0.0
 20
0.0
 30
0.0
  0
VERTEX
  8
0
 10
172.0
 20
-9.50528243974
 30
0.0
  0
VERTEX
  8
0
 10
171.992488435
 20
-9.49228305797
 30
0.0
  0
SEQEND
  8
0
  0
LINE
  8
0
 62
0
 10
171.883777893
 20
10.5
 30
0.0
 11
172.0
 21
10.5
 31
0.0
  0
LINE
  8
0
 62
0
 10
171.188776348
 20
-10.5
 30
0.0
 11
171.308646225
 21
-10.5
 31
0.0
  0
LINE
  8
0
 62
0
 10
170.493777335
 20
10.5
 30
0.0
 11
170.613647212
 21
10.5
 31
0.0
  0
POLYLINE
  8
0
 62
0
 70
0
 66
1
 10
0.0
 20
0.0
 30
0.0
  0
VERTEX
  8
0
 10
169.809895227
 20
9.49228197584
 30
0.0
  0
VERTEX
  8
0
 10
169.231715765
 20
10.4930155341
 30
0.0
  0
SEQEND
  8
0
  0
POLYLINE
  8
0
 62
0
 70
0
 66
1
 10
0.0
 20
0.0
 30
0.0
  0
VERTEX
  8
0
 10
170.500435605
 20
-9.5
 30
0.0
  0
VERTEX
  8
0
 10
169.926716323
 20
-10.4930142029
 30
0.0
  0
SEQEND
  8
0
  0
LINE
  8
0
 62
0
 10
170.495976591
 20
-9.5
 30
0.0
 11
170.606949049
 21
-9.5
 31
0.0
  0
LINE
  8
0
 62
0
 10
169.805435753
 20
9.5
 30
0.0
 11
169.916407914
 21
9.5
 31
0.0
  0
POLYLINE
  8
0
 62
0
 70
0
 66
1
 10
0.0
 20
0.0
 30
0.0
  0
VERTEX
  8
0
 10
170.485707219
 20
10.4930151335
 30
0.0
  0
VERTEX
  8
0
 10
169.911949197
 20
9.5
 30
0.0
  0
SEQEND
  8
0
  0
POLYLINE
  8
0
 62
0
 70
0
 66
1
 10
0.0
 20
0.0
 30
0.0
  0
VERTEX
  8
0
 10
171.180707777
 20
-10.4930164645
 30
0.0
  0
VERTEX
  8
0
 10
170.602489872
 20
-9.49228300386
 30
0.0
  0
SEQEND
  8
0
  0
LINE
  8
0
 62
0
 10
169.79877579
 20
-10.5
 30
0.0
 11
169.918645669
 21
-10.5
 31
0.0
  0
LINE
  8
0
 62
0
 10
169.103776777
 20
10.5
 30
0.0
 11
169.223646656
 21
10.5
 31
0.0
  0
POLYLINE
  8
0
 62
0
 70
0
 66
1
 10
0.0
 20
0.0
 30
0.0
  0
VERTEX
  8
0
 10
168.419896666
 20
9.49228202995
 30
0.0
  0
VERTEX
  8
0
 10
167.84171518
 20
10.493015583
 30
0.0
  0
SEQEND
  8
0
  0
POLYLINE
  8
0
 62
0
 70
0
 66
1
 10
0.0
 20
0.0
 30
0.0
  0
VERTEX
  8
0
 10
169.11043706
 20
-9.5
 30
0.0
  0
VERTEX
  8
0
 10
168.536715739
 20
-10.4930142519
 30
0.0
  0
SEQEND
  8
0
  0
LINE
  8
0
 62
0
 10
169.105978061
 20
-9.5
 30
0.0
 11
169.216950501
 21
-9.5
 31
0.0
  0
LINE
  8
0
 62
0
 10
168.415437208
 20
9.5
 30
0.0
 11
168.526409382
 21
9.5
 31
0.0
  0
POLYLINE
  8
0
 62
0
 70
0
 66
1
 10
0.0
 20
0.0
 30
0.0
  0
VERTEX
  8
0
 10
169.095706632
 20
10.4930150845
 30
0.0
  0
VERTEX
  8
0
 10
168.521950649
 20
9.5
 30
0.0
  0
SEQEND
  8
0
  0
POLYLINE
  8
0
 62
0
 70
0
 66
1
 10
0.0
 20
0.0
 30
0.0
  0
VERTEX
  8
0
 10
169.790707191
 20
-10.4930164156
 30
0.0
  0
VERTEX
  8
0
 10
169.212491309
 20
-9.49228294976
 30
0.0
  0
SEQEND
  8
0
  0
LINE
  8
0
 62
0
 10
168.408775232
 20
-10.5
 30
0.0
 11
168.528645113
 21
-10.5
 31
0.0
  0
LINE
  8
0
 62
0
 10
167.713776219
 20
10.5
 30
0.0
 11
167.8336461
 21
10.5
 31
0.0
  0
POLYLINE
  8
0
 62
0
 70
0
 66
1
 10
0.0
 20
0.0
 30
0.0
  0
VERTEX
  8
0
 10
167.029898105
 20
9.49228208406
 30
0.0
  0
VERTEX
  8
0
 10
166.451714596
 20
10.493015632
 30
0.0
  0
SEQEND
  8
0
  0
POLYLINE
  8
0
 62
0
 70
0
 66
1
 10
0.0
 20
0.0
 30
0.0
  0
VERTEX
  8
0
 10
167.720438514
 20
-9.5
 30
0.0
  0
VERTEX
  8
0
 10
167.146715154
 20
-10.4930143009
 30
0.0
  0
SEQEND
  8
0
  0
LINE
  8
0
 62
0
 10
167.715979532
 20
-9.5
 30
0.0
 11
167.826951954
 21
-9.5
 31
0.0
  0
LINE
  8
0
 62
0
 10
167.025438662
 20
9.5
 30
0.0
 11
167.13641085
 21
9.5
 31
0.0
  0
POLYLINE
  8
0
 62
0
 70
0
 66
1
 10
0.0
 20
0.0
 30
0.0
  0
VERTEX
  8
0
 10
167.705706046
 20
10.4930150355
 30
0.0
  0
VERTEX
  8
0
 10
167.131952102
 20
9.5
 30
0.0
  0
SEQEND
  8
0
  0
POLYLINE
  8
0
 62
0
 70
0
 66
1
 10
0.0
 20
0.0
 30
0.0
  0
VERTEX
  8
0
 10
168.400706605
 20
-10.4930163666
 30
0.0
  0
VERTEX
  8
0
 10
167.822492746
 20
-9.49228289565
 30
0.0
  0
SEQEND
  8
0
  0
LINE
  8
0
 62
0
 10
167.018774674
 20
-10.5
 30
0.0
 11
167.138644557
 21
-10.5
 31
0.0
  0
LINE
  8
0
 62
0
 10
166.323775661
 20
10.5
 30
0.0
 11
166.443645544
 21
10.5
 31
0.0
  0
POLYLINE
  8
0
 62
0
 70
0
 66
1
 10
0.0
 20
0.0
 30
0.0
  0
VERTEX
  8
0
 10
165.639899544
 20
9.49228213818
 30
0.0
  0
VERTEX
  8
0
 10
165.061714012
 20
10.493015681
 30
0.0
  0
SEQEND
  8
0
  0
POLYLINE
  8
0
 62
0
 70
0
 66
1
 10
0.0
 20
0.0
 30
0.0
  0
VERTEX
  8
0
 10
166.330439969
 20
-9.5
 30
0.0
  0
VERTEX
  8
0
 10
165.75671457
 20
-10.4930143499
 30
0.0
  0
SEQEND
  8
0
  0
LINE
  8
0
 62
0
 10
166.325981002
 20
-9.5
 30
0.0
 11
166.436953406
 21
-9.5
 31
0.0
  0
LINE
  8
0
 62
0
 10
165.635440117
 20
9.5
 30
0.0
 11
165.746412319
 21
9.5
 31
0.0
  0
POLYLINE
  8
0
 62
0
 70
0
 66
1
 10
0.0
 20
0.0
 30
0.0
  0
VERTEX
  8
0
 10
166.31570546
 20
10.4930149866
 30
0.0
  0
VERTEX
  8
0
 10
165.741953554
 20
9.5
 30
0.0
  0
SEQEND
  8
0
  0
POLYLINE
  8
0
 62
0
 70
0
 66
1
 10
0.0
 20
0.0
 30
0.0
  0
VERTEX
  8
0
 10
167.010706018
 20
-10.4930163176
 30
0.0
  0
VERTEX
  8
0
 10
166.432494183
 20
-9.49228284155
 30
0.0
  0
SEQEND
  8
0
  0
LINE
  8
0
 62
0
 10
165.628774116
 20
-10.5
 30
0.0
 11
165.748644001
 21
-10.5
 31
0.0
  0
LINE
  8
0
 62
0
 10
164.933775103
 20
10.5
 30
0.0
 11
165.053644988
 21
10.5
 31
0.0
  0
POLYLINE
  8
0
 62
0
 70
0
 66
1
 10
0.0
 20
0.0
 30
0.0
  0
VERTEX
  8
0
 10
164.249900983
 20
9.49228219229
 30
0.0
  0
VERTEX
  8
0
 10
163.671713428
 20
10.49301573
 30
0.0
  0
SEQEND
  8
0
  0
POLYLINE
  8
0
 62
0
 70
0
 66
1
 10
0.0
 20
0.0
 30
0.0
  0
VERTEX
  8
0
 10
164.940441424
 20
-9.5
 30
0.0
  0
VERTEX
  8
0
 10
164.366713986
 20
-10.4930143989
 30
0.0
  0
SEQEND
  8
0
  0
LINE
  8
0
 62
0
 10
164.935982472
 20
-9.5
 30
0.0
 11
165.046954859
 21
-9.5
 31
0.0
  0
LINE
  8
0
 62
0
 10
164.245441572
 20
9.5
 30
0.0
 11
164.356413787
 21
9.5
 31
0.0
  0
POLYLINE
  8
0
 62
0
 70
0
 66
1
 10
0.0
 20
0.0
 30
0.0
  0
VERTEX
  8
0
 10
164.925704873
 20
10.4930149376
 30
0.0
  0
VERTEX
  8
0
 10
164.351955007
 20
9.5
 30
0.0
  0
SEQEND
  8
0
  0
POLYLINE
  8
0
 62
0
 70
0
 66
1
 10
0.0
 20
0.0
 30
0.0
  0
VERTEX
  8
0
 10
165.620705432
 20
-10.4930162686
 30
0.0
  0
VERTEX
  8
0
 10
165.04249562
 20
-9.49228278744
 30
0.0
  0
SEQEND
  8
0
  0
LINE
  8
0
 62
0
 10
164.238773558
 20
-10.5
 30
0.0
 11
164.358643445
 21
-10.5
 31
0.0
  0
LINE
  8
0
 62
0
 10
163.543774545
 20
10.5
 30
0.0
 11
163.663644432
 21
10.5
 31
0.0
  0
POLYLINE
  8
0
 62
0
 70
0
 66
1
 10
0.0
 20
0.0
 30
0.0
  0
VERTEX
  8
0
 10
162.859902422
 20
9.4922822464
 30
0.0
  0
VERTEX
  8
0
 10
162.281712843
 20
10.4930157789
 30
0.0
  0
SEQEND
  8
0
  0
POLYLINE
  8
0
 62
0
 70
0
 66
1
 10
0.0
 20
0.0
 30
0.0
  0
VERTEX
  8
0
 10
163.550442879
 20
-9.5
 30
0.0
  0
VERTEX
  8
0
 10
162.976713402
 20
-10.4930144478
 30
0.0
  0
SEQEND
  8
0
  0
LINE
  8
0
 62
0
 10
163.545983942
 20
-9.5
 30
0.0
 11
163.656956312
 21
-9.5
 31
0.0
  0
LINE
  8
0
 62
0
 10
162.855443027
 20
9.5
 30
0.0
 11
162.966415255
 21
9.5
 31
0.0
  0
POLYLINE
  8
0
 62
0
 70
0
 66
1
 10
0.0
 20
0.0
 30
0.0
  0
VERTEX
  8
0
 10
163.535704287
 20
10.4930148886
 30
0.0
  0
VERTEX
  8
0
 10
162.96195646
 20
9.5
 30
0.0
  0
SEQEND
  8
0
  0
POLYLINE
  8
0
 62
0
 70
0
 66
1
 10
0.0
 20
0.0
 30
0.0
  0
VERTEX
  8
0
 10
164.230704845
 20
-10.4930162197
 30
0.0
  0
VERTEX
  8
0
 10
163.652497057
 20
-9.49228273333
 30
0.0
  0
SEQEND
  8
0
  0
LINE
  8
0
 62
0
 10
162.848773
 20
-10.5
 30
0.0
 11
162.968642889
 21
-10.5
 31
0.0
  0
LINE
  8
0
 62
0
 10
162.153773987
 20
10.5
 30
0.0
 11
162.273643876
 21
10.5
 31
0.0
  0
POLYLINE
  8
0
 62
0
 70
0
 66
1
 10
0.0
 20
0.0
 30
0.0
  0
VERTEX
  8
0
 10
161.469903861
 20
9.49228230051
 30
0.0
  0
VERTEX
  8
0
 10
160.891712259
 20
10.4930158279
 30
0.0
  0
SEQEND
  8
0
  0
POLYLINE
  8
0
 62
0
 70
0
 66
1
 10
0.0
 20
0.0
 30
0.0
  0
VERTEX
  8
0
 10
162.160444333
 20
-9.5
 30
0.0
  0
VERTEX
  8
0
 10
161.586712818
 20
-10.4930144968
 30
0.0
  0
SEQEND
  8
0
  0
LINE
  8
0
 62
0
 10
162.155985413
 20
-9.5
 30
0.0
 11
162.266957764
 21
-9.5
 31
0.0
  0
LINE
  8
0
 62
0
 10
161.465444481
 20
9.5
 30
0.0
 11
161.576416723
 21
9.5
 31
0.0
  0
POLYLINE
  8
0
 62
0
 70
0
 66
1
 10
0.0
 20
0.0
 30
0.0
  0
VERTEX
  8
0
 10
162.145703701
 20
10.4930148396
 30
0.0
  0
VERTEX
  8
0
 10
161.571957912
 20
9.5
 30
0.0
  0
SEQEND
  8
0
  0
POLYLINE
  8
0
 62
0
 70
0
 66
1
 10
0.0
 20
0.0
 30
0.0
  0
VERTEX
  8
0
 10
162.840704259
 20
-10.4930161707
 30
0.0
  0
VERTEX
  8
0
 10
162.262498494
 20
-9.49228267922
 30
0.0
  0
SEQEND
  8
0
  0
LINE
  8
0
 62
0
 10
161.458772442
 20
-10.5
 30
0.0
 11
161.578642333
 21
-10.5
 31
0.0
  0
LINE
  8
0
 62
0
 10
160.763773429
 20
10.5
 30
0.0
 11
160.88364332
 21
10.5
 31
0.0
  0
POLYLINE
  8
0
 62
0
 70
0
 66
1
 10
0.0
 20
0.0
 30
0.0
  0
VERTEX
  8
0
 10
160.079905301
 20
9.49228235463
 30
0.0
  0
VERTEX
  8
0
 10
159.501711675
 20
10.4930158769
 30
0.0
  0
SEQEND
  8
0
  0
POLYLINE
  8
0
 62
0
 70
0
 66
1
 10
0.0
 20
0.0
 30
0.0
  0
VERTEX
  8
0
 10
160.770445788
 20
-9.5
 30
0.0
  0
VERTEX
  8
0
 10
160.196712233
 20
-10.4930145458
 30
0.0
  0
SEQEND
  8
0
  0
LINE
  8
0
 62
0
 10
160.765986883
 20
-9.5
 30
0.0
 11
160.876959217
 21
-9.5
 31
0.0
  0
LINE
  8
0
 62
0
 10
160.075445936
 20
9.5
 30
0.0
 11
160.186418192
 21
9.5
 31
0.0
  0
POLYLINE
  8
0
 62
0
 70
0
 66
1
 10
0.0
 20
0.0
 30
0.0
  0
VERTEX
  8
0
 10
160.755703114
 20
10.4930147906
 30
0.0
  0
VERTEX
  8
0
 10
160.181959365
 20
9.5
 30
0.0
  0
SEQEND
  8
0
  0
POLYLINE
  8
0
 62
0
 70
0
 66
1
 10
0.0
 20
0.0
 30
0.0
  0
VERTEX
  8
0
 10
161.450703673
 20
-10.4930161217
 30
0.0
  0
VERTEX
  8
0
 10
160.87249993
 20
-9.49228262512
 30
0.0
  0
SEQEND
  8
0
  0
LINE
  8
0
 62
0
 10
160.068771884
 20
-10.5
 30
0.0
 11
160.188641777
 21
-10.5
 31
0.0
  0
LINE
  8
0
 62
0
 10
159.37377287
 20
10.5
 30
0.0
 11
159.493642764
 21
10.5
 31
0.0
  0
POLYLINE
  8
0
 62
0
 70
0
 66
1
 10
0.0
 20
0.0
 30
0.0
  0
VERTEX
  8
0
 10
159.380447243
 20
-9.5
 30
0.0
  0
VERTEX
  8
0
 10
158.806711649
 20
-10.4930145948
 30
0.0
  0
SEQEND
  8
0
  0
LINE
  8
0
 62
0
 10
159.375988354
 20
-9.5
 30
0.0
 11
159.486960669
 21
-9.5
 31
0.0
  0
POLYLINE
  8
0
 62
0
 70
0
 66
1
 10
0.0
 20
0.0
 30
0.0
  0
VERTEX
  8
0
 10
159.365702528
 20
10.4930147417
 30
0.0
  0
VERTEX
  8
0
 10
158.791960817
 20
9.5
 30
0.0
  0
SEQEND
  8
0
  0
POLYLINE
  8
0
 62
0
 70
0
 66
1
 10
0.0
 20
0.0
 30
0.0
  0
VERTEX
  8
0
 10
160.060703086
 20
-10.4930160728
 30
0.0
  0
VERTEX
  8
0
 10
159.482501367
 20
-9.49228257101
 30
0.0
  0
SEQEND
  8
0
  0
POLYLINE
  8
0
 62
0
 70
0
 66
1
 10
0.0
 20
0.0
 30
0.0
  0
VERTEX
  8
0
 10
157.975701941
 20
10.4930146927
 30
0.0
  0
VERTEX
  8
0
 10
157.5
 20
9.66967073041
 30
0.0
  0
SEQEND
  8
0
  0
LINE
  8
0
 62
0
 10
157.983772312
 20
10.5
 30
0.0
 11
158.103642209
 21
10.5
 31
0.0
  0
POLYLINE
  8
0
 62
0
 70
0
 66
1
 10
0.0
 20
0.0
 30
0.0
  0
VERTEX
  8
0
 10
158.68990674
 20
9.49228240874
 30
0.0
  0
VERTEX
  8
0
 10
158.111711091
 20
10.4930159259
 30
0.0
  0
SEQEND
  8
0
  0
LINE
  8
0
 62
0
 10
158.685447391
 20
9.5
 30
0.0
 11
158.79641966
 21
9.5
 31
0.0
  0
LINE
  8
0
 62
0
 10
158.678771326
 20
-10.5
 30
0.0
 11
158.798641222
 21
-10.5
 31
0.0
  0
POLYLINE
  8
0
 62
0
 70
0
 66
1
 10
0.0
 20
0.0
 30
0.0
  0
VERTEX
  8
0
 10
157.990448697
 20
-9.5
 30
0.0
  0
VERTEX
  8
0
 10
157.5
 20
-10.3488510005
 30
0.0
  0
SEQEND
  8
0
  0
LINE
  8
0
 62
0
 10
157.985989823
 20
-9.5
 30
0.0
 11
158.096962122
 21
-9.5
 31
0.0
  0
POLYLINE
  8
0
 62
0
 70
0
 66
1
 10
0.0
 20
0.0
 30
0.0
  0
VERTEX
  8
0
 10
158.6707025
 20
-10.4930160238
 30
0.0
  0
VERTEX
  8
0
 10
158.092502804
 20
-9.4922825169
 30
0.0
  0
SEQEND
  8
0
  0
ENDBLK
  0
ENDSEC
  0
SECTION
  2
ENTITIES
  0
INSERT
  2
CUT084
  8
0
 62
0
 10
0.0
 20
0.0
 30
0.0
  0
ENDSEC
  0
EOF
