  0
SECTION
  2
HEADER
  9
$ACADVER
  1
AC1009
  9
$INSBASE
 10
0.0
 20
0.0
 30
0.0
  9
$EXTMIN
 10
0.0
 20
0.0
 30
0.0
  9
$EXTMAX
 10
0.0
 20
0.0
 30
0.0
  0
ENDSEC
  0
SECTION
  2
TABLES
  0
TABLE
  2
VPORT
 70
0
  0
ENDTAB
  0
TABLE
  2
LTYPE
 70
1
  0
LTYPE
  2
CONTINUOUS
 70
0
  3
Solid line
 72
65
 73
0
 40
0.0
  0
ENDTAB
  0
TABLE
  2
LAYER
 70
1
  0
LAYER
  2
0
 70
64
 62
7
  6
continuous
  0
ENDTAB
  0
TABLE
  2
STYLE
 70
1
  0
STYLE
  2
STANDARD
 70
0
 40
0
 41
1.0
 50
0.0
 71
0
 42
1
 3
ARIAL.TTF
 4

  0
ENDTAB
  0
TABLE
  2
VIEW
 70
0
  0
ENDTAB
  0
ENDSEC
  0
SECTION
  2
BLOCKS
  0
BLOCK
  8
0
  2
EXTRUDE003
 70
0
 10
0.0
 20
0.0
 30
0.0
  3
EXTRUDE003
  0
LINE
  8
0
 62
0
 10
196.101802757
 20
-0.9
 30
0.0
 11
196.101802757
 21
-0.832131495228
 31
0.0
  0
POLYLINE
  8
0
 62
0
 70
0
 66
1
 10
0.0
 20
0.0
 30
0.0
  0
VERTEX
  8
0
 10
196.101802757
 20
-0.832131495228
 30
0.0
  0
VERTEX
  8
0
 10
196.475079533
 20
-0.722905620361
 30
0.0
  0
SEQEND
  8
0
  0
LINE
  8
0
 62
0
 10
196.475079533
 20
-0.722905620361
 30
0.0
 11
196.475079533
 21
1.16256627784
 31
0.0
  0
POLYLINE
  8
0
 62
0
 70
0
 66
1
 10
0.0
 20
0.0
 30
0.0
  0
VERTEX
  8
0
 10
196.475079533
 20
1.16256627784
 30
0.0
  0
VERTEX
  8
0
 10
196.101802757
 20
1.2717921527
 30
0.0
  0
SEQEND
  8
0
  0
LINE
  8
0
 62
0
 10
196.101802757
 20
1.2717921527
 30
0.0
 11
196.101802757
 21
1.33966065748
 31
0.0
  0
LINE
  8
0
 62
0
 10
196.101802757
 20
1.33966065748
 30
0.0
 11
197.963944857
 21
1.33966065748
 31
0.0
  0
LINE
  8
0
 62
0
 10
197.963944857
 20
1.33966065748
 30
0.0
 11
198.05514316
 21
0.588865323436
 31
0.0
  0
LINE
  8
0
 62
0
 10
198.05514316
 20
0.588865323436
 30
0.0
 11
197.959703075
 21
0.588865323436
 31
0.0
  0
POLYLINE
  8
0
 62
0
 70
0
 66
1
 10
0.0
 20
0.0
 30
0.0
  0
VERTEX
  8
0
 10
197.959703075
 20
0.588865323436
 30
0.0
  0
VERTEX
  8
0
 10
197.861081654
 20
1.03107104984
 30
0.0
  0
SEQEND
  8
0
  0
POLYLINE
  8
0
 62
0
 70
0
 66
1
 10
0.0
 20
0.0
 30
0.0
  0
VERTEX
  8
0
 10
197.861081654
 20
1.03107104984
 30
0.0
  0
VERTEX
  8
0
 10
197.65747614
 20
1.21983032874
 30
0.0
  0
SEQEND
  8
0
  0
POLYLINE
  8
0
 62
0
 70
0
 66
1
 10
0.0
 20
0.0
 30
0.0
  0
VERTEX
  8
0
 10
197.65747614
 20
1.21983032874
 30
0.0
  0
VERTEX
  8
0
 10
197.237539767
 20
1.2717921527
 30
0.0
  0
SEQEND
  8
0
  0
LINE
  8
0
 62
0
 10
197.237539767
 20
1.2717921527
 30
0.0
 11
196.914103924
 21
1.2717921527
 31
0.0
  0
POLYLINE
  8
0
 62
0
 70
0
 66
1
 10
0.0
 20
0.0
 30
0.0
  0
VERTEX
  8
0
 10
196.914103924
 20
1.2717921527
 30
0.0
  0
VERTEX
  8
0
 10
196.82078473
 20
1.26648992577
 30
0.0
  0
SEQEND
  8
0
  0
POLYLINE
  8
0
 62
0
 70
0
 66
1
 10
0.0
 20
0.0
 30
0.0
  0
VERTEX
  8
0
 10
196.82078473
 20
1.26648992577
 30
0.0
  0
VERTEX
  8
0
 10
196.766702015
 20
1.23679745493
 30
0.0
  0
SEQEND
  8
0
  0
POLYLINE
  8
0
 62
0
 70
0
 66
1
 10
0.0
 20
0.0
 30
0.0
  0
VERTEX
  8
0
 10
196.766702015
 20
1.23679745493
 30
0.0
  0
VERTEX
  8
0
 10
196.746553552
 20
1.16256627784
 30
0.0
  0
SEQEND
  8
0
  0
LINE
  8
0
 62
0
 10
196.746553552
 20
1.16256627784
 30
0.0
 11
196.746553552
 21
0.321633085896
 31
0.0
  0
LINE
  8
0
 62
0
 10
196.746553552
 20
0.321633085896
 30
0.0
 11
196.978791092
 21
0.321633085896
 31
0.0
  0
POLYLINE
  8
0
 62
0
 70
0
 66
1
 10
0.0
 20
0.0
 30
0.0
  0
VERTEX
  8
0
 10
196.978791092
 20
0.321633085896
 30
0.0
  0
VERTEX
  8
0
 10
197.217391304
 20
0.351325556734
 30
0.0
  0
SEQEND
  8
0
  0
POLYLINE
  8
0
 62
0
 70
0
 66
1
 10
0.0
 20
0.0
 30
0.0
  0
VERTEX
  8
0
 10
197.217391304
 20
0.351325556734
 30
0.0
  0
VERTEX
  8
0
 10
197.326617179
 20
0.463732767762
 30
0.0
  0
SEQEND
  8
0
  0
POLYLINE
  8
0
 62
0
 70
0
 66
1
 10
0.0
 20
0.0
 30
0.0
  0
VERTEX
  8
0
 10
197.326617179
 20
0.463732767762
 30
0.0
  0
VERTEX
  8
0
 10
197.357370095
 20
0.723541887593
 30
0.0
  0
SEQEND
  8
0
  0
LINE
  8
0
 62
0
 10
197.357370095
 20
0.723541887593
 30
0.0
 11
197.4252386
 21
0.723541887593
 31
0.0
  0
LINE
  8
0
 62
0
 10
197.4252386
 20
0.723541887593
 30
0.0
 11
197.4252386
 21
-0.166171792153
 31
0.0
  0
LINE
  8
0
 62
0
 10
197.4252386
 20
-0.166171792153
 30
0.0
 11
197.357370095
 21
-0.166171792153
 31
0.0
  0
POLYLINE
  8
0
 62
0
 70
0
 66
1
 10
0.0
 20
0.0
 30
0.0
  0
VERTEX
  8
0
 10
197.357370095
 20
-0.166171792153
 30
0.0
  0
VERTEX
  8
0
 10
197.326617179
 20
0.104241781548
 30
0.0
  0
SEQEND
  8
0
  0
POLYLINE
  8
0
 62
0
 70
0
 66
1
 10
0.0
 20
0.0
 30
0.0
  0
VERTEX
  8
0
 10
197.326617179
 20
0.104241781548
 30
0.0
  0
VERTEX
  8
0
 10
197.217391304
 20
0.223011664899
 30
0.0
  0
SEQEND
  8
0
  0
POLYLINE
  8
0
 62
0
 70
0
 66
1
 10
0.0
 20
0.0
 30
0.0
  0
VERTEX
  8
0
 10
197.217391304
 20
0.223011664899
 30
0.0
  0
VERTEX
  8
0
 10
196.978791092
 20
0.253764581124
 30
0.0
  0
SEQEND
  8
0
  0
LINE
  8
0
 62
0
 10
196.978791092
 20
0.253764581124
 30
0.0
 11
196.746553552
 21
0.253764581124
 31
0.0
  0
LINE
  8
0
 62
0
 10
196.746553552
 20
0.253764581124
 30
0.0
 11
196.746553552
 21
-0.717603393425
 31
0.0
  0
POLYLINE
  8
0
 62
0
 70
0
 66
1
 10
0.0
 20
0.0
 30
0.0
  0
VERTEX
  8
0
 10
196.746553552
 20
-0.717603393425
 30
0.0
  0
VERTEX
  8
0
 10
196.786850477
 20
-0.814103923648
 30
0.0
  0
SEQEND
  8
0
  0
POLYLINE
  8
0
 62
0
 70
0
 66
1
 10
0.0
 20
0.0
 30
0.0
  0
VERTEX
  8
0
 10
196.786850477
 20
-0.814103923648
 30
0.0
  0
VERTEX
  8
0
 10
196.914103924
 20
-0.832131495228
 30
0.0
  0
SEQEND
  8
0
  0
LINE
  8
0
 62
0
 10
196.914103924
 20
-0.832131495228
 30
0.0
 11
197.262990456
 21
-0.832131495228
 31
0.0
  0
POLYLINE
  8
0
 62
0
 70
0
 66
1
 10
0.0
 20
0.0
 30
0.0
  0
VERTEX
  8
0
 10
197.262990456
 20
-0.832131495228
 30
0.0
  0
VERTEX
  8
0
 10
197.632025451
 20
-0.79183457052
 30
0.0
  0
SEQEND
  8
0
  0
POLYLINE
  8
0
 62
0
 70
0
 66
1
 10
0.0
 20
0.0
 30
0.0
  0
VERTEX
  8
0
 10
197.632025451
 20
-0.79183457052
 30
0.0
  0
VERTEX
  8
0
 10
197.8504772
 20
-0.656097560976
 30
0.0
  0
SEQEND
  8
0
  0
POLYLINE
  8
0
 62
0
 70
0
 66
1
 10
0.0
 20
0.0
 30
0.0
  0
VERTEX
  8
0
 10
197.8504772
 20
-0.656097560976
 30
0.0
  0
VERTEX
  8
0
 10
197.971367975
 20
-0.410074231177
 30
0.0
  0
SEQEND
  8
0
  0
POLYLINE
  8
0
 62
0
 70
0
 66
1
 10
0.0
 20
0.0
 30
0.0
  0
VERTEX
  8
0
 10
197.971367975
 20
-0.410074231177
 30
0.0
  0
VERTEX
  8
0
 10
198.050901379
 20
0.00986214209969
 30
0.0
  0
SEQEND
  8
0
  0
LINE
  8
0
 62
0
 10
198.050901379
 20
0.00986214209969
 30
0.0
 11
198.146341463
 21
0.00986214209969
 31
0.0
  0
LINE
  8
0
 62
0
 10
198.146341463
 20
0.00986214209969
 30
0.0
 11
198.008483563
 21
-0.9
 31
0.0
  0
LINE
  8
0
 62
0
 10
198.008483563
 20
-0.9
 30
0.0
 11
196.101802757
 21
-0.9
 31
0.0
  0
LINE
  8
0
 62
0
 10
198.346765642
 20
-0.9
 30
0.0
 11
198.346765642
 21
-0.796076352068
 31
0.0
  0
POLYLINE
  8
0
 62
0
 70
0
 66
1
 10
0.0
 20
0.0
 30
0.0
  0
VERTEX
  8
0
 10
198.346765642
 20
-0.796076352068
 30
0.0
  0
VERTEX
  8
0
 10
198.714740191
 20
-0.688971367975
 30
0.0
  0
SEQEND
  8
0
  0
LINE
  8
0
 62
0
 10
198.714740191
 20
-0.688971367975
 30
0.0
 11
198.714740191
 21
1.16468716861
 31
0.0
  0
POLYLINE
  8
0
 62
0
 70
0
 66
1
 10
0.0
 20
0.0
 30
0.0
  0
VERTEX
  8
0
 10
198.714740191
 20
1.16468716861
 30
0.0
  0
VERTEX
  8
0
 10
198.346765642
 20
1.2717921527
 30
0.0
  0
SEQEND
  8
0
  0
LINE
  8
0
 62
0
 10
198.346765642
 20
1.2717921527
 30
0.0
 11
198.346765642
 21
1.33966065748
 31
0.0
  0
LINE
  8
0
 62
0
 10
198.346765642
 20
1.33966065748
 30
0.0
 11
199.360551432
 21
1.33966065748
 31
0.0
  0
POLYLINE
  8
0
 62
0
 70
0
 66
1
 10
0.0
 20
0.0
 30
0.0
  0
VERTEX
  8
0
 10
199.360551432
 20
1.33966065748
 30
0.0
  0
VERTEX
  8
0
 10
199.74019088
 20
1.27285259809
 30
0.0
  0
SEQEND
  8
0
  0
POLYLINE
  8
0
 62
0
 70
0
 66
1
 10
0.0
 20
0.0
 30
0.0
  0
VERTEX
  8
0
 10
199.74019088
 20
1.27285259809
 30
0.0
  0
VERTEX
  8
0
 10
200.073170732
 20
1.07030752916
 30
0.0
  0
SEQEND
  8
0
  0
POLYLINE
  8
0
 62
0
 70
0
 66
1
 10
0.0
 20
0.0
 30
0.0
  0
VERTEX
  8
0
 10
200.073170732
 20
1.07030752916
 30
0.0
  0
VERTEX
  8
0
 10
200.207847296
 20
0.745811240721
 30
0.0
  0
SEQEND
  8
0
  0
POLYLINE
  8
0
 62
0
 70
0
 66
1
 10
0.0
 20
0.0
 30
0.0
  0
VERTEX
  8
0
 10
200.207847296
 20
0.745811240721
 30
0.0
  0
VERTEX
  8
0
 10
200.127253446
 20
0.499787910923
 30
0.0
  0
SEQEND
  8
0
  0
POLYLINE
  8
0
 62
0
 70
0
 66
1
 10
0.0
 20
0.0
 30
0.0
  0
VERTEX
  8
0
 10
200.127253446
 20
0.499787910923
 30
0.0
  0
VERTEX
  8
0
 10
199.920466596
 20
0.319512195122
 30
0.0
  0
SEQEND
  8
0
  0
POLYLINE
  8
0
 62
0
 70
0
 66
1
 10
0.0
 20
0.0
 30
0.0
  0
VERTEX
  8
0
 10
199.920466596
 20
0.319512195122
 30
0.0
  0
VERTEX
  8
0
 10
199.662778367
 20
0.214528101803
 30
0.0
  0
SEQEND
  8
0
  0
POLYLINE
  8
0
 62
0
 70
0
 66
1
 10
0.0
 20
0.0
 30
0.0
  0
VERTEX
  8
0
 10
199.662778367
 20
0.214528101803
 30
0.0
  0
VERTEX
  8
0
 10
199.906680806
 20
0.049098621421
 30
0.0
  0
SEQEND
  8
0
  0
POLYLINE
  8
0
 62
0
 70
0
 66
1
 10
0.0
 20
0.0
 30
0.0
  0
VERTEX
  8
0
 10
199.906680806
 20
0.049098621421
 30
0.0
  0
VERTEX
  8
0
 10
200.032873807
 20
-0.209650053022
 30
0.0
  0
SEQEND
  8
0
  0
LINE
  8
0
 62
0
 10
200.032873807
 20
-0.209650053022
 30
0.0
 11
200.076352068
 21
-0.504453870626
 31
0.0
  0
POLYLINE
  8
0
 62
0
 70
0
 66
1
 10
0.0
 20
0.0
 30
0.0
  0
VERTEX
  8
0
 10
200.076352068
 20
-0.504453870626
 30
0.0
  0
VERTEX
  8
0
 10
200.139978791
 20
-0.80243902439
 30
0.0
  0
SEQEND
  8
0
  0
POLYLINE
  8
0
 62
0
 70
0
 66
1
 10
0.0
 20
0.0
 30
0.0
  0
VERTEX
  8
0
 10
200.139978791
 20
-0.80243902439
 30
0.0
  0
VERTEX
  8
0
 10
200.2873807
 20
-0.9
 30
0.0
  0
SEQEND
  8
0
  0
POLYLINE
  8
0
 62
0
 70
0
 66
1
 10
0.0
 20
0.0
 30
0.0
  0
VERTEX
  8
0
 10
200.2873807
 20
-0.9
 30
0.0
  0
VERTEX
  8
0
 10
200.431601273
 20
-0.803499469777
 30
0.0
  0
SEQEND
  8
0
  0
POLYLINE
  8
0
 62
0
 70
0
 66
1
 10
0.0
 20
0.0
 30
0.0
  0
VERTEX
  8
0
 10
200.431601273
 20
-0.803499469777
 30
0.0
  0
VERTEX
  8
0
 10
200.479321315
 20
-0.592470837752
 30
0.0
  0
SEQEND
  8
0
  0
POLYLINE
  8
0
 62
0
 70
0
 66
1
 10
0.0
 20
0.0
 30
0.0
  0
VERTEX
  8
0
 10
200.479321315
 20
-0.592470837752
 30
0.0
  0
VERTEX
  8
0
 10
200.486744433
 20
-0.572322375398
 30
0.0
  0
SEQEND
  8
0
  0
POLYLINE
  8
0
 62
0
 70
0
 66
1
 10
0.0
 20
0.0
 30
0.0
  0
VERTEX
  8
0
 10
200.486744433
 20
-0.572322375398
 30
0.0
  0
VERTEX
  8
0
 10
200.502651113
 20
-0.562778366914
 30
0.0
  0
SEQEND
  8
0
  0
LINE
  8
0
 62
0
 10
200.502651113
 20
-0.562778366914
 30
0.0
 11
200.523860021
 21
-0.562778366914
 31
0.0
  0
POLYLINE
  8
0
 62
0
 70
0
 66
1
 10
0.0
 20
0.0
 30
0.0
  0
VERTEX
  8
0
 10
200.523860021
 20
-0.562778366914
 30
0.0
  0
VERTEX
  8
0
 10
200.54718982
 20
-0.605196182397
 30
0.0
  0
SEQEND
  8
0
  0
POLYLINE
  8
0
 62
0
 70
0
 66
1
 10
0.0
 20
0.0
 30
0.0
  0
VERTEX
  8
0
 10
200.54718982
 20
-0.605196182397
 30
0.0
  0
VERTEX
  8
0
 10
200.513255567
 20
-0.775927889714
 30
0.0
  0
SEQEND
  8
0
  0
POLYLINE
  8
0
 62
0
 70
0
 66
1
 10
0.0
 20
0.0
 30
0.0
  0
VERTEX
  8
0
 10
200.513255567
 20
-0.775927889714
 30
0.0
  0
VERTEX
  8
0
 10
200.417815483
 20
-0.912725344645
 30
0.0
  0
SEQEND
  8
0
  0
POLYLINE
  8
0
 62
0
 70
0
 66
1
 10
0.0
 20
0.0
 30
0.0
  0
VERTEX
  8
0
 10
200.417815483
 20
-0.912725344645
 30
0.0
  0
VERTEX
  8
0
 10
200.270413574
 20
-0.967868504772
 30
0.0
  0
SEQEND
  8
0
  0
POLYLINE
  8
0
 62
0
 70
0
 66
1
 10
0.0
 20
0.0
 30
0.0
  0
VERTEX
  8
0
 10
200.270413574
 20
-0.967868504772
 30
0.0
  0
VERTEX
  8
0
 10
199.886532344
 20
-0.850159066808
 30
0.0
  0
SEQEND
  8
0
  0
POLYLINE
  8
0
 62
0
 70
0
 66
1
 10
0.0
 20
0.0
 30
0.0
  0
VERTEX
  8
0
 10
199.886532344
 20
-0.850159066808
 30
0.0
  0
VERTEX
  8
0
 10
199.72640509
 20
-0.504453870626
 30
0.0
  0
SEQEND
  8
0
  0
LINE
  8
0
 62
0
 10
199.72640509
 20
-0.504453870626
 30
0.0
 11
199.72640509
 21
-0.211770943796
 31
0.0
  0
POLYLINE
  8
0
 62
0
 70
0
 66
1
 10
0.0
 20
0.0
 30
0.0
  0
VERTEX
  8
0
 10
199.72640509
 20
-0.211770943796
 30
0.0
  0
VERTEX
  8
0
 10
199.619300106
 20
0.0681866383881
 30
0.0
  0
SEQEND
  8
0
  0
POLYLINE
  8
0
 62
0
 70
0
 66
1
 10
0.0
 20
0.0
 30
0.0
  0
VERTEX
  8
0
 10
199.619300106
 20
0.0681866383881
 30
0.0
  0
VERTEX
  8
0
 10
199.357370095
 20
0.185896076352
 30
0.0
  0
SEQEND
  8
0
  0
LINE
  8
0
 62
0
 10
199.357370095
 20
0.185896076352
 30
0.0
 11
198.98621421
 21
0.185896076352
 31
0.0
  0
LINE
  8
0
 62
0
 10
198.98621421
 20
0.185896076352
 30
0.0
 11
198.98621421
 21
-0.690031813362
 31
0.0
  0
POLYLINE
  8
0
 62
0
 70
0
 66
1
 10
0.0
 20
0.0
 30
0.0
  0
VERTEX
  8
0
 10
198.98621421
 20
-0.690031813362
 30
0.0
  0
VERTEX
  8
0
 10
199.31495228
 20
-0.796076352068
 30
0.0
  0
SEQEND
  8
0
  0
LINE
  8
0
 62
0
 10
199.31495228
 20
-0.796076352068
 30
0.0
 11
199.31495228
 21
-0.9
 31
0.0
  0
LINE
  8
0
 62
0
 10
199.31495228
 20
-0.9
 30
0.0
 11
198.346765642
 21
-0.9
 31
0.0
  0
LINE
  8
0
 62
0
 10
198.98621421
 20
0.253764581124
 30
0.0
 11
199.326617179
 21
0.253764581124
 31
0.0
  0
POLYLINE
  8
0
 62
0
 70
0
 66
1
 10
0.0
 20
0.0
 30
0.0
  0
VERTEX
  8
0
 10
199.326617179
 20
0.253764581124
 30
0.0
  0
VERTEX
  8
0
 10
199.729586426
 20
0.369353128314
 30
0.0
  0
SEQEND
  8
0
  0
POLYLINE
  8
0
 62
0
 70
0
 66
1
 10
0.0
 20
0.0
 30
0.0
  0
VERTEX
  8
0
 10
199.729586426
 20
0.369353128314
 30
0.0
  0
VERTEX
  8
0
 10
199.868504772
 20
0.764899257688
 30
0.0
  0
SEQEND
  8
0
  0
POLYLINE
  8
0
 62
0
 70
0
 66
1
 10
0.0
 20
0.0
 30
0.0
  0
VERTEX
  8
0
 10
199.868504772
 20
0.764899257688
 30
0.0
  0
VERTEX
  8
0
 10
199.731707317
 20
1.15620360551
 30
0.0
  0
SEQEND
  8
0
  0
POLYLINE
  8
0
 62
0
 70
0
 66
1
 10
0.0
 20
0.0
 30
0.0
  0
VERTEX
  8
0
 10
199.731707317
 20
1.15620360551
 30
0.0
  0
VERTEX
  8
0
 10
199.326617179
 20
1.2717921527
 30
0.0
  0
SEQEND
  8
0
  0
LINE
  8
0
 62
0
 10
199.326617179
 20
1.2717921527
 30
0.0
 11
199.148462354
 21
1.2717921527
 31
0.0
  0
POLYLINE
  8
0
 62
0
 70
0
 66
1
 10
0.0
 20
0.0
 30
0.0
  0
VERTEX
  8
0
 10
199.148462354
 20
1.2717921527
 30
0.0
  0
VERTEX
  8
0
 10
199.058324496
 20
1.26648992577
 30
0.0
  0
SEQEND
  8
0
  0
POLYLINE
  8
0
 62
0
 70
0
 66
1
 10
0.0
 20
0.0
 30
0.0
  0
VERTEX
  8
0
 10
199.058324496
 20
1.26648992577
 30
0.0
  0
VERTEX
  8
0
 10
199.006362672
 20
1.23679745493
 30
0.0
  0
SEQEND
  8
0
  0
POLYLINE
  8
0
 62
0
 70
0
 66
1
 10
0.0
 20
0.0
 30
0.0
  0
VERTEX
  8
0
 10
199.006362672
 20
1.23679745493
 30
0.0
  0
VERTEX
  8
0
 10
198.98621421
 20
1.16150583245
 30
0.0
  0
SEQEND
  8
0
  0
LINE
  8
0
 62
0
 10
198.98621421
 20
1.16150583245
 30
0.0
 11
198.98621421
 21
0.253764581124
 31
0.0
  0
POLYLINE
  8
0
 62
0
 70
0
 66
1
 10
0.0
 20
0.0
 30
0.0
  0
VERTEX
  8
0
 10
201.379639449
 20
-0.580805938494
 30
0.0
  0
VERTEX
  8
0
 10
201.67126193
 20
-0.815164369035
 30
0.0
  0
SEQEND
  8
0
  0
POLYLINE
  8
0
 62
0
 70
0
 66
1
 10
0.0
 20
0.0
 30
0.0
  0
VERTEX
  8
0
 10
201.67126193
 20
-0.815164369035
 30
0.0
  0
VERTEX
  8
0
 10
202.030752916
 20
-0.9
 30
0.0
  0
SEQEND
  8
0
  0
POLYLINE
  8
0
 62
0
 70
0
 66
1
 10
0.0
 20
0.0
 30
0.0
  0
VERTEX
  8
0
 10
202.030752916
 20
-0.9
 30
0.0
  0
VERTEX
  8
0
 10
202.364793213
 20
-0.803499469777
 30
0.0
  0
SEQEND
  8
0
  0
POLYLINE
  8
0
 62
0
 70
0
 66
1
 10
0.0
 20
0.0
 30
0.0
  0
VERTEX
  8
0
 10
202.364793213
 20
-0.803499469777
 30
0.0
  0
VERTEX
  8
0
 10
202.515376458
 20
-0.528844114528
 30
0.0
  0
SEQEND
  8
0
  0
LINE
  8
0
 62
0
 10
202.515376458
 20
-0.528844114528
 30
0.0
 11
202.515376458
 21
-0.242523860021
 31
0.0
  0
POLYLINE
  8
0
 62
0
 70
0
 66
1
 10
0.0
 20
0.0
 30
0.0
  0
VERTEX
  8
0
 10
202.515376458
 20
-0.242523860021
 30
0.0
  0
VERTEX
  8
0
 10
202.101802757
 20
-0.134358430541
 30
0.0
  0
SEQEND
  8
0
  0
LINE
  8
0
 62
0
 10
202.101802757
 20
-0.134358430541
 30
0.0
 11
202.101802757
 21
-0.0145281018028
 31
0.0
  0
LINE
  8
0
 62
0
 10
202.101802757
 20
-0.0145281018028
 30
0.0
 11
203.011664899
 21
-0.0145281018028
 31
0.0
  0
LINE
  8
0
 62
0
 10
203.011664899
 20
-0.0145281018028
 30
0.0
 11
203.011664899
 21
-0.134358430541
 31
0.0
  0
POLYLINE
  8
0
 62
0
 70
0
 66
1
 10
0.0
 20
0.0
 30
0.0
  0
VERTEX
  8
0
 10
203.011664899
 20
-0.134358430541
 30
0.0
  0
VERTEX
  8
0
 10
202.847295864
 20
-0.152386002121
 30
0.0
  0
SEQEND
  8
0
  0
POLYLINE
  8
0
 62
0
 70
0
 66
1
 10
0.0
 20
0.0
 30
0.0
  0
VERTEX
  8
0
 10
202.847295864
 20
-0.152386002121
 30
0.0
  0
VERTEX
  8
0
 10
202.786850477
 20
-0.236161187699
 30
0.0
  0
SEQEND
  8
0
  0
LINE
  8
0
 62
0
 10
202.786850477
 20
-0.236161187699
 30
0.0
 11
202.786850477
 21
-0.871367974549
 31
0.0
  0
POLYLINE
  8
0
 62
0
 70
0
 66
1
 10
0.0
 20
0.0
 30
0.0
  0
VERTEX
  8
0
 10
202.786850477
 20
-0.871367974549
 30
0.0
  0
VERTEX
  8
0
 10
202.778366914
 20
-0.891516436903
 30
0.0
  0
SEQEND
  8
0
  0
POLYLINE
  8
0
 62
0
 70
0
 66
1
 10
0.0
 20
0.0
 30
0.0
  0
VERTEX
  8
0
 10
202.778366914
 20
-0.891516436903
 30
0.0
  0
VERTEX
  8
0
 10
202.761399788
 20
-0.9
 30
0.0
  0
SEQEND
  8
0
  0
POLYLINE
  8
0
 62
0
 70
0
 66
1
 10
0.0
 20
0.0
 30
0.0
  0
VERTEX
  8
0
 10
202.761399788
 20
-0.9
 30
0.0
  0
VERTEX
  8
0
 10
202.670201485
 20
-0.843796394486
 30
0.0
  0
SEQEND
  8
0
  0
POLYLINE
  8
0
 62
0
 70
0
 66
1
 10
0.0
 20
0.0
 30
0.0
  0
VERTEX
  8
0
 10
202.670201485
 20
-0.843796394486
 30
0.0
  0
VERTEX
  8
0
 10
202.569459173
 20
-0.744114528102
 30
0.0
  0
SEQEND
  8
0
  0
POLYLINE
  8
0
 62
0
 70
0
 66
1
 10
0.0
 20
0.0
 30
0.0
  0
VERTEX
  8
0
 10
202.569459173
 20
-0.744114528102
 30
0.0
  0
VERTEX
  8
0
 10
202.319194062
 20
-0.912725344645
 30
0.0
  0
SEQEND
  8
0
  0
POLYLINE
  8
0
 62
0
 70
0
 66
1
 10
0.0
 20
0.0
 30
0.0
  0
VERTEX
  8
0
 10
202.319194062
 20
-0.912725344645
 30
0.0
  0
VERTEX
  8
0
 10
201.961823966
 20
-0.967868504772
 30
0.0
  0
SEQEND
  8
0
  0
POLYLINE
  8
0
 62
0
 70
0
 66
1
 10
0.0
 20
0.0
 30
0.0
  0
VERTEX
  8
0
 10
201.961823966
 20
-0.967868504772
 30
0.0
  0
VERTEX
  8
0
 10
201.382820785
 20
-0.804559915164
 30
0.0
  0
SEQEND
  8
0
  0
POLYLINE
  8
0
 62
0
 70
0
 66
1
 10
0.0
 20
0.0
 30
0.0
  0
VERTEX
  8
0
 10
201.382820785
 20
-0.804559915164
 30
0.0
  0
VERTEX
  8
0
 10
200.970307529
 20
-0.367656415695
 30
0.0
  0
SEQEND
  8
0
  0
POLYLINE
  8
0
 62
0
 70
0
 66
1
 10
0.0
 20
0.0
 30
0.0
  0
VERTEX
  8
0
 10
200.970307529
 20
-0.367656415695
 30
0.0
  0
VERTEX
  8
0
 10
200.818663839
 20
0.220890774125
 30
0.0
  0
SEQEND
  8
0
  0
POLYLINE
  8
0
 62
0
 70
0
 66
1
 10
0.0
 20
0.0
 30
0.0
  0
VERTEX
  8
0
 10
200.818663839
 20
0.220890774125
 30
0.0
  0
VERTEX
  8
0
 10
200.906680806
 20
0.67051961824
 30
0.0
  0
SEQEND
  8
0
  0
POLYLINE
  8
0
 62
0
 70
0
 66
1
 10
0.0
 20
0.0
 30
0.0
  0
VERTEX
  8
0
 10
200.906680806
 20
0.67051961824
 30
0.0
  0
VERTEX
  8
0
 10
201.15164369
 20
1.05440084836
 30
0.0
  0
SEQEND
  8
0
  0
POLYLINE
  8
0
 62
0
 70
0
 66
1
 10
0.0
 20
0.0
 30
0.0
  0
VERTEX
  8
0
 10
201.15164369
 20
1.05440084836
 30
0.0
  0
VERTEX
  8
0
 10
201.518557794
 20
1.31420996819
 30
0.0
  0
SEQEND
  8
0
  0
POLYLINE
  8
0
 62
0
 70
0
 66
1
 10
0.0
 20
0.0
 30
0.0
  0
VERTEX
  8
0
 10
201.518557794
 20
1.31420996819
 30
0.0
  0
VERTEX
  8
0
 10
201.962884411
 20
1.40752916225
 30
0.0
  0
SEQEND
  8
0
  0
POLYLINE
  8
0
 62
0
 70
0
 66
1
 10
0.0
 20
0.0
 30
0.0
  0
VERTEX
  8
0
 10
201.962884411
 20
1.40752916225
 30
0.0
  0
VERTEX
  8
0
 10
202.283138918
 20
1.34708377519
 30
0.0
  0
SEQEND
  8
0
  0
POLYLINE
  8
0
 62
0
 70
0
 66
1
 10
0.0
 20
0.0
 30
0.0
  0
VERTEX
  8
0
 10
202.283138918
 20
1.34708377519
 30
0.0
  0
VERTEX
  8
0
 10
202.552492047
 20
1.17741251326
 30
0.0
  0
SEQEND
  8
0
  0
LINE
  8
0
 62
0
 10
202.552492047
 20
1.17741251326
 30
0.0
 11
202.722163309
 21
1.40010604454
 31
0.0
  0
POLYLINE
  8
0
 62
0
 70
0
 66
1
 10
0.0
 20
0.0
 30
0.0
  0
VERTEX
  8
0
 10
202.722163309
 20
1.40010604454
 30
0.0
  0
VERTEX
  8
0
 10
202.742311771
 20
1.40752916225
 30
0.0
  0
SEQEND
  8
0
  0
LINE
  8
0
 62
0
 10
202.742311771
 20
1.40752916225
 30
0.0
 11
202.763520679
 21
1.40752916225
 31
0.0
  0
POLYLINE
  8
0
 62
0
 70
0
 66
1
 10
0.0
 20
0.0
 30
0.0
  0
VERTEX
  8
0
 10
202.763520679
 20
1.40752916225
 30
0.0
  0
VERTEX
  8
0
 10
202.779427359
 20
1.39904559915
 30
0.0
  0
SEQEND
  8
0
  0
POLYLINE
  8
0
 62
0
 70
0
 66
1
 10
0.0
 20
0.0
 30
0.0
  0
VERTEX
  8
0
 10
202.779427359
 20
1.39904559915
 30
0.0
  0
VERTEX
  8
0
 10
202.786850477
 20
1.38101802757
 30
0.0
  0
SEQEND
  8
0
  0
LINE
  8
0
 62
0
 10
202.786850477
 20
1.38101802757
 30
0.0
 11
202.786850477
 21
0.509331919406
 31
0.0
  0
POLYLINE
  8
0
 62
0
 70
0
 66
1
 10
0.0
 20
0.0
 30
0.0
  0
VERTEX
  8
0
 10
202.786850477
 20
0.509331919406
 30
0.0
  0
VERTEX
  8
0
 10
202.763520679
 20
0.480699893955
 30
0.0
  0
SEQEND
  8
0
  0
LINE
  8
0
 62
0
 10
202.763520679
 20
0.480699893955
 30
0.0
 11
202.709437964
 21
0.480699893955
 31
0.0
  0
POLYLINE
  8
0
 62
0
 70
0
 66
1
 10
0.0
 20
0.0
 30
0.0
  0
VERTEX
  8
0
 10
202.709437964
 20
0.480699893955
 30
0.0
  0
VERTEX
  8
0
 10
202.680805938
 20
0.510392364793
 30
0.0
  0
SEQEND
  8
0
  0
POLYLINE
  8
0
 62
0
 70
0
 66
1
 10
0.0
 20
0.0
 30
0.0
  0
VERTEX
  8
0
 10
202.680805938
 20
0.510392364793
 30
0.0
  0
VERTEX
  8
0
 10
202.645811241
 20
0.729904559915
 30
0.0
  0
SEQEND
  8
0
  0
POLYLINE
  8
0
 62
0
 70
0
 66
1
 10
0.0
 20
0.0
 30
0.0
  0
VERTEX
  8
0
 10
202.645811241
 20
0.729904559915
 30
0.0
  0
VERTEX
  8
0
 10
202.557794274
 20
0.961081654295
 30
0.0
  0
SEQEND
  8
0
  0
POLYLINE
  8
0
 62
0
 70
0
 66
1
 10
0.0
 20
0.0
 30
0.0
  0
VERTEX
  8
0
 10
202.557794274
 20
0.961081654295
 30
0.0
  0
VERTEX
  8
0
 10
202.434782609
 20
1.15302226935
 30
0.0
  0
SEQEND
  8
0
  0
POLYLINE
  8
0
 62
0
 70
0
 66
1
 10
0.0
 20
0.0
 30
0.0
  0
VERTEX
  8
0
 10
202.434782609
 20
1.15302226935
 30
0.0
  0
VERTEX
  8
0
 10
202.008483563
 20
1.33966065748
 30
0.0
  0
SEQEND
  8
0
  0
POLYLINE
  8
0
 62
0
 70
0
 66
1
 10
0.0
 20
0.0
 30
0.0
  0
VERTEX
  8
0
 10
202.008483563
 20
1.33966065748
 30
0.0
  0
VERTEX
  8
0
 10
201.655355249
 20
1.25482502651
 30
0.0
  0
SEQEND
  8
0
  0
POLYLINE
  8
0
 62
0
 70
0
 66
1
 10
0.0
 20
0.0
 30
0.0
  0
VERTEX
  8
0
 10
201.655355249
 20
1.25482502651
 30
0.0
  0
VERTEX
  8
0
 10
201.373276776
 20
1.02046659597
 30
0.0
  0
SEQEND
  8
0
  0
POLYLINE
  8
0
 62
0
 70
0
 66
1
 10
0.0
 20
0.0
 30
0.0
  0
VERTEX
  8
0
 10
201.373276776
 20
1.02046659597
 30
0.0
  0
VERTEX
  8
0
 10
201.20466596
 20
0.655673382821
 30
0.0
  0
SEQEND
  8
0
  0
POLYLINE
  8
0
 62
0
 70
0
 66
1
 10
0.0
 20
0.0
 30
0.0
  0
VERTEX
  8
0
 10
201.20466596
 20
0.655673382821
 30
0.0
  0
VERTEX
  8
0
 10
201.158006363
 20
0.220890774125
 30
0.0
  0
SEQEND
  8
0
  0
POLYLINE
  8
0
 62
0
 70
0
 66
1
 10
0.0
 20
0.0
 30
0.0
  0
VERTEX
  8
0
 10
201.158006363
 20
0.220890774125
 30
0.0
  0
VERTEX
  8
0
 10
201.379639449
 20
-0.580805938494
 30
0.0
  0
SEQEND
  8
0
  0
LINE
  8
0
 62
0
 10
203.194061506
 20
-0.289183457052
 30
0.0
 11
203.194061506
 21
-0.0855779427359
 31
0.0
  0
LINE
  8
0
 62
0
 10
203.194061506
 20
-0.0855779427359
 30
0.0
 11
204.076352068
 21
-0.0855779427359
 31
0.0
  0
LINE
  8
0
 62
0
 10
204.076352068
 20
-0.0855779427359
 30
0.0
 11
204.076352068
 21
-0.289183457052
 31
0.0
  0
LINE
  8
0
 62
0
 10
204.076352068
 20
-0.289183457052
 30
0.0
 11
203.194061506
 21
-0.289183457052
 31
0.0
  0
LINE
  8
0
 62
0
 10
204.835630965
 20
-0.9
 30
0.0
 11
204.835630965
 21
-0.782290562036
 31
0.0
  0
POLYLINE
  8
0
 62
0
 70
0
 66
1
 10
0.0
 20
0.0
 30
0.0
  0
VERTEX
  8
0
 10
204.835630965
 20
-0.782290562036
 30
0.0
  0
VERTEX
  8
0
 10
205.146341463
 20
-0.763202545069
 30
0.0
  0
SEQEND
  8
0
  0
POLYLINE
  8
0
 62
0
 70
0
 66
1
 10
0.0
 20
0.0
 30
0.0
  0
VERTEX
  8
0
 10
205.146341463
 20
-0.763202545069
 30
0.0
  0
VERTEX
  8
0
 10
205.297985154
 20
-0.67624602333
 30
0.0
  0
SEQEND
  8
0
  0
LINE
  8
0
 62
0
 10
205.297985154
 20
-0.67624602333
 30
0.0
 11
205.297985154
 21
1.165747614
 31
0.0
  0
POLYLINE
  8
0
 62
0
 70
0
 66
1
 10
0.0
 20
0.0
 30
0.0
  0
VERTEX
  8
0
 10
205.297985154
 20
1.165747614
 30
0.0
  0
VERTEX
  8
0
 10
205.258748674
 20
1.25482502651
 30
0.0
  0
SEQEND
  8
0
  0
POLYLINE
  8
0
 62
0
 70
0
 66
1
 10
0.0
 20
0.0
 30
0.0
  0
VERTEX
  8
0
 10
205.258748674
 20
1.25482502651
 30
0.0
  0
VERTEX
  8
0
 10
205.133616119
 20
1.2717921527
 30
0.0
  0
SEQEND
  8
0
  0
LINE
  8
0
 62
0
 10
205.133616119
 20
1.2717921527
 30
0.0
 11
204.997879109
 21
1.2717921527
 31
0.0
  0
POLYLINE
  8
0
 62
0
 70
0
 66
1
 10
0.0
 20
0.0
 30
0.0
  0
VERTEX
  8
0
 10
204.997879109
 20
1.2717921527
 30
0.0
  0
VERTEX
  8
0
 10
204.618239661
 20
1.14241781548
 30
0.0
  0
SEQEND
  8
0
  0
POLYLINE
  8
0
 62
0
 70
0
 66
1
 10
0.0
 20
0.0
 30
0.0
  0
VERTEX
  8
0
 10
204.618239661
 20
1.14241781548
 30
0.0
  0
VERTEX
  8
0
 10
204.534464475
 20
0.935630965005
 30
0.0
  0
SEQEND
  8
0
  0
POLYLINE
  8
0
 62
0
 70
0
 66
1
 10
0.0
 20
0.0
 30
0.0
  0
VERTEX
  8
0
 10
204.534464475
 20
0.935630965005
 30
0.0
  0
VERTEX
  8
0
 10
204.49204666
 20
0.579321314952
 30
0.0
  0
SEQEND
  8
0
  0
LINE
  8
0
 62
0
 10
204.49204666
 20
0.579321314952
 30
0.0
 11
204.398727466
 21
0.579321314952
 31
0.0
  0
LINE
  8
0
 62
0
 10
204.398727466
 20
0.579321314952
 30
0.0
 11
204.461293743
 21
1.33966065748
 31
0.0
  0
LINE
  8
0
 62
0
 10
204.461293743
 20
1.33966065748
 30
0.0
 11
206.470837752
 21
1.33966065748
 31
0.0
  0
LINE
  8
0
 62
0
 10
206.470837752
 20
1.33966065748
 30
0.0
 11
206.53340403
 21
0.579321314952
 31
0.0
  0
LINE
  8
0
 62
0
 10
206.53340403
 20
0.579321314952
 30
0.0
 11
206.431601273
 21
0.579321314952
 31
0.0
  0
POLYLINE
  8
0
 62
0
 70
0
 66
1
 10
0.0
 20
0.0
 30
0.0
  0
VERTEX
  8
0
 10
206.431601273
 20
0.579321314952
 30
0.0
  0
VERTEX
  8
0
 10
206.387062566
 20
0.944114528102
 30
0.0
  0
SEQEND
  8
0
  0
POLYLINE
  8
0
 62
0
 70
0
 66
1
 10
0.0
 20
0.0
 30
0.0
  0
VERTEX
  8
0
 10
206.387062566
 20
0.944114528102
 30
0.0
  0
VERTEX
  8
0
 10
206.297985154
 20
1.14241781548
 30
0.0
  0
SEQEND
  8
0
  0
POLYLINE
  8
0
 62
0
 70
0
 66
1
 10
0.0
 20
0.0
 30
0.0
  0
VERTEX
  8
0
 10
206.297985154
 20
1.14241781548
 30
0.0
  0
VERTEX
  8
0
 10
205.891834571
 20
1.2717921527
 30
0.0
  0
SEQEND
  8
0
  0
LINE
  8
0
 62
0
 10
205.891834571
 20
1.2717921527
 30
0.0
 11
205.745493107
 21
1.2717921527
 31
0.0
  0
POLYLINE
  8
0
 62
0
 70
0
 66
1
 10
0.0
 20
0.0
 30
0.0
  0
VERTEX
  8
0
 10
205.745493107
 20
1.2717921527
 30
0.0
  0
VERTEX
  8
0
 10
205.647932131
 20
1.26648992577
 30
0.0
  0
SEQEND
  8
0
  0
POLYLINE
  8
0
 62
0
 70
0
 66
1
 10
0.0
 20
0.0
 30
0.0
  0
VERTEX
  8
0
 10
205.647932131
 20
1.26648992577
 30
0.0
  0
VERTEX
  8
0
 10
205.591728526
 20
1.23785790032
 30
0.0
  0
SEQEND
  8
0
  0
POLYLINE
  8
0
 62
0
 70
0
 66
1
 10
0.0
 20
0.0
 30
0.0
  0
VERTEX
  8
0
 10
205.591728526
 20
1.23785790032
 30
0.0
  0
VERTEX
  8
0
 10
205.569459173
 20
1.165747614
 30
0.0
  0
SEQEND
  8
0
  0
LINE
  8
0
 62
0
 10
205.569459173
 20
1.165747614
 30
0.0
 11
205.569459173
 21
-0.67624602333
 31
0.0
  0
POLYLINE
  8
0
 62
0
 70
0
 66
1
 10
0.0
 20
0.0
 30
0.0
  0
VERTEX
  8
0
 10
205.569459173
 20
-0.67624602333
 30
0.0
  0
VERTEX
  8
0
 10
205.741251326
 20
-0.763202545069
 30
0.0
  0
SEQEND
  8
0
  0
POLYLINE
  8
0
 62
0
 70
0
 66
1
 10
0.0
 20
0.0
 30
0.0
  0
VERTEX
  8
0
 10
205.741251326
 20
-0.763202545069
 30
0.0
  0
VERTEX
  8
0
 10
206.094379639
 20
-0.782290562036
 30
0.0
  0
SEQEND
  8
0
  0
LINE
  8
0
 62
0
 10
206.094379639
 20
-0.782290562036
 30
0.0
 11
206.094379639
 21
-0.9
 31
0.0
  0
LINE
  8
0
 62
0
 10
206.094379639
 20
-0.9
 30
0.0
 11
204.835630965
 21
-0.9
 31
0.0
  0
LINE
  8
0
 62
0
 10
206.655355249
 20
-0.289183457052
 30
0.0
 11
206.655355249
 21
-0.0855779427359
 31
0.0
  0
LINE
  8
0
 62
0
 10
206.655355249
 20
-0.0855779427359
 30
0.0
 11
207.537645811
 21
-0.0855779427359
 31
0.0
  0
LINE
  8
0
 62
0
 10
207.537645811
 20
-0.0855779427359
 30
0.0
 11
207.537645811
 21
-0.289183457052
 31
0.0
  0
LINE
  8
0
 62
0
 10
207.537645811
 20
-0.289183457052
 30
0.0
 11
206.655355249
 21
-0.289183457052
 31
0.0
  0
POLYLINE
  8
0
 62
0
 70
0
 66
1
 10
0.0
 20
0.0
 30
0.0
  0
VERTEX
  8
0
 10
208.556733828
 20
-0.967868504772
 30
0.0
  0
VERTEX
  8
0
 10
208.019088017
 20
-0.629586426299
 30
0.0
  0
SEQEND
  8
0
  0
POLYLINE
  8
0
 62
0
 70
0
 66
1
 10
0.0
 20
0.0
 30
0.0
  0
VERTEX
  8
0
 10
208.019088017
 20
-0.629586426299
 30
0.0
  0
VERTEX
  8
0
 10
207.876988335
 20
0.175291622481
 30
0.0
  0
SEQEND
  8
0
  0
POLYLINE
  8
0
 62
0
 70
0
 66
1
 10
0.0
 20
0.0
 30
0.0
  0
VERTEX
  8
0
 10
207.876988335
 20
0.175291622481
 30
0.0
  0
VERTEX
  8
0
 10
207.927889714
 20
0.723541887593
 30
0.0
  0
SEQEND
  8
0
  0
POLYLINE
  8
0
 62
0
 70
0
 66
1
 10
0.0
 20
0.0
 30
0.0
  0
VERTEX
  8
0
 10
207.927889714
 20
0.723541887593
 30
0.0
  0
VERTEX
  8
0
 10
208.131495228
 20
1.16044538706
 30
0.0
  0
SEQEND
  8
0
  0
POLYLINE
  8
0
 62
0
 70
0
 66
1
 10
0.0
 20
0.0
 30
0.0
  0
VERTEX
  8
0
 10
208.131495228
 20
1.16044538706
 30
0.0
  0
VERTEX
  8
0
 10
208.556733828
 20
1.33966065748
 30
0.0
  0
SEQEND
  8
0
  0
POLYLINE
  8
0
 62
0
 70
0
 66
1
 10
0.0
 20
0.0
 30
0.0
  0
VERTEX
  8
0
 10
208.556733828
 20
1.33966065748
 30
0.0
  0
VERTEX
  8
0
 10
208.904559915
 20
1.231495228
 30
0.0
  0
SEQEND
  8
0
  0
POLYLINE
  8
0
 62
0
 70
0
 66
1
 10
0.0
 20
0.0
 30
0.0
  0
VERTEX
  8
0
 10
208.904559915
 20
1.231495228
 30
0.0
  0
VERTEX
  8
0
 10
209.111346766
 20
0.951537645811
 30
0.0
  0
SEQEND
  8
0
  0
POLYLINE
  8
0
 62
0
 70
0
 66
1
 10
0.0
 20
0.0
 30
0.0
  0
VERTEX
  8
0
 10
209.111346766
 20
0.951537645811
 30
0.0
  0
VERTEX
  8
0
 10
209.207847296
 20
0.584623541888
 30
0.0
  0
SEQEND
  8
0
  0
POLYLINE
  8
0
 62
0
 70
0
 66
1
 10
0.0
 20
0.0
 30
0.0
  0
VERTEX
  8
0
 10
209.207847296
 20
0.584623541888
 30
0.0
  0
VERTEX
  8
0
 10
209.234358431
 20
0.175291622481
 30
0.0
  0
SEQEND
  8
0
  0
POLYLINE
  8
0
 62
0
 70
0
 66
1
 10
0.0
 20
0.0
 30
0.0
  0
VERTEX
  8
0
 10
209.234358431
 20
0.175291622481
 30
0.0
  0
VERTEX
  8
0
 10
209.182396607
 20
-0.364475079533
 30
0.0
  0
SEQEND
  8
0
  0
POLYLINE
  8
0
 62
0
 70
0
 66
1
 10
0.0
 20
0.0
 30
0.0
  0
VERTEX
  8
0
 10
209.182396607
 20
-0.364475079533
 30
0.0
  0
VERTEX
  8
0
 10
208.981972428
 20
-0.79183457052
 30
0.0
  0
SEQEND
  8
0
  0
POLYLINE
  8
0
 62
0
 70
0
 66
1
 10
0.0
 20
0.0
 30
0.0
  0
VERTEX
  8
0
 10
208.981972428
 20
-0.79183457052
 30
0.0
  0
VERTEX
  8
0
 10
208.556733828
 20
-0.967868504772
 30
0.0
  0
SEQEND
  8
0
  0
POLYLINE
  8
0
 62
0
 70
0
 66
1
 10
0.0
 20
0.0
 30
0.0
  0
VERTEX
  8
0
 10
208.557794274
 20
-0.9
 30
0.0
  0
VERTEX
  8
0
 10
208.831389183
 20
-0.70487804878
 30
0.0
  0
SEQEND
  8
0
  0
POLYLINE
  8
0
 62
0
 70
0
 66
1
 10
0.0
 20
0.0
 30
0.0
  0
VERTEX
  8
0
 10
208.831389183
 20
-0.70487804878
 30
0.0
  0
VERTEX
  8
0
 10
208.941675504
 20
-0.273276776246
 30
0.0
  0
SEQEND
  8
0
  0
POLYLINE
  8
0
 62
0
 70
0
 66
1
 10
0.0
 20
0.0
 30
0.0
  0
VERTEX
  8
0
 10
208.941675504
 20
-0.273276776246
 30
0.0
  0
VERTEX
  8
0
 10
208.962884411
 20
0.230434782609
 30
0.0
  0
SEQEND
  8
0
  0
POLYLINE
  8
0
 62
0
 70
0
 66
1
 10
0.0
 20
0.0
 30
0.0
  0
VERTEX
  8
0
 10
208.962884411
 20
0.230434782609
 30
0.0
  0
VERTEX
  8
0
 10
208.941675504
 20
0.703393425239
 30
0.0
  0
SEQEND
  8
0
  0
POLYLINE
  8
0
 62
0
 70
0
 66
1
 10
0.0
 20
0.0
 30
0.0
  0
VERTEX
  8
0
 10
208.941675504
 20
0.703393425239
 30
0.0
  0
VERTEX
  8
0
 10
208.831389183
 20
1.09575821845
 30
0.0
  0
SEQEND
  8
0
  0
POLYLINE
  8
0
 62
0
 70
0
 66
1
 10
0.0
 20
0.0
 30
0.0
  0
VERTEX
  8
0
 10
208.831389183
 20
1.09575821845
 30
0.0
  0
VERTEX
  8
0
 10
208.557794274
 20
1.2717921527
 30
0.0
  0
SEQEND
  8
0
  0
POLYLINE
  8
0
 62
0
 70
0
 66
1
 10
0.0
 20
0.0
 30
0.0
  0
VERTEX
  8
0
 10
208.557794274
 20
1.2717921527
 30
0.0
  0
VERTEX
  8
0
 10
208.279957582
 20
1.09469777306
 30
0.0
  0
SEQEND
  8
0
  0
POLYLINE
  8
0
 62
0
 70
0
 66
1
 10
0.0
 20
0.0
 30
0.0
  0
VERTEX
  8
0
 10
208.279957582
 20
1.09469777306
 30
0.0
  0
VERTEX
  8
0
 10
208.168610817
 20
0.702332979852
 30
0.0
  0
SEQEND
  8
0
  0
POLYLINE
  8
0
 62
0
 70
0
 66
1
 10
0.0
 20
0.0
 30
0.0
  0
VERTEX
  8
0
 10
208.168610817
 20
0.702332979852
 30
0.0
  0
VERTEX
  8
0
 10
208.148462354
 20
0.230434782609
 30
0.0
  0
SEQEND
  8
0
  0
POLYLINE
  8
0
 62
0
 70
0
 66
1
 10
0.0
 20
0.0
 30
0.0
  0
VERTEX
  8
0
 10
208.148462354
 20
0.230434782609
 30
0.0
  0
VERTEX
  8
0
 10
208.156945917
 20
-0.129056203606
 30
0.0
  0
SEQEND
  8
0
  0
POLYLINE
  8
0
 62
0
 70
0
 66
1
 10
0.0
 20
0.0
 30
0.0
  0
VERTEX
  8
0
 10
208.156945917
 20
-0.129056203606
 30
0.0
  0
VERTEX
  8
0
 10
208.20466596
 20
-0.475821845175
 30
0.0
  0
SEQEND
  8
0
  0
POLYLINE
  8
0
 62
0
 70
0
 66
1
 10
0.0
 20
0.0
 30
0.0
  0
VERTEX
  8
0
 10
208.20466596
 20
-0.475821845175
 30
0.0
  0
VERTEX
  8
0
 10
208.329798515
 20
-0.778048780488
 30
0.0
  0
SEQEND
  8
0
  0
POLYLINE
  8
0
 62
0
 70
0
 66
1
 10
0.0
 20
0.0
 30
0.0
  0
VERTEX
  8
0
 10
208.329798515
 20
-0.778048780488
 30
0.0
  0
VERTEX
  8
0
 10
208.557794274
 20
-0.9
 30
0.0
  0
SEQEND
  8
0
  0
LINE
  8
0
 62
0
 10
209.672322375
 20
-0.9
 30
0.0
 11
209.672322375
 21
-0.78441145281
 31
0.0
  0
POLYLINE
  8
0
 62
0
 70
0
 66
1
 10
0.0
 20
0.0
 30
0.0
  0
VERTEX
  8
0
 10
209.672322375
 20
-0.78441145281
 30
0.0
  0
VERTEX
  8
0
 10
210.116648993
 20
-0.679427359491
 30
0.0
  0
SEQEND
  8
0
  0
LINE
  8
0
 62
0
 10
210.116648993
 20
-0.679427359491
 30
0.0
 11
210.116648993
 21
1.04803817603
 31
0.0
  0
POLYLINE
  8
0
 62
0
 70
0
 66
1
 10
0.0
 20
0.0
 30
0.0
  0
VERTEX
  8
0
 10
210.116648993
 20
1.04803817603
 30
0.0
  0
VERTEX
  8
0
 10
209.653234358
 20
1.00031813362
 30
0.0
  0
SEQEND
  8
0
  0
LINE
  8
0
 62
0
 10
209.653234358
 20
1.00031813362
 30
0.0
 11
209.653234358
 21
1.06818663839
 31
0.0
  0
POLYLINE
  8
0
 62
0
 70
0
 66
1
 10
0.0
 20
0.0
 30
0.0
  0
VERTEX
  8
0
 10
209.653234358
 20
1.06818663839
 30
0.0
  0
VERTEX
  8
0
 10
210.257688229
 20
1.27709437964
 30
0.0
  0
SEQEND
  8
0
  0
LINE
  8
0
 62
0
 10
210.257688229
 20
1.27709437964
 30
0.0
 11
210.294803818
 21
1.27709437964
 31
0.0
  0
POLYLINE
  8
0
 62
0
 70
0
 66
1
 10
0.0
 20
0.0
 30
0.0
  0
VERTEX
  8
0
 10
210.294803818
 20
1.27709437964
 30
0.0
  0
VERTEX
  8
0
 10
210.311770944
 20
1.26755037116
 30
0.0
  0
SEQEND
  8
0
  0
POLYLINE
  8
0
 62
0
 70
0
 66
1
 10
0.0
 20
0.0
 30
0.0
  0
VERTEX
  8
0
 10
210.311770944
 20
1.26755037116
 30
0.0
  0
VERTEX
  8
0
 10
210.320254507
 20
1.24846235419
 30
0.0
  0
SEQEND
  8
0
  0
LINE
  8
0
 62
0
 10
210.320254507
 20
1.24846235419
 30
0.0
 11
210.320254507
 21
-0.681548250265
 31
0.0
  0
POLYLINE
  8
0
 62
0
 70
0
 66
1
 10
0.0
 20
0.0
 30
0.0
  0
VERTEX
  8
0
 10
210.320254507
 20
-0.681548250265
 30
0.0
  0
VERTEX
  8
0
 10
210.741251326
 20
-0.785471898197
 30
0.0
  0
SEQEND
  8
0
  0
LINE
  8
0
 62
0
 10
210.741251326
 20
-0.785471898197
 30
0.0
 11
210.741251326
 21
-0.9
 31
0.0
  0
LINE
  8
0
 62
0
 10
210.741251326
 20
-0.9
 30
0.0
 11
209.672322375
 21
-0.9
 31
0.0
  0
LINE
  8
0
 62
0
 10
210.998939555
 20
-0.289183457052
 30
0.0
 11
210.998939555
 21
-0.0855779427359
 31
0.0
  0
LINE
  8
0
 62
0
 10
210.998939555
 20
-0.0855779427359
 30
0.0
 11
211.881230117
 21
-0.0855779427359
 31
0.0
  0
LINE
  8
0
 62
0
 10
211.881230117
 20
-0.0855779427359
 30
0.0
 11
211.881230117
 21
-0.289183457052
 31
0.0
  0
LINE
  8
0
 62
0
 10
211.881230117
 20
-0.289183457052
 30
0.0
 11
210.998939555
 21
-0.289183457052
 31
0.0
  0
POLYLINE
  8
0
 62
0
 70
0
 66
1
 10
0.0
 20
0.0
 30
0.0
  0
VERTEX
  8
0
 10
212.900318134
 20
-0.967868504772
 30
0.0
  0
VERTEX
  8
0
 10
212.362672322
 20
-0.629586426299
 30
0.0
  0
SEQEND
  8
0
  0
POLYLINE
  8
0
 62
0
 70
0
 66
1
 10
0.0
 20
0.0
 30
0.0
  0
VERTEX
  8
0
 10
212.362672322
 20
-0.629586426299
 30
0.0
  0
VERTEX
  8
0
 10
212.220572641
 20
0.175291622481
 30
0.0
  0
SEQEND
  8
0
  0
POLYLINE
  8
0
 62
0
 70
0
 66
1
 10
0.0
 20
0.0
 30
0.0
  0
VERTEX
  8
0
 10
212.220572641
 20
0.175291622481
 30
0.0
  0
VERTEX
  8
0
 10
212.271474019
 20
0.723541887593
 30
0.0
  0
SEQEND
  8
0
  0
POLYLINE
  8
0
 62
0
 70
0
 66
1
 10
0.0
 20
0.0
 30
0.0
  0
VERTEX
  8
0
 10
212.271474019
 20
0.723541887593
 30
0.0
  0
VERTEX
  8
0
 10
212.475079533
 20
1.16044538706
 30
0.0
  0
SEQEND
  8
0
  0
POLYLINE
  8
0
 62
0
 70
0
 66
1
 10
0.0
 20
0.0
 30
0.0
  0
VERTEX
  8
0
 10
212.475079533
 20
1.16044538706
 30
0.0
  0
VERTEX
  8
0
 10
212.900318134
 20
1.33966065748
 30
0.0
  0
SEQEND
  8
0
  0
POLYLINE
  8
0
 62
0
 70
0
 66
1
 10
0.0
 20
0.0
 30
0.0
  0
VERTEX
  8
0
 10
212.900318134
 20
1.33966065748
 30
0.0
  0
VERTEX
  8
0
 10
213.248144221
 20
1.231495228
 30
0.0
  0
SEQEND
  8
0
  0
POLYLINE
  8
0
 62
0
 70
0
 66
1
 10
0.0
 20
0.0
 30
0.0
  0
VERTEX
  8
0
 10
213.248144221
 20
1.231495228
 30
0.0
  0
VERTEX
  8
0
 10
213.454931071
 20
0.951537645811
 30
0.0
  0
SEQEND
  8
0
  0
POLYLINE
  8
0
 62
0
 70
0
 66
1
 10
0.0
 20
0.0
 30
0.0
  0
VERTEX
  8
0
 10
213.454931071
 20
0.951537645811
 30
0.0
  0
VERTEX
  8
0
 10
213.551431601
 20
0.584623541888
 30
0.0
  0
SEQEND
  8
0
  0
POLYLINE
  8
0
 62
0
 70
0
 66
1
 10
0.0
 20
0.0
 30
0.0
  0
VERTEX
  8
0
 10
213.551431601
 20
0.584623541888
 30
0.0
  0
VERTEX
  8
0
 10
213.577942736
 20
0.175291622481
 30
0.0
  0
SEQEND
  8
0
  0
POLYLINE
  8
0
 62
0
 70
0
 66
1
 10
0.0
 20
0.0
 30
0.0
  0
VERTEX
  8
0
 10
213.577942736
 20
0.175291622481
 30
0.0
  0
VERTEX
  8
0
 10
213.525980912
 20
-0.364475079533
 30
0.0
  0
SEQEND
  8
0
  0
POLYLINE
  8
0
 62
0
 70
0
 66
1
 10
0.0
 20
0.0
 30
0.0
  0
VERTEX
  8
0
 10
213.525980912
 20
-0.364475079533
 30
0.0
  0
VERTEX
  8
0
 10
213.325556734
 20
-0.79183457052
 30
0.0
  0
SEQEND
  8
0
  0
POLYLINE
  8
0
 62
0
 70
0
 66
1
 10
0.0
 20
0.0
 30
0.0
  0
VERTEX
  8
0
 10
213.325556734
 20
-0.79183457052
 30
0.0
  0
VERTEX
  8
0
 10
212.900318134
 20
-0.967868504772
 30
0.0
  0
SEQEND
  8
0
  0
POLYLINE
  8
0
 62
0
 70
0
 66
1
 10
0.0
 20
0.0
 30
0.0
  0
VERTEX
  8
0
 10
212.901378579
 20
-0.9
 30
0.0
  0
VERTEX
  8
0
 10
213.174973489
 20
-0.70487804878
 30
0.0
  0
SEQEND
  8
0
  0
POLYLINE
  8
0
 62
0
 70
0
 66
1
 10
0.0
 20
0.0
 30
0.0
  0
VERTEX
  8
0
 10
213.174973489
 20
-0.70487804878
 30
0.0
  0
VERTEX
  8
0
 10
213.285259809
 20
-0.273276776246
 30
0.0
  0
SEQEND
  8
0
  0
POLYLINE
  8
0
 62
0
 70
0
 66
1
 10
0.0
 20
0.0
 30
0.0
  0
VERTEX
  8
0
 10
213.285259809
 20
-0.273276776246
 30
0.0
  0
VERTEX
  8
0
 10
213.306468717
 20
0.230434782609
 30
0.0
  0
SEQEND
  8
0
  0
POLYLINE
  8
0
 62
0
 70
0
 66
1
 10
0.0
 20
0.0
 30
0.0
  0
VERTEX
  8
0
 10
213.306468717
 20
0.230434782609
 30
0.0
  0
VERTEX
  8
0
 10
213.285259809
 20
0.703393425239
 30
0.0
  0
SEQEND
  8
0
  0
POLYLINE
  8
0
 62
0
 70
0
 66
1
 10
0.0
 20
0.0
 30
0.0
  0
VERTEX
  8
0
 10
213.285259809
 20
0.703393425239
 30
0.0
  0
VERTEX
  8
0
 10
213.174973489
 20
1.09575821845
 30
0.0
  0
SEQEND
  8
0
  0
POLYLINE
  8
0
 62
0
 70
0
 66
1
 10
0.0
 20
0.0
 30
0.0
  0
VERTEX
  8
0
 10
213.174973489
 20
1.09575821845
 30
0.0
  0
VERTEX
  8
0
 10
212.901378579
 20
1.2717921527
 30
0.0
  0
SEQEND
  8
0
  0
POLYLINE
  8
0
 62
0
 70
0
 66
1
 10
0.0
 20
0.0
 30
0.0
  0
VERTEX
  8
0
 10
212.901378579
 20
1.2717921527
 30
0.0
  0
VERTEX
  8
0
 10
212.623541888
 20
1.09469777306
 30
0.0
  0
SEQEND
  8
0
  0
POLYLINE
  8
0
 62
0
 70
0
 66
1
 10
0.0
 20
0.0
 30
0.0
  0
VERTEX
  8
0
 10
212.623541888
 20
1.09469777306
 30
0.0
  0
VERTEX
  8
0
 10
212.512195122
 20
0.702332979852
 30
0.0
  0
SEQEND
  8
0
  0
POLYLINE
  8
0
 62
0
 70
0
 66
1
 10
0.0
 20
0.0
 30
0.0
  0
VERTEX
  8
0
 10
212.512195122
 20
0.702332979852
 30
0.0
  0
VERTEX
  8
0
 10
212.49204666
 20
0.230434782609
 30
0.0
  0
SEQEND
  8
0
  0
POLYLINE
  8
0
 62
0
 70
0
 66
1
 10
0.0
 20
0.0
 30
0.0
  0
VERTEX
  8
0
 10
212.49204666
 20
0.230434782609
 30
0.0
  0
VERTEX
  8
0
 10
212.500530223
 20
-0.129056203606
 30
0.0
  0
SEQEND
  8
0
  0
POLYLINE
  8
0
 62
0
 70
0
 66
1
 10
0.0
 20
0.0
 30
0.0
  0
VERTEX
  8
0
 10
212.500530223
 20
-0.129056203606
 30
0.0
  0
VERTEX
  8
0
 10
212.548250265
 20
-0.475821845175
 30
0.0
  0
SEQEND
  8
0
  0
POLYLINE
  8
0
 62
0
 70
0
 66
1
 10
0.0
 20
0.0
 30
0.0
  0
VERTEX
  8
0
 10
212.548250265
 20
-0.475821845175
 30
0.0
  0
VERTEX
  8
0
 10
212.673382821
 20
-0.778048780488
 30
0.0
  0
SEQEND
  8
0
  0
POLYLINE
  8
0
 62
0
 70
0
 66
1
 10
0.0
 20
0.0
 30
0.0
  0
VERTEX
  8
0
 10
212.673382821
 20
-0.778048780488
 30
0.0
  0
VERTEX
  8
0
 10
212.901378579
 20
-0.9
 30
0.0
  0
SEQEND
  8
0
  0
POLYLINE
  8
0
 62
0
 70
0
 66
1
 10
0.0
 20
0.0
 30
0.0
  0
VERTEX
  8
0
 10
214.529162248
 20
-0.967868504772
 30
0.0
  0
VERTEX
  8
0
 10
213.991516437
 20
-0.629586426299
 30
0.0
  0
SEQEND
  8
0
  0
POLYLINE
  8
0
 62
0
 70
0
 66
1
 10
0.0
 20
0.0
 30
0.0
  0
VERTEX
  8
0
 10
213.991516437
 20
-0.629586426299
 30
0.0
  0
VERTEX
  8
0
 10
213.849416755
 20
0.175291622481
 30
0.0
  0
SEQEND
  8
0
  0
POLYLINE
  8
0
 62
0
 70
0
 66
1
 10
0.0
 20
0.0
 30
0.0
  0
VERTEX
  8
0
 10
213.849416755
 20
0.175291622481
 30
0.0
  0
VERTEX
  8
0
 10
213.900318134
 20
0.723541887593
 30
0.0
  0
SEQEND
  8
0
  0
POLYLINE
  8
0
 62
0
 70
0
 66
1
 10
0.0
 20
0.0
 30
0.0
  0
VERTEX
  8
0
 10
213.900318134
 20
0.723541887593
 30
0.0
  0
VERTEX
  8
0
 10
214.103923648
 20
1.16044538706
 30
0.0
  0
SEQEND
  8
0
  0
POLYLINE
  8
0
 62
0
 70
0
 66
1
 10
0.0
 20
0.0
 30
0.0
  0
VERTEX
  8
0
 10
214.103923648
 20
1.16044538706
 30
0.0
  0
VERTEX
  8
0
 10
214.529162248
 20
1.33966065748
 30
0.0
  0
SEQEND
  8
0
  0
POLYLINE
  8
0
 62
0
 70
0
 66
1
 10
0.0
 20
0.0
 30
0.0
  0
VERTEX
  8
0
 10
214.529162248
 20
1.33966065748
 30
0.0
  0
VERTEX
  8
0
 10
214.876988335
 20
1.231495228
 30
0.0
  0
SEQEND
  8
0
  0
POLYLINE
  8
0
 62
0
 70
0
 66
1
 10
0.0
 20
0.0
 30
0.0
  0
VERTEX
  8
0
 10
214.876988335
 20
1.231495228
 30
0.0
  0
VERTEX
  8
0
 10
215.083775186
 20
0.951537645811
 30
0.0
  0
SEQEND
  8
0
  0
POLYLINE
  8
0
 62
0
 70
0
 66
1
 10
0.0
 20
0.0
 30
0.0
  0
VERTEX
  8
0
 10
215.083775186
 20
0.951537645811
 30
0.0
  0
VERTEX
  8
0
 10
215.180275716
 20
0.584623541888
 30
0.0
  0
SEQEND
  8
0
  0
POLYLINE
  8
0
 62
0
 70
0
 66
1
 10
0.0
 20
0.0
 30
0.0
  0
VERTEX
  8
0
 10
215.180275716
 20
0.584623541888
 30
0.0
  0
VERTEX
  8
0
 10
215.20678685
 20
0.175291622481
 30
0.0
  0
SEQEND
  8
0
  0
POLYLINE
  8
0
 62
0
 70
0
 66
1
 10
0.0
 20
0.0
 30
0.0
  0
VERTEX
  8
0
 10
215.20678685
 20
0.175291622481
 30
0.0
  0
VERTEX
  8
0
 10
215.154825027
 20
-0.364475079533
 30
0.0
  0
SEQEND
  8
0
  0
POLYLINE
  8
0
 62
0
 70
0
 66
1
 10
0.0
 20
0.0
 30
0.0
  0
VERTEX
  8
0
 10
215.154825027
 20
-0.364475079533
 30
0.0
  0
VERTEX
  8
0
 10
214.954400848
 20
-0.79183457052
 30
0.0
  0
SEQEND
  8
0
  0
POLYLINE
  8
0
 62
0
 70
0
 66
1
 10
0.0
 20
0.0
 30
0.0
  0
VERTEX
  8
0
 10
214.954400848
 20
-0.79183457052
 30
0.0
  0
VERTEX
  8
0
 10
214.529162248
 20
-0.967868504772
 30
0.0
  0
SEQEND
  8
0
  0
POLYLINE
  8
0
 62
0
 70
0
 66
1
 10
0.0
 20
0.0
 30
0.0
  0
VERTEX
  8
0
 10
214.530222694
 20
-0.9
 30
0.0
  0
VERTEX
  8
0
 10
214.803817603
 20
-0.70487804878
 30
0.0
  0
SEQEND
  8
0
  0
POLYLINE
  8
0
 62
0
 70
0
 66
1
 10
0.0
 20
0.0
 30
0.0
  0
VERTEX
  8
0
 10
214.803817603
 20
-0.70487804878
 30
0.0
  0
VERTEX
  8
0
 10
214.914103924
 20
-0.273276776246
 30
0.0
  0
SEQEND
  8
0
  0
POLYLINE
  8
0
 62
0
 70
0
 66
1
 10
0.0
 20
0.0
 30
0.0
  0
VERTEX
  8
0
 10
214.914103924
 20
-0.273276776246
 30
0.0
  0
VERTEX
  8
0
 10
214.935312831
 20
0.230434782609
 30
0.0
  0
SEQEND
  8
0
  0
POLYLINE
  8
0
 62
0
 70
0
 66
1
 10
0.0
 20
0.0
 30
0.0
  0
VERTEX
  8
0
 10
214.935312831
 20
0.230434782609
 30
0.0
  0
VERTEX
  8
0
 10
214.914103924
 20
0.703393425239
 30
0.0
  0
SEQEND
  8
0
  0
POLYLINE
  8
0
 62
0
 70
0
 66
1
 10
0.0
 20
0.0
 30
0.0
  0
VERTEX
  8
0
 10
214.914103924
 20
0.703393425239
 30
0.0
  0
VERTEX
  8
0
 10
214.803817603
 20
1.09575821845
 30
0.0
  0
SEQEND
  8
0
  0
POLYLINE
  8
0
 62
0
 70
0
 66
1
 10
0.0
 20
0.0
 30
0.0
  0
VERTEX
  8
0
 10
214.803817603
 20
1.09575821845
 30
0.0
  0
VERTEX
  8
0
 10
214.530222694
 20
1.2717921527
 30
0.0
  0
SEQEND
  8
0
  0
POLYLINE
  8
0
 62
0
 70
0
 66
1
 10
0.0
 20
0.0
 30
0.0
  0
VERTEX
  8
0
 10
214.530222694
 20
1.2717921527
 30
0.0
  0
VERTEX
  8
0
 10
214.252386002
 20
1.09469777306
 30
0.0
  0
SEQEND
  8
0
  0
POLYLINE
  8
0
 62
0
 70
0
 66
1
 10
0.0
 20
0.0
 30
0.0
  0
VERTEX
  8
0
 10
214.252386002
 20
1.09469777306
 30
0.0
  0
VERTEX
  8
0
 10
214.141039236
 20
0.702332979852
 30
0.0
  0
SEQEND
  8
0
  0
POLYLINE
  8
0
 62
0
 70
0
 66
1
 10
0.0
 20
0.0
 30
0.0
  0
VERTEX
  8
0
 10
214.141039236
 20
0.702332979852
 30
0.0
  0
VERTEX
  8
0
 10
214.120890774
 20
0.230434782609
 30
0.0
  0
SEQEND
  8
0
  0
POLYLINE
  8
0
 62
0
 70
0
 66
1
 10
0.0
 20
0.0
 30
0.0
  0
VERTEX
  8
0
 10
214.120890774
 20
0.230434782609
 30
0.0
  0
VERTEX
  8
0
 10
214.129374337
 20
-0.129056203606
 30
0.0
  0
SEQEND
  8
0
  0
POLYLINE
  8
0
 62
0
 70
0
 66
1
 10
0.0
 20
0.0
 30
0.0
  0
VERTEX
  8
0
 10
214.129374337
 20
-0.129056203606
 30
0.0
  0
VERTEX
  8
0
 10
214.17709438
 20
-0.475821845175
 30
0.0
  0
SEQEND
  8
0
  0
POLYLINE
  8
0
 62
0
 70
0
 66
1
 10
0.0
 20
0.0
 30
0.0
  0
VERTEX
  8
0
 10
214.17709438
 20
-0.475821845175
 30
0.0
  0
VERTEX
  8
0
 10
214.302226935
 20
-0.778048780488
 30
0.0
  0
SEQEND
  8
0
  0
POLYLINE
  8
0
 62
0
 70
0
 66
1
 10
0.0
 20
0.0
 30
0.0
  0
VERTEX
  8
0
 10
214.302226935
 20
-0.778048780488
 30
0.0
  0
VERTEX
  8
0
 10
214.530222694
 20
-0.9
 30
0.0
  0
SEQEND
  8
0
  0
POLYLINE
  8
0
 62
0
 70
0
 66
1
 10
0.0
 20
0.0
 30
0.0
  0
VERTEX
  8
0
 10
216.158006363
 20
-0.967868504772
 30
0.0
  0
VERTEX
  8
0
 10
215.620360551
 20
-0.629586426299
 30
0.0
  0
SEQEND
  8
0
  0
POLYLINE
  8
0
 62
0
 70
0
 66
1
 10
0.0
 20
0.0
 30
0.0
  0
VERTEX
  8
0
 10
215.620360551
 20
-0.629586426299
 30
0.0
  0
VERTEX
  8
0
 10
215.47826087
 20
0.175291622481
 30
0.0
  0
SEQEND
  8
0
  0
POLYLINE
  8
0
 62
0
 70
0
 66
1
 10
0.0
 20
0.0
 30
0.0
  0
VERTEX
  8
0
 10
215.47826087
 20
0.175291622481
 30
0.0
  0
VERTEX
  8
0
 10
215.529162248
 20
0.723541887593
 30
0.0
  0
SEQEND
  8
0
  0
POLYLINE
  8
0
 62
0
 70
0
 66
1
 10
0.0
 20
0.0
 30
0.0
  0
VERTEX
  8
0
 10
215.529162248
 20
0.723541887593
 30
0.0
  0
VERTEX
  8
0
 10
215.732767762
 20
1.16044538706
 30
0.0
  0
SEQEND
  8
0
  0
POLYLINE
  8
0
 62
0
 70
0
 66
1
 10
0.0
 20
0.0
 30
0.0
  0
VERTEX
  8
0
 10
215.732767762
 20
1.16044538706
 30
0.0
  0
VERTEX
  8
0
 10
216.158006363
 20
1.33966065748
 30
0.0
  0
SEQEND
  8
0
  0
POLYLINE
  8
0
 62
0
 70
0
 66
1
 10
0.0
 20
0.0
 30
0.0
  0
VERTEX
  8
0
 10
216.158006363
 20
1.33966065748
 30
0.0
  0
VERTEX
  8
0
 10
216.50583245
 20
1.231495228
 30
0.0
  0
SEQEND
  8
0
  0
POLYLINE
  8
0
 62
0
 70
0
 66
1
 10
0.0
 20
0.0
 30
0.0
  0
VERTEX
  8
0
 10
216.50583245
 20
1.231495228
 30
0.0
  0
VERTEX
  8
0
 10
216.7126193
 20
0.951537645811
 30
0.0
  0
SEQEND
  8
0
  0
POLYLINE
  8
0
 62
0
 70
0
 66
1
 10
0.0
 20
0.0
 30
0.0
  0
VERTEX
  8
0
 10
216.7126193
 20
0.951537645811
 30
0.0
  0
VERTEX
  8
0
 10
216.80911983
 20
0.584623541888
 30
0.0
  0
SEQEND
  8
0
  0
POLYLINE
  8
0
 62
0
 70
0
 66
1
 10
0.0
 20
0.0
 30
0.0
  0
VERTEX
  8
0
 10
216.80911983
 20
0.584623541888
 30
0.0
  0
VERTEX
  8
0
 10
216.835630965
 20
0.175291622481
 30
0.0
  0
SEQEND
  8
0
  0
POLYLINE
  8
0
 62
0
 70
0
 66
1
 10
0.0
 20
0.0
 30
0.0
  0
VERTEX
  8
0
 10
216.835630965
 20
0.175291622481
 30
0.0
  0
VERTEX
  8
0
 10
216.783669141
 20
-0.364475079533
 30
0.0
  0
SEQEND
  8
0
  0
POLYLINE
  8
0
 62
0
 70
0
 66
1
 10
0.0
 20
0.0
 30
0.0
  0
VERTEX
  8
0
 10
216.783669141
 20
-0.364475079533
 30
0.0
  0
VERTEX
  8
0
 10
216.583244963
 20
-0.79183457052
 30
0.0
  0
SEQEND
  8
0
  0
POLYLINE
  8
0
 62
0
 70
0
 66
1
 10
0.0
 20
0.0
 30
0.0
  0
VERTEX
  8
0
 10
216.583244963
 20
-0.79183457052
 30
0.0
  0
VERTEX
  8
0
 10
216.158006363
 20
-0.967868504772
 30
0.0
  0
SEQEND
  8
0
  0
POLYLINE
  8
0
 62
0
 70
0
 66
1
 10
0.0
 20
0.0
 30
0.0
  0
VERTEX
  8
0
 10
216.159066808
 20
-0.9
 30
0.0
  0
VERTEX
  8
0
 10
216.432661718
 20
-0.70487804878
 30
0.0
  0
SEQEND
  8
0
  0
POLYLINE
  8
0
 62
0
 70
0
 66
1
 10
0.0
 20
0.0
 30
0.0
  0
VERTEX
  8
0
 10
216.432661718
 20
-0.70487804878
 30
0.0
  0
VERTEX
  8
0
 10
216.542948038
 20
-0.273276776246
 30
0.0
  0
SEQEND
  8
0
  0
POLYLINE
  8
0
 62
0
 70
0
 66
1
 10
0.0
 20
0.0
 30
0.0
  0
VERTEX
  8
0
 10
216.542948038
 20
-0.273276776246
 30
0.0
  0
VERTEX
  8
0
 10
216.564156946
 20
0.230434782609
 30
0.0
  0
SEQEND
  8
0
  0
POLYLINE
  8
0
 62
0
 70
0
 66
1
 10
0.0
 20
0.0
 30
0.0
  0
VERTEX
  8
0
 10
216.564156946
 20
0.230434782609
 30
0.0
  0
VERTEX
  8
0
 10
216.542948038
 20
0.703393425239
 30
0.0
  0
SEQEND
  8
0
  0
POLYLINE
  8
0
 62
0
 70
0
 66
1
 10
0.0
 20
0.0
 30
0.0
  0
VERTEX
  8
0
 10
216.542948038
 20
0.703393425239
 30
0.0
  0
VERTEX
  8
0
 10
216.432661718
 20
1.09575821845
 30
0.0
  0
SEQEND
  8
0
  0
POLYLINE
  8
0
 62
0
 70
0
 66
1
 10
0.0
 20
0.0
 30
0.0
  0
VERTEX
  8
0
 10
216.432661718
 20
1.09575821845
 30
0.0
  0
VERTEX
  8
0
 10
216.159066808
 20
1.2717921527
 30
0.0
  0
SEQEND
  8
0
  0
POLYLINE
  8
0
 62
0
 70
0
 66
1
 10
0.0
 20
0.0
 30
0.0
  0
VERTEX
  8
0
 10
216.159066808
 20
1.2717921527
 30
0.0
  0
VERTEX
  8
0
 10
215.881230117
 20
1.09469777306
 30
0.0
  0
SEQEND
  8
0
  0
POLYLINE
  8
0
 62
0
 70
0
 66
1
 10
0.0
 20
0.0
 30
0.0
  0
VERTEX
  8
0
 10
215.881230117
 20
1.09469777306
 30
0.0
  0
VERTEX
  8
0
 10
215.769883351
 20
0.702332979852
 30
0.0
  0
SEQEND
  8
0
  0
POLYLINE
  8
0
 62
0
 70
0
 66
1
 10
0.0
 20
0.0
 30
0.0
  0
VERTEX
  8
0
 10
215.769883351
 20
0.702332979852
 30
0.0
  0
VERTEX
  8
0
 10
215.749734889
 20
0.230434782609
 30
0.0
  0
SEQEND
  8
0
  0
POLYLINE
  8
0
 62
0
 70
0
 66
1
 10
0.0
 20
0.0
 30
0.0
  0
VERTEX
  8
0
 10
215.749734889
 20
0.230434782609
 30
0.0
  0
VERTEX
  8
0
 10
215.758218452
 20
-0.129056203606
 30
0.0
  0
SEQEND
  8
0
  0
POLYLINE
  8
0
 62
0
 70
0
 66
1
 10
0.0
 20
0.0
 30
0.0
  0
VERTEX
  8
0
 10
215.758218452
 20
-0.129056203606
 30
0.0
  0
VERTEX
  8
0
 10
215.805938494
 20
-0.475821845175
 30
0.0
  0
SEQEND
  8
0
  0
POLYLINE
  8
0
 62
0
 70
0
 66
1
 10
0.0
 20
0.0
 30
0.0
  0
VERTEX
  8
0
 10
215.805938494
 20
-0.475821845175
 30
0.0
  0
VERTEX
  8
0
 10
215.93107105
 20
-0.778048780488
 30
0.0
  0
SEQEND
  8
0
  0
POLYLINE
  8
0
 62
0
 70
0
 66
1
 10
0.0
 20
0.0
 30
0.0
  0
VERTEX
  8
0
 10
215.93107105
 20
-0.778048780488
 30
0.0
  0
VERTEX
  8
0
 10
216.159066808
 20
-0.9
 30
0.0
  0
SEQEND
  8
0
  0
LINE
  8
0
 62
0
 10
217.27359491
 20
-0.9
 30
0.0
 11
217.27359491
 21
-0.78441145281
 31
0.0
  0
POLYLINE
  8
0
 62
0
 70
0
 66
1
 10
0.0
 20
0.0
 30
0.0
  0
VERTEX
  8
0
 10
217.27359491
 20
-0.78441145281
 30
0.0
  0
VERTEX
  8
0
 10
217.717921527
 20
-0.679427359491
 30
0.0
  0
SEQEND
  8
0
  0
LINE
  8
0
 62
0
 10
217.717921527
 20
-0.679427359491
 30
0.0
 11
217.717921527
 21
1.04803817603
 31
0.0
  0
POLYLINE
  8
0
 62
0
 70
0
 66
1
 10
0.0
 20
0.0
 30
0.0
  0
VERTEX
  8
0
 10
217.717921527
 20
1.04803817603
 30
0.0
  0
VERTEX
  8
0
 10
217.254506893
 20
1.00031813362
 30
0.0
  0
SEQEND
  8
0
  0
LINE
  8
0
 62
0
 10
217.254506893
 20
1.00031813362
 30
0.0
 11
217.254506893
 21
1.06818663839
 31
0.0
  0
POLYLINE
  8
0
 62
0
 70
0
 66
1
 10
0.0
 20
0.0
 30
0.0
  0
VERTEX
  8
0
 10
217.254506893
 20
1.06818663839
 30
0.0
  0
VERTEX
  8
0
 10
217.858960764
 20
1.27709437964
 30
0.0
  0
SEQEND
  8
0
  0
LINE
  8
0
 62
0
 10
217.858960764
 20
1.27709437964
 30
0.0
 11
217.896076352
 21
1.27709437964
 31
0.0
  0
POLYLINE
  8
0
 62
0
 70
0
 66
1
 10
0.0
 20
0.0
 30
0.0
  0
VERTEX
  8
0
 10
217.896076352
 20
1.27709437964
 30
0.0
  0
VERTEX
  8
0
 10
217.913043478
 20
1.26755037116
 30
0.0
  0
SEQEND
  8
0
  0
POLYLINE
  8
0
 62
0
 70
0
 66
1
 10
0.0
 20
0.0
 30
0.0
  0
VERTEX
  8
0
 10
217.913043478
 20
1.26755037116
 30
0.0
  0
VERTEX
  8
0
 10
217.921527041
 20
1.24846235419
 30
0.0
  0
SEQEND
  8
0
  0
LINE
  8
0
 62
0
 10
217.921527041
 20
1.24846235419
 30
0.0
 11
217.921527041
 21
-0.681548250265
 31
0.0
  0
POLYLINE
  8
0
 62
0
 70
0
 66
1
 10
0.0
 20
0.0
 30
0.0
  0
VERTEX
  8
0
 10
217.921527041
 20
-0.681548250265
 30
0.0
  0
VERTEX
  8
0
 10
218.34252386
 20
-0.785471898197
 30
0.0
  0
SEQEND
  8
0
  0
LINE
  8
0
 62
0
 10
218.34252386
 20
-0.785471898197
 30
0.0
 11
218.34252386
 21
-0.9
 31
0.0
  0
LINE
  8
0
 62
0
 10
218.34252386
 20
-0.9
 30
0.0
 11
217.27359491
 21
-0.9
 31
0.0
  0
ENDBLK
  0
ENDSEC
  0
SECTION
  2
ENTITIES
  0
INSERT
  2
EXTRUDE003
  8
0
 62
0
 10
0.0
 20
0.0
 30
0.0
  0
ENDSEC
  0
EOF
