G04 #@! TF.FileFunction,Legend,Top*
%FSLAX46Y46*%
G04 Gerber Fmt 4.6, Leading zero omitted, Abs format (unit mm)*
G04 Created by KiCad (PCBNEW 4.0.5+dfsg1-4) date Mon Mar 11 19:24:06 2019*
%MOMM*%
%LPD*%
G01*
G04 APERTURE LIST*
%ADD10C,0.100000*%
%ADD11C,0.050000*%
%ADD12C,0.120000*%
G04 APERTURE END LIST*
D10*
D11*
X57325000Y-21650000D02*
X57350000Y-21650000D01*
X56750000Y-22225000D02*
X57325000Y-21650000D01*
X55350000Y-20825000D02*
X55775000Y-20400000D01*
D10*
X43778572Y-30326190D02*
X43945239Y-30826190D01*
X44111905Y-30326190D01*
X44445238Y-30564286D02*
X44516667Y-30588095D01*
X44540476Y-30611905D01*
X44564286Y-30659524D01*
X44564286Y-30730952D01*
X44540476Y-30778571D01*
X44516667Y-30802381D01*
X44469048Y-30826190D01*
X44278572Y-30826190D01*
X44278572Y-30326190D01*
X44445238Y-30326190D01*
X44492857Y-30350000D01*
X44516667Y-30373810D01*
X44540476Y-30421429D01*
X44540476Y-30469048D01*
X44516667Y-30516667D01*
X44492857Y-30540476D01*
X44445238Y-30564286D01*
X44278572Y-30564286D01*
X44754762Y-30683333D02*
X44992857Y-30683333D01*
X44707143Y-30826190D02*
X44873810Y-30326190D01*
X45040476Y-30826190D01*
X45135714Y-30326190D02*
X45421428Y-30326190D01*
X45278571Y-30826190D02*
X45278571Y-30326190D01*
X58760676Y-32163064D02*
X58662956Y-32431548D01*
X58711816Y-32297306D02*
X58241970Y-32126296D01*
X58292804Y-32195473D01*
X58321265Y-32256507D01*
X58327352Y-32309398D01*
X58589913Y-31796861D02*
X58551253Y-31833465D01*
X58520735Y-31847695D01*
X58467845Y-31853782D01*
X58445472Y-31845639D01*
X58408868Y-31806978D01*
X58394637Y-31776462D01*
X58388550Y-31723571D01*
X58421123Y-31634076D01*
X58459784Y-31597473D01*
X58490301Y-31583242D01*
X58543192Y-31577156D01*
X58565565Y-31585299D01*
X58602169Y-31623959D01*
X58616399Y-31654476D01*
X58622486Y-31707367D01*
X58589913Y-31796861D01*
X58596000Y-31849752D01*
X58610230Y-31880268D01*
X58646834Y-31918929D01*
X58736328Y-31951502D01*
X58789219Y-31945415D01*
X58819736Y-31931185D01*
X58858396Y-31894581D01*
X58890969Y-31805087D01*
X58884883Y-31752196D01*
X58870652Y-31721679D01*
X58834048Y-31683019D01*
X58744554Y-31650445D01*
X58691663Y-31656532D01*
X58661147Y-31670763D01*
X58622486Y-31707367D01*
X58600276Y-31141857D02*
X58567703Y-31231351D01*
X58573790Y-31284242D01*
X58588021Y-31314759D01*
X58638855Y-31383936D01*
X58720206Y-31438883D01*
X58899195Y-31504030D01*
X58952085Y-31497942D01*
X58982603Y-31483713D01*
X59021262Y-31447109D01*
X59053836Y-31357614D01*
X59047749Y-31304724D01*
X59033519Y-31274206D01*
X58996915Y-31235547D01*
X58885047Y-31194830D01*
X58832157Y-31200917D01*
X58801639Y-31215147D01*
X58762979Y-31251751D01*
X58730406Y-31341246D01*
X58736492Y-31394136D01*
X58750723Y-31424653D01*
X58787327Y-31463313D01*
X58771286Y-30672011D02*
X58689853Y-30895747D01*
X58905446Y-30999555D01*
X58891216Y-30969037D01*
X58885129Y-30916147D01*
X58925846Y-30804279D01*
X58964506Y-30767675D01*
X58995023Y-30753444D01*
X59047914Y-30747358D01*
X59159781Y-30788074D01*
X59196385Y-30826734D01*
X59210616Y-30857252D01*
X59216702Y-30910142D01*
X59175986Y-31022010D01*
X59137326Y-31058614D01*
X59106808Y-31072844D01*
X58885293Y-30358780D02*
X58901579Y-30314033D01*
X58940240Y-30277429D01*
X58970757Y-30263200D01*
X59023648Y-30257112D01*
X59121286Y-30267312D01*
X59233153Y-30308029D01*
X59314505Y-30362975D01*
X59351108Y-30401636D01*
X59365339Y-30432153D01*
X59371426Y-30485043D01*
X59355139Y-30529790D01*
X59316479Y-30566394D01*
X59285962Y-30580625D01*
X59233071Y-30586711D01*
X59135433Y-30576512D01*
X59023566Y-30535796D01*
X58942215Y-30480848D01*
X58905611Y-30442188D01*
X58891380Y-30411671D01*
X58885293Y-30358780D01*
X42734783Y-25072474D02*
X42696123Y-25109077D01*
X42671693Y-25176198D01*
X42669637Y-25251463D01*
X42698097Y-25312496D01*
X42734701Y-25351156D01*
X42816052Y-25406104D01*
X42883173Y-25430534D01*
X42980811Y-25440733D01*
X43033702Y-25434647D01*
X43094736Y-25406186D01*
X43141539Y-25347208D01*
X43157826Y-25302461D01*
X43159882Y-25227197D01*
X43145652Y-25196680D01*
X42989037Y-25139676D01*
X42956464Y-25229171D01*
X43263689Y-25011603D02*
X42793843Y-24840593D01*
X43361409Y-24743120D01*
X42891563Y-24572110D01*
X43442843Y-24519383D02*
X42972996Y-24348373D01*
X43013713Y-24236505D01*
X43060517Y-24177527D01*
X43121551Y-24149067D01*
X43174441Y-24142980D01*
X43272079Y-24153180D01*
X43339201Y-24177610D01*
X43420552Y-24232557D01*
X43457156Y-24271217D01*
X43485616Y-24332251D01*
X43483559Y-24407515D01*
X43442843Y-24519383D01*
X43204630Y-30656516D02*
X43210717Y-30603626D01*
X43186287Y-30536505D01*
X43139483Y-30477527D01*
X43078449Y-30449067D01*
X43025559Y-30442980D01*
X42927921Y-30453180D01*
X42860799Y-30477610D01*
X42779448Y-30532557D01*
X42742844Y-30571217D01*
X42714384Y-30632251D01*
X42716441Y-30707515D01*
X42732728Y-30752262D01*
X42779530Y-30811240D01*
X42810048Y-30825470D01*
X42966663Y-30768467D01*
X42934090Y-30678973D01*
X42838591Y-31043120D02*
X43308437Y-30872110D01*
X42936311Y-31311603D01*
X43406157Y-31140593D01*
X43017745Y-31535340D02*
X43487591Y-31364330D01*
X43528307Y-31476198D01*
X43530363Y-31551463D01*
X43501903Y-31612496D01*
X43465299Y-31651156D01*
X43383948Y-31706104D01*
X43316827Y-31730534D01*
X43219189Y-31740733D01*
X43166298Y-31734647D01*
X43105264Y-31706186D01*
X43058461Y-31647208D01*
X43017745Y-31535340D01*
X43753572Y-25326190D02*
X43920239Y-25826190D01*
X44086905Y-25326190D01*
X44420238Y-25564286D02*
X44491667Y-25588095D01*
X44515476Y-25611905D01*
X44539286Y-25659524D01*
X44539286Y-25730952D01*
X44515476Y-25778571D01*
X44491667Y-25802381D01*
X44444048Y-25826190D01*
X44253572Y-25826190D01*
X44253572Y-25326190D01*
X44420238Y-25326190D01*
X44467857Y-25350000D01*
X44491667Y-25373810D01*
X44515476Y-25421429D01*
X44515476Y-25469048D01*
X44491667Y-25516667D01*
X44467857Y-25540476D01*
X44420238Y-25564286D01*
X44253572Y-25564286D01*
X44729762Y-25683333D02*
X44967857Y-25683333D01*
X44682143Y-25826190D02*
X44848810Y-25326190D01*
X45015476Y-25826190D01*
X45110714Y-25326190D02*
X45396428Y-25326190D01*
X45253571Y-25826190D02*
X45253571Y-25326190D01*
X56578572Y-30201190D02*
X56745239Y-30701190D01*
X56911905Y-30201190D01*
X57245238Y-30439286D02*
X57316667Y-30463095D01*
X57340476Y-30486905D01*
X57364286Y-30534524D01*
X57364286Y-30605952D01*
X57340476Y-30653571D01*
X57316667Y-30677381D01*
X57269048Y-30701190D01*
X57078572Y-30701190D01*
X57078572Y-30201190D01*
X57245238Y-30201190D01*
X57292857Y-30225000D01*
X57316667Y-30248810D01*
X57340476Y-30296429D01*
X57340476Y-30344048D01*
X57316667Y-30391667D01*
X57292857Y-30415476D01*
X57245238Y-30439286D01*
X57078572Y-30439286D01*
X57554762Y-30558333D02*
X57792857Y-30558333D01*
X57507143Y-30701190D02*
X57673810Y-30201190D01*
X57840476Y-30701190D01*
X57935714Y-30201190D02*
X58221428Y-30201190D01*
X58078571Y-30701190D02*
X58078571Y-30201190D01*
X56678572Y-25226190D02*
X56845239Y-25726190D01*
X57011905Y-25226190D01*
X57345238Y-25464286D02*
X57416667Y-25488095D01*
X57440476Y-25511905D01*
X57464286Y-25559524D01*
X57464286Y-25630952D01*
X57440476Y-25678571D01*
X57416667Y-25702381D01*
X57369048Y-25726190D01*
X57178572Y-25726190D01*
X57178572Y-25226190D01*
X57345238Y-25226190D01*
X57392857Y-25250000D01*
X57416667Y-25273810D01*
X57440476Y-25321429D01*
X57440476Y-25369048D01*
X57416667Y-25416667D01*
X57392857Y-25440476D01*
X57345238Y-25464286D01*
X57178572Y-25464286D01*
X57654762Y-25583333D02*
X57892857Y-25583333D01*
X57607143Y-25726190D02*
X57773810Y-25226190D01*
X57940476Y-25726190D01*
X58035714Y-25226190D02*
X58321428Y-25226190D01*
X58178571Y-25726190D02*
X58178571Y-25226190D01*
X58285578Y-23991659D02*
X58187858Y-23723175D01*
X58236718Y-23857417D02*
X58706564Y-23686407D01*
X58623156Y-23666090D01*
X58562122Y-23637629D01*
X58523462Y-23601026D01*
X58651781Y-24162422D02*
X58657868Y-24109532D01*
X58672098Y-24079015D01*
X58708702Y-24040354D01*
X58731075Y-24032211D01*
X58783966Y-24038299D01*
X58814483Y-24052528D01*
X58853144Y-24089132D01*
X58885717Y-24178626D01*
X58879630Y-24231517D01*
X58865399Y-24262035D01*
X58828795Y-24300695D01*
X58806422Y-24308838D01*
X58753532Y-24302751D01*
X58723014Y-24288521D01*
X58684354Y-24251917D01*
X58651781Y-24162422D01*
X58613120Y-24125818D01*
X58582604Y-24111588D01*
X58529713Y-24105501D01*
X58440219Y-24138074D01*
X58403615Y-24176735D01*
X58389384Y-24207252D01*
X58383298Y-24260142D01*
X58415871Y-24349637D01*
X58454531Y-24386241D01*
X58485048Y-24400471D01*
X58537939Y-24406558D01*
X58627433Y-24373984D01*
X58664037Y-24335325D01*
X58678267Y-24304807D01*
X58684354Y-24251917D01*
X59064871Y-24670846D02*
X59032297Y-24581351D01*
X58993636Y-24544748D01*
X58963119Y-24530518D01*
X58879712Y-24510201D01*
X58782074Y-24520400D01*
X58603085Y-24585547D01*
X58566482Y-24624207D01*
X58552251Y-24654724D01*
X58546164Y-24707614D01*
X58578738Y-24797109D01*
X58617397Y-24833713D01*
X58647915Y-24847943D01*
X58700805Y-24854030D01*
X58812673Y-24813313D01*
X58849277Y-24774654D01*
X58863508Y-24744136D01*
X58869594Y-24691246D01*
X58837021Y-24601751D01*
X58798361Y-24565147D01*
X58767844Y-24550918D01*
X58714953Y-24544830D01*
X59235881Y-25140692D02*
X59154447Y-24916956D01*
X58922567Y-24976016D01*
X58953084Y-24990246D01*
X58991744Y-25026850D01*
X59032461Y-25138718D01*
X59026374Y-25191608D01*
X59012144Y-25222126D01*
X58975540Y-25260786D01*
X58863672Y-25301502D01*
X58810782Y-25295416D01*
X58780264Y-25281185D01*
X58741604Y-25244581D01*
X58700888Y-25132713D01*
X58706974Y-25079823D01*
X58721205Y-25049305D01*
X59349887Y-25453923D02*
X59366174Y-25498670D01*
X59360086Y-25551561D01*
X59345856Y-25582077D01*
X59309252Y-25620738D01*
X59227901Y-25675685D01*
X59116033Y-25716401D01*
X59018395Y-25726601D01*
X58965505Y-25720514D01*
X58934987Y-25706284D01*
X58896328Y-25669680D01*
X58880041Y-25624933D01*
X58886127Y-25572042D01*
X58900358Y-25541525D01*
X58936962Y-25502865D01*
X59018313Y-25447918D01*
X59130181Y-25407201D01*
X59227819Y-25397002D01*
X59280709Y-25403088D01*
X59311226Y-25417319D01*
X59349887Y-25453923D01*
D12*
X45585385Y-22415840D02*
G75*
G02X46500000Y-22800000I124615J-984160D01*
G01*
X56414615Y-22415840D02*
G75*
G03X55500000Y-22800000I-124615J-984160D01*
G01*
X46509339Y-22811329D02*
G75*
G03X55500000Y-22800000I4490661J3711329D01*
G01*
X44250000Y-23950000D02*
G75*
G02X45700000Y-22400000I1500000J50000D01*
G01*
X57750000Y-23950000D02*
G75*
G03X56300000Y-22400000I-1500000J50000D01*
G01*
X44250000Y-26200000D02*
X44250000Y-23900000D01*
X57750000Y-26200000D02*
X57750000Y-23900000D01*
X57750000Y-29800000D02*
X57750000Y-31450000D01*
X57750000Y-31450000D02*
X55150000Y-34050000D01*
X55150000Y-34050000D02*
X55150000Y-34850000D01*
X55150000Y-34850000D02*
X46850000Y-34850000D01*
X46850000Y-34850000D02*
X46850000Y-34050000D01*
X46850000Y-34050000D02*
X44250000Y-31450000D01*
X44250000Y-31450000D02*
X44250000Y-29800000D01*
M02*
