G04 #@! TF.FileFunction,Copper,L2,Bot,Signal*
%FSLAX46Y46*%
G04 Gerber Fmt 4.6, Leading zero omitted, Abs format (unit mm)*
G04 Created by KiCad (PCBNEW 4.0.5+dfsg1-4) date Mon Mar 11 19:24:06 2019*
%MOMM*%
%LPD*%
G01*
G04 APERTURE LIST*
%ADD10C,0.100000*%
%ADD11C,1.000000*%
%ADD12C,5.000000*%
%ADD13O,0.800000X2.600000*%
%ADD14C,0.900000*%
%ADD15C,2.000000*%
%ADD16R,0.900000X1.300000*%
%ADD17C,6.000000*%
%ADD18C,3.000000*%
%ADD19C,0.600000*%
%ADD20C,1.200000*%
%ADD21C,0.800000*%
%ADD22C,0.254000*%
G04 APERTURE END LIST*
D10*
D11*
X55370711Y-21649390D03*
X57350610Y-23629289D03*
X54858058Y-26157196D03*
D10*
G36*
X51923565Y-24248007D02*
X55459099Y-20712473D01*
X58287527Y-23540901D01*
X54751993Y-27076435D01*
X51923565Y-24248007D01*
X51923565Y-24248007D01*
G37*
D11*
X52842804Y-24141942D03*
X52800000Y-29800000D03*
X49200000Y-29800000D03*
X49200000Y-26200000D03*
D12*
X51000000Y-28000000D03*
D11*
X52800000Y-26200000D03*
D13*
X57200000Y-28000000D03*
X44800000Y-28000000D03*
D10*
G36*
X59994467Y-27221228D02*
X58949301Y-27321866D01*
X58954842Y-25814395D01*
X59701389Y-25742511D01*
X59994467Y-27221228D01*
X59994467Y-27221228D01*
G37*
D14*
X59400000Y-26525000D03*
D15*
X21000000Y-28000000D03*
X28000000Y-21000000D03*
X28000000Y-35000000D03*
X35000000Y-28000000D03*
D10*
G36*
X58949301Y-28653134D02*
X59994467Y-28753772D01*
X59701389Y-30232489D01*
X58954842Y-30160605D01*
X58949301Y-28653134D01*
X58949301Y-28653134D01*
G37*
D14*
X59400000Y-29450000D03*
D10*
G36*
X42005533Y-28778772D02*
X43050699Y-28678134D01*
X43045158Y-30185605D01*
X42298611Y-30257489D01*
X42005533Y-28778772D01*
X42005533Y-28778772D01*
G37*
D14*
X42600000Y-29475000D03*
D10*
G36*
X43050699Y-27321866D02*
X42005533Y-27221228D01*
X42298611Y-25742511D01*
X43045158Y-25814395D01*
X43050699Y-27321866D01*
X43050699Y-27321866D01*
G37*
D14*
X42600000Y-26525000D03*
D16*
X58100000Y-26650000D03*
D14*
X58100000Y-26650000D03*
D16*
X58100000Y-29350000D03*
D14*
X58100000Y-29350000D03*
D16*
X43900000Y-26650000D03*
D14*
X43900000Y-26650000D03*
D16*
X43900000Y-29350000D03*
D14*
X43900000Y-29350000D03*
D11*
X44649390Y-23629289D03*
X46629289Y-21649390D03*
X49157196Y-24141942D03*
D10*
G36*
X47248007Y-27076435D02*
X43712473Y-23540901D01*
X46540901Y-20712473D01*
X50076435Y-24248007D01*
X47248007Y-27076435D01*
X47248007Y-27076435D01*
G37*
D11*
X47141942Y-26157196D03*
X57350610Y-32370711D03*
X55370711Y-34350610D03*
X52842804Y-31858058D03*
D10*
G36*
X54751993Y-28923565D02*
X58287527Y-32459099D01*
X55459099Y-35287527D01*
X51923565Y-31751993D01*
X54751993Y-28923565D01*
X54751993Y-28923565D01*
G37*
D11*
X54858058Y-29842804D03*
X46629289Y-34350610D03*
X44649390Y-32370711D03*
X47141942Y-29842804D03*
D10*
G36*
X50076435Y-31751993D02*
X46540901Y-35287527D01*
X43712473Y-32459099D01*
X47248007Y-28923565D01*
X50076435Y-31751993D01*
X50076435Y-31751993D01*
G37*
D11*
X49157196Y-31858058D03*
D17*
X28000000Y-28000000D03*
D18*
X28000000Y-28000000D03*
D19*
X34700000Y-34700000D03*
X21300000Y-21300000D03*
X28000000Y-37500000D03*
X21200000Y-34650000D03*
X34700000Y-21300000D03*
X18500000Y-28000000D03*
X37500000Y-28000000D03*
X28000000Y-18500000D03*
D20*
X44374390Y-23900610D02*
X42575000Y-25700000D01*
X42575000Y-25700000D02*
X42575000Y-26725000D01*
X44349390Y-32074390D02*
X42600000Y-30325000D01*
X42600000Y-30325000D02*
X42600000Y-29500000D01*
D21*
X52800000Y-29800000D02*
X51000000Y-28000000D01*
X49200000Y-29800000D02*
X51000000Y-28000000D01*
X49200000Y-26200000D02*
X51000000Y-28000000D01*
X52800000Y-26200000D02*
X51000000Y-28000000D01*
X51000000Y-28000000D02*
X54800000Y-28000000D01*
X54800000Y-28000000D02*
X57500000Y-25300000D01*
X58750000Y-25300000D02*
X59425000Y-25975000D01*
X57500000Y-25300000D02*
X58750000Y-25300000D01*
X59425000Y-25975000D02*
X59425000Y-26750000D01*
X54800000Y-28000000D02*
X57425000Y-30625000D01*
X58800000Y-30625000D02*
X59425000Y-30000000D01*
X57425000Y-30625000D02*
X58800000Y-30625000D01*
X59425000Y-30000000D02*
X59425000Y-29250000D01*
D22*
G36*
X37873000Y-37873000D02*
X18127000Y-37873000D01*
X18127000Y-36152532D01*
X27027073Y-36152532D01*
X27125736Y-36419387D01*
X27735461Y-36645908D01*
X28385460Y-36621856D01*
X28874264Y-36419387D01*
X28972927Y-36152532D01*
X28000000Y-35179605D01*
X27027073Y-36152532D01*
X18127000Y-36152532D01*
X18127000Y-34735461D01*
X26354092Y-34735461D01*
X26378144Y-35385460D01*
X26580613Y-35874264D01*
X26847468Y-35972927D01*
X27820395Y-35000000D01*
X28179605Y-35000000D01*
X29152532Y-35972927D01*
X29419387Y-35874264D01*
X29645908Y-35264539D01*
X29621856Y-34614540D01*
X29419387Y-34125736D01*
X29152532Y-34027073D01*
X28179605Y-35000000D01*
X27820395Y-35000000D01*
X26847468Y-34027073D01*
X26580613Y-34125736D01*
X26354092Y-34735461D01*
X18127000Y-34735461D01*
X18127000Y-33847468D01*
X27027073Y-33847468D01*
X28000000Y-34820395D01*
X28972927Y-33847468D01*
X28874264Y-33580613D01*
X28264539Y-33354092D01*
X27614540Y-33378144D01*
X27125736Y-33580613D01*
X27027073Y-33847468D01*
X18127000Y-33847468D01*
X18127000Y-29152532D01*
X20027073Y-29152532D01*
X20125736Y-29419387D01*
X20735461Y-29645908D01*
X21385460Y-29621856D01*
X21874264Y-29419387D01*
X21972927Y-29152532D01*
X21000000Y-28179605D01*
X20027073Y-29152532D01*
X18127000Y-29152532D01*
X18127000Y-27735461D01*
X19354092Y-27735461D01*
X19378144Y-28385460D01*
X19580613Y-28874264D01*
X19847468Y-28972927D01*
X20820395Y-28000000D01*
X21179605Y-28000000D01*
X22152532Y-28972927D01*
X22419387Y-28874264D01*
X22482317Y-28704875D01*
X24361432Y-28704875D01*
X24908146Y-30043639D01*
X24928723Y-30074434D01*
X25403370Y-30417025D01*
X26400603Y-29419792D01*
X26580051Y-29599554D01*
X25582975Y-30596630D01*
X25925566Y-31071277D01*
X27258800Y-31631342D01*
X28704875Y-31638568D01*
X30043639Y-31091854D01*
X30074434Y-31071277D01*
X30417025Y-30596630D01*
X29419792Y-29599397D01*
X29599554Y-29419949D01*
X30596630Y-30417025D01*
X31071277Y-30074434D01*
X31458549Y-29152532D01*
X34027073Y-29152532D01*
X34125736Y-29419387D01*
X34735461Y-29645908D01*
X35385460Y-29621856D01*
X35874264Y-29419387D01*
X35972927Y-29152532D01*
X35000000Y-28179605D01*
X34027073Y-29152532D01*
X31458549Y-29152532D01*
X31631342Y-28741200D01*
X31636367Y-27735461D01*
X33354092Y-27735461D01*
X33378144Y-28385460D01*
X33580613Y-28874264D01*
X33847468Y-28972927D01*
X34820395Y-28000000D01*
X35179605Y-28000000D01*
X36152532Y-28972927D01*
X36419387Y-28874264D01*
X36645908Y-28264539D01*
X36621856Y-27614540D01*
X36419387Y-27125736D01*
X36152532Y-27027073D01*
X35179605Y-28000000D01*
X34820395Y-28000000D01*
X33847468Y-27027073D01*
X33580613Y-27125736D01*
X33354092Y-27735461D01*
X31636367Y-27735461D01*
X31638568Y-27295125D01*
X31455758Y-26847468D01*
X34027073Y-26847468D01*
X35000000Y-27820395D01*
X35972927Y-26847468D01*
X35874264Y-26580613D01*
X35264539Y-26354092D01*
X34614540Y-26378144D01*
X34125736Y-26580613D01*
X34027073Y-26847468D01*
X31455758Y-26847468D01*
X31091854Y-25956361D01*
X31071277Y-25925566D01*
X30596630Y-25582975D01*
X29599397Y-26580208D01*
X29419949Y-26400446D01*
X30417025Y-25403370D01*
X30074434Y-24928723D01*
X28741200Y-24368658D01*
X27295125Y-24361432D01*
X25956361Y-24908146D01*
X25925566Y-24928723D01*
X25582975Y-25403370D01*
X26580208Y-26400603D01*
X26400446Y-26580051D01*
X25403370Y-25582975D01*
X24928723Y-25925566D01*
X24368658Y-27258800D01*
X24361432Y-28704875D01*
X22482317Y-28704875D01*
X22645908Y-28264539D01*
X22621856Y-27614540D01*
X22419387Y-27125736D01*
X22152532Y-27027073D01*
X21179605Y-28000000D01*
X20820395Y-28000000D01*
X19847468Y-27027073D01*
X19580613Y-27125736D01*
X19354092Y-27735461D01*
X18127000Y-27735461D01*
X18127000Y-26847468D01*
X20027073Y-26847468D01*
X21000000Y-27820395D01*
X21972927Y-26847468D01*
X21874264Y-26580613D01*
X21264539Y-26354092D01*
X20614540Y-26378144D01*
X20125736Y-26580613D01*
X20027073Y-26847468D01*
X18127000Y-26847468D01*
X18127000Y-22152532D01*
X27027073Y-22152532D01*
X27125736Y-22419387D01*
X27735461Y-22645908D01*
X28385460Y-22621856D01*
X28874264Y-22419387D01*
X28972927Y-22152532D01*
X28000000Y-21179605D01*
X27027073Y-22152532D01*
X18127000Y-22152532D01*
X18127000Y-20735461D01*
X26354092Y-20735461D01*
X26378144Y-21385460D01*
X26580613Y-21874264D01*
X26847468Y-21972927D01*
X27820395Y-21000000D01*
X28179605Y-21000000D01*
X29152532Y-21972927D01*
X29419387Y-21874264D01*
X29645908Y-21264539D01*
X29621856Y-20614540D01*
X29419387Y-20125736D01*
X29152532Y-20027073D01*
X28179605Y-21000000D01*
X27820395Y-21000000D01*
X26847468Y-20027073D01*
X26580613Y-20125736D01*
X26354092Y-20735461D01*
X18127000Y-20735461D01*
X18127000Y-19847468D01*
X27027073Y-19847468D01*
X28000000Y-20820395D01*
X28972927Y-19847468D01*
X28874264Y-19580613D01*
X28264539Y-19354092D01*
X27614540Y-19378144D01*
X27125736Y-19580613D01*
X27027073Y-19847468D01*
X18127000Y-19847468D01*
X18127000Y-18127000D01*
X37873000Y-18127000D01*
X37873000Y-37873000D01*
X37873000Y-37873000D01*
G37*
X37873000Y-37873000D02*
X18127000Y-37873000D01*
X18127000Y-36152532D01*
X27027073Y-36152532D01*
X27125736Y-36419387D01*
X27735461Y-36645908D01*
X28385460Y-36621856D01*
X28874264Y-36419387D01*
X28972927Y-36152532D01*
X28000000Y-35179605D01*
X27027073Y-36152532D01*
X18127000Y-36152532D01*
X18127000Y-34735461D01*
X26354092Y-34735461D01*
X26378144Y-35385460D01*
X26580613Y-35874264D01*
X26847468Y-35972927D01*
X27820395Y-35000000D01*
X28179605Y-35000000D01*
X29152532Y-35972927D01*
X29419387Y-35874264D01*
X29645908Y-35264539D01*
X29621856Y-34614540D01*
X29419387Y-34125736D01*
X29152532Y-34027073D01*
X28179605Y-35000000D01*
X27820395Y-35000000D01*
X26847468Y-34027073D01*
X26580613Y-34125736D01*
X26354092Y-34735461D01*
X18127000Y-34735461D01*
X18127000Y-33847468D01*
X27027073Y-33847468D01*
X28000000Y-34820395D01*
X28972927Y-33847468D01*
X28874264Y-33580613D01*
X28264539Y-33354092D01*
X27614540Y-33378144D01*
X27125736Y-33580613D01*
X27027073Y-33847468D01*
X18127000Y-33847468D01*
X18127000Y-29152532D01*
X20027073Y-29152532D01*
X20125736Y-29419387D01*
X20735461Y-29645908D01*
X21385460Y-29621856D01*
X21874264Y-29419387D01*
X21972927Y-29152532D01*
X21000000Y-28179605D01*
X20027073Y-29152532D01*
X18127000Y-29152532D01*
X18127000Y-27735461D01*
X19354092Y-27735461D01*
X19378144Y-28385460D01*
X19580613Y-28874264D01*
X19847468Y-28972927D01*
X20820395Y-28000000D01*
X21179605Y-28000000D01*
X22152532Y-28972927D01*
X22419387Y-28874264D01*
X22482317Y-28704875D01*
X24361432Y-28704875D01*
X24908146Y-30043639D01*
X24928723Y-30074434D01*
X25403370Y-30417025D01*
X26400603Y-29419792D01*
X26580051Y-29599554D01*
X25582975Y-30596630D01*
X25925566Y-31071277D01*
X27258800Y-31631342D01*
X28704875Y-31638568D01*
X30043639Y-31091854D01*
X30074434Y-31071277D01*
X30417025Y-30596630D01*
X29419792Y-29599397D01*
X29599554Y-29419949D01*
X30596630Y-30417025D01*
X31071277Y-30074434D01*
X31458549Y-29152532D01*
X34027073Y-29152532D01*
X34125736Y-29419387D01*
X34735461Y-29645908D01*
X35385460Y-29621856D01*
X35874264Y-29419387D01*
X35972927Y-29152532D01*
X35000000Y-28179605D01*
X34027073Y-29152532D01*
X31458549Y-29152532D01*
X31631342Y-28741200D01*
X31636367Y-27735461D01*
X33354092Y-27735461D01*
X33378144Y-28385460D01*
X33580613Y-28874264D01*
X33847468Y-28972927D01*
X34820395Y-28000000D01*
X35179605Y-28000000D01*
X36152532Y-28972927D01*
X36419387Y-28874264D01*
X36645908Y-28264539D01*
X36621856Y-27614540D01*
X36419387Y-27125736D01*
X36152532Y-27027073D01*
X35179605Y-28000000D01*
X34820395Y-28000000D01*
X33847468Y-27027073D01*
X33580613Y-27125736D01*
X33354092Y-27735461D01*
X31636367Y-27735461D01*
X31638568Y-27295125D01*
X31455758Y-26847468D01*
X34027073Y-26847468D01*
X35000000Y-27820395D01*
X35972927Y-26847468D01*
X35874264Y-26580613D01*
X35264539Y-26354092D01*
X34614540Y-26378144D01*
X34125736Y-26580613D01*
X34027073Y-26847468D01*
X31455758Y-26847468D01*
X31091854Y-25956361D01*
X31071277Y-25925566D01*
X30596630Y-25582975D01*
X29599397Y-26580208D01*
X29419949Y-26400446D01*
X30417025Y-25403370D01*
X30074434Y-24928723D01*
X28741200Y-24368658D01*
X27295125Y-24361432D01*
X25956361Y-24908146D01*
X25925566Y-24928723D01*
X25582975Y-25403370D01*
X26580208Y-26400603D01*
X26400446Y-26580051D01*
X25403370Y-25582975D01*
X24928723Y-25925566D01*
X24368658Y-27258800D01*
X24361432Y-28704875D01*
X22482317Y-28704875D01*
X22645908Y-28264539D01*
X22621856Y-27614540D01*
X22419387Y-27125736D01*
X22152532Y-27027073D01*
X21179605Y-28000000D01*
X20820395Y-28000000D01*
X19847468Y-27027073D01*
X19580613Y-27125736D01*
X19354092Y-27735461D01*
X18127000Y-27735461D01*
X18127000Y-26847468D01*
X20027073Y-26847468D01*
X21000000Y-27820395D01*
X21972927Y-26847468D01*
X21874264Y-26580613D01*
X21264539Y-26354092D01*
X20614540Y-26378144D01*
X20125736Y-26580613D01*
X20027073Y-26847468D01*
X18127000Y-26847468D01*
X18127000Y-22152532D01*
X27027073Y-22152532D01*
X27125736Y-22419387D01*
X27735461Y-22645908D01*
X28385460Y-22621856D01*
X28874264Y-22419387D01*
X28972927Y-22152532D01*
X28000000Y-21179605D01*
X27027073Y-22152532D01*
X18127000Y-22152532D01*
X18127000Y-20735461D01*
X26354092Y-20735461D01*
X26378144Y-21385460D01*
X26580613Y-21874264D01*
X26847468Y-21972927D01*
X27820395Y-21000000D01*
X28179605Y-21000000D01*
X29152532Y-21972927D01*
X29419387Y-21874264D01*
X29645908Y-21264539D01*
X29621856Y-20614540D01*
X29419387Y-20125736D01*
X29152532Y-20027073D01*
X28179605Y-21000000D01*
X27820395Y-21000000D01*
X26847468Y-20027073D01*
X26580613Y-20125736D01*
X26354092Y-20735461D01*
X18127000Y-20735461D01*
X18127000Y-19847468D01*
X27027073Y-19847468D01*
X28000000Y-20820395D01*
X28972927Y-19847468D01*
X28874264Y-19580613D01*
X28264539Y-19354092D01*
X27614540Y-19378144D01*
X27125736Y-19580613D01*
X27027073Y-19847468D01*
X18127000Y-19847468D01*
X18127000Y-18127000D01*
X37873000Y-18127000D01*
X37873000Y-37873000D01*
M02*
