G04 #@! TF.FileFunction,Copper,L1,Top,Signal*
%FSLAX46Y46*%
G04 Gerber Fmt 4.6, Leading zero omitted, Abs format (unit mm)*
G04 Created by KiCad (PCBNEW 4.0.5+dfsg1-4) date Mon Mar 11 19:24:06 2019*
%MOMM*%
%LPD*%
G01*
G04 APERTURE LIST*
%ADD10C,0.100000*%
%ADD11C,1.000000*%
%ADD12O,0.800000X2.600000*%
%ADD13C,0.900000*%
%ADD14C,2.000000*%
%ADD15R,0.900000X1.300000*%
%ADD16C,6.000000*%
%ADD17C,0.600000*%
%ADD18C,0.800000*%
%ADD19C,0.900000*%
%ADD20C,1.200000*%
%ADD21C,2.000000*%
%ADD22C,1.000000*%
G04 APERTURE END LIST*
D10*
D11*
X55370711Y-21649390D03*
X57350610Y-23629289D03*
X54858058Y-26157196D03*
X52842804Y-24141942D03*
X52800000Y-29800000D03*
X49200000Y-29800000D03*
X49200000Y-26200000D03*
X52800000Y-26200000D03*
D12*
X57200000Y-28000000D03*
X44800000Y-28000000D03*
D10*
G36*
X51000000Y-25525126D02*
X53474874Y-28000000D01*
X51000000Y-30474874D01*
X48525126Y-28000000D01*
X51000000Y-25525126D01*
X51000000Y-25525126D01*
G37*
G36*
X59994467Y-27221228D02*
X58949301Y-27321866D01*
X58954842Y-25814395D01*
X59701389Y-25742511D01*
X59994467Y-27221228D01*
X59994467Y-27221228D01*
G37*
D13*
X59400000Y-26525000D03*
D14*
X21000000Y-28000000D03*
X28000000Y-21000000D03*
X28000000Y-35000000D03*
X35000000Y-28000000D03*
D10*
G36*
X58949301Y-28653134D02*
X59994467Y-28753772D01*
X59701389Y-30232489D01*
X58954842Y-30160605D01*
X58949301Y-28653134D01*
X58949301Y-28653134D01*
G37*
D13*
X59400000Y-29450000D03*
D10*
G36*
X42005533Y-28778772D02*
X43050699Y-28678134D01*
X43045158Y-30185605D01*
X42298611Y-30257489D01*
X42005533Y-28778772D01*
X42005533Y-28778772D01*
G37*
D13*
X42600000Y-29475000D03*
D10*
G36*
X43050699Y-27321866D02*
X42005533Y-27221228D01*
X42298611Y-25742511D01*
X43045158Y-25814395D01*
X43050699Y-27321866D01*
X43050699Y-27321866D01*
G37*
D13*
X42600000Y-26525000D03*
D15*
X58100000Y-26650000D03*
D13*
X58100000Y-26650000D03*
D15*
X58100000Y-29350000D03*
D13*
X58100000Y-29350000D03*
D15*
X43900000Y-26650000D03*
D13*
X43900000Y-26650000D03*
D15*
X43900000Y-29350000D03*
D13*
X43900000Y-29350000D03*
D11*
X44649390Y-23629289D03*
X46629289Y-21649390D03*
X49157196Y-24141942D03*
X47141942Y-26157196D03*
X57350610Y-32370711D03*
X55370711Y-34350610D03*
X52842804Y-31858058D03*
X54858058Y-29842804D03*
X46629289Y-34350610D03*
X44649390Y-32370711D03*
X47141942Y-29842804D03*
X49157196Y-31858058D03*
D16*
X28000000Y-28000000D03*
D17*
X34700000Y-34700000D03*
X21300000Y-21300000D03*
X28000000Y-37500000D03*
X21200000Y-34650000D03*
X34700000Y-21300000D03*
X18500000Y-28000000D03*
X37500000Y-28000000D03*
X28000000Y-18500000D03*
D18*
X57200000Y-28000000D02*
X57200000Y-29350000D01*
X57350000Y-29500000D02*
X57950000Y-29500000D01*
X57200000Y-29350000D02*
X57350000Y-29500000D01*
X57950000Y-29500000D02*
X58100000Y-29350000D01*
X57200000Y-28000000D02*
X57200000Y-26800000D01*
X57200000Y-26800000D02*
X57350000Y-26650000D01*
X57350000Y-26650000D02*
X58100000Y-26650000D01*
D19*
X43850000Y-29450000D02*
X44800000Y-29450000D01*
X44800000Y-29450000D02*
X44800000Y-28000000D01*
X43875000Y-26550000D02*
X44600000Y-26550000D01*
X44800000Y-26750000D02*
X44800000Y-28000000D01*
X44600000Y-26550000D02*
X44800000Y-26750000D01*
D20*
X44649390Y-32370711D02*
X44649390Y-32335356D01*
X44649390Y-32335356D02*
X48984746Y-28000000D01*
X48984746Y-28000000D02*
X51000000Y-28000000D01*
X44649390Y-23629289D02*
X44649390Y-23664644D01*
X44649390Y-23664644D02*
X48984746Y-28000000D01*
X48984746Y-28000000D02*
X51000000Y-28000000D01*
X46629289Y-34350610D02*
X46664644Y-34350610D01*
X46664644Y-34350610D02*
X51000000Y-30015254D01*
X51000000Y-30015254D02*
X51000000Y-28000000D01*
X55370711Y-34350610D02*
X55335356Y-34350610D01*
X55335356Y-34350610D02*
X51000000Y-30015254D01*
X51000000Y-30015254D02*
X51000000Y-28000000D01*
X57350610Y-32370711D02*
X57350610Y-32335356D01*
X57350610Y-32335356D02*
X53015254Y-28000000D01*
X53015254Y-28000000D02*
X51000000Y-28000000D01*
X57350610Y-23629289D02*
X57350610Y-23664644D01*
X57350610Y-23664644D02*
X53015254Y-28000000D01*
X53015254Y-28000000D02*
X51000000Y-28000000D01*
X46629289Y-21649390D02*
X46664644Y-21649390D01*
X46664644Y-21649390D02*
X51000000Y-25984746D01*
X51000000Y-25984746D02*
X51000000Y-28000000D01*
X55370711Y-21649390D02*
X55335356Y-21649390D01*
X55335356Y-21649390D02*
X51000000Y-25984746D01*
X51000000Y-25984746D02*
X51000000Y-28000000D01*
D21*
X51000000Y-28000000D02*
X51000000Y-30121320D01*
X51000000Y-28000000D02*
X48878680Y-28000000D01*
X51000000Y-28000000D02*
X53121320Y-28000000D01*
X51000000Y-28000000D02*
X51000000Y-25878680D01*
D22*
X53100000Y-28000000D02*
X53121320Y-28000000D01*
X51000000Y-28000000D02*
X53100000Y-28000000D01*
D21*
X28000000Y-28000000D02*
X28000000Y-35000000D01*
X28000000Y-28000000D02*
X21000000Y-28000000D01*
X28000000Y-28000000D02*
X28000000Y-21000000D01*
X28000000Y-28000000D02*
X35000000Y-28000000D01*
M02*
