G04 #@! TF.FileFunction,Soldermask,Top*
%FSLAX46Y46*%
G04 Gerber Fmt 4.6, Leading zero omitted, Abs format (unit mm)*
G04 Created by KiCad (PCBNEW 4.0.5+dfsg1-4) date Mon Mar 11 19:24:06 2019*
%MOMM*%
%LPD*%
G01*
G04 APERTURE LIST*
%ADD10C,0.100000*%
%ADD11O,1.200000X3.000000*%
%ADD12C,1.300000*%
%ADD13R,1.300000X1.700000*%
%ADD14C,6.400000*%
%ADD15C,3.400000*%
G04 APERTURE END LIST*
D10*
D11*
X57200000Y-28000000D03*
X44800000Y-28000000D03*
D10*
G36*
X51000000Y-25242284D02*
X53757716Y-28000000D01*
X51000000Y-30757716D01*
X48242284Y-28000000D01*
X51000000Y-25242284D01*
X51000000Y-25242284D01*
G37*
G36*
X60212716Y-27401138D02*
X58769391Y-27540115D01*
X58736594Y-25634485D01*
X59881299Y-25524262D01*
X60212716Y-27401138D01*
X60212716Y-27401138D01*
G37*
D12*
X59400000Y-26525000D03*
D10*
G36*
X58769391Y-28434885D02*
X60212716Y-28573862D01*
X59881299Y-30450738D01*
X58736594Y-30340515D01*
X58769391Y-28434885D01*
X58769391Y-28434885D01*
G37*
D12*
X59400000Y-29450000D03*
D10*
G36*
X41787284Y-28598862D02*
X43230609Y-28459885D01*
X43263406Y-30365515D01*
X42118701Y-30475738D01*
X41787284Y-28598862D01*
X41787284Y-28598862D01*
G37*
D12*
X42600000Y-29475000D03*
D10*
G36*
X43230609Y-27540115D02*
X41787284Y-27401138D01*
X42118701Y-25524262D01*
X43263406Y-25634485D01*
X43230609Y-27540115D01*
X43230609Y-27540115D01*
G37*
D12*
X42600000Y-26525000D03*
D13*
X58100000Y-26650000D03*
D12*
X58100000Y-26650000D03*
D13*
X58100000Y-29350000D03*
D12*
X58100000Y-29350000D03*
D13*
X43900000Y-26650000D03*
D12*
X43900000Y-26650000D03*
D13*
X43900000Y-29350000D03*
D12*
X43900000Y-29350000D03*
D14*
X28000000Y-28000000D03*
D15*
X28000000Y-28000000D03*
M02*
