M48
;DRILL file {KiCad 4.0.5+dfsg1-4} date Mon Mar 11 19:24:14 2019
;FORMAT={-:-/ absolute / metric / decimal}
FMAT,2
METRIC,TZ
T1C0.300
T2C0.400
T3C1.000
%
G90
G05
M71
T1
X42.6Y-26.525
X42.6Y-29.475
X43.9Y-26.65
X43.9Y-29.35
X44.649Y-23.629
X44.649Y-32.371
X46.629Y-21.649
X46.629Y-34.351
X47.142Y-26.157
X47.142Y-29.843
X49.157Y-24.142
X49.157Y-31.858
X49.2Y-26.2
X49.2Y-29.8
X52.8Y-26.2
X52.8Y-29.8
X52.843Y-24.142
X52.843Y-31.858
X54.858Y-26.157
X54.858Y-29.843
X55.371Y-21.649
X55.371Y-34.351
X57.351Y-23.629
X57.351Y-32.371
X58.1Y-26.65
X58.1Y-29.35
X59.4Y-26.525
X59.4Y-29.45
T2
X18.5Y-28.
X21.2Y-34.65
X21.3Y-21.3
X28.Y-18.5
X28.Y-37.5
X34.7Y-21.3
X34.7Y-34.7
X37.5Y-28.
T3
X21.Y-28.
X28.Y-21.
X28.Y-28.
X28.Y-28.
X28.Y-35.
X35.Y-28.
T2
X44.8Y-28.85G85X44.8Y-27.15
G05
X57.2Y-28.85G85X57.2Y-27.15
G05
T0
M30
